<?xml version="1.0" encoding="utf-8" standalone="no"?>
<!DOCTYPE svg PUBLIC "-//W3C//DTD SVG 1.1//EN"
  "http://www.w3.org/Graphics/SVG/1.1/DTD/svg11.dtd">
<!-- Created with matplotlib (http://matplotlib.org/) -->
<svg height="379pt" version="1.1" viewBox="0 0 467 379" width="467pt" xmlns="http://www.w3.org/2000/svg" xmlns:xlink="http://www.w3.org/1999/xlink">
 <defs>
  <style type="text/css">
*{stroke-linecap:butt;stroke-linejoin:round;}
  </style>
 </defs>
 <g id="figure_1">
  <g id="patch_1">
   <path d="M 0 379.095075 
L 467.183886 379.095075 
L 467.183886 0 
L 0 0 
z
" style="fill:#ffffff;"/>
  </g>
  <g id="axes_1">
   <g id="patch_2">
    <path d="M 58.223886 333.36 
L 459.983886 333.36 
L 459.983886 7.2 
L 58.223886 7.2 
z
" style="fill:#ffffff;"/>
   </g>
   <g id="line2d_1">
    <path clip-path="url(#p488671c420)" d="M 0.656178 380.095075 
L 468.183886 0.543011 
" style="fill:none;stroke:#4c4c4c;stroke-linecap:round;stroke-width:0.5;"/>
   </g>
   <g id="matplotlib.axis_1">
    <g id="xtick_1">
     <g id="line2d_2">
      <path clip-path="url(#p488671c420)" d="M 58.223886 333.36 
L 58.223886 7.2 
" style="fill:none;stroke:#cccccc;stroke-linecap:round;stroke-width:1.3;"/>
     </g>
     <g id="line2d_3"/>
     <g id="text_1">
      <!-- $-10$ -->
      <defs>
       <path d="M 65.90625 23 
C 67.59375 23 69.40625 23 69.40625 25 
C 69.40625 27 67.59375 27 65.90625 27 
L 11.796875 27 
C 10.09375 27 8.296875 27 8.296875 25 
C 8.296875 23 10.09375 23 11.796875 23 
z
" id="CMSY10-0"/>
       <path d="M 25.90625 50.59375 
L 25.90625 0 
L 34.703125 0 
L 34.703125 71.015625 
L 28.90625 71.015625 
C 25.796875 60.109375 23.796875 58.609375 10.203125 56.90625 
L 10.203125 50.59375 
z
" id="Nimbus_Sans_L_Regular-49"/>
       <path d="M 27.5 71 
C 20.90625 71 14.90625 68.125 11.203125 63.21875 
C 6.59375 57.046875 4.296875 47.5625 4.296875 34.5 
C 4.296875 10.671875 12.296875 -2 27.5 -2 
C 42.5 -2 50.703125 10.671875 50.703125 33.90625 
C 50.703125 47.65625 48.5 56.84375 43.796875 63.21875 
C 40.09375 68.21875 34.203125 71 27.5 71 
z
M 27.5 63.1875 
C 37 63.1875 41.703125 53.625 41.703125 34.703125 
C 41.703125 14.671875 37.09375 5.3125 27.296875 5.3125 
C 18 5.3125 13.296875 15.078125 13.296875 34.40625 
C 13.296875 53.71875 18 63.1875 27.5 63.1875 
z
" id="Nimbus_Sans_L_Regular-48"/>
      </defs>
      <g style="fill:#262626;" transform="translate(45.986284 351.687816)scale(0.13 -0.13)">
       <use transform="scale(0.996264)" xlink:href="#CMSY10-0"/>
       <use transform="translate(77.487468 0)scale(0.996264)" xlink:href="#Nimbus_Sans_L_Regular-49"/>
       <use transform="translate(132.879145 0)scale(0.996264)" xlink:href="#Nimbus_Sans_L_Regular-48"/>
      </g>
     </g>
    </g>
    <g id="xtick_2">
     <g id="line2d_4">
      <path clip-path="url(#p488671c420)" d="M 111.791886 333.36 
L 111.791886 7.2 
" style="fill:none;stroke:#cccccc;stroke-linecap:round;stroke-width:1.3;"/>
     </g>
     <g id="line2d_5"/>
     <g id="text_2">
      <!-- $-8$ -->
      <defs>
       <path d="M 39.09375 37.484375 
C 46.40625 41.875 48.796875 45.46875 48.796875 52.15625 
C 48.796875 63.21875 40.09375 71 27.5 71 
C 15 71 6.203125 63.21875 6.203125 52.15625 
C 6.203125 45.578125 8.59375 41.984375 15.796875 37.484375 
C 7.703125 33.59375 3.703125 27.71875 3.703125 19.9375 
C 3.703125 6.96875 13.5 -2 27.5 -2 
C 41.5 -2 51.296875 6.984375 51.296875 19.84375 
C 51.296875 27.71875 47.296875 33.59375 39.09375 37.484375 
z
M 27.5 63.1875 
C 35 63.1875 39.796875 58.8125 39.796875 51.953125 
C 39.796875 45.375 34.90625 41 27.5 41 
C 20.09375 41 15.203125 45.375 15.203125 52.046875 
C 15.203125 58.8125 20.09375 63.1875 27.5 63.1875 
z
M 27.5 33.578125 
C 36.296875 33.578125 42.296875 28 42.296875 19.734375 
C 42.296875 11.390625 36.296875 5.8125 27.296875 5.8125 
C 18.703125 5.8125 12.703125 11.484375 12.703125 19.734375 
C 12.703125 28 18.703125 33.578125 27.5 33.578125 
z
" id="Nimbus_Sans_L_Regular-56"/>
      </defs>
      <g style="fill:#262626;" transform="translate(103.154743 351.687816)scale(0.13 -0.13)">
       <use transform="scale(0.996264)" xlink:href="#CMSY10-0"/>
       <use transform="translate(77.487468 0)scale(0.996264)" xlink:href="#Nimbus_Sans_L_Regular-56"/>
      </g>
     </g>
    </g>
    <g id="xtick_3">
     <g id="line2d_6">
      <path clip-path="url(#p488671c420)" d="M 165.359886 333.36 
L 165.359886 7.2 
" style="fill:none;stroke:#cccccc;stroke-linecap:round;stroke-width:1.3;"/>
     </g>
     <g id="line2d_7"/>
     <g id="text_3">
      <!-- $-6$ -->
      <defs>
       <path d="M 49.796875 52.84375 
C 48.09375 64.234375 40.5 71 29.703125 71 
C 21.90625 71 14.90625 67.21875 10.703125 60.9375 
C 6.296875 54.0625 4.296875 45.375 4.296875 32.515625 
C 4.296875 20.640625 6.09375 13.0625 10.296875 6.78125 
C 14.09375 1.078125 20.296875 -2 28.09375 -2 
C 41.59375 -2 51.296875 8.09375 51.296875 22.109375 
C 51.296875 35.4375 42.296875 44.8125 29.59375 44.8125 
C 22.59375 44.8125 17.09375 42.109375 13.296875 36.90625 
C 13.40625 53.8125 19 63.1875 29.09375 63.1875 
C 35.296875 63.1875 39.59375 59.421875 41 52.84375 
z
M 28.5 37 
C 37 37 42.296875 31.03125 42.296875 21.40625 
C 42.296875 12.390625 36.296875 5.8125 28.203125 5.8125 
C 20 5.8125 13.796875 12.703125 13.796875 21.90625 
C 13.796875 30.828125 19.796875 37 28.5 37 
z
" id="Nimbus_Sans_L_Regular-54"/>
      </defs>
      <g style="fill:#262626;" transform="translate(156.722743 351.687816)scale(0.13 -0.13)">
       <use transform="scale(0.996264)" xlink:href="#CMSY10-0"/>
       <use transform="translate(77.487468 0)scale(0.996264)" xlink:href="#Nimbus_Sans_L_Regular-54"/>
      </g>
     </g>
    </g>
    <g id="xtick_4">
     <g id="line2d_8">
      <path clip-path="url(#p488671c420)" d="M 218.927886 333.36 
L 218.927886 7.2 
" style="fill:none;stroke:#cccccc;stroke-linecap:round;stroke-width:1.3;"/>
     </g>
     <g id="line2d_9"/>
     <g id="text_4">
      <!-- $-4$ -->
      <defs>
       <path d="M 32.703125 17 
L 32.703125 0 
L 41.5 0 
L 41.5 17 
L 52 17 
L 52 24.90625 
L 41.5 24.90625 
L 41.5 71.015625 
L 35 71.015625 
L 2.796875 26.3125 
L 2.796875 17 
z
M 32.703125 24.90625 
L 10.5 24.90625 
L 32.703125 55.984375 
z
" id="Nimbus_Sans_L_Regular-52"/>
      </defs>
      <g style="fill:#262626;" transform="translate(210.290743 351.687816)scale(0.13 -0.13)">
       <use transform="scale(0.996264)" xlink:href="#CMSY10-0"/>
       <use transform="translate(77.487468 0)scale(0.996264)" xlink:href="#Nimbus_Sans_L_Regular-52"/>
      </g>
     </g>
    </g>
    <g id="xtick_5">
     <g id="line2d_10">
      <path clip-path="url(#p488671c420)" d="M 272.495886 333.36 
L 272.495886 7.2 
" style="fill:none;stroke:#cccccc;stroke-linecap:round;stroke-width:1.3;"/>
     </g>
     <g id="line2d_11"/>
     <g id="text_5">
      <!-- $-2$ -->
      <defs>
       <path d="M 50.59375 8.71875 
L 13.296875 8.71875 
C 14.203125 14.53125 17.40625 18.234375 26.09375 23.34375 
L 36.09375 28.75 
C 46 34.15625 51.09375 41.453125 51.09375 50.171875 
C 51.09375 56.078125 48.703125 61.59375 44.5 65.390625 
C 40.296875 69.203125 35.09375 71 28.40625 71 
C 19.40625 71 12.703125 67.796875 8.796875 61.796875 
C 6.296875 57.984375 5.203125 53.578125 5 46.359375 
L 13.796875 46.359375 
C 14.09375 51.171875 14.703125 54.078125 15.90625 56.375 
C 18.203125 60.6875 22.796875 63.296875 28.09375 63.296875 
C 36.09375 63.296875 42.09375 57.578125 42.09375 49.96875 
C 42.09375 44.359375 38.796875 39.546875 32.5 35.953125 
L 23.296875 30.75 
C 8.5 22.34375 4.203125 15.625 3.40625 0 
L 50.59375 0 
z
" id="Nimbus_Sans_L_Regular-50"/>
      </defs>
      <g style="fill:#262626;" transform="translate(263.858743 351.687816)scale(0.13 -0.13)">
       <use transform="scale(0.996264)" xlink:href="#CMSY10-0"/>
       <use transform="translate(77.487468 0)scale(0.996264)" xlink:href="#Nimbus_Sans_L_Regular-50"/>
      </g>
     </g>
    </g>
    <g id="xtick_6">
     <g id="line2d_12">
      <path clip-path="url(#p488671c420)" d="M 326.063886 333.36 
L 326.063886 7.2 
" style="fill:none;stroke:#cccccc;stroke-linecap:round;stroke-width:1.3;"/>
     </g>
     <g id="line2d_13"/>
     <g id="text_6">
      <!-- $0$ -->
      <g style="fill:#262626;" transform="translate(322.463428 351.687816)scale(0.13 -0.13)">
       <use transform="scale(0.996264)" xlink:href="#Nimbus_Sans_L_Regular-48"/>
      </g>
     </g>
    </g>
    <g id="xtick_7">
     <g id="line2d_14">
      <path clip-path="url(#p488671c420)" d="M 379.631886 333.36 
L 379.631886 7.2 
" style="fill:none;stroke:#cccccc;stroke-linecap:round;stroke-width:1.3;"/>
     </g>
     <g id="line2d_15"/>
     <g id="text_7">
      <!-- $2$ -->
      <g style="fill:#262626;" transform="translate(376.031428 351.687816)scale(0.13 -0.13)">
       <use transform="scale(0.996264)" xlink:href="#Nimbus_Sans_L_Regular-50"/>
      </g>
     </g>
    </g>
    <g id="xtick_8">
     <g id="line2d_16">
      <path clip-path="url(#p488671c420)" d="M 433.199886 333.36 
L 433.199886 7.2 
" style="fill:none;stroke:#cccccc;stroke-linecap:round;stroke-width:1.3;"/>
     </g>
     <g id="line2d_17"/>
     <g id="text_8">
      <!-- $4$ -->
      <g style="fill:#262626;" transform="translate(429.599428 351.687816)scale(0.13 -0.13)">
       <use transform="scale(0.996264)" xlink:href="#Nimbus_Sans_L_Regular-52"/>
      </g>
     </g>
    </g>
    <g id="text_9">
     <!-- GAFF v1.7 $\Delta$H (kcal/mol) -->
     <defs>
      <path d="M 70.90625 39 
L 40.5 39 
L 40.5 30.796875 
L 62.703125 30.796875 
L 62.703125 28.765625 
C 62.703125 15.671875 53.09375 6.203125 39.796875 6.203125 
C 32.40625 6.203125 25.703125 8.890625 21.40625 13.59375 
C 16.59375 18.765625 13.703125 27.4375 13.703125 36.40625 
C 13.703125 54.234375 23.90625 66 39.296875 66 
C 50.40625 66 58.40625 60.375 60.40625 51.125 
L 69.90625 51.125 
C 67.296875 65.796875 56.09375 74.21875 39.40625 74.21875 
C 30.5 74.21875 23.296875 71.921875 17.59375 67.234375 
C 9.203125 60.25 4.40625 48.984375 4.40625 35.90625 
C 4.40625 13.5625 18.09375 -2 37.796875 -2 
C 47.703125 -2 55.59375 1.703125 62.703125 9.625 
L 65 -0.109375 
L 70.90625 -0.109375 
z
" id="Nimbus_Sans_L_Regular-71"/>
      <path d="M 47.40625 22 
L 54.90625 0 
L 65.296875 0 
L 39.703125 73 
L 27.703125 73 
L 1.703125 0 
L 11.59375 0 
L 19.296875 22 
z
M 44.796875 29.8125 
L 21.59375 29.8125 
L 33.59375 63 
z
" id="Nimbus_Sans_L_Regular-65"/>
      <path d="M 18.296875 33 
L 53.09375 33 
L 53.09375 41.21875 
L 18.296875 41.21875 
L 18.296875 64.78125 
L 57.90625 64.78125 
L 57.90625 73 
L 9 73 
L 9 -0.21875 
L 18.296875 -0.21875 
z
" id="Nimbus_Sans_L_Regular-70"/>
      <path d="M 28.5 0 
L 48.59375 52.5 
L 39.203125 52.5 
L 24.40625 9.921875 
L 10.40625 52.5 
L 1 52.5 
L 19.40625 0 
z
" id="Nimbus_Sans_L_Regular-118"/>
      <path d="M 19.09375 10.421875 
L 8.703125 10.421875 
L 8.703125 0 
L 19.09375 0 
z
" id="Nimbus_Sans_L_Regular-46"/>
      <path d="M 52 70.703125 
L 4.59375 70.703125 
L 4.59375 62 
L 42.90625 62 
C 26 37.78125 19.09375 22.90625 13.796875 -0.5 
L 23.203125 -0.5 
C 27.09375 22.296875 36 41.890625 52 63.296875 
z
" id="Nimbus_Sans_L_Regular-55"/>
      <path d="M 36.296875 66.625 
L 3 4.40625 
L 3.203125 0.234375 
C 10.5 0.734375 17.90625 0.9375 25.296875 0.9375 
C 37.796875 0.9375 50.203125 0.328125 62.703125 -0.453125 
L 68.796875 2.71875 
L 68.90625 4.3125 
C 58.09375 25.078125 49.5 46.859375 42.09375 69.109375 
z
M 56.203125 5 
C 44.5 5 32.703125 5 20.90625 5 
C 17.40625 5 13.90625 5 10.40625 5 
L 10.09375 6.1875 
C 18.09375 23.03125 26.09375 38.65625 35.59375 55 
L 36.703125 55 
C 36.703125 54.90625 52.703125 15.21875 56.796875 5.890625 
z
" id="EURM10-1"/>
      <path d="M 55.09375 33 
L 55.09375 -0.03125 
L 64.40625 -0.03125 
L 64.40625 73 
L 55.09375 73 
L 55.09375 41.21875 
L 17.59375 41.21875 
L 17.59375 73 
L 8.296875 73 
L 8.296875 -0.03125 
L 17.703125 -0.03125 
L 17.703125 33 
z
" id="Nimbus_Sans_L_Regular-72"/>
      <path d="M 23.59375 73 
C 13.59375 59.84375 7.296875 41.5625 7.296875 25.796875 
C 7.296875 9.9375 13.59375 -8.34375 23.59375 -21.5 
L 29.09375 -21.5 
C 20.296875 -7.140625 15.40625 9.734375 15.40625 25.796875 
C 15.40625 41.765625 20.296875 58.734375 29.09375 73 
z
" id="Nimbus_Sans_L_Regular-40"/>
      <path d="M 14.09375 73 
L 5.796875 73 
L 5.796875 -0.03125 
L 14.09375 -0.03125 
L 14.09375 20.40625 
L 22.203125 28.421875 
L 39.90625 -0.03125 
L 50.203125 -0.03125 
L 28.796875 34.328125 
L 47 52.453125 
L 36.296875 52.453125 
L 14.09375 30.21875 
z
" id="Nimbus_Sans_L_Regular-107"/>
      <path d="M 47.09375 34.9375 
C 46.703125 40.03125 45.59375 43.328125 43.59375 46.21875 
C 40 51.109375 33.703125 54 26.40625 54 
C 12.296875 54 3.09375 42.84375 3.09375 25.5 
C 3.09375 8.65625 12.09375 -2 26.296875 -2 
C 38.796875 -2 46.703125 5.46875 47.703125 18.234375 
L 39.296875 18.234375 
C 37.90625 9.875 33.59375 5.703125 26.5 5.703125 
C 17.296875 5.703125 11.796875 13.171875 11.796875 25.5 
C 11.796875 38.53125 17.203125 46.28125 26.296875 46.28125 
C 33.296875 46.28125 37.703125 42.203125 38.703125 34.9375 
z
" id="Nimbus_Sans_L_Regular-99"/>
      <path d="M 53.5 5.203125 
C 52.59375 5 52.203125 5 51.703125 5 
C 48.796875 5 47.203125 6.484375 47.203125 9.078125 
L 47.203125 39.765625 
C 47.203125 49.015625 40.40625 54 27.5 54 
C 19.90625 54 13.59375 51.8125 10.09375 47.90625 
C 7.703125 45.203125 6.703125 42.21875 6.5 37.03125 
L 14.90625 37.03125 
C 15.59375 43.390625 19.40625 46.28125 27.203125 46.28125 
C 34.703125 46.28125 38.90625 43.484375 38.90625 38.515625 
L 38.90625 36.328125 
C 38.90625 32.828125 36.796875 31.34375 30.203125 30.546875 
C 18.40625 29.0625 16.59375 28.65625 13.40625 27.359375 
C 7.296875 24.875 4.203125 20.1875 4.203125 13.421875 
C 4.203125 3.96875 10.796875 -2 21.40625 -2 
C 28 -2 33.296875 0.296875 39.203125 5.703125 
C 39.796875 0.390625 42.40625 -2 47.796875 -2 
C 49.5 -2 50.796875 -1.8125 53.5 -1.09375 
z
M 38.90625 16.75 
C 38.90625 13.953125 38.09375 12.265625 35.59375 9.984375 
C 32.203125 6.890625 28.09375 5.3125 23.203125 5.3125 
C 16.703125 5.3125 12.90625 8.390625 12.90625 13.65625 
C 12.90625 19.140625 16.59375 21.921875 25.5 23.21875 
C 34.296875 24.40625 36.09375 24.8125 38.90625 26.09375 
z
" id="Nimbus_Sans_L_Regular-97"/>
      <path d="M 15.203125 73 
L 6.796875 73 
L 6.796875 -0.03125 
L 15.203125 -0.03125 
z
" id="Nimbus_Sans_L_Regular-108"/>
      <path d="M 22.90625 73 
L -0.796875 -2 
L 4.703125 -2 
L 28.40625 73 
z
" id="Nimbus_Sans_L_Regular-47"/>
      <path d="M 7 52.484375 
L 7 0 
L 15.40625 0 
L 15.40625 32.953125 
C 15.40625 40.578125 20.90625 46.6875 27.703125 46.6875 
C 33.90625 46.6875 37.40625 42.875 37.40625 36.15625 
L 37.40625 0 
L 45.796875 0 
L 45.796875 32.953125 
C 45.796875 40.578125 51.296875 46.6875 58.09375 46.6875 
C 64.203125 46.6875 67.796875 42.78125 67.796875 36.15625 
L 67.796875 0 
L 76.203125 0 
L 76.203125 39.375 
C 76.203125 48.78125 70.796875 54 61 54 
C 54 54 49.796875 51.890625 44.90625 45.984375 
C 41.796875 51.59375 37.59375 54 30.796875 54 
C 23.796875 54 19.203125 51.390625 14.703125 45.078125 
L 14.703125 52.484375 
z
" id="Nimbus_Sans_L_Regular-109"/>
      <path d="M 27.203125 54 
C 12.5 54 3.59375 43.53125 3.59375 25.984375 
C 3.59375 8.453125 12.40625 -2 27.296875 -2 
C 42 -2 51 8.453125 51 25.59375 
C 51 43.625 42.296875 54 27.203125 54 
z
M 27.296875 46.28125 
C 36.703125 46.28125 42.296875 38.625 42.296875 25.703125 
C 42.296875 13.453125 36.5 5.703125 27.296875 5.703125 
C 18 5.703125 12.296875 13.359375 12.296875 25.984375 
C 12.296875 38.53125 18 46.28125 27.296875 46.28125 
z
" id="Nimbus_Sans_L_Regular-111"/>
      <path d="M 9.296875 -21.5 
C 19.296875 -8.34375 25.59375 9.9375 25.59375 25.6875 
C 25.59375 41.5625 19.296875 59.84375 9.296875 73 
L 3.796875 73 
C 12.59375 58.640625 17.5 41.765625 17.5 25.6875 
C 17.5 9.734375 12.59375 -7.25 3.796875 -21.5 
z
" id="Nimbus_Sans_L_Regular-41"/>
     </defs>
     <g style="fill:#262626;" transform="translate(179.613964 368.860632)scale(0.143 -0.143)">
      <use transform="scale(0.996264)" xlink:href="#Nimbus_Sans_L_Regular-71"/>
      <use transform="translate(77.50837 0)scale(0.996264)" xlink:href="#Nimbus_Sans_L_Regular-65"/>
      <use transform="translate(143.958401 0)scale(0.996264)" xlink:href="#Nimbus_Sans_L_Regular-70"/>
      <use transform="translate(204.830032 0)scale(0.996264)" xlink:href="#Nimbus_Sans_L_Regular-70"/>
      <use transform="translate(293.396832 0)scale(0.996264)" xlink:href="#Nimbus_Sans_L_Regular-118"/>
      <use transform="translate(343.210033 0)scale(0.996264)" xlink:href="#Nimbus_Sans_L_Regular-49"/>
      <use transform="translate(398.60171 0)scale(0.996264)" xlink:href="#Nimbus_Sans_L_Regular-46"/>
      <use transform="translate(426.296879 0)scale(0.996264)" xlink:href="#Nimbus_Sans_L_Regular-55"/>
      <use transform="translate(509.383726 0)scale(0.996264)" xlink:href="#EURM10-1"/>
      <use transform="translate(580.445491 0)scale(0.996264)" xlink:href="#Nimbus_Sans_L_Regular-72"/>
      <use transform="translate(680.070646 0)scale(0.996264)" xlink:href="#Nimbus_Sans_L_Regular-40"/>
      <use transform="translate(713.245875 0)scale(0.996264)" xlink:href="#Nimbus_Sans_L_Regular-107"/>
      <use transform="translate(763.059076 0)scale(0.996264)" xlink:href="#Nimbus_Sans_L_Regular-99"/>
      <use transform="translate(812.872276 0)scale(0.996264)" xlink:href="#Nimbus_Sans_L_Regular-97"/>
      <use transform="translate(868.263953 0)scale(0.996264)" xlink:href="#Nimbus_Sans_L_Regular-108"/>
      <use transform="translate(890.380738 0)scale(0.996264)" xlink:href="#Nimbus_Sans_L_Regular-47"/>
      <use transform="translate(918.075907 0)scale(0.996264)" xlink:href="#Nimbus_Sans_L_Regular-109"/>
      <use transform="translate(1001.064338 0)scale(0.996264)" xlink:href="#Nimbus_Sans_L_Regular-111"/>
      <use transform="translate(1056.456015 0)scale(0.996264)" xlink:href="#Nimbus_Sans_L_Regular-108"/>
      <use transform="translate(1078.572799 0)scale(0.996264)" xlink:href="#Nimbus_Sans_L_Regular-41"/>
     </g>
    </g>
   </g>
   <g id="matplotlib.axis_2">
    <g id="ytick_1">
     <g id="line2d_18">
      <path clip-path="url(#p488671c420)" d="M 58.223886 333.36 
L 459.983886 333.36 
" style="fill:none;stroke:#cccccc;stroke-linecap:round;stroke-width:1.3;"/>
     </g>
     <g id="line2d_19"/>
     <g id="text_10">
      <!-- $-10$ -->
      <g style="fill:#262626;" transform="translate(24.648682 337.973908)scale(0.13 -0.13)">
       <use transform="scale(0.996264)" xlink:href="#CMSY10-0"/>
       <use transform="translate(77.487468 0)scale(0.996264)" xlink:href="#Nimbus_Sans_L_Regular-49"/>
       <use transform="translate(132.879145 0)scale(0.996264)" xlink:href="#Nimbus_Sans_L_Regular-48"/>
      </g>
     </g>
    </g>
    <g id="ytick_2">
     <g id="line2d_20">
      <path clip-path="url(#p488671c420)" d="M 58.223886 289.872 
L 459.983886 289.872 
" style="fill:none;stroke:#cccccc;stroke-linecap:round;stroke-width:1.3;"/>
     </g>
     <g id="line2d_21"/>
     <g id="text_11">
      <!-- $-8$ -->
      <g style="fill:#262626;" transform="translate(31.8496 294.485908)scale(0.13 -0.13)">
       <use transform="scale(0.996264)" xlink:href="#CMSY10-0"/>
       <use transform="translate(77.487468 0)scale(0.996264)" xlink:href="#Nimbus_Sans_L_Regular-56"/>
      </g>
     </g>
    </g>
    <g id="ytick_3">
     <g id="line2d_22">
      <path clip-path="url(#p488671c420)" d="M 58.223886 246.384 
L 459.983886 246.384 
" style="fill:none;stroke:#cccccc;stroke-linecap:round;stroke-width:1.3;"/>
     </g>
     <g id="line2d_23"/>
     <g id="text_12">
      <!-- $-6$ -->
      <g style="fill:#262626;" transform="translate(31.8496 250.997908)scale(0.13 -0.13)">
       <use transform="scale(0.996264)" xlink:href="#CMSY10-0"/>
       <use transform="translate(77.487468 0)scale(0.996264)" xlink:href="#Nimbus_Sans_L_Regular-54"/>
      </g>
     </g>
    </g>
    <g id="ytick_4">
     <g id="line2d_24">
      <path clip-path="url(#p488671c420)" d="M 58.223886 202.896 
L 459.983886 202.896 
" style="fill:none;stroke:#cccccc;stroke-linecap:round;stroke-width:1.3;"/>
     </g>
     <g id="line2d_25"/>
     <g id="text_13">
      <!-- $-4$ -->
      <g style="fill:#262626;" transform="translate(31.8496 207.509908)scale(0.13 -0.13)">
       <use transform="scale(0.996264)" xlink:href="#CMSY10-0"/>
       <use transform="translate(77.487468 0)scale(0.996264)" xlink:href="#Nimbus_Sans_L_Regular-52"/>
      </g>
     </g>
    </g>
    <g id="ytick_5">
     <g id="line2d_26">
      <path clip-path="url(#p488671c420)" d="M 58.223886 159.408 
L 459.983886 159.408 
" style="fill:none;stroke:#cccccc;stroke-linecap:round;stroke-width:1.3;"/>
     </g>
     <g id="line2d_27"/>
     <g id="text_14">
      <!-- $-2$ -->
      <g style="fill:#262626;" transform="translate(31.8496 164.021908)scale(0.13 -0.13)">
       <use transform="scale(0.996264)" xlink:href="#CMSY10-0"/>
       <use transform="translate(77.487468 0)scale(0.996264)" xlink:href="#Nimbus_Sans_L_Regular-50"/>
      </g>
     </g>
    </g>
    <g id="ytick_6">
     <g id="line2d_28">
      <path clip-path="url(#p488671c420)" d="M 58.223886 115.92 
L 459.983886 115.92 
" style="fill:none;stroke:#cccccc;stroke-linecap:round;stroke-width:1.3;"/>
     </g>
     <g id="line2d_29"/>
     <g id="text_15">
      <!-- $0$ -->
      <g style="fill:#262626;" transform="translate(41.922969 120.533908)scale(0.13 -0.13)">
       <use transform="scale(0.996264)" xlink:href="#Nimbus_Sans_L_Regular-48"/>
      </g>
     </g>
    </g>
    <g id="ytick_7">
     <g id="line2d_30">
      <path clip-path="url(#p488671c420)" d="M 58.223886 72.432 
L 459.983886 72.432 
" style="fill:none;stroke:#cccccc;stroke-linecap:round;stroke-width:1.3;"/>
     </g>
     <g id="line2d_31"/>
     <g id="text_16">
      <!-- $2$ -->
      <g style="fill:#262626;" transform="translate(41.922969 77.045908)scale(0.13 -0.13)">
       <use transform="scale(0.996264)" xlink:href="#Nimbus_Sans_L_Regular-50"/>
      </g>
     </g>
    </g>
    <g id="ytick_8">
     <g id="line2d_32">
      <path clip-path="url(#p488671c420)" d="M 58.223886 28.944 
L 459.983886 28.944 
" style="fill:none;stroke:#cccccc;stroke-linecap:round;stroke-width:1.3;"/>
     </g>
     <g id="line2d_33"/>
     <g id="text_17">
      <!-- $4$ -->
      <g style="fill:#262626;" transform="translate(41.922969 33.557908)scale(0.13 -0.13)">
       <use transform="scale(0.996264)" xlink:href="#Nimbus_Sans_L_Regular-52"/>
      </g>
     </g>
    </g>
    <g id="text_18">
     <!-- GAFF v2.1 $\Delta$H (kcal/mol) -->
     <g style="fill:#262626;" transform="translate(17.614239 249.769922)rotate(-90)scale(0.143 -0.143)">
      <use transform="scale(0.996264)" xlink:href="#Nimbus_Sans_L_Regular-71"/>
      <use transform="translate(77.50837 0)scale(0.996264)" xlink:href="#Nimbus_Sans_L_Regular-65"/>
      <use transform="translate(143.958401 0)scale(0.996264)" xlink:href="#Nimbus_Sans_L_Regular-70"/>
      <use transform="translate(204.830032 0)scale(0.996264)" xlink:href="#Nimbus_Sans_L_Regular-70"/>
      <use transform="translate(293.396832 0)scale(0.996264)" xlink:href="#Nimbus_Sans_L_Regular-118"/>
      <use transform="translate(343.210033 0)scale(0.996264)" xlink:href="#Nimbus_Sans_L_Regular-50"/>
      <use transform="translate(398.60171 0)scale(0.996264)" xlink:href="#Nimbus_Sans_L_Regular-46"/>
      <use transform="translate(426.296879 0)scale(0.996264)" xlink:href="#Nimbus_Sans_L_Regular-49"/>
      <use transform="translate(509.383726 0)scale(0.996264)" xlink:href="#EURM10-1"/>
      <use transform="translate(580.445491 0)scale(0.996264)" xlink:href="#Nimbus_Sans_L_Regular-72"/>
      <use transform="translate(680.070646 0)scale(0.996264)" xlink:href="#Nimbus_Sans_L_Regular-40"/>
      <use transform="translate(713.245875 0)scale(0.996264)" xlink:href="#Nimbus_Sans_L_Regular-107"/>
      <use transform="translate(763.059076 0)scale(0.996264)" xlink:href="#Nimbus_Sans_L_Regular-99"/>
      <use transform="translate(812.872276 0)scale(0.996264)" xlink:href="#Nimbus_Sans_L_Regular-97"/>
      <use transform="translate(868.263953 0)scale(0.996264)" xlink:href="#Nimbus_Sans_L_Regular-108"/>
      <use transform="translate(890.380738 0)scale(0.996264)" xlink:href="#Nimbus_Sans_L_Regular-47"/>
      <use transform="translate(918.075907 0)scale(0.996264)" xlink:href="#Nimbus_Sans_L_Regular-109"/>
      <use transform="translate(1001.064338 0)scale(0.996264)" xlink:href="#Nimbus_Sans_L_Regular-111"/>
      <use transform="translate(1056.456015 0)scale(0.996264)" xlink:href="#Nimbus_Sans_L_Regular-108"/>
      <use transform="translate(1078.572799 0)scale(0.996264)" xlink:href="#Nimbus_Sans_L_Regular-41"/>
     </g>
    </g>
   </g>
   <g id="LineCollection_1">
    <path clip-path="url(#p488671c420)" d="M 320.95283 178.433408 
L 354.635916 178.433408 
" style="fill:none;stroke:#808080;"/>
    <path clip-path="url(#p488671c420)" d="M 270.743322 182.279292 
L 309.262337 182.279292 
" style="fill:none;stroke:#808080;"/>
    <path clip-path="url(#p488671c420)" d="M 257.816498 266.516233 
L 280.05564 266.516233 
" style="fill:none;stroke:#808080;"/>
    <path clip-path="url(#p488671c420)" d="M 248.053038 261.491967 
L 269.626455 261.491967 
" style="fill:none;stroke:#808080;"/>
    <path clip-path="url(#p488671c420)" d="M 254.690066 275.803587 
L 280.800688 275.803587 
" style="fill:none;stroke:#808080;"/>
    <path clip-path="url(#p488671c420)" d="M 237.092246 280.363626 
L 249.605285 280.363626 
" style="fill:none;stroke:#808080;"/>
    <path clip-path="url(#p488671c420)" d="M 313.745896 140.824041 
L 335.320449 140.824041 
" style="fill:none;stroke:#808080;"/>
    <path clip-path="url(#p488671c420)" d="M 305.935741 183.731284 
L 327.454094 183.731284 
" style="fill:none;stroke:#808080;"/>
    <path clip-path="url(#p488671c420)" d="M 214.204679 290.593058 
L 230.542088 290.593058 
" style="fill:none;stroke:#808080;"/>
    <path clip-path="url(#p488671c420)" d="M 253.392497 261.089534 
L 272.055446 261.089534 
" style="fill:none;stroke:#808080;"/>
    <path clip-path="url(#p488671c420)" d="M 264.9101 254.433571 
L 281.476656 254.433571 
" style="fill:none;stroke:#808080;"/>
    <path clip-path="url(#p488671c420)" d="M 235.972253 292.880504 
L 250.322303 292.880504 
" style="fill:none;stroke:#808080;"/>
    <path clip-path="url(#p488671c420)" d="M 240.193637 291.017771 
L 254.03408 291.017771 
" style="fill:none;stroke:#808080;"/>
    <path clip-path="url(#p488671c420)" d="M 306.706339 198.1146 
L 322.789129 198.1146 
" style="fill:none;stroke:#808080;"/>
    <path clip-path="url(#p488671c420)" d="M 326.216326 187.899763 
L 340.632238 187.899763 
" style="fill:none;stroke:#808080;"/>
    <path clip-path="url(#p488671c420)" d="M 267.959838 255.325681 
L 281.717132 255.325681 
" style="fill:none;stroke:#808080;"/>
    <path clip-path="url(#p488671c420)" d="M 201.643766 315.703074 
L 225.33546 315.703074 
" style="fill:none;stroke:#808080;"/>
    <path clip-path="url(#p488671c420)" d="M 235.760301 284.945243 
L 251.479934 284.945243 
" style="fill:none;stroke:#808080;"/>
    <path clip-path="url(#p488671c420)" d="M 287.14829 224.26265 
L 311.823811 224.26265 
" style="fill:none;stroke:#808080;"/>
    <path clip-path="url(#p488671c420)" d="M 298.975958 212.069818 
L 315.247777 212.069818 
" style="fill:none;stroke:#808080;"/>
    <path clip-path="url(#p488671c420)" d="M 392.150508 107.614836 
L 424.50937 107.614836 
" style="fill:none;stroke:#808080;"/>
    <path clip-path="url(#p488671c420)" d="M 283.583653 102.297491 
L 356.583899 102.297491 
" style="fill:none;stroke:#808080;"/>
    <path clip-path="url(#p488671c420)" d="M 400.784086 109.291614 
L 426.778419 109.291614 
" style="fill:none;stroke:#808080;"/>
    <path clip-path="url(#p488671c420)" d="M 329.502515 117.906527 
L 382.858812 117.906527 
" style="fill:none;stroke:#808080;"/>
    <path clip-path="url(#p488671c420)" d="M 386.760498 127.621485 
L 408.115135 127.621485 
" style="fill:none;stroke:#808080;"/>
    <path clip-path="url(#p488671c420)" d="M 372.143374 124.663416 
L 421.686668 124.663416 
" style="fill:none;stroke:#808080;"/>
   </g>
   <g id="LineCollection_2">
    <path clip-path="url(#p488671c420)" d="M 337.794373 185.04704 
L 337.794373 171.819776 
" style="fill:none;stroke:#808080;"/>
    <path clip-path="url(#p488671c420)" d="M 290.00283 190.6571 
L 290.00283 173.901483 
" style="fill:none;stroke:#808080;"/>
    <path clip-path="url(#p488671c420)" d="M 268.936069 273.224232 
L 268.936069 259.808233 
" style="fill:none;stroke:#808080;"/>
    <path clip-path="url(#p488671c420)" d="M 258.839746 267.941159 
L 258.839746 255.042775 
" style="fill:none;stroke:#808080;"/>
    <path clip-path="url(#p488671c420)" d="M 267.745377 282.206247 
L 267.745377 269.400926 
" style="fill:none;stroke:#808080;"/>
    <path clip-path="url(#p488671c420)" d="M 243.348765 287.307656 
L 243.348765 273.419597 
" style="fill:none;stroke:#808080;"/>
    <path clip-path="url(#p488671c420)" d="M 324.533172 148.01967 
L 324.533172 133.628411 
" style="fill:none;stroke:#808080;"/>
    <path clip-path="url(#p488671c420)" d="M 316.694918 191.531927 
L 316.694918 175.930641 
" style="fill:none;stroke:#808080;"/>
    <path clip-path="url(#p488671c420)" d="M 222.373383 298.474899 
L 222.373383 282.711217 
" style="fill:none;stroke:#808080;"/>
    <path clip-path="url(#p488671c420)" d="M 262.723971 268.501085 
L 262.723971 253.677983 
" style="fill:none;stroke:#808080;"/>
    <path clip-path="url(#p488671c420)" d="M 273.193378 262.418679 
L 273.193378 246.448463 
" style="fill:none;stroke:#808080;"/>
    <path clip-path="url(#p488671c420)" d="M 243.147278 299.865442 
L 243.147278 285.895566 
" style="fill:none;stroke:#808080;"/>
    <path clip-path="url(#p488671c420)" d="M 247.113858 301.083597 
L 247.113858 280.951944 
" style="fill:none;stroke:#808080;"/>
    <path clip-path="url(#p488671c420)" d="M 314.747734 206.085842 
L 314.747734 190.143357 
" style="fill:none;stroke:#808080;"/>
    <path clip-path="url(#p488671c420)" d="M 333.424282 194.218725 
L 333.424282 181.580801 
" style="fill:none;stroke:#808080;"/>
    <path clip-path="url(#p488671c420)" d="M 274.838485 262.001358 
L 274.838485 248.650003 
" style="fill:none;stroke:#808080;"/>
    <path clip-path="url(#p488671c420)" d="M 213.489613 323.181626 
L 213.489613 308.224521 
" style="fill:none;stroke:#808080;"/>
    <path clip-path="url(#p488671c420)" d="M 243.620117 291.511296 
L 243.620117 278.379191 
" style="fill:none;stroke:#808080;"/>
    <path clip-path="url(#p488671c420)" d="M 299.486051 231.375446 
L 299.486051 217.149855 
" style="fill:none;stroke:#808080;"/>
    <path clip-path="url(#p488671c420)" d="M 307.111867 219.5109 
L 307.111867 204.628737 
" style="fill:none;stroke:#808080;"/>
    <path clip-path="url(#p488671c420)" d="M 408.329939 115.98152 
L 408.329939 99.248152 
" style="fill:none;stroke:#808080;"/>
    <path clip-path="url(#p488671c420)" d="M 320.083776 110.276743 
L 320.083776 94.318239 
" style="fill:none;stroke:#808080;"/>
    <path clip-path="url(#p488671c420)" d="M 413.781253 115.92 
L 413.781253 102.663228 
" style="fill:none;stroke:#808080;"/>
    <path clip-path="url(#p488671c420)" d="M 356.180664 125.239524 
L 356.180664 110.57353 
" style="fill:none;stroke:#808080;"/>
    <path clip-path="url(#p488671c420)" d="M 397.437817 136.090022 
L 397.437817 119.152949 
" style="fill:none;stroke:#808080;"/>
    <path clip-path="url(#p488671c420)" d="M 396.915021 132.491056 
L 396.915021 116.835776 
" style="fill:none;stroke:#808080;"/>
   </g>
   <g id="LineCollection_3">
    <path clip-path="url(#p488671c420)" d="M 305.806185 215.525867 
L 342.567122 215.525867 
" style="fill:none;stroke:#808080;"/>
    <path clip-path="url(#p488671c420)" d="M 277.044702 223.1476 
L 292.657574 223.1476 
" style="fill:none;stroke:#808080;"/>
    <path clip-path="url(#p488671c420)" d="M 220.619198 309.518962 
L 236.82185 309.518962 
" style="fill:none;stroke:#808080;"/>
    <path clip-path="url(#p488671c420)" d="M 204.060859 301.764201 
L 226.588232 301.764201 
" style="fill:none;stroke:#808080;"/>
    <path clip-path="url(#p488671c420)" d="M 213.515358 313.999299 
L 225.81735 313.999299 
" style="fill:none;stroke:#808080;"/>
    <path clip-path="url(#p488671c420)" d="M 235.597831 300.455747 
L 259.876386 300.455747 
" style="fill:none;stroke:#808080;"/>
    <path clip-path="url(#p488671c420)" d="M 236.956172 273.610491 
L 255.868323 273.610491 
" style="fill:none;stroke:#808080;"/>
    <path clip-path="url(#p488671c420)" d="M 223.227985 286.162485 
L 239.496372 286.162485 
" style="fill:none;stroke:#808080;"/>
    <path clip-path="url(#p488671c420)" d="M 242.614589 278.239946 
L 256.790819 278.239946 
" style="fill:none;stroke:#808080;"/>
    <path clip-path="url(#p488671c420)" d="M 257.949329 249.1568 
L 280.130842 249.1568 
" style="fill:none;stroke:#808080;"/>
    <path clip-path="url(#p488671c420)" d="M 235.432332 233.888537 
L 254.995934 233.888537 
" style="fill:none;stroke:#808080;"/>
    <path clip-path="url(#p488671c420)" d="M 269.755495 245.895354 
L 282.822947 245.895354 
" style="fill:none;stroke:#808080;"/>
    <path clip-path="url(#p488671c420)" d="M 213.013304 311.191632 
L 234.128075 311.191632 
" style="fill:none;stroke:#808080;"/>
    <path clip-path="url(#p488671c420)" d="M 190.995735 327.314317 
L 207.282106 327.314317 
" style="fill:none;stroke:#808080;"/>
    <path clip-path="url(#p488671c420)" d="M 278.745052 274.373226 
L 311.459104 274.373226 
" style="fill:none;stroke:#808080;"/>
    <path clip-path="url(#p488671c420)" d="M 268.36729 237.209599 
L 287.811165 237.209599 
" style="fill:none;stroke:#808080;"/>
    <path clip-path="url(#p488671c420)" d="M 272.484462 142.238896 
L 330.987392 142.238896 
" style="fill:none;stroke:#808080;"/>
    <path clip-path="url(#p488671c420)" d="M 295.932615 150.863227 
L 334.079678 150.863227 
" style="fill:none;stroke:#808080;"/>
    <path clip-path="url(#p488671c420)" d="M 369.229401 134.26169 
L 386.247075 134.26169 
" style="fill:none;stroke:#808080;"/>
    <path clip-path="url(#p488671c420)" d="M 365.153173 138.265503 
L 380.239166 138.265503 
" style="fill:none;stroke:#808080;"/>
    <path clip-path="url(#p488671c420)" d="M 285.382263 126.335294 
L 333.416866 126.335294 
" style="fill:none;stroke:#808080;"/>
    <path clip-path="url(#p488671c420)" d="M 373.5371 113.656263 
L 392.957873 113.656263 
" style="fill:none;stroke:#808080;"/>
    <path clip-path="url(#p488671c420)" d="M 299.538343 167.981413 
L 327.558104 167.981413 
" style="fill:none;stroke:#808080;"/>
    <path clip-path="url(#p488671c420)" d="M 281.666032 184.305951 
L 307.747399 184.305951 
" style="fill:none;stroke:#808080;"/>
    <path clip-path="url(#p488671c420)" d="M 293.058758 181.85635 
L 313.544105 181.85635 
" style="fill:none;stroke:#808080;"/>
    <path clip-path="url(#p488671c420)" d="M 287.530477 175.195622 
L 303.951791 175.195622 
" style="fill:none;stroke:#808080;"/>
    <path clip-path="url(#p488671c420)" d="M 327.831529 173.753291 
L 359.335595 173.753291 
" style="fill:none;stroke:#808080;"/>
    <path clip-path="url(#p488671c420)" d="M 334.159642 169.714309 
L 369.360721 169.714309 
" style="fill:none;stroke:#808080;"/>
    <path clip-path="url(#p488671c420)" d="M 299.613983 159.906377 
L 322.864749 159.906377 
" style="fill:none;stroke:#808080;"/>
    <path clip-path="url(#p488671c420)" d="M 330.890344 171.633804 
L 361.427806 171.633804 
" style="fill:none;stroke:#808080;"/>
    <path clip-path="url(#p488671c420)" d="M 363.764258 166.185096 
L 383.752934 166.185096 
" style="fill:none;stroke:#808080;"/>
    <path clip-path="url(#p488671c420)" d="M 351.603152 154.418509 
L 394.802727 154.418509 
" style="fill:none;stroke:#808080;"/>
    <path clip-path="url(#p488671c420)" d="M 265.021466 196.309384 
L 311.124157 196.309384 
" style="fill:none;stroke:#808080;"/>
    <path clip-path="url(#p488671c420)" d="M 255.214903 192.672484 
L 313.066498 192.672484 
" style="fill:none;stroke:#808080;"/>
    <path clip-path="url(#p488671c420)" d="M 258.706798 196.760933 
L 306.245109 196.760933 
" style="fill:none;stroke:#808080;"/>
    <path clip-path="url(#p488671c420)" d="M 310.988927 169.810047 
L 347.777408 169.810047 
" style="fill:none;stroke:#808080;"/>
    <path clip-path="url(#p488671c420)" d="M 282.888356 97.272795 
L 340.199563 97.272795 
" style="fill:none;stroke:#808080;"/>
    <path clip-path="url(#p488671c420)" d="M 290.431899 113.115299 
L 338.444022 113.115299 
" style="fill:none;stroke:#808080;"/>
   </g>
   <g id="LineCollection_4">
    <path clip-path="url(#p488671c420)" d="M 324.186654 223.926191 
L 324.186654 207.125543 
" style="fill:none;stroke:#808080;"/>
    <path clip-path="url(#p488671c420)" d="M 284.851138 232.725484 
L 284.851138 213.569716 
" style="fill:none;stroke:#808080;"/>
    <path clip-path="url(#p488671c420)" d="M 228.720524 316.548895 
L 228.720524 302.489028 
" style="fill:none;stroke:#808080;"/>
    <path clip-path="url(#p488671c420)" d="M 215.324545 308.404776 
L 215.324545 295.123626 
" style="fill:none;stroke:#808080;"/>
    <path clip-path="url(#p488671c420)" d="M 219.666354 320.435754 
L 219.666354 307.562844 
" style="fill:none;stroke:#808080;"/>
    <path clip-path="url(#p488671c420)" d="M 247.737109 309.841393 
L 247.737109 291.070101 
" style="fill:none;stroke:#808080;"/>
    <path clip-path="url(#p488671c420)" d="M 246.412247 280.889911 
L 246.412247 266.331071 
" style="fill:none;stroke:#808080;"/>
    <path clip-path="url(#p488671c420)" d="M 231.362179 294.195794 
L 231.362179 278.129176 
" style="fill:none;stroke:#808080;"/>
    <path clip-path="url(#p488671c420)" d="M 249.702704 285.986896 
L 249.702704 270.492995 
" style="fill:none;stroke:#808080;"/>
    <path clip-path="url(#p488671c420)" d="M 269.040085 256.395129 
L 269.040085 241.91847 
" style="fill:none;stroke:#808080;"/>
    <path clip-path="url(#p488671c420)" d="M 245.214133 240.834257 
L 245.214133 226.942817 
" style="fill:none;stroke:#808080;"/>
    <path clip-path="url(#p488671c420)" d="M 276.289221 253.283779 
L 276.289221 238.50693 
" style="fill:none;stroke:#808080;"/>
    <path clip-path="url(#p488671c420)" d="M 223.570689 319.583973 
L 223.570689 302.799292 
" style="fill:none;stroke:#808080;"/>
    <path clip-path="url(#p488671c420)" d="M 199.13892 335.206393 
L 199.13892 319.42224 
" style="fill:none;stroke:#808080;"/>
    <path clip-path="url(#p488671c420)" d="M 295.102078 285.458314 
L 295.102078 263.288138 
" style="fill:none;stroke:#808080;"/>
    <path clip-path="url(#p488671c420)" d="M 278.089228 243.39945 
L 278.089228 231.019747 
" style="fill:none;stroke:#808080;"/>
    <path clip-path="url(#p488671c420)" d="M 301.735927 148.976189 
L 301.735927 135.501602 
" style="fill:none;stroke:#808080;"/>
    <path clip-path="url(#p488671c420)" d="M 315.006147 158.470308 
L 315.006147 143.256146 
" style="fill:none;stroke:#808080;"/>
    <path clip-path="url(#p488671c420)" d="M 377.738238 142.224477 
L 377.738238 126.298902 
" style="fill:none;stroke:#808080;"/>
    <path clip-path="url(#p488671c420)" d="M 372.69617 145.576593 
L 372.69617 130.954412 
" style="fill:none;stroke:#808080;"/>
    <path clip-path="url(#p488671c420)" d="M 309.399564 134.039935 
L 309.399564 118.630652 
" style="fill:none;stroke:#808080;"/>
    <path clip-path="url(#p488671c420)" d="M 383.247486 121.511701 
L 383.247486 105.800825 
" style="fill:none;stroke:#808080;"/>
    <path clip-path="url(#p488671c420)" d="M 313.548224 175.474775 
L 313.548224 160.48805 
" style="fill:none;stroke:#808080;"/>
    <path clip-path="url(#p488671c420)" d="M 294.706715 192.02708 
L 294.706715 176.584821 
" style="fill:none;stroke:#808080;"/>
    <path clip-path="url(#p488671c420)" d="M 303.301432 189.04543 
L 303.301432 174.66727 
" style="fill:none;stroke:#808080;"/>
    <path clip-path="url(#p488671c420)" d="M 295.741134 184.483988 
L 295.741134 165.907255 
" style="fill:none;stroke:#808080;"/>
    <path clip-path="url(#p488671c420)" d="M 343.583562 181.546499 
L 343.583562 165.960082 
" style="fill:none;stroke:#808080;"/>
    <path clip-path="url(#p488671c420)" d="M 351.760181 177.319918 
L 351.760181 162.1087 
" style="fill:none;stroke:#808080;"/>
    <path clip-path="url(#p488671c420)" d="M 311.239366 167.538333 
L 311.239366 152.274422 
" style="fill:none;stroke:#808080;"/>
    <path clip-path="url(#p488671c420)" d="M 346.159075 180.602538 
L 346.159075 162.66507 
" style="fill:none;stroke:#808080;"/>
    <path clip-path="url(#p488671c420)" d="M 373.758596 173.336891 
L 373.758596 159.033301 
" style="fill:none;stroke:#808080;"/>
    <path clip-path="url(#p488671c420)" d="M 373.20294 164.859948 
L 373.20294 143.977069 
" style="fill:none;stroke:#808080;"/>
    <path clip-path="url(#p488671c420)" d="M 288.072812 203.774618 
L 288.072812 188.844151 
" style="fill:none;stroke:#808080;"/>
    <path clip-path="url(#p488671c420)" d="M 284.1407 200.974189 
L 284.1407 184.370779 
" style="fill:none;stroke:#808080;"/>
    <path clip-path="url(#p488671c420)" d="M 282.475953 204.498032 
L 282.475953 189.023833 
" style="fill:none;stroke:#808080;"/>
    <path clip-path="url(#p488671c420)" d="M 329.383167 177.195555 
L 329.383167 162.424539 
" style="fill:none;stroke:#808080;"/>
    <path clip-path="url(#p488671c420)" d="M 311.543959 104.520949 
L 311.543959 90.02464 
" style="fill:none;stroke:#808080;"/>
    <path clip-path="url(#p488671c420)" d="M 314.437961 122.335453 
L 314.437961 103.895145 
" style="fill:none;stroke:#808080;"/>
   </g>
   <g id="LineCollection_5">
    <path clip-path="url(#p488671c420)" d="M 310.080014 213.109768 
L 326.824434 213.109768 
" style="fill:none;stroke:#808080;"/>
    <path clip-path="url(#p488671c420)" d="M 277.859953 117.93879 
L 297.31677 117.93879 
" style="fill:none;stroke:#808080;"/>
    <path clip-path="url(#p488671c420)" d="M 280.279092 224.087505 
L 319.381539 224.087505 
" style="fill:none;stroke:#808080;"/>
    <path clip-path="url(#p488671c420)" d="M 254.838357 230.490891 
L 270.445305 230.490891 
" style="fill:none;stroke:#808080;"/>
    <path clip-path="url(#p488671c420)" d="M 291.74905 200.208115 
L 324.018469 200.208115 
" style="fill:none;stroke:#808080;"/>
    <path clip-path="url(#p488671c420)" d="M 296.291214 100.941949 
L 313.148398 100.941949 
" style="fill:none;stroke:#808080;"/>
    <path clip-path="url(#p488671c420)" d="M 237.1903 250.278685 
L 254.495626 250.278685 
" style="fill:none;stroke:#808080;"/>
    <path clip-path="url(#p488671c420)" d="M 276.623776 221.579003 
L 292.538799 221.579003 
" style="fill:none;stroke:#808080;"/>
    <path clip-path="url(#p488671c420)" d="M 305.614577 100.481385 
L 353.906658 100.481385 
" style="fill:none;stroke:#808080;"/>
    <path clip-path="url(#p488671c420)" d="M 306.101348 95.00279 
L 332.729025 95.00279 
" style="fill:none;stroke:#808080;"/>
    <path clip-path="url(#p488671c420)" d="M 360.163981 211.438054 
L 394.294195 211.438054 
" style="fill:none;stroke:#808080;"/>
    <path clip-path="url(#p488671c420)" d="M 347.715022 211.461029 
L 397.483785 211.461029 
" style="fill:none;stroke:#808080;"/>
    <path clip-path="url(#p488671c420)" d="M 409.990218 240.818734 
L 426.029144 240.818734 
" style="fill:none;stroke:#808080;"/>
    <path clip-path="url(#p488671c420)" d="M 274.449598 213.173984 
L 325.645433 213.173984 
" style="fill:none;stroke:#808080;"/>
    <path clip-path="url(#p488671c420)" d="M 396.210419 148.150174 
L 442.788133 148.150174 
" style="fill:none;stroke:#808080;"/>
    <path clip-path="url(#p488671c420)" d="M 418.452002 139.222207 
L 444.513639 139.222207 
" style="fill:none;stroke:#808080;"/>
    <path clip-path="url(#p488671c420)" d="M 403.146679 179.436935 
L 425.807528 179.436935 
" style="fill:none;stroke:#808080;"/>
    <path clip-path="url(#p488671c420)" d="M 342.285904 187.579425 
L 388.826947 187.579425 
" style="fill:none;stroke:#808080;"/>
    <path clip-path="url(#p488671c420)" d="M 379.762192 178.405513 
L 420.468325 178.405513 
" style="fill:none;stroke:#808080;"/>
    <path clip-path="url(#p488671c420)" d="M 370.782518 186.950009 
L 402.65675 186.950009 
" style="fill:none;stroke:#808080;"/>
    <path clip-path="url(#p488671c420)" d="M 367.370976 187.439437 
L 409.50668 187.439437 
" style="fill:none;stroke:#808080;"/>
    <path clip-path="url(#p488671c420)" d="M 341.53418 198.348745 
L 420.996686 198.348745 
" style="fill:none;stroke:#808080;"/>
   </g>
   <g id="LineCollection_6">
    <path clip-path="url(#p488671c420)" d="M 318.452224 219.32904 
L 318.452224 206.890495 
" style="fill:none;stroke:#808080;"/>
    <path clip-path="url(#p488671c420)" d="M 287.588362 125.067899 
L 287.588362 110.809682 
" style="fill:none;stroke:#808080;"/>
    <path clip-path="url(#p488671c420)" d="M 299.830316 230.880384 
L 299.830316 217.294627 
" style="fill:none;stroke:#808080;"/>
    <path clip-path="url(#p488671c420)" d="M 262.641831 238.006135 
L 262.641831 222.975647 
" style="fill:none;stroke:#808080;"/>
    <path clip-path="url(#p488671c420)" d="M 307.88376 209.589142 
L 307.88376 190.827088 
" style="fill:none;stroke:#808080;"/>
    <path clip-path="url(#p488671c420)" d="M 304.719806 108.156123 
L 304.719806 93.727775 
" style="fill:none;stroke:#808080;"/>
    <path clip-path="url(#p488671c420)" d="M 245.842963 257.336365 
L 245.842963 243.221004 
" style="fill:none;stroke:#808080;"/>
    <path clip-path="url(#p488671c420)" d="M 284.581287 227.982281 
L 284.581287 215.175724 
" style="fill:none;stroke:#808080;"/>
    <path clip-path="url(#p488671c420)" d="M 329.760617 108.698928 
L 329.760617 92.263842 
" style="fill:none;stroke:#808080;"/>
    <path clip-path="url(#p488671c420)" d="M 319.415187 103.49557 
L 319.415187 86.510009 
" style="fill:none;stroke:#808080;"/>
    <path clip-path="url(#p488671c420)" d="M 377.229088 220.026724 
L 377.229088 202.849384 
" style="fill:none;stroke:#808080;"/>
    <path clip-path="url(#p488671c420)" d="M 372.599404 220.930834 
L 372.599404 201.991225 
" style="fill:none;stroke:#808080;"/>
    <path clip-path="url(#p488671c420)" d="M 418.009681 251.56494 
L 418.009681 230.072528 
" style="fill:none;stroke:#808080;"/>
    <path clip-path="url(#p488671c420)" d="M 300.047516 220.726565 
L 300.047516 205.621404 
" style="fill:none;stroke:#808080;"/>
    <path clip-path="url(#p488671c420)" d="M 419.499276 157.047416 
L 419.499276 139.252933 
" style="fill:none;stroke:#808080;"/>
    <path clip-path="url(#p488671c420)" d="M 431.48282 147.831291 
L 431.48282 130.613123 
" style="fill:none;stroke:#808080;"/>
    <path clip-path="url(#p488671c420)" d="M 414.477103 189.633003 
L 414.477103 169.240867 
" style="fill:none;stroke:#808080;"/>
    <path clip-path="url(#p488671c420)" d="M 365.556426 195.309139 
L 365.556426 179.849712 
" style="fill:none;stroke:#808080;"/>
    <path clip-path="url(#p488671c420)" d="M 400.115258 187.75812 
L 400.115258 169.052906 
" style="fill:none;stroke:#808080;"/>
    <path clip-path="url(#p488671c420)" d="M 386.719634 194.683863 
L 386.719634 179.216154 
" style="fill:none;stroke:#808080;"/>
    <path clip-path="url(#p488671c420)" d="M 388.438828 196.183158 
L 388.438828 178.695716 
" style="fill:none;stroke:#808080;"/>
    <path clip-path="url(#p488671c420)" d="M 381.265433 205.991177 
L 381.265433 190.706312 
" style="fill:none;stroke:#808080;"/>
   </g>
   <g id="line2d_34">
    <defs>
     <path d="M 0 4 
C 1.060812 4 2.078319 3.578535 2.828427 2.828427 
C 3.578535 2.078319 4 1.060812 4 0 
C 4 -1.060812 3.578535 -2.078319 2.828427 -2.828427 
C 2.078319 -3.578535 1.060812 -4 0 -4 
C -1.060812 -4 -2.078319 -3.578535 -2.828427 -2.828427 
C -3.578535 -2.078319 -4 -1.060812 -4 0 
C -4 1.060812 -3.578535 2.078319 -2.828427 2.828427 
C -2.078319 3.578535 -1.060812 4 0 4 
z
" id="m347fc0b9d4" style="stroke:#000000;stroke-width:0.2;"/>
    </defs>
    <g clip-path="url(#p488671c420)">
     <use style="fill:#ff8c00;stroke:#000000;stroke-width:0.2;" x="337.794373" xlink:href="#m347fc0b9d4" y="178.433408"/>
     <use style="fill:#ff8c00;stroke:#000000;stroke-width:0.2;" x="290.00283" xlink:href="#m347fc0b9d4" y="182.279292"/>
     <use style="fill:#ff8c00;stroke:#000000;stroke-width:0.2;" x="268.936069" xlink:href="#m347fc0b9d4" y="266.516233"/>
     <use style="fill:#ff8c00;stroke:#000000;stroke-width:0.2;" x="258.839746" xlink:href="#m347fc0b9d4" y="261.491967"/>
     <use style="fill:#ff8c00;stroke:#000000;stroke-width:0.2;" x="267.745377" xlink:href="#m347fc0b9d4" y="275.803587"/>
     <use style="fill:#ff8c00;stroke:#000000;stroke-width:0.2;" x="243.348765" xlink:href="#m347fc0b9d4" y="280.363626"/>
     <use style="fill:#ff8c00;stroke:#000000;stroke-width:0.2;" x="324.533172" xlink:href="#m347fc0b9d4" y="140.824041"/>
     <use style="fill:#ff8c00;stroke:#000000;stroke-width:0.2;" x="316.694918" xlink:href="#m347fc0b9d4" y="183.731284"/>
     <use style="fill:#ff8c00;stroke:#000000;stroke-width:0.2;" x="222.373383" xlink:href="#m347fc0b9d4" y="290.593058"/>
     <use style="fill:#ff8c00;stroke:#000000;stroke-width:0.2;" x="262.723971" xlink:href="#m347fc0b9d4" y="261.089534"/>
     <use style="fill:#ff8c00;stroke:#000000;stroke-width:0.2;" x="273.193378" xlink:href="#m347fc0b9d4" y="254.433571"/>
     <use style="fill:#ff8c00;stroke:#000000;stroke-width:0.2;" x="243.147278" xlink:href="#m347fc0b9d4" y="292.880504"/>
     <use style="fill:#ff8c00;stroke:#000000;stroke-width:0.2;" x="247.113858" xlink:href="#m347fc0b9d4" y="291.017771"/>
     <use style="fill:#ff8c00;stroke:#000000;stroke-width:0.2;" x="314.747734" xlink:href="#m347fc0b9d4" y="198.1146"/>
     <use style="fill:#ff8c00;stroke:#000000;stroke-width:0.2;" x="333.424282" xlink:href="#m347fc0b9d4" y="187.899763"/>
     <use style="fill:#ff8c00;stroke:#000000;stroke-width:0.2;" x="274.838485" xlink:href="#m347fc0b9d4" y="255.325681"/>
     <use style="fill:#ff8c00;stroke:#000000;stroke-width:0.2;" x="213.489613" xlink:href="#m347fc0b9d4" y="315.703074"/>
     <use style="fill:#ff8c00;stroke:#000000;stroke-width:0.2;" x="243.620117" xlink:href="#m347fc0b9d4" y="284.945243"/>
     <use style="fill:#ff8c00;stroke:#000000;stroke-width:0.2;" x="299.486051" xlink:href="#m347fc0b9d4" y="224.26265"/>
     <use style="fill:#ff8c00;stroke:#000000;stroke-width:0.2;" x="307.111867" xlink:href="#m347fc0b9d4" y="212.069818"/>
     <use style="fill:#ff8c00;stroke:#000000;stroke-width:0.2;" x="408.329939" xlink:href="#m347fc0b9d4" y="107.614836"/>
     <use style="fill:#ff8c00;stroke:#000000;stroke-width:0.2;" x="320.083776" xlink:href="#m347fc0b9d4" y="102.297491"/>
     <use style="fill:#ff8c00;stroke:#000000;stroke-width:0.2;" x="413.781253" xlink:href="#m347fc0b9d4" y="109.291614"/>
     <use style="fill:#ff8c00;stroke:#000000;stroke-width:0.2;" x="356.180664" xlink:href="#m347fc0b9d4" y="117.906527"/>
     <use style="fill:#ff8c00;stroke:#000000;stroke-width:0.2;" x="397.437817" xlink:href="#m347fc0b9d4" y="127.621485"/>
     <use style="fill:#ff8c00;stroke:#000000;stroke-width:0.2;" x="396.915021" xlink:href="#m347fc0b9d4" y="124.663416"/>
    </g>
   </g>
   <g id="line2d_35">
    <defs>
     <path d="M 0 4 
C 1.060812 4 2.078319 3.578535 2.828427 2.828427 
C 3.578535 2.078319 4 1.060812 4 0 
C 4 -1.060812 3.578535 -2.078319 2.828427 -2.828427 
C 2.078319 -3.578535 1.060812 -4 0 -4 
C -1.060812 -4 -2.078319 -3.578535 -2.828427 -2.828427 
C -3.578535 -2.078319 -4 -1.060812 -4 0 
C -4 1.060812 -3.578535 2.078319 -2.828427 2.828427 
C -2.078319 3.578535 -1.060812 4 0 4 
z
" id="m514b5733ef" style="stroke:#000000;stroke-width:0.2;"/>
    </defs>
    <g clip-path="url(#p488671c420)">
     <use style="fill:#800080;stroke:#000000;stroke-width:0.2;" x="324.186654" xlink:href="#m514b5733ef" y="215.525867"/>
     <use style="fill:#800080;stroke:#000000;stroke-width:0.2;" x="284.851138" xlink:href="#m514b5733ef" y="223.1476"/>
     <use style="fill:#800080;stroke:#000000;stroke-width:0.2;" x="228.720524" xlink:href="#m514b5733ef" y="309.518962"/>
     <use style="fill:#800080;stroke:#000000;stroke-width:0.2;" x="215.324545" xlink:href="#m514b5733ef" y="301.764201"/>
     <use style="fill:#800080;stroke:#000000;stroke-width:0.2;" x="219.666354" xlink:href="#m514b5733ef" y="313.999299"/>
     <use style="fill:#800080;stroke:#000000;stroke-width:0.2;" x="247.737109" xlink:href="#m514b5733ef" y="300.455747"/>
     <use style="fill:#800080;stroke:#000000;stroke-width:0.2;" x="246.412247" xlink:href="#m514b5733ef" y="273.610491"/>
     <use style="fill:#800080;stroke:#000000;stroke-width:0.2;" x="231.362179" xlink:href="#m514b5733ef" y="286.162485"/>
     <use style="fill:#800080;stroke:#000000;stroke-width:0.2;" x="249.702704" xlink:href="#m514b5733ef" y="278.239946"/>
     <use style="fill:#800080;stroke:#000000;stroke-width:0.2;" x="269.040085" xlink:href="#m514b5733ef" y="249.1568"/>
     <use style="fill:#800080;stroke:#000000;stroke-width:0.2;" x="245.214133" xlink:href="#m514b5733ef" y="233.888537"/>
     <use style="fill:#800080;stroke:#000000;stroke-width:0.2;" x="276.289221" xlink:href="#m514b5733ef" y="245.895354"/>
     <use style="fill:#800080;stroke:#000000;stroke-width:0.2;" x="223.570689" xlink:href="#m514b5733ef" y="311.191632"/>
     <use style="fill:#800080;stroke:#000000;stroke-width:0.2;" x="199.13892" xlink:href="#m514b5733ef" y="327.314317"/>
     <use style="fill:#800080;stroke:#000000;stroke-width:0.2;" x="295.102078" xlink:href="#m514b5733ef" y="274.373226"/>
     <use style="fill:#800080;stroke:#000000;stroke-width:0.2;" x="278.089228" xlink:href="#m514b5733ef" y="237.209599"/>
     <use style="fill:#800080;stroke:#000000;stroke-width:0.2;" x="301.735927" xlink:href="#m514b5733ef" y="142.238896"/>
     <use style="fill:#800080;stroke:#000000;stroke-width:0.2;" x="315.006147" xlink:href="#m514b5733ef" y="150.863227"/>
     <use style="fill:#800080;stroke:#000000;stroke-width:0.2;" x="377.738238" xlink:href="#m514b5733ef" y="134.26169"/>
     <use style="fill:#800080;stroke:#000000;stroke-width:0.2;" x="372.69617" xlink:href="#m514b5733ef" y="138.265503"/>
     <use style="fill:#800080;stroke:#000000;stroke-width:0.2;" x="309.399564" xlink:href="#m514b5733ef" y="126.335294"/>
     <use style="fill:#800080;stroke:#000000;stroke-width:0.2;" x="383.247486" xlink:href="#m514b5733ef" y="113.656263"/>
     <use style="fill:#800080;stroke:#000000;stroke-width:0.2;" x="313.548224" xlink:href="#m514b5733ef" y="167.981413"/>
     <use style="fill:#800080;stroke:#000000;stroke-width:0.2;" x="294.706715" xlink:href="#m514b5733ef" y="184.305951"/>
     <use style="fill:#800080;stroke:#000000;stroke-width:0.2;" x="303.301432" xlink:href="#m514b5733ef" y="181.85635"/>
     <use style="fill:#800080;stroke:#000000;stroke-width:0.2;" x="295.741134" xlink:href="#m514b5733ef" y="175.195622"/>
     <use style="fill:#800080;stroke:#000000;stroke-width:0.2;" x="343.583562" xlink:href="#m514b5733ef" y="173.753291"/>
     <use style="fill:#800080;stroke:#000000;stroke-width:0.2;" x="351.760181" xlink:href="#m514b5733ef" y="169.714309"/>
     <use style="fill:#800080;stroke:#000000;stroke-width:0.2;" x="311.239366" xlink:href="#m514b5733ef" y="159.906377"/>
     <use style="fill:#800080;stroke:#000000;stroke-width:0.2;" x="346.159075" xlink:href="#m514b5733ef" y="171.633804"/>
     <use style="fill:#800080;stroke:#000000;stroke-width:0.2;" x="373.758596" xlink:href="#m514b5733ef" y="166.185096"/>
     <use style="fill:#800080;stroke:#000000;stroke-width:0.2;" x="373.20294" xlink:href="#m514b5733ef" y="154.418509"/>
     <use style="fill:#800080;stroke:#000000;stroke-width:0.2;" x="288.072812" xlink:href="#m514b5733ef" y="196.309384"/>
     <use style="fill:#800080;stroke:#000000;stroke-width:0.2;" x="284.1407" xlink:href="#m514b5733ef" y="192.672484"/>
     <use style="fill:#800080;stroke:#000000;stroke-width:0.2;" x="282.475953" xlink:href="#m514b5733ef" y="196.760933"/>
     <use style="fill:#800080;stroke:#000000;stroke-width:0.2;" x="329.383167" xlink:href="#m514b5733ef" y="169.810047"/>
     <use style="fill:#800080;stroke:#000000;stroke-width:0.2;" x="311.543959" xlink:href="#m514b5733ef" y="97.272795"/>
     <use style="fill:#800080;stroke:#000000;stroke-width:0.2;" x="314.437961" xlink:href="#m514b5733ef" y="113.115299"/>
    </g>
   </g>
   <g id="line2d_36">
    <defs>
     <path d="M 0 4 
C 1.060812 4 2.078319 3.578535 2.828427 2.828427 
C 3.578535 2.078319 4 1.060812 4 0 
C 4 -1.060812 3.578535 -2.078319 2.828427 -2.828427 
C 2.078319 -3.578535 1.060812 -4 0 -4 
C -1.060812 -4 -2.078319 -3.578535 -2.828427 -2.828427 
C -3.578535 -2.078319 -4 -1.060812 -4 0 
C -4 1.060812 -3.578535 2.078319 -2.828427 2.828427 
C -2.078319 3.578535 -1.060812 4 0 4 
z
" id="m1c16c36427" style="stroke:#000000;stroke-width:0.2;"/>
    </defs>
    <g clip-path="url(#p488671c420)">
     <use style="fill:#6495ed;stroke:#000000;stroke-width:0.2;" x="318.452224" xlink:href="#m1c16c36427" y="213.109768"/>
     <use style="fill:#6495ed;stroke:#000000;stroke-width:0.2;" x="287.588362" xlink:href="#m1c16c36427" y="117.93879"/>
     <use style="fill:#6495ed;stroke:#000000;stroke-width:0.2;" x="299.830316" xlink:href="#m1c16c36427" y="224.087505"/>
     <use style="fill:#6495ed;stroke:#000000;stroke-width:0.2;" x="262.641831" xlink:href="#m1c16c36427" y="230.490891"/>
     <use style="fill:#6495ed;stroke:#000000;stroke-width:0.2;" x="307.88376" xlink:href="#m1c16c36427" y="200.208115"/>
     <use style="fill:#6495ed;stroke:#000000;stroke-width:0.2;" x="304.719806" xlink:href="#m1c16c36427" y="100.941949"/>
     <use style="fill:#6495ed;stroke:#000000;stroke-width:0.2;" x="245.842963" xlink:href="#m1c16c36427" y="250.278685"/>
     <use style="fill:#6495ed;stroke:#000000;stroke-width:0.2;" x="284.581287" xlink:href="#m1c16c36427" y="221.579003"/>
     <use style="fill:#6495ed;stroke:#000000;stroke-width:0.2;" x="329.760617" xlink:href="#m1c16c36427" y="100.481385"/>
     <use style="fill:#6495ed;stroke:#000000;stroke-width:0.2;" x="319.415187" xlink:href="#m1c16c36427" y="95.00279"/>
     <use style="fill:#6495ed;stroke:#000000;stroke-width:0.2;" x="377.229088" xlink:href="#m1c16c36427" y="211.438054"/>
     <use style="fill:#6495ed;stroke:#000000;stroke-width:0.2;" x="372.599404" xlink:href="#m1c16c36427" y="211.461029"/>
     <use style="fill:#6495ed;stroke:#000000;stroke-width:0.2;" x="418.009681" xlink:href="#m1c16c36427" y="240.818734"/>
     <use style="fill:#6495ed;stroke:#000000;stroke-width:0.2;" x="300.047516" xlink:href="#m1c16c36427" y="213.173984"/>
     <use style="fill:#6495ed;stroke:#000000;stroke-width:0.2;" x="419.499276" xlink:href="#m1c16c36427" y="148.150174"/>
     <use style="fill:#6495ed;stroke:#000000;stroke-width:0.2;" x="431.48282" xlink:href="#m1c16c36427" y="139.222207"/>
     <use style="fill:#6495ed;stroke:#000000;stroke-width:0.2;" x="414.477103" xlink:href="#m1c16c36427" y="179.436935"/>
     <use style="fill:#6495ed;stroke:#000000;stroke-width:0.2;" x="365.556426" xlink:href="#m1c16c36427" y="187.579425"/>
     <use style="fill:#6495ed;stroke:#000000;stroke-width:0.2;" x="400.115258" xlink:href="#m1c16c36427" y="178.405513"/>
     <use style="fill:#6495ed;stroke:#000000;stroke-width:0.2;" x="386.719634" xlink:href="#m1c16c36427" y="186.950009"/>
     <use style="fill:#6495ed;stroke:#000000;stroke-width:0.2;" x="388.438828" xlink:href="#m1c16c36427" y="187.439437"/>
     <use style="fill:#6495ed;stroke:#000000;stroke-width:0.2;" x="381.265433" xlink:href="#m1c16c36427" y="198.348745"/>
    </g>
   </g>
   <g id="patch_3">
    <path d="M 58.223886 333.36 
L 58.223886 7.2 
" style="fill:none;stroke:#cccccc;stroke-linecap:square;stroke-linejoin:miter;"/>
   </g>
   <g id="patch_4">
    <path d="M 459.983886 333.36 
L 459.983886 7.2 
" style="fill:none;stroke:#cccccc;stroke-linecap:square;stroke-linejoin:miter;"/>
   </g>
   <g id="patch_5">
    <path d="M 58.223886 333.36 
L 459.983886 333.36 
" style="fill:none;stroke:#cccccc;stroke-linecap:square;stroke-linejoin:miter;"/>
   </g>
   <g id="patch_6">
    <path d="M 58.223886 7.2 
L 459.983886 7.2 
" style="fill:none;stroke:#cccccc;stroke-linecap:square;stroke-linejoin:miter;"/>
   </g>
   <g id="text_19">
    <!-- R$^2$ = 0.80 -->
    <defs>
     <path d="M 18.59375 31.78125 
L 42.59375 31.78125 
C 50.90625 31.78125 54.59375 27.71875 54.59375 18.546875 
L 54.5 11.90625 
C 54.5 7.3125 55.296875 2.828125 56.59375 -0.21875 
L 67.90625 -0.21875 
L 67.90625 2.125 
C 64.40625 4.5625 63.703125 7.21875 63.5 17.078125 
C 63.40625 29.265625 61.5 32.9375 53.59375 36.390625 
C 61.796875 40.359375 65.09375 45.40625 65.09375 53.65625 
C 65.09375 66.140625 57.203125 73 42.90625 73 
L 9.296875 73 
L 9.296875 -0.21875 
L 18.59375 -0.21875 
z
M 18.59375 40 
L 18.59375 64.78125 
L 41.09375 64.78125 
C 46.296875 64.78125 49.296875 64 51.59375 62.015625 
C 54.09375 59.9375 55.40625 56.6875 55.40625 52.34375 
C 55.40625 43.84375 51 40 41.09375 40 
z
" id="Nimbus_Sans_L_Regular-82"/>
     <path d="M 53.40625 35.015625 
L 5 35.015625 
L 5 28 
L 53.40625 28 
z
M 53.40625 18 
L 5 18 
L 5 11 
L 53.40625 11 
z
" id="Nimbus_Sans_L_Regular-61"/>
    </defs>
    <g style="fill:#ff8c00;" transform="translate(396.910163 327.866022)scale(0.14 -0.14)">
     <use transform="scale(0.996264)" xlink:href="#Nimbus_Sans_L_Regular-82"/>
     <use transform="translate(71.929985 36.153639)scale(0.697382)" xlink:href="#Nimbus_Sans_L_Regular-50"/>
     <use transform="translate(138.897287 0)scale(0.996264)" xlink:href="#Nimbus_Sans_L_Regular-61"/>
     <use transform="translate(224.773949 0)scale(0.996264)" xlink:href="#Nimbus_Sans_L_Regular-48"/>
     <use transform="translate(280.165626 0)scale(0.996264)" xlink:href="#Nimbus_Sans_L_Regular-46"/>
     <use transform="translate(307.860796 0)scale(0.996264)" xlink:href="#Nimbus_Sans_L_Regular-56"/>
     <use transform="translate(363.252473 0)scale(0.996264)" xlink:href="#Nimbus_Sans_L_Regular-48"/>
    </g>
   </g>
   <g id="text_20">
    <!-- R$^2$ = 0.65 -->
    <defs>
     <path d="M 47.59375 71 
L 11 71 
L 5.703125 32.59375 
L 13.796875 32.59375 
C 17.90625 37.484375 21.296875 39.1875 26.796875 39.1875 
C 36.296875 39.1875 42.296875 32.6875 42.296875 22.203125 
C 42.296875 12 36.40625 5.8125 26.796875 5.8125 
C 19.09375 5.8125 14.40625 9.703125 12.296875 17.703125 
L 3.5 17.703125 
C 4.703125 11.90625 5.703125 9.09375 7.796875 6.484375 
C 11.796875 1.09375 19 -2 27 -2 
C 41.296875 -2 51.296875 8.390625 51.296875 23.390625 
C 51.296875 37.40625 42 47 28.40625 47 
C 23.40625 47 19.40625 45.703125 15.296875 42.6875 
L 18.09375 62.296875 
L 47.59375 62.296875 
z
" id="Nimbus_Sans_L_Regular-53"/>
    </defs>
    <g style="fill:#800080;" transform="translate(396.910163 311.558022)scale(0.14 -0.14)">
     <use transform="scale(0.996264)" xlink:href="#Nimbus_Sans_L_Regular-82"/>
     <use transform="translate(71.929985 36.153639)scale(0.697382)" xlink:href="#Nimbus_Sans_L_Regular-50"/>
     <use transform="translate(138.897287 0)scale(0.996264)" xlink:href="#Nimbus_Sans_L_Regular-61"/>
     <use transform="translate(224.773949 0)scale(0.996264)" xlink:href="#Nimbus_Sans_L_Regular-48"/>
     <use transform="translate(280.165626 0)scale(0.996264)" xlink:href="#Nimbus_Sans_L_Regular-46"/>
     <use transform="translate(307.860796 0)scale(0.996264)" xlink:href="#Nimbus_Sans_L_Regular-54"/>
     <use transform="translate(363.252473 0)scale(0.996264)" xlink:href="#Nimbus_Sans_L_Regular-53"/>
    </g>
   </g>
   <g id="text_21">
    <!-- R$^2$ = 0.07 -->
    <g style="fill:#6495ed;" transform="translate(396.910163 295.250022)scale(0.14 -0.14)">
     <use transform="scale(0.996264)" xlink:href="#Nimbus_Sans_L_Regular-82"/>
     <use transform="translate(71.929985 36.153639)scale(0.697382)" xlink:href="#Nimbus_Sans_L_Regular-50"/>
     <use transform="translate(138.897287 0)scale(0.996264)" xlink:href="#Nimbus_Sans_L_Regular-61"/>
     <use transform="translate(224.773949 0)scale(0.996264)" xlink:href="#Nimbus_Sans_L_Regular-48"/>
     <use transform="translate(280.165626 0)scale(0.996264)" xlink:href="#Nimbus_Sans_L_Regular-46"/>
     <use transform="translate(307.860796 0)scale(0.996264)" xlink:href="#Nimbus_Sans_L_Regular-48"/>
     <use transform="translate(363.252473 0)scale(0.996264)" xlink:href="#Nimbus_Sans_L_Regular-55"/>
    </g>
   </g>
   <g id="text_22">
    <g id="patch_7">
     <path d="M 62.181486 48.345223 
L 227.308094 48.345223 
L 227.308094 10.4016 
L 62.181486 10.4016 
z
" style="fill:#ffffff;stroke:#ffffff;stroke-linejoin:miter;stroke-width:0.39;"/>
    </g>
    <!-- RMSE = 3.99 [3.63, 4.36] -->
    <defs>
     <path d="M 46.796875 -0.03125 
L 67.296875 61.171875 
L 67.296875 -0.03125 
L 76.09375 -0.03125 
L 76.09375 73 
L 63.203125 73 
L 42 9.390625 
L 20.40625 73 
L 7.5 73 
L 7.5 -0.03125 
L 16.296875 -0.03125 
L 16.296875 61.171875 
L 37 -0.03125 
z
" id="Nimbus_Sans_L_Regular-77"/>
     <path d="M 59.59375 52.109375 
C 59.5 66.484375 49.703125 74.8125 32.90625 74.8125 
C 16.90625 74.8125 7 66.5625 7 53.28125 
C 7 44.328125 11.703125 38.703125 21.296875 36.1875 
L 39.40625 31.359375 
C 48.59375 28.9375 52.796875 25.21875 52.796875 19.484375 
C 52.796875 15.546875 50.703125 11.53125 47.59375 9.328125 
C 44.703125 7.3125 40.09375 6.203125 34.203125 6.203125 
C 26.296875 6.203125 20.90625 8.125 17.40625 12.34375 
C 14.703125 15.5625 13.5 19.09375 13.59375 23.609375 
L 4.796875 23.609375 
C 4.90625 16.890625 6.203125 12.46875 9.09375 8.4375 
C 14.09375 1.609375 22.5 -2 33.59375 -2 
C 42.296875 -2 49.40625 0.015625 54.09375 3.625 
C 59 7.546875 62.09375 14.078125 62.09375 20.421875 
C 62.09375 29.46875 56.5 36.109375 46.59375 38.828125 
L 28.296875 43.765625 
C 19.5 46.171875 16.296875 48.984375 16.296875 54.625 
C 16.296875 62.0625 22.796875 67 32.59375 67 
C 44.203125 67 50.703125 61.671875 50.796875 52.109375 
z
" id="Nimbus_Sans_L_Regular-83"/>
     <path d="M 18.296875 33 
L 58 33 
L 58 41.21875 
L 18.296875 41.21875 
L 18.296875 64.78125 
L 59.5 64.78125 
L 59.5 73 
L 9 73 
L 9 0 
L 61.296875 0 
L 61.296875 8.21875 
L 18.296875 8.21875 
z
" id="Nimbus_Sans_L_Regular-69"/>
     <path d="M 22.09375 33 
L 23.203125 33 
L 26.90625 33 
C 36.59375 33 41.59375 28.59375 41.59375 20.0625 
C 41.59375 11.125 36.09375 5.8125 26.90625 5.8125 
C 17.296875 5.8125 12.59375 10.640625 12 21.015625 
L 3.203125 21.015625 
C 3.59375 15.28125 4.59375 11.5625 6.296875 8.34375 
C 9.90625 1.515625 16.90625 -2 26.59375 -2 
C 41.203125 -2 50.59375 6.734375 50.59375 20.203125 
C 50.59375 29.25 47.09375 34.28125 38.59375 37.203125 
C 45.203125 39.78125 48.5 44.71875 48.5 51.734375 
C 48.5 63.78125 40.40625 71 26.90625 71 
C 12.59375 71 5 63.28125 4.703125 48.359375 
L 13.5 48.359375 
C 13.59375 52.59375 14 54.953125 15.09375 57.109375 
C 17.09375 60.9375 21.5 63.296875 27 63.296875 
C 34.796875 63.296875 39.5 58.75 39.5 51.359375 
C 39.5 46.421875 37.703125 43.453125 33.796875 41.890625 
C 31.40625 40.90625 28.296875 40.5 22.09375 40.5 
z
" id="Nimbus_Sans_L_Regular-51"/>
     <path d="M 5.296875 16.625 
C 7 4.9375 14.59375 -2 25.40625 -2 
C 33.203125 -2 40.296875 1.78125 44.40625 8.0625 
C 48.90625 14.9375 50.90625 23.625 50.90625 36.484375 
C 50.90625 48.359375 49.09375 55.9375 44.90625 62.21875 
C 41 67.921875 34.796875 71 27 71 
C 13.5 71 3.796875 61.078125 3.796875 47.296875 
C 3.796875 34.21875 12.796875 25 25.59375 25 
C 32.296875 25 37.203125 27.40625 41.796875 32.90625 
C 41.703125 15.484375 36.09375 5.8125 26 5.8125 
C 19.796875 5.8125 15.5 9.75 14.09375 16.625 
z
M 26.90625 63.296875 
C 35.09375 63.296875 41.296875 56.59375 41.296875 47.515625 
C 41.296875 38.921875 35.203125 32.8125 26.59375 32.8125 
C 18.09375 32.8125 12.796875 38.625 12.796875 48 
C 12.796875 56.875 18.796875 63.296875 26.90625 63.296875 
z
" id="Nimbus_Sans_L_Regular-57"/>
     <path d="M 25 73 
L 6.40625 73 
L 6.40625 -21.203125 
L 25 -21.203125 
L 25 -14 
L 14.703125 -14 
L 14.703125 65.78125 
L 25 65.78125 
z
" id="Nimbus_Sans_L_Regular-91"/>
     <path d="M 8.703125 10 
L 8.703125 -0.421875 
L 14.703125 -0.421875 
L 14.703125 -2.21875 
C 14.703125 -9.109375 13.40625 -11.09375 8.703125 -11.09375 
L 8.703125 -15 
C 15.703125 -15 19.203125 -10.53125 19.203125 -1.96875 
L 19.203125 10 
z
" id="Nimbus_Sans_L_Regular-44"/>
     <path d="M 2.296875 -21.203125 
L 20.90625 -21.203125 
L 20.90625 73 
L 2.296875 73 
L 2.296875 65.78125 
L 12.59375 65.78125 
L 12.59375 -14 
L 2.296875 -14 
z
" id="Nimbus_Sans_L_Regular-93"/>
    </defs>
    <g style="fill:#262626;" transform="translate(66.241486 24.399248)scale(0.14 -0.14)">
     <use transform="scale(0.996264)" xlink:href="#Nimbus_Sans_L_Regular-82"/>
     <use transform="translate(71.929985 0)scale(0.996264)" xlink:href="#Nimbus_Sans_L_Regular-77"/>
     <use transform="translate(154.918415 0)scale(0.996264)" xlink:href="#Nimbus_Sans_L_Regular-83"/>
     <use transform="translate(221.368446 0)scale(0.996264)" xlink:href="#Nimbus_Sans_L_Regular-69"/>
     <use transform="translate(315.513647 0)scale(0.996264)" xlink:href="#Nimbus_Sans_L_Regular-61"/>
     <use transform="translate(401.390309 0)scale(0.996264)" xlink:href="#Nimbus_Sans_L_Regular-51"/>
     <use transform="translate(456.781986 0)scale(0.996264)" xlink:href="#Nimbus_Sans_L_Regular-46"/>
     <use transform="translate(484.477156 0)scale(0.996264)" xlink:href="#Nimbus_Sans_L_Regular-57"/>
     <use transform="translate(539.868833 0)scale(0.996264)" xlink:href="#Nimbus_Sans_L_Regular-57"/>
     <use transform="translate(622.95568 0)scale(0.996264)" xlink:href="#Nimbus_Sans_L_Regular-91"/>
     <use transform="translate(650.650849 0)scale(0.996264)" xlink:href="#Nimbus_Sans_L_Regular-51"/>
     <use transform="translate(706.042526 0)scale(0.996264)" xlink:href="#Nimbus_Sans_L_Regular-46"/>
     <use transform="translate(733.737696 0)scale(0.996264)" xlink:href="#Nimbus_Sans_L_Regular-54"/>
     <use transform="translate(789.129373 0)scale(0.996264)" xlink:href="#Nimbus_Sans_L_Regular-51"/>
     <use transform="translate(844.52105 0)scale(0.996264)" xlink:href="#Nimbus_Sans_L_Regular-44"/>
     <use transform="translate(899.911389 0)scale(0.996264)" xlink:href="#Nimbus_Sans_L_Regular-52"/>
     <use transform="translate(955.303066 0)scale(0.996264)" xlink:href="#Nimbus_Sans_L_Regular-46"/>
     <use transform="translate(982.998235 0)scale(0.996264)" xlink:href="#Nimbus_Sans_L_Regular-51"/>
     <use transform="translate(1038.389912 0)scale(0.996264)" xlink:href="#Nimbus_Sans_L_Regular-54"/>
     <use transform="translate(1093.781589 0)scale(0.996264)" xlink:href="#Nimbus_Sans_L_Regular-93"/>
    </g>
    <!-- R$^2$ = 0.48 [0.31, 0.64] -->
    <g style="fill:#262626;" transform="translate(66.241486 41.314445)scale(0.14 -0.14)">
     <use transform="scale(0.996264)" xlink:href="#Nimbus_Sans_L_Regular-82"/>
     <use transform="translate(71.929985 36.153639)scale(0.697382)" xlink:href="#Nimbus_Sans_L_Regular-50"/>
     <use transform="translate(138.897287 0)scale(0.996264)" xlink:href="#Nimbus_Sans_L_Regular-61"/>
     <use transform="translate(224.773949 0)scale(0.996264)" xlink:href="#Nimbus_Sans_L_Regular-48"/>
     <use transform="translate(280.165626 0)scale(0.996264)" xlink:href="#Nimbus_Sans_L_Regular-46"/>
     <use transform="translate(307.860796 0)scale(0.996264)" xlink:href="#Nimbus_Sans_L_Regular-52"/>
     <use transform="translate(363.252473 0)scale(0.996264)" xlink:href="#Nimbus_Sans_L_Regular-56"/>
     <use transform="translate(446.33932 0)scale(0.996264)" xlink:href="#Nimbus_Sans_L_Regular-91"/>
     <use transform="translate(474.034489 0)scale(0.996264)" xlink:href="#Nimbus_Sans_L_Regular-48"/>
     <use transform="translate(529.426166 0)scale(0.996264)" xlink:href="#Nimbus_Sans_L_Regular-46"/>
     <use transform="translate(557.121336 0)scale(0.996264)" xlink:href="#Nimbus_Sans_L_Regular-51"/>
     <use transform="translate(612.513013 0)scale(0.996264)" xlink:href="#Nimbus_Sans_L_Regular-49"/>
     <use transform="translate(667.90469 0)scale(0.996264)" xlink:href="#Nimbus_Sans_L_Regular-44"/>
     <use transform="translate(723.295029 0)scale(0.996264)" xlink:href="#Nimbus_Sans_L_Regular-48"/>
     <use transform="translate(778.686706 0)scale(0.996264)" xlink:href="#Nimbus_Sans_L_Regular-46"/>
     <use transform="translate(806.381875 0)scale(0.996264)" xlink:href="#Nimbus_Sans_L_Regular-54"/>
     <use transform="translate(861.773552 0)scale(0.996264)" xlink:href="#Nimbus_Sans_L_Regular-52"/>
     <use transform="translate(917.165229 0)scale(0.996264)" xlink:href="#Nimbus_Sans_L_Regular-93"/>
    </g>
   </g>
  </g>
 </g>
 <defs>
  <clipPath id="p488671c420">
   <rect height="326.16" width="401.76" x="58.223886" y="7.2"/>
  </clipPath>
 </defs>
</svg>
