<?xml version="1.0" encoding="utf-8" standalone="no"?>
<!DOCTYPE svg PUBLIC "-//W3C//DTD SVG 1.1//EN"
  "http://www.w3.org/Graphics/SVG/1.1/DTD/svg11.dtd">
<!-- Created with matplotlib (http://matplotlib.org/) -->
<svg height="379pt" version="1.1" viewBox="0 0 467 379" width="467pt" xmlns="http://www.w3.org/2000/svg" xmlns:xlink="http://www.w3.org/1999/xlink">
 <defs>
  <style type="text/css">
*{stroke-linecap:butt;stroke-linejoin:round;}
  </style>
 </defs>
 <g id="figure_1">
  <g id="patch_1">
   <path d="M 0 379.095075 
L 467.183886 379.095075 
L 467.183886 0 
L 0 0 
z
" style="fill:#ffffff;"/>
  </g>
  <g id="axes_1">
   <g id="patch_2">
    <path d="M 58.223886 333.36 
L 459.983886 333.36 
L 459.983886 7.2 
L 58.223886 7.2 
z
" style="fill:#ffffff;"/>
   </g>
   <g id="line2d_1">
    <path clip-path="url(#p9eee44e0a9)" d="M 0.656178 380.095075 
L 468.183886 0.543011 
" style="fill:none;stroke:#4c4c4c;stroke-linecap:round;stroke-width:0.5;"/>
   </g>
   <g id="matplotlib.axis_1">
    <g id="xtick_1">
     <g id="line2d_2">
      <path clip-path="url(#p9eee44e0a9)" d="M 58.223886 333.36 
L 58.223886 7.2 
" style="fill:none;stroke:#cccccc;stroke-linecap:round;stroke-width:1.3;"/>
     </g>
     <g id="line2d_3"/>
     <g id="text_1">
      <!-- $-10$ -->
      <defs>
       <path d="M 65.90625 23 
C 67.59375 23 69.40625 23 69.40625 25 
C 69.40625 27 67.59375 27 65.90625 27 
L 11.796875 27 
C 10.09375 27 8.296875 27 8.296875 25 
C 8.296875 23 10.09375 23 11.796875 23 
z
" id="CMSY10-0"/>
       <path d="M 25.90625 50.59375 
L 25.90625 0 
L 34.703125 0 
L 34.703125 71.015625 
L 28.90625 71.015625 
C 25.796875 60.109375 23.796875 58.609375 10.203125 56.90625 
L 10.203125 50.59375 
z
" id="Nimbus_Sans_L_Regular-49"/>
       <path d="M 27.5 71 
C 20.90625 71 14.90625 68.125 11.203125 63.21875 
C 6.59375 57.046875 4.296875 47.5625 4.296875 34.5 
C 4.296875 10.671875 12.296875 -2 27.5 -2 
C 42.5 -2 50.703125 10.671875 50.703125 33.90625 
C 50.703125 47.65625 48.5 56.84375 43.796875 63.21875 
C 40.09375 68.21875 34.203125 71 27.5 71 
z
M 27.5 63.1875 
C 37 63.1875 41.703125 53.625 41.703125 34.703125 
C 41.703125 14.671875 37.09375 5.3125 27.296875 5.3125 
C 18 5.3125 13.296875 15.078125 13.296875 34.40625 
C 13.296875 53.71875 18 63.1875 27.5 63.1875 
z
" id="Nimbus_Sans_L_Regular-48"/>
      </defs>
      <g style="fill:#262626;" transform="translate(45.986284 351.687816)scale(0.13 -0.13)">
       <use transform="scale(0.996264)" xlink:href="#CMSY10-0"/>
       <use transform="translate(77.487468 0)scale(0.996264)" xlink:href="#Nimbus_Sans_L_Regular-49"/>
       <use transform="translate(132.879145 0)scale(0.996264)" xlink:href="#Nimbus_Sans_L_Regular-48"/>
      </g>
     </g>
    </g>
    <g id="xtick_2">
     <g id="line2d_4">
      <path clip-path="url(#p9eee44e0a9)" d="M 111.791886 333.36 
L 111.791886 7.2 
" style="fill:none;stroke:#cccccc;stroke-linecap:round;stroke-width:1.3;"/>
     </g>
     <g id="line2d_5"/>
     <g id="text_2">
      <!-- $-8$ -->
      <defs>
       <path d="M 39.09375 37.484375 
C 46.40625 41.875 48.796875 45.46875 48.796875 52.15625 
C 48.796875 63.21875 40.09375 71 27.5 71 
C 15 71 6.203125 63.21875 6.203125 52.15625 
C 6.203125 45.578125 8.59375 41.984375 15.796875 37.484375 
C 7.703125 33.59375 3.703125 27.71875 3.703125 19.9375 
C 3.703125 6.96875 13.5 -2 27.5 -2 
C 41.5 -2 51.296875 6.984375 51.296875 19.84375 
C 51.296875 27.71875 47.296875 33.59375 39.09375 37.484375 
z
M 27.5 63.1875 
C 35 63.1875 39.796875 58.8125 39.796875 51.953125 
C 39.796875 45.375 34.90625 41 27.5 41 
C 20.09375 41 15.203125 45.375 15.203125 52.046875 
C 15.203125 58.8125 20.09375 63.1875 27.5 63.1875 
z
M 27.5 33.578125 
C 36.296875 33.578125 42.296875 28 42.296875 19.734375 
C 42.296875 11.390625 36.296875 5.8125 27.296875 5.8125 
C 18.703125 5.8125 12.703125 11.484375 12.703125 19.734375 
C 12.703125 28 18.703125 33.578125 27.5 33.578125 
z
" id="Nimbus_Sans_L_Regular-56"/>
      </defs>
      <g style="fill:#262626;" transform="translate(103.154743 351.687816)scale(0.13 -0.13)">
       <use transform="scale(0.996264)" xlink:href="#CMSY10-0"/>
       <use transform="translate(77.487468 0)scale(0.996264)" xlink:href="#Nimbus_Sans_L_Regular-56"/>
      </g>
     </g>
    </g>
    <g id="xtick_3">
     <g id="line2d_6">
      <path clip-path="url(#p9eee44e0a9)" d="M 165.359886 333.36 
L 165.359886 7.2 
" style="fill:none;stroke:#cccccc;stroke-linecap:round;stroke-width:1.3;"/>
     </g>
     <g id="line2d_7"/>
     <g id="text_3">
      <!-- $-6$ -->
      <defs>
       <path d="M 49.796875 52.84375 
C 48.09375 64.234375 40.5 71 29.703125 71 
C 21.90625 71 14.90625 67.21875 10.703125 60.9375 
C 6.296875 54.0625 4.296875 45.375 4.296875 32.515625 
C 4.296875 20.640625 6.09375 13.0625 10.296875 6.78125 
C 14.09375 1.078125 20.296875 -2 28.09375 -2 
C 41.59375 -2 51.296875 8.09375 51.296875 22.109375 
C 51.296875 35.4375 42.296875 44.8125 29.59375 44.8125 
C 22.59375 44.8125 17.09375 42.109375 13.296875 36.90625 
C 13.40625 53.8125 19 63.1875 29.09375 63.1875 
C 35.296875 63.1875 39.59375 59.421875 41 52.84375 
z
M 28.5 37 
C 37 37 42.296875 31.03125 42.296875 21.40625 
C 42.296875 12.390625 36.296875 5.8125 28.203125 5.8125 
C 20 5.8125 13.796875 12.703125 13.796875 21.90625 
C 13.796875 30.828125 19.796875 37 28.5 37 
z
" id="Nimbus_Sans_L_Regular-54"/>
      </defs>
      <g style="fill:#262626;" transform="translate(156.722743 351.687816)scale(0.13 -0.13)">
       <use transform="scale(0.996264)" xlink:href="#CMSY10-0"/>
       <use transform="translate(77.487468 0)scale(0.996264)" xlink:href="#Nimbus_Sans_L_Regular-54"/>
      </g>
     </g>
    </g>
    <g id="xtick_4">
     <g id="line2d_8">
      <path clip-path="url(#p9eee44e0a9)" d="M 218.927886 333.36 
L 218.927886 7.2 
" style="fill:none;stroke:#cccccc;stroke-linecap:round;stroke-width:1.3;"/>
     </g>
     <g id="line2d_9"/>
     <g id="text_4">
      <!-- $-4$ -->
      <defs>
       <path d="M 32.703125 17 
L 32.703125 0 
L 41.5 0 
L 41.5 17 
L 52 17 
L 52 24.90625 
L 41.5 24.90625 
L 41.5 71.015625 
L 35 71.015625 
L 2.796875 26.3125 
L 2.796875 17 
z
M 32.703125 24.90625 
L 10.5 24.90625 
L 32.703125 55.984375 
z
" id="Nimbus_Sans_L_Regular-52"/>
      </defs>
      <g style="fill:#262626;" transform="translate(210.290743 351.687816)scale(0.13 -0.13)">
       <use transform="scale(0.996264)" xlink:href="#CMSY10-0"/>
       <use transform="translate(77.487468 0)scale(0.996264)" xlink:href="#Nimbus_Sans_L_Regular-52"/>
      </g>
     </g>
    </g>
    <g id="xtick_5">
     <g id="line2d_10">
      <path clip-path="url(#p9eee44e0a9)" d="M 272.495886 333.36 
L 272.495886 7.2 
" style="fill:none;stroke:#cccccc;stroke-linecap:round;stroke-width:1.3;"/>
     </g>
     <g id="line2d_11"/>
     <g id="text_5">
      <!-- $-2$ -->
      <defs>
       <path d="M 50.59375 8.71875 
L 13.296875 8.71875 
C 14.203125 14.53125 17.40625 18.234375 26.09375 23.34375 
L 36.09375 28.75 
C 46 34.15625 51.09375 41.453125 51.09375 50.171875 
C 51.09375 56.078125 48.703125 61.59375 44.5 65.390625 
C 40.296875 69.203125 35.09375 71 28.40625 71 
C 19.40625 71 12.703125 67.796875 8.796875 61.796875 
C 6.296875 57.984375 5.203125 53.578125 5 46.359375 
L 13.796875 46.359375 
C 14.09375 51.171875 14.703125 54.078125 15.90625 56.375 
C 18.203125 60.6875 22.796875 63.296875 28.09375 63.296875 
C 36.09375 63.296875 42.09375 57.578125 42.09375 49.96875 
C 42.09375 44.359375 38.796875 39.546875 32.5 35.953125 
L 23.296875 30.75 
C 8.5 22.34375 4.203125 15.625 3.40625 0 
L 50.59375 0 
z
" id="Nimbus_Sans_L_Regular-50"/>
      </defs>
      <g style="fill:#262626;" transform="translate(263.858743 351.687816)scale(0.13 -0.13)">
       <use transform="scale(0.996264)" xlink:href="#CMSY10-0"/>
       <use transform="translate(77.487468 0)scale(0.996264)" xlink:href="#Nimbus_Sans_L_Regular-50"/>
      </g>
     </g>
    </g>
    <g id="xtick_6">
     <g id="line2d_12">
      <path clip-path="url(#p9eee44e0a9)" d="M 326.063886 333.36 
L 326.063886 7.2 
" style="fill:none;stroke:#cccccc;stroke-linecap:round;stroke-width:1.3;"/>
     </g>
     <g id="line2d_13"/>
     <g id="text_6">
      <!-- $0$ -->
      <g style="fill:#262626;" transform="translate(322.463428 351.687816)scale(0.13 -0.13)">
       <use transform="scale(0.996264)" xlink:href="#Nimbus_Sans_L_Regular-48"/>
      </g>
     </g>
    </g>
    <g id="xtick_7">
     <g id="line2d_14">
      <path clip-path="url(#p9eee44e0a9)" d="M 379.631886 333.36 
L 379.631886 7.2 
" style="fill:none;stroke:#cccccc;stroke-linecap:round;stroke-width:1.3;"/>
     </g>
     <g id="line2d_15"/>
     <g id="text_7">
      <!-- $2$ -->
      <g style="fill:#262626;" transform="translate(376.031428 351.687816)scale(0.13 -0.13)">
       <use transform="scale(0.996264)" xlink:href="#Nimbus_Sans_L_Regular-50"/>
      </g>
     </g>
    </g>
    <g id="xtick_8">
     <g id="line2d_16">
      <path clip-path="url(#p9eee44e0a9)" d="M 433.199886 333.36 
L 433.199886 7.2 
" style="fill:none;stroke:#cccccc;stroke-linecap:round;stroke-width:1.3;"/>
     </g>
     <g id="line2d_17"/>
     <g id="text_8">
      <!-- $4$ -->
      <g style="fill:#262626;" transform="translate(429.599428 351.687816)scale(0.13 -0.13)">
       <use transform="scale(0.996264)" xlink:href="#Nimbus_Sans_L_Regular-52"/>
      </g>
     </g>
    </g>
    <g id="text_9">
     <!-- Experimental $\Delta$H (kcal/mol) -->
     <defs>
      <path d="M 18.296875 33 
L 58 33 
L 58 41.21875 
L 18.296875 41.21875 
L 18.296875 64.78125 
L 59.5 64.78125 
L 59.5 73 
L 9 73 
L 9 0 
L 61.296875 0 
L 61.296875 8.21875 
L 18.296875 8.21875 
z
" id="Nimbus_Sans_L_Regular-69"/>
      <path d="M 29.203125 27.140625 
L 46.796875 52.484375 
L 37.40625 52.484375 
L 24.796875 33.453125 
L 12.203125 52.484375 
L 2.703125 52.484375 
L 20.203125 26.75 
L 1.703125 0 
L 11.203125 0 
L 24.5 20.125 
L 37.59375 0 
L 47.296875 0 
z
" id="Nimbus_Sans_L_Regular-120"/>
      <path d="M 5.40625 -22 
L 13.796875 -22 
L 13.796875 5 
C 18.203125 -0.421875 23.09375 -2.8125 29.90625 -2.8125 
C 43.40625 -2.8125 52.296875 8.15625 52.296875 24.984375 
C 52.296875 42.71875 43.703125 53.8125 29.796875 53.8125 
C 22.703125 53.8125 17 50.59375 13.09375 44.390625 
L 13.09375 52.328125 
L 5.40625 52.328125 
z
M 28.40625 46 
C 37.59375 46 43.59375 37.8125 43.59375 25.1875 
C 43.59375 13.171875 37.5 5 28.40625 5 
C 19.59375 5 13.796875 13.078125 13.796875 25.5 
C 13.796875 37.921875 19.59375 46 28.40625 46 
z
" id="Nimbus_Sans_L_Regular-112"/>
      <path d="M 51.296875 23.890625 
C 51.296875 31.78125 50.703125 36.53125 49.203125 40.375 
C 45.796875 48.859375 37.796875 54 28 54 
C 13.40625 54 4 42.84375 4 25.703125 
C 4 8.546875 13.09375 -2 27.796875 -2 
C 39.796875 -2 48.09375 4.84375 50.203125 16.3125 
L 41.796875 16.3125 
C 39.5 9.34375 34.796875 5.703125 28.09375 5.703125 
C 22.796875 5.703125 18.296875 8.125 15.5 12.578125 
C 13.5 15.59375 12.796875 18.640625 12.703125 23.890625 
z
M 12.90625 31 
C 13.59375 40.265625 19.5 46.28125 27.90625 46.28125 
C 36.09375 46.28125 42.40625 39.53125 42.40625 31 
C 42.40625 31 42.40625 31 42.296875 31 
z
" id="Nimbus_Sans_L_Regular-101"/>
      <path d="M 6.90625 52.484375 
L 6.90625 0 
L 15.296875 0 
L 15.296875 27.203125 
C 15.296875 34.703125 17.203125 39.609375 21.203125 42.5 
C 23.796875 44.40625 26.296875 45 32.09375 45 
L 32.09375 53.625 
C 30.703125 53.8125 30 53.8125 28.90625 53.8125 
C 23.5 53.8125 19.40625 50.625 14.59375 42.90625 
L 14.59375 52.484375 
z
" id="Nimbus_Sans_L_Regular-114"/>
      <path d="M 15 52.484375 
L 6.703125 52.484375 
L 6.703125 0 
L 15 0 
z
M 15 73 
L 6.59375 73 
L 6.59375 62.484375 
L 15 62.484375 
z
" id="Nimbus_Sans_L_Regular-105"/>
      <path d="M 7 52.484375 
L 7 0 
L 15.40625 0 
L 15.40625 32.953125 
C 15.40625 40.578125 20.90625 46.6875 27.703125 46.6875 
C 33.90625 46.6875 37.40625 42.875 37.40625 36.15625 
L 37.40625 0 
L 45.796875 0 
L 45.796875 32.953125 
C 45.796875 40.578125 51.296875 46.6875 58.09375 46.6875 
C 64.203125 46.6875 67.796875 42.78125 67.796875 36.15625 
L 67.796875 0 
L 76.203125 0 
L 76.203125 39.375 
C 76.203125 48.78125 70.796875 54 61 54 
C 54 54 49.796875 51.890625 44.90625 45.984375 
C 41.796875 51.59375 37.59375 54 30.796875 54 
C 23.796875 54 19.203125 51.390625 14.703125 45.078125 
L 14.703125 52.484375 
z
" id="Nimbus_Sans_L_Regular-109"/>
      <path d="M 7 52.484375 
L 7 0 
L 15.40625 0 
L 15.40625 28.953125 
C 15.40625 39.671875 21 46.6875 29.59375 46.6875 
C 36.203125 46.6875 40.40625 42.671875 40.40625 36.359375 
L 40.40625 0 
L 48.703125 0 
L 48.703125 39.671875 
C 48.703125 48.390625 42.203125 54 32.09375 54 
C 24.296875 54 19.296875 50.984375 14.703125 43.6875 
L 14.703125 52.484375 
z
" id="Nimbus_Sans_L_Regular-110"/>
      <path d="M 25.40625 52.8125 
L 16.796875 52.8125 
L 16.796875 67 
L 8.5 67 
L 8.5 52.8125 
L 1.40625 52.8125 
L 1.40625 46 
L 8.5 46 
L 8.5 6.3125 
C 8.5 1 12.09375 -2 18.59375 -2 
C 20.59375 -2 22.59375 -1.8125 25.40625 -1.296875 
L 25.40625 5.71875 
C 24.296875 5.40625 23 5.3125 21.40625 5.3125 
C 17.796875 5.3125 16.796875 6.3125 16.796875 10.015625 
L 16.796875 46 
L 25.40625 46 
z
" id="Nimbus_Sans_L_Regular-116"/>
      <path d="M 53.5 5.203125 
C 52.59375 5 52.203125 5 51.703125 5 
C 48.796875 5 47.203125 6.484375 47.203125 9.078125 
L 47.203125 39.765625 
C 47.203125 49.015625 40.40625 54 27.5 54 
C 19.90625 54 13.59375 51.8125 10.09375 47.90625 
C 7.703125 45.203125 6.703125 42.21875 6.5 37.03125 
L 14.90625 37.03125 
C 15.59375 43.390625 19.40625 46.28125 27.203125 46.28125 
C 34.703125 46.28125 38.90625 43.484375 38.90625 38.515625 
L 38.90625 36.328125 
C 38.90625 32.828125 36.796875 31.34375 30.203125 30.546875 
C 18.40625 29.0625 16.59375 28.65625 13.40625 27.359375 
C 7.296875 24.875 4.203125 20.1875 4.203125 13.421875 
C 4.203125 3.96875 10.796875 -2 21.40625 -2 
C 28 -2 33.296875 0.296875 39.203125 5.703125 
C 39.796875 0.390625 42.40625 -2 47.796875 -2 
C 49.5 -2 50.796875 -1.8125 53.5 -1.09375 
z
M 38.90625 16.75 
C 38.90625 13.953125 38.09375 12.265625 35.59375 9.984375 
C 32.203125 6.890625 28.09375 5.3125 23.203125 5.3125 
C 16.703125 5.3125 12.90625 8.390625 12.90625 13.65625 
C 12.90625 19.140625 16.59375 21.921875 25.5 23.21875 
C 34.296875 24.40625 36.09375 24.8125 38.90625 26.09375 
z
" id="Nimbus_Sans_L_Regular-97"/>
      <path d="M 15.203125 73 
L 6.796875 73 
L 6.796875 -0.03125 
L 15.203125 -0.03125 
z
" id="Nimbus_Sans_L_Regular-108"/>
      <path d="M 36.296875 66.625 
L 3 4.40625 
L 3.203125 0.234375 
C 10.5 0.734375 17.90625 0.9375 25.296875 0.9375 
C 37.796875 0.9375 50.203125 0.328125 62.703125 -0.453125 
L 68.796875 2.71875 
L 68.90625 4.3125 
C 58.09375 25.078125 49.5 46.859375 42.09375 69.109375 
z
M 56.203125 5 
C 44.5 5 32.703125 5 20.90625 5 
C 17.40625 5 13.90625 5 10.40625 5 
L 10.09375 6.1875 
C 18.09375 23.03125 26.09375 38.65625 35.59375 55 
L 36.703125 55 
C 36.703125 54.90625 52.703125 15.21875 56.796875 5.890625 
z
" id="EURM10-1"/>
      <path d="M 55.09375 33 
L 55.09375 -0.03125 
L 64.40625 -0.03125 
L 64.40625 73 
L 55.09375 73 
L 55.09375 41.21875 
L 17.59375 41.21875 
L 17.59375 73 
L 8.296875 73 
L 8.296875 -0.03125 
L 17.703125 -0.03125 
L 17.703125 33 
z
" id="Nimbus_Sans_L_Regular-72"/>
      <path d="M 23.59375 73 
C 13.59375 59.84375 7.296875 41.5625 7.296875 25.796875 
C 7.296875 9.9375 13.59375 -8.34375 23.59375 -21.5 
L 29.09375 -21.5 
C 20.296875 -7.140625 15.40625 9.734375 15.40625 25.796875 
C 15.40625 41.765625 20.296875 58.734375 29.09375 73 
z
" id="Nimbus_Sans_L_Regular-40"/>
      <path d="M 14.09375 73 
L 5.796875 73 
L 5.796875 -0.03125 
L 14.09375 -0.03125 
L 14.09375 20.40625 
L 22.203125 28.421875 
L 39.90625 -0.03125 
L 50.203125 -0.03125 
L 28.796875 34.328125 
L 47 52.453125 
L 36.296875 52.453125 
L 14.09375 30.21875 
z
" id="Nimbus_Sans_L_Regular-107"/>
      <path d="M 47.09375 34.9375 
C 46.703125 40.03125 45.59375 43.328125 43.59375 46.21875 
C 40 51.109375 33.703125 54 26.40625 54 
C 12.296875 54 3.09375 42.84375 3.09375 25.5 
C 3.09375 8.65625 12.09375 -2 26.296875 -2 
C 38.796875 -2 46.703125 5.46875 47.703125 18.234375 
L 39.296875 18.234375 
C 37.90625 9.875 33.59375 5.703125 26.5 5.703125 
C 17.296875 5.703125 11.796875 13.171875 11.796875 25.5 
C 11.796875 38.53125 17.203125 46.28125 26.296875 46.28125 
C 33.296875 46.28125 37.703125 42.203125 38.703125 34.9375 
z
" id="Nimbus_Sans_L_Regular-99"/>
      <path d="M 22.90625 73 
L -0.796875 -2 
L 4.703125 -2 
L 28.40625 73 
z
" id="Nimbus_Sans_L_Regular-47"/>
      <path d="M 27.203125 54 
C 12.5 54 3.59375 43.53125 3.59375 25.984375 
C 3.59375 8.453125 12.40625 -2 27.296875 -2 
C 42 -2 51 8.453125 51 25.59375 
C 51 43.625 42.296875 54 27.203125 54 
z
M 27.296875 46.28125 
C 36.703125 46.28125 42.296875 38.625 42.296875 25.703125 
C 42.296875 13.453125 36.5 5.703125 27.296875 5.703125 
C 18 5.703125 12.296875 13.359375 12.296875 25.984375 
C 12.296875 38.53125 18 46.28125 27.296875 46.28125 
z
" id="Nimbus_Sans_L_Regular-111"/>
      <path d="M 9.296875 -21.5 
C 19.296875 -8.34375 25.59375 9.9375 25.59375 25.6875 
C 25.59375 41.5625 19.296875 59.84375 9.296875 73 
L 3.796875 73 
C 12.59375 58.640625 17.5 41.765625 17.5 25.6875 
C 17.5 9.734375 12.59375 -7.25 3.796875 -21.5 
z
" id="Nimbus_Sans_L_Regular-41"/>
     </defs>
     <g style="fill:#262626;" transform="translate(172.383958 368.860632)scale(0.143 -0.143)">
      <use transform="scale(0.996264)" xlink:href="#Nimbus_Sans_L_Regular-69"/>
      <use transform="translate(66.450031 0)scale(0.996264)" xlink:href="#Nimbus_Sans_L_Regular-120"/>
      <use transform="translate(116.263232 0)scale(0.996264)" xlink:href="#Nimbus_Sans_L_Regular-112"/>
      <use transform="translate(171.654909 0)scale(0.996264)" xlink:href="#Nimbus_Sans_L_Regular-101"/>
      <use transform="translate(227.046586 0)scale(0.996264)" xlink:href="#Nimbus_Sans_L_Regular-114"/>
      <use transform="translate(261.715193 0)scale(0.996264)" xlink:href="#Nimbus_Sans_L_Regular-105"/>
      <use transform="translate(283.831977 0)scale(0.996264)" xlink:href="#Nimbus_Sans_L_Regular-109"/>
      <use transform="translate(366.820407 0)scale(0.996264)" xlink:href="#Nimbus_Sans_L_Regular-101"/>
      <use transform="translate(422.212084 0)scale(0.996264)" xlink:href="#Nimbus_Sans_L_Regular-110"/>
      <use transform="translate(477.603761 0)scale(0.996264)" xlink:href="#Nimbus_Sans_L_Regular-116"/>
      <use transform="translate(505.298931 0)scale(0.996264)" xlink:href="#Nimbus_Sans_L_Regular-97"/>
      <use transform="translate(560.690608 0)scale(0.996264)" xlink:href="#Nimbus_Sans_L_Regular-108"/>
      <use transform="translate(610.502562 0)scale(0.996264)" xlink:href="#EURM10-1"/>
      <use transform="translate(681.564327 0)scale(0.996264)" xlink:href="#Nimbus_Sans_L_Regular-72"/>
      <use transform="translate(781.189482 0)scale(0.996264)" xlink:href="#Nimbus_Sans_L_Regular-40"/>
      <use transform="translate(814.364711 0)scale(0.996264)" xlink:href="#Nimbus_Sans_L_Regular-107"/>
      <use transform="translate(864.177912 0)scale(0.996264)" xlink:href="#Nimbus_Sans_L_Regular-99"/>
      <use transform="translate(913.991112 0)scale(0.996264)" xlink:href="#Nimbus_Sans_L_Regular-97"/>
      <use transform="translate(969.382789 0)scale(0.996264)" xlink:href="#Nimbus_Sans_L_Regular-108"/>
      <use transform="translate(991.499574 0)scale(0.996264)" xlink:href="#Nimbus_Sans_L_Regular-47"/>
      <use transform="translate(1019.194743 0)scale(0.996264)" xlink:href="#Nimbus_Sans_L_Regular-109"/>
      <use transform="translate(1102.183174 0)scale(0.996264)" xlink:href="#Nimbus_Sans_L_Regular-111"/>
      <use transform="translate(1157.574851 0)scale(0.996264)" xlink:href="#Nimbus_Sans_L_Regular-108"/>
      <use transform="translate(1179.691635 0)scale(0.996264)" xlink:href="#Nimbus_Sans_L_Regular-41"/>
     </g>
    </g>
   </g>
   <g id="matplotlib.axis_2">
    <g id="ytick_1">
     <g id="line2d_18">
      <path clip-path="url(#p9eee44e0a9)" d="M 58.223886 333.36 
L 459.983886 333.36 
" style="fill:none;stroke:#cccccc;stroke-linecap:round;stroke-width:1.3;"/>
     </g>
     <g id="line2d_19"/>
     <g id="text_10">
      <!-- $-10$ -->
      <g style="fill:#262626;" transform="translate(24.648682 337.973908)scale(0.13 -0.13)">
       <use transform="scale(0.996264)" xlink:href="#CMSY10-0"/>
       <use transform="translate(77.487468 0)scale(0.996264)" xlink:href="#Nimbus_Sans_L_Regular-49"/>
       <use transform="translate(132.879145 0)scale(0.996264)" xlink:href="#Nimbus_Sans_L_Regular-48"/>
      </g>
     </g>
    </g>
    <g id="ytick_2">
     <g id="line2d_20">
      <path clip-path="url(#p9eee44e0a9)" d="M 58.223886 289.872 
L 459.983886 289.872 
" style="fill:none;stroke:#cccccc;stroke-linecap:round;stroke-width:1.3;"/>
     </g>
     <g id="line2d_21"/>
     <g id="text_11">
      <!-- $-8$ -->
      <g style="fill:#262626;" transform="translate(31.8496 294.485908)scale(0.13 -0.13)">
       <use transform="scale(0.996264)" xlink:href="#CMSY10-0"/>
       <use transform="translate(77.487468 0)scale(0.996264)" xlink:href="#Nimbus_Sans_L_Regular-56"/>
      </g>
     </g>
    </g>
    <g id="ytick_3">
     <g id="line2d_22">
      <path clip-path="url(#p9eee44e0a9)" d="M 58.223886 246.384 
L 459.983886 246.384 
" style="fill:none;stroke:#cccccc;stroke-linecap:round;stroke-width:1.3;"/>
     </g>
     <g id="line2d_23"/>
     <g id="text_12">
      <!-- $-6$ -->
      <g style="fill:#262626;" transform="translate(31.8496 250.997908)scale(0.13 -0.13)">
       <use transform="scale(0.996264)" xlink:href="#CMSY10-0"/>
       <use transform="translate(77.487468 0)scale(0.996264)" xlink:href="#Nimbus_Sans_L_Regular-54"/>
      </g>
     </g>
    </g>
    <g id="ytick_4">
     <g id="line2d_24">
      <path clip-path="url(#p9eee44e0a9)" d="M 58.223886 202.896 
L 459.983886 202.896 
" style="fill:none;stroke:#cccccc;stroke-linecap:round;stroke-width:1.3;"/>
     </g>
     <g id="line2d_25"/>
     <g id="text_13">
      <!-- $-4$ -->
      <g style="fill:#262626;" transform="translate(31.8496 207.509908)scale(0.13 -0.13)">
       <use transform="scale(0.996264)" xlink:href="#CMSY10-0"/>
       <use transform="translate(77.487468 0)scale(0.996264)" xlink:href="#Nimbus_Sans_L_Regular-52"/>
      </g>
     </g>
    </g>
    <g id="ytick_5">
     <g id="line2d_26">
      <path clip-path="url(#p9eee44e0a9)" d="M 58.223886 159.408 
L 459.983886 159.408 
" style="fill:none;stroke:#cccccc;stroke-linecap:round;stroke-width:1.3;"/>
     </g>
     <g id="line2d_27"/>
     <g id="text_14">
      <!-- $-2$ -->
      <g style="fill:#262626;" transform="translate(31.8496 164.021908)scale(0.13 -0.13)">
       <use transform="scale(0.996264)" xlink:href="#CMSY10-0"/>
       <use transform="translate(77.487468 0)scale(0.996264)" xlink:href="#Nimbus_Sans_L_Regular-50"/>
      </g>
     </g>
    </g>
    <g id="ytick_6">
     <g id="line2d_28">
      <path clip-path="url(#p9eee44e0a9)" d="M 58.223886 115.92 
L 459.983886 115.92 
" style="fill:none;stroke:#cccccc;stroke-linecap:round;stroke-width:1.3;"/>
     </g>
     <g id="line2d_29"/>
     <g id="text_15">
      <!-- $0$ -->
      <g style="fill:#262626;" transform="translate(41.922969 120.533908)scale(0.13 -0.13)">
       <use transform="scale(0.996264)" xlink:href="#Nimbus_Sans_L_Regular-48"/>
      </g>
     </g>
    </g>
    <g id="ytick_7">
     <g id="line2d_30">
      <path clip-path="url(#p9eee44e0a9)" d="M 58.223886 72.432 
L 459.983886 72.432 
" style="fill:none;stroke:#cccccc;stroke-linecap:round;stroke-width:1.3;"/>
     </g>
     <g id="line2d_31"/>
     <g id="text_16">
      <!-- $2$ -->
      <g style="fill:#262626;" transform="translate(41.922969 77.045908)scale(0.13 -0.13)">
       <use transform="scale(0.996264)" xlink:href="#Nimbus_Sans_L_Regular-50"/>
      </g>
     </g>
    </g>
    <g id="ytick_8">
     <g id="line2d_32">
      <path clip-path="url(#p9eee44e0a9)" d="M 58.223886 28.944 
L 459.983886 28.944 
" style="fill:none;stroke:#cccccc;stroke-linecap:round;stroke-width:1.3;"/>
     </g>
     <g id="line2d_33"/>
     <g id="text_17">
      <!-- $4$ -->
      <g style="fill:#262626;" transform="translate(41.922969 33.557908)scale(0.13 -0.13)">
       <use transform="scale(0.996264)" xlink:href="#Nimbus_Sans_L_Regular-52"/>
      </g>
     </g>
    </g>
    <g id="text_18">
     <!-- GAFF v2.1 $\Delta$H (kcal/mol) -->
     <defs>
      <path d="M 70.90625 39 
L 40.5 39 
L 40.5 30.796875 
L 62.703125 30.796875 
L 62.703125 28.765625 
C 62.703125 15.671875 53.09375 6.203125 39.796875 6.203125 
C 32.40625 6.203125 25.703125 8.890625 21.40625 13.59375 
C 16.59375 18.765625 13.703125 27.4375 13.703125 36.40625 
C 13.703125 54.234375 23.90625 66 39.296875 66 
C 50.40625 66 58.40625 60.375 60.40625 51.125 
L 69.90625 51.125 
C 67.296875 65.796875 56.09375 74.21875 39.40625 74.21875 
C 30.5 74.21875 23.296875 71.921875 17.59375 67.234375 
C 9.203125 60.25 4.40625 48.984375 4.40625 35.90625 
C 4.40625 13.5625 18.09375 -2 37.796875 -2 
C 47.703125 -2 55.59375 1.703125 62.703125 9.625 
L 65 -0.109375 
L 70.90625 -0.109375 
z
" id="Nimbus_Sans_L_Regular-71"/>
      <path d="M 47.40625 22 
L 54.90625 0 
L 65.296875 0 
L 39.703125 73 
L 27.703125 73 
L 1.703125 0 
L 11.59375 0 
L 19.296875 22 
z
M 44.796875 29.8125 
L 21.59375 29.8125 
L 33.59375 63 
z
" id="Nimbus_Sans_L_Regular-65"/>
      <path d="M 18.296875 33 
L 53.09375 33 
L 53.09375 41.21875 
L 18.296875 41.21875 
L 18.296875 64.78125 
L 57.90625 64.78125 
L 57.90625 73 
L 9 73 
L 9 -0.21875 
L 18.296875 -0.21875 
z
" id="Nimbus_Sans_L_Regular-70"/>
      <path d="M 28.5 0 
L 48.59375 52.5 
L 39.203125 52.5 
L 24.40625 9.921875 
L 10.40625 52.5 
L 1 52.5 
L 19.40625 0 
z
" id="Nimbus_Sans_L_Regular-118"/>
      <path d="M 19.09375 10.421875 
L 8.703125 10.421875 
L 8.703125 0 
L 19.09375 0 
z
" id="Nimbus_Sans_L_Regular-46"/>
     </defs>
     <g style="fill:#262626;" transform="translate(17.614239 249.769922)rotate(-90)scale(0.143 -0.143)">
      <use transform="scale(0.996264)" xlink:href="#Nimbus_Sans_L_Regular-71"/>
      <use transform="translate(77.50837 0)scale(0.996264)" xlink:href="#Nimbus_Sans_L_Regular-65"/>
      <use transform="translate(143.958401 0)scale(0.996264)" xlink:href="#Nimbus_Sans_L_Regular-70"/>
      <use transform="translate(204.830032 0)scale(0.996264)" xlink:href="#Nimbus_Sans_L_Regular-70"/>
      <use transform="translate(293.396832 0)scale(0.996264)" xlink:href="#Nimbus_Sans_L_Regular-118"/>
      <use transform="translate(343.210033 0)scale(0.996264)" xlink:href="#Nimbus_Sans_L_Regular-50"/>
      <use transform="translate(398.60171 0)scale(0.996264)" xlink:href="#Nimbus_Sans_L_Regular-46"/>
      <use transform="translate(426.296879 0)scale(0.996264)" xlink:href="#Nimbus_Sans_L_Regular-49"/>
      <use transform="translate(509.383726 0)scale(0.996264)" xlink:href="#EURM10-1"/>
      <use transform="translate(580.445491 0)scale(0.996264)" xlink:href="#Nimbus_Sans_L_Regular-72"/>
      <use transform="translate(680.070646 0)scale(0.996264)" xlink:href="#Nimbus_Sans_L_Regular-40"/>
      <use transform="translate(713.245875 0)scale(0.996264)" xlink:href="#Nimbus_Sans_L_Regular-107"/>
      <use transform="translate(763.059076 0)scale(0.996264)" xlink:href="#Nimbus_Sans_L_Regular-99"/>
      <use transform="translate(812.872276 0)scale(0.996264)" xlink:href="#Nimbus_Sans_L_Regular-97"/>
      <use transform="translate(868.263953 0)scale(0.996264)" xlink:href="#Nimbus_Sans_L_Regular-108"/>
      <use transform="translate(890.380738 0)scale(0.996264)" xlink:href="#Nimbus_Sans_L_Regular-47"/>
      <use transform="translate(918.075907 0)scale(0.996264)" xlink:href="#Nimbus_Sans_L_Regular-109"/>
      <use transform="translate(1001.064338 0)scale(0.996264)" xlink:href="#Nimbus_Sans_L_Regular-111"/>
      <use transform="translate(1056.456015 0)scale(0.996264)" xlink:href="#Nimbus_Sans_L_Regular-108"/>
      <use transform="translate(1078.572799 0)scale(0.996264)" xlink:href="#Nimbus_Sans_L_Regular-41"/>
     </g>
    </g>
   </g>
   <g id="LineCollection_1">
    <path clip-path="url(#p9eee44e0a9)" d="M 266.603406 182.230288 
L 269.281806 182.230288 
" style="fill:none;stroke:#808080;"/>
    <path clip-path="url(#p9eee44e0a9)" d="M 213.303246 266.169601 
L 214.374606 266.169601 
" style="fill:none;stroke:#808080;"/>
    <path clip-path="url(#p9eee44e0a9)" d="M 200.714766 276.437829 
L 201.786126 276.437829 
" style="fill:none;stroke:#808080;"/>
    <path clip-path="url(#p9eee44e0a9)" d="M 252.407886 183.587583 
L 256.157646 183.587583 
" style="fill:none;stroke:#808080;"/>
    <path clip-path="url(#p9eee44e0a9)" d="M 198.572046 292.503325 
L 199.643406 292.503325 
" style="fill:none;stroke:#808080;"/>
    <path clip-path="url(#p9eee44e0a9)" d="M 210.892686 255.062912 
L 211.964046 255.062912 
" style="fill:none;stroke:#808080;"/>
    <path clip-path="url(#p9eee44e0a9)" d="M 211.428366 262.443277 
L 215.713806 262.443277 
" style="fill:none;stroke:#808080;"/>
    <path clip-path="url(#p9eee44e0a9)" d="M 255.621966 188.579884 
L 258.836046 188.579884 
" style="fill:none;stroke:#808080;"/>
    <path clip-path="url(#p9eee44e0a9)" d="M 179.019726 290.226563 
L 180.626766 290.226563 
" style="fill:none;stroke:#808080;"/>
    <path clip-path="url(#p9eee44e0a9)" d="M 237.676686 212.658072 
L 238.748046 212.658072 
" style="fill:none;stroke:#808080;"/>
    <path clip-path="url(#p9eee44e0a9)" d="M 340.795086 106.759066 
L 343.473486 106.759066 
" style="fill:none;stroke:#808080;"/>
    <path clip-path="url(#p9eee44e0a9)" d="M 337.848846 109.745635 
L 339.455886 109.745635 
" style="fill:none;stroke:#808080;"/>
    <path clip-path="url(#p9eee44e0a9)" d="M 312.404046 127.18366 
L 314.011086 127.18366 
" style="fill:none;stroke:#808080;"/>
   </g>
   <g id="LineCollection_2">
    <path clip-path="url(#p9eee44e0a9)" d="M 267.942606 190.545805 
L 267.942606 173.914772 
" style="fill:none;stroke:#808080;"/>
    <path clip-path="url(#p9eee44e0a9)" d="M 213.838926 272.456424 
L 213.838926 259.882779 
" style="fill:none;stroke:#808080;"/>
    <path clip-path="url(#p9eee44e0a9)" d="M 201.250446 282.081191 
L 201.250446 270.794467 
" style="fill:none;stroke:#808080;"/>
    <path clip-path="url(#p9eee44e0a9)" d="M 254.282766 191.341008 
L 254.282766 175.834159 
" style="fill:none;stroke:#808080;"/>
    <path clip-path="url(#p9eee44e0a9)" d="M 199.107726 298.580428 
L 199.107726 286.426222 
" style="fill:none;stroke:#808080;"/>
    <path clip-path="url(#p9eee44e0a9)" d="M 211.428366 262.408907 
L 211.428366 247.716918 
" style="fill:none;stroke:#808080;"/>
    <path clip-path="url(#p9eee44e0a9)" d="M 213.571086 269.032924 
L 213.571086 255.85363 
" style="fill:none;stroke:#808080;"/>
    <path clip-path="url(#p9eee44e0a9)" d="M 257.229006 194.524843 
L 257.229006 182.634926 
" style="fill:none;stroke:#808080;"/>
    <path clip-path="url(#p9eee44e0a9)" d="M 179.823246 296.345144 
L 179.823246 284.107981 
" style="fill:none;stroke:#808080;"/>
    <path clip-path="url(#p9eee44e0a9)" d="M 238.212366 219.758072 
L 238.212366 205.558071 
" style="fill:none;stroke:#808080;"/>
    <path clip-path="url(#p9eee44e0a9)" d="M 342.134286 114.042629 
L 342.134286 99.475504 
" style="fill:none;stroke:#808080;"/>
    <path clip-path="url(#p9eee44e0a9)" d="M 338.652366 116.057451 
L 338.652366 103.43382 
" style="fill:none;stroke:#808080;"/>
    <path clip-path="url(#p9eee44e0a9)" d="M 313.207566 134.545349 
L 313.207566 119.821972 
" style="fill:none;stroke:#808080;"/>
   </g>
   <g id="LineCollection_3">
    <path clip-path="url(#p9eee44e0a9)" d="M 255.086286 222.706312 
L 261.514446 222.706312 
" style="fill:none;stroke:#808080;"/>
    <path clip-path="url(#p9eee44e0a9)" d="M 211.428366 304.70271 
L 216.249486 304.70271 
" style="fill:none;stroke:#808080;"/>
    <path clip-path="url(#p9eee44e0a9)" d="M 205.535886 295.119706 
L 206.607246 295.119706 
" style="fill:none;stroke:#808080;"/>
    <path clip-path="url(#p9eee44e0a9)" d="M 234.462606 277.56392 
L 235.533966 277.56392 
" style="fill:none;stroke:#808080;"/>
    <path clip-path="url(#p9eee44e0a9)" d="M 214.106766 258.555388 
L 217.320846 258.555388 
" style="fill:none;stroke:#808080;"/>
    <path clip-path="url(#p9eee44e0a9)" d="M 234.730446 235.780942 
L 237.408846 235.780942 
" style="fill:none;stroke:#808080;"/>
    <path clip-path="url(#p9eee44e0a9)" d="M 194.286606 323.239491 
L 195.893646 323.239491 
" style="fill:none;stroke:#808080;"/>
    <path clip-path="url(#p9eee44e0a9)" d="M 252.140046 246.074221 
L 252.675726 246.074221 
" style="fill:none;stroke:#808080;"/>
    <path clip-path="url(#p9eee44e0a9)" d="M 256.693326 144.08466 
L 260.978766 144.08466 
" style="fill:none;stroke:#808080;"/>
    <path clip-path="url(#p9eee44e0a9)" d="M 336.241806 135.827199 
L 338.384526 135.827199 
" style="fill:none;stroke:#808080;"/>
    <path clip-path="url(#p9eee44e0a9)" d="M 360.079566 120.528116 
L 362.222286 120.528116 
" style="fill:none;stroke:#808080;"/>
    <path clip-path="url(#p9eee44e0a9)" d="M 246.783246 170.274543 
L 248.390286 170.274543 
" style="fill:none;stroke:#808080;"/>
    <path clip-path="url(#p9eee44e0a9)" d="M 273.299406 182.178961 
L 273.835086 182.178961 
" style="fill:none;stroke:#808080;"/>
    <path clip-path="url(#p9eee44e0a9)" d="M 248.925966 173.417997 
L 255.889806 173.417997 
" style="fill:none;stroke:#808080;"/>
    <path clip-path="url(#p9eee44e0a9)" d="M 247.318926 166.784575 
L 249.997326 166.784575 
" style="fill:none;stroke:#808080;"/>
    <path clip-path="url(#p9eee44e0a9)" d="M 265.532046 164.671923 
L 266.067726 164.671923 
" style="fill:none;stroke:#808080;"/>
    <path clip-path="url(#p9eee44e0a9)" d="M 250.265166 196.386708 
L 250.800846 196.386708 
" style="fill:none;stroke:#808080;"/>
    <path clip-path="url(#p9eee44e0a9)" d="M 275.174286 191.043188 
L 281.066766 191.043188 
" style="fill:none;stroke:#808080;"/>
    <path clip-path="url(#p9eee44e0a9)" d="M 362.490126 107.212791 
L 390.881166 107.212791 
" style="fill:none;stroke:#808080;"/>
   </g>
   <g id="LineCollection_4">
    <path clip-path="url(#p9eee44e0a9)" d="M 258.300366 231.744277 
L 258.300366 213.668347 
" style="fill:none;stroke:#808080;"/>
    <path clip-path="url(#p9eee44e0a9)" d="M 213.838926 309.846034 
L 213.838926 299.559385 
" style="fill:none;stroke:#808080;"/>
    <path clip-path="url(#p9eee44e0a9)" d="M 206.071566 301.903773 
L 206.071566 288.335639 
" style="fill:none;stroke:#808080;"/>
    <path clip-path="url(#p9eee44e0a9)" d="M 234.998286 284.240595 
L 234.998286 270.887246 
" style="fill:none;stroke:#808080;"/>
    <path clip-path="url(#p9eee44e0a9)" d="M 215.713806 265.068093 
L 215.713806 252.042682 
" style="fill:none;stroke:#808080;"/>
    <path clip-path="url(#p9eee44e0a9)" d="M 236.069646 241.840711 
L 236.069646 229.721173 
" style="fill:none;stroke:#808080;"/>
    <path clip-path="url(#p9eee44e0a9)" d="M 195.090126 329.826903 
L 195.090126 316.65208 
" style="fill:none;stroke:#808080;"/>
    <path clip-path="url(#p9eee44e0a9)" d="M 252.407886 252.677249 
L 252.407886 239.471193 
" style="fill:none;stroke:#808080;"/>
    <path clip-path="url(#p9eee44e0a9)" d="M 258.836046 149.749978 
L 258.836046 138.419343 
" style="fill:none;stroke:#808080;"/>
    <path clip-path="url(#p9eee44e0a9)" d="M 337.313166 141.611935 
L 337.313166 130.042463 
" style="fill:none;stroke:#808080;"/>
    <path clip-path="url(#p9eee44e0a9)" d="M 361.150926 126.435037 
L 361.150926 114.621194 
" style="fill:none;stroke:#808080;"/>
    <path clip-path="url(#p9eee44e0a9)" d="M 247.586766 176.411074 
L 247.586766 164.138012 
" style="fill:none;stroke:#808080;"/>
    <path clip-path="url(#p9eee44e0a9)" d="M 273.567246 188.489669 
L 273.567246 175.868254 
" style="fill:none;stroke:#808080;"/>
    <path clip-path="url(#p9eee44e0a9)" d="M 252.407886 180.248912 
L 252.407886 166.587081 
" style="fill:none;stroke:#808080;"/>
    <path clip-path="url(#p9eee44e0a9)" d="M 248.658126 172.806985 
L 248.658126 160.762165 
" style="fill:none;stroke:#808080;"/>
    <path clip-path="url(#p9eee44e0a9)" d="M 265.799886 171.130154 
L 265.799886 158.213692 
" style="fill:none;stroke:#808080;"/>
    <path clip-path="url(#p9eee44e0a9)" d="M 250.533006 202.639857 
L 250.533006 190.13356 
" style="fill:none;stroke:#808080;"/>
    <path clip-path="url(#p9eee44e0a9)" d="M 278.120526 198.847813 
L 278.120526 183.238563 
" style="fill:none;stroke:#808080;"/>
    <path clip-path="url(#p9eee44e0a9)" d="M 376.685646 114.020536 
L 376.685646 100.405047 
" style="fill:none;stroke:#808080;"/>
   </g>
   <g id="LineCollection_5">
    <path clip-path="url(#p9eee44e0a9)" d="M 251.068686 223.362066 
L 253.747086 223.362066 
" style="fill:none;stroke:#808080;"/>
    <path clip-path="url(#p9eee44e0a9)" d="M 239.819406 230.460141 
L 252.140046 230.460141 
" style="fill:none;stroke:#808080;"/>
    <path clip-path="url(#p9eee44e0a9)" d="M 252.140046 221.558401 
L 253.211406 221.558401 
" style="fill:none;stroke:#808080;"/>
    <path clip-path="url(#p9eee44e0a9)" d="M 292.583886 250.144623 
L 309.725646 250.144623 
" style="fill:none;stroke:#808080;"/>
    <path clip-path="url(#p9eee44e0a9)" d="M 345.080526 97.09774 
L 354.187086 97.09774 
" style="fill:none;stroke:#808080;"/>
    <path clip-path="url(#p9eee44e0a9)" d="M 246.515406 211.450491 
L 247.051086 211.450491 
" style="fill:none;stroke:#808080;"/>
    <path clip-path="url(#p9eee44e0a9)" d="M 219.463566 237.031478 
L 222.677646 237.031478 
" style="fill:none;stroke:#808080;"/>
    <path clip-path="url(#p9eee44e0a9)" d="M 296.601486 144.667267 
L 297.137166 144.667267 
" style="fill:none;stroke:#808080;"/>
    <path clip-path="url(#p9eee44e0a9)" d="M 264.996366 184.0332 
L 265.532046 184.0332 
" style="fill:none;stroke:#808080;"/>
    <path clip-path="url(#p9eee44e0a9)" d="M 267.406926 183.503352 
L 268.478286 183.503352 
" style="fill:none;stroke:#808080;"/>
    <path clip-path="url(#p9eee44e0a9)" d="M 263.925006 189.272167 
L 265.532046 189.272167 
" style="fill:none;stroke:#808080;"/>
   </g>
   <g id="LineCollection_6">
    <path clip-path="url(#p9eee44e0a9)" d="M 252.407886 229.716172 
L 252.407886 217.007961 
" style="fill:none;stroke:#808080;"/>
    <path clip-path="url(#p9eee44e0a9)" d="M 245.979726 237.964354 
L 245.979726 222.955928 
" style="fill:none;stroke:#808080;"/>
    <path clip-path="url(#p9eee44e0a9)" d="M 252.675726 227.949168 
L 252.675726 215.167634 
" style="fill:none;stroke:#808080;"/>
    <path clip-path="url(#p9eee44e0a9)" d="M 301.154766 257.210207 
L 301.154766 243.079039 
" style="fill:none;stroke:#808080;"/>
    <path clip-path="url(#p9eee44e0a9)" d="M 349.633806 103.429 
L 349.633806 90.766479 
" style="fill:none;stroke:#808080;"/>
    <path clip-path="url(#p9eee44e0a9)" d="M 246.783246 218.279225 
L 246.783246 204.621757 
" style="fill:none;stroke:#808080;"/>
    <path clip-path="url(#p9eee44e0a9)" d="M 221.070606 246.620764 
L 221.070606 227.442192 
" style="fill:none;stroke:#808080;"/>
    <path clip-path="url(#p9eee44e0a9)" d="M 296.869326 151.297114 
L 296.869326 138.03742 
" style="fill:none;stroke:#808080;"/>
    <path clip-path="url(#p9eee44e0a9)" d="M 265.264206 190.545681 
L 265.264206 177.520718 
" style="fill:none;stroke:#808080;"/>
    <path clip-path="url(#p9eee44e0a9)" d="M 267.942606 189.743198 
L 267.942606 177.263506 
" style="fill:none;stroke:#808080;"/>
    <path clip-path="url(#p9eee44e0a9)" d="M 264.728526 196.752032 
L 264.728526 181.792303 
" style="fill:none;stroke:#808080;"/>
   </g>
   <g id="line2d_34">
    <defs>
     <path d="M 0 4 
C 1.060812 4 2.078319 3.578535 2.828427 2.828427 
C 3.578535 2.078319 4 1.060812 4 0 
C 4 -1.060812 3.578535 -2.078319 2.828427 -2.828427 
C 2.078319 -3.578535 1.060812 -4 0 -4 
C -1.060812 -4 -2.078319 -3.578535 -2.828427 -2.828427 
C -3.578535 -2.078319 -4 -1.060812 -4 0 
C -4 1.060812 -3.578535 2.078319 -2.828427 2.828427 
C -2.078319 3.578535 -1.060812 4 0 4 
z
" id="ma88c62332e" style="stroke:#000000;stroke-width:0.2;"/>
    </defs>
    <g clip-path="url(#p9eee44e0a9)">
     <use style="fill:#ff8c00;stroke:#000000;stroke-width:0.2;" x="267.942606" xlink:href="#ma88c62332e" y="182.230288"/>
     <use style="fill:#ff8c00;stroke:#000000;stroke-width:0.2;" x="213.838926" xlink:href="#ma88c62332e" y="266.169601"/>
     <use style="fill:#ff8c00;stroke:#000000;stroke-width:0.2;" x="201.250446" xlink:href="#ma88c62332e" y="276.437829"/>
     <use style="fill:#ff8c00;stroke:#000000;stroke-width:0.2;" x="254.282766" xlink:href="#ma88c62332e" y="183.587583"/>
     <use style="fill:#ff8c00;stroke:#000000;stroke-width:0.2;" x="199.107726" xlink:href="#ma88c62332e" y="292.503325"/>
     <use style="fill:#ff8c00;stroke:#000000;stroke-width:0.2;" x="211.428366" xlink:href="#ma88c62332e" y="255.062912"/>
     <use style="fill:#ff8c00;stroke:#000000;stroke-width:0.2;" x="213.571086" xlink:href="#ma88c62332e" y="262.443277"/>
     <use style="fill:#ff8c00;stroke:#000000;stroke-width:0.2;" x="257.229006" xlink:href="#ma88c62332e" y="188.579884"/>
     <use style="fill:#ff8c00;stroke:#000000;stroke-width:0.2;" x="179.823246" xlink:href="#ma88c62332e" y="290.226563"/>
     <use style="fill:#ff8c00;stroke:#000000;stroke-width:0.2;" x="238.212366" xlink:href="#ma88c62332e" y="212.658072"/>
     <use style="fill:#ff8c00;stroke:#000000;stroke-width:0.2;" x="342.134286" xlink:href="#ma88c62332e" y="106.759066"/>
     <use style="fill:#ff8c00;stroke:#000000;stroke-width:0.2;" x="338.652366" xlink:href="#ma88c62332e" y="109.745635"/>
     <use style="fill:#ff8c00;stroke:#000000;stroke-width:0.2;" x="313.207566" xlink:href="#ma88c62332e" y="127.18366"/>
    </g>
   </g>
   <g id="line2d_35">
    <defs>
     <path d="M 0 4 
C 1.060812 4 2.078319 3.578535 2.828427 2.828427 
C 3.578535 2.078319 4 1.060812 4 0 
C 4 -1.060812 3.578535 -2.078319 2.828427 -2.828427 
C 2.078319 -3.578535 1.060812 -4 0 -4 
C -1.060812 -4 -2.078319 -3.578535 -2.828427 -2.828427 
C -3.578535 -2.078319 -4 -1.060812 -4 0 
C -4 1.060812 -3.578535 2.078319 -2.828427 2.828427 
C -2.078319 3.578535 -1.060812 4 0 4 
z
" id="mc25247bffa" style="stroke:#000000;stroke-width:0.2;"/>
    </defs>
    <g clip-path="url(#p9eee44e0a9)">
     <use style="fill:#800080;stroke:#000000;stroke-width:0.2;" x="258.300366" xlink:href="#mc25247bffa" y="222.706312"/>
     <use style="fill:#800080;stroke:#000000;stroke-width:0.2;" x="213.838926" xlink:href="#mc25247bffa" y="304.70271"/>
     <use style="fill:#800080;stroke:#000000;stroke-width:0.2;" x="206.071566" xlink:href="#mc25247bffa" y="295.119706"/>
     <use style="fill:#800080;stroke:#000000;stroke-width:0.2;" x="234.998286" xlink:href="#mc25247bffa" y="277.56392"/>
     <use style="fill:#800080;stroke:#000000;stroke-width:0.2;" x="215.713806" xlink:href="#mc25247bffa" y="258.555388"/>
     <use style="fill:#800080;stroke:#000000;stroke-width:0.2;" x="236.069646" xlink:href="#mc25247bffa" y="235.780942"/>
     <use style="fill:#800080;stroke:#000000;stroke-width:0.2;" x="195.090126" xlink:href="#mc25247bffa" y="323.239491"/>
     <use style="fill:#800080;stroke:#000000;stroke-width:0.2;" x="252.407886" xlink:href="#mc25247bffa" y="246.074221"/>
     <use style="fill:#800080;stroke:#000000;stroke-width:0.2;" x="258.836046" xlink:href="#mc25247bffa" y="144.08466"/>
     <use style="fill:#800080;stroke:#000000;stroke-width:0.2;" x="337.313166" xlink:href="#mc25247bffa" y="135.827199"/>
     <use style="fill:#800080;stroke:#000000;stroke-width:0.2;" x="361.150926" xlink:href="#mc25247bffa" y="120.528116"/>
     <use style="fill:#800080;stroke:#000000;stroke-width:0.2;" x="247.586766" xlink:href="#mc25247bffa" y="170.274543"/>
     <use style="fill:#800080;stroke:#000000;stroke-width:0.2;" x="273.567246" xlink:href="#mc25247bffa" y="182.178961"/>
     <use style="fill:#800080;stroke:#000000;stroke-width:0.2;" x="252.407886" xlink:href="#mc25247bffa" y="173.417997"/>
     <use style="fill:#800080;stroke:#000000;stroke-width:0.2;" x="248.658126" xlink:href="#mc25247bffa" y="166.784575"/>
     <use style="fill:#800080;stroke:#000000;stroke-width:0.2;" x="265.799886" xlink:href="#mc25247bffa" y="164.671923"/>
     <use style="fill:#800080;stroke:#000000;stroke-width:0.2;" x="250.533006" xlink:href="#mc25247bffa" y="196.386708"/>
     <use style="fill:#800080;stroke:#000000;stroke-width:0.2;" x="278.120526" xlink:href="#mc25247bffa" y="191.043188"/>
     <use style="fill:#800080;stroke:#000000;stroke-width:0.2;" x="376.685646" xlink:href="#mc25247bffa" y="107.212791"/>
    </g>
   </g>
   <g id="line2d_36">
    <defs>
     <path d="M 0 4 
C 1.060812 4 2.078319 3.578535 2.828427 2.828427 
C 3.578535 2.078319 4 1.060812 4 0 
C 4 -1.060812 3.578535 -2.078319 2.828427 -2.828427 
C 2.078319 -3.578535 1.060812 -4 0 -4 
C -1.060812 -4 -2.078319 -3.578535 -2.828427 -2.828427 
C -3.578535 -2.078319 -4 -1.060812 -4 0 
C -4 1.060812 -3.578535 2.078319 -2.828427 2.828427 
C -2.078319 3.578535 -1.060812 4 0 4 
z
" id="m803ad7de3e" style="stroke:#000000;stroke-width:0.2;"/>
    </defs>
    <g clip-path="url(#p9eee44e0a9)">
     <use style="fill:#6495ed;stroke:#000000;stroke-width:0.2;" x="252.407886" xlink:href="#m803ad7de3e" y="223.362066"/>
     <use style="fill:#6495ed;stroke:#000000;stroke-width:0.2;" x="245.979726" xlink:href="#m803ad7de3e" y="230.460141"/>
     <use style="fill:#6495ed;stroke:#000000;stroke-width:0.2;" x="252.675726" xlink:href="#m803ad7de3e" y="221.558401"/>
     <use style="fill:#6495ed;stroke:#000000;stroke-width:0.2;" x="301.154766" xlink:href="#m803ad7de3e" y="250.144623"/>
     <use style="fill:#6495ed;stroke:#000000;stroke-width:0.2;" x="349.633806" xlink:href="#m803ad7de3e" y="97.09774"/>
     <use style="fill:#6495ed;stroke:#000000;stroke-width:0.2;" x="246.783246" xlink:href="#m803ad7de3e" y="211.450491"/>
     <use style="fill:#6495ed;stroke:#000000;stroke-width:0.2;" x="221.070606" xlink:href="#m803ad7de3e" y="237.031478"/>
     <use style="fill:#6495ed;stroke:#000000;stroke-width:0.2;" x="296.869326" xlink:href="#m803ad7de3e" y="144.667267"/>
     <use style="fill:#6495ed;stroke:#000000;stroke-width:0.2;" x="265.264206" xlink:href="#m803ad7de3e" y="184.0332"/>
     <use style="fill:#6495ed;stroke:#000000;stroke-width:0.2;" x="267.942606" xlink:href="#m803ad7de3e" y="183.503352"/>
     <use style="fill:#6495ed;stroke:#000000;stroke-width:0.2;" x="264.728526" xlink:href="#m803ad7de3e" y="189.272167"/>
    </g>
   </g>
   <g id="patch_3">
    <path d="M 58.223886 333.36 
L 58.223886 7.2 
" style="fill:none;stroke:#cccccc;stroke-linecap:square;stroke-linejoin:miter;"/>
   </g>
   <g id="patch_4">
    <path d="M 459.983886 333.36 
L 459.983886 7.2 
" style="fill:none;stroke:#cccccc;stroke-linecap:square;stroke-linejoin:miter;"/>
   </g>
   <g id="patch_5">
    <path d="M 58.223886 333.36 
L 459.983886 333.36 
" style="fill:none;stroke:#cccccc;stroke-linecap:square;stroke-linejoin:miter;"/>
   </g>
   <g id="patch_6">
    <path d="M 58.223886 7.2 
L 459.983886 7.2 
" style="fill:none;stroke:#cccccc;stroke-linecap:square;stroke-linejoin:miter;"/>
   </g>
   <g id="text_19">
    <!-- R$^2$ = 0.96 -->
    <defs>
     <path d="M 18.59375 31.78125 
L 42.59375 31.78125 
C 50.90625 31.78125 54.59375 27.71875 54.59375 18.546875 
L 54.5 11.90625 
C 54.5 7.3125 55.296875 2.828125 56.59375 -0.21875 
L 67.90625 -0.21875 
L 67.90625 2.125 
C 64.40625 4.5625 63.703125 7.21875 63.5 17.078125 
C 63.40625 29.265625 61.5 32.9375 53.59375 36.390625 
C 61.796875 40.359375 65.09375 45.40625 65.09375 53.65625 
C 65.09375 66.140625 57.203125 73 42.90625 73 
L 9.296875 73 
L 9.296875 -0.21875 
L 18.59375 -0.21875 
z
M 18.59375 40 
L 18.59375 64.78125 
L 41.09375 64.78125 
C 46.296875 64.78125 49.296875 64 51.59375 62.015625 
C 54.09375 59.9375 55.40625 56.6875 55.40625 52.34375 
C 55.40625 43.84375 51 40 41.09375 40 
z
" id="Nimbus_Sans_L_Regular-82"/>
     <path d="M 53.40625 35.015625 
L 5 35.015625 
L 5 28 
L 53.40625 28 
z
M 53.40625 18 
L 5 18 
L 5 11 
L 53.40625 11 
z
" id="Nimbus_Sans_L_Regular-61"/>
     <path d="M 5.296875 16.625 
C 7 4.9375 14.59375 -2 25.40625 -2 
C 33.203125 -2 40.296875 1.78125 44.40625 8.0625 
C 48.90625 14.9375 50.90625 23.625 50.90625 36.484375 
C 50.90625 48.359375 49.09375 55.9375 44.90625 62.21875 
C 41 67.921875 34.796875 71 27 71 
C 13.5 71 3.796875 61.078125 3.796875 47.296875 
C 3.796875 34.21875 12.796875 25 25.59375 25 
C 32.296875 25 37.203125 27.40625 41.796875 32.90625 
C 41.703125 15.484375 36.09375 5.8125 26 5.8125 
C 19.796875 5.8125 15.5 9.75 14.09375 16.625 
z
M 26.90625 63.296875 
C 35.09375 63.296875 41.296875 56.59375 41.296875 47.515625 
C 41.296875 38.921875 35.203125 32.8125 26.59375 32.8125 
C 18.09375 32.8125 12.796875 38.625 12.796875 48 
C 12.796875 56.875 18.796875 63.296875 26.90625 63.296875 
z
" id="Nimbus_Sans_L_Regular-57"/>
    </defs>
    <g style="fill:#ff8c00;" transform="translate(396.910163 327.866022)scale(0.14 -0.14)">
     <use transform="scale(0.996264)" xlink:href="#Nimbus_Sans_L_Regular-82"/>
     <use transform="translate(71.929985 36.153639)scale(0.697382)" xlink:href="#Nimbus_Sans_L_Regular-50"/>
     <use transform="translate(138.897287 0)scale(0.996264)" xlink:href="#Nimbus_Sans_L_Regular-61"/>
     <use transform="translate(224.773949 0)scale(0.996264)" xlink:href="#Nimbus_Sans_L_Regular-48"/>
     <use transform="translate(280.165626 0)scale(0.996264)" xlink:href="#Nimbus_Sans_L_Regular-46"/>
     <use transform="translate(307.860796 0)scale(0.996264)" xlink:href="#Nimbus_Sans_L_Regular-57"/>
     <use transform="translate(363.252473 0)scale(0.996264)" xlink:href="#Nimbus_Sans_L_Regular-54"/>
    </g>
   </g>
   <g id="text_20">
    <!-- R$^2$ = 0.69 -->
    <g style="fill:#800080;" transform="translate(396.910163 311.558022)scale(0.14 -0.14)">
     <use transform="scale(0.996264)" xlink:href="#Nimbus_Sans_L_Regular-82"/>
     <use transform="translate(71.929985 36.153639)scale(0.697382)" xlink:href="#Nimbus_Sans_L_Regular-50"/>
     <use transform="translate(138.897287 0)scale(0.996264)" xlink:href="#Nimbus_Sans_L_Regular-61"/>
     <use transform="translate(224.773949 0)scale(0.996264)" xlink:href="#Nimbus_Sans_L_Regular-48"/>
     <use transform="translate(280.165626 0)scale(0.996264)" xlink:href="#Nimbus_Sans_L_Regular-46"/>
     <use transform="translate(307.860796 0)scale(0.996264)" xlink:href="#Nimbus_Sans_L_Regular-54"/>
     <use transform="translate(363.252473 0)scale(0.996264)" xlink:href="#Nimbus_Sans_L_Regular-57"/>
    </g>
   </g>
   <g id="text_21">
    <!-- R$^2$ = 0.54 -->
    <defs>
     <path d="M 47.59375 71 
L 11 71 
L 5.703125 32.59375 
L 13.796875 32.59375 
C 17.90625 37.484375 21.296875 39.1875 26.796875 39.1875 
C 36.296875 39.1875 42.296875 32.6875 42.296875 22.203125 
C 42.296875 12 36.40625 5.8125 26.796875 5.8125 
C 19.09375 5.8125 14.40625 9.703125 12.296875 17.703125 
L 3.5 17.703125 
C 4.703125 11.90625 5.703125 9.09375 7.796875 6.484375 
C 11.796875 1.09375 19 -2 27 -2 
C 41.296875 -2 51.296875 8.390625 51.296875 23.390625 
C 51.296875 37.40625 42 47 28.40625 47 
C 23.40625 47 19.40625 45.703125 15.296875 42.6875 
L 18.09375 62.296875 
L 47.59375 62.296875 
z
" id="Nimbus_Sans_L_Regular-53"/>
    </defs>
    <g style="fill:#6495ed;" transform="translate(396.910163 295.250022)scale(0.14 -0.14)">
     <use transform="scale(0.996264)" xlink:href="#Nimbus_Sans_L_Regular-82"/>
     <use transform="translate(71.929985 36.153639)scale(0.697382)" xlink:href="#Nimbus_Sans_L_Regular-50"/>
     <use transform="translate(138.897287 0)scale(0.996264)" xlink:href="#Nimbus_Sans_L_Regular-61"/>
     <use transform="translate(224.773949 0)scale(0.996264)" xlink:href="#Nimbus_Sans_L_Regular-48"/>
     <use transform="translate(280.165626 0)scale(0.996264)" xlink:href="#Nimbus_Sans_L_Regular-46"/>
     <use transform="translate(307.860796 0)scale(0.996264)" xlink:href="#Nimbus_Sans_L_Regular-53"/>
     <use transform="translate(363.252473 0)scale(0.996264)" xlink:href="#Nimbus_Sans_L_Regular-52"/>
    </g>
   </g>
   <g id="text_22">
    <g id="patch_7">
     <path d="M 62.181486 48.345223 
L 227.308094 48.345223 
L 227.308094 10.4016 
L 62.181486 10.4016 
z
" style="fill:#ffffff;stroke:#ffffff;stroke-linejoin:miter;stroke-width:0.39;"/>
    </g>
    <!-- RMSE = 2.21 [1.77, 2.65] -->
    <defs>
     <path d="M 46.796875 -0.03125 
L 67.296875 61.171875 
L 67.296875 -0.03125 
L 76.09375 -0.03125 
L 76.09375 73 
L 63.203125 73 
L 42 9.390625 
L 20.40625 73 
L 7.5 73 
L 7.5 -0.03125 
L 16.296875 -0.03125 
L 16.296875 61.171875 
L 37 -0.03125 
z
" id="Nimbus_Sans_L_Regular-77"/>
     <path d="M 59.59375 52.109375 
C 59.5 66.484375 49.703125 74.8125 32.90625 74.8125 
C 16.90625 74.8125 7 66.5625 7 53.28125 
C 7 44.328125 11.703125 38.703125 21.296875 36.1875 
L 39.40625 31.359375 
C 48.59375 28.9375 52.796875 25.21875 52.796875 19.484375 
C 52.796875 15.546875 50.703125 11.53125 47.59375 9.328125 
C 44.703125 7.3125 40.09375 6.203125 34.203125 6.203125 
C 26.296875 6.203125 20.90625 8.125 17.40625 12.34375 
C 14.703125 15.5625 13.5 19.09375 13.59375 23.609375 
L 4.796875 23.609375 
C 4.90625 16.890625 6.203125 12.46875 9.09375 8.4375 
C 14.09375 1.609375 22.5 -2 33.59375 -2 
C 42.296875 -2 49.40625 0.015625 54.09375 3.625 
C 59 7.546875 62.09375 14.078125 62.09375 20.421875 
C 62.09375 29.46875 56.5 36.109375 46.59375 38.828125 
L 28.296875 43.765625 
C 19.5 46.171875 16.296875 48.984375 16.296875 54.625 
C 16.296875 62.0625 22.796875 67 32.59375 67 
C 44.203125 67 50.703125 61.671875 50.796875 52.109375 
z
" id="Nimbus_Sans_L_Regular-83"/>
     <path d="M 25 73 
L 6.40625 73 
L 6.40625 -21.203125 
L 25 -21.203125 
L 25 -14 
L 14.703125 -14 
L 14.703125 65.78125 
L 25 65.78125 
z
" id="Nimbus_Sans_L_Regular-91"/>
     <path d="M 52 70.703125 
L 4.59375 70.703125 
L 4.59375 62 
L 42.90625 62 
C 26 37.78125 19.09375 22.90625 13.796875 -0.5 
L 23.203125 -0.5 
C 27.09375 22.296875 36 41.890625 52 63.296875 
z
" id="Nimbus_Sans_L_Regular-55"/>
     <path d="M 8.703125 10 
L 8.703125 -0.421875 
L 14.703125 -0.421875 
L 14.703125 -2.21875 
C 14.703125 -9.109375 13.40625 -11.09375 8.703125 -11.09375 
L 8.703125 -15 
C 15.703125 -15 19.203125 -10.53125 19.203125 -1.96875 
L 19.203125 10 
z
" id="Nimbus_Sans_L_Regular-44"/>
     <path d="M 2.296875 -21.203125 
L 20.90625 -21.203125 
L 20.90625 73 
L 2.296875 73 
L 2.296875 65.78125 
L 12.59375 65.78125 
L 12.59375 -14 
L 2.296875 -14 
z
" id="Nimbus_Sans_L_Regular-93"/>
    </defs>
    <g style="fill:#262626;" transform="translate(66.241486 24.399248)scale(0.14 -0.14)">
     <use transform="scale(0.996264)" xlink:href="#Nimbus_Sans_L_Regular-82"/>
     <use transform="translate(71.929985 0)scale(0.996264)" xlink:href="#Nimbus_Sans_L_Regular-77"/>
     <use transform="translate(154.918415 0)scale(0.996264)" xlink:href="#Nimbus_Sans_L_Regular-83"/>
     <use transform="translate(221.368446 0)scale(0.996264)" xlink:href="#Nimbus_Sans_L_Regular-69"/>
     <use transform="translate(315.513647 0)scale(0.996264)" xlink:href="#Nimbus_Sans_L_Regular-61"/>
     <use transform="translate(401.390309 0)scale(0.996264)" xlink:href="#Nimbus_Sans_L_Regular-50"/>
     <use transform="translate(456.781986 0)scale(0.996264)" xlink:href="#Nimbus_Sans_L_Regular-46"/>
     <use transform="translate(484.477156 0)scale(0.996264)" xlink:href="#Nimbus_Sans_L_Regular-50"/>
     <use transform="translate(539.868833 0)scale(0.996264)" xlink:href="#Nimbus_Sans_L_Regular-49"/>
     <use transform="translate(622.95568 0)scale(0.996264)" xlink:href="#Nimbus_Sans_L_Regular-91"/>
     <use transform="translate(650.650849 0)scale(0.996264)" xlink:href="#Nimbus_Sans_L_Regular-49"/>
     <use transform="translate(706.042526 0)scale(0.996264)" xlink:href="#Nimbus_Sans_L_Regular-46"/>
     <use transform="translate(733.737696 0)scale(0.996264)" xlink:href="#Nimbus_Sans_L_Regular-55"/>
     <use transform="translate(789.129373 0)scale(0.996264)" xlink:href="#Nimbus_Sans_L_Regular-55"/>
     <use transform="translate(844.52105 0)scale(0.996264)" xlink:href="#Nimbus_Sans_L_Regular-44"/>
     <use transform="translate(899.911389 0)scale(0.996264)" xlink:href="#Nimbus_Sans_L_Regular-50"/>
     <use transform="translate(955.303066 0)scale(0.996264)" xlink:href="#Nimbus_Sans_L_Regular-46"/>
     <use transform="translate(982.998235 0)scale(0.996264)" xlink:href="#Nimbus_Sans_L_Regular-54"/>
     <use transform="translate(1038.389912 0)scale(0.996264)" xlink:href="#Nimbus_Sans_L_Regular-53"/>
     <use transform="translate(1093.781589 0)scale(0.996264)" xlink:href="#Nimbus_Sans_L_Regular-93"/>
    </g>
    <!-- R$^2$ = 0.75 [0.58, 0.87] -->
    <g style="fill:#262626;" transform="translate(66.241486 41.314445)scale(0.14 -0.14)">
     <use transform="scale(0.996264)" xlink:href="#Nimbus_Sans_L_Regular-82"/>
     <use transform="translate(71.929985 36.153639)scale(0.697382)" xlink:href="#Nimbus_Sans_L_Regular-50"/>
     <use transform="translate(138.897287 0)scale(0.996264)" xlink:href="#Nimbus_Sans_L_Regular-61"/>
     <use transform="translate(224.773949 0)scale(0.996264)" xlink:href="#Nimbus_Sans_L_Regular-48"/>
     <use transform="translate(280.165626 0)scale(0.996264)" xlink:href="#Nimbus_Sans_L_Regular-46"/>
     <use transform="translate(307.860796 0)scale(0.996264)" xlink:href="#Nimbus_Sans_L_Regular-55"/>
     <use transform="translate(363.252473 0)scale(0.996264)" xlink:href="#Nimbus_Sans_L_Regular-53"/>
     <use transform="translate(446.33932 0)scale(0.996264)" xlink:href="#Nimbus_Sans_L_Regular-91"/>
     <use transform="translate(474.034489 0)scale(0.996264)" xlink:href="#Nimbus_Sans_L_Regular-48"/>
     <use transform="translate(529.426166 0)scale(0.996264)" xlink:href="#Nimbus_Sans_L_Regular-46"/>
     <use transform="translate(557.121336 0)scale(0.996264)" xlink:href="#Nimbus_Sans_L_Regular-53"/>
     <use transform="translate(612.513013 0)scale(0.996264)" xlink:href="#Nimbus_Sans_L_Regular-56"/>
     <use transform="translate(667.90469 0)scale(0.996264)" xlink:href="#Nimbus_Sans_L_Regular-44"/>
     <use transform="translate(723.295029 0)scale(0.996264)" xlink:href="#Nimbus_Sans_L_Regular-48"/>
     <use transform="translate(778.686706 0)scale(0.996264)" xlink:href="#Nimbus_Sans_L_Regular-46"/>
     <use transform="translate(806.381875 0)scale(0.996264)" xlink:href="#Nimbus_Sans_L_Regular-56"/>
     <use transform="translate(861.773552 0)scale(0.996264)" xlink:href="#Nimbus_Sans_L_Regular-55"/>
     <use transform="translate(917.165229 0)scale(0.996264)" xlink:href="#Nimbus_Sans_L_Regular-93"/>
    </g>
   </g>
  </g>
 </g>
 <defs>
  <clipPath id="p9eee44e0a9">
   <rect height="326.16" width="401.76" x="58.223886" y="7.2"/>
  </clipPath>
 </defs>
</svg>
