<?xml version="1.0" encoding="utf-8" standalone="no"?>
<!DOCTYPE svg PUBLIC "-//W3C//DTD SVG 1.1//EN"
  "http://www.w3.org/Graphics/SVG/1.1/DTD/svg11.dtd">
<!-- Created with matplotlib (http://matplotlib.org/) -->
<svg height="383pt" version="1.1" viewBox="0 0 463 383" width="463pt" xmlns="http://www.w3.org/2000/svg" xmlns:xlink="http://www.w3.org/1999/xlink">
 <defs>
  <style type="text/css">
*{stroke-linecap:butt;stroke-linejoin:round;}
  </style>
 </defs>
 <g id="figure_1">
  <g id="patch_1">
   <path d="M 0 383.708983 
L 463.583428 383.708983 
L 463.583428 0 
L 0 0 
z
" style="fill:#ffffff;"/>
  </g>
  <g id="axes_1">
   <g id="patch_2">
    <path d="M 51.022969 337.973908 
L 452.782969 337.973908 
L 452.782969 11.813908 
L 51.022969 11.813908 
z
" style="fill:#ffffff;"/>
   </g>
   <g id="line2d_1">
    <path clip-path="url(#p773bd77521)" d="M -1 380.207609 
L 464.583428 2.233966 
" style="fill:none;stroke:#4c4c4c;stroke-linecap:round;stroke-width:0.5;"/>
   </g>
   <g id="matplotlib.axis_1">
    <g id="xtick_1">
     <g id="line2d_2">
      <path clip-path="url(#p773bd77521)" d="M 51.022969 337.973908 
L 51.022969 11.813908 
" style="fill:none;stroke:#cccccc;stroke-linecap:round;stroke-width:1.3;"/>
     </g>
     <g id="line2d_3"/>
     <g id="text_1">
      <!-- $-8$ -->
      <defs>
       <path d="M 65.90625 23 
C 67.59375 23 69.40625 23 69.40625 25 
C 69.40625 27 67.59375 27 65.90625 27 
L 11.796875 27 
C 10.09375 27 8.296875 27 8.296875 25 
C 8.296875 23 10.09375 23 11.796875 23 
z
" id="CMSY10-0"/>
       <path d="M 39.09375 37.484375 
C 46.40625 41.875 48.796875 45.46875 48.796875 52.15625 
C 48.796875 63.21875 40.09375 71 27.5 71 
C 15 71 6.203125 63.21875 6.203125 52.15625 
C 6.203125 45.578125 8.59375 41.984375 15.796875 37.484375 
C 7.703125 33.59375 3.703125 27.71875 3.703125 19.9375 
C 3.703125 6.96875 13.5 -2 27.5 -2 
C 41.5 -2 51.296875 6.984375 51.296875 19.84375 
C 51.296875 27.71875 47.296875 33.59375 39.09375 37.484375 
z
M 27.5 63.1875 
C 35 63.1875 39.796875 58.8125 39.796875 51.953125 
C 39.796875 45.375 34.90625 41 27.5 41 
C 20.09375 41 15.203125 45.375 15.203125 52.046875 
C 15.203125 58.8125 20.09375 63.1875 27.5 63.1875 
z
M 27.5 33.578125 
C 36.296875 33.578125 42.296875 28 42.296875 19.734375 
C 42.296875 11.390625 36.296875 5.8125 27.296875 5.8125 
C 18.703125 5.8125 12.703125 11.484375 12.703125 19.734375 
C 12.703125 28 18.703125 33.578125 27.5 33.578125 
z
" id="Nimbus_Sans_L_Regular-56"/>
      </defs>
      <g style="fill:#262626;" transform="translate(42.385826 356.301725)scale(0.13 -0.13)">
       <use transform="scale(0.996264)" xlink:href="#CMSY10-0"/>
       <use transform="translate(77.487468 0)scale(0.996264)" xlink:href="#Nimbus_Sans_L_Regular-56"/>
      </g>
     </g>
    </g>
    <g id="xtick_2">
     <g id="line2d_4">
      <path clip-path="url(#p773bd77521)" d="M 131.374969 337.973908 
L 131.374969 11.813908 
" style="fill:none;stroke:#cccccc;stroke-linecap:round;stroke-width:1.3;"/>
     </g>
     <g id="line2d_5"/>
     <g id="text_2">
      <!-- $-6$ -->
      <defs>
       <path d="M 49.796875 52.84375 
C 48.09375 64.234375 40.5 71 29.703125 71 
C 21.90625 71 14.90625 67.21875 10.703125 60.9375 
C 6.296875 54.0625 4.296875 45.375 4.296875 32.515625 
C 4.296875 20.640625 6.09375 13.0625 10.296875 6.78125 
C 14.09375 1.078125 20.296875 -2 28.09375 -2 
C 41.59375 -2 51.296875 8.09375 51.296875 22.109375 
C 51.296875 35.4375 42.296875 44.8125 29.59375 44.8125 
C 22.59375 44.8125 17.09375 42.109375 13.296875 36.90625 
C 13.40625 53.8125 19 63.1875 29.09375 63.1875 
C 35.296875 63.1875 39.59375 59.421875 41 52.84375 
z
M 28.5 37 
C 37 37 42.296875 31.03125 42.296875 21.40625 
C 42.296875 12.390625 36.296875 5.8125 28.203125 5.8125 
C 20 5.8125 13.796875 12.703125 13.796875 21.90625 
C 13.796875 30.828125 19.796875 37 28.5 37 
z
" id="Nimbus_Sans_L_Regular-54"/>
      </defs>
      <g style="fill:#262626;" transform="translate(122.737826 356.301725)scale(0.13 -0.13)">
       <use transform="scale(0.996264)" xlink:href="#CMSY10-0"/>
       <use transform="translate(77.487468 0)scale(0.996264)" xlink:href="#Nimbus_Sans_L_Regular-54"/>
      </g>
     </g>
    </g>
    <g id="xtick_3">
     <g id="line2d_6">
      <path clip-path="url(#p773bd77521)" d="M 211.726969 337.973908 
L 211.726969 11.813908 
" style="fill:none;stroke:#cccccc;stroke-linecap:round;stroke-width:1.3;"/>
     </g>
     <g id="line2d_7"/>
     <g id="text_3">
      <!-- $-4$ -->
      <defs>
       <path d="M 32.703125 17 
L 32.703125 0 
L 41.5 0 
L 41.5 17 
L 52 17 
L 52 24.90625 
L 41.5 24.90625 
L 41.5 71.015625 
L 35 71.015625 
L 2.796875 26.3125 
L 2.796875 17 
z
M 32.703125 24.90625 
L 10.5 24.90625 
L 32.703125 55.984375 
z
" id="Nimbus_Sans_L_Regular-52"/>
      </defs>
      <g style="fill:#262626;" transform="translate(203.089826 356.301725)scale(0.13 -0.13)">
       <use transform="scale(0.996264)" xlink:href="#CMSY10-0"/>
       <use transform="translate(77.487468 0)scale(0.996264)" xlink:href="#Nimbus_Sans_L_Regular-52"/>
      </g>
     </g>
    </g>
    <g id="xtick_4">
     <g id="line2d_8">
      <path clip-path="url(#p773bd77521)" d="M 292.078969 337.973908 
L 292.078969 11.813908 
" style="fill:none;stroke:#cccccc;stroke-linecap:round;stroke-width:1.3;"/>
     </g>
     <g id="line2d_9"/>
     <g id="text_4">
      <!-- $-2$ -->
      <defs>
       <path d="M 50.59375 8.71875 
L 13.296875 8.71875 
C 14.203125 14.53125 17.40625 18.234375 26.09375 23.34375 
L 36.09375 28.75 
C 46 34.15625 51.09375 41.453125 51.09375 50.171875 
C 51.09375 56.078125 48.703125 61.59375 44.5 65.390625 
C 40.296875 69.203125 35.09375 71 28.40625 71 
C 19.40625 71 12.703125 67.796875 8.796875 61.796875 
C 6.296875 57.984375 5.203125 53.578125 5 46.359375 
L 13.796875 46.359375 
C 14.09375 51.171875 14.703125 54.078125 15.90625 56.375 
C 18.203125 60.6875 22.796875 63.296875 28.09375 63.296875 
C 36.09375 63.296875 42.09375 57.578125 42.09375 49.96875 
C 42.09375 44.359375 38.796875 39.546875 32.5 35.953125 
L 23.296875 30.75 
C 8.5 22.34375 4.203125 15.625 3.40625 0 
L 50.59375 0 
z
" id="Nimbus_Sans_L_Regular-50"/>
      </defs>
      <g style="fill:#262626;" transform="translate(283.441826 356.301725)scale(0.13 -0.13)">
       <use transform="scale(0.996264)" xlink:href="#CMSY10-0"/>
       <use transform="translate(77.487468 0)scale(0.996264)" xlink:href="#Nimbus_Sans_L_Regular-50"/>
      </g>
     </g>
    </g>
    <g id="xtick_5">
     <g id="line2d_10">
      <path clip-path="url(#p773bd77521)" d="M 372.430969 337.973908 
L 372.430969 11.813908 
" style="fill:none;stroke:#cccccc;stroke-linecap:round;stroke-width:1.3;"/>
     </g>
     <g id="line2d_11"/>
     <g id="text_5">
      <!-- $0$ -->
      <defs>
       <path d="M 27.5 71 
C 20.90625 71 14.90625 68.125 11.203125 63.21875 
C 6.59375 57.046875 4.296875 47.5625 4.296875 34.5 
C 4.296875 10.671875 12.296875 -2 27.5 -2 
C 42.5 -2 50.703125 10.671875 50.703125 33.90625 
C 50.703125 47.65625 48.5 56.84375 43.796875 63.21875 
C 40.09375 68.21875 34.203125 71 27.5 71 
z
M 27.5 63.1875 
C 37 63.1875 41.703125 53.625 41.703125 34.703125 
C 41.703125 14.671875 37.09375 5.3125 27.296875 5.3125 
C 18 5.3125 13.296875 15.078125 13.296875 34.40625 
C 13.296875 53.71875 18 63.1875 27.5 63.1875 
z
" id="Nimbus_Sans_L_Regular-48"/>
      </defs>
      <g style="fill:#262626;" transform="translate(368.830511 356.301725)scale(0.13 -0.13)">
       <use transform="scale(0.996264)" xlink:href="#Nimbus_Sans_L_Regular-48"/>
      </g>
     </g>
    </g>
    <g id="xtick_6">
     <g id="line2d_12">
      <path clip-path="url(#p773bd77521)" d="M 452.782969 337.973908 
L 452.782969 11.813908 
" style="fill:none;stroke:#cccccc;stroke-linecap:round;stroke-width:1.3;"/>
     </g>
     <g id="line2d_13"/>
     <g id="text_6">
      <!-- $2$ -->
      <g style="fill:#262626;" transform="translate(449.182511 356.301725)scale(0.13 -0.13)">
       <use transform="scale(0.996264)" xlink:href="#Nimbus_Sans_L_Regular-50"/>
      </g>
     </g>
    </g>
    <g id="text_7">
     <!-- GAFF v1.7 $\Delta$G (kcal/mol) -->
     <defs>
      <path d="M 70.90625 39 
L 40.5 39 
L 40.5 30.796875 
L 62.703125 30.796875 
L 62.703125 28.765625 
C 62.703125 15.671875 53.09375 6.203125 39.796875 6.203125 
C 32.40625 6.203125 25.703125 8.890625 21.40625 13.59375 
C 16.59375 18.765625 13.703125 27.4375 13.703125 36.40625 
C 13.703125 54.234375 23.90625 66 39.296875 66 
C 50.40625 66 58.40625 60.375 60.40625 51.125 
L 69.90625 51.125 
C 67.296875 65.796875 56.09375 74.21875 39.40625 74.21875 
C 30.5 74.21875 23.296875 71.921875 17.59375 67.234375 
C 9.203125 60.25 4.40625 48.984375 4.40625 35.90625 
C 4.40625 13.5625 18.09375 -2 37.796875 -2 
C 47.703125 -2 55.59375 1.703125 62.703125 9.625 
L 65 -0.109375 
L 70.90625 -0.109375 
z
" id="Nimbus_Sans_L_Regular-71"/>
      <path d="M 47.40625 22 
L 54.90625 0 
L 65.296875 0 
L 39.703125 73 
L 27.703125 73 
L 1.703125 0 
L 11.59375 0 
L 19.296875 22 
z
M 44.796875 29.8125 
L 21.59375 29.8125 
L 33.59375 63 
z
" id="Nimbus_Sans_L_Regular-65"/>
      <path d="M 18.296875 33 
L 53.09375 33 
L 53.09375 41.21875 
L 18.296875 41.21875 
L 18.296875 64.78125 
L 57.90625 64.78125 
L 57.90625 73 
L 9 73 
L 9 -0.21875 
L 18.296875 -0.21875 
z
" id="Nimbus_Sans_L_Regular-70"/>
      <path d="M 28.5 0 
L 48.59375 52.5 
L 39.203125 52.5 
L 24.40625 9.921875 
L 10.40625 52.5 
L 1 52.5 
L 19.40625 0 
z
" id="Nimbus_Sans_L_Regular-118"/>
      <path d="M 25.90625 50.59375 
L 25.90625 0 
L 34.703125 0 
L 34.703125 71.015625 
L 28.90625 71.015625 
C 25.796875 60.109375 23.796875 58.609375 10.203125 56.90625 
L 10.203125 50.59375 
z
" id="Nimbus_Sans_L_Regular-49"/>
      <path d="M 19.09375 10.421875 
L 8.703125 10.421875 
L 8.703125 0 
L 19.09375 0 
z
" id="Nimbus_Sans_L_Regular-46"/>
      <path d="M 52 70.703125 
L 4.59375 70.703125 
L 4.59375 62 
L 42.90625 62 
C 26 37.78125 19.09375 22.90625 13.796875 -0.5 
L 23.203125 -0.5 
C 27.09375 22.296875 36 41.890625 52 63.296875 
z
" id="Nimbus_Sans_L_Regular-55"/>
      <path d="M 36.296875 66.625 
L 3 4.40625 
L 3.203125 0.234375 
C 10.5 0.734375 17.90625 0.9375 25.296875 0.9375 
C 37.796875 0.9375 50.203125 0.328125 62.703125 -0.453125 
L 68.796875 2.71875 
L 68.90625 4.3125 
C 58.09375 25.078125 49.5 46.859375 42.09375 69.109375 
z
M 56.203125 5 
C 44.5 5 32.703125 5 20.90625 5 
C 17.40625 5 13.90625 5 10.40625 5 
L 10.09375 6.1875 
C 18.09375 23.03125 26.09375 38.65625 35.59375 55 
L 36.703125 55 
C 36.703125 54.90625 52.703125 15.21875 56.796875 5.890625 
z
" id="EURM10-1"/>
      <path d="M 23.59375 73 
C 13.59375 59.84375 7.296875 41.5625 7.296875 25.796875 
C 7.296875 9.9375 13.59375 -8.34375 23.59375 -21.5 
L 29.09375 -21.5 
C 20.296875 -7.140625 15.40625 9.734375 15.40625 25.796875 
C 15.40625 41.765625 20.296875 58.734375 29.09375 73 
z
" id="Nimbus_Sans_L_Regular-40"/>
      <path d="M 14.09375 73 
L 5.796875 73 
L 5.796875 -0.03125 
L 14.09375 -0.03125 
L 14.09375 20.40625 
L 22.203125 28.421875 
L 39.90625 -0.03125 
L 50.203125 -0.03125 
L 28.796875 34.328125 
L 47 52.453125 
L 36.296875 52.453125 
L 14.09375 30.21875 
z
" id="Nimbus_Sans_L_Regular-107"/>
      <path d="M 47.09375 34.9375 
C 46.703125 40.03125 45.59375 43.328125 43.59375 46.21875 
C 40 51.109375 33.703125 54 26.40625 54 
C 12.296875 54 3.09375 42.84375 3.09375 25.5 
C 3.09375 8.65625 12.09375 -2 26.296875 -2 
C 38.796875 -2 46.703125 5.46875 47.703125 18.234375 
L 39.296875 18.234375 
C 37.90625 9.875 33.59375 5.703125 26.5 5.703125 
C 17.296875 5.703125 11.796875 13.171875 11.796875 25.5 
C 11.796875 38.53125 17.203125 46.28125 26.296875 46.28125 
C 33.296875 46.28125 37.703125 42.203125 38.703125 34.9375 
z
" id="Nimbus_Sans_L_Regular-99"/>
      <path d="M 53.5 5.203125 
C 52.59375 5 52.203125 5 51.703125 5 
C 48.796875 5 47.203125 6.484375 47.203125 9.078125 
L 47.203125 39.765625 
C 47.203125 49.015625 40.40625 54 27.5 54 
C 19.90625 54 13.59375 51.8125 10.09375 47.90625 
C 7.703125 45.203125 6.703125 42.21875 6.5 37.03125 
L 14.90625 37.03125 
C 15.59375 43.390625 19.40625 46.28125 27.203125 46.28125 
C 34.703125 46.28125 38.90625 43.484375 38.90625 38.515625 
L 38.90625 36.328125 
C 38.90625 32.828125 36.796875 31.34375 30.203125 30.546875 
C 18.40625 29.0625 16.59375 28.65625 13.40625 27.359375 
C 7.296875 24.875 4.203125 20.1875 4.203125 13.421875 
C 4.203125 3.96875 10.796875 -2 21.40625 -2 
C 28 -2 33.296875 0.296875 39.203125 5.703125 
C 39.796875 0.390625 42.40625 -2 47.796875 -2 
C 49.5 -2 50.796875 -1.8125 53.5 -1.09375 
z
M 38.90625 16.75 
C 38.90625 13.953125 38.09375 12.265625 35.59375 9.984375 
C 32.203125 6.890625 28.09375 5.3125 23.203125 5.3125 
C 16.703125 5.3125 12.90625 8.390625 12.90625 13.65625 
C 12.90625 19.140625 16.59375 21.921875 25.5 23.21875 
C 34.296875 24.40625 36.09375 24.8125 38.90625 26.09375 
z
" id="Nimbus_Sans_L_Regular-97"/>
      <path d="M 15.203125 73 
L 6.796875 73 
L 6.796875 -0.03125 
L 15.203125 -0.03125 
z
" id="Nimbus_Sans_L_Regular-108"/>
      <path d="M 22.90625 73 
L -0.796875 -2 
L 4.703125 -2 
L 28.40625 73 
z
" id="Nimbus_Sans_L_Regular-47"/>
      <path d="M 7 52.484375 
L 7 0 
L 15.40625 0 
L 15.40625 32.953125 
C 15.40625 40.578125 20.90625 46.6875 27.703125 46.6875 
C 33.90625 46.6875 37.40625 42.875 37.40625 36.15625 
L 37.40625 0 
L 45.796875 0 
L 45.796875 32.953125 
C 45.796875 40.578125 51.296875 46.6875 58.09375 46.6875 
C 64.203125 46.6875 67.796875 42.78125 67.796875 36.15625 
L 67.796875 0 
L 76.203125 0 
L 76.203125 39.375 
C 76.203125 48.78125 70.796875 54 61 54 
C 54 54 49.796875 51.890625 44.90625 45.984375 
C 41.796875 51.59375 37.59375 54 30.796875 54 
C 23.796875 54 19.203125 51.390625 14.703125 45.078125 
L 14.703125 52.484375 
z
" id="Nimbus_Sans_L_Regular-109"/>
      <path d="M 27.203125 54 
C 12.5 54 3.59375 43.53125 3.59375 25.984375 
C 3.59375 8.453125 12.40625 -2 27.296875 -2 
C 42 -2 51 8.453125 51 25.59375 
C 51 43.625 42.296875 54 27.203125 54 
z
M 27.296875 46.28125 
C 36.703125 46.28125 42.296875 38.625 42.296875 25.703125 
C 42.296875 13.453125 36.5 5.703125 27.296875 5.703125 
C 18 5.703125 12.296875 13.359375 12.296875 25.984375 
C 12.296875 38.53125 18 46.28125 27.296875 46.28125 
z
" id="Nimbus_Sans_L_Regular-111"/>
      <path d="M 9.296875 -21.5 
C 19.296875 -8.34375 25.59375 9.9375 25.59375 25.6875 
C 25.59375 41.5625 19.296875 59.84375 9.296875 73 
L 3.796875 73 
C 12.59375 58.640625 17.5 41.765625 17.5 25.6875 
C 17.5 9.734375 12.59375 -7.25 3.796875 -21.5 
z
" id="Nimbus_Sans_L_Regular-41"/>
     </defs>
     <g style="fill:#262626;" transform="translate(172.01419 373.47454)scale(0.143 -0.143)">
      <use transform="scale(0.996264)" xlink:href="#Nimbus_Sans_L_Regular-71"/>
      <use transform="translate(77.50837 0)scale(0.996264)" xlink:href="#Nimbus_Sans_L_Regular-65"/>
      <use transform="translate(143.958401 0)scale(0.996264)" xlink:href="#Nimbus_Sans_L_Regular-70"/>
      <use transform="translate(204.830032 0)scale(0.996264)" xlink:href="#Nimbus_Sans_L_Regular-70"/>
      <use transform="translate(293.396832 0)scale(0.996264)" xlink:href="#Nimbus_Sans_L_Regular-118"/>
      <use transform="translate(343.210033 0)scale(0.996264)" xlink:href="#Nimbus_Sans_L_Regular-49"/>
      <use transform="translate(398.60171 0)scale(0.996264)" xlink:href="#Nimbus_Sans_L_Regular-46"/>
      <use transform="translate(426.296879 0)scale(0.996264)" xlink:href="#Nimbus_Sans_L_Regular-55"/>
      <use transform="translate(509.383726 0)scale(0.996264)" xlink:href="#EURM10-1"/>
      <use transform="translate(580.445491 0)scale(0.996264)" xlink:href="#Nimbus_Sans_L_Regular-71"/>
      <use transform="translate(685.649031 0)scale(0.996264)" xlink:href="#Nimbus_Sans_L_Regular-40"/>
      <use transform="translate(718.824261 0)scale(0.996264)" xlink:href="#Nimbus_Sans_L_Regular-107"/>
      <use transform="translate(768.637461 0)scale(0.996264)" xlink:href="#Nimbus_Sans_L_Regular-99"/>
      <use transform="translate(818.450662 0)scale(0.996264)" xlink:href="#Nimbus_Sans_L_Regular-97"/>
      <use transform="translate(873.842339 0)scale(0.996264)" xlink:href="#Nimbus_Sans_L_Regular-108"/>
      <use transform="translate(895.959123 0)scale(0.996264)" xlink:href="#Nimbus_Sans_L_Regular-47"/>
      <use transform="translate(923.654293 0)scale(0.996264)" xlink:href="#Nimbus_Sans_L_Regular-109"/>
      <use transform="translate(1006.642723 0)scale(0.996264)" xlink:href="#Nimbus_Sans_L_Regular-111"/>
      <use transform="translate(1062.0344 0)scale(0.996264)" xlink:href="#Nimbus_Sans_L_Regular-108"/>
      <use transform="translate(1084.151184 0)scale(0.996264)" xlink:href="#Nimbus_Sans_L_Regular-41"/>
     </g>
    </g>
   </g>
   <g id="matplotlib.axis_2">
    <g id="ytick_1">
     <g id="line2d_14">
      <path clip-path="url(#p773bd77521)" d="M 51.022969 337.973908 
L 452.782969 337.973908 
" style="fill:none;stroke:#cccccc;stroke-linecap:round;stroke-width:1.3;"/>
     </g>
     <g id="line2d_15"/>
     <g id="text_8">
      <!-- $-8$ -->
      <g style="fill:#262626;" transform="translate(24.648682 342.587816)scale(0.13 -0.13)">
       <use transform="scale(0.996264)" xlink:href="#CMSY10-0"/>
       <use transform="translate(77.487468 0)scale(0.996264)" xlink:href="#Nimbus_Sans_L_Regular-56"/>
      </g>
     </g>
    </g>
    <g id="ytick_2">
     <g id="line2d_16">
      <path clip-path="url(#p773bd77521)" d="M 51.022969 272.741908 
L 452.782969 272.741908 
" style="fill:none;stroke:#cccccc;stroke-linecap:round;stroke-width:1.3;"/>
     </g>
     <g id="line2d_17"/>
     <g id="text_9">
      <!-- $-6$ -->
      <g style="fill:#262626;" transform="translate(24.648682 277.355816)scale(0.13 -0.13)">
       <use transform="scale(0.996264)" xlink:href="#CMSY10-0"/>
       <use transform="translate(77.487468 0)scale(0.996264)" xlink:href="#Nimbus_Sans_L_Regular-54"/>
      </g>
     </g>
    </g>
    <g id="ytick_3">
     <g id="line2d_18">
      <path clip-path="url(#p773bd77521)" d="M 51.022969 207.509908 
L 452.782969 207.509908 
" style="fill:none;stroke:#cccccc;stroke-linecap:round;stroke-width:1.3;"/>
     </g>
     <g id="line2d_19"/>
     <g id="text_10">
      <!-- $-4$ -->
      <g style="fill:#262626;" transform="translate(24.648682 212.123816)scale(0.13 -0.13)">
       <use transform="scale(0.996264)" xlink:href="#CMSY10-0"/>
       <use transform="translate(77.487468 0)scale(0.996264)" xlink:href="#Nimbus_Sans_L_Regular-52"/>
      </g>
     </g>
    </g>
    <g id="ytick_4">
     <g id="line2d_20">
      <path clip-path="url(#p773bd77521)" d="M 51.022969 142.277908 
L 452.782969 142.277908 
" style="fill:none;stroke:#cccccc;stroke-linecap:round;stroke-width:1.3;"/>
     </g>
     <g id="line2d_21"/>
     <g id="text_11">
      <!-- $-2$ -->
      <g style="fill:#262626;" transform="translate(24.648682 146.891816)scale(0.13 -0.13)">
       <use transform="scale(0.996264)" xlink:href="#CMSY10-0"/>
       <use transform="translate(77.487468 0)scale(0.996264)" xlink:href="#Nimbus_Sans_L_Regular-50"/>
      </g>
     </g>
    </g>
    <g id="ytick_5">
     <g id="line2d_22">
      <path clip-path="url(#p773bd77521)" d="M 51.022969 77.045908 
L 452.782969 77.045908 
" style="fill:none;stroke:#cccccc;stroke-linecap:round;stroke-width:1.3;"/>
     </g>
     <g id="line2d_23"/>
     <g id="text_12">
      <!-- $0$ -->
      <g style="fill:#262626;" transform="translate(34.722052 81.659816)scale(0.13 -0.13)">
       <use transform="scale(0.996264)" xlink:href="#Nimbus_Sans_L_Regular-48"/>
      </g>
     </g>
    </g>
    <g id="ytick_6">
     <g id="line2d_24">
      <path clip-path="url(#p773bd77521)" d="M 51.022969 11.813908 
L 452.782969 11.813908 
" style="fill:none;stroke:#cccccc;stroke-linecap:round;stroke-width:1.3;"/>
     </g>
     <g id="line2d_25"/>
     <g id="text_13">
      <!-- $2$ -->
      <g style="fill:#262626;" transform="translate(34.722052 16.427816)scale(0.13 -0.13)">
       <use transform="scale(0.996264)" xlink:href="#Nimbus_Sans_L_Regular-50"/>
      </g>
     </g>
    </g>
    <g id="text_14">
     <!-- GAFF v2.1 $\Delta$G (kcal/mol) -->
     <g style="fill:#262626;" transform="translate(17.614239 254.782687)rotate(-90)scale(0.143 -0.143)">
      <use transform="scale(0.996264)" xlink:href="#Nimbus_Sans_L_Regular-71"/>
      <use transform="translate(77.50837 0)scale(0.996264)" xlink:href="#Nimbus_Sans_L_Regular-65"/>
      <use transform="translate(143.958401 0)scale(0.996264)" xlink:href="#Nimbus_Sans_L_Regular-70"/>
      <use transform="translate(204.830032 0)scale(0.996264)" xlink:href="#Nimbus_Sans_L_Regular-70"/>
      <use transform="translate(293.396832 0)scale(0.996264)" xlink:href="#Nimbus_Sans_L_Regular-118"/>
      <use transform="translate(343.210033 0)scale(0.996264)" xlink:href="#Nimbus_Sans_L_Regular-50"/>
      <use transform="translate(398.60171 0)scale(0.996264)" xlink:href="#Nimbus_Sans_L_Regular-46"/>
      <use transform="translate(426.296879 0)scale(0.996264)" xlink:href="#Nimbus_Sans_L_Regular-49"/>
      <use transform="translate(509.383726 0)scale(0.996264)" xlink:href="#EURM10-1"/>
      <use transform="translate(580.445491 0)scale(0.996264)" xlink:href="#Nimbus_Sans_L_Regular-71"/>
      <use transform="translate(685.649031 0)scale(0.996264)" xlink:href="#Nimbus_Sans_L_Regular-40"/>
      <use transform="translate(718.824261 0)scale(0.996264)" xlink:href="#Nimbus_Sans_L_Regular-107"/>
      <use transform="translate(768.637461 0)scale(0.996264)" xlink:href="#Nimbus_Sans_L_Regular-99"/>
      <use transform="translate(818.450662 0)scale(0.996264)" xlink:href="#Nimbus_Sans_L_Regular-97"/>
      <use transform="translate(873.842339 0)scale(0.996264)" xlink:href="#Nimbus_Sans_L_Regular-108"/>
      <use transform="translate(895.959123 0)scale(0.996264)" xlink:href="#Nimbus_Sans_L_Regular-47"/>
      <use transform="translate(923.654293 0)scale(0.996264)" xlink:href="#Nimbus_Sans_L_Regular-109"/>
      <use transform="translate(1006.642723 0)scale(0.996264)" xlink:href="#Nimbus_Sans_L_Regular-111"/>
      <use transform="translate(1062.0344 0)scale(0.996264)" xlink:href="#Nimbus_Sans_L_Regular-108"/>
      <use transform="translate(1084.151184 0)scale(0.996264)" xlink:href="#Nimbus_Sans_L_Regular-41"/>
     </g>
    </g>
   </g>
   <g id="LineCollection_1">
    <path clip-path="url(#p773bd77521)" d="M 362.352118 72.153078 
L 381.215936 72.153078 
" style="fill:none;stroke:#808080;"/>
    <path clip-path="url(#p773bd77521)" d="M 336.784588 172.628277 
L 358.500769 172.628277 
" style="fill:none;stroke:#808080;"/>
    <path clip-path="url(#p773bd77521)" d="M 275.191011 255.941912 
L 294.697313 255.941912 
" style="fill:none;stroke:#808080;"/>
    <path clip-path="url(#p773bd77521)" d="M 271.886653 202.838397 
L 291.523275 202.838397 
" style="fill:none;stroke:#808080;"/>
    <path clip-path="url(#p773bd77521)" d="M 239.075933 272.8587 
L 258.907571 272.8587 
" style="fill:none;stroke:#808080;"/>
    <path clip-path="url(#p773bd77521)" d="M 237.053845 234.725879 
L 256.465543 234.725879 
" style="fill:none;stroke:#808080;"/>
    <path clip-path="url(#p773bd77521)" d="M 388.282563 71.09903 
L 409.049907 71.09903 
" style="fill:none;stroke:#808080;"/>
    <path clip-path="url(#p773bd77521)" d="M 327.998189 180.317147 
L 349.615128 180.317147 
" style="fill:none;stroke:#808080;"/>
    <path clip-path="url(#p773bd77521)" d="M 232.40212 242.191607 
L 252.301369 242.191607 
" style="fill:none;stroke:#808080;"/>
    <path clip-path="url(#p773bd77521)" d="M 265.311775 208.408084 
L 284.990636 208.408084 
" style="fill:none;stroke:#808080;"/>
    <path clip-path="url(#p773bd77521)" d="M 262.997805 256.276432 
L 282.422474 256.276432 
" style="fill:none;stroke:#808080;"/>
    <path clip-path="url(#p773bd77521)" d="M 221.739757 276.757486 
L 242.810904 276.757486 
" style="fill:none;stroke:#808080;"/>
    <path clip-path="url(#p773bd77521)" d="M 258.01018 225.000329 
L 277.468363 225.000329 
" style="fill:none;stroke:#808080;"/>
    <path clip-path="url(#p773bd77521)" d="M 355.480617 111.169208 
L 376.002931 111.169208 
" style="fill:none;stroke:#808080;"/>
    <path clip-path="url(#p773bd77521)" d="M 340.190878 164.935549 
L 359.646991 164.935549 
" style="fill:none;stroke:#808080;"/>
    <path clip-path="url(#p773bd77521)" d="M 268.84928 253.861585 
L 289.153143 253.861585 
" style="fill:none;stroke:#808080;"/>
    <path clip-path="url(#p773bd77521)" d="M 202.79017 268.97736 
L 222.139578 268.97736 
" style="fill:none;stroke:#808080;"/>
    <path clip-path="url(#p773bd77521)" d="M 210.74541 301.377223 
L 230.024987 301.377223 
" style="fill:none;stroke:#808080;"/>
    <path clip-path="url(#p773bd77521)" d="M 319.87631 146.461292 
L 339.435272 146.461292 
" style="fill:none;stroke:#808080;"/>
    <path clip-path="url(#p773bd77521)" d="M 317.446383 206.580532 
L 337.972274 206.580532 
" style="fill:none;stroke:#808080;"/>
    <path clip-path="url(#p773bd77521)" d="M 297.99568 182.231396 
L 326.681627 182.231396 
" style="fill:none;stroke:#808080;"/>
    <path clip-path="url(#p773bd77521)" d="M 329.0896 146.232011 
L 360.00392 146.232011 
" style="fill:none;stroke:#808080;"/>
    <path clip-path="url(#p773bd77521)" d="M 303.076946 200.298507 
L 331.305492 200.298507 
" style="fill:none;stroke:#808080;"/>
    <path clip-path="url(#p773bd77521)" d="M 317.549054 140.403222 
L 346.294655 140.403222 
" style="fill:none;stroke:#808080;"/>
    <path clip-path="url(#p773bd77521)" d="M 258.232856 247.899658 
L 286.15413 247.899658 
" style="fill:none;stroke:#808080;"/>
    <path clip-path="url(#p773bd77521)" d="M 278.196288 211.321078 
L 306.931636 211.321078 
" style="fill:none;stroke:#808080;"/>
   </g>
   <g id="LineCollection_2">
    <path clip-path="url(#p773bd77521)" d="M 371.784027 79.636879 
L 371.784027 64.669277 
" style="fill:none;stroke:#808080;"/>
    <path clip-path="url(#p773bd77521)" d="M 347.642679 180.295176 
L 347.642679 164.961378 
" style="fill:none;stroke:#808080;"/>
    <path clip-path="url(#p773bd77521)" d="M 284.944162 263.438477 
L 284.944162 248.445347 
" style="fill:none;stroke:#808080;"/>
    <path clip-path="url(#p773bd77521)" d="M 281.704964 210.502815 
L 281.704964 195.173979 
" style="fill:none;stroke:#808080;"/>
    <path clip-path="url(#p773bd77521)" d="M 248.991752 280.484071 
L 248.991752 265.233328 
" style="fill:none;stroke:#808080;"/>
    <path clip-path="url(#p773bd77521)" d="M 246.759694 242.223023 
L 246.759694 227.228735 
" style="fill:none;stroke:#808080;"/>
    <path clip-path="url(#p773bd77521)" d="M 398.666235 79.016347 
L 398.666235 63.181712 
" style="fill:none;stroke:#808080;"/>
    <path clip-path="url(#p773bd77521)" d="M 338.806659 187.940351 
L 338.806659 172.693943 
" style="fill:none;stroke:#808080;"/>
    <path clip-path="url(#p773bd77521)" d="M 242.351744 250.026735 
L 242.351744 234.356478 
" style="fill:none;stroke:#808080;"/>
    <path clip-path="url(#p773bd77521)" d="M 275.151206 216.069675 
L 275.151206 200.746493 
" style="fill:none;stroke:#808080;"/>
    <path clip-path="url(#p773bd77521)" d="M 272.71014 263.983952 
L 272.71014 248.568911 
" style="fill:none;stroke:#808080;"/>
    <path clip-path="url(#p773bd77521)" d="M 232.27533 284.568182 
L 232.27533 268.94679 
" style="fill:none;stroke:#808080;"/>
    <path clip-path="url(#p773bd77521)" d="M 267.739272 232.91404 
L 267.739272 217.086619 
" style="fill:none;stroke:#808080;"/>
    <path clip-path="url(#p773bd77521)" d="M 365.741774 118.876771 
L 365.741774 103.461644 
" style="fill:none;stroke:#808080;"/>
    <path clip-path="url(#p773bd77521)" d="M 349.918934 172.361289 
L 349.918934 157.509808 
" style="fill:none;stroke:#808080;"/>
    <path clip-path="url(#p773bd77521)" d="M 279.001211 261.524884 
L 279.001211 246.198286 
" style="fill:none;stroke:#808080;"/>
    <path clip-path="url(#p773bd77521)" d="M 212.464874 276.54534 
L 212.464874 261.409379 
" style="fill:none;stroke:#808080;"/>
    <path clip-path="url(#p773bd77521)" d="M 220.385199 308.82619 
L 220.385199 293.928256 
" style="fill:none;stroke:#808080;"/>
    <path clip-path="url(#p773bd77521)" d="M 329.655791 154.041244 
L 329.655791 138.88134 
" style="fill:none;stroke:#808080;"/>
    <path clip-path="url(#p773bd77521)" d="M 327.709328 214.494383 
L 327.709328 198.66668 
" style="fill:none;stroke:#808080;"/>
    <path clip-path="url(#p773bd77521)" d="M 312.338654 189.821709 
L 312.338654 174.641083 
" style="fill:none;stroke:#808080;"/>
    <path clip-path="url(#p773bd77521)" d="M 344.54676 153.869954 
L 344.54676 138.594068 
" style="fill:none;stroke:#808080;"/>
    <path clip-path="url(#p773bd77521)" d="M 317.191219 207.908233 
L 317.191219 192.688781 
" style="fill:none;stroke:#808080;"/>
    <path clip-path="url(#p773bd77521)" d="M 331.921854 147.941114 
L 331.921854 132.86533 
" style="fill:none;stroke:#808080;"/>
    <path clip-path="url(#p773bd77521)" d="M 272.193493 255.594203 
L 272.193493 240.205113 
" style="fill:none;stroke:#808080;"/>
    <path clip-path="url(#p773bd77521)" d="M 292.563962 218.90552 
L 292.563962 203.736636 
" style="fill:none;stroke:#808080;"/>
   </g>
   <g id="LineCollection_3">
    <path clip-path="url(#p773bd77521)" d="M 346.433646 121.703944 
L 371.50822 121.703944 
" style="fill:none;stroke:#808080;"/>
    <path clip-path="url(#p773bd77521)" d="M 328.167668 178.264697 
L 348.690477 178.264697 
" style="fill:none;stroke:#808080;"/>
    <path clip-path="url(#p773bd77521)" d="M 249.093384 260.424071 
L 268.829348 260.424071 
" style="fill:none;stroke:#808080;"/>
    <path clip-path="url(#p773bd77521)" d="M 209.970199 270.587377 
L 229.033073 270.587377 
" style="fill:none;stroke:#808080;"/>
    <path clip-path="url(#p773bd77521)" d="M 247.607475 230.053122 
L 266.750015 230.053122 
" style="fill:none;stroke:#808080;"/>
    <path clip-path="url(#p773bd77521)" d="M 260.238653 209.339705 
L 286.542235 209.339705 
" style="fill:none;stroke:#808080;"/>
    <path clip-path="url(#p773bd77521)" d="M 262.737966 245.687138 
L 282.210149 245.687138 
" style="fill:none;stroke:#808080;"/>
    <path clip-path="url(#p773bd77521)" d="M 242.489848 245.488142 
L 262.206793 245.488142 
" style="fill:none;stroke:#808080;"/>
    <path clip-path="url(#p773bd77521)" d="M 288.133454 209.844206 
L 308.428881 209.844206 
" style="fill:none;stroke:#808080;"/>
    <path clip-path="url(#p773bd77521)" d="M 267.284349 225.267986 
L 286.93425 225.267986 
" style="fill:none;stroke:#808080;"/>
    <path clip-path="url(#p773bd77521)" d="M 299.967008 205.371381 
L 319.384584 205.371381 
" style="fill:none;stroke:#808080;"/>
    <path clip-path="url(#p773bd77521)" d="M 336.590782 170.989101 
L 358.267625 170.989101 
" style="fill:none;stroke:#808080;"/>
    <path clip-path="url(#p773bd77521)" d="M 240.67656 270.856058 
L 261.054297 270.856058 
" style="fill:none;stroke:#808080;"/>
    <path clip-path="url(#p773bd77521)" d="M 168.741752 293.303234 
L 189.510388 293.303234 
" style="fill:none;stroke:#808080;"/>
    <path clip-path="url(#p773bd77521)" d="M 325.334995 182.590231 
L 345.6313 182.590231 
" style="fill:none;stroke:#808080;"/>
    <path clip-path="url(#p773bd77521)" d="M 300.767023 206.719743 
L 320.201131 206.719743 
" style="fill:none;stroke:#808080;"/>
    <path clip-path="url(#p773bd77521)" d="M 292.40668 137.814223 
L 325.006566 137.814223 
" style="fill:none;stroke:#808080;"/>
    <path clip-path="url(#p773bd77521)" d="M 316.940355 110.868716 
L 345.521966 110.868716 
" style="fill:none;stroke:#808080;"/>
    <path clip-path="url(#p773bd77521)" d="M 224.465852 211.53497 
L 252.787479 211.53497 
" style="fill:none;stroke:#808080;"/>
    <path clip-path="url(#p773bd77521)" d="M 282.053505 202.792294 
L 310.827519 202.792294 
" style="fill:none;stroke:#808080;"/>
    <path clip-path="url(#p773bd77521)" d="M 290.297802 181.74289 
L 320.938447 181.74289 
" style="fill:none;stroke:#808080;"/>
    <path clip-path="url(#p773bd77521)" d="M 268.842478 178.228033 
L 296.546278 178.228033 
" style="fill:none;stroke:#808080;"/>
    <path clip-path="url(#p773bd77521)" d="M 246.712239 162.064662 
L 282.641586 162.064662 
" style="fill:none;stroke:#808080;"/>
    <path clip-path="url(#p773bd77521)" d="M 276.834865 150.098592 
L 306.983787 150.098592 
" style="fill:none;stroke:#808080;"/>
    <path clip-path="url(#p773bd77521)" d="M 238.706422 188.041708 
L 268.415419 188.041708 
" style="fill:none;stroke:#808080;"/>
    <path clip-path="url(#p773bd77521)" d="M 289.126161 146.232057 
L 324.142408 146.232057 
" style="fill:none;stroke:#808080;"/>
    <path clip-path="url(#p773bd77521)" d="M 275.935658 167.541988 
L 306.661017 167.541988 
" style="fill:none;stroke:#808080;"/>
    <path clip-path="url(#p773bd77521)" d="M 248.648429 174.409234 
L 278.70905 174.409234 
" style="fill:none;stroke:#808080;"/>
    <path clip-path="url(#p773bd77521)" d="M 303.643143 156.397495 
L 333.981651 156.397495 
" style="fill:none;stroke:#808080;"/>
    <path clip-path="url(#p773bd77521)" d="M 306.985484 131.40464 
L 338.613194 131.40464 
" style="fill:none;stroke:#808080;"/>
    <path clip-path="url(#p773bd77521)" d="M 250.489402 213.235618 
L 280.900294 213.235618 
" style="fill:none;stroke:#808080;"/>
    <path clip-path="url(#p773bd77521)" d="M 285.557584 173.946479 
L 314.137193 173.946479 
" style="fill:none;stroke:#808080;"/>
    <path clip-path="url(#p773bd77521)" d="M 225.422727 229.506364 
L 256.939987 229.506364 
" style="fill:none;stroke:#808080;"/>
    <path clip-path="url(#p773bd77521)" d="M 267.185866 179.452748 
L 297.873721 179.452748 
" style="fill:none;stroke:#808080;"/>
    <path clip-path="url(#p773bd77521)" d="M 281.60835 200.605228 
L 312.685327 200.605228 
" style="fill:none;stroke:#808080;"/>
    <path clip-path="url(#p773bd77521)" d="M 320.45385 126.819235 
L 350.108732 126.819235 
" style="fill:none;stroke:#808080;"/>
    <path clip-path="url(#p773bd77521)" d="M 297.143266 129.542988 
L 327.427438 129.542988 
" style="fill:none;stroke:#808080;"/>
    <path clip-path="url(#p773bd77521)" d="M 321.483355 140.32433 
L 352.203995 140.32433 
" style="fill:none;stroke:#808080;"/>
   </g>
   <g id="LineCollection_4">
    <path clip-path="url(#p773bd77521)" d="M 358.970933 129.36217 
L 358.970933 114.045718 
" style="fill:none;stroke:#808080;"/>
    <path clip-path="url(#p773bd77521)" d="M 338.429072 185.829822 
L 338.429072 170.699572 
" style="fill:none;stroke:#808080;"/>
    <path clip-path="url(#p773bd77521)" d="M 258.961366 268.354087 
L 258.961366 252.494056 
" style="fill:none;stroke:#808080;"/>
    <path clip-path="url(#p773bd77521)" d="M 219.501636 278.199653 
L 219.501636 262.9751 
" style="fill:none;stroke:#808080;"/>
    <path clip-path="url(#p773bd77521)" d="M 257.178745 237.85585 
L 257.178745 222.250394 
" style="fill:none;stroke:#808080;"/>
    <path clip-path="url(#p773bd77521)" d="M 273.390444 217.157961 
L 273.390444 201.521449 
" style="fill:none;stroke:#808080;"/>
    <path clip-path="url(#p773bd77521)" d="M 272.474058 253.339801 
L 272.474058 238.034476 
" style="fill:none;stroke:#808080;"/>
    <path clip-path="url(#p773bd77521)" d="M 252.34832 253.143306 
L 252.34832 237.832977 
" style="fill:none;stroke:#808080;"/>
    <path clip-path="url(#p773bd77521)" d="M 298.281168 217.410186 
L 298.281168 202.278226 
" style="fill:none;stroke:#808080;"/>
    <path clip-path="url(#p773bd77521)" d="M 277.109299 232.79917 
L 277.109299 217.736802 
" style="fill:none;stroke:#808080;"/>
    <path clip-path="url(#p773bd77521)" d="M 309.675796 212.957744 
L 309.675796 197.785019 
" style="fill:none;stroke:#808080;"/>
    <path clip-path="url(#p773bd77521)" d="M 347.429204 178.801312 
L 347.429204 163.176891 
" style="fill:none;stroke:#808080;"/>
    <path clip-path="url(#p773bd77521)" d="M 250.865428 278.536796 
L 250.865428 263.175319 
" style="fill:none;stroke:#808080;"/>
    <path clip-path="url(#p773bd77521)" d="M 179.12607 300.992319 
L 179.12607 285.614148 
" style="fill:none;stroke:#808080;"/>
    <path clip-path="url(#p773bd77521)" d="M 335.483147 190.253187 
L 335.483147 174.927274 
" style="fill:none;stroke:#808080;"/>
    <path clip-path="url(#p773bd77521)" d="M 310.484077 214.272453 
L 310.484077 199.167033 
" style="fill:none;stroke:#808080;"/>
    <path clip-path="url(#p773bd77521)" d="M 308.706623 145.50065 
L 308.706623 130.127796 
" style="fill:none;stroke:#808080;"/>
    <path clip-path="url(#p773bd77521)" d="M 331.23116 118.584886 
L 331.23116 103.152546 
" style="fill:none;stroke:#808080;"/>
    <path clip-path="url(#p773bd77521)" d="M 238.626666 219.281455 
L 238.626666 203.788485 
" style="fill:none;stroke:#808080;"/>
    <path clip-path="url(#p773bd77521)" d="M 296.440512 210.295013 
L 296.440512 195.289575 
" style="fill:none;stroke:#808080;"/>
    <path clip-path="url(#p773bd77521)" d="M 305.618125 189.380638 
L 305.618125 174.105142 
" style="fill:none;stroke:#808080;"/>
    <path clip-path="url(#p773bd77521)" d="M 282.694378 185.739385 
L 282.694378 170.716682 
" style="fill:none;stroke:#808080;"/>
    <path clip-path="url(#p773bd77521)" d="M 264.676913 170.266524 
L 264.676913 153.862801 
" style="fill:none;stroke:#808080;"/>
    <path clip-path="url(#p773bd77521)" d="M 291.909326 158.08629 
L 291.909326 142.110895 
" style="fill:none;stroke:#808080;"/>
    <path clip-path="url(#p773bd77521)" d="M 253.56092 195.691426 
L 253.56092 180.39199 
" style="fill:none;stroke:#808080;"/>
    <path clip-path="url(#p773bd77521)" d="M 306.634284 154.195041 
L 306.634284 138.269072 
" style="fill:none;stroke:#808080;"/>
    <path clip-path="url(#p773bd77521)" d="M 291.298338 175.598795 
L 291.298338 159.48518 
" style="fill:none;stroke:#808080;"/>
    <path clip-path="url(#p773bd77521)" d="M 263.67874 181.914272 
L 263.67874 166.904196 
" style="fill:none;stroke:#808080;"/>
    <path clip-path="url(#p773bd77521)" d="M 318.812397 164.387671 
L 318.812397 148.40732 
" style="fill:none;stroke:#808080;"/>
    <path clip-path="url(#p773bd77521)" d="M 322.799339 139.271968 
L 322.799339 123.537313 
" style="fill:none;stroke:#808080;"/>
    <path clip-path="url(#p773bd77521)" d="M 265.694848 221.131864 
L 265.694848 205.339371 
" style="fill:none;stroke:#808080;"/>
    <path clip-path="url(#p773bd77521)" d="M 299.847389 181.595187 
L 299.847389 166.297771 
" style="fill:none;stroke:#808080;"/>
    <path clip-path="url(#p773bd77521)" d="M 241.181357 237.37739 
L 241.181357 221.635337 
" style="fill:none;stroke:#808080;"/>
    <path clip-path="url(#p773bd77521)" d="M 282.529793 187.371863 
L 282.529793 171.533632 
" style="fill:none;stroke:#808080;"/>
    <path clip-path="url(#p773bd77521)" d="M 297.146838 208.60784 
L 297.146838 192.602616 
" style="fill:none;stroke:#808080;"/>
    <path clip-path="url(#p773bd77521)" d="M 335.281291 134.356325 
L 335.281291 119.282145 
" style="fill:none;stroke:#808080;"/>
    <path clip-path="url(#p773bd77521)" d="M 312.285352 136.885655 
L 312.285352 122.20032 
" style="fill:none;stroke:#808080;"/>
    <path clip-path="url(#p773bd77521)" d="M 336.843675 148.002953 
L 336.843675 132.645708 
" style="fill:none;stroke:#808080;"/>
   </g>
   <g id="LineCollection_5">
    <path clip-path="url(#p773bd77521)" d="M 351.10609 144.375561 
L 372.470596 144.375561 
" style="fill:none;stroke:#808080;"/>
    <path clip-path="url(#p773bd77521)" d="M 372.183869 59.415995 
L 393.853715 59.415995 
" style="fill:none;stroke:#808080;"/>
    <path clip-path="url(#p773bd77521)" d="M 337.039743 197.24759 
L 361.222567 197.24759 
" style="fill:none;stroke:#808080;"/>
    <path clip-path="url(#p773bd77521)" d="M 295.322857 211.05229 
L 315.734368 211.05229 
" style="fill:none;stroke:#808080;"/>
    <path clip-path="url(#p773bd77521)" d="M 308.808026 81.096023 
L 346.264546 81.096023 
" style="fill:none;stroke:#808080;"/>
    <path clip-path="url(#p773bd77521)" d="M 373.828576 41.024348 
L 398.573705 41.024348 
" style="fill:none;stroke:#808080;"/>
    <path clip-path="url(#p773bd77521)" d="M 288.33719 186.353908 
L 308.508345 186.353908 
" style="fill:none;stroke:#808080;"/>
    <path clip-path="url(#p773bd77521)" d="M 325.212966 200.665212 
L 344.410607 200.665212 
" style="fill:none;stroke:#808080;"/>
    <path clip-path="url(#p773bd77521)" d="M 346.642455 147.66023 
L 375.0363 147.66023 
" style="fill:none;stroke:#808080;"/>
    <path clip-path="url(#p773bd77521)" d="M 293.844441 157.639317 
L 326.6001 157.639317 
" style="fill:none;stroke:#808080;"/>
    <path clip-path="url(#p773bd77521)" d="M 246.956058 281.42536 
L 274.583101 281.42536 
" style="fill:none;stroke:#808080;"/>
    <path clip-path="url(#p773bd77521)" d="M 244.118302 263.343885 
L 272.493231 263.343885 
" style="fill:none;stroke:#808080;"/>
    <path clip-path="url(#p773bd77521)" d="M 239.696486 307.447335 
L 267.571338 307.447335 
" style="fill:none;stroke:#808080;"/>
    <path clip-path="url(#p773bd77521)" d="M 218.955858 268.896994 
L 247.408178 268.896994 
" style="fill:none;stroke:#808080;"/>
    <path clip-path="url(#p773bd77521)" d="M 271.414156 215.695014 
L 300.285446 215.695014 
" style="fill:none;stroke:#808080;"/>
    <path clip-path="url(#p773bd77521)" d="M 294.360289 206.568878 
L 322.471906 206.568878 
" style="fill:none;stroke:#808080;"/>
    <path clip-path="url(#p773bd77521)" d="M 257.273792 260.627426 
L 285.491135 260.627426 
" style="fill:none;stroke:#808080;"/>
    <path clip-path="url(#p773bd77521)" d="M 271.296837 266.012073 
L 299.377819 266.012073 
" style="fill:none;stroke:#808080;"/>
    <path clip-path="url(#p773bd77521)" d="M 239.361301 264.899322 
L 268.603914 264.899322 
" style="fill:none;stroke:#808080;"/>
    <path clip-path="url(#p773bd77521)" d="M 233.049096 273.01206 
L 261.166116 273.01206 
" style="fill:none;stroke:#808080;"/>
    <path clip-path="url(#p773bd77521)" d="M 248.805643 256.173336 
L 276.61737 256.173336 
" style="fill:none;stroke:#808080;"/>
    <path clip-path="url(#p773bd77521)" d="M 282.282757 223.288156 
L 311.371736 223.288156 
" style="fill:none;stroke:#808080;"/>
   </g>
   <g id="LineCollection_6">
    <path clip-path="url(#p773bd77521)" d="M 361.788343 152.515533 
L 361.788343 136.235588 
" style="fill:none;stroke:#808080;"/>
    <path clip-path="url(#p773bd77521)" d="M 383.018792 66.952202 
L 383.018792 51.879787 
" style="fill:none;stroke:#808080;"/>
    <path clip-path="url(#p773bd77521)" d="M 349.131155 204.470947 
L 349.131155 190.024234 
" style="fill:none;stroke:#808080;"/>
    <path clip-path="url(#p773bd77521)" d="M 305.528613 218.522103 
L 305.528613 203.582476 
" style="fill:none;stroke:#808080;"/>
    <path clip-path="url(#p773bd77521)" d="M 327.536286 88.845846 
L 327.536286 73.346199 
" style="fill:none;stroke:#808080;"/>
    <path clip-path="url(#p773bd77521)" d="M 386.201141 48.504703 
L 386.201141 33.543993 
" style="fill:none;stroke:#808080;"/>
    <path clip-path="url(#p773bd77521)" d="M 298.422768 194.052659 
L 298.422768 178.655157 
" style="fill:none;stroke:#808080;"/>
    <path clip-path="url(#p773bd77521)" d="M 334.811786 208.014562 
L 334.811786 193.315863 
" style="fill:none;stroke:#808080;"/>
    <path clip-path="url(#p773bd77521)" d="M 360.839378 155.166828 
L 360.839378 140.153631 
" style="fill:none;stroke:#808080;"/>
    <path clip-path="url(#p773bd77521)" d="M 310.22227 165.025818 
L 310.22227 150.252816 
" style="fill:none;stroke:#808080;"/>
    <path clip-path="url(#p773bd77521)" d="M 260.76958 288.760282 
L 260.76958 274.090438 
" style="fill:none;stroke:#808080;"/>
    <path clip-path="url(#p773bd77521)" d="M 258.305766 270.974496 
L 258.305766 255.713274 
" style="fill:none;stroke:#808080;"/>
    <path clip-path="url(#p773bd77521)" d="M 253.633912 315.348748 
L 253.633912 299.545922 
" style="fill:none;stroke:#808080;"/>
    <path clip-path="url(#p773bd77521)" d="M 233.182018 278.219569 
L 233.182018 259.574419 
" style="fill:none;stroke:#808080;"/>
    <path clip-path="url(#p773bd77521)" d="M 285.849801 222.87285 
L 285.849801 208.517178 
" style="fill:none;stroke:#808080;"/>
    <path clip-path="url(#p773bd77521)" d="M 308.416098 214.216469 
L 308.416098 198.921287 
" style="fill:none;stroke:#808080;"/>
    <path clip-path="url(#p773bd77521)" d="M 271.382464 267.930464 
L 271.382464 253.324387 
" style="fill:none;stroke:#808080;"/>
    <path clip-path="url(#p773bd77521)" d="M 285.337328 273.302576 
L 285.337328 258.721569 
" style="fill:none;stroke:#808080;"/>
    <path clip-path="url(#p773bd77521)" d="M 253.982608 272.336498 
L 253.982608 257.462147 
" style="fill:none;stroke:#808080;"/>
    <path clip-path="url(#p773bd77521)" d="M 247.107606 280.514357 
L 247.107606 265.509763 
" style="fill:none;stroke:#808080;"/>
    <path clip-path="url(#p773bd77521)" d="M 262.711507 263.587094 
L 262.711507 248.759577 
" style="fill:none;stroke:#808080;"/>
    <path clip-path="url(#p773bd77521)" d="M 296.827246 230.812302 
L 296.827246 215.76401 
" style="fill:none;stroke:#808080;"/>
   </g>
   <g id="line2d_26">
    <defs>
     <path d="M 0 4 
C 1.060812 4 2.078319 3.578535 2.828427 2.828427 
C 3.578535 2.078319 4 1.060812 4 0 
C 4 -1.060812 3.578535 -2.078319 2.828427 -2.828427 
C 2.078319 -3.578535 1.060812 -4 0 -4 
C -1.060812 -4 -2.078319 -3.578535 -2.828427 -2.828427 
C -3.578535 -2.078319 -4 -1.060812 -4 0 
C -4 1.060812 -3.578535 2.078319 -2.828427 2.828427 
C -2.078319 3.578535 -1.060812 4 0 4 
z
" id="m6d92d501fb" style="stroke:#000000;stroke-width:0.2;"/>
    </defs>
    <g clip-path="url(#p773bd77521)">
     <use style="fill:#ff8c00;stroke:#000000;stroke-width:0.2;" x="371.784027" xlink:href="#m6d92d501fb" y="72.153078"/>
     <use style="fill:#ff8c00;stroke:#000000;stroke-width:0.2;" x="347.642679" xlink:href="#m6d92d501fb" y="172.628277"/>
     <use style="fill:#ff8c00;stroke:#000000;stroke-width:0.2;" x="284.944162" xlink:href="#m6d92d501fb" y="255.941912"/>
     <use style="fill:#ff8c00;stroke:#000000;stroke-width:0.2;" x="281.704964" xlink:href="#m6d92d501fb" y="202.838397"/>
     <use style="fill:#ff8c00;stroke:#000000;stroke-width:0.2;" x="248.991752" xlink:href="#m6d92d501fb" y="272.8587"/>
     <use style="fill:#ff8c00;stroke:#000000;stroke-width:0.2;" x="246.759694" xlink:href="#m6d92d501fb" y="234.725879"/>
     <use style="fill:#ff8c00;stroke:#000000;stroke-width:0.2;" x="398.666235" xlink:href="#m6d92d501fb" y="71.09903"/>
     <use style="fill:#ff8c00;stroke:#000000;stroke-width:0.2;" x="338.806659" xlink:href="#m6d92d501fb" y="180.317147"/>
     <use style="fill:#ff8c00;stroke:#000000;stroke-width:0.2;" x="242.351744" xlink:href="#m6d92d501fb" y="242.191607"/>
     <use style="fill:#ff8c00;stroke:#000000;stroke-width:0.2;" x="275.151206" xlink:href="#m6d92d501fb" y="208.408084"/>
     <use style="fill:#ff8c00;stroke:#000000;stroke-width:0.2;" x="272.71014" xlink:href="#m6d92d501fb" y="256.276432"/>
     <use style="fill:#ff8c00;stroke:#000000;stroke-width:0.2;" x="232.27533" xlink:href="#m6d92d501fb" y="276.757486"/>
     <use style="fill:#ff8c00;stroke:#000000;stroke-width:0.2;" x="267.739272" xlink:href="#m6d92d501fb" y="225.000329"/>
     <use style="fill:#ff8c00;stroke:#000000;stroke-width:0.2;" x="365.741774" xlink:href="#m6d92d501fb" y="111.169208"/>
     <use style="fill:#ff8c00;stroke:#000000;stroke-width:0.2;" x="349.918934" xlink:href="#m6d92d501fb" y="164.935549"/>
     <use style="fill:#ff8c00;stroke:#000000;stroke-width:0.2;" x="279.001211" xlink:href="#m6d92d501fb" y="253.861585"/>
     <use style="fill:#ff8c00;stroke:#000000;stroke-width:0.2;" x="212.464874" xlink:href="#m6d92d501fb" y="268.97736"/>
     <use style="fill:#ff8c00;stroke:#000000;stroke-width:0.2;" x="220.385199" xlink:href="#m6d92d501fb" y="301.377223"/>
     <use style="fill:#ff8c00;stroke:#000000;stroke-width:0.2;" x="329.655791" xlink:href="#m6d92d501fb" y="146.461292"/>
     <use style="fill:#ff8c00;stroke:#000000;stroke-width:0.2;" x="327.709328" xlink:href="#m6d92d501fb" y="206.580532"/>
     <use style="fill:#ff8c00;stroke:#000000;stroke-width:0.2;" x="312.338654" xlink:href="#m6d92d501fb" y="182.231396"/>
     <use style="fill:#ff8c00;stroke:#000000;stroke-width:0.2;" x="344.54676" xlink:href="#m6d92d501fb" y="146.232011"/>
     <use style="fill:#ff8c00;stroke:#000000;stroke-width:0.2;" x="317.191219" xlink:href="#m6d92d501fb" y="200.298507"/>
     <use style="fill:#ff8c00;stroke:#000000;stroke-width:0.2;" x="331.921854" xlink:href="#m6d92d501fb" y="140.403222"/>
     <use style="fill:#ff8c00;stroke:#000000;stroke-width:0.2;" x="272.193493" xlink:href="#m6d92d501fb" y="247.899658"/>
     <use style="fill:#ff8c00;stroke:#000000;stroke-width:0.2;" x="292.563962" xlink:href="#m6d92d501fb" y="211.321078"/>
    </g>
   </g>
   <g id="line2d_27">
    <defs>
     <path d="M 0 4 
C 1.060812 4 2.078319 3.578535 2.828427 2.828427 
C 3.578535 2.078319 4 1.060812 4 0 
C 4 -1.060812 3.578535 -2.078319 2.828427 -2.828427 
C 2.078319 -3.578535 1.060812 -4 0 -4 
C -1.060812 -4 -2.078319 -3.578535 -2.828427 -2.828427 
C -3.578535 -2.078319 -4 -1.060812 -4 0 
C -4 1.060812 -3.578535 2.078319 -2.828427 2.828427 
C -2.078319 3.578535 -1.060812 4 0 4 
z
" id="mde7dedcdae" style="stroke:#000000;stroke-width:0.2;"/>
    </defs>
    <g clip-path="url(#p773bd77521)">
     <use style="fill:#800080;stroke:#000000;stroke-width:0.2;" x="358.970933" xlink:href="#mde7dedcdae" y="121.703944"/>
     <use style="fill:#800080;stroke:#000000;stroke-width:0.2;" x="338.429072" xlink:href="#mde7dedcdae" y="178.264697"/>
     <use style="fill:#800080;stroke:#000000;stroke-width:0.2;" x="258.961366" xlink:href="#mde7dedcdae" y="260.424071"/>
     <use style="fill:#800080;stroke:#000000;stroke-width:0.2;" x="219.501636" xlink:href="#mde7dedcdae" y="270.587377"/>
     <use style="fill:#800080;stroke:#000000;stroke-width:0.2;" x="257.178745" xlink:href="#mde7dedcdae" y="230.053122"/>
     <use style="fill:#800080;stroke:#000000;stroke-width:0.2;" x="273.390444" xlink:href="#mde7dedcdae" y="209.339705"/>
     <use style="fill:#800080;stroke:#000000;stroke-width:0.2;" x="272.474058" xlink:href="#mde7dedcdae" y="245.687138"/>
     <use style="fill:#800080;stroke:#000000;stroke-width:0.2;" x="252.34832" xlink:href="#mde7dedcdae" y="245.488142"/>
     <use style="fill:#800080;stroke:#000000;stroke-width:0.2;" x="298.281168" xlink:href="#mde7dedcdae" y="209.844206"/>
     <use style="fill:#800080;stroke:#000000;stroke-width:0.2;" x="277.109299" xlink:href="#mde7dedcdae" y="225.267986"/>
     <use style="fill:#800080;stroke:#000000;stroke-width:0.2;" x="309.675796" xlink:href="#mde7dedcdae" y="205.371381"/>
     <use style="fill:#800080;stroke:#000000;stroke-width:0.2;" x="347.429204" xlink:href="#mde7dedcdae" y="170.989101"/>
     <use style="fill:#800080;stroke:#000000;stroke-width:0.2;" x="250.865428" xlink:href="#mde7dedcdae" y="270.856058"/>
     <use style="fill:#800080;stroke:#000000;stroke-width:0.2;" x="179.12607" xlink:href="#mde7dedcdae" y="293.303234"/>
     <use style="fill:#800080;stroke:#000000;stroke-width:0.2;" x="335.483147" xlink:href="#mde7dedcdae" y="182.590231"/>
     <use style="fill:#800080;stroke:#000000;stroke-width:0.2;" x="310.484077" xlink:href="#mde7dedcdae" y="206.719743"/>
     <use style="fill:#800080;stroke:#000000;stroke-width:0.2;" x="308.706623" xlink:href="#mde7dedcdae" y="137.814223"/>
     <use style="fill:#800080;stroke:#000000;stroke-width:0.2;" x="331.23116" xlink:href="#mde7dedcdae" y="110.868716"/>
     <use style="fill:#800080;stroke:#000000;stroke-width:0.2;" x="238.626666" xlink:href="#mde7dedcdae" y="211.53497"/>
     <use style="fill:#800080;stroke:#000000;stroke-width:0.2;" x="296.440512" xlink:href="#mde7dedcdae" y="202.792294"/>
     <use style="fill:#800080;stroke:#000000;stroke-width:0.2;" x="305.618125" xlink:href="#mde7dedcdae" y="181.74289"/>
     <use style="fill:#800080;stroke:#000000;stroke-width:0.2;" x="282.694378" xlink:href="#mde7dedcdae" y="178.228033"/>
     <use style="fill:#800080;stroke:#000000;stroke-width:0.2;" x="264.676913" xlink:href="#mde7dedcdae" y="162.064662"/>
     <use style="fill:#800080;stroke:#000000;stroke-width:0.2;" x="291.909326" xlink:href="#mde7dedcdae" y="150.098592"/>
     <use style="fill:#800080;stroke:#000000;stroke-width:0.2;" x="253.56092" xlink:href="#mde7dedcdae" y="188.041708"/>
     <use style="fill:#800080;stroke:#000000;stroke-width:0.2;" x="306.634284" xlink:href="#mde7dedcdae" y="146.232057"/>
     <use style="fill:#800080;stroke:#000000;stroke-width:0.2;" x="291.298338" xlink:href="#mde7dedcdae" y="167.541988"/>
     <use style="fill:#800080;stroke:#000000;stroke-width:0.2;" x="263.67874" xlink:href="#mde7dedcdae" y="174.409234"/>
     <use style="fill:#800080;stroke:#000000;stroke-width:0.2;" x="318.812397" xlink:href="#mde7dedcdae" y="156.397495"/>
     <use style="fill:#800080;stroke:#000000;stroke-width:0.2;" x="322.799339" xlink:href="#mde7dedcdae" y="131.40464"/>
     <use style="fill:#800080;stroke:#000000;stroke-width:0.2;" x="265.694848" xlink:href="#mde7dedcdae" y="213.235618"/>
     <use style="fill:#800080;stroke:#000000;stroke-width:0.2;" x="299.847389" xlink:href="#mde7dedcdae" y="173.946479"/>
     <use style="fill:#800080;stroke:#000000;stroke-width:0.2;" x="241.181357" xlink:href="#mde7dedcdae" y="229.506364"/>
     <use style="fill:#800080;stroke:#000000;stroke-width:0.2;" x="282.529793" xlink:href="#mde7dedcdae" y="179.452748"/>
     <use style="fill:#800080;stroke:#000000;stroke-width:0.2;" x="297.146838" xlink:href="#mde7dedcdae" y="200.605228"/>
     <use style="fill:#800080;stroke:#000000;stroke-width:0.2;" x="335.281291" xlink:href="#mde7dedcdae" y="126.819235"/>
     <use style="fill:#800080;stroke:#000000;stroke-width:0.2;" x="312.285352" xlink:href="#mde7dedcdae" y="129.542988"/>
     <use style="fill:#800080;stroke:#000000;stroke-width:0.2;" x="336.843675" xlink:href="#mde7dedcdae" y="140.32433"/>
    </g>
   </g>
   <g id="line2d_28">
    <defs>
     <path d="M 0 4 
C 1.060812 4 2.078319 3.578535 2.828427 2.828427 
C 3.578535 2.078319 4 1.060812 4 0 
C 4 -1.060812 3.578535 -2.078319 2.828427 -2.828427 
C 2.078319 -3.578535 1.060812 -4 0 -4 
C -1.060812 -4 -2.078319 -3.578535 -2.828427 -2.828427 
C -3.578535 -2.078319 -4 -1.060812 -4 0 
C -4 1.060812 -3.578535 2.078319 -2.828427 2.828427 
C -2.078319 3.578535 -1.060812 4 0 4 
z
" id="m20073edab5" style="stroke:#000000;stroke-width:0.2;"/>
    </defs>
    <g clip-path="url(#p773bd77521)">
     <use style="fill:#6495ed;stroke:#000000;stroke-width:0.2;" x="361.788343" xlink:href="#m20073edab5" y="144.375561"/>
     <use style="fill:#6495ed;stroke:#000000;stroke-width:0.2;" x="383.018792" xlink:href="#m20073edab5" y="59.415995"/>
     <use style="fill:#6495ed;stroke:#000000;stroke-width:0.2;" x="349.131155" xlink:href="#m20073edab5" y="197.24759"/>
     <use style="fill:#6495ed;stroke:#000000;stroke-width:0.2;" x="305.528613" xlink:href="#m20073edab5" y="211.05229"/>
     <use style="fill:#6495ed;stroke:#000000;stroke-width:0.2;" x="327.536286" xlink:href="#m20073edab5" y="81.096023"/>
     <use style="fill:#6495ed;stroke:#000000;stroke-width:0.2;" x="386.201141" xlink:href="#m20073edab5" y="41.024348"/>
     <use style="fill:#6495ed;stroke:#000000;stroke-width:0.2;" x="298.422768" xlink:href="#m20073edab5" y="186.353908"/>
     <use style="fill:#6495ed;stroke:#000000;stroke-width:0.2;" x="334.811786" xlink:href="#m20073edab5" y="200.665212"/>
     <use style="fill:#6495ed;stroke:#000000;stroke-width:0.2;" x="360.839378" xlink:href="#m20073edab5" y="147.66023"/>
     <use style="fill:#6495ed;stroke:#000000;stroke-width:0.2;" x="310.22227" xlink:href="#m20073edab5" y="157.639317"/>
     <use style="fill:#6495ed;stroke:#000000;stroke-width:0.2;" x="260.76958" xlink:href="#m20073edab5" y="281.42536"/>
     <use style="fill:#6495ed;stroke:#000000;stroke-width:0.2;" x="258.305766" xlink:href="#m20073edab5" y="263.343885"/>
     <use style="fill:#6495ed;stroke:#000000;stroke-width:0.2;" x="253.633912" xlink:href="#m20073edab5" y="307.447335"/>
     <use style="fill:#6495ed;stroke:#000000;stroke-width:0.2;" x="233.182018" xlink:href="#m20073edab5" y="268.896994"/>
     <use style="fill:#6495ed;stroke:#000000;stroke-width:0.2;" x="285.849801" xlink:href="#m20073edab5" y="215.695014"/>
     <use style="fill:#6495ed;stroke:#000000;stroke-width:0.2;" x="308.416098" xlink:href="#m20073edab5" y="206.568878"/>
     <use style="fill:#6495ed;stroke:#000000;stroke-width:0.2;" x="271.382464" xlink:href="#m20073edab5" y="260.627426"/>
     <use style="fill:#6495ed;stroke:#000000;stroke-width:0.2;" x="285.337328" xlink:href="#m20073edab5" y="266.012073"/>
     <use style="fill:#6495ed;stroke:#000000;stroke-width:0.2;" x="253.982608" xlink:href="#m20073edab5" y="264.899322"/>
     <use style="fill:#6495ed;stroke:#000000;stroke-width:0.2;" x="247.107606" xlink:href="#m20073edab5" y="273.01206"/>
     <use style="fill:#6495ed;stroke:#000000;stroke-width:0.2;" x="262.711507" xlink:href="#m20073edab5" y="256.173336"/>
     <use style="fill:#6495ed;stroke:#000000;stroke-width:0.2;" x="296.827246" xlink:href="#m20073edab5" y="223.288156"/>
    </g>
   </g>
   <g id="patch_3">
    <path d="M 51.022969 337.973908 
L 51.022969 11.813908 
" style="fill:none;stroke:#cccccc;stroke-linecap:square;stroke-linejoin:miter;"/>
   </g>
   <g id="patch_4">
    <path d="M 452.782969 337.973908 
L 452.782969 11.813908 
" style="fill:none;stroke:#cccccc;stroke-linecap:square;stroke-linejoin:miter;"/>
   </g>
   <g id="patch_5">
    <path d="M 51.022969 337.973908 
L 452.782969 337.973908 
" style="fill:none;stroke:#cccccc;stroke-linecap:square;stroke-linejoin:miter;"/>
   </g>
   <g id="patch_6">
    <path d="M 51.022969 11.813908 
L 452.782969 11.813908 
" style="fill:none;stroke:#cccccc;stroke-linecap:square;stroke-linejoin:miter;"/>
   </g>
   <g id="text_15">
    <!-- R$^2$ = 0.80 -->
    <defs>
     <path d="M 18.59375 31.78125 
L 42.59375 31.78125 
C 50.90625 31.78125 54.59375 27.71875 54.59375 18.546875 
L 54.5 11.90625 
C 54.5 7.3125 55.296875 2.828125 56.59375 -0.21875 
L 67.90625 -0.21875 
L 67.90625 2.125 
C 64.40625 4.5625 63.703125 7.21875 63.5 17.078125 
C 63.40625 29.265625 61.5 32.9375 53.59375 36.390625 
C 61.796875 40.359375 65.09375 45.40625 65.09375 53.65625 
C 65.09375 66.140625 57.203125 73 42.90625 73 
L 9.296875 73 
L 9.296875 -0.21875 
L 18.59375 -0.21875 
z
M 18.59375 40 
L 18.59375 64.78125 
L 41.09375 64.78125 
C 46.296875 64.78125 49.296875 64 51.59375 62.015625 
C 54.09375 59.9375 55.40625 56.6875 55.40625 52.34375 
C 55.40625 43.84375 51 40 41.09375 40 
z
" id="Nimbus_Sans_L_Regular-82"/>
     <path d="M 53.40625 35.015625 
L 5 35.015625 
L 5 28 
L 53.40625 28 
z
M 53.40625 18 
L 5 18 
L 5 11 
L 53.40625 11 
z
" id="Nimbus_Sans_L_Regular-61"/>
    </defs>
    <g style="fill:#ff8c00;" transform="translate(389.709246 332.47993)scale(0.14 -0.14)">
     <use transform="scale(0.996264)" xlink:href="#Nimbus_Sans_L_Regular-82"/>
     <use transform="translate(71.929985 36.153639)scale(0.697382)" xlink:href="#Nimbus_Sans_L_Regular-50"/>
     <use transform="translate(138.897287 0)scale(0.996264)" xlink:href="#Nimbus_Sans_L_Regular-61"/>
     <use transform="translate(224.773949 0)scale(0.996264)" xlink:href="#Nimbus_Sans_L_Regular-48"/>
     <use transform="translate(280.165626 0)scale(0.996264)" xlink:href="#Nimbus_Sans_L_Regular-46"/>
     <use transform="translate(307.860796 0)scale(0.996264)" xlink:href="#Nimbus_Sans_L_Regular-56"/>
     <use transform="translate(363.252473 0)scale(0.996264)" xlink:href="#Nimbus_Sans_L_Regular-48"/>
    </g>
   </g>
   <g id="text_16">
    <!-- R$^2$ = 0.53 -->
    <defs>
     <path d="M 47.59375 71 
L 11 71 
L 5.703125 32.59375 
L 13.796875 32.59375 
C 17.90625 37.484375 21.296875 39.1875 26.796875 39.1875 
C 36.296875 39.1875 42.296875 32.6875 42.296875 22.203125 
C 42.296875 12 36.40625 5.8125 26.796875 5.8125 
C 19.09375 5.8125 14.40625 9.703125 12.296875 17.703125 
L 3.5 17.703125 
C 4.703125 11.90625 5.703125 9.09375 7.796875 6.484375 
C 11.796875 1.09375 19 -2 27 -2 
C 41.296875 -2 51.296875 8.390625 51.296875 23.390625 
C 51.296875 37.40625 42 47 28.40625 47 
C 23.40625 47 19.40625 45.703125 15.296875 42.6875 
L 18.09375 62.296875 
L 47.59375 62.296875 
z
" id="Nimbus_Sans_L_Regular-53"/>
     <path d="M 22.09375 33 
L 23.203125 33 
L 26.90625 33 
C 36.59375 33 41.59375 28.59375 41.59375 20.0625 
C 41.59375 11.125 36.09375 5.8125 26.90625 5.8125 
C 17.296875 5.8125 12.59375 10.640625 12 21.015625 
L 3.203125 21.015625 
C 3.59375 15.28125 4.59375 11.5625 6.296875 8.34375 
C 9.90625 1.515625 16.90625 -2 26.59375 -2 
C 41.203125 -2 50.59375 6.734375 50.59375 20.203125 
C 50.59375 29.25 47.09375 34.28125 38.59375 37.203125 
C 45.203125 39.78125 48.5 44.71875 48.5 51.734375 
C 48.5 63.78125 40.40625 71 26.90625 71 
C 12.59375 71 5 63.28125 4.703125 48.359375 
L 13.5 48.359375 
C 13.59375 52.59375 14 54.953125 15.09375 57.109375 
C 17.09375 60.9375 21.5 63.296875 27 63.296875 
C 34.796875 63.296875 39.5 58.75 39.5 51.359375 
C 39.5 46.421875 37.703125 43.453125 33.796875 41.890625 
C 31.40625 40.90625 28.296875 40.5 22.09375 40.5 
z
" id="Nimbus_Sans_L_Regular-51"/>
    </defs>
    <g style="fill:#800080;" transform="translate(389.709246 316.17193)scale(0.14 -0.14)">
     <use transform="scale(0.996264)" xlink:href="#Nimbus_Sans_L_Regular-82"/>
     <use transform="translate(71.929985 36.153639)scale(0.697382)" xlink:href="#Nimbus_Sans_L_Regular-50"/>
     <use transform="translate(138.897287 0)scale(0.996264)" xlink:href="#Nimbus_Sans_L_Regular-61"/>
     <use transform="translate(224.773949 0)scale(0.996264)" xlink:href="#Nimbus_Sans_L_Regular-48"/>
     <use transform="translate(280.165626 0)scale(0.996264)" xlink:href="#Nimbus_Sans_L_Regular-46"/>
     <use transform="translate(307.860796 0)scale(0.996264)" xlink:href="#Nimbus_Sans_L_Regular-53"/>
     <use transform="translate(363.252473 0)scale(0.996264)" xlink:href="#Nimbus_Sans_L_Regular-51"/>
    </g>
   </g>
   <g id="text_17">
    <!-- R$^2$ = 0.72 -->
    <g style="fill:#6495ed;" transform="translate(389.709246 299.86393)scale(0.14 -0.14)">
     <use transform="scale(0.996264)" xlink:href="#Nimbus_Sans_L_Regular-82"/>
     <use transform="translate(71.929985 36.153639)scale(0.697382)" xlink:href="#Nimbus_Sans_L_Regular-50"/>
     <use transform="translate(138.897287 0)scale(0.996264)" xlink:href="#Nimbus_Sans_L_Regular-61"/>
     <use transform="translate(224.773949 0)scale(0.996264)" xlink:href="#Nimbus_Sans_L_Regular-48"/>
     <use transform="translate(280.165626 0)scale(0.996264)" xlink:href="#Nimbus_Sans_L_Regular-46"/>
     <use transform="translate(307.860796 0)scale(0.996264)" xlink:href="#Nimbus_Sans_L_Regular-55"/>
     <use transform="translate(363.252473 0)scale(0.996264)" xlink:href="#Nimbus_Sans_L_Regular-50"/>
    </g>
   </g>
   <g id="text_18">
    <g id="patch_7">
     <path d="M 54.980569 52.959131 
L 220.107177 52.959131 
L 220.107177 15.015508 
L 54.980569 15.015508 
z
" style="fill:#ffffff;stroke:#ffffff;stroke-linejoin:miter;stroke-width:0.39;"/>
    </g>
    <!-- RMSE = 2.10 [1.90, 2.29] -->
    <defs>
     <path d="M 46.796875 -0.03125 
L 67.296875 61.171875 
L 67.296875 -0.03125 
L 76.09375 -0.03125 
L 76.09375 73 
L 63.203125 73 
L 42 9.390625 
L 20.40625 73 
L 7.5 73 
L 7.5 -0.03125 
L 16.296875 -0.03125 
L 16.296875 61.171875 
L 37 -0.03125 
z
" id="Nimbus_Sans_L_Regular-77"/>
     <path d="M 59.59375 52.109375 
C 59.5 66.484375 49.703125 74.8125 32.90625 74.8125 
C 16.90625 74.8125 7 66.5625 7 53.28125 
C 7 44.328125 11.703125 38.703125 21.296875 36.1875 
L 39.40625 31.359375 
C 48.59375 28.9375 52.796875 25.21875 52.796875 19.484375 
C 52.796875 15.546875 50.703125 11.53125 47.59375 9.328125 
C 44.703125 7.3125 40.09375 6.203125 34.203125 6.203125 
C 26.296875 6.203125 20.90625 8.125 17.40625 12.34375 
C 14.703125 15.5625 13.5 19.09375 13.59375 23.609375 
L 4.796875 23.609375 
C 4.90625 16.890625 6.203125 12.46875 9.09375 8.4375 
C 14.09375 1.609375 22.5 -2 33.59375 -2 
C 42.296875 -2 49.40625 0.015625 54.09375 3.625 
C 59 7.546875 62.09375 14.078125 62.09375 20.421875 
C 62.09375 29.46875 56.5 36.109375 46.59375 38.828125 
L 28.296875 43.765625 
C 19.5 46.171875 16.296875 48.984375 16.296875 54.625 
C 16.296875 62.0625 22.796875 67 32.59375 67 
C 44.203125 67 50.703125 61.671875 50.796875 52.109375 
z
" id="Nimbus_Sans_L_Regular-83"/>
     <path d="M 18.296875 33 
L 58 33 
L 58 41.21875 
L 18.296875 41.21875 
L 18.296875 64.78125 
L 59.5 64.78125 
L 59.5 73 
L 9 73 
L 9 0 
L 61.296875 0 
L 61.296875 8.21875 
L 18.296875 8.21875 
z
" id="Nimbus_Sans_L_Regular-69"/>
     <path d="M 25 73 
L 6.40625 73 
L 6.40625 -21.203125 
L 25 -21.203125 
L 25 -14 
L 14.703125 -14 
L 14.703125 65.78125 
L 25 65.78125 
z
" id="Nimbus_Sans_L_Regular-91"/>
     <path d="M 5.296875 16.625 
C 7 4.9375 14.59375 -2 25.40625 -2 
C 33.203125 -2 40.296875 1.78125 44.40625 8.0625 
C 48.90625 14.9375 50.90625 23.625 50.90625 36.484375 
C 50.90625 48.359375 49.09375 55.9375 44.90625 62.21875 
C 41 67.921875 34.796875 71 27 71 
C 13.5 71 3.796875 61.078125 3.796875 47.296875 
C 3.796875 34.21875 12.796875 25 25.59375 25 
C 32.296875 25 37.203125 27.40625 41.796875 32.90625 
C 41.703125 15.484375 36.09375 5.8125 26 5.8125 
C 19.796875 5.8125 15.5 9.75 14.09375 16.625 
z
M 26.90625 63.296875 
C 35.09375 63.296875 41.296875 56.59375 41.296875 47.515625 
C 41.296875 38.921875 35.203125 32.8125 26.59375 32.8125 
C 18.09375 32.8125 12.796875 38.625 12.796875 48 
C 12.796875 56.875 18.796875 63.296875 26.90625 63.296875 
z
" id="Nimbus_Sans_L_Regular-57"/>
     <path d="M 8.703125 10 
L 8.703125 -0.421875 
L 14.703125 -0.421875 
L 14.703125 -2.21875 
C 14.703125 -9.109375 13.40625 -11.09375 8.703125 -11.09375 
L 8.703125 -15 
C 15.703125 -15 19.203125 -10.53125 19.203125 -1.96875 
L 19.203125 10 
z
" id="Nimbus_Sans_L_Regular-44"/>
     <path d="M 2.296875 -21.203125 
L 20.90625 -21.203125 
L 20.90625 73 
L 2.296875 73 
L 2.296875 65.78125 
L 12.59375 65.78125 
L 12.59375 -14 
L 2.296875 -14 
z
" id="Nimbus_Sans_L_Regular-93"/>
    </defs>
    <g style="fill:#262626;" transform="translate(59.040569 29.013157)scale(0.14 -0.14)">
     <use transform="scale(0.996264)" xlink:href="#Nimbus_Sans_L_Regular-82"/>
     <use transform="translate(71.929985 0)scale(0.996264)" xlink:href="#Nimbus_Sans_L_Regular-77"/>
     <use transform="translate(154.918415 0)scale(0.996264)" xlink:href="#Nimbus_Sans_L_Regular-83"/>
     <use transform="translate(221.368446 0)scale(0.996264)" xlink:href="#Nimbus_Sans_L_Regular-69"/>
     <use transform="translate(315.513647 0)scale(0.996264)" xlink:href="#Nimbus_Sans_L_Regular-61"/>
     <use transform="translate(401.390309 0)scale(0.996264)" xlink:href="#Nimbus_Sans_L_Regular-50"/>
     <use transform="translate(456.781986 0)scale(0.996264)" xlink:href="#Nimbus_Sans_L_Regular-46"/>
     <use transform="translate(484.477156 0)scale(0.996264)" xlink:href="#Nimbus_Sans_L_Regular-49"/>
     <use transform="translate(539.868833 0)scale(0.996264)" xlink:href="#Nimbus_Sans_L_Regular-48"/>
     <use transform="translate(622.95568 0)scale(0.996264)" xlink:href="#Nimbus_Sans_L_Regular-91"/>
     <use transform="translate(650.650849 0)scale(0.996264)" xlink:href="#Nimbus_Sans_L_Regular-49"/>
     <use transform="translate(706.042526 0)scale(0.996264)" xlink:href="#Nimbus_Sans_L_Regular-46"/>
     <use transform="translate(733.737696 0)scale(0.996264)" xlink:href="#Nimbus_Sans_L_Regular-57"/>
     <use transform="translate(789.129373 0)scale(0.996264)" xlink:href="#Nimbus_Sans_L_Regular-48"/>
     <use transform="translate(844.52105 0)scale(0.996264)" xlink:href="#Nimbus_Sans_L_Regular-44"/>
     <use transform="translate(899.911389 0)scale(0.996264)" xlink:href="#Nimbus_Sans_L_Regular-50"/>
     <use transform="translate(955.303066 0)scale(0.996264)" xlink:href="#Nimbus_Sans_L_Regular-46"/>
     <use transform="translate(982.998235 0)scale(0.996264)" xlink:href="#Nimbus_Sans_L_Regular-50"/>
     <use transform="translate(1038.389912 0)scale(0.996264)" xlink:href="#Nimbus_Sans_L_Regular-57"/>
     <use transform="translate(1093.781589 0)scale(0.996264)" xlink:href="#Nimbus_Sans_L_Regular-93"/>
    </g>
    <!-- R$^2$ = 0.63 [0.50, 0.74] -->
    <g style="fill:#262626;" transform="translate(59.040569 45.928353)scale(0.14 -0.14)">
     <use transform="scale(0.996264)" xlink:href="#Nimbus_Sans_L_Regular-82"/>
     <use transform="translate(71.929985 36.153639)scale(0.697382)" xlink:href="#Nimbus_Sans_L_Regular-50"/>
     <use transform="translate(138.897287 0)scale(0.996264)" xlink:href="#Nimbus_Sans_L_Regular-61"/>
     <use transform="translate(224.773949 0)scale(0.996264)" xlink:href="#Nimbus_Sans_L_Regular-48"/>
     <use transform="translate(280.165626 0)scale(0.996264)" xlink:href="#Nimbus_Sans_L_Regular-46"/>
     <use transform="translate(307.860796 0)scale(0.996264)" xlink:href="#Nimbus_Sans_L_Regular-54"/>
     <use transform="translate(363.252473 0)scale(0.996264)" xlink:href="#Nimbus_Sans_L_Regular-51"/>
     <use transform="translate(446.33932 0)scale(0.996264)" xlink:href="#Nimbus_Sans_L_Regular-91"/>
     <use transform="translate(474.034489 0)scale(0.996264)" xlink:href="#Nimbus_Sans_L_Regular-48"/>
     <use transform="translate(529.426166 0)scale(0.996264)" xlink:href="#Nimbus_Sans_L_Regular-46"/>
     <use transform="translate(557.121336 0)scale(0.996264)" xlink:href="#Nimbus_Sans_L_Regular-53"/>
     <use transform="translate(612.513013 0)scale(0.996264)" xlink:href="#Nimbus_Sans_L_Regular-48"/>
     <use transform="translate(667.90469 0)scale(0.996264)" xlink:href="#Nimbus_Sans_L_Regular-44"/>
     <use transform="translate(723.295029 0)scale(0.996264)" xlink:href="#Nimbus_Sans_L_Regular-48"/>
     <use transform="translate(778.686706 0)scale(0.996264)" xlink:href="#Nimbus_Sans_L_Regular-46"/>
     <use transform="translate(806.381875 0)scale(0.996264)" xlink:href="#Nimbus_Sans_L_Regular-55"/>
     <use transform="translate(861.773552 0)scale(0.996264)" xlink:href="#Nimbus_Sans_L_Regular-52"/>
     <use transform="translate(917.165229 0)scale(0.996264)" xlink:href="#Nimbus_Sans_L_Regular-93"/>
    </g>
   </g>
  </g>
 </g>
 <defs>
  <clipPath id="p773bd77521">
   <rect height="326.16" width="401.76" x="51.022969" y="11.813908"/>
  </clipPath>
 </defs>
</svg>
