<?xml version="1.0" encoding="utf-8" standalone="no"?>
<!DOCTYPE svg PUBLIC "-//W3C//DTD SVG 1.1//EN"
  "http://www.w3.org/Graphics/SVG/1.1/DTD/svg11.dtd">
<!-- Created with matplotlib (http://matplotlib.org/) -->
<svg height="400pt" version="1.1" viewBox="0 0 460 400" width="460pt" xmlns="http://www.w3.org/2000/svg" xmlns:xlink="http://www.w3.org/1999/xlink">
 <defs>
  <style type="text/css">
*{stroke-linecap:butt;stroke-linejoin:round;}
  </style>
 </defs>
 <g id="figure_1">
  <g id="patch_1">
   <path d="M 0 400.20706 
L 460.710876 400.20706 
L 460.710876 0 
L 0 0 
z
" style="fill:#ffffff;"/>
  </g>
  <g id="axes_1">
   <g id="patch_2">
    <path d="M 51.750876 350.433374 
L 453.510876 350.433374 
L 453.510876 24.273374 
L 51.750876 24.273374 
z
" style="fill:#ffffff;"/>
   </g>
   <g id="matplotlib.axis_1">
    <g id="xtick_1">
     <g id="line2d_1">
      <path clip-path="url(#pc1c5a5ea36)" d="M 70.012695 350.433374 
L 70.012695 24.273374 
" style="fill:none;stroke:#cccccc;stroke-linecap:round;stroke-width:1.3;"/>
     </g>
     <g id="line2d_2"/>
     <g id="text_1">
      <!-- $-\pi$ -->
      <defs>
       <path d="M 65.90625 23 
C 67.59375 23 69.40625 23 69.40625 25 
C 69.40625 27 67.59375 27 65.90625 27 
L 11.796875 27 
C 10.09375 27 8.296875 27 8.296875 25 
C 8.296875 23 10.09375 23 11.796875 23 
z
" id="CMSY10-0"/>
       <path d="M 18.59375 45.453125 
C 12.796875 45.453125 6.703125 45.453125 4.90625 39.703125 
L 2.09375 28.515625 
L 4.203125 27.625 
L 6 32.171875 
C 8.296875 38 10.90625 39 15.796875 39 
L 23.203125 39 
C 20.703125 27.90625 15.296875 13.765625 8.59375 2.28125 
L 8.703125 1 
L 14.203125 -0.5 
L 15.296875 0.5 
C 19.703125 13.171875 24.203125 26.125 26.90625 39 
L 41.203125 39 
L 41.796875 38.40625 
C 40.796875 30.484375 40.203125 22.5625 40.203125 14.546875 
C 40.203125 10.09375 40.40625 3.859375 43.296875 1.1875 
C 44.5 0 46.703125 0 48.59375 0 
C 52.703125 0 56.796875 3.1875 59.90625 5.96875 
L 58.90625 7.65625 
L 58.296875 7.84375 
C 56.796875 6.859375 55.203125 6.265625 53.40625 6.265625 
C 46.90625 6.265625 47.09375 19.015625 47.09375 27.921875 
C 47.09375 31.296875 47.5 34.859375 47.703125 38.3125 
L 48.40625 39 
C 52.203125 39 55.90625 40.109375 59.296875 41.71875 
L 62.796875 47.640625 
L 62 48.34375 
C 58.59375 46.46875 54.796875 45.453125 50.90625 45.453125 
z
" id="EURM10-25"/>
      </defs>
      <g style="fill:#262626;" transform="translate(61.032097 368.76119)scale(0.13 -0.13)">
       <use transform="scale(0.996264)" xlink:href="#CMSY10-0"/>
       <use transform="translate(77.487468 0)scale(0.996264)" xlink:href="#EURM10-25"/>
      </g>
     </g>
    </g>
    <g id="xtick_2">
     <g id="line2d_3">
      <path clip-path="url(#pc1c5a5ea36)" d="M 161.321785 350.433374 
L 161.321785 24.273374 
" style="fill:none;stroke:#cccccc;stroke-linecap:round;stroke-width:1.3;"/>
     </g>
     <g id="line2d_4"/>
     <g id="text_2">
      <!-- $-\frac{1}{2}\pi{}$ -->
      <defs>
       <path d="M 25.90625 50.59375 
L 25.90625 0 
L 34.703125 0 
L 34.703125 71.015625 
L 28.90625 71.015625 
C 25.796875 60.109375 23.796875 58.609375 10.203125 56.90625 
L 10.203125 50.59375 
z
" id="Nimbus_Sans_L_Regular-49"/>
       <path d="M 50.59375 8.71875 
L 13.296875 8.71875 
C 14.203125 14.53125 17.40625 18.234375 26.09375 23.34375 
L 36.09375 28.75 
C 46 34.15625 51.09375 41.453125 51.09375 50.171875 
C 51.09375 56.078125 48.703125 61.59375 44.5 65.390625 
C 40.296875 69.203125 35.09375 71 28.40625 71 
C 19.40625 71 12.703125 67.796875 8.796875 61.796875 
C 6.296875 57.984375 5.203125 53.578125 5 46.359375 
L 13.796875 46.359375 
C 14.09375 51.171875 14.703125 54.078125 15.90625 56.375 
C 18.203125 60.6875 22.796875 63.296875 28.09375 63.296875 
C 36.09375 63.296875 42.09375 57.578125 42.09375 49.96875 
C 42.09375 44.359375 38.796875 39.546875 32.5 35.953125 
L 23.296875 30.75 
C 8.5 22.34375 4.203125 15.625 3.40625 0 
L 50.59375 0 
z
" id="Nimbus_Sans_L_Regular-50"/>
      </defs>
      <g style="fill:#262626;" transform="translate(148.625371 372.799802)scale(0.13 -0.13)">
       <use transform="translate(0 34.355253)scale(0.996264)" xlink:href="#CMSY10-0"/>
       <use transform="translate(78.682981 73.581354)scale(0.697382)" xlink:href="#Nimbus_Sans_L_Regular-49"/>
       <use transform="translate(78.682981 0)scale(0.697382)" xlink:href="#Nimbus_Sans_L_Regular-50"/>
       <use transform="translate(118.652496 34.355253)scale(0.996264)" xlink:href="#EURM10-25"/>
       <path d="M 78.682981 58.766138 
L 117.456982 58.766138 
L 117.456982 59.757583 
L 78.682981 59.757583 
L 78.682981 58.766138 
z
"/>
      </g>
     </g>
    </g>
    <g id="xtick_3">
     <g id="line2d_5">
      <path clip-path="url(#pc1c5a5ea36)" d="M 252.630876 350.433374 
L 252.630876 24.273374 
" style="fill:none;stroke:#cccccc;stroke-linecap:round;stroke-width:1.3;"/>
     </g>
     <g id="line2d_6"/>
     <g id="text_3">
      <!-- $0$ -->
      <defs>
       <path d="M 27.5 71 
C 20.90625 71 14.90625 68.125 11.203125 63.21875 
C 6.59375 57.046875 4.296875 47.5625 4.296875 34.5 
C 4.296875 10.671875 12.296875 -2 27.5 -2 
C 42.5 -2 50.703125 10.671875 50.703125 33.90625 
C 50.703125 47.65625 48.5 56.84375 43.796875 63.21875 
C 40.09375 68.21875 34.203125 71 27.5 71 
z
M 27.5 63.1875 
C 37 63.1875 41.703125 53.625 41.703125 34.703125 
C 41.703125 14.671875 37.09375 5.3125 27.296875 5.3125 
C 18 5.3125 13.296875 15.078125 13.296875 34.40625 
C 13.296875 53.71875 18 63.1875 27.5 63.1875 
z
" id="Nimbus_Sans_L_Regular-48"/>
      </defs>
      <g style="fill:#262626;" transform="translate(249.030418 368.76119)scale(0.13 -0.13)">
       <use transform="scale(0.996264)" xlink:href="#Nimbus_Sans_L_Regular-48"/>
      </g>
     </g>
    </g>
    <g id="xtick_4">
     <g id="line2d_7">
      <path clip-path="url(#pc1c5a5ea36)" d="M 343.939967 350.433374 
L 343.939967 24.273374 
" style="fill:none;stroke:#cccccc;stroke-linecap:round;stroke-width:1.3;"/>
     </g>
     <g id="line2d_8"/>
     <g id="text_4">
      <!-- $\frac{1}{2}\pi$ -->
      <g style="fill:#262626;" transform="translate(336.877994 372.799802)scale(0.13 -0.13)">
       <use transform="translate(0 73.581354)scale(0.697382)" xlink:href="#Nimbus_Sans_L_Regular-49"/>
       <use transform="scale(0.697382)" xlink:href="#Nimbus_Sans_L_Regular-50"/>
       <use transform="translate(39.969514 34.355253)scale(0.996264)" xlink:href="#EURM10-25"/>
       <path d="M 0 58.766138 
L 38.774001 58.766138 
L 38.774001 59.757583 
L 0 59.757583 
L 0 58.766138 
z
"/>
      </g>
     </g>
    </g>
    <g id="xtick_5">
     <g id="line2d_9">
      <path clip-path="url(#pc1c5a5ea36)" d="M 435.249058 350.433374 
L 435.249058 24.273374 
" style="fill:none;stroke:#cccccc;stroke-linecap:round;stroke-width:1.3;"/>
     </g>
     <g id="line2d_10"/>
     <g id="text_5">
      <!-- $\pi$ -->
      <g style="fill:#262626;" transform="translate(431.305146 368.76119)scale(0.13 -0.13)">
       <use transform="scale(0.996264)" xlink:href="#EURM10-25"/>
      </g>
     </g>
    </g>
    <g id="text_6">
     <!-- Dihedral angle (rad) -->
     <defs>
      <path d="M 8.90625 0 
L 37 0 
C 55.40625 0 66.703125 13.828125 66.703125 36.546875 
C 66.703125 59.171875 55.5 73 37 73 
L 8.90625 73 
z
M 18.203125 8.21875 
L 18.203125 64.78125 
L 35.40625 64.78125 
C 49.796875 64.78125 57.40625 55.0625 57.40625 36.453125 
C 57.40625 18.03125 49.796875 8.21875 35.40625 8.21875 
z
" id="Nimbus_Sans_L_Regular-68"/>
      <path d="M 15 52.484375 
L 6.703125 52.484375 
L 6.703125 0 
L 15 0 
z
M 15 73 
L 6.59375 73 
L 6.59375 62.484375 
L 15 62.484375 
z
" id="Nimbus_Sans_L_Regular-105"/>
      <path d="M 7 73 
L 7 -0.03125 
L 15.296875 -0.03125 
L 15.296875 28.9375 
C 15.296875 39.671875 20.90625 46.6875 29.5 46.6875 
C 32.203125 46.6875 34.90625 45.78125 36.90625 44.28125 
C 39.296875 42.578125 40.296875 40.0625 40.296875 36.359375 
L 40.296875 -0.03125 
L 48.59375 -0.03125 
L 48.59375 39.65625 
C 48.59375 48.484375 42.296875 54 32.09375 54 
C 24.703125 54 20.203125 51.6875 15.296875 45.28125 
L 15.296875 73 
z
" id="Nimbus_Sans_L_Regular-104"/>
      <path d="M 51.296875 23.890625 
C 51.296875 31.78125 50.703125 36.53125 49.203125 40.375 
C 45.796875 48.859375 37.796875 54 28 54 
C 13.40625 54 4 42.84375 4 25.703125 
C 4 8.546875 13.09375 -2 27.796875 -2 
C 39.796875 -2 48.09375 4.84375 50.203125 16.3125 
L 41.796875 16.3125 
C 39.5 9.34375 34.796875 5.703125 28.09375 5.703125 
C 22.796875 5.703125 18.296875 8.125 15.5 12.578125 
C 13.5 15.59375 12.796875 18.640625 12.703125 23.890625 
z
M 12.90625 31 
C 13.59375 40.265625 19.5 46.28125 27.90625 46.28125 
C 36.09375 46.28125 42.40625 39.53125 42.40625 31 
C 42.40625 31 42.40625 31 42.296875 31 
z
" id="Nimbus_Sans_L_Regular-101"/>
      <path d="M 49.5 73 
L 41.203125 73 
L 41.203125 45.890625 
C 37.703125 51.1875 32.09375 54 25.09375 54 
C 11.5 54 2.59375 43.140625 2.59375 26.484375 
C 2.59375 8.84375 11.296875 -2 25.40625 -2 
C 32.59375 -2 37.59375 0.703125 42.09375 7.203125 
L 42.09375 -0.03125 
L 49.5 -0.03125 
z
M 26.5 46.1875 
C 35.5 46.1875 41.203125 38.234375 41.203125 25.796875 
C 41.203125 13.765625 35.40625 5.8125 26.59375 5.8125 
C 17.40625 5.8125 11.296875 13.859375 11.296875 26 
C 11.296875 38.125 17.40625 46.1875 26.5 46.1875 
z
" id="Nimbus_Sans_L_Regular-100"/>
      <path d="M 6.90625 52.484375 
L 6.90625 0 
L 15.296875 0 
L 15.296875 27.203125 
C 15.296875 34.703125 17.203125 39.609375 21.203125 42.5 
C 23.796875 44.40625 26.296875 45 32.09375 45 
L 32.09375 53.625 
C 30.703125 53.8125 30 53.8125 28.90625 53.8125 
C 23.5 53.8125 19.40625 50.625 14.59375 42.90625 
L 14.59375 52.484375 
z
" id="Nimbus_Sans_L_Regular-114"/>
      <path d="M 53.5 5.203125 
C 52.59375 5 52.203125 5 51.703125 5 
C 48.796875 5 47.203125 6.484375 47.203125 9.078125 
L 47.203125 39.765625 
C 47.203125 49.015625 40.40625 54 27.5 54 
C 19.90625 54 13.59375 51.8125 10.09375 47.90625 
C 7.703125 45.203125 6.703125 42.21875 6.5 37.03125 
L 14.90625 37.03125 
C 15.59375 43.390625 19.40625 46.28125 27.203125 46.28125 
C 34.703125 46.28125 38.90625 43.484375 38.90625 38.515625 
L 38.90625 36.328125 
C 38.90625 32.828125 36.796875 31.34375 30.203125 30.546875 
C 18.40625 29.0625 16.59375 28.65625 13.40625 27.359375 
C 7.296875 24.875 4.203125 20.1875 4.203125 13.421875 
C 4.203125 3.96875 10.796875 -2 21.40625 -2 
C 28 -2 33.296875 0.296875 39.203125 5.703125 
C 39.796875 0.390625 42.40625 -2 47.796875 -2 
C 49.5 -2 50.796875 -1.8125 53.5 -1.09375 
z
M 38.90625 16.75 
C 38.90625 13.953125 38.09375 12.265625 35.59375 9.984375 
C 32.203125 6.890625 28.09375 5.3125 23.203125 5.3125 
C 16.703125 5.3125 12.90625 8.390625 12.90625 13.65625 
C 12.90625 19.140625 16.59375 21.921875 25.5 23.21875 
C 34.296875 24.40625 36.09375 24.8125 38.90625 26.09375 
z
" id="Nimbus_Sans_L_Regular-97"/>
      <path d="M 15.203125 73 
L 6.796875 73 
L 6.796875 -0.03125 
L 15.203125 -0.03125 
z
" id="Nimbus_Sans_L_Regular-108"/>
      <path d="M 7 52.484375 
L 7 0 
L 15.40625 0 
L 15.40625 28.953125 
C 15.40625 39.671875 21 46.6875 29.59375 46.6875 
C 36.203125 46.6875 40.40625 42.671875 40.40625 36.359375 
L 40.40625 0 
L 48.703125 0 
L 48.703125 39.671875 
C 48.703125 48.390625 42.203125 54 32.09375 54 
C 24.296875 54 19.296875 50.984375 14.703125 43.6875 
L 14.703125 52.484375 
z
" id="Nimbus_Sans_L_Regular-110"/>
      <path d="M 41.203125 52.203125 
L 41.203125 44.59375 
C 37 50.8125 31.90625 53.71875 25.203125 53.71875 
C 11.90625 53.71875 2.90625 42.0625 2.90625 25 
C 2.90625 16.375 5.203125 9.34375 9.5 4.3125 
C 13.40625 -0.109375 19 -2.703125 24.5 -2.703125 
C 31.09375 -2.703125 35.703125 0.09375 40.40625 6.703125 
L 40.40625 4.03125 
C 40.40625 -3 39.5 -7.265625 37.40625 -10.140625 
C 35.203125 -13.1875 30.90625 -14.984375 25.796875 -14.984375 
C 22 -14.984375 18.59375 -14 16.296875 -12.234375 
C 14.40625 -10.75 13.59375 -9.375 13.09375 -6.34375 
L 4.59375 -6.34375 
C 5.5 -16.140625 13.203125 -22 25.5 -22 
C 33.296875 -22 40 -19.484375 43.40625 -15.296875 
C 47.40625 -10.484375 48.90625 -3.890625 48.90625 8.40625 
L 48.90625 52.203125 
z
M 26.09375 46 
C 35.09375 46 40.40625 38.359375 40.40625 25.203125 
C 40.40625 12.625 35 5 26.203125 5 
C 17.09375 5 11.59375 12.75 11.59375 25.5 
C 11.59375 38.15625 17.203125 46 26.09375 46 
z
" id="Nimbus_Sans_L_Regular-103"/>
      <path d="M 23.59375 73 
C 13.59375 59.84375 7.296875 41.5625 7.296875 25.796875 
C 7.296875 9.9375 13.59375 -8.34375 23.59375 -21.5 
L 29.09375 -21.5 
C 20.296875 -7.140625 15.40625 9.734375 15.40625 25.796875 
C 15.40625 41.765625 20.296875 58.734375 29.09375 73 
z
" id="Nimbus_Sans_L_Regular-40"/>
      <path d="M 9.296875 -21.5 
C 19.296875 -8.34375 25.59375 9.9375 25.59375 25.6875 
C 25.59375 41.5625 19.296875 59.84375 9.296875 73 
L 3.796875 73 
C 12.59375 58.640625 17.5 41.765625 17.5 25.6875 
C 17.5 9.734375 12.59375 -7.25 3.796875 -21.5 
z
" id="Nimbus_Sans_L_Regular-41"/>
     </defs>
     <g style="fill:#262626;" transform="translate(189.832739 389.972617)scale(0.143 -0.143)">
      <use transform="scale(0.996264)" xlink:href="#Nimbus_Sans_L_Regular-68"/>
      <use transform="translate(71.929985 0)scale(0.996264)" xlink:href="#Nimbus_Sans_L_Regular-105"/>
      <use transform="translate(94.046769 0)scale(0.996264)" xlink:href="#Nimbus_Sans_L_Regular-104"/>
      <use transform="translate(149.438446 0)scale(0.996264)" xlink:href="#Nimbus_Sans_L_Regular-101"/>
      <use transform="translate(204.830123 0)scale(0.996264)" xlink:href="#Nimbus_Sans_L_Regular-100"/>
      <use transform="translate(260.2218 0)scale(0.996264)" xlink:href="#Nimbus_Sans_L_Regular-114"/>
      <use transform="translate(292.400933 0)scale(0.996264)" xlink:href="#Nimbus_Sans_L_Regular-97"/>
      <use transform="translate(347.79261 0)scale(0.996264)" xlink:href="#Nimbus_Sans_L_Regular-108"/>
      <use transform="translate(397.604564 0)scale(0.996264)" xlink:href="#Nimbus_Sans_L_Regular-97"/>
      <use transform="translate(452.996241 0)scale(0.996264)" xlink:href="#Nimbus_Sans_L_Regular-110"/>
      <use transform="translate(508.387918 0)scale(0.996264)" xlink:href="#Nimbus_Sans_L_Regular-103"/>
      <use transform="translate(563.779595 0)scale(0.996264)" xlink:href="#Nimbus_Sans_L_Regular-108"/>
      <use transform="translate(585.896379 0)scale(0.996264)" xlink:href="#Nimbus_Sans_L_Regular-101"/>
      <use transform="translate(668.983226 0)scale(0.996264)" xlink:href="#Nimbus_Sans_L_Regular-40"/>
      <use transform="translate(702.158455 0)scale(0.996264)" xlink:href="#Nimbus_Sans_L_Regular-114"/>
      <use transform="translate(734.337588 0)scale(0.996264)" xlink:href="#Nimbus_Sans_L_Regular-97"/>
      <use transform="translate(789.729265 0)scale(0.996264)" xlink:href="#Nimbus_Sans_L_Regular-100"/>
      <use transform="translate(845.120942 0)scale(0.996264)" xlink:href="#Nimbus_Sans_L_Regular-41"/>
     </g>
    </g>
   </g>
   <g id="matplotlib.axis_2">
    <g id="ytick_1">
     <g id="line2d_11">
      <path clip-path="url(#pc1c5a5ea36)" d="M 51.750876 350.666716 
L 453.510876 350.666716 
" style="fill:none;stroke:#cccccc;stroke-linecap:round;stroke-width:1.3;"/>
     </g>
     <g id="line2d_12"/>
     <g id="text_7">
      <!-- $0.0$ -->
      <defs>
       <path d="M 19.09375 10.421875 
L 8.703125 10.421875 
L 8.703125 0 
L 19.09375 0 
z
" id="Nimbus_Sans_L_Regular-46"/>
      </defs>
      <g style="fill:#262626;" transform="translate(24.648682 355.280624)scale(0.13 -0.13)">
       <use transform="scale(0.996264)" xlink:href="#Nimbus_Sans_L_Regular-48"/>
       <use transform="translate(55.391677 0)scale(0.996264)" xlink:href="#Nimbus_Sans_L_Regular-46"/>
       <use transform="translate(83.086847 0)scale(0.996264)" xlink:href="#Nimbus_Sans_L_Regular-48"/>
      </g>
     </g>
    </g>
    <g id="ytick_2">
     <g id="line2d_13">
      <path clip-path="url(#pc1c5a5ea36)" d="M 51.750876 285.626523 
L 453.510876 285.626523 
" style="fill:none;stroke:#cccccc;stroke-linecap:round;stroke-width:1.3;"/>
     </g>
     <g id="line2d_14"/>
     <g id="text_8">
      <!-- $0.1$ -->
      <g style="fill:#262626;" transform="translate(24.648682 290.240431)scale(0.13 -0.13)">
       <use transform="scale(0.996264)" xlink:href="#Nimbus_Sans_L_Regular-48"/>
       <use transform="translate(55.391677 0)scale(0.996264)" xlink:href="#Nimbus_Sans_L_Regular-46"/>
       <use transform="translate(83.086847 0)scale(0.996264)" xlink:href="#Nimbus_Sans_L_Regular-49"/>
      </g>
     </g>
    </g>
    <g id="ytick_3">
     <g id="line2d_15">
      <path clip-path="url(#pc1c5a5ea36)" d="M 51.750876 220.586331 
L 453.510876 220.586331 
" style="fill:none;stroke:#cccccc;stroke-linecap:round;stroke-width:1.3;"/>
     </g>
     <g id="line2d_16"/>
     <g id="text_9">
      <!-- $0.2$ -->
      <g style="fill:#262626;" transform="translate(24.648682 225.200239)scale(0.13 -0.13)">
       <use transform="scale(0.996264)" xlink:href="#Nimbus_Sans_L_Regular-48"/>
       <use transform="translate(55.391677 0)scale(0.996264)" xlink:href="#Nimbus_Sans_L_Regular-46"/>
       <use transform="translate(83.086847 0)scale(0.996264)" xlink:href="#Nimbus_Sans_L_Regular-50"/>
      </g>
     </g>
    </g>
    <g id="ytick_4">
     <g id="line2d_17">
      <path clip-path="url(#pc1c5a5ea36)" d="M 51.750876 155.546138 
L 453.510876 155.546138 
" style="fill:none;stroke:#cccccc;stroke-linecap:round;stroke-width:1.3;"/>
     </g>
     <g id="line2d_18"/>
     <g id="text_10">
      <!-- $0.3$ -->
      <defs>
       <path d="M 22.09375 33 
L 23.203125 33 
L 26.90625 33 
C 36.59375 33 41.59375 28.59375 41.59375 20.0625 
C 41.59375 11.125 36.09375 5.8125 26.90625 5.8125 
C 17.296875 5.8125 12.59375 10.640625 12 21.015625 
L 3.203125 21.015625 
C 3.59375 15.28125 4.59375 11.5625 6.296875 8.34375 
C 9.90625 1.515625 16.90625 -2 26.59375 -2 
C 41.203125 -2 50.59375 6.734375 50.59375 20.203125 
C 50.59375 29.25 47.09375 34.28125 38.59375 37.203125 
C 45.203125 39.78125 48.5 44.71875 48.5 51.734375 
C 48.5 63.78125 40.40625 71 26.90625 71 
C 12.59375 71 5 63.28125 4.703125 48.359375 
L 13.5 48.359375 
C 13.59375 52.59375 14 54.953125 15.09375 57.109375 
C 17.09375 60.9375 21.5 63.296875 27 63.296875 
C 34.796875 63.296875 39.5 58.75 39.5 51.359375 
C 39.5 46.421875 37.703125 43.453125 33.796875 41.890625 
C 31.40625 40.90625 28.296875 40.5 22.09375 40.5 
z
" id="Nimbus_Sans_L_Regular-51"/>
      </defs>
      <g style="fill:#262626;" transform="translate(24.648682 160.160046)scale(0.13 -0.13)">
       <use transform="scale(0.996264)" xlink:href="#Nimbus_Sans_L_Regular-48"/>
       <use transform="translate(55.391677 0)scale(0.996264)" xlink:href="#Nimbus_Sans_L_Regular-46"/>
       <use transform="translate(83.086847 0)scale(0.996264)" xlink:href="#Nimbus_Sans_L_Regular-51"/>
      </g>
     </g>
    </g>
    <g id="ytick_5">
     <g id="line2d_19">
      <path clip-path="url(#pc1c5a5ea36)" d="M 51.750876 90.505945 
L 453.510876 90.505945 
" style="fill:none;stroke:#cccccc;stroke-linecap:round;stroke-width:1.3;"/>
     </g>
     <g id="line2d_20"/>
     <g id="text_11">
      <!-- $0.4$ -->
      <defs>
       <path d="M 32.703125 17 
L 32.703125 0 
L 41.5 0 
L 41.5 17 
L 52 17 
L 52 24.90625 
L 41.5 24.90625 
L 41.5 71.015625 
L 35 71.015625 
L 2.796875 26.3125 
L 2.796875 17 
z
M 32.703125 24.90625 
L 10.5 24.90625 
L 32.703125 55.984375 
z
" id="Nimbus_Sans_L_Regular-52"/>
      </defs>
      <g style="fill:#262626;" transform="translate(24.648682 95.119854)scale(0.13 -0.13)">
       <use transform="scale(0.996264)" xlink:href="#Nimbus_Sans_L_Regular-48"/>
       <use transform="translate(55.391677 0)scale(0.996264)" xlink:href="#Nimbus_Sans_L_Regular-46"/>
       <use transform="translate(83.086847 0)scale(0.996264)" xlink:href="#Nimbus_Sans_L_Regular-52"/>
      </g>
     </g>
    </g>
    <g id="ytick_6">
     <g id="line2d_21">
      <path clip-path="url(#pc1c5a5ea36)" d="M 51.750876 25.465753 
L 453.510876 25.465753 
" style="fill:none;stroke:#cccccc;stroke-linecap:round;stroke-width:1.3;"/>
     </g>
     <g id="line2d_22"/>
     <g id="text_12">
      <!-- $0.5$ -->
      <defs>
       <path d="M 47.59375 71 
L 11 71 
L 5.703125 32.59375 
L 13.796875 32.59375 
C 17.90625 37.484375 21.296875 39.1875 26.796875 39.1875 
C 36.296875 39.1875 42.296875 32.6875 42.296875 22.203125 
C 42.296875 12 36.40625 5.8125 26.796875 5.8125 
C 19.09375 5.8125 14.40625 9.703125 12.296875 17.703125 
L 3.5 17.703125 
C 4.703125 11.90625 5.703125 9.09375 7.796875 6.484375 
C 11.796875 1.09375 19 -2 27 -2 
C 41.296875 -2 51.296875 8.390625 51.296875 23.390625 
C 51.296875 37.40625 42 47 28.40625 47 
C 23.40625 47 19.40625 45.703125 15.296875 42.6875 
L 18.09375 62.296875 
L 47.59375 62.296875 
z
" id="Nimbus_Sans_L_Regular-53"/>
      </defs>
      <g style="fill:#262626;" transform="translate(24.648682 30.079661)scale(0.13 -0.13)">
       <use transform="scale(0.996264)" xlink:href="#Nimbus_Sans_L_Regular-48"/>
       <use transform="translate(55.391677 0)scale(0.996264)" xlink:href="#Nimbus_Sans_L_Regular-46"/>
       <use transform="translate(83.086847 0)scale(0.996264)" xlink:href="#Nimbus_Sans_L_Regular-53"/>
      </g>
     </g>
    </g>
    <g id="text_13">
     <!-- Dihedral energy (kcal/mol) -->
     <defs>
      <path d="M 38.796875 52.5 
L 24.296875 11.53125 
L 10.90625 52.5 
L 2 52.5 
L 19.703125 -0.328125 
L 16.5 -8.65625 
C 15.203125 -12.375 13.296875 -13.78125 9.796875 -13.78125 
C 8.59375 -13.78125 7.203125 -13.578125 5.40625 -13.171875 
L 5.40625 -20.703125 
C 7.09375 -21.59375 8.796875 -22 11 -22 
C 13.703125 -22 16.59375 -21.09375 18.796875 -19.484375 
C 21.40625 -17.578125 22.90625 -15.359375 24.5 -11.140625 
L 47.796875 52.5 
z
" id="Nimbus_Sans_L_Regular-121"/>
      <path d="M 14.09375 73 
L 5.796875 73 
L 5.796875 -0.03125 
L 14.09375 -0.03125 
L 14.09375 20.40625 
L 22.203125 28.421875 
L 39.90625 -0.03125 
L 50.203125 -0.03125 
L 28.796875 34.328125 
L 47 52.453125 
L 36.296875 52.453125 
L 14.09375 30.21875 
z
" id="Nimbus_Sans_L_Regular-107"/>
      <path d="M 47.09375 34.9375 
C 46.703125 40.03125 45.59375 43.328125 43.59375 46.21875 
C 40 51.109375 33.703125 54 26.40625 54 
C 12.296875 54 3.09375 42.84375 3.09375 25.5 
C 3.09375 8.65625 12.09375 -2 26.296875 -2 
C 38.796875 -2 46.703125 5.46875 47.703125 18.234375 
L 39.296875 18.234375 
C 37.90625 9.875 33.59375 5.703125 26.5 5.703125 
C 17.296875 5.703125 11.796875 13.171875 11.796875 25.5 
C 11.796875 38.53125 17.203125 46.28125 26.296875 46.28125 
C 33.296875 46.28125 37.703125 42.203125 38.703125 34.9375 
z
" id="Nimbus_Sans_L_Regular-99"/>
      <path d="M 22.90625 73 
L -0.796875 -2 
L 4.703125 -2 
L 28.40625 73 
z
" id="Nimbus_Sans_L_Regular-47"/>
      <path d="M 7 52.484375 
L 7 0 
L 15.40625 0 
L 15.40625 32.953125 
C 15.40625 40.578125 20.90625 46.6875 27.703125 46.6875 
C 33.90625 46.6875 37.40625 42.875 37.40625 36.15625 
L 37.40625 0 
L 45.796875 0 
L 45.796875 32.953125 
C 45.796875 40.578125 51.296875 46.6875 58.09375 46.6875 
C 64.203125 46.6875 67.796875 42.78125 67.796875 36.15625 
L 67.796875 0 
L 76.203125 0 
L 76.203125 39.375 
C 76.203125 48.78125 70.796875 54 61 54 
C 54 54 49.796875 51.890625 44.90625 45.984375 
C 41.796875 51.59375 37.59375 54 30.796875 54 
C 23.796875 54 19.203125 51.390625 14.703125 45.078125 
L 14.703125 52.484375 
z
" id="Nimbus_Sans_L_Regular-109"/>
      <path d="M 27.203125 54 
C 12.5 54 3.59375 43.53125 3.59375 25.984375 
C 3.59375 8.453125 12.40625 -2 27.296875 -2 
C 42 -2 51 8.453125 51 25.59375 
C 51 43.625 42.296875 54 27.203125 54 
z
M 27.296875 46.28125 
C 36.703125 46.28125 42.296875 38.625 42.296875 25.703125 
C 42.296875 13.453125 36.5 5.703125 27.296875 5.703125 
C 18 5.703125 12.296875 13.359375 12.296875 25.984375 
C 12.296875 38.53125 18 46.28125 27.296875 46.28125 
z
" id="Nimbus_Sans_L_Regular-111"/>
     </defs>
     <g style="fill:#262626;" transform="translate(17.614239 270.402885)rotate(-90)scale(0.143 -0.143)">
      <use transform="scale(0.996264)" xlink:href="#Nimbus_Sans_L_Regular-68"/>
      <use transform="translate(71.929985 0)scale(0.996264)" xlink:href="#Nimbus_Sans_L_Regular-105"/>
      <use transform="translate(94.046769 0)scale(0.996264)" xlink:href="#Nimbus_Sans_L_Regular-104"/>
      <use transform="translate(149.438446 0)scale(0.996264)" xlink:href="#Nimbus_Sans_L_Regular-101"/>
      <use transform="translate(204.830123 0)scale(0.996264)" xlink:href="#Nimbus_Sans_L_Regular-100"/>
      <use transform="translate(260.2218 0)scale(0.996264)" xlink:href="#Nimbus_Sans_L_Regular-114"/>
      <use transform="translate(292.400933 0)scale(0.996264)" xlink:href="#Nimbus_Sans_L_Regular-97"/>
      <use transform="translate(347.79261 0)scale(0.996264)" xlink:href="#Nimbus_Sans_L_Regular-108"/>
      <use transform="translate(397.604564 0)scale(0.996264)" xlink:href="#Nimbus_Sans_L_Regular-101"/>
      <use transform="translate(452.996241 0)scale(0.996264)" xlink:href="#Nimbus_Sans_L_Regular-110"/>
      <use transform="translate(508.387918 0)scale(0.996264)" xlink:href="#Nimbus_Sans_L_Regular-101"/>
      <use transform="translate(563.779595 0)scale(0.996264)" xlink:href="#Nimbus_Sans_L_Regular-114"/>
      <use transform="translate(596.954825 0)scale(0.996264)" xlink:href="#Nimbus_Sans_L_Regular-103"/>
      <use transform="translate(652.346502 0)scale(0.996264)" xlink:href="#Nimbus_Sans_L_Regular-121"/>
      <use transform="translate(729.854872 0)scale(0.996264)" xlink:href="#Nimbus_Sans_L_Regular-40"/>
      <use transform="translate(763.030101 0)scale(0.996264)" xlink:href="#Nimbus_Sans_L_Regular-107"/>
      <use transform="translate(812.843302 0)scale(0.996264)" xlink:href="#Nimbus_Sans_L_Regular-99"/>
      <use transform="translate(862.656502 0)scale(0.996264)" xlink:href="#Nimbus_Sans_L_Regular-97"/>
      <use transform="translate(918.048179 0)scale(0.996264)" xlink:href="#Nimbus_Sans_L_Regular-108"/>
      <use transform="translate(940.164964 0)scale(0.996264)" xlink:href="#Nimbus_Sans_L_Regular-47"/>
      <use transform="translate(967.860133 0)scale(0.996264)" xlink:href="#Nimbus_Sans_L_Regular-109"/>
      <use transform="translate(1050.848563 0)scale(0.996264)" xlink:href="#Nimbus_Sans_L_Regular-111"/>
      <use transform="translate(1106.24024 0)scale(0.996264)" xlink:href="#Nimbus_Sans_L_Regular-108"/>
      <use transform="translate(1128.357025 0)scale(0.996264)" xlink:href="#Nimbus_Sans_L_Regular-41"/>
     </g>
    </g>
   </g>
   <g id="line2d_23">
    <path clip-path="url(#pc1c5a5ea36)" d="M 70.012695 285.626523 
L 73.701951 283.654968 
L 77.391207 277.816804 
L 81.080463 268.338693 
L 84.769719 255.58901 
L 88.458976 240.064112 
L 92.148232 222.369831 
L 95.837488 203.198853 
L 99.526744 183.304831 
L 103.216 163.474167 
L 106.905257 144.496504 
L 110.594513 127.135015 
L 114.283769 112.097575 
L 117.973025 100.009885 
L 121.662281 91.391531 
L 125.351538 86.63588 
L 129.040794 85.99454 
L 132.73005 89.566985 
L 136.419306 97.295733 
L 140.108562 108.967271 
L 143.797819 124.21871 
L 147.487075 142.549958 
L 151.176331 163.340965 
L 154.865587 185.873454 
L 158.554843 209.356346 
L 162.244099 232.953978 
L 165.933356 255.816094 
L 169.622612 277.108535 
L 173.311868 296.043514 
L 177.001124 311.908379 
L 180.69038 324.09183 
L 184.379637 332.10662 
L 188.068893 335.607919 
L 191.758149 334.406668 
L 195.447405 328.477414 
L 199.136661 317.960343 
L 202.825918 303.1574 
L 206.515174 284.522639 
L 210.20443 262.64711 
L 213.893686 238.238828 
L 217.582942 212.098512 
L 221.272199 185.091953 
L 224.961455 158.119996 
L 228.650711 132.087192 
L 232.339967 107.870231 
L 236.029223 86.287298 
L 239.71848 68.069411 
L 243.407736 53.834795 
L 247.096992 44.067183 
L 250.786248 39.098828 
L 254.475504 39.098828 
L 258.164761 44.067183 
L 261.854017 53.834795 
L 265.543273 68.069411 
L 269.232529 86.287298 
L 272.921785 107.870231 
L 276.611042 132.087192 
L 280.300298 158.119996 
L 283.989554 185.091953 
L 287.67881 212.098512 
L 291.368066 238.238828 
L 295.057323 262.64711 
L 298.746579 284.522639 
L 302.435835 303.1574 
L 306.125091 317.960343 
L 309.814347 328.477414 
L 313.503604 334.406668 
L 317.19286 335.607919 
L 320.882116 332.10662 
L 324.571372 324.09183 
L 328.260628 311.908379 
L 331.949885 296.043514 
L 335.639141 277.108535 
L 339.328397 255.816094 
L 343.017653 232.953978 
L 346.706909 209.356346 
L 350.396166 185.873454 
L 354.085422 163.340965 
L 357.774678 142.549958 
L 361.463934 124.21871 
L 365.15319 108.967271 
L 368.842447 97.295733 
L 372.531703 89.566985 
L 376.220959 85.99454 
L 379.910215 86.63588 
L 383.599471 91.391531 
L 387.288728 100.009885 
L 390.977984 112.097575 
L 394.66724 127.135015 
L 398.356496 144.496504 
L 402.045752 163.474167 
L 405.735009 183.304831 
L 409.424265 203.198853 
L 413.113521 222.369831 
L 416.802777 240.064112 
L 420.492033 255.58901 
L 424.18129 268.338693 
L 427.870546 277.816804 
L 431.559802 283.654968 
L 435.249058 285.626523 
" style="fill:none;stroke:#4c72b0;stroke-linecap:round;stroke-width:2.275;"/>
   </g>
   <g id="line2d_24">
    <path clip-path="url(#pc1c5a5ea36)" d="M 70.012695 246.602408 
L 73.701951 245.610583 
L 77.391207 242.67935 
L 81.080463 237.939697 
L 84.769719 231.604227 
L 88.458976 223.9588 
L 92.148232 215.351297 
L 95.837488 206.177885 
L 99.526744 196.867338 
L 103.216 187.863971 
L 106.905257 179.609848 
L 110.594513 172.526926 
L 114.283769 166.999819 
L 117.973025 163.359823 
L 121.662281 161.870828 
L 125.351538 162.717652 
L 129.040794 165.99725 
L 132.73005 171.713162 
L 136.419306 179.773416 
L 140.108562 189.992011 
L 143.797819 202.093944 
L 147.487075 215.723632 
L 151.176331 230.456446 
L 154.865587 245.812968 
L 158.554843 261.275458 
L 162.244099 276.305973 
L 165.933356 290.365471 
L 169.622612 302.933224 
L 173.311868 313.525843 
L 177.001124 321.715217 
L 180.69038 327.144717 
L 184.379637 329.543055 
L 188.068893 328.735305 
L 191.758149 324.650639 
L 195.447405 317.326498 
L 199.136661 306.909012 
L 202.825918 293.649628 
L 206.515174 277.898032 
L 210.20443 260.091596 
L 213.893686 240.741692 
L 217.582942 220.41734 
L 221.272199 199.726734 
L 224.961455 179.297299 
L 228.650711 159.754948 
L 232.339967 141.703273 
L 236.029223 125.703375 
L 239.71848 112.255064 
L 243.407736 101.780049 
L 247.096992 94.607736 
L 250.786248 90.964111 
L 254.475504 90.964111 
L 258.164761 94.607736 
L 261.854017 101.780049 
L 265.543273 112.255064 
L 269.232529 125.703375 
L 272.921785 141.703273 
L 276.611042 159.754948 
L 280.300298 179.297299 
L 283.989554 199.726734 
L 287.67881 220.41734 
L 291.368066 240.741692 
L 295.057323 260.091596 
L 298.746579 277.898032 
L 302.435835 293.649628 
L 306.125091 306.909012 
L 309.814347 317.326498 
L 313.503604 324.650639 
L 317.19286 328.735305 
L 320.882116 329.543055 
L 324.571372 327.144717 
L 328.260628 321.715217 
L 331.949885 313.525843 
L 335.639141 302.933224 
L 339.328397 290.365471 
L 343.017653 276.305973 
L 346.706909 261.275458 
L 350.396166 245.812968 
L 354.085422 230.456446 
L 357.774678 215.723632 
L 361.463934 202.093944 
L 365.15319 189.992011 
L 368.842447 179.773416 
L 372.531703 171.713162 
L 376.220959 165.99725 
L 379.910215 162.717652 
L 383.599471 161.870828 
L 387.288728 163.359823 
L 390.977984 166.999819 
L 394.66724 172.526926 
L 398.356496 179.609848 
L 402.045752 187.863971 
L 405.735009 196.867338 
L 409.424265 206.177885 
L 413.113521 215.351297 
L 416.802777 223.9588 
L 420.492033 231.604227 
L 424.18129 237.939697 
L 427.870546 242.67935 
L 431.559802 245.610583 
L 435.249058 246.602408 
" style="fill:none;stroke:#55a868;stroke-linecap:round;stroke-width:2.275;"/>
   </g>
   <g id="patch_3">
    <path d="M 51.750876 350.433374 
L 51.750876 24.273374 
" style="fill:none;stroke:#cccccc;stroke-linecap:square;stroke-linejoin:miter;"/>
   </g>
   <g id="patch_4">
    <path d="M 453.510876 350.433374 
L 453.510876 24.273374 
" style="fill:none;stroke:#cccccc;stroke-linecap:square;stroke-linejoin:miter;"/>
   </g>
   <g id="patch_5">
    <path d="M 51.750876 350.433374 
L 453.510876 350.433374 
" style="fill:none;stroke:#cccccc;stroke-linecap:square;stroke-linejoin:miter;"/>
   </g>
   <g id="patch_6">
    <path d="M 51.750876 24.273374 
L 453.510876 24.273374 
" style="fill:none;stroke:#cccccc;stroke-linecap:square;stroke-linejoin:miter;"/>
   </g>
   <g id="text_14">
    <!-- C1$_n$- -O1$_n$- -C4$_{n+1}$- -C3$_{n+1}$ -->
    <defs>
     <path d="M 66.203125 50.453125 
C 63.296875 66.4375 54.09375 74.21875 38.09375 74.21875 
C 28.296875 74.21875 20.40625 71.125 15 65.125 
C 8.40625 57.953125 4.796875 47.578125 4.796875 35.796875 
C 4.796875 23.828125 8.5 13.5625 15.40625 6.46875 
C 21 0.6875 28.203125 -2 37.703125 -2 
C 55.5 -2 65.5 7.578125 67.703125 26.828125 
L 58.09375 26.828125 
C 57.296875 21.859375 56.296875 18.46875 54.796875 15.578125 
C 51.796875 9.59375 45.59375 6.203125 37.796875 6.203125 
C 23.296875 6.203125 14.09375 17.765625 14.09375 35.90625 
C 14.09375 54.546875 22.90625 66 37 66 
C 42.90625 66 48.40625 64.21875 51.40625 61.40625 
C 54.09375 58.921875 55.59375 55.828125 56.703125 50.453125 
z
" id="Nimbus_Sans_L_Regular-67"/>
     <path d="M 18.09375 52.703125 
L 7 0 
L 15.40625 0 
L 21.5 29.09375 
C 23.90625 40.15625 30.90625 47 39.90625 47 
C 44.90625 47 48.59375 43.484375 48.59375 38.84375 
C 48.59375 38.234375 48.40625 36.71875 48 35.109375 
L 40.59375 0 
L 49 0 
L 57 37.828125 
C 57.296875 39.125 57.40625 40.328125 57.40625 41.640625 
C 57.40625 49.28125 52.09375 54.21875 43.796875 54.21875 
C 36.203125 54.21875 29.59375 51.5 24.40625 46.1875 
L 25.703125 52.703125 
z
" id="Nimbus_Sans_L_Regular_Italic-110"/>
     <path id="Nimbus_Sans_L_Regular-150"/>
     <path d="M 38.90625 74.21875 
C 18 74.21875 3.796875 58.84375 3.796875 36.109375 
C 3.796875 13.359375 18 -2 39 -2 
C 47.796875 -2 55.703125 0.6875 61.59375 5.671875 
C 69.5 12.359375 74.203125 23.625 74.203125 35.5 
C 74.203125 58.953125 60.296875 74.21875 38.90625 74.21875 
z
M 38.90625 66 
C 54.703125 66 64.90625 54.046875 64.90625 35.703125 
C 64.90625 18.171875 54.40625 6.203125 39 6.203125 
C 23.5 6.203125 13.09375 18.171875 13.09375 36.109375 
C 13.09375 54.046875 23.5 66 38.90625 66 
z
" id="Nimbus_Sans_L_Regular-79"/>
     <path d="M 53.40625 27 
L 32.703125 27 
L 32.703125 47.484375 
L 25.703125 47.484375 
L 25.703125 27 
L 5 27 
L 5 19.984375 
L 25.703125 19.984375 
L 25.703125 -1 
L 32.703125 -1 
L 32.703125 19.984375 
L 53.40625 19.984375 
z
" id="Nimbus_Sans_L_Regular-43"/>
    </defs>
    <g style="fill:#262626;" transform="translate(51.750876 18.273374)scale(0.156 -0.156)">
     <use transform="translate(0 14.943915)scale(0.996264)" xlink:href="#Nimbus_Sans_L_Regular-67"/>
     <use transform="translate(71.929985 14.943915)scale(0.996264)" xlink:href="#Nimbus_Sans_L_Regular-49"/>
     <use transform="translate(127.321662 0)scale(0.697382)" xlink:href="#Nimbus_Sans_L_Regular_Italic-110"/>
     <use transform="translate(167.743916 14.943915)scale(0.996264)" xlink:href="#Nimbus_Sans_L_Regular-150"/>
     <use transform="translate(223.135593 14.943915)scale(0.996264)" xlink:href="#Nimbus_Sans_L_Regular-79"/>
     <use transform="translate(300.643963 14.943915)scale(0.996264)" xlink:href="#Nimbus_Sans_L_Regular-49"/>
     <use transform="translate(356.03564 0)scale(0.697382)" xlink:href="#Nimbus_Sans_L_Regular_Italic-110"/>
     <use transform="translate(396.457893 14.943915)scale(0.996264)" xlink:href="#Nimbus_Sans_L_Regular-150"/>
     <use transform="translate(451.84957 14.943915)scale(0.996264)" xlink:href="#Nimbus_Sans_L_Regular-67"/>
     <use transform="translate(523.779555 14.943915)scale(0.996264)" xlink:href="#Nimbus_Sans_L_Regular-52"/>
     <use transform="translate(579.171232 0)scale(0.697382)" xlink:href="#Nimbus_Sans_L_Regular_Italic-110"/>
     <use transform="translate(619.095354 0)scale(0.697382)" xlink:href="#Nimbus_Sans_L_Regular-43"/>
     <use transform="translate(659.822221 0)scale(0.697382)" xlink:href="#Nimbus_Sans_L_Regular-49"/>
     <use transform="translate(699.094354 14.943915)scale(0.996264)" xlink:href="#Nimbus_Sans_L_Regular-150"/>
     <use transform="translate(754.486031 14.943915)scale(0.996264)" xlink:href="#Nimbus_Sans_L_Regular-67"/>
     <use transform="translate(826.416016 14.943915)scale(0.996264)" xlink:href="#Nimbus_Sans_L_Regular-51"/>
     <use transform="translate(881.807693 0)scale(0.697382)" xlink:href="#Nimbus_Sans_L_Regular_Italic-110"/>
     <use transform="translate(921.731814 0)scale(0.697382)" xlink:href="#Nimbus_Sans_L_Regular-43"/>
     <use transform="translate(962.458682 0)scale(0.697382)" xlink:href="#Nimbus_Sans_L_Regular-49"/>
    </g>
   </g>
   <g id="legend_1">
    <g id="patch_7">
     <path d="M 285.381197 71.646159 
L 444.410876 71.646159 
Q 447.010876 71.646159 447.010876 69.046159 
L 447.010876 33.373374 
Q 447.010876 30.773374 444.410876 30.773374 
L 285.381197 30.773374 
Q 282.781197 30.773374 282.781197 33.373374 
L 282.781197 69.046159 
Q 282.781197 71.646159 285.381197 71.646159 
z
" style="fill:#ffffff;stroke:#000000;stroke-linejoin:miter;stroke-width:0.39;"/>
    </g>
    <g id="line2d_25">
     <path d="M 287.981197 40.65119 
L 313.981197 40.65119 
" style="fill:none;stroke:#4c72b0;stroke-linecap:round;stroke-width:2.275;"/>
    </g>
    <g id="line2d_26"/>
    <g id="text_15">
     <!-- SMIRNOFF99Frosst -->
     <defs>
      <path d="M 59.59375 52.109375 
C 59.5 66.484375 49.703125 74.8125 32.90625 74.8125 
C 16.90625 74.8125 7 66.5625 7 53.28125 
C 7 44.328125 11.703125 38.703125 21.296875 36.1875 
L 39.40625 31.359375 
C 48.59375 28.9375 52.796875 25.21875 52.796875 19.484375 
C 52.796875 15.546875 50.703125 11.53125 47.59375 9.328125 
C 44.703125 7.3125 40.09375 6.203125 34.203125 6.203125 
C 26.296875 6.203125 20.90625 8.125 17.40625 12.34375 
C 14.703125 15.5625 13.5 19.09375 13.59375 23.609375 
L 4.796875 23.609375 
C 4.90625 16.890625 6.203125 12.46875 9.09375 8.4375 
C 14.09375 1.609375 22.5 -2 33.59375 -2 
C 42.296875 -2 49.40625 0.015625 54.09375 3.625 
C 59 7.546875 62.09375 14.078125 62.09375 20.421875 
C 62.09375 29.46875 56.5 36.109375 46.59375 38.828125 
L 28.296875 43.765625 
C 19.5 46.171875 16.296875 48.984375 16.296875 54.625 
C 16.296875 62.0625 22.796875 67 32.59375 67 
C 44.203125 67 50.703125 61.671875 50.796875 52.109375 
z
" id="Nimbus_Sans_L_Regular-83"/>
      <path d="M 46.796875 -0.03125 
L 67.296875 61.171875 
L 67.296875 -0.03125 
L 76.09375 -0.03125 
L 76.09375 73 
L 63.203125 73 
L 42 9.390625 
L 20.40625 73 
L 7.5 73 
L 7.5 -0.03125 
L 16.296875 -0.03125 
L 16.296875 61.171875 
L 37 -0.03125 
z
" id="Nimbus_Sans_L_Regular-77"/>
      <path d="M 19.40625 73 
L 10 73 
L 10 -0.03125 
L 19.40625 -0.03125 
z
" id="Nimbus_Sans_L_Regular-73"/>
      <path d="M 18.59375 31.78125 
L 42.59375 31.78125 
C 50.90625 31.78125 54.59375 27.71875 54.59375 18.546875 
L 54.5 11.90625 
C 54.5 7.3125 55.296875 2.828125 56.59375 -0.21875 
L 67.90625 -0.21875 
L 67.90625 2.125 
C 64.40625 4.5625 63.703125 7.21875 63.5 17.078125 
C 63.40625 29.265625 61.5 32.9375 53.59375 36.390625 
C 61.796875 40.359375 65.09375 45.40625 65.09375 53.65625 
C 65.09375 66.140625 57.203125 73 42.90625 73 
L 9.296875 73 
L 9.296875 -0.21875 
L 18.59375 -0.21875 
z
M 18.59375 40 
L 18.59375 64.78125 
L 41.09375 64.78125 
C 46.296875 64.78125 49.296875 64 51.59375 62.015625 
C 54.09375 59.9375 55.40625 56.6875 55.40625 52.34375 
C 55.40625 43.84375 51 40 41.09375 40 
z
" id="Nimbus_Sans_L_Regular-82"/>
      <path d="M 64.59375 73 
L 55.796875 73 
L 55.796875 13.296875 
L 17.703125 73 
L 7.59375 73 
L 7.59375 -0.03125 
L 16.40625 -0.03125 
L 16.40625 59.171875 
L 54.09375 -0.03125 
L 64.59375 -0.03125 
z
" id="Nimbus_Sans_L_Regular-78"/>
      <path d="M 18.296875 33 
L 53.09375 33 
L 53.09375 41.21875 
L 18.296875 41.21875 
L 18.296875 64.78125 
L 57.90625 64.78125 
L 57.90625 73 
L 9 73 
L 9 -0.21875 
L 18.296875 -0.21875 
z
" id="Nimbus_Sans_L_Regular-70"/>
      <path d="M 5.296875 16.625 
C 7 4.9375 14.59375 -2 25.40625 -2 
C 33.203125 -2 40.296875 1.78125 44.40625 8.0625 
C 48.90625 14.9375 50.90625 23.625 50.90625 36.484375 
C 50.90625 48.359375 49.09375 55.9375 44.90625 62.21875 
C 41 67.921875 34.796875 71 27 71 
C 13.5 71 3.796875 61.078125 3.796875 47.296875 
C 3.796875 34.21875 12.796875 25 25.59375 25 
C 32.296875 25 37.203125 27.40625 41.796875 32.90625 
C 41.703125 15.484375 36.09375 5.8125 26 5.8125 
C 19.796875 5.8125 15.5 9.75 14.09375 16.625 
z
M 26.90625 63.296875 
C 35.09375 63.296875 41.296875 56.59375 41.296875 47.515625 
C 41.296875 38.921875 35.203125 32.8125 26.59375 32.8125 
C 18.09375 32.8125 12.796875 38.625 12.796875 48 
C 12.796875 56.875 18.796875 63.296875 26.90625 63.296875 
z
" id="Nimbus_Sans_L_Regular-57"/>
      <path d="M 43.796875 37.921875 
C 43.703125 48.203125 36.90625 54 24.796875 54 
C 12.59375 54 4.703125 47.71875 4.703125 38.0625 
C 4.703125 29.890625 8.90625 26.015625 21.296875 23.03125 
L 29.09375 21.140625 
C 34.90625 19.734375 37.203125 17.65625 37.203125 13.875 
C 37.203125 9 32.296875 5.703125 25 5.703125 
C 20.5 5.703125 16.703125 7 14.59375 9.1875 
C 13.296875 10.6875 12.703125 12.171875 12.203125 15.84375 
L 3.40625 15.84375 
C 3.796875 3.765625 10.59375 -2 24.296875 -2 
C 37.5 -2 45.90625 4.453125 45.90625 14.515625 
C 45.90625 22.28125 41.5 26.578125 31.09375 29.0625 
L 23.09375 30.953125 
C 16.296875 32.53125 13.40625 34.734375 13.40625 38.40625 
C 13.40625 43.1875 17.703125 46.28125 24.5 46.28125 
C 31.203125 46.28125 34.796875 43.390625 35 37.921875 
z
" id="Nimbus_Sans_L_Regular-115"/>
      <path d="M 25.40625 52.8125 
L 16.796875 52.8125 
L 16.796875 67 
L 8.5 67 
L 8.5 52.8125 
L 1.40625 52.8125 
L 1.40625 46 
L 8.5 46 
L 8.5 6.3125 
C 8.5 1 12.09375 -2 18.59375 -2 
C 20.59375 -2 22.59375 -1.8125 25.40625 -1.296875 
L 25.40625 5.71875 
C 24.296875 5.40625 23 5.3125 21.40625 5.3125 
C 17.796875 5.3125 16.796875 6.3125 16.796875 10.015625 
L 16.796875 46 
L 25.40625 46 
z
" id="Nimbus_Sans_L_Regular-116"/>
     </defs>
     <g style="fill:#262626;" transform="translate(324.381197 45.20119)scale(0.13 -0.13)">
      <use transform="scale(0.996264)" xlink:href="#Nimbus_Sans_L_Regular-83"/>
      <use transform="translate(66.450031 0)scale(0.996264)" xlink:href="#Nimbus_Sans_L_Regular-77"/>
      <use transform="translate(149.438461 0)scale(0.996264)" xlink:href="#Nimbus_Sans_L_Regular-73"/>
      <use transform="translate(177.133631 0)scale(0.996264)" xlink:href="#Nimbus_Sans_L_Regular-82"/>
      <use transform="translate(249.063616 0)scale(0.996264)" xlink:href="#Nimbus_Sans_L_Regular-78"/>
      <use transform="translate(320.993601 0)scale(0.996264)" xlink:href="#Nimbus_Sans_L_Regular-79"/>
      <use transform="translate(398.501971 0)scale(0.996264)" xlink:href="#Nimbus_Sans_L_Regular-70"/>
      <use transform="translate(459.373601 0)scale(0.996264)" xlink:href="#Nimbus_Sans_L_Regular-70"/>
      <use transform="translate(520.245232 0)scale(0.996264)" xlink:href="#Nimbus_Sans_L_Regular-57"/>
      <use transform="translate(575.636909 0)scale(0.996264)" xlink:href="#Nimbus_Sans_L_Regular-57"/>
      <use transform="translate(631.028586 0)scale(0.996264)" xlink:href="#Nimbus_Sans_L_Regular-70"/>
      <use transform="translate(687.417485 0)scale(0.996264)" xlink:href="#Nimbus_Sans_L_Regular-114"/>
      <use transform="translate(720.592714 0)scale(0.996264)" xlink:href="#Nimbus_Sans_L_Regular-111"/>
      <use transform="translate(775.984391 0)scale(0.996264)" xlink:href="#Nimbus_Sans_L_Regular-115"/>
      <use transform="translate(825.797592 0)scale(0.996264)" xlink:href="#Nimbus_Sans_L_Regular-115"/>
      <use transform="translate(875.610792 0)scale(0.996264)" xlink:href="#Nimbus_Sans_L_Regular-116"/>
     </g>
    </g>
    <g id="line2d_27">
     <path d="M 287.981197 59.137582 
L 313.981197 59.137582 
" style="fill:none;stroke:#55a868;stroke-linecap:round;stroke-width:2.275;"/>
    </g>
    <g id="line2d_28"/>
    <g id="text_16">
     <!-- GAFF v2.1 -->
     <defs>
      <path d="M 70.90625 39 
L 40.5 39 
L 40.5 30.796875 
L 62.703125 30.796875 
L 62.703125 28.765625 
C 62.703125 15.671875 53.09375 6.203125 39.796875 6.203125 
C 32.40625 6.203125 25.703125 8.890625 21.40625 13.59375 
C 16.59375 18.765625 13.703125 27.4375 13.703125 36.40625 
C 13.703125 54.234375 23.90625 66 39.296875 66 
C 50.40625 66 58.40625 60.375 60.40625 51.125 
L 69.90625 51.125 
C 67.296875 65.796875 56.09375 74.21875 39.40625 74.21875 
C 30.5 74.21875 23.296875 71.921875 17.59375 67.234375 
C 9.203125 60.25 4.40625 48.984375 4.40625 35.90625 
C 4.40625 13.5625 18.09375 -2 37.796875 -2 
C 47.703125 -2 55.59375 1.703125 62.703125 9.625 
L 65 -0.109375 
L 70.90625 -0.109375 
z
" id="Nimbus_Sans_L_Regular-71"/>
      <path d="M 47.40625 22 
L 54.90625 0 
L 65.296875 0 
L 39.703125 73 
L 27.703125 73 
L 1.703125 0 
L 11.59375 0 
L 19.296875 22 
z
M 44.796875 29.8125 
L 21.59375 29.8125 
L 33.59375 63 
z
" id="Nimbus_Sans_L_Regular-65"/>
      <path d="M 28.5 0 
L 48.59375 52.5 
L 39.203125 52.5 
L 24.40625 9.921875 
L 10.40625 52.5 
L 1 52.5 
L 19.40625 0 
z
" id="Nimbus_Sans_L_Regular-118"/>
     </defs>
     <g style="fill:#262626;" transform="translate(324.381197 63.687582)scale(0.13 -0.13)">
      <use transform="scale(0.996264)" xlink:href="#Nimbus_Sans_L_Regular-71"/>
      <use transform="translate(77.50837 0)scale(0.996264)" xlink:href="#Nimbus_Sans_L_Regular-65"/>
      <use transform="translate(143.958401 0)scale(0.996264)" xlink:href="#Nimbus_Sans_L_Regular-70"/>
      <use transform="translate(204.830032 0)scale(0.996264)" xlink:href="#Nimbus_Sans_L_Regular-70"/>
      <use transform="translate(293.396832 0)scale(0.996264)" xlink:href="#Nimbus_Sans_L_Regular-118"/>
      <use transform="translate(343.210033 0)scale(0.996264)" xlink:href="#Nimbus_Sans_L_Regular-50"/>
      <use transform="translate(398.60171 0)scale(0.996264)" xlink:href="#Nimbus_Sans_L_Regular-46"/>
      <use transform="translate(426.296879 0)scale(0.996264)" xlink:href="#Nimbus_Sans_L_Regular-49"/>
     </g>
    </g>
   </g>
  </g>
 </g>
 <defs>
  <clipPath id="pc1c5a5ea36">
   <rect height="326.16" width="401.76" x="51.750876" y="24.273374"/>
  </clipPath>
 </defs>
</svg>
