<?xml version="1.0" encoding="utf-8" standalone="no"?>
<!DOCTYPE svg PUBLIC "-//W3C//DTD SVG 1.1//EN"
  "http://www.w3.org/Graphics/SVG/1.1/DTD/svg11.dtd">
<!-- Created with matplotlib (http://matplotlib.org/) -->
<svg height="383pt" version="1.1" viewBox="0 0 463 383" width="463pt" xmlns="http://www.w3.org/2000/svg" xmlns:xlink="http://www.w3.org/1999/xlink">
 <defs>
  <style type="text/css">
*{stroke-linecap:butt;stroke-linejoin:round;}
  </style>
 </defs>
 <g id="figure_1">
  <g id="patch_1">
   <path d="M 0 383.708983 
L 463.583428 383.708983 
L 463.583428 0 
L 0 0 
z
" style="fill:#ffffff;"/>
  </g>
  <g id="axes_1">
   <g id="patch_2">
    <path d="M 51.022969 337.973908 
L 452.782969 337.973908 
L 452.782969 11.813908 
L 51.022969 11.813908 
z
" style="fill:#ffffff;"/>
   </g>
   <g id="line2d_1">
    <path clip-path="url(#p1779b96a45)" d="M -1 380.207609 
L 464.583428 2.233966 
" style="fill:none;stroke:#4c4c4c;stroke-linecap:round;stroke-width:0.5;"/>
   </g>
   <g id="matplotlib.axis_1">
    <g id="xtick_1">
     <g id="line2d_2">
      <path clip-path="url(#p1779b96a45)" d="M 51.022969 337.973908 
L 51.022969 11.813908 
" style="fill:none;stroke:#cccccc;stroke-linecap:round;stroke-width:1.3;"/>
     </g>
     <g id="line2d_3"/>
     <g id="text_1">
      <!-- $-8$ -->
      <defs>
       <path d="M 65.90625 23 
C 67.59375 23 69.40625 23 69.40625 25 
C 69.40625 27 67.59375 27 65.90625 27 
L 11.796875 27 
C 10.09375 27 8.296875 27 8.296875 25 
C 8.296875 23 10.09375 23 11.796875 23 
z
" id="CMSY10-0"/>
       <path d="M 39.09375 37.484375 
C 46.40625 41.875 48.796875 45.46875 48.796875 52.15625 
C 48.796875 63.21875 40.09375 71 27.5 71 
C 15 71 6.203125 63.21875 6.203125 52.15625 
C 6.203125 45.578125 8.59375 41.984375 15.796875 37.484375 
C 7.703125 33.59375 3.703125 27.71875 3.703125 19.9375 
C 3.703125 6.96875 13.5 -2 27.5 -2 
C 41.5 -2 51.296875 6.984375 51.296875 19.84375 
C 51.296875 27.71875 47.296875 33.59375 39.09375 37.484375 
z
M 27.5 63.1875 
C 35 63.1875 39.796875 58.8125 39.796875 51.953125 
C 39.796875 45.375 34.90625 41 27.5 41 
C 20.09375 41 15.203125 45.375 15.203125 52.046875 
C 15.203125 58.8125 20.09375 63.1875 27.5 63.1875 
z
M 27.5 33.578125 
C 36.296875 33.578125 42.296875 28 42.296875 19.734375 
C 42.296875 11.390625 36.296875 5.8125 27.296875 5.8125 
C 18.703125 5.8125 12.703125 11.484375 12.703125 19.734375 
C 12.703125 28 18.703125 33.578125 27.5 33.578125 
z
" id="Nimbus_Sans_L_Regular-56"/>
      </defs>
      <g style="fill:#262626;" transform="translate(42.385826 356.301725)scale(0.13 -0.13)">
       <use transform="scale(0.996264)" xlink:href="#CMSY10-0"/>
       <use transform="translate(77.487468 0)scale(0.996264)" xlink:href="#Nimbus_Sans_L_Regular-56"/>
      </g>
     </g>
    </g>
    <g id="xtick_2">
     <g id="line2d_4">
      <path clip-path="url(#p1779b96a45)" d="M 131.374969 337.973908 
L 131.374969 11.813908 
" style="fill:none;stroke:#cccccc;stroke-linecap:round;stroke-width:1.3;"/>
     </g>
     <g id="line2d_5"/>
     <g id="text_2">
      <!-- $-6$ -->
      <defs>
       <path d="M 49.796875 52.84375 
C 48.09375 64.234375 40.5 71 29.703125 71 
C 21.90625 71 14.90625 67.21875 10.703125 60.9375 
C 6.296875 54.0625 4.296875 45.375 4.296875 32.515625 
C 4.296875 20.640625 6.09375 13.0625 10.296875 6.78125 
C 14.09375 1.078125 20.296875 -2 28.09375 -2 
C 41.59375 -2 51.296875 8.09375 51.296875 22.109375 
C 51.296875 35.4375 42.296875 44.8125 29.59375 44.8125 
C 22.59375 44.8125 17.09375 42.109375 13.296875 36.90625 
C 13.40625 53.8125 19 63.1875 29.09375 63.1875 
C 35.296875 63.1875 39.59375 59.421875 41 52.84375 
z
M 28.5 37 
C 37 37 42.296875 31.03125 42.296875 21.40625 
C 42.296875 12.390625 36.296875 5.8125 28.203125 5.8125 
C 20 5.8125 13.796875 12.703125 13.796875 21.90625 
C 13.796875 30.828125 19.796875 37 28.5 37 
z
" id="Nimbus_Sans_L_Regular-54"/>
      </defs>
      <g style="fill:#262626;" transform="translate(122.737826 356.301725)scale(0.13 -0.13)">
       <use transform="scale(0.996264)" xlink:href="#CMSY10-0"/>
       <use transform="translate(77.487468 0)scale(0.996264)" xlink:href="#Nimbus_Sans_L_Regular-54"/>
      </g>
     </g>
    </g>
    <g id="xtick_3">
     <g id="line2d_6">
      <path clip-path="url(#p1779b96a45)" d="M 211.726969 337.973908 
L 211.726969 11.813908 
" style="fill:none;stroke:#cccccc;stroke-linecap:round;stroke-width:1.3;"/>
     </g>
     <g id="line2d_7"/>
     <g id="text_3">
      <!-- $-4$ -->
      <defs>
       <path d="M 32.703125 17 
L 32.703125 0 
L 41.5 0 
L 41.5 17 
L 52 17 
L 52 24.90625 
L 41.5 24.90625 
L 41.5 71.015625 
L 35 71.015625 
L 2.796875 26.3125 
L 2.796875 17 
z
M 32.703125 24.90625 
L 10.5 24.90625 
L 32.703125 55.984375 
z
" id="Nimbus_Sans_L_Regular-52"/>
      </defs>
      <g style="fill:#262626;" transform="translate(203.089826 356.301725)scale(0.13 -0.13)">
       <use transform="scale(0.996264)" xlink:href="#CMSY10-0"/>
       <use transform="translate(77.487468 0)scale(0.996264)" xlink:href="#Nimbus_Sans_L_Regular-52"/>
      </g>
     </g>
    </g>
    <g id="xtick_4">
     <g id="line2d_8">
      <path clip-path="url(#p1779b96a45)" d="M 292.078969 337.973908 
L 292.078969 11.813908 
" style="fill:none;stroke:#cccccc;stroke-linecap:round;stroke-width:1.3;"/>
     </g>
     <g id="line2d_9"/>
     <g id="text_4">
      <!-- $-2$ -->
      <defs>
       <path d="M 50.59375 8.71875 
L 13.296875 8.71875 
C 14.203125 14.53125 17.40625 18.234375 26.09375 23.34375 
L 36.09375 28.75 
C 46 34.15625 51.09375 41.453125 51.09375 50.171875 
C 51.09375 56.078125 48.703125 61.59375 44.5 65.390625 
C 40.296875 69.203125 35.09375 71 28.40625 71 
C 19.40625 71 12.703125 67.796875 8.796875 61.796875 
C 6.296875 57.984375 5.203125 53.578125 5 46.359375 
L 13.796875 46.359375 
C 14.09375 51.171875 14.703125 54.078125 15.90625 56.375 
C 18.203125 60.6875 22.796875 63.296875 28.09375 63.296875 
C 36.09375 63.296875 42.09375 57.578125 42.09375 49.96875 
C 42.09375 44.359375 38.796875 39.546875 32.5 35.953125 
L 23.296875 30.75 
C 8.5 22.34375 4.203125 15.625 3.40625 0 
L 50.59375 0 
z
" id="Nimbus_Sans_L_Regular-50"/>
      </defs>
      <g style="fill:#262626;" transform="translate(283.441826 356.301725)scale(0.13 -0.13)">
       <use transform="scale(0.996264)" xlink:href="#CMSY10-0"/>
       <use transform="translate(77.487468 0)scale(0.996264)" xlink:href="#Nimbus_Sans_L_Regular-50"/>
      </g>
     </g>
    </g>
    <g id="xtick_5">
     <g id="line2d_10">
      <path clip-path="url(#p1779b96a45)" d="M 372.430969 337.973908 
L 372.430969 11.813908 
" style="fill:none;stroke:#cccccc;stroke-linecap:round;stroke-width:1.3;"/>
     </g>
     <g id="line2d_11"/>
     <g id="text_5">
      <!-- $0$ -->
      <defs>
       <path d="M 27.5 71 
C 20.90625 71 14.90625 68.125 11.203125 63.21875 
C 6.59375 57.046875 4.296875 47.5625 4.296875 34.5 
C 4.296875 10.671875 12.296875 -2 27.5 -2 
C 42.5 -2 50.703125 10.671875 50.703125 33.90625 
C 50.703125 47.65625 48.5 56.84375 43.796875 63.21875 
C 40.09375 68.21875 34.203125 71 27.5 71 
z
M 27.5 63.1875 
C 37 63.1875 41.703125 53.625 41.703125 34.703125 
C 41.703125 14.671875 37.09375 5.3125 27.296875 5.3125 
C 18 5.3125 13.296875 15.078125 13.296875 34.40625 
C 13.296875 53.71875 18 63.1875 27.5 63.1875 
z
" id="Nimbus_Sans_L_Regular-48"/>
      </defs>
      <g style="fill:#262626;" transform="translate(368.830511 356.301725)scale(0.13 -0.13)">
       <use transform="scale(0.996264)" xlink:href="#Nimbus_Sans_L_Regular-48"/>
      </g>
     </g>
    </g>
    <g id="xtick_6">
     <g id="line2d_12">
      <path clip-path="url(#p1779b96a45)" d="M 452.782969 337.973908 
L 452.782969 11.813908 
" style="fill:none;stroke:#cccccc;stroke-linecap:round;stroke-width:1.3;"/>
     </g>
     <g id="line2d_13"/>
     <g id="text_6">
      <!-- $2$ -->
      <g style="fill:#262626;" transform="translate(449.182511 356.301725)scale(0.13 -0.13)">
       <use transform="scale(0.996264)" xlink:href="#Nimbus_Sans_L_Regular-50"/>
      </g>
     </g>
    </g>
    <g id="text_7">
     <!-- GAFF v1.7 $\Delta$G (kcal/mol) -->
     <defs>
      <path d="M 70.90625 39 
L 40.5 39 
L 40.5 30.796875 
L 62.703125 30.796875 
L 62.703125 28.765625 
C 62.703125 15.671875 53.09375 6.203125 39.796875 6.203125 
C 32.40625 6.203125 25.703125 8.890625 21.40625 13.59375 
C 16.59375 18.765625 13.703125 27.4375 13.703125 36.40625 
C 13.703125 54.234375 23.90625 66 39.296875 66 
C 50.40625 66 58.40625 60.375 60.40625 51.125 
L 69.90625 51.125 
C 67.296875 65.796875 56.09375 74.21875 39.40625 74.21875 
C 30.5 74.21875 23.296875 71.921875 17.59375 67.234375 
C 9.203125 60.25 4.40625 48.984375 4.40625 35.90625 
C 4.40625 13.5625 18.09375 -2 37.796875 -2 
C 47.703125 -2 55.59375 1.703125 62.703125 9.625 
L 65 -0.109375 
L 70.90625 -0.109375 
z
" id="Nimbus_Sans_L_Regular-71"/>
      <path d="M 47.40625 22 
L 54.90625 0 
L 65.296875 0 
L 39.703125 73 
L 27.703125 73 
L 1.703125 0 
L 11.59375 0 
L 19.296875 22 
z
M 44.796875 29.8125 
L 21.59375 29.8125 
L 33.59375 63 
z
" id="Nimbus_Sans_L_Regular-65"/>
      <path d="M 18.296875 33 
L 53.09375 33 
L 53.09375 41.21875 
L 18.296875 41.21875 
L 18.296875 64.78125 
L 57.90625 64.78125 
L 57.90625 73 
L 9 73 
L 9 -0.21875 
L 18.296875 -0.21875 
z
" id="Nimbus_Sans_L_Regular-70"/>
      <path d="M 28.5 0 
L 48.59375 52.5 
L 39.203125 52.5 
L 24.40625 9.921875 
L 10.40625 52.5 
L 1 52.5 
L 19.40625 0 
z
" id="Nimbus_Sans_L_Regular-118"/>
      <path d="M 25.90625 50.59375 
L 25.90625 0 
L 34.703125 0 
L 34.703125 71.015625 
L 28.90625 71.015625 
C 25.796875 60.109375 23.796875 58.609375 10.203125 56.90625 
L 10.203125 50.59375 
z
" id="Nimbus_Sans_L_Regular-49"/>
      <path d="M 19.09375 10.421875 
L 8.703125 10.421875 
L 8.703125 0 
L 19.09375 0 
z
" id="Nimbus_Sans_L_Regular-46"/>
      <path d="M 52 70.703125 
L 4.59375 70.703125 
L 4.59375 62 
L 42.90625 62 
C 26 37.78125 19.09375 22.90625 13.796875 -0.5 
L 23.203125 -0.5 
C 27.09375 22.296875 36 41.890625 52 63.296875 
z
" id="Nimbus_Sans_L_Regular-55"/>
      <path d="M 36.296875 66.625 
L 3 4.40625 
L 3.203125 0.234375 
C 10.5 0.734375 17.90625 0.9375 25.296875 0.9375 
C 37.796875 0.9375 50.203125 0.328125 62.703125 -0.453125 
L 68.796875 2.71875 
L 68.90625 4.3125 
C 58.09375 25.078125 49.5 46.859375 42.09375 69.109375 
z
M 56.203125 5 
C 44.5 5 32.703125 5 20.90625 5 
C 17.40625 5 13.90625 5 10.40625 5 
L 10.09375 6.1875 
C 18.09375 23.03125 26.09375 38.65625 35.59375 55 
L 36.703125 55 
C 36.703125 54.90625 52.703125 15.21875 56.796875 5.890625 
z
" id="EURM10-1"/>
      <path d="M 23.59375 73 
C 13.59375 59.84375 7.296875 41.5625 7.296875 25.796875 
C 7.296875 9.9375 13.59375 -8.34375 23.59375 -21.5 
L 29.09375 -21.5 
C 20.296875 -7.140625 15.40625 9.734375 15.40625 25.796875 
C 15.40625 41.765625 20.296875 58.734375 29.09375 73 
z
" id="Nimbus_Sans_L_Regular-40"/>
      <path d="M 14.09375 73 
L 5.796875 73 
L 5.796875 -0.03125 
L 14.09375 -0.03125 
L 14.09375 20.40625 
L 22.203125 28.421875 
L 39.90625 -0.03125 
L 50.203125 -0.03125 
L 28.796875 34.328125 
L 47 52.453125 
L 36.296875 52.453125 
L 14.09375 30.21875 
z
" id="Nimbus_Sans_L_Regular-107"/>
      <path d="M 47.09375 34.9375 
C 46.703125 40.03125 45.59375 43.328125 43.59375 46.21875 
C 40 51.109375 33.703125 54 26.40625 54 
C 12.296875 54 3.09375 42.84375 3.09375 25.5 
C 3.09375 8.65625 12.09375 -2 26.296875 -2 
C 38.796875 -2 46.703125 5.46875 47.703125 18.234375 
L 39.296875 18.234375 
C 37.90625 9.875 33.59375 5.703125 26.5 5.703125 
C 17.296875 5.703125 11.796875 13.171875 11.796875 25.5 
C 11.796875 38.53125 17.203125 46.28125 26.296875 46.28125 
C 33.296875 46.28125 37.703125 42.203125 38.703125 34.9375 
z
" id="Nimbus_Sans_L_Regular-99"/>
      <path d="M 53.5 5.203125 
C 52.59375 5 52.203125 5 51.703125 5 
C 48.796875 5 47.203125 6.484375 47.203125 9.078125 
L 47.203125 39.765625 
C 47.203125 49.015625 40.40625 54 27.5 54 
C 19.90625 54 13.59375 51.8125 10.09375 47.90625 
C 7.703125 45.203125 6.703125 42.21875 6.5 37.03125 
L 14.90625 37.03125 
C 15.59375 43.390625 19.40625 46.28125 27.203125 46.28125 
C 34.703125 46.28125 38.90625 43.484375 38.90625 38.515625 
L 38.90625 36.328125 
C 38.90625 32.828125 36.796875 31.34375 30.203125 30.546875 
C 18.40625 29.0625 16.59375 28.65625 13.40625 27.359375 
C 7.296875 24.875 4.203125 20.1875 4.203125 13.421875 
C 4.203125 3.96875 10.796875 -2 21.40625 -2 
C 28 -2 33.296875 0.296875 39.203125 5.703125 
C 39.796875 0.390625 42.40625 -2 47.796875 -2 
C 49.5 -2 50.796875 -1.8125 53.5 -1.09375 
z
M 38.90625 16.75 
C 38.90625 13.953125 38.09375 12.265625 35.59375 9.984375 
C 32.203125 6.890625 28.09375 5.3125 23.203125 5.3125 
C 16.703125 5.3125 12.90625 8.390625 12.90625 13.65625 
C 12.90625 19.140625 16.59375 21.921875 25.5 23.21875 
C 34.296875 24.40625 36.09375 24.8125 38.90625 26.09375 
z
" id="Nimbus_Sans_L_Regular-97"/>
      <path d="M 15.203125 73 
L 6.796875 73 
L 6.796875 -0.03125 
L 15.203125 -0.03125 
z
" id="Nimbus_Sans_L_Regular-108"/>
      <path d="M 22.90625 73 
L -0.796875 -2 
L 4.703125 -2 
L 28.40625 73 
z
" id="Nimbus_Sans_L_Regular-47"/>
      <path d="M 7 52.484375 
L 7 0 
L 15.40625 0 
L 15.40625 32.953125 
C 15.40625 40.578125 20.90625 46.6875 27.703125 46.6875 
C 33.90625 46.6875 37.40625 42.875 37.40625 36.15625 
L 37.40625 0 
L 45.796875 0 
L 45.796875 32.953125 
C 45.796875 40.578125 51.296875 46.6875 58.09375 46.6875 
C 64.203125 46.6875 67.796875 42.78125 67.796875 36.15625 
L 67.796875 0 
L 76.203125 0 
L 76.203125 39.375 
C 76.203125 48.78125 70.796875 54 61 54 
C 54 54 49.796875 51.890625 44.90625 45.984375 
C 41.796875 51.59375 37.59375 54 30.796875 54 
C 23.796875 54 19.203125 51.390625 14.703125 45.078125 
L 14.703125 52.484375 
z
" id="Nimbus_Sans_L_Regular-109"/>
      <path d="M 27.203125 54 
C 12.5 54 3.59375 43.53125 3.59375 25.984375 
C 3.59375 8.453125 12.40625 -2 27.296875 -2 
C 42 -2 51 8.453125 51 25.59375 
C 51 43.625 42.296875 54 27.203125 54 
z
M 27.296875 46.28125 
C 36.703125 46.28125 42.296875 38.625 42.296875 25.703125 
C 42.296875 13.453125 36.5 5.703125 27.296875 5.703125 
C 18 5.703125 12.296875 13.359375 12.296875 25.984375 
C 12.296875 38.53125 18 46.28125 27.296875 46.28125 
z
" id="Nimbus_Sans_L_Regular-111"/>
      <path d="M 9.296875 -21.5 
C 19.296875 -8.34375 25.59375 9.9375 25.59375 25.6875 
C 25.59375 41.5625 19.296875 59.84375 9.296875 73 
L 3.796875 73 
C 12.59375 58.640625 17.5 41.765625 17.5 25.6875 
C 17.5 9.734375 12.59375 -7.25 3.796875 -21.5 
z
" id="Nimbus_Sans_L_Regular-41"/>
     </defs>
     <g style="fill:#262626;" transform="translate(172.01419 373.47454)scale(0.143 -0.143)">
      <use transform="scale(0.996264)" xlink:href="#Nimbus_Sans_L_Regular-71"/>
      <use transform="translate(77.50837 0)scale(0.996264)" xlink:href="#Nimbus_Sans_L_Regular-65"/>
      <use transform="translate(143.958401 0)scale(0.996264)" xlink:href="#Nimbus_Sans_L_Regular-70"/>
      <use transform="translate(204.830032 0)scale(0.996264)" xlink:href="#Nimbus_Sans_L_Regular-70"/>
      <use transform="translate(293.396832 0)scale(0.996264)" xlink:href="#Nimbus_Sans_L_Regular-118"/>
      <use transform="translate(343.210033 0)scale(0.996264)" xlink:href="#Nimbus_Sans_L_Regular-49"/>
      <use transform="translate(398.60171 0)scale(0.996264)" xlink:href="#Nimbus_Sans_L_Regular-46"/>
      <use transform="translate(426.296879 0)scale(0.996264)" xlink:href="#Nimbus_Sans_L_Regular-55"/>
      <use transform="translate(509.383726 0)scale(0.996264)" xlink:href="#EURM10-1"/>
      <use transform="translate(580.445491 0)scale(0.996264)" xlink:href="#Nimbus_Sans_L_Regular-71"/>
      <use transform="translate(685.649031 0)scale(0.996264)" xlink:href="#Nimbus_Sans_L_Regular-40"/>
      <use transform="translate(718.824261 0)scale(0.996264)" xlink:href="#Nimbus_Sans_L_Regular-107"/>
      <use transform="translate(768.637461 0)scale(0.996264)" xlink:href="#Nimbus_Sans_L_Regular-99"/>
      <use transform="translate(818.450662 0)scale(0.996264)" xlink:href="#Nimbus_Sans_L_Regular-97"/>
      <use transform="translate(873.842339 0)scale(0.996264)" xlink:href="#Nimbus_Sans_L_Regular-108"/>
      <use transform="translate(895.959123 0)scale(0.996264)" xlink:href="#Nimbus_Sans_L_Regular-47"/>
      <use transform="translate(923.654293 0)scale(0.996264)" xlink:href="#Nimbus_Sans_L_Regular-109"/>
      <use transform="translate(1006.642723 0)scale(0.996264)" xlink:href="#Nimbus_Sans_L_Regular-111"/>
      <use transform="translate(1062.0344 0)scale(0.996264)" xlink:href="#Nimbus_Sans_L_Regular-108"/>
      <use transform="translate(1084.151184 0)scale(0.996264)" xlink:href="#Nimbus_Sans_L_Regular-41"/>
     </g>
    </g>
   </g>
   <g id="matplotlib.axis_2">
    <g id="ytick_1">
     <g id="line2d_14">
      <path clip-path="url(#p1779b96a45)" d="M 51.022969 337.973908 
L 452.782969 337.973908 
" style="fill:none;stroke:#cccccc;stroke-linecap:round;stroke-width:1.3;"/>
     </g>
     <g id="line2d_15"/>
     <g id="text_8">
      <!-- $-8$ -->
      <g style="fill:#262626;" transform="translate(24.648682 342.587816)scale(0.13 -0.13)">
       <use transform="scale(0.996264)" xlink:href="#CMSY10-0"/>
       <use transform="translate(77.487468 0)scale(0.996264)" xlink:href="#Nimbus_Sans_L_Regular-56"/>
      </g>
     </g>
    </g>
    <g id="ytick_2">
     <g id="line2d_16">
      <path clip-path="url(#p1779b96a45)" d="M 51.022969 272.741908 
L 452.782969 272.741908 
" style="fill:none;stroke:#cccccc;stroke-linecap:round;stroke-width:1.3;"/>
     </g>
     <g id="line2d_17"/>
     <g id="text_9">
      <!-- $-6$ -->
      <g style="fill:#262626;" transform="translate(24.648682 277.355816)scale(0.13 -0.13)">
       <use transform="scale(0.996264)" xlink:href="#CMSY10-0"/>
       <use transform="translate(77.487468 0)scale(0.996264)" xlink:href="#Nimbus_Sans_L_Regular-54"/>
      </g>
     </g>
    </g>
    <g id="ytick_3">
     <g id="line2d_18">
      <path clip-path="url(#p1779b96a45)" d="M 51.022969 207.509908 
L 452.782969 207.509908 
" style="fill:none;stroke:#cccccc;stroke-linecap:round;stroke-width:1.3;"/>
     </g>
     <g id="line2d_19"/>
     <g id="text_10">
      <!-- $-4$ -->
      <g style="fill:#262626;" transform="translate(24.648682 212.123816)scale(0.13 -0.13)">
       <use transform="scale(0.996264)" xlink:href="#CMSY10-0"/>
       <use transform="translate(77.487468 0)scale(0.996264)" xlink:href="#Nimbus_Sans_L_Regular-52"/>
      </g>
     </g>
    </g>
    <g id="ytick_4">
     <g id="line2d_20">
      <path clip-path="url(#p1779b96a45)" d="M 51.022969 142.277908 
L 452.782969 142.277908 
" style="fill:none;stroke:#cccccc;stroke-linecap:round;stroke-width:1.3;"/>
     </g>
     <g id="line2d_21"/>
     <g id="text_11">
      <!-- $-2$ -->
      <g style="fill:#262626;" transform="translate(24.648682 146.891816)scale(0.13 -0.13)">
       <use transform="scale(0.996264)" xlink:href="#CMSY10-0"/>
       <use transform="translate(77.487468 0)scale(0.996264)" xlink:href="#Nimbus_Sans_L_Regular-50"/>
      </g>
     </g>
    </g>
    <g id="ytick_5">
     <g id="line2d_22">
      <path clip-path="url(#p1779b96a45)" d="M 51.022969 77.045908 
L 452.782969 77.045908 
" style="fill:none;stroke:#cccccc;stroke-linecap:round;stroke-width:1.3;"/>
     </g>
     <g id="line2d_23"/>
     <g id="text_12">
      <!-- $0$ -->
      <g style="fill:#262626;" transform="translate(34.722052 81.659816)scale(0.13 -0.13)">
       <use transform="scale(0.996264)" xlink:href="#Nimbus_Sans_L_Regular-48"/>
      </g>
     </g>
    </g>
    <g id="ytick_6">
     <g id="line2d_24">
      <path clip-path="url(#p1779b96a45)" d="M 51.022969 11.813908 
L 452.782969 11.813908 
" style="fill:none;stroke:#cccccc;stroke-linecap:round;stroke-width:1.3;"/>
     </g>
     <g id="line2d_25"/>
     <g id="text_13">
      <!-- $2$ -->
      <g style="fill:#262626;" transform="translate(34.722052 16.427816)scale(0.13 -0.13)">
       <use transform="scale(0.996264)" xlink:href="#Nimbus_Sans_L_Regular-50"/>
      </g>
     </g>
    </g>
    <g id="text_14">
     <!-- SMIRNOFF99Frosst $\Delta$G (kcal/mol) -->
     <defs>
      <path d="M 59.59375 52.109375 
C 59.5 66.484375 49.703125 74.8125 32.90625 74.8125 
C 16.90625 74.8125 7 66.5625 7 53.28125 
C 7 44.328125 11.703125 38.703125 21.296875 36.1875 
L 39.40625 31.359375 
C 48.59375 28.9375 52.796875 25.21875 52.796875 19.484375 
C 52.796875 15.546875 50.703125 11.53125 47.59375 9.328125 
C 44.703125 7.3125 40.09375 6.203125 34.203125 6.203125 
C 26.296875 6.203125 20.90625 8.125 17.40625 12.34375 
C 14.703125 15.5625 13.5 19.09375 13.59375 23.609375 
L 4.796875 23.609375 
C 4.90625 16.890625 6.203125 12.46875 9.09375 8.4375 
C 14.09375 1.609375 22.5 -2 33.59375 -2 
C 42.296875 -2 49.40625 0.015625 54.09375 3.625 
C 59 7.546875 62.09375 14.078125 62.09375 20.421875 
C 62.09375 29.46875 56.5 36.109375 46.59375 38.828125 
L 28.296875 43.765625 
C 19.5 46.171875 16.296875 48.984375 16.296875 54.625 
C 16.296875 62.0625 22.796875 67 32.59375 67 
C 44.203125 67 50.703125 61.671875 50.796875 52.109375 
z
" id="Nimbus_Sans_L_Regular-83"/>
      <path d="M 46.796875 -0.03125 
L 67.296875 61.171875 
L 67.296875 -0.03125 
L 76.09375 -0.03125 
L 76.09375 73 
L 63.203125 73 
L 42 9.390625 
L 20.40625 73 
L 7.5 73 
L 7.5 -0.03125 
L 16.296875 -0.03125 
L 16.296875 61.171875 
L 37 -0.03125 
z
" id="Nimbus_Sans_L_Regular-77"/>
      <path d="M 19.40625 73 
L 10 73 
L 10 -0.03125 
L 19.40625 -0.03125 
z
" id="Nimbus_Sans_L_Regular-73"/>
      <path d="M 18.59375 31.78125 
L 42.59375 31.78125 
C 50.90625 31.78125 54.59375 27.71875 54.59375 18.546875 
L 54.5 11.90625 
C 54.5 7.3125 55.296875 2.828125 56.59375 -0.21875 
L 67.90625 -0.21875 
L 67.90625 2.125 
C 64.40625 4.5625 63.703125 7.21875 63.5 17.078125 
C 63.40625 29.265625 61.5 32.9375 53.59375 36.390625 
C 61.796875 40.359375 65.09375 45.40625 65.09375 53.65625 
C 65.09375 66.140625 57.203125 73 42.90625 73 
L 9.296875 73 
L 9.296875 -0.21875 
L 18.59375 -0.21875 
z
M 18.59375 40 
L 18.59375 64.78125 
L 41.09375 64.78125 
C 46.296875 64.78125 49.296875 64 51.59375 62.015625 
C 54.09375 59.9375 55.40625 56.6875 55.40625 52.34375 
C 55.40625 43.84375 51 40 41.09375 40 
z
" id="Nimbus_Sans_L_Regular-82"/>
      <path d="M 64.59375 73 
L 55.796875 73 
L 55.796875 13.296875 
L 17.703125 73 
L 7.59375 73 
L 7.59375 -0.03125 
L 16.40625 -0.03125 
L 16.40625 59.171875 
L 54.09375 -0.03125 
L 64.59375 -0.03125 
z
" id="Nimbus_Sans_L_Regular-78"/>
      <path d="M 38.90625 74.21875 
C 18 74.21875 3.796875 58.84375 3.796875 36.109375 
C 3.796875 13.359375 18 -2 39 -2 
C 47.796875 -2 55.703125 0.6875 61.59375 5.671875 
C 69.5 12.359375 74.203125 23.625 74.203125 35.5 
C 74.203125 58.953125 60.296875 74.21875 38.90625 74.21875 
z
M 38.90625 66 
C 54.703125 66 64.90625 54.046875 64.90625 35.703125 
C 64.90625 18.171875 54.40625 6.203125 39 6.203125 
C 23.5 6.203125 13.09375 18.171875 13.09375 36.109375 
C 13.09375 54.046875 23.5 66 38.90625 66 
z
" id="Nimbus_Sans_L_Regular-79"/>
      <path d="M 5.296875 16.625 
C 7 4.9375 14.59375 -2 25.40625 -2 
C 33.203125 -2 40.296875 1.78125 44.40625 8.0625 
C 48.90625 14.9375 50.90625 23.625 50.90625 36.484375 
C 50.90625 48.359375 49.09375 55.9375 44.90625 62.21875 
C 41 67.921875 34.796875 71 27 71 
C 13.5 71 3.796875 61.078125 3.796875 47.296875 
C 3.796875 34.21875 12.796875 25 25.59375 25 
C 32.296875 25 37.203125 27.40625 41.796875 32.90625 
C 41.703125 15.484375 36.09375 5.8125 26 5.8125 
C 19.796875 5.8125 15.5 9.75 14.09375 16.625 
z
M 26.90625 63.296875 
C 35.09375 63.296875 41.296875 56.59375 41.296875 47.515625 
C 41.296875 38.921875 35.203125 32.8125 26.59375 32.8125 
C 18.09375 32.8125 12.796875 38.625 12.796875 48 
C 12.796875 56.875 18.796875 63.296875 26.90625 63.296875 
z
" id="Nimbus_Sans_L_Regular-57"/>
      <path d="M 6.90625 52.484375 
L 6.90625 0 
L 15.296875 0 
L 15.296875 27.203125 
C 15.296875 34.703125 17.203125 39.609375 21.203125 42.5 
C 23.796875 44.40625 26.296875 45 32.09375 45 
L 32.09375 53.625 
C 30.703125 53.8125 30 53.8125 28.90625 53.8125 
C 23.5 53.8125 19.40625 50.625 14.59375 42.90625 
L 14.59375 52.484375 
z
" id="Nimbus_Sans_L_Regular-114"/>
      <path d="M 43.796875 37.921875 
C 43.703125 48.203125 36.90625 54 24.796875 54 
C 12.59375 54 4.703125 47.71875 4.703125 38.0625 
C 4.703125 29.890625 8.90625 26.015625 21.296875 23.03125 
L 29.09375 21.140625 
C 34.90625 19.734375 37.203125 17.65625 37.203125 13.875 
C 37.203125 9 32.296875 5.703125 25 5.703125 
C 20.5 5.703125 16.703125 7 14.59375 9.1875 
C 13.296875 10.6875 12.703125 12.171875 12.203125 15.84375 
L 3.40625 15.84375 
C 3.796875 3.765625 10.59375 -2 24.296875 -2 
C 37.5 -2 45.90625 4.453125 45.90625 14.515625 
C 45.90625 22.28125 41.5 26.578125 31.09375 29.0625 
L 23.09375 30.953125 
C 16.296875 32.53125 13.40625 34.734375 13.40625 38.40625 
C 13.40625 43.1875 17.703125 46.28125 24.5 46.28125 
C 31.203125 46.28125 34.796875 43.390625 35 37.921875 
z
" id="Nimbus_Sans_L_Regular-115"/>
      <path d="M 25.40625 52.8125 
L 16.796875 52.8125 
L 16.796875 67 
L 8.5 67 
L 8.5 52.8125 
L 1.40625 52.8125 
L 1.40625 46 
L 8.5 46 
L 8.5 6.3125 
C 8.5 1 12.09375 -2 18.59375 -2 
C 20.59375 -2 22.59375 -1.8125 25.40625 -1.296875 
L 25.40625 5.71875 
C 24.296875 5.40625 23 5.3125 21.40625 5.3125 
C 17.796875 5.3125 16.796875 6.3125 16.796875 10.015625 
L 16.796875 46 
L 25.40625 46 
z
" id="Nimbus_Sans_L_Regular-116"/>
     </defs>
     <g style="fill:#262626;" transform="translate(17.614239 284.928308)rotate(-90)scale(0.143 -0.143)">
      <use transform="scale(0.996264)" xlink:href="#Nimbus_Sans_L_Regular-83"/>
      <use transform="translate(66.450031 0)scale(0.996264)" xlink:href="#Nimbus_Sans_L_Regular-77"/>
      <use transform="translate(149.438461 0)scale(0.996264)" xlink:href="#Nimbus_Sans_L_Regular-73"/>
      <use transform="translate(177.133631 0)scale(0.996264)" xlink:href="#Nimbus_Sans_L_Regular-82"/>
      <use transform="translate(249.063616 0)scale(0.996264)" xlink:href="#Nimbus_Sans_L_Regular-78"/>
      <use transform="translate(320.993601 0)scale(0.996264)" xlink:href="#Nimbus_Sans_L_Regular-79"/>
      <use transform="translate(398.501971 0)scale(0.996264)" xlink:href="#Nimbus_Sans_L_Regular-70"/>
      <use transform="translate(459.373601 0)scale(0.996264)" xlink:href="#Nimbus_Sans_L_Regular-70"/>
      <use transform="translate(520.245232 0)scale(0.996264)" xlink:href="#Nimbus_Sans_L_Regular-57"/>
      <use transform="translate(575.636909 0)scale(0.996264)" xlink:href="#Nimbus_Sans_L_Regular-57"/>
      <use transform="translate(631.028586 0)scale(0.996264)" xlink:href="#Nimbus_Sans_L_Regular-70"/>
      <use transform="translate(687.417485 0)scale(0.996264)" xlink:href="#Nimbus_Sans_L_Regular-114"/>
      <use transform="translate(720.592714 0)scale(0.996264)" xlink:href="#Nimbus_Sans_L_Regular-111"/>
      <use transform="translate(775.984391 0)scale(0.996264)" xlink:href="#Nimbus_Sans_L_Regular-115"/>
      <use transform="translate(825.797592 0)scale(0.996264)" xlink:href="#Nimbus_Sans_L_Regular-115"/>
      <use transform="translate(875.610792 0)scale(0.996264)" xlink:href="#Nimbus_Sans_L_Regular-116"/>
      <use transform="translate(931.001132 0)scale(0.996264)" xlink:href="#EURM10-1"/>
      <use transform="translate(1002.062897 0)scale(0.996264)" xlink:href="#Nimbus_Sans_L_Regular-71"/>
      <use transform="translate(1107.266437 0)scale(0.996264)" xlink:href="#Nimbus_Sans_L_Regular-40"/>
      <use transform="translate(1140.441667 0)scale(0.996264)" xlink:href="#Nimbus_Sans_L_Regular-107"/>
      <use transform="translate(1190.254867 0)scale(0.996264)" xlink:href="#Nimbus_Sans_L_Regular-99"/>
      <use transform="translate(1240.068068 0)scale(0.996264)" xlink:href="#Nimbus_Sans_L_Regular-97"/>
      <use transform="translate(1295.459744 0)scale(0.996264)" xlink:href="#Nimbus_Sans_L_Regular-108"/>
      <use transform="translate(1317.576529 0)scale(0.996264)" xlink:href="#Nimbus_Sans_L_Regular-47"/>
      <use transform="translate(1345.271698 0)scale(0.996264)" xlink:href="#Nimbus_Sans_L_Regular-109"/>
      <use transform="translate(1428.260129 0)scale(0.996264)" xlink:href="#Nimbus_Sans_L_Regular-111"/>
      <use transform="translate(1483.651806 0)scale(0.996264)" xlink:href="#Nimbus_Sans_L_Regular-108"/>
      <use transform="translate(1505.76859 0)scale(0.996264)" xlink:href="#Nimbus_Sans_L_Regular-41"/>
     </g>
    </g>
   </g>
   <g id="LineCollection_1">
    <path clip-path="url(#p1779b96a45)" d="M 362.352118 182.62366 
L 381.215936 182.62366 
" style="fill:none;stroke:#808080;"/>
    <path clip-path="url(#p1779b96a45)" d="M 336.784588 94.807419 
L 358.500769 94.807419 
" style="fill:none;stroke:#808080;"/>
    <path clip-path="url(#p1779b96a45)" d="M 275.191011 170.627435 
L 294.697313 170.627435 
" style="fill:none;stroke:#808080;"/>
    <path clip-path="url(#p1779b96a45)" d="M 271.886653 190.549391 
L 291.523275 190.549391 
" style="fill:none;stroke:#808080;"/>
    <path clip-path="url(#p1779b96a45)" d="M 239.075933 165.122209 
L 258.907571 165.122209 
" style="fill:none;stroke:#808080;"/>
    <path clip-path="url(#p1779b96a45)" d="M 237.053845 204.69176 
L 256.465543 204.69176 
" style="fill:none;stroke:#808080;"/>
    <path clip-path="url(#p1779b96a45)" d="M 388.282563 52.127062 
L 409.049907 52.127062 
" style="fill:none;stroke:#808080;"/>
    <path clip-path="url(#p1779b96a45)" d="M 327.998189 115.89711 
L 349.615128 115.89711 
" style="fill:none;stroke:#808080;"/>
    <path clip-path="url(#p1779b96a45)" d="M 232.40212 172.722357 
L 252.301369 172.722357 
" style="fill:none;stroke:#808080;"/>
    <path clip-path="url(#p1779b96a45)" d="M 265.311775 142.642161 
L 284.990636 142.642161 
" style="fill:none;stroke:#808080;"/>
    <path clip-path="url(#p1779b96a45)" d="M 262.997805 192.751302 
L 282.422474 192.751302 
" style="fill:none;stroke:#808080;"/>
    <path clip-path="url(#p1779b96a45)" d="M 221.739757 201.962499 
L 242.810904 201.962499 
" style="fill:none;stroke:#808080;"/>
    <path clip-path="url(#p1779b96a45)" d="M 258.01018 205.765466 
L 277.468363 205.765466 
" style="fill:none;stroke:#808080;"/>
    <path clip-path="url(#p1779b96a45)" d="M 355.480617 135.34859 
L 376.002931 135.34859 
" style="fill:none;stroke:#808080;"/>
    <path clip-path="url(#p1779b96a45)" d="M 340.190878 104.522992 
L 359.646991 104.522992 
" style="fill:none;stroke:#808080;"/>
    <path clip-path="url(#p1779b96a45)" d="M 268.84928 175.343036 
L 289.153143 175.343036 
" style="fill:none;stroke:#808080;"/>
    <path clip-path="url(#p1779b96a45)" d="M 202.79017 225.368308 
L 222.139578 225.368308 
" style="fill:none;stroke:#808080;"/>
    <path clip-path="url(#p1779b96a45)" d="M 210.74541 189.005175 
L 230.024987 189.005175 
" style="fill:none;stroke:#808080;"/>
    <path clip-path="url(#p1779b96a45)" d="M 319.87631 162.63446 
L 339.435272 162.63446 
" style="fill:none;stroke:#808080;"/>
    <path clip-path="url(#p1779b96a45)" d="M 317.446383 86.516156 
L 337.972274 86.516156 
" style="fill:none;stroke:#808080;"/>
    <path clip-path="url(#p1779b96a45)" d="M 297.99568 148.629031 
L 326.681627 148.629031 
" style="fill:none;stroke:#808080;"/>
    <path clip-path="url(#p1779b96a45)" d="M 329.0896 120.728986 
L 360.00392 120.728986 
" style="fill:none;stroke:#808080;"/>
    <path clip-path="url(#p1779b96a45)" d="M 303.076946 158.185709 
L 331.305492 158.185709 
" style="fill:none;stroke:#808080;"/>
    <path clip-path="url(#p1779b96a45)" d="M 317.549054 139.318289 
L 346.294655 139.318289 
" style="fill:none;stroke:#808080;"/>
    <path clip-path="url(#p1779b96a45)" d="M 258.232856 184.861233 
L 286.15413 184.861233 
" style="fill:none;stroke:#808080;"/>
    <path clip-path="url(#p1779b96a45)" d="M 278.196288 170.334534 
L 306.931636 170.334534 
" style="fill:none;stroke:#808080;"/>
   </g>
   <g id="LineCollection_2">
    <path clip-path="url(#p1779b96a45)" d="M 371.784027 197.345386 
L 371.784027 167.901934 
" style="fill:none;stroke:#808080;"/>
    <path clip-path="url(#p1779b96a45)" d="M 347.642679 107.226699 
L 347.642679 82.388138 
" style="fill:none;stroke:#808080;"/>
    <path clip-path="url(#p1779b96a45)" d="M 284.944162 187.78552 
L 284.944162 153.469349 
" style="fill:none;stroke:#808080;"/>
    <path clip-path="url(#p1779b96a45)" d="M 281.704964 207.673693 
L 281.704964 173.425088 
" style="fill:none;stroke:#808080;"/>
    <path clip-path="url(#p1779b96a45)" d="M 248.991752 180.233323 
L 248.991752 150.011094 
" style="fill:none;stroke:#808080;"/>
    <path clip-path="url(#p1779b96a45)" d="M 246.759694 232.409336 
L 246.759694 176.974184 
" style="fill:none;stroke:#808080;"/>
    <path clip-path="url(#p1779b96a45)" d="M 398.666235 61.823654 
L 398.666235 42.430471 
" style="fill:none;stroke:#808080;"/>
    <path clip-path="url(#p1779b96a45)" d="M 338.806659 126.18293 
L 338.806659 105.61129 
" style="fill:none;stroke:#808080;"/>
    <path clip-path="url(#p1779b96a45)" d="M 242.351744 182.907808 
L 242.351744 162.536905 
" style="fill:none;stroke:#808080;"/>
    <path clip-path="url(#p1779b96a45)" d="M 275.151206 151.788122 
L 275.151206 133.496199 
" style="fill:none;stroke:#808080;"/>
    <path clip-path="url(#p1779b96a45)" d="M 272.71014 202.89056 
L 272.71014 182.612044 
" style="fill:none;stroke:#808080;"/>
    <path clip-path="url(#p1779b96a45)" d="M 232.27533 213.511897 
L 232.27533 190.413102 
" style="fill:none;stroke:#808080;"/>
    <path clip-path="url(#p1779b96a45)" d="M 267.739272 230.091524 
L 267.739272 181.439409 
" style="fill:none;stroke:#808080;"/>
    <path clip-path="url(#p1779b96a45)" d="M 365.741774 151.869714 
L 365.741774 118.827465 
" style="fill:none;stroke:#808080;"/>
    <path clip-path="url(#p1779b96a45)" d="M 349.918934 119.093064 
L 349.918934 89.95292 
" style="fill:none;stroke:#808080;"/>
    <path clip-path="url(#p1779b96a45)" d="M 279.001211 190.865622 
L 279.001211 159.820449 
" style="fill:none;stroke:#808080;"/>
    <path clip-path="url(#p1779b96a45)" d="M 212.464874 244.590034 
L 212.464874 206.146582 
" style="fill:none;stroke:#808080;"/>
    <path clip-path="url(#p1779b96a45)" d="M 220.385199 200.041461 
L 220.385199 177.968888 
" style="fill:none;stroke:#808080;"/>
    <path clip-path="url(#p1779b96a45)" d="M 329.655791 189.153208 
L 329.655791 136.115713 
" style="fill:none;stroke:#808080;"/>
    <path clip-path="url(#p1779b96a45)" d="M 327.709328 100.354698 
L 327.709328 72.677614 
" style="fill:none;stroke:#808080;"/>
    <path clip-path="url(#p1779b96a45)" d="M 312.338654 157.70967 
L 312.338654 139.548391 
" style="fill:none;stroke:#808080;"/>
    <path clip-path="url(#p1779b96a45)" d="M 344.54676 130.038714 
L 344.54676 111.419258 
" style="fill:none;stroke:#808080;"/>
    <path clip-path="url(#p1779b96a45)" d="M 317.191219 167.938105 
L 317.191219 148.433313 
" style="fill:none;stroke:#808080;"/>
    <path clip-path="url(#p1779b96a45)" d="M 331.921854 149.366516 
L 331.921854 129.270062 
" style="fill:none;stroke:#808080;"/>
    <path clip-path="url(#p1779b96a45)" d="M 272.193493 194.760465 
L 272.193493 174.962 
" style="fill:none;stroke:#808080;"/>
    <path clip-path="url(#p1779b96a45)" d="M 292.563962 179.36407 
L 292.563962 161.304998 
" style="fill:none;stroke:#808080;"/>
   </g>
   <g id="LineCollection_3">
    <path clip-path="url(#p1779b96a45)" d="M 346.433646 70.451773 
L 371.50822 70.451773 
" style="fill:none;stroke:#808080;"/>
    <path clip-path="url(#p1779b96a45)" d="M 328.167668 124.038516 
L 348.690477 124.038516 
" style="fill:none;stroke:#808080;"/>
    <path clip-path="url(#p1779b96a45)" d="M 249.093384 175.737109 
L 268.829348 175.737109 
" style="fill:none;stroke:#808080;"/>
    <path clip-path="url(#p1779b96a45)" d="M 209.970199 200.255737 
L 229.033073 200.255737 
" style="fill:none;stroke:#808080;"/>
    <path clip-path="url(#p1779b96a45)" d="M 247.607475 161.448034 
L 266.750015 161.448034 
" style="fill:none;stroke:#808080;"/>
    <path clip-path="url(#p1779b96a45)" d="M 260.238653 135.914928 
L 286.542235 135.914928 
" style="fill:none;stroke:#808080;"/>
    <path clip-path="url(#p1779b96a45)" d="M 262.737966 159.440317 
L 282.210149 159.440317 
" style="fill:none;stroke:#808080;"/>
    <path clip-path="url(#p1779b96a45)" d="M 242.489848 177.019165 
L 262.206793 177.019165 
" style="fill:none;stroke:#808080;"/>
    <path clip-path="url(#p1779b96a45)" d="M 288.133454 154.282513 
L 308.428881 154.282513 
" style="fill:none;stroke:#808080;"/>
    <path clip-path="url(#p1779b96a45)" d="M 267.284349 149.599537 
L 286.93425 149.599537 
" style="fill:none;stroke:#808080;"/>
    <path clip-path="url(#p1779b96a45)" d="M 299.967008 154.70074 
L 319.384584 154.70074 
" style="fill:none;stroke:#808080;"/>
    <path clip-path="url(#p1779b96a45)" d="M 336.590782 107.20443 
L 358.267625 107.20443 
" style="fill:none;stroke:#808080;"/>
    <path clip-path="url(#p1779b96a45)" d="M 240.67656 192.133833 
L 261.054297 192.133833 
" style="fill:none;stroke:#808080;"/>
    <path clip-path="url(#p1779b96a45)" d="M 168.741752 223.849364 
L 189.510388 223.849364 
" style="fill:none;stroke:#808080;"/>
    <path clip-path="url(#p1779b96a45)" d="M 325.334995 136.40002 
L 345.6313 136.40002 
" style="fill:none;stroke:#808080;"/>
    <path clip-path="url(#p1779b96a45)" d="M 300.767023 152.505634 
L 320.201131 152.505634 
" style="fill:none;stroke:#808080;"/>
    <path clip-path="url(#p1779b96a45)" d="M 292.40668 135.084639 
L 325.006566 135.084639 
" style="fill:none;stroke:#808080;"/>
    <path clip-path="url(#p1779b96a45)" d="M 316.940355 114.900111 
L 345.521966 114.900111 
" style="fill:none;stroke:#808080;"/>
    <path clip-path="url(#p1779b96a45)" d="M 224.465852 187.481053 
L 252.787479 187.481053 
" style="fill:none;stroke:#808080;"/>
    <path clip-path="url(#p1779b96a45)" d="M 282.053505 149.16239 
L 310.827519 149.16239 
" style="fill:none;stroke:#808080;"/>
    <path clip-path="url(#p1779b96a45)" d="M 290.297802 132.126686 
L 320.938447 132.126686 
" style="fill:none;stroke:#808080;"/>
    <path clip-path="url(#p1779b96a45)" d="M 268.842478 169.278919 
L 296.546278 169.278919 
" style="fill:none;stroke:#808080;"/>
    <path clip-path="url(#p1779b96a45)" d="M 246.712239 164.413906 
L 282.641586 164.413906 
" style="fill:none;stroke:#808080;"/>
    <path clip-path="url(#p1779b96a45)" d="M 276.834865 155.053344 
L 306.983787 155.053344 
" style="fill:none;stroke:#808080;"/>
    <path clip-path="url(#p1779b96a45)" d="M 238.706422 212.166903 
L 268.415419 212.166903 
" style="fill:none;stroke:#808080;"/>
    <path clip-path="url(#p1779b96a45)" d="M 289.126161 143.180415 
L 324.142408 143.180415 
" style="fill:none;stroke:#808080;"/>
    <path clip-path="url(#p1779b96a45)" d="M 275.935658 165.560236 
L 306.661017 165.560236 
" style="fill:none;stroke:#808080;"/>
    <path clip-path="url(#p1779b96a45)" d="M 248.648429 168.302244 
L 278.70905 168.302244 
" style="fill:none;stroke:#808080;"/>
    <path clip-path="url(#p1779b96a45)" d="M 303.643143 129.667175 
L 333.981651 129.667175 
" style="fill:none;stroke:#808080;"/>
    <path clip-path="url(#p1779b96a45)" d="M 306.985484 146.759916 
L 338.613194 146.759916 
" style="fill:none;stroke:#808080;"/>
    <path clip-path="url(#p1779b96a45)" d="M 250.489402 179.405191 
L 280.900294 179.405191 
" style="fill:none;stroke:#808080;"/>
    <path clip-path="url(#p1779b96a45)" d="M 285.557584 147.026777 
L 314.137193 147.026777 
" style="fill:none;stroke:#808080;"/>
    <path clip-path="url(#p1779b96a45)" d="M 225.422727 192.789821 
L 256.939987 192.789821 
" style="fill:none;stroke:#808080;"/>
    <path clip-path="url(#p1779b96a45)" d="M 267.185866 172.013748 
L 297.873721 172.013748 
" style="fill:none;stroke:#808080;"/>
    <path clip-path="url(#p1779b96a45)" d="M 281.60835 161.125711 
L 312.685327 161.125711 
" style="fill:none;stroke:#808080;"/>
    <path clip-path="url(#p1779b96a45)" d="M 320.45385 127.302927 
L 350.108732 127.302927 
" style="fill:none;stroke:#808080;"/>
    <path clip-path="url(#p1779b96a45)" d="M 297.143266 139.992291 
L 327.427438 139.992291 
" style="fill:none;stroke:#808080;"/>
    <path clip-path="url(#p1779b96a45)" d="M 321.483355 112.507893 
L 352.203995 112.507893 
" style="fill:none;stroke:#808080;"/>
   </g>
   <g id="LineCollection_4">
    <path clip-path="url(#p1779b96a45)" d="M 358.970933 80.182277 
L 358.970933 60.721268 
" style="fill:none;stroke:#808080;"/>
    <path clip-path="url(#p1779b96a45)" d="M 338.429072 133.419771 
L 338.429072 114.657262 
" style="fill:none;stroke:#808080;"/>
    <path clip-path="url(#p1779b96a45)" d="M 258.961366 185.11784 
L 258.961366 166.356379 
" style="fill:none;stroke:#808080;"/>
    <path clip-path="url(#p1779b96a45)" d="M 219.501636 208.505845 
L 219.501636 192.00563 
" style="fill:none;stroke:#808080;"/>
    <path clip-path="url(#p1779b96a45)" d="M 257.178745 171.302368 
L 257.178745 151.593699 
" style="fill:none;stroke:#808080;"/>
    <path clip-path="url(#p1779b96a45)" d="M 273.390444 145.879103 
L 273.390444 125.950753 
" style="fill:none;stroke:#808080;"/>
    <path clip-path="url(#p1779b96a45)" d="M 272.474058 167.909174 
L 272.474058 150.97146 
" style="fill:none;stroke:#808080;"/>
    <path clip-path="url(#p1779b96a45)" d="M 252.34832 186.648831 
L 252.34832 167.389498 
" style="fill:none;stroke:#808080;"/>
    <path clip-path="url(#p1779b96a45)" d="M 298.281168 164.051858 
L 298.281168 144.513168 
" style="fill:none;stroke:#808080;"/>
    <path clip-path="url(#p1779b96a45)" d="M 277.109299 157.362699 
L 277.109299 141.836374 
" style="fill:none;stroke:#808080;"/>
    <path clip-path="url(#p1779b96a45)" d="M 309.675796 162.95384 
L 309.675796 146.447639 
" style="fill:none;stroke:#808080;"/>
    <path clip-path="url(#p1779b96a45)" d="M 347.429204 117.271398 
L 347.429204 97.137463 
" style="fill:none;stroke:#808080;"/>
    <path clip-path="url(#p1779b96a45)" d="M 250.865428 202.604227 
L 250.865428 181.663439 
" style="fill:none;stroke:#808080;"/>
    <path clip-path="url(#p1779b96a45)" d="M 179.12607 235.486579 
L 179.12607 212.212148 
" style="fill:none;stroke:#808080;"/>
    <path clip-path="url(#p1779b96a45)" d="M 335.483147 146.753774 
L 335.483147 126.046266 
" style="fill:none;stroke:#808080;"/>
    <path clip-path="url(#p1779b96a45)" d="M 310.484077 161.968549 
L 310.484077 143.042719 
" style="fill:none;stroke:#808080;"/>
    <path clip-path="url(#p1779b96a45)" d="M 308.706623 144.710481 
L 308.706623 125.458796 
" style="fill:none;stroke:#808080;"/>
    <path clip-path="url(#p1779b96a45)" d="M 331.23116 124.97626 
L 331.23116 104.823963 
" style="fill:none;stroke:#808080;"/>
    <path clip-path="url(#p1779b96a45)" d="M 238.626666 196.874161 
L 238.626666 178.087945 
" style="fill:none;stroke:#808080;"/>
    <path clip-path="url(#p1779b96a45)" d="M 296.440512 159.399541 
L 296.440512 138.925239 
" style="fill:none;stroke:#808080;"/>
    <path clip-path="url(#p1779b96a45)" d="M 305.618125 142.520849 
L 305.618125 121.732523 
" style="fill:none;stroke:#808080;"/>
    <path clip-path="url(#p1779b96a45)" d="M 282.694378 178.555749 
L 282.694378 160.002089 
" style="fill:none;stroke:#808080;"/>
    <path clip-path="url(#p1779b96a45)" d="M 264.676913 180.213112 
L 264.676913 148.6147 
" style="fill:none;stroke:#808080;"/>
    <path clip-path="url(#p1779b96a45)" d="M 291.909326 165.457105 
L 291.909326 144.649584 
" style="fill:none;stroke:#808080;"/>
    <path clip-path="url(#p1779b96a45)" d="M 253.56092 226.484207 
L 253.56092 197.849598 
" style="fill:none;stroke:#808080;"/>
    <path clip-path="url(#p1779b96a45)" d="M 306.634284 158.367715 
L 306.634284 127.993115 
" style="fill:none;stroke:#808080;"/>
    <path clip-path="url(#p1779b96a45)" d="M 291.298338 178.180122 
L 291.298338 152.940349 
" style="fill:none;stroke:#808080;"/>
    <path clip-path="url(#p1779b96a45)" d="M 263.67874 181.170374 
L 263.67874 155.434114 
" style="fill:none;stroke:#808080;"/>
    <path clip-path="url(#p1779b96a45)" d="M 318.812397 141.432366 
L 318.812397 117.901984 
" style="fill:none;stroke:#808080;"/>
    <path clip-path="url(#p1779b96a45)" d="M 322.799339 160.955796 
L 322.799339 132.564037 
" style="fill:none;stroke:#808080;"/>
    <path clip-path="url(#p1779b96a45)" d="M 265.694848 195.168377 
L 265.694848 163.642006 
" style="fill:none;stroke:#808080;"/>
    <path clip-path="url(#p1779b96a45)" d="M 299.847389 158.11916 
L 299.847389 135.934395 
" style="fill:none;stroke:#808080;"/>
    <path clip-path="url(#p1779b96a45)" d="M 241.181357 204.761659 
L 241.181357 180.817983 
" style="fill:none;stroke:#808080;"/>
    <path clip-path="url(#p1779b96a45)" d="M 282.529793 186.391369 
L 282.529793 157.636126 
" style="fill:none;stroke:#808080;"/>
    <path clip-path="url(#p1779b96a45)" d="M 297.146838 172.731295 
L 297.146838 149.520127 
" style="fill:none;stroke:#808080;"/>
    <path clip-path="url(#p1779b96a45)" d="M 335.281291 140.375858 
L 335.281291 114.229995 
" style="fill:none;stroke:#808080;"/>
    <path clip-path="url(#p1779b96a45)" d="M 312.285352 149.81652 
L 312.285352 130.168062 
" style="fill:none;stroke:#808080;"/>
    <path clip-path="url(#p1779b96a45)" d="M 336.843675 123.20079 
L 336.843675 101.814996 
" style="fill:none;stroke:#808080;"/>
   </g>
   <g id="LineCollection_5">
    <path clip-path="url(#p1779b96a45)" d="M 351.10609 102.795851 
L 372.470596 102.795851 
" style="fill:none;stroke:#808080;"/>
    <path clip-path="url(#p1779b96a45)" d="M 372.183869 103.64405 
L 393.853715 103.64405 
" style="fill:none;stroke:#808080;"/>
    <path clip-path="url(#p1779b96a45)" d="M 337.039743 108.997578 
L 361.222567 108.997578 
" style="fill:none;stroke:#808080;"/>
    <path clip-path="url(#p1779b96a45)" d="M 295.322857 152.723025 
L 315.734368 152.723025 
" style="fill:none;stroke:#808080;"/>
    <path clip-path="url(#p1779b96a45)" d="M 308.808026 65.896405 
L 346.264546 65.896405 
" style="fill:none;stroke:#808080;"/>
    <path clip-path="url(#p1779b96a45)" d="M 373.828576 61.87626 
L 398.573705 61.87626 
" style="fill:none;stroke:#808080;"/>
    <path clip-path="url(#p1779b96a45)" d="M 288.33719 134.556795 
L 308.508345 134.556795 
" style="fill:none;stroke:#808080;"/>
    <path clip-path="url(#p1779b96a45)" d="M 325.212966 128.089375 
L 344.410607 128.089375 
" style="fill:none;stroke:#808080;"/>
    <path clip-path="url(#p1779b96a45)" d="M 346.642455 125.238467 
L 375.0363 125.238467 
" style="fill:none;stroke:#808080;"/>
    <path clip-path="url(#p1779b96a45)" d="M 293.844441 122.089015 
L 326.6001 122.089015 
" style="fill:none;stroke:#808080;"/>
    <path clip-path="url(#p1779b96a45)" d="M 246.956058 175.623584 
L 274.583101 175.623584 
" style="fill:none;stroke:#808080;"/>
    <path clip-path="url(#p1779b96a45)" d="M 244.118302 164.648601 
L 272.493231 164.648601 
" style="fill:none;stroke:#808080;"/>
    <path clip-path="url(#p1779b96a45)" d="M 239.696486 173.11948 
L 267.571338 173.11948 
" style="fill:none;stroke:#808080;"/>
    <path clip-path="url(#p1779b96a45)" d="M 218.955858 192.145694 
L 247.408178 192.145694 
" style="fill:none;stroke:#808080;"/>
    <path clip-path="url(#p1779b96a45)" d="M 271.414156 138.035252 
L 300.285446 138.035252 
" style="fill:none;stroke:#808080;"/>
    <path clip-path="url(#p1779b96a45)" d="M 294.360289 140.624088 
L 322.471906 140.624088 
" style="fill:none;stroke:#808080;"/>
    <path clip-path="url(#p1779b96a45)" d="M 257.273792 167.85017 
L 285.491135 167.85017 
" style="fill:none;stroke:#808080;"/>
    <path clip-path="url(#p1779b96a45)" d="M 271.296837 168.264218 
L 299.377819 168.264218 
" style="fill:none;stroke:#808080;"/>
    <path clip-path="url(#p1779b96a45)" d="M 239.361301 185.077436 
L 268.603914 185.077436 
" style="fill:none;stroke:#808080;"/>
    <path clip-path="url(#p1779b96a45)" d="M 233.049096 189.464304 
L 261.166116 189.464304 
" style="fill:none;stroke:#808080;"/>
    <path clip-path="url(#p1779b96a45)" d="M 248.805643 180.0356 
L 276.61737 180.0356 
" style="fill:none;stroke:#808080;"/>
    <path clip-path="url(#p1779b96a45)" d="M 282.282757 184.726033 
L 311.371736 184.726033 
" style="fill:none;stroke:#808080;"/>
   </g>
   <g id="LineCollection_6">
    <path clip-path="url(#p1779b96a45)" d="M 361.788343 112.227935 
L 361.788343 93.363766 
" style="fill:none;stroke:#808080;"/>
    <path clip-path="url(#p1779b96a45)" d="M 383.018792 114.654232 
L 383.018792 92.633868 
" style="fill:none;stroke:#808080;"/>
    <path clip-path="url(#p1779b96a45)" d="M 349.131155 116.682946 
L 349.131155 101.31221 
" style="fill:none;stroke:#808080;"/>
    <path clip-path="url(#p1779b96a45)" d="M 305.528613 162.738754 
L 305.528613 142.707297 
" style="fill:none;stroke:#808080;"/>
    <path clip-path="url(#p1779b96a45)" d="M 327.536286 73.960481 
L 327.536286 57.832329 
" style="fill:none;stroke:#808080;"/>
    <path clip-path="url(#p1779b96a45)" d="M 386.201141 71.540048 
L 386.201141 52.212473 
" style="fill:none;stroke:#808080;"/>
    <path clip-path="url(#p1779b96a45)" d="M 298.422768 144.374674 
L 298.422768 124.738916 
" style="fill:none;stroke:#808080;"/>
    <path clip-path="url(#p1779b96a45)" d="M 334.811786 136.670092 
L 334.811786 119.508659 
" style="fill:none;stroke:#808080;"/>
    <path clip-path="url(#p1779b96a45)" d="M 360.839378 133.991337 
L 360.839378 116.485598 
" style="fill:none;stroke:#808080;"/>
    <path clip-path="url(#p1779b96a45)" d="M 310.22227 131.484591 
L 310.22227 112.693439 
" style="fill:none;stroke:#808080;"/>
    <path clip-path="url(#p1779b96a45)" d="M 260.76958 184.387784 
L 260.76958 166.859384 
" style="fill:none;stroke:#808080;"/>
    <path clip-path="url(#p1779b96a45)" d="M 258.305766 174.551 
L 258.305766 154.746202 
" style="fill:none;stroke:#808080;"/>
    <path clip-path="url(#p1779b96a45)" d="M 253.633912 183.363161 
L 253.633912 162.875799 
" style="fill:none;stroke:#808080;"/>
    <path clip-path="url(#p1779b96a45)" d="M 233.182018 204.015978 
L 233.182018 180.27541 
" style="fill:none;stroke:#808080;"/>
    <path clip-path="url(#p1779b96a45)" d="M 285.849801 146.574714 
L 285.849801 129.49579 
" style="fill:none;stroke:#808080;"/>
    <path clip-path="url(#p1779b96a45)" d="M 308.416098 148.991351 
L 308.416098 132.256825 
" style="fill:none;stroke:#808080;"/>
    <path clip-path="url(#p1779b96a45)" d="M 271.382464 176.764274 
L 271.382464 158.936065 
" style="fill:none;stroke:#808080;"/>
    <path clip-path="url(#p1779b96a45)" d="M 285.337328 176.847886 
L 285.337328 159.680549 
" style="fill:none;stroke:#808080;"/>
    <path clip-path="url(#p1779b96a45)" d="M 253.982608 193.971258 
L 253.982608 176.183613 
" style="fill:none;stroke:#808080;"/>
    <path clip-path="url(#p1779b96a45)" d="M 247.107606 197.877146 
L 247.107606 181.051461 
" style="fill:none;stroke:#808080;"/>
    <path clip-path="url(#p1779b96a45)" d="M 262.711507 190.981733 
L 262.711507 169.089468 
" style="fill:none;stroke:#808080;"/>
    <path clip-path="url(#p1779b96a45)" d="M 296.827246 194.263795 
L 296.827246 175.188271 
" style="fill:none;stroke:#808080;"/>
   </g>
   <g id="line2d_26">
    <defs>
     <path d="M 0 4 
C 1.060812 4 2.078319 3.578535 2.828427 2.828427 
C 3.578535 2.078319 4 1.060812 4 0 
C 4 -1.060812 3.578535 -2.078319 2.828427 -2.828427 
C 2.078319 -3.578535 1.060812 -4 0 -4 
C -1.060812 -4 -2.078319 -3.578535 -2.828427 -2.828427 
C -3.578535 -2.078319 -4 -1.060812 -4 0 
C -4 1.060812 -3.578535 2.078319 -2.828427 2.828427 
C -2.078319 3.578535 -1.060812 4 0 4 
z
" id="mbf4b22ac08" style="stroke:#000000;stroke-width:0.2;"/>
    </defs>
    <g clip-path="url(#p1779b96a45)">
     <use style="fill:#ff8c00;stroke:#000000;stroke-width:0.2;" x="371.784027" xlink:href="#mbf4b22ac08" y="182.62366"/>
     <use style="fill:#ff8c00;stroke:#000000;stroke-width:0.2;" x="347.642679" xlink:href="#mbf4b22ac08" y="94.807419"/>
     <use style="fill:#ff8c00;stroke:#000000;stroke-width:0.2;" x="284.944162" xlink:href="#mbf4b22ac08" y="170.627435"/>
     <use style="fill:#ff8c00;stroke:#000000;stroke-width:0.2;" x="281.704964" xlink:href="#mbf4b22ac08" y="190.549391"/>
     <use style="fill:#ff8c00;stroke:#000000;stroke-width:0.2;" x="248.991752" xlink:href="#mbf4b22ac08" y="165.122209"/>
     <use style="fill:#ff8c00;stroke:#000000;stroke-width:0.2;" x="246.759694" xlink:href="#mbf4b22ac08" y="204.69176"/>
     <use style="fill:#ff8c00;stroke:#000000;stroke-width:0.2;" x="398.666235" xlink:href="#mbf4b22ac08" y="52.127062"/>
     <use style="fill:#ff8c00;stroke:#000000;stroke-width:0.2;" x="338.806659" xlink:href="#mbf4b22ac08" y="115.89711"/>
     <use style="fill:#ff8c00;stroke:#000000;stroke-width:0.2;" x="242.351744" xlink:href="#mbf4b22ac08" y="172.722357"/>
     <use style="fill:#ff8c00;stroke:#000000;stroke-width:0.2;" x="275.151206" xlink:href="#mbf4b22ac08" y="142.642161"/>
     <use style="fill:#ff8c00;stroke:#000000;stroke-width:0.2;" x="272.71014" xlink:href="#mbf4b22ac08" y="192.751302"/>
     <use style="fill:#ff8c00;stroke:#000000;stroke-width:0.2;" x="232.27533" xlink:href="#mbf4b22ac08" y="201.962499"/>
     <use style="fill:#ff8c00;stroke:#000000;stroke-width:0.2;" x="267.739272" xlink:href="#mbf4b22ac08" y="205.765466"/>
     <use style="fill:#ff8c00;stroke:#000000;stroke-width:0.2;" x="365.741774" xlink:href="#mbf4b22ac08" y="135.34859"/>
     <use style="fill:#ff8c00;stroke:#000000;stroke-width:0.2;" x="349.918934" xlink:href="#mbf4b22ac08" y="104.522992"/>
     <use style="fill:#ff8c00;stroke:#000000;stroke-width:0.2;" x="279.001211" xlink:href="#mbf4b22ac08" y="175.343036"/>
     <use style="fill:#ff8c00;stroke:#000000;stroke-width:0.2;" x="212.464874" xlink:href="#mbf4b22ac08" y="225.368308"/>
     <use style="fill:#ff8c00;stroke:#000000;stroke-width:0.2;" x="220.385199" xlink:href="#mbf4b22ac08" y="189.005175"/>
     <use style="fill:#ff8c00;stroke:#000000;stroke-width:0.2;" x="329.655791" xlink:href="#mbf4b22ac08" y="162.63446"/>
     <use style="fill:#ff8c00;stroke:#000000;stroke-width:0.2;" x="327.709328" xlink:href="#mbf4b22ac08" y="86.516156"/>
     <use style="fill:#ff8c00;stroke:#000000;stroke-width:0.2;" x="312.338654" xlink:href="#mbf4b22ac08" y="148.629031"/>
     <use style="fill:#ff8c00;stroke:#000000;stroke-width:0.2;" x="344.54676" xlink:href="#mbf4b22ac08" y="120.728986"/>
     <use style="fill:#ff8c00;stroke:#000000;stroke-width:0.2;" x="317.191219" xlink:href="#mbf4b22ac08" y="158.185709"/>
     <use style="fill:#ff8c00;stroke:#000000;stroke-width:0.2;" x="331.921854" xlink:href="#mbf4b22ac08" y="139.318289"/>
     <use style="fill:#ff8c00;stroke:#000000;stroke-width:0.2;" x="272.193493" xlink:href="#mbf4b22ac08" y="184.861233"/>
     <use style="fill:#ff8c00;stroke:#000000;stroke-width:0.2;" x="292.563962" xlink:href="#mbf4b22ac08" y="170.334534"/>
    </g>
   </g>
   <g id="line2d_27">
    <defs>
     <path d="M 0 4 
C 1.060812 4 2.078319 3.578535 2.828427 2.828427 
C 3.578535 2.078319 4 1.060812 4 0 
C 4 -1.060812 3.578535 -2.078319 2.828427 -2.828427 
C 2.078319 -3.578535 1.060812 -4 0 -4 
C -1.060812 -4 -2.078319 -3.578535 -2.828427 -2.828427 
C -3.578535 -2.078319 -4 -1.060812 -4 0 
C -4 1.060812 -3.578535 2.078319 -2.828427 2.828427 
C -2.078319 3.578535 -1.060812 4 0 4 
z
" id="m0b2acf93f4" style="stroke:#000000;stroke-width:0.2;"/>
    </defs>
    <g clip-path="url(#p1779b96a45)">
     <use style="fill:#800080;stroke:#000000;stroke-width:0.2;" x="358.970933" xlink:href="#m0b2acf93f4" y="70.451773"/>
     <use style="fill:#800080;stroke:#000000;stroke-width:0.2;" x="338.429072" xlink:href="#m0b2acf93f4" y="124.038516"/>
     <use style="fill:#800080;stroke:#000000;stroke-width:0.2;" x="258.961366" xlink:href="#m0b2acf93f4" y="175.737109"/>
     <use style="fill:#800080;stroke:#000000;stroke-width:0.2;" x="219.501636" xlink:href="#m0b2acf93f4" y="200.255737"/>
     <use style="fill:#800080;stroke:#000000;stroke-width:0.2;" x="257.178745" xlink:href="#m0b2acf93f4" y="161.448034"/>
     <use style="fill:#800080;stroke:#000000;stroke-width:0.2;" x="273.390444" xlink:href="#m0b2acf93f4" y="135.914928"/>
     <use style="fill:#800080;stroke:#000000;stroke-width:0.2;" x="272.474058" xlink:href="#m0b2acf93f4" y="159.440317"/>
     <use style="fill:#800080;stroke:#000000;stroke-width:0.2;" x="252.34832" xlink:href="#m0b2acf93f4" y="177.019165"/>
     <use style="fill:#800080;stroke:#000000;stroke-width:0.2;" x="298.281168" xlink:href="#m0b2acf93f4" y="154.282513"/>
     <use style="fill:#800080;stroke:#000000;stroke-width:0.2;" x="277.109299" xlink:href="#m0b2acf93f4" y="149.599537"/>
     <use style="fill:#800080;stroke:#000000;stroke-width:0.2;" x="309.675796" xlink:href="#m0b2acf93f4" y="154.70074"/>
     <use style="fill:#800080;stroke:#000000;stroke-width:0.2;" x="347.429204" xlink:href="#m0b2acf93f4" y="107.20443"/>
     <use style="fill:#800080;stroke:#000000;stroke-width:0.2;" x="250.865428" xlink:href="#m0b2acf93f4" y="192.133833"/>
     <use style="fill:#800080;stroke:#000000;stroke-width:0.2;" x="179.12607" xlink:href="#m0b2acf93f4" y="223.849364"/>
     <use style="fill:#800080;stroke:#000000;stroke-width:0.2;" x="335.483147" xlink:href="#m0b2acf93f4" y="136.40002"/>
     <use style="fill:#800080;stroke:#000000;stroke-width:0.2;" x="310.484077" xlink:href="#m0b2acf93f4" y="152.505634"/>
     <use style="fill:#800080;stroke:#000000;stroke-width:0.2;" x="308.706623" xlink:href="#m0b2acf93f4" y="135.084639"/>
     <use style="fill:#800080;stroke:#000000;stroke-width:0.2;" x="331.23116" xlink:href="#m0b2acf93f4" y="114.900111"/>
     <use style="fill:#800080;stroke:#000000;stroke-width:0.2;" x="238.626666" xlink:href="#m0b2acf93f4" y="187.481053"/>
     <use style="fill:#800080;stroke:#000000;stroke-width:0.2;" x="296.440512" xlink:href="#m0b2acf93f4" y="149.16239"/>
     <use style="fill:#800080;stroke:#000000;stroke-width:0.2;" x="305.618125" xlink:href="#m0b2acf93f4" y="132.126686"/>
     <use style="fill:#800080;stroke:#000000;stroke-width:0.2;" x="282.694378" xlink:href="#m0b2acf93f4" y="169.278919"/>
     <use style="fill:#800080;stroke:#000000;stroke-width:0.2;" x="264.676913" xlink:href="#m0b2acf93f4" y="164.413906"/>
     <use style="fill:#800080;stroke:#000000;stroke-width:0.2;" x="291.909326" xlink:href="#m0b2acf93f4" y="155.053344"/>
     <use style="fill:#800080;stroke:#000000;stroke-width:0.2;" x="253.56092" xlink:href="#m0b2acf93f4" y="212.166903"/>
     <use style="fill:#800080;stroke:#000000;stroke-width:0.2;" x="306.634284" xlink:href="#m0b2acf93f4" y="143.180415"/>
     <use style="fill:#800080;stroke:#000000;stroke-width:0.2;" x="291.298338" xlink:href="#m0b2acf93f4" y="165.560236"/>
     <use style="fill:#800080;stroke:#000000;stroke-width:0.2;" x="263.67874" xlink:href="#m0b2acf93f4" y="168.302244"/>
     <use style="fill:#800080;stroke:#000000;stroke-width:0.2;" x="318.812397" xlink:href="#m0b2acf93f4" y="129.667175"/>
     <use style="fill:#800080;stroke:#000000;stroke-width:0.2;" x="322.799339" xlink:href="#m0b2acf93f4" y="146.759916"/>
     <use style="fill:#800080;stroke:#000000;stroke-width:0.2;" x="265.694848" xlink:href="#m0b2acf93f4" y="179.405191"/>
     <use style="fill:#800080;stroke:#000000;stroke-width:0.2;" x="299.847389" xlink:href="#m0b2acf93f4" y="147.026777"/>
     <use style="fill:#800080;stroke:#000000;stroke-width:0.2;" x="241.181357" xlink:href="#m0b2acf93f4" y="192.789821"/>
     <use style="fill:#800080;stroke:#000000;stroke-width:0.2;" x="282.529793" xlink:href="#m0b2acf93f4" y="172.013748"/>
     <use style="fill:#800080;stroke:#000000;stroke-width:0.2;" x="297.146838" xlink:href="#m0b2acf93f4" y="161.125711"/>
     <use style="fill:#800080;stroke:#000000;stroke-width:0.2;" x="335.281291" xlink:href="#m0b2acf93f4" y="127.302927"/>
     <use style="fill:#800080;stroke:#000000;stroke-width:0.2;" x="312.285352" xlink:href="#m0b2acf93f4" y="139.992291"/>
     <use style="fill:#800080;stroke:#000000;stroke-width:0.2;" x="336.843675" xlink:href="#m0b2acf93f4" y="112.507893"/>
    </g>
   </g>
   <g id="line2d_28">
    <defs>
     <path d="M 0 4 
C 1.060812 4 2.078319 3.578535 2.828427 2.828427 
C 3.578535 2.078319 4 1.060812 4 0 
C 4 -1.060812 3.578535 -2.078319 2.828427 -2.828427 
C 2.078319 -3.578535 1.060812 -4 0 -4 
C -1.060812 -4 -2.078319 -3.578535 -2.828427 -2.828427 
C -3.578535 -2.078319 -4 -1.060812 -4 0 
C -4 1.060812 -3.578535 2.078319 -2.828427 2.828427 
C -2.078319 3.578535 -1.060812 4 0 4 
z
" id="m9f8e156bb5" style="stroke:#000000;stroke-width:0.2;"/>
    </defs>
    <g clip-path="url(#p1779b96a45)">
     <use style="fill:#6495ed;stroke:#000000;stroke-width:0.2;" x="361.788343" xlink:href="#m9f8e156bb5" y="102.795851"/>
     <use style="fill:#6495ed;stroke:#000000;stroke-width:0.2;" x="383.018792" xlink:href="#m9f8e156bb5" y="103.64405"/>
     <use style="fill:#6495ed;stroke:#000000;stroke-width:0.2;" x="349.131155" xlink:href="#m9f8e156bb5" y="108.997578"/>
     <use style="fill:#6495ed;stroke:#000000;stroke-width:0.2;" x="305.528613" xlink:href="#m9f8e156bb5" y="152.723025"/>
     <use style="fill:#6495ed;stroke:#000000;stroke-width:0.2;" x="327.536286" xlink:href="#m9f8e156bb5" y="65.896405"/>
     <use style="fill:#6495ed;stroke:#000000;stroke-width:0.2;" x="386.201141" xlink:href="#m9f8e156bb5" y="61.87626"/>
     <use style="fill:#6495ed;stroke:#000000;stroke-width:0.2;" x="298.422768" xlink:href="#m9f8e156bb5" y="134.556795"/>
     <use style="fill:#6495ed;stroke:#000000;stroke-width:0.2;" x="334.811786" xlink:href="#m9f8e156bb5" y="128.089375"/>
     <use style="fill:#6495ed;stroke:#000000;stroke-width:0.2;" x="360.839378" xlink:href="#m9f8e156bb5" y="125.238467"/>
     <use style="fill:#6495ed;stroke:#000000;stroke-width:0.2;" x="310.22227" xlink:href="#m9f8e156bb5" y="122.089015"/>
     <use style="fill:#6495ed;stroke:#000000;stroke-width:0.2;" x="260.76958" xlink:href="#m9f8e156bb5" y="175.623584"/>
     <use style="fill:#6495ed;stroke:#000000;stroke-width:0.2;" x="258.305766" xlink:href="#m9f8e156bb5" y="164.648601"/>
     <use style="fill:#6495ed;stroke:#000000;stroke-width:0.2;" x="253.633912" xlink:href="#m9f8e156bb5" y="173.11948"/>
     <use style="fill:#6495ed;stroke:#000000;stroke-width:0.2;" x="233.182018" xlink:href="#m9f8e156bb5" y="192.145694"/>
     <use style="fill:#6495ed;stroke:#000000;stroke-width:0.2;" x="285.849801" xlink:href="#m9f8e156bb5" y="138.035252"/>
     <use style="fill:#6495ed;stroke:#000000;stroke-width:0.2;" x="308.416098" xlink:href="#m9f8e156bb5" y="140.624088"/>
     <use style="fill:#6495ed;stroke:#000000;stroke-width:0.2;" x="271.382464" xlink:href="#m9f8e156bb5" y="167.85017"/>
     <use style="fill:#6495ed;stroke:#000000;stroke-width:0.2;" x="285.337328" xlink:href="#m9f8e156bb5" y="168.264218"/>
     <use style="fill:#6495ed;stroke:#000000;stroke-width:0.2;" x="253.982608" xlink:href="#m9f8e156bb5" y="185.077436"/>
     <use style="fill:#6495ed;stroke:#000000;stroke-width:0.2;" x="247.107606" xlink:href="#m9f8e156bb5" y="189.464304"/>
     <use style="fill:#6495ed;stroke:#000000;stroke-width:0.2;" x="262.711507" xlink:href="#m9f8e156bb5" y="180.0356"/>
     <use style="fill:#6495ed;stroke:#000000;stroke-width:0.2;" x="296.827246" xlink:href="#m9f8e156bb5" y="184.726033"/>
    </g>
   </g>
   <g id="patch_3">
    <path d="M 51.022969 337.973908 
L 51.022969 11.813908 
" style="fill:none;stroke:#cccccc;stroke-linecap:square;stroke-linejoin:miter;"/>
   </g>
   <g id="patch_4">
    <path d="M 452.782969 337.973908 
L 452.782969 11.813908 
" style="fill:none;stroke:#cccccc;stroke-linecap:square;stroke-linejoin:miter;"/>
   </g>
   <g id="patch_5">
    <path d="M 51.022969 337.973908 
L 452.782969 337.973908 
" style="fill:none;stroke:#cccccc;stroke-linecap:square;stroke-linejoin:miter;"/>
   </g>
   <g id="patch_6">
    <path d="M 51.022969 11.813908 
L 452.782969 11.813908 
" style="fill:none;stroke:#cccccc;stroke-linecap:square;stroke-linejoin:miter;"/>
   </g>
   <g id="text_15">
    <!-- R$^2$ = 0.52 -->
    <defs>
     <path d="M 53.40625 35.015625 
L 5 35.015625 
L 5 28 
L 53.40625 28 
z
M 53.40625 18 
L 5 18 
L 5 11 
L 53.40625 11 
z
" id="Nimbus_Sans_L_Regular-61"/>
     <path d="M 47.59375 71 
L 11 71 
L 5.703125 32.59375 
L 13.796875 32.59375 
C 17.90625 37.484375 21.296875 39.1875 26.796875 39.1875 
C 36.296875 39.1875 42.296875 32.6875 42.296875 22.203125 
C 42.296875 12 36.40625 5.8125 26.796875 5.8125 
C 19.09375 5.8125 14.40625 9.703125 12.296875 17.703125 
L 3.5 17.703125 
C 4.703125 11.90625 5.703125 9.09375 7.796875 6.484375 
C 11.796875 1.09375 19 -2 27 -2 
C 41.296875 -2 51.296875 8.390625 51.296875 23.390625 
C 51.296875 37.40625 42 47 28.40625 47 
C 23.40625 47 19.40625 45.703125 15.296875 42.6875 
L 18.09375 62.296875 
L 47.59375 62.296875 
z
" id="Nimbus_Sans_L_Regular-53"/>
    </defs>
    <g style="fill:#ff8c00;" transform="translate(389.709246 332.47993)scale(0.14 -0.14)">
     <use transform="scale(0.996264)" xlink:href="#Nimbus_Sans_L_Regular-82"/>
     <use transform="translate(71.929985 36.153639)scale(0.697382)" xlink:href="#Nimbus_Sans_L_Regular-50"/>
     <use transform="translate(138.897287 0)scale(0.996264)" xlink:href="#Nimbus_Sans_L_Regular-61"/>
     <use transform="translate(224.773949 0)scale(0.996264)" xlink:href="#Nimbus_Sans_L_Regular-48"/>
     <use transform="translate(280.165626 0)scale(0.996264)" xlink:href="#Nimbus_Sans_L_Regular-46"/>
     <use transform="translate(307.860796 0)scale(0.996264)" xlink:href="#Nimbus_Sans_L_Regular-53"/>
     <use transform="translate(363.252473 0)scale(0.996264)" xlink:href="#Nimbus_Sans_L_Regular-50"/>
    </g>
   </g>
   <g id="text_16">
    <!-- R$^2$ = 0.64 -->
    <g style="fill:#800080;" transform="translate(389.709246 316.17193)scale(0.14 -0.14)">
     <use transform="scale(0.996264)" xlink:href="#Nimbus_Sans_L_Regular-82"/>
     <use transform="translate(71.929985 36.153639)scale(0.697382)" xlink:href="#Nimbus_Sans_L_Regular-50"/>
     <use transform="translate(138.897287 0)scale(0.996264)" xlink:href="#Nimbus_Sans_L_Regular-61"/>
     <use transform="translate(224.773949 0)scale(0.996264)" xlink:href="#Nimbus_Sans_L_Regular-48"/>
     <use transform="translate(280.165626 0)scale(0.996264)" xlink:href="#Nimbus_Sans_L_Regular-46"/>
     <use transform="translate(307.860796 0)scale(0.996264)" xlink:href="#Nimbus_Sans_L_Regular-54"/>
     <use transform="translate(363.252473 0)scale(0.996264)" xlink:href="#Nimbus_Sans_L_Regular-52"/>
    </g>
   </g>
   <g id="text_17">
    <!-- R$^2$ = 0.66 -->
    <g style="fill:#6495ed;" transform="translate(389.709246 299.86393)scale(0.14 -0.14)">
     <use transform="scale(0.996264)" xlink:href="#Nimbus_Sans_L_Regular-82"/>
     <use transform="translate(71.929985 36.153639)scale(0.697382)" xlink:href="#Nimbus_Sans_L_Regular-50"/>
     <use transform="translate(138.897287 0)scale(0.996264)" xlink:href="#Nimbus_Sans_L_Regular-61"/>
     <use transform="translate(224.773949 0)scale(0.996264)" xlink:href="#Nimbus_Sans_L_Regular-48"/>
     <use transform="translate(280.165626 0)scale(0.996264)" xlink:href="#Nimbus_Sans_L_Regular-46"/>
     <use transform="translate(307.860796 0)scale(0.996264)" xlink:href="#Nimbus_Sans_L_Regular-54"/>
     <use transform="translate(363.252473 0)scale(0.996264)" xlink:href="#Nimbus_Sans_L_Regular-54"/>
    </g>
   </g>
   <g id="text_18">
    <g id="patch_7">
     <path d="M 54.980569 52.959131 
L 220.107177 52.959131 
L 220.107177 15.015508 
L 54.980569 15.015508 
z
" style="fill:#ffffff;stroke:#ffffff;stroke-linejoin:miter;stroke-width:0.39;"/>
    </g>
    <!-- RMSE = 0.88 [0.71, 1.07] -->
    <defs>
     <path d="M 18.296875 33 
L 58 33 
L 58 41.21875 
L 18.296875 41.21875 
L 18.296875 64.78125 
L 59.5 64.78125 
L 59.5 73 
L 9 73 
L 9 0 
L 61.296875 0 
L 61.296875 8.21875 
L 18.296875 8.21875 
z
" id="Nimbus_Sans_L_Regular-69"/>
     <path d="M 25 73 
L 6.40625 73 
L 6.40625 -21.203125 
L 25 -21.203125 
L 25 -14 
L 14.703125 -14 
L 14.703125 65.78125 
L 25 65.78125 
z
" id="Nimbus_Sans_L_Regular-91"/>
     <path d="M 8.703125 10 
L 8.703125 -0.421875 
L 14.703125 -0.421875 
L 14.703125 -2.21875 
C 14.703125 -9.109375 13.40625 -11.09375 8.703125 -11.09375 
L 8.703125 -15 
C 15.703125 -15 19.203125 -10.53125 19.203125 -1.96875 
L 19.203125 10 
z
" id="Nimbus_Sans_L_Regular-44"/>
     <path d="M 2.296875 -21.203125 
L 20.90625 -21.203125 
L 20.90625 73 
L 2.296875 73 
L 2.296875 65.78125 
L 12.59375 65.78125 
L 12.59375 -14 
L 2.296875 -14 
z
" id="Nimbus_Sans_L_Regular-93"/>
    </defs>
    <g style="fill:#262626;" transform="translate(59.040569 29.013157)scale(0.14 -0.14)">
     <use transform="scale(0.996264)" xlink:href="#Nimbus_Sans_L_Regular-82"/>
     <use transform="translate(71.929985 0)scale(0.996264)" xlink:href="#Nimbus_Sans_L_Regular-77"/>
     <use transform="translate(154.918415 0)scale(0.996264)" xlink:href="#Nimbus_Sans_L_Regular-83"/>
     <use transform="translate(221.368446 0)scale(0.996264)" xlink:href="#Nimbus_Sans_L_Regular-69"/>
     <use transform="translate(315.513647 0)scale(0.996264)" xlink:href="#Nimbus_Sans_L_Regular-61"/>
     <use transform="translate(401.390309 0)scale(0.996264)" xlink:href="#Nimbus_Sans_L_Regular-48"/>
     <use transform="translate(456.781986 0)scale(0.996264)" xlink:href="#Nimbus_Sans_L_Regular-46"/>
     <use transform="translate(484.477156 0)scale(0.996264)" xlink:href="#Nimbus_Sans_L_Regular-56"/>
     <use transform="translate(539.868833 0)scale(0.996264)" xlink:href="#Nimbus_Sans_L_Regular-56"/>
     <use transform="translate(622.95568 0)scale(0.996264)" xlink:href="#Nimbus_Sans_L_Regular-91"/>
     <use transform="translate(650.650849 0)scale(0.996264)" xlink:href="#Nimbus_Sans_L_Regular-48"/>
     <use transform="translate(706.042526 0)scale(0.996264)" xlink:href="#Nimbus_Sans_L_Regular-46"/>
     <use transform="translate(733.737696 0)scale(0.996264)" xlink:href="#Nimbus_Sans_L_Regular-55"/>
     <use transform="translate(789.129373 0)scale(0.996264)" xlink:href="#Nimbus_Sans_L_Regular-49"/>
     <use transform="translate(844.52105 0)scale(0.996264)" xlink:href="#Nimbus_Sans_L_Regular-44"/>
     <use transform="translate(899.911389 0)scale(0.996264)" xlink:href="#Nimbus_Sans_L_Regular-49"/>
     <use transform="translate(955.303066 0)scale(0.996264)" xlink:href="#Nimbus_Sans_L_Regular-46"/>
     <use transform="translate(982.998235 0)scale(0.996264)" xlink:href="#Nimbus_Sans_L_Regular-48"/>
     <use transform="translate(1038.389912 0)scale(0.996264)" xlink:href="#Nimbus_Sans_L_Regular-55"/>
     <use transform="translate(1093.781589 0)scale(0.996264)" xlink:href="#Nimbus_Sans_L_Regular-93"/>
    </g>
    <!-- R$^2$ = 0.59 [0.42, 0.73] -->
    <defs>
     <path d="M 22.09375 33 
L 23.203125 33 
L 26.90625 33 
C 36.59375 33 41.59375 28.59375 41.59375 20.0625 
C 41.59375 11.125 36.09375 5.8125 26.90625 5.8125 
C 17.296875 5.8125 12.59375 10.640625 12 21.015625 
L 3.203125 21.015625 
C 3.59375 15.28125 4.59375 11.5625 6.296875 8.34375 
C 9.90625 1.515625 16.90625 -2 26.59375 -2 
C 41.203125 -2 50.59375 6.734375 50.59375 20.203125 
C 50.59375 29.25 47.09375 34.28125 38.59375 37.203125 
C 45.203125 39.78125 48.5 44.71875 48.5 51.734375 
C 48.5 63.78125 40.40625 71 26.90625 71 
C 12.59375 71 5 63.28125 4.703125 48.359375 
L 13.5 48.359375 
C 13.59375 52.59375 14 54.953125 15.09375 57.109375 
C 17.09375 60.9375 21.5 63.296875 27 63.296875 
C 34.796875 63.296875 39.5 58.75 39.5 51.359375 
C 39.5 46.421875 37.703125 43.453125 33.796875 41.890625 
C 31.40625 40.90625 28.296875 40.5 22.09375 40.5 
z
" id="Nimbus_Sans_L_Regular-51"/>
    </defs>
    <g style="fill:#262626;" transform="translate(59.040569 45.928353)scale(0.14 -0.14)">
     <use transform="scale(0.996264)" xlink:href="#Nimbus_Sans_L_Regular-82"/>
     <use transform="translate(71.929985 36.153639)scale(0.697382)" xlink:href="#Nimbus_Sans_L_Regular-50"/>
     <use transform="translate(138.897287 0)scale(0.996264)" xlink:href="#Nimbus_Sans_L_Regular-61"/>
     <use transform="translate(224.773949 0)scale(0.996264)" xlink:href="#Nimbus_Sans_L_Regular-48"/>
     <use transform="translate(280.165626 0)scale(0.996264)" xlink:href="#Nimbus_Sans_L_Regular-46"/>
     <use transform="translate(307.860796 0)scale(0.996264)" xlink:href="#Nimbus_Sans_L_Regular-53"/>
     <use transform="translate(363.252473 0)scale(0.996264)" xlink:href="#Nimbus_Sans_L_Regular-57"/>
     <use transform="translate(446.33932 0)scale(0.996264)" xlink:href="#Nimbus_Sans_L_Regular-91"/>
     <use transform="translate(474.034489 0)scale(0.996264)" xlink:href="#Nimbus_Sans_L_Regular-48"/>
     <use transform="translate(529.426166 0)scale(0.996264)" xlink:href="#Nimbus_Sans_L_Regular-46"/>
     <use transform="translate(557.121336 0)scale(0.996264)" xlink:href="#Nimbus_Sans_L_Regular-52"/>
     <use transform="translate(612.513013 0)scale(0.996264)" xlink:href="#Nimbus_Sans_L_Regular-50"/>
     <use transform="translate(667.90469 0)scale(0.996264)" xlink:href="#Nimbus_Sans_L_Regular-44"/>
     <use transform="translate(723.295029 0)scale(0.996264)" xlink:href="#Nimbus_Sans_L_Regular-48"/>
     <use transform="translate(778.686706 0)scale(0.996264)" xlink:href="#Nimbus_Sans_L_Regular-46"/>
     <use transform="translate(806.381875 0)scale(0.996264)" xlink:href="#Nimbus_Sans_L_Regular-55"/>
     <use transform="translate(861.773552 0)scale(0.996264)" xlink:href="#Nimbus_Sans_L_Regular-51"/>
     <use transform="translate(917.165229 0)scale(0.996264)" xlink:href="#Nimbus_Sans_L_Regular-93"/>
    </g>
   </g>
  </g>
 </g>
 <defs>
  <clipPath id="p1779b96a45">
   <rect height="326.16" width="401.76" x="51.022969" y="11.813908"/>
  </clipPath>
 </defs>
</svg>
