<?xml version="1.0" encoding="utf-8" standalone="no"?>
<!DOCTYPE svg PUBLIC "-//W3C//DTD SVG 1.1//EN"
  "http://www.w3.org/Graphics/SVG/1.1/DTD/svg11.dtd">
<!-- Created with matplotlib (http://matplotlib.org/) -->
<svg height="383pt" version="1.1" viewBox="0 0 463 383" width="463pt" xmlns="http://www.w3.org/2000/svg" xmlns:xlink="http://www.w3.org/1999/xlink">
 <defs>
  <style type="text/css">
*{stroke-linecap:butt;stroke-linejoin:round;}
  </style>
 </defs>
 <g id="figure_1">
  <g id="patch_1">
   <path d="M 0 383.708983 
L 463.583428 383.708983 
L 463.583428 0 
L 0 0 
z
" style="fill:#ffffff;"/>
  </g>
  <g id="axes_1">
   <g id="patch_2">
    <path d="M 51.022969 337.973908 
L 452.782969 337.973908 
L 452.782969 11.813908 
L 51.022969 11.813908 
z
" style="fill:#ffffff;"/>
   </g>
   <g id="line2d_1">
    <path clip-path="url(#pa7e83ef26f)" d="M -1 380.207609 
L 464.583428 2.233966 
" style="fill:none;stroke:#4c4c4c;stroke-linecap:round;stroke-width:0.5;"/>
   </g>
   <g id="matplotlib.axis_1">
    <g id="xtick_1">
     <g id="line2d_2">
      <path clip-path="url(#pa7e83ef26f)" d="M 51.022969 337.973908 
L 51.022969 11.813908 
" style="fill:none;stroke:#cccccc;stroke-linecap:round;stroke-width:1.3;"/>
     </g>
     <g id="line2d_3"/>
     <g id="text_1">
      <!-- $-8$ -->
      <defs>
       <path d="M 65.90625 23 
C 67.59375 23 69.40625 23 69.40625 25 
C 69.40625 27 67.59375 27 65.90625 27 
L 11.796875 27 
C 10.09375 27 8.296875 27 8.296875 25 
C 8.296875 23 10.09375 23 11.796875 23 
z
" id="CMSY10-0"/>
       <path d="M 39.09375 37.484375 
C 46.40625 41.875 48.796875 45.46875 48.796875 52.15625 
C 48.796875 63.21875 40.09375 71 27.5 71 
C 15 71 6.203125 63.21875 6.203125 52.15625 
C 6.203125 45.578125 8.59375 41.984375 15.796875 37.484375 
C 7.703125 33.59375 3.703125 27.71875 3.703125 19.9375 
C 3.703125 6.96875 13.5 -2 27.5 -2 
C 41.5 -2 51.296875 6.984375 51.296875 19.84375 
C 51.296875 27.71875 47.296875 33.59375 39.09375 37.484375 
z
M 27.5 63.1875 
C 35 63.1875 39.796875 58.8125 39.796875 51.953125 
C 39.796875 45.375 34.90625 41 27.5 41 
C 20.09375 41 15.203125 45.375 15.203125 52.046875 
C 15.203125 58.8125 20.09375 63.1875 27.5 63.1875 
z
M 27.5 33.578125 
C 36.296875 33.578125 42.296875 28 42.296875 19.734375 
C 42.296875 11.390625 36.296875 5.8125 27.296875 5.8125 
C 18.703125 5.8125 12.703125 11.484375 12.703125 19.734375 
C 12.703125 28 18.703125 33.578125 27.5 33.578125 
z
" id="Nimbus_Sans_L_Regular-56"/>
      </defs>
      <g style="fill:#262626;" transform="translate(42.385826 356.301725)scale(0.13 -0.13)">
       <use transform="scale(0.996264)" xlink:href="#CMSY10-0"/>
       <use transform="translate(77.487468 0)scale(0.996264)" xlink:href="#Nimbus_Sans_L_Regular-56"/>
      </g>
     </g>
    </g>
    <g id="xtick_2">
     <g id="line2d_4">
      <path clip-path="url(#pa7e83ef26f)" d="M 131.374969 337.973908 
L 131.374969 11.813908 
" style="fill:none;stroke:#cccccc;stroke-linecap:round;stroke-width:1.3;"/>
     </g>
     <g id="line2d_5"/>
     <g id="text_2">
      <!-- $-6$ -->
      <defs>
       <path d="M 49.796875 52.84375 
C 48.09375 64.234375 40.5 71 29.703125 71 
C 21.90625 71 14.90625 67.21875 10.703125 60.9375 
C 6.296875 54.0625 4.296875 45.375 4.296875 32.515625 
C 4.296875 20.640625 6.09375 13.0625 10.296875 6.78125 
C 14.09375 1.078125 20.296875 -2 28.09375 -2 
C 41.59375 -2 51.296875 8.09375 51.296875 22.109375 
C 51.296875 35.4375 42.296875 44.8125 29.59375 44.8125 
C 22.59375 44.8125 17.09375 42.109375 13.296875 36.90625 
C 13.40625 53.8125 19 63.1875 29.09375 63.1875 
C 35.296875 63.1875 39.59375 59.421875 41 52.84375 
z
M 28.5 37 
C 37 37 42.296875 31.03125 42.296875 21.40625 
C 42.296875 12.390625 36.296875 5.8125 28.203125 5.8125 
C 20 5.8125 13.796875 12.703125 13.796875 21.90625 
C 13.796875 30.828125 19.796875 37 28.5 37 
z
" id="Nimbus_Sans_L_Regular-54"/>
      </defs>
      <g style="fill:#262626;" transform="translate(122.737826 356.301725)scale(0.13 -0.13)">
       <use transform="scale(0.996264)" xlink:href="#CMSY10-0"/>
       <use transform="translate(77.487468 0)scale(0.996264)" xlink:href="#Nimbus_Sans_L_Regular-54"/>
      </g>
     </g>
    </g>
    <g id="xtick_3">
     <g id="line2d_6">
      <path clip-path="url(#pa7e83ef26f)" d="M 211.726969 337.973908 
L 211.726969 11.813908 
" style="fill:none;stroke:#cccccc;stroke-linecap:round;stroke-width:1.3;"/>
     </g>
     <g id="line2d_7"/>
     <g id="text_3">
      <!-- $-4$ -->
      <defs>
       <path d="M 32.703125 17 
L 32.703125 0 
L 41.5 0 
L 41.5 17 
L 52 17 
L 52 24.90625 
L 41.5 24.90625 
L 41.5 71.015625 
L 35 71.015625 
L 2.796875 26.3125 
L 2.796875 17 
z
M 32.703125 24.90625 
L 10.5 24.90625 
L 32.703125 55.984375 
z
" id="Nimbus_Sans_L_Regular-52"/>
      </defs>
      <g style="fill:#262626;" transform="translate(203.089826 356.301725)scale(0.13 -0.13)">
       <use transform="scale(0.996264)" xlink:href="#CMSY10-0"/>
       <use transform="translate(77.487468 0)scale(0.996264)" xlink:href="#Nimbus_Sans_L_Regular-52"/>
      </g>
     </g>
    </g>
    <g id="xtick_4">
     <g id="line2d_8">
      <path clip-path="url(#pa7e83ef26f)" d="M 292.078969 337.973908 
L 292.078969 11.813908 
" style="fill:none;stroke:#cccccc;stroke-linecap:round;stroke-width:1.3;"/>
     </g>
     <g id="line2d_9"/>
     <g id="text_4">
      <!-- $-2$ -->
      <defs>
       <path d="M 50.59375 8.71875 
L 13.296875 8.71875 
C 14.203125 14.53125 17.40625 18.234375 26.09375 23.34375 
L 36.09375 28.75 
C 46 34.15625 51.09375 41.453125 51.09375 50.171875 
C 51.09375 56.078125 48.703125 61.59375 44.5 65.390625 
C 40.296875 69.203125 35.09375 71 28.40625 71 
C 19.40625 71 12.703125 67.796875 8.796875 61.796875 
C 6.296875 57.984375 5.203125 53.578125 5 46.359375 
L 13.796875 46.359375 
C 14.09375 51.171875 14.703125 54.078125 15.90625 56.375 
C 18.203125 60.6875 22.796875 63.296875 28.09375 63.296875 
C 36.09375 63.296875 42.09375 57.578125 42.09375 49.96875 
C 42.09375 44.359375 38.796875 39.546875 32.5 35.953125 
L 23.296875 30.75 
C 8.5 22.34375 4.203125 15.625 3.40625 0 
L 50.59375 0 
z
" id="Nimbus_Sans_L_Regular-50"/>
      </defs>
      <g style="fill:#262626;" transform="translate(283.441826 356.301725)scale(0.13 -0.13)">
       <use transform="scale(0.996264)" xlink:href="#CMSY10-0"/>
       <use transform="translate(77.487468 0)scale(0.996264)" xlink:href="#Nimbus_Sans_L_Regular-50"/>
      </g>
     </g>
    </g>
    <g id="xtick_5">
     <g id="line2d_10">
      <path clip-path="url(#pa7e83ef26f)" d="M 372.430969 337.973908 
L 372.430969 11.813908 
" style="fill:none;stroke:#cccccc;stroke-linecap:round;stroke-width:1.3;"/>
     </g>
     <g id="line2d_11"/>
     <g id="text_5">
      <!-- $0$ -->
      <defs>
       <path d="M 27.5 71 
C 20.90625 71 14.90625 68.125 11.203125 63.21875 
C 6.59375 57.046875 4.296875 47.5625 4.296875 34.5 
C 4.296875 10.671875 12.296875 -2 27.5 -2 
C 42.5 -2 50.703125 10.671875 50.703125 33.90625 
C 50.703125 47.65625 48.5 56.84375 43.796875 63.21875 
C 40.09375 68.21875 34.203125 71 27.5 71 
z
M 27.5 63.1875 
C 37 63.1875 41.703125 53.625 41.703125 34.703125 
C 41.703125 14.671875 37.09375 5.3125 27.296875 5.3125 
C 18 5.3125 13.296875 15.078125 13.296875 34.40625 
C 13.296875 53.71875 18 63.1875 27.5 63.1875 
z
" id="Nimbus_Sans_L_Regular-48"/>
      </defs>
      <g style="fill:#262626;" transform="translate(368.830511 356.301725)scale(0.13 -0.13)">
       <use transform="scale(0.996264)" xlink:href="#Nimbus_Sans_L_Regular-48"/>
      </g>
     </g>
    </g>
    <g id="xtick_6">
     <g id="line2d_12">
      <path clip-path="url(#pa7e83ef26f)" d="M 452.782969 337.973908 
L 452.782969 11.813908 
" style="fill:none;stroke:#cccccc;stroke-linecap:round;stroke-width:1.3;"/>
     </g>
     <g id="line2d_13"/>
     <g id="text_6">
      <!-- $2$ -->
      <g style="fill:#262626;" transform="translate(449.182511 356.301725)scale(0.13 -0.13)">
       <use transform="scale(0.996264)" xlink:href="#Nimbus_Sans_L_Regular-50"/>
      </g>
     </g>
    </g>
    <g id="text_7">
     <!-- GAFF v2.1 $\Delta$G (kcal/mol) -->
     <defs>
      <path d="M 70.90625 39 
L 40.5 39 
L 40.5 30.796875 
L 62.703125 30.796875 
L 62.703125 28.765625 
C 62.703125 15.671875 53.09375 6.203125 39.796875 6.203125 
C 32.40625 6.203125 25.703125 8.890625 21.40625 13.59375 
C 16.59375 18.765625 13.703125 27.4375 13.703125 36.40625 
C 13.703125 54.234375 23.90625 66 39.296875 66 
C 50.40625 66 58.40625 60.375 60.40625 51.125 
L 69.90625 51.125 
C 67.296875 65.796875 56.09375 74.21875 39.40625 74.21875 
C 30.5 74.21875 23.296875 71.921875 17.59375 67.234375 
C 9.203125 60.25 4.40625 48.984375 4.40625 35.90625 
C 4.40625 13.5625 18.09375 -2 37.796875 -2 
C 47.703125 -2 55.59375 1.703125 62.703125 9.625 
L 65 -0.109375 
L 70.90625 -0.109375 
z
" id="Nimbus_Sans_L_Regular-71"/>
      <path d="M 47.40625 22 
L 54.90625 0 
L 65.296875 0 
L 39.703125 73 
L 27.703125 73 
L 1.703125 0 
L 11.59375 0 
L 19.296875 22 
z
M 44.796875 29.8125 
L 21.59375 29.8125 
L 33.59375 63 
z
" id="Nimbus_Sans_L_Regular-65"/>
      <path d="M 18.296875 33 
L 53.09375 33 
L 53.09375 41.21875 
L 18.296875 41.21875 
L 18.296875 64.78125 
L 57.90625 64.78125 
L 57.90625 73 
L 9 73 
L 9 -0.21875 
L 18.296875 -0.21875 
z
" id="Nimbus_Sans_L_Regular-70"/>
      <path d="M 28.5 0 
L 48.59375 52.5 
L 39.203125 52.5 
L 24.40625 9.921875 
L 10.40625 52.5 
L 1 52.5 
L 19.40625 0 
z
" id="Nimbus_Sans_L_Regular-118"/>
      <path d="M 19.09375 10.421875 
L 8.703125 10.421875 
L 8.703125 0 
L 19.09375 0 
z
" id="Nimbus_Sans_L_Regular-46"/>
      <path d="M 25.90625 50.59375 
L 25.90625 0 
L 34.703125 0 
L 34.703125 71.015625 
L 28.90625 71.015625 
C 25.796875 60.109375 23.796875 58.609375 10.203125 56.90625 
L 10.203125 50.59375 
z
" id="Nimbus_Sans_L_Regular-49"/>
      <path d="M 36.296875 66.625 
L 3 4.40625 
L 3.203125 0.234375 
C 10.5 0.734375 17.90625 0.9375 25.296875 0.9375 
C 37.796875 0.9375 50.203125 0.328125 62.703125 -0.453125 
L 68.796875 2.71875 
L 68.90625 4.3125 
C 58.09375 25.078125 49.5 46.859375 42.09375 69.109375 
z
M 56.203125 5 
C 44.5 5 32.703125 5 20.90625 5 
C 17.40625 5 13.90625 5 10.40625 5 
L 10.09375 6.1875 
C 18.09375 23.03125 26.09375 38.65625 35.59375 55 
L 36.703125 55 
C 36.703125 54.90625 52.703125 15.21875 56.796875 5.890625 
z
" id="EURM10-1"/>
      <path d="M 23.59375 73 
C 13.59375 59.84375 7.296875 41.5625 7.296875 25.796875 
C 7.296875 9.9375 13.59375 -8.34375 23.59375 -21.5 
L 29.09375 -21.5 
C 20.296875 -7.140625 15.40625 9.734375 15.40625 25.796875 
C 15.40625 41.765625 20.296875 58.734375 29.09375 73 
z
" id="Nimbus_Sans_L_Regular-40"/>
      <path d="M 14.09375 73 
L 5.796875 73 
L 5.796875 -0.03125 
L 14.09375 -0.03125 
L 14.09375 20.40625 
L 22.203125 28.421875 
L 39.90625 -0.03125 
L 50.203125 -0.03125 
L 28.796875 34.328125 
L 47 52.453125 
L 36.296875 52.453125 
L 14.09375 30.21875 
z
" id="Nimbus_Sans_L_Regular-107"/>
      <path d="M 47.09375 34.9375 
C 46.703125 40.03125 45.59375 43.328125 43.59375 46.21875 
C 40 51.109375 33.703125 54 26.40625 54 
C 12.296875 54 3.09375 42.84375 3.09375 25.5 
C 3.09375 8.65625 12.09375 -2 26.296875 -2 
C 38.796875 -2 46.703125 5.46875 47.703125 18.234375 
L 39.296875 18.234375 
C 37.90625 9.875 33.59375 5.703125 26.5 5.703125 
C 17.296875 5.703125 11.796875 13.171875 11.796875 25.5 
C 11.796875 38.53125 17.203125 46.28125 26.296875 46.28125 
C 33.296875 46.28125 37.703125 42.203125 38.703125 34.9375 
z
" id="Nimbus_Sans_L_Regular-99"/>
      <path d="M 53.5 5.203125 
C 52.59375 5 52.203125 5 51.703125 5 
C 48.796875 5 47.203125 6.484375 47.203125 9.078125 
L 47.203125 39.765625 
C 47.203125 49.015625 40.40625 54 27.5 54 
C 19.90625 54 13.59375 51.8125 10.09375 47.90625 
C 7.703125 45.203125 6.703125 42.21875 6.5 37.03125 
L 14.90625 37.03125 
C 15.59375 43.390625 19.40625 46.28125 27.203125 46.28125 
C 34.703125 46.28125 38.90625 43.484375 38.90625 38.515625 
L 38.90625 36.328125 
C 38.90625 32.828125 36.796875 31.34375 30.203125 30.546875 
C 18.40625 29.0625 16.59375 28.65625 13.40625 27.359375 
C 7.296875 24.875 4.203125 20.1875 4.203125 13.421875 
C 4.203125 3.96875 10.796875 -2 21.40625 -2 
C 28 -2 33.296875 0.296875 39.203125 5.703125 
C 39.796875 0.390625 42.40625 -2 47.796875 -2 
C 49.5 -2 50.796875 -1.8125 53.5 -1.09375 
z
M 38.90625 16.75 
C 38.90625 13.953125 38.09375 12.265625 35.59375 9.984375 
C 32.203125 6.890625 28.09375 5.3125 23.203125 5.3125 
C 16.703125 5.3125 12.90625 8.390625 12.90625 13.65625 
C 12.90625 19.140625 16.59375 21.921875 25.5 23.21875 
C 34.296875 24.40625 36.09375 24.8125 38.90625 26.09375 
z
" id="Nimbus_Sans_L_Regular-97"/>
      <path d="M 15.203125 73 
L 6.796875 73 
L 6.796875 -0.03125 
L 15.203125 -0.03125 
z
" id="Nimbus_Sans_L_Regular-108"/>
      <path d="M 22.90625 73 
L -0.796875 -2 
L 4.703125 -2 
L 28.40625 73 
z
" id="Nimbus_Sans_L_Regular-47"/>
      <path d="M 7 52.484375 
L 7 0 
L 15.40625 0 
L 15.40625 32.953125 
C 15.40625 40.578125 20.90625 46.6875 27.703125 46.6875 
C 33.90625 46.6875 37.40625 42.875 37.40625 36.15625 
L 37.40625 0 
L 45.796875 0 
L 45.796875 32.953125 
C 45.796875 40.578125 51.296875 46.6875 58.09375 46.6875 
C 64.203125 46.6875 67.796875 42.78125 67.796875 36.15625 
L 67.796875 0 
L 76.203125 0 
L 76.203125 39.375 
C 76.203125 48.78125 70.796875 54 61 54 
C 54 54 49.796875 51.890625 44.90625 45.984375 
C 41.796875 51.59375 37.59375 54 30.796875 54 
C 23.796875 54 19.203125 51.390625 14.703125 45.078125 
L 14.703125 52.484375 
z
" id="Nimbus_Sans_L_Regular-109"/>
      <path d="M 27.203125 54 
C 12.5 54 3.59375 43.53125 3.59375 25.984375 
C 3.59375 8.453125 12.40625 -2 27.296875 -2 
C 42 -2 51 8.453125 51 25.59375 
C 51 43.625 42.296875 54 27.203125 54 
z
M 27.296875 46.28125 
C 36.703125 46.28125 42.296875 38.625 42.296875 25.703125 
C 42.296875 13.453125 36.5 5.703125 27.296875 5.703125 
C 18 5.703125 12.296875 13.359375 12.296875 25.984375 
C 12.296875 38.53125 18 46.28125 27.296875 46.28125 
z
" id="Nimbus_Sans_L_Regular-111"/>
      <path d="M 9.296875 -21.5 
C 19.296875 -8.34375 25.59375 9.9375 25.59375 25.6875 
C 25.59375 41.5625 19.296875 59.84375 9.296875 73 
L 3.796875 73 
C 12.59375 58.640625 17.5 41.765625 17.5 25.6875 
C 17.5 9.734375 12.59375 -7.25 3.796875 -21.5 
z
" id="Nimbus_Sans_L_Regular-41"/>
     </defs>
     <g style="fill:#262626;" transform="translate(172.01419 373.47454)scale(0.143 -0.143)">
      <use transform="scale(0.996264)" xlink:href="#Nimbus_Sans_L_Regular-71"/>
      <use transform="translate(77.50837 0)scale(0.996264)" xlink:href="#Nimbus_Sans_L_Regular-65"/>
      <use transform="translate(143.958401 0)scale(0.996264)" xlink:href="#Nimbus_Sans_L_Regular-70"/>
      <use transform="translate(204.830032 0)scale(0.996264)" xlink:href="#Nimbus_Sans_L_Regular-70"/>
      <use transform="translate(293.396832 0)scale(0.996264)" xlink:href="#Nimbus_Sans_L_Regular-118"/>
      <use transform="translate(343.210033 0)scale(0.996264)" xlink:href="#Nimbus_Sans_L_Regular-50"/>
      <use transform="translate(398.60171 0)scale(0.996264)" xlink:href="#Nimbus_Sans_L_Regular-46"/>
      <use transform="translate(426.296879 0)scale(0.996264)" xlink:href="#Nimbus_Sans_L_Regular-49"/>
      <use transform="translate(509.383726 0)scale(0.996264)" xlink:href="#EURM10-1"/>
      <use transform="translate(580.445491 0)scale(0.996264)" xlink:href="#Nimbus_Sans_L_Regular-71"/>
      <use transform="translate(685.649031 0)scale(0.996264)" xlink:href="#Nimbus_Sans_L_Regular-40"/>
      <use transform="translate(718.824261 0)scale(0.996264)" xlink:href="#Nimbus_Sans_L_Regular-107"/>
      <use transform="translate(768.637461 0)scale(0.996264)" xlink:href="#Nimbus_Sans_L_Regular-99"/>
      <use transform="translate(818.450662 0)scale(0.996264)" xlink:href="#Nimbus_Sans_L_Regular-97"/>
      <use transform="translate(873.842339 0)scale(0.996264)" xlink:href="#Nimbus_Sans_L_Regular-108"/>
      <use transform="translate(895.959123 0)scale(0.996264)" xlink:href="#Nimbus_Sans_L_Regular-47"/>
      <use transform="translate(923.654293 0)scale(0.996264)" xlink:href="#Nimbus_Sans_L_Regular-109"/>
      <use transform="translate(1006.642723 0)scale(0.996264)" xlink:href="#Nimbus_Sans_L_Regular-111"/>
      <use transform="translate(1062.0344 0)scale(0.996264)" xlink:href="#Nimbus_Sans_L_Regular-108"/>
      <use transform="translate(1084.151184 0)scale(0.996264)" xlink:href="#Nimbus_Sans_L_Regular-41"/>
     </g>
    </g>
   </g>
   <g id="matplotlib.axis_2">
    <g id="ytick_1">
     <g id="line2d_14">
      <path clip-path="url(#pa7e83ef26f)" d="M 51.022969 337.973908 
L 452.782969 337.973908 
" style="fill:none;stroke:#cccccc;stroke-linecap:round;stroke-width:1.3;"/>
     </g>
     <g id="line2d_15"/>
     <g id="text_8">
      <!-- $-8$ -->
      <g style="fill:#262626;" transform="translate(24.648682 342.587816)scale(0.13 -0.13)">
       <use transform="scale(0.996264)" xlink:href="#CMSY10-0"/>
       <use transform="translate(77.487468 0)scale(0.996264)" xlink:href="#Nimbus_Sans_L_Regular-56"/>
      </g>
     </g>
    </g>
    <g id="ytick_2">
     <g id="line2d_16">
      <path clip-path="url(#pa7e83ef26f)" d="M 51.022969 272.741908 
L 452.782969 272.741908 
" style="fill:none;stroke:#cccccc;stroke-linecap:round;stroke-width:1.3;"/>
     </g>
     <g id="line2d_17"/>
     <g id="text_9">
      <!-- $-6$ -->
      <g style="fill:#262626;" transform="translate(24.648682 277.355816)scale(0.13 -0.13)">
       <use transform="scale(0.996264)" xlink:href="#CMSY10-0"/>
       <use transform="translate(77.487468 0)scale(0.996264)" xlink:href="#Nimbus_Sans_L_Regular-54"/>
      </g>
     </g>
    </g>
    <g id="ytick_3">
     <g id="line2d_18">
      <path clip-path="url(#pa7e83ef26f)" d="M 51.022969 207.509908 
L 452.782969 207.509908 
" style="fill:none;stroke:#cccccc;stroke-linecap:round;stroke-width:1.3;"/>
     </g>
     <g id="line2d_19"/>
     <g id="text_10">
      <!-- $-4$ -->
      <g style="fill:#262626;" transform="translate(24.648682 212.123816)scale(0.13 -0.13)">
       <use transform="scale(0.996264)" xlink:href="#CMSY10-0"/>
       <use transform="translate(77.487468 0)scale(0.996264)" xlink:href="#Nimbus_Sans_L_Regular-52"/>
      </g>
     </g>
    </g>
    <g id="ytick_4">
     <g id="line2d_20">
      <path clip-path="url(#pa7e83ef26f)" d="M 51.022969 142.277908 
L 452.782969 142.277908 
" style="fill:none;stroke:#cccccc;stroke-linecap:round;stroke-width:1.3;"/>
     </g>
     <g id="line2d_21"/>
     <g id="text_11">
      <!-- $-2$ -->
      <g style="fill:#262626;" transform="translate(24.648682 146.891816)scale(0.13 -0.13)">
       <use transform="scale(0.996264)" xlink:href="#CMSY10-0"/>
       <use transform="translate(77.487468 0)scale(0.996264)" xlink:href="#Nimbus_Sans_L_Regular-50"/>
      </g>
     </g>
    </g>
    <g id="ytick_5">
     <g id="line2d_22">
      <path clip-path="url(#pa7e83ef26f)" d="M 51.022969 77.045908 
L 452.782969 77.045908 
" style="fill:none;stroke:#cccccc;stroke-linecap:round;stroke-width:1.3;"/>
     </g>
     <g id="line2d_23"/>
     <g id="text_12">
      <!-- $0$ -->
      <g style="fill:#262626;" transform="translate(34.722052 81.659816)scale(0.13 -0.13)">
       <use transform="scale(0.996264)" xlink:href="#Nimbus_Sans_L_Regular-48"/>
      </g>
     </g>
    </g>
    <g id="ytick_6">
     <g id="line2d_24">
      <path clip-path="url(#pa7e83ef26f)" d="M 51.022969 11.813908 
L 452.782969 11.813908 
" style="fill:none;stroke:#cccccc;stroke-linecap:round;stroke-width:1.3;"/>
     </g>
     <g id="line2d_25"/>
     <g id="text_13">
      <!-- $2$ -->
      <g style="fill:#262626;" transform="translate(34.722052 16.427816)scale(0.13 -0.13)">
       <use transform="scale(0.996264)" xlink:href="#Nimbus_Sans_L_Regular-50"/>
      </g>
     </g>
    </g>
    <g id="text_14">
     <!-- SMIRNOFF99Frosst $\Delta$G (kcal/mol) -->
     <defs>
      <path d="M 59.59375 52.109375 
C 59.5 66.484375 49.703125 74.8125 32.90625 74.8125 
C 16.90625 74.8125 7 66.5625 7 53.28125 
C 7 44.328125 11.703125 38.703125 21.296875 36.1875 
L 39.40625 31.359375 
C 48.59375 28.9375 52.796875 25.21875 52.796875 19.484375 
C 52.796875 15.546875 50.703125 11.53125 47.59375 9.328125 
C 44.703125 7.3125 40.09375 6.203125 34.203125 6.203125 
C 26.296875 6.203125 20.90625 8.125 17.40625 12.34375 
C 14.703125 15.5625 13.5 19.09375 13.59375 23.609375 
L 4.796875 23.609375 
C 4.90625 16.890625 6.203125 12.46875 9.09375 8.4375 
C 14.09375 1.609375 22.5 -2 33.59375 -2 
C 42.296875 -2 49.40625 0.015625 54.09375 3.625 
C 59 7.546875 62.09375 14.078125 62.09375 20.421875 
C 62.09375 29.46875 56.5 36.109375 46.59375 38.828125 
L 28.296875 43.765625 
C 19.5 46.171875 16.296875 48.984375 16.296875 54.625 
C 16.296875 62.0625 22.796875 67 32.59375 67 
C 44.203125 67 50.703125 61.671875 50.796875 52.109375 
z
" id="Nimbus_Sans_L_Regular-83"/>
      <path d="M 46.796875 -0.03125 
L 67.296875 61.171875 
L 67.296875 -0.03125 
L 76.09375 -0.03125 
L 76.09375 73 
L 63.203125 73 
L 42 9.390625 
L 20.40625 73 
L 7.5 73 
L 7.5 -0.03125 
L 16.296875 -0.03125 
L 16.296875 61.171875 
L 37 -0.03125 
z
" id="Nimbus_Sans_L_Regular-77"/>
      <path d="M 19.40625 73 
L 10 73 
L 10 -0.03125 
L 19.40625 -0.03125 
z
" id="Nimbus_Sans_L_Regular-73"/>
      <path d="M 18.59375 31.78125 
L 42.59375 31.78125 
C 50.90625 31.78125 54.59375 27.71875 54.59375 18.546875 
L 54.5 11.90625 
C 54.5 7.3125 55.296875 2.828125 56.59375 -0.21875 
L 67.90625 -0.21875 
L 67.90625 2.125 
C 64.40625 4.5625 63.703125 7.21875 63.5 17.078125 
C 63.40625 29.265625 61.5 32.9375 53.59375 36.390625 
C 61.796875 40.359375 65.09375 45.40625 65.09375 53.65625 
C 65.09375 66.140625 57.203125 73 42.90625 73 
L 9.296875 73 
L 9.296875 -0.21875 
L 18.59375 -0.21875 
z
M 18.59375 40 
L 18.59375 64.78125 
L 41.09375 64.78125 
C 46.296875 64.78125 49.296875 64 51.59375 62.015625 
C 54.09375 59.9375 55.40625 56.6875 55.40625 52.34375 
C 55.40625 43.84375 51 40 41.09375 40 
z
" id="Nimbus_Sans_L_Regular-82"/>
      <path d="M 64.59375 73 
L 55.796875 73 
L 55.796875 13.296875 
L 17.703125 73 
L 7.59375 73 
L 7.59375 -0.03125 
L 16.40625 -0.03125 
L 16.40625 59.171875 
L 54.09375 -0.03125 
L 64.59375 -0.03125 
z
" id="Nimbus_Sans_L_Regular-78"/>
      <path d="M 38.90625 74.21875 
C 18 74.21875 3.796875 58.84375 3.796875 36.109375 
C 3.796875 13.359375 18 -2 39 -2 
C 47.796875 -2 55.703125 0.6875 61.59375 5.671875 
C 69.5 12.359375 74.203125 23.625 74.203125 35.5 
C 74.203125 58.953125 60.296875 74.21875 38.90625 74.21875 
z
M 38.90625 66 
C 54.703125 66 64.90625 54.046875 64.90625 35.703125 
C 64.90625 18.171875 54.40625 6.203125 39 6.203125 
C 23.5 6.203125 13.09375 18.171875 13.09375 36.109375 
C 13.09375 54.046875 23.5 66 38.90625 66 
z
" id="Nimbus_Sans_L_Regular-79"/>
      <path d="M 5.296875 16.625 
C 7 4.9375 14.59375 -2 25.40625 -2 
C 33.203125 -2 40.296875 1.78125 44.40625 8.0625 
C 48.90625 14.9375 50.90625 23.625 50.90625 36.484375 
C 50.90625 48.359375 49.09375 55.9375 44.90625 62.21875 
C 41 67.921875 34.796875 71 27 71 
C 13.5 71 3.796875 61.078125 3.796875 47.296875 
C 3.796875 34.21875 12.796875 25 25.59375 25 
C 32.296875 25 37.203125 27.40625 41.796875 32.90625 
C 41.703125 15.484375 36.09375 5.8125 26 5.8125 
C 19.796875 5.8125 15.5 9.75 14.09375 16.625 
z
M 26.90625 63.296875 
C 35.09375 63.296875 41.296875 56.59375 41.296875 47.515625 
C 41.296875 38.921875 35.203125 32.8125 26.59375 32.8125 
C 18.09375 32.8125 12.796875 38.625 12.796875 48 
C 12.796875 56.875 18.796875 63.296875 26.90625 63.296875 
z
" id="Nimbus_Sans_L_Regular-57"/>
      <path d="M 6.90625 52.484375 
L 6.90625 0 
L 15.296875 0 
L 15.296875 27.203125 
C 15.296875 34.703125 17.203125 39.609375 21.203125 42.5 
C 23.796875 44.40625 26.296875 45 32.09375 45 
L 32.09375 53.625 
C 30.703125 53.8125 30 53.8125 28.90625 53.8125 
C 23.5 53.8125 19.40625 50.625 14.59375 42.90625 
L 14.59375 52.484375 
z
" id="Nimbus_Sans_L_Regular-114"/>
      <path d="M 43.796875 37.921875 
C 43.703125 48.203125 36.90625 54 24.796875 54 
C 12.59375 54 4.703125 47.71875 4.703125 38.0625 
C 4.703125 29.890625 8.90625 26.015625 21.296875 23.03125 
L 29.09375 21.140625 
C 34.90625 19.734375 37.203125 17.65625 37.203125 13.875 
C 37.203125 9 32.296875 5.703125 25 5.703125 
C 20.5 5.703125 16.703125 7 14.59375 9.1875 
C 13.296875 10.6875 12.703125 12.171875 12.203125 15.84375 
L 3.40625 15.84375 
C 3.796875 3.765625 10.59375 -2 24.296875 -2 
C 37.5 -2 45.90625 4.453125 45.90625 14.515625 
C 45.90625 22.28125 41.5 26.578125 31.09375 29.0625 
L 23.09375 30.953125 
C 16.296875 32.53125 13.40625 34.734375 13.40625 38.40625 
C 13.40625 43.1875 17.703125 46.28125 24.5 46.28125 
C 31.203125 46.28125 34.796875 43.390625 35 37.921875 
z
" id="Nimbus_Sans_L_Regular-115"/>
      <path d="M 25.40625 52.8125 
L 16.796875 52.8125 
L 16.796875 67 
L 8.5 67 
L 8.5 52.8125 
L 1.40625 52.8125 
L 1.40625 46 
L 8.5 46 
L 8.5 6.3125 
C 8.5 1 12.09375 -2 18.59375 -2 
C 20.59375 -2 22.59375 -1.8125 25.40625 -1.296875 
L 25.40625 5.71875 
C 24.296875 5.40625 23 5.3125 21.40625 5.3125 
C 17.796875 5.3125 16.796875 6.3125 16.796875 10.015625 
L 16.796875 46 
L 25.40625 46 
z
" id="Nimbus_Sans_L_Regular-116"/>
     </defs>
     <g style="fill:#262626;" transform="translate(17.614239 284.928308)rotate(-90)scale(0.143 -0.143)">
      <use transform="scale(0.996264)" xlink:href="#Nimbus_Sans_L_Regular-83"/>
      <use transform="translate(66.450031 0)scale(0.996264)" xlink:href="#Nimbus_Sans_L_Regular-77"/>
      <use transform="translate(149.438461 0)scale(0.996264)" xlink:href="#Nimbus_Sans_L_Regular-73"/>
      <use transform="translate(177.133631 0)scale(0.996264)" xlink:href="#Nimbus_Sans_L_Regular-82"/>
      <use transform="translate(249.063616 0)scale(0.996264)" xlink:href="#Nimbus_Sans_L_Regular-78"/>
      <use transform="translate(320.993601 0)scale(0.996264)" xlink:href="#Nimbus_Sans_L_Regular-79"/>
      <use transform="translate(398.501971 0)scale(0.996264)" xlink:href="#Nimbus_Sans_L_Regular-70"/>
      <use transform="translate(459.373601 0)scale(0.996264)" xlink:href="#Nimbus_Sans_L_Regular-70"/>
      <use transform="translate(520.245232 0)scale(0.996264)" xlink:href="#Nimbus_Sans_L_Regular-57"/>
      <use transform="translate(575.636909 0)scale(0.996264)" xlink:href="#Nimbus_Sans_L_Regular-57"/>
      <use transform="translate(631.028586 0)scale(0.996264)" xlink:href="#Nimbus_Sans_L_Regular-70"/>
      <use transform="translate(687.417485 0)scale(0.996264)" xlink:href="#Nimbus_Sans_L_Regular-114"/>
      <use transform="translate(720.592714 0)scale(0.996264)" xlink:href="#Nimbus_Sans_L_Regular-111"/>
      <use transform="translate(775.984391 0)scale(0.996264)" xlink:href="#Nimbus_Sans_L_Regular-115"/>
      <use transform="translate(825.797592 0)scale(0.996264)" xlink:href="#Nimbus_Sans_L_Regular-115"/>
      <use transform="translate(875.610792 0)scale(0.996264)" xlink:href="#Nimbus_Sans_L_Regular-116"/>
      <use transform="translate(931.001132 0)scale(0.996264)" xlink:href="#EURM10-1"/>
      <use transform="translate(1002.062897 0)scale(0.996264)" xlink:href="#Nimbus_Sans_L_Regular-71"/>
      <use transform="translate(1107.266437 0)scale(0.996264)" xlink:href="#Nimbus_Sans_L_Regular-40"/>
      <use transform="translate(1140.441667 0)scale(0.996264)" xlink:href="#Nimbus_Sans_L_Regular-107"/>
      <use transform="translate(1190.254867 0)scale(0.996264)" xlink:href="#Nimbus_Sans_L_Regular-99"/>
      <use transform="translate(1240.068068 0)scale(0.996264)" xlink:href="#Nimbus_Sans_L_Regular-97"/>
      <use transform="translate(1295.459744 0)scale(0.996264)" xlink:href="#Nimbus_Sans_L_Regular-108"/>
      <use transform="translate(1317.576529 0)scale(0.996264)" xlink:href="#Nimbus_Sans_L_Regular-47"/>
      <use transform="translate(1345.271698 0)scale(0.996264)" xlink:href="#Nimbus_Sans_L_Regular-109"/>
      <use transform="translate(1428.260129 0)scale(0.996264)" xlink:href="#Nimbus_Sans_L_Regular-111"/>
      <use transform="translate(1483.651806 0)scale(0.996264)" xlink:href="#Nimbus_Sans_L_Regular-108"/>
      <use transform="translate(1505.76859 0)scale(0.996264)" xlink:href="#Nimbus_Sans_L_Regular-41"/>
     </g>
    </g>
   </g>
   <g id="LineCollection_1">
    <path clip-path="url(#pa7e83ef26f)" d="M 369.239443 182.62366 
L 387.676357 182.62366 
" style="fill:none;stroke:#808080;"/>
    <path clip-path="url(#pa7e83ef26f)" d="M 245.249752 94.807419 
L 264.137742 94.807419 
" style="fill:none;stroke:#808080;"/>
    <path clip-path="url(#pa7e83ef26f)" d="M 142.834825 170.627435 
L 161.303184 170.627435 
" style="fill:none;stroke:#808080;"/>
    <path clip-path="url(#pa7e83ef26f)" d="M 208.040343 190.549391 
L 226.92222 190.549391 
" style="fill:none;stroke:#808080;"/>
    <path clip-path="url(#pa7e83ef26f)" d="M 121.838265 165.122209 
L 140.623949 165.122209 
" style="fill:none;stroke:#808080;"/>
    <path clip-path="url(#pa7e83ef26f)" d="M 168.967768 204.69176 
L 187.437554 204.69176 
" style="fill:none;stroke:#808080;"/>
    <path clip-path="url(#pa7e83ef26f)" d="M 370.003807 52.127062 
L 389.50872 52.127062 
" style="fill:none;stroke:#808080;"/>
    <path clip-path="url(#pa7e83ef26f)" d="M 235.832517 115.89711 
L 254.612861 115.89711 
" style="fill:none;stroke:#808080;"/>
    <path clip-path="url(#pa7e83ef26f)" d="M 159.355249 172.722357 
L 178.657684 172.722357 
" style="fill:none;stroke:#808080;"/>
    <path clip-path="url(#pa7e83ef26f)" d="M 201.18315 142.642161 
L 220.058063 142.642161 
" style="fill:none;stroke:#808080;"/>
    <path clip-path="url(#pa7e83ef26f)" d="M 142.162916 192.751302 
L 161.150979 192.751302 
" style="fill:none;stroke:#808080;"/>
    <path clip-path="url(#pa7e83ef26f)" d="M 116.807507 201.962499 
L 136.049751 201.962499 
" style="fill:none;stroke:#808080;"/>
    <path clip-path="url(#pa7e83ef26f)" d="M 180.434463 205.765466 
L 199.930491 205.765466 
" style="fill:none;stroke:#808080;"/>
    <path clip-path="url(#pa7e83ef26f)" d="M 320.904211 135.34859 
L 339.892381 135.34859 
" style="fill:none;stroke:#808080;"/>
    <path clip-path="url(#pa7e83ef26f)" d="M 255.022619 104.522992 
L 273.316497 104.522992 
" style="fill:none;stroke:#808080;"/>
    <path clip-path="url(#pa7e83ef26f)" d="M 145.191966 175.343036 
L 164.071086 175.343036 
" style="fill:none;stroke:#808080;"/>
    <path clip-path="url(#pa7e83ef26f)" d="M 126.689947 225.368308 
L 145.334244 225.368308 
" style="fill:none;stroke:#808080;"/>
    <path clip-path="url(#pa7e83ef26f)" d="M 86.926781 189.005175 
L 105.277878 189.005175 
" style="fill:none;stroke:#808080;"/>
    <path clip-path="url(#pa7e83ef26f)" d="M 277.589033 162.63446 
L 296.262822 162.63446 
" style="fill:none;stroke:#808080;"/>
    <path clip-path="url(#pa7e83ef26f)" d="M 203.123577 86.516156 
L 222.619952 86.516156 
" style="fill:none;stroke:#808080;"/>
    <path clip-path="url(#pa7e83ef26f)" d="M 233.515083 148.629031 
L 252.214396 148.629031 
" style="fill:none;stroke:#808080;"/>
    <path clip-path="url(#pa7e83ef26f)" d="M 277.800025 120.728986 
L 296.61668 120.728986 
" style="fill:none;stroke:#808080;"/>
    <path clip-path="url(#pa7e83ef26f)" d="M 211.236317 158.185709 
L 229.983457 158.185709 
" style="fill:none;stroke:#808080;"/>
    <path clip-path="url(#pa7e83ef26f)" d="M 285.1031 139.318289 
L 303.673271 139.318289 
" style="fill:none;stroke:#808080;"/>
    <path clip-path="url(#pa7e83ef26f)" d="M 152.497309 184.861233 
L 171.453406 184.861233 
" style="fill:none;stroke:#808080;"/>
    <path clip-path="url(#pa7e83ef26f)" d="M 197.689991 170.334534 
L 216.374841 170.334534 
" style="fill:none;stroke:#808080;"/>
   </g>
   <g id="LineCollection_2">
    <path clip-path="url(#pa7e83ef26f)" d="M 378.4579 197.345386 
L 378.4579 167.901934 
" style="fill:none;stroke:#808080;"/>
    <path clip-path="url(#pa7e83ef26f)" d="M 254.693747 107.226699 
L 254.693747 82.388138 
" style="fill:none;stroke:#808080;"/>
    <path clip-path="url(#pa7e83ef26f)" d="M 152.069004 187.78552 
L 152.069004 153.469349 
" style="fill:none;stroke:#808080;"/>
    <path clip-path="url(#pa7e83ef26f)" d="M 217.481281 207.673693 
L 217.481281 173.425088 
" style="fill:none;stroke:#808080;"/>
    <path clip-path="url(#pa7e83ef26f)" d="M 131.231107 180.233323 
L 131.231107 150.011094 
" style="fill:none;stroke:#808080;"/>
    <path clip-path="url(#pa7e83ef26f)" d="M 178.202661 232.409336 
L 178.202661 176.974184 
" style="fill:none;stroke:#808080;"/>
    <path clip-path="url(#pa7e83ef26f)" d="M 379.756264 61.823654 
L 379.756264 42.430471 
" style="fill:none;stroke:#808080;"/>
    <path clip-path="url(#pa7e83ef26f)" d="M 245.222689 126.18293 
L 245.222689 105.61129 
" style="fill:none;stroke:#808080;"/>
    <path clip-path="url(#pa7e83ef26f)" d="M 169.006467 182.907808 
L 169.006467 162.536905 
" style="fill:none;stroke:#808080;"/>
    <path clip-path="url(#pa7e83ef26f)" d="M 210.620607 151.788122 
L 210.620607 133.496199 
" style="fill:none;stroke:#808080;"/>
    <path clip-path="url(#pa7e83ef26f)" d="M 151.656947 202.89056 
L 151.656947 182.612044 
" style="fill:none;stroke:#808080;"/>
    <path clip-path="url(#pa7e83ef26f)" d="M 126.428629 213.511897 
L 126.428629 190.413102 
" style="fill:none;stroke:#808080;"/>
    <path clip-path="url(#pa7e83ef26f)" d="M 190.182477 230.091524 
L 190.182477 181.439409 
" style="fill:none;stroke:#808080;"/>
    <path clip-path="url(#pa7e83ef26f)" d="M 330.398296 151.869714 
L 330.398296 118.827465 
" style="fill:none;stroke:#808080;"/>
    <path clip-path="url(#pa7e83ef26f)" d="M 264.169558 119.093064 
L 264.169558 89.95292 
" style="fill:none;stroke:#808080;"/>
    <path clip-path="url(#pa7e83ef26f)" d="M 154.631526 190.865622 
L 154.631526 159.820449 
" style="fill:none;stroke:#808080;"/>
    <path clip-path="url(#pa7e83ef26f)" d="M 136.012095 244.590034 
L 136.012095 206.146582 
" style="fill:none;stroke:#808080;"/>
    <path clip-path="url(#pa7e83ef26f)" d="M 96.10233 200.041461 
L 96.10233 177.968888 
" style="fill:none;stroke:#808080;"/>
    <path clip-path="url(#pa7e83ef26f)" d="M 286.925927 189.153208 
L 286.925927 136.115713 
" style="fill:none;stroke:#808080;"/>
    <path clip-path="url(#pa7e83ef26f)" d="M 212.871764 100.354698 
L 212.871764 72.677614 
" style="fill:none;stroke:#808080;"/>
    <path clip-path="url(#pa7e83ef26f)" d="M 242.864739 157.70967 
L 242.864739 139.548391 
" style="fill:none;stroke:#808080;"/>
    <path clip-path="url(#pa7e83ef26f)" d="M 287.208353 130.038714 
L 287.208353 111.419258 
" style="fill:none;stroke:#808080;"/>
    <path clip-path="url(#pa7e83ef26f)" d="M 220.609887 167.938105 
L 220.609887 148.433313 
" style="fill:none;stroke:#808080;"/>
    <path clip-path="url(#pa7e83ef26f)" d="M 294.388185 149.366516 
L 294.388185 129.270062 
" style="fill:none;stroke:#808080;"/>
    <path clip-path="url(#pa7e83ef26f)" d="M 161.975357 194.760465 
L 161.975357 174.962 
" style="fill:none;stroke:#808080;"/>
    <path clip-path="url(#pa7e83ef26f)" d="M 207.032416 179.36407 
L 207.032416 161.304998 
" style="fill:none;stroke:#808080;"/>
   </g>
   <g id="LineCollection_3">
    <path clip-path="url(#pa7e83ef26f)" d="M 307.988422 70.451773 
L 326.855045 70.451773 
" style="fill:none;stroke:#808080;"/>
    <path clip-path="url(#pa7e83ef26f)" d="M 238.432242 124.038516 
L 257.069503 124.038516 
" style="fill:none;stroke:#808080;"/>
    <path clip-path="url(#pa7e83ef26f)" d="M 136.779835 175.737109 
L 156.316033 175.737109 
" style="fill:none;stroke:#808080;"/>
    <path clip-path="url(#pa7e83ef26f)" d="M 124.652184 200.255737 
L 143.405607 200.255737 
" style="fill:none;stroke:#808080;"/>
    <path clip-path="url(#pa7e83ef26f)" d="M 174.347201 161.448034 
L 193.569814 161.448034 
" style="fill:none;stroke:#808080;"/>
    <path clip-path="url(#pa7e83ef26f)" d="M 199.842613 135.914928 
L 219.103483 135.914928 
" style="fill:none;stroke:#808080;"/>
    <path clip-path="url(#pa7e83ef26f)" d="M 155.274254 159.440317 
L 174.127171 159.440317 
" style="fill:none;stroke:#808080;"/>
    <path clip-path="url(#pa7e83ef26f)" d="M 155.516294 177.019165 
L 174.375375 177.019165 
" style="fill:none;stroke:#808080;"/>
    <path clip-path="url(#pa7e83ef26f)" d="M 199.531925 154.282513 
L 218.171293 154.282513 
" style="fill:none;stroke:#808080;"/>
    <path clip-path="url(#pa7e83ef26f)" d="M 180.575958 149.599537 
L 199.129603 149.599537 
" style="fill:none;stroke:#808080;"/>
    <path clip-path="url(#pa7e83ef26f)" d="M 205.01639 154.70074 
L 223.705972 154.70074 
" style="fill:none;stroke:#808080;"/>
    <path clip-path="url(#pa7e83ef26f)" d="M 247.089876 107.20443 
L 266.335852 107.20443 
" style="fill:none;stroke:#808080;"/>
    <path clip-path="url(#pa7e83ef26f)" d="M 124.236895 192.133833 
L 143.15898 192.133833 
" style="fill:none;stroke:#808080;"/>
    <path clip-path="url(#pa7e83ef26f)" d="M 96.576451 223.849364 
L 115.519097 223.849364 
" style="fill:none;stroke:#808080;"/>
    <path clip-path="url(#pa7e83ef26f)" d="M 232.983593 136.40002 
L 251.861869 136.40002 
" style="fill:none;stroke:#808080;"/>
    <path clip-path="url(#pa7e83ef26f)" d="M 203.396947 152.505634 
L 222.003623 152.505634 
" style="fill:none;stroke:#808080;"/>
    <path clip-path="url(#pa7e83ef26f)" d="M 288.109235 135.084639 
L 307.045333 135.084639 
" style="fill:none;stroke:#808080;"/>
    <path clip-path="url(#pa7e83ef26f)" d="M 321.263751 114.900111 
L 340.273124 114.900111 
" style="fill:none;stroke:#808080;"/>
    <path clip-path="url(#pa7e83ef26f)" d="M 197.226918 187.481053 
L 216.310974 187.481053 
" style="fill:none;stroke:#808080;"/>
    <path clip-path="url(#pa7e83ef26f)" d="M 208.29631 149.16239 
L 226.77983 149.16239 
" style="fill:none;stroke:#808080;"/>
    <path clip-path="url(#pa7e83ef26f)" d="M 234.058389 132.126686 
L 252.874562 132.126686 
" style="fill:none;stroke:#808080;"/>
    <path clip-path="url(#pa7e83ef26f)" d="M 238.543641 169.278919 
L 257.048427 169.278919 
" style="fill:none;stroke:#808080;"/>
    <path clip-path="url(#pa7e83ef26f)" d="M 257.602926 164.413906 
L 277.808837 164.413906 
" style="fill:none;stroke:#808080;"/>
    <path clip-path="url(#pa7e83ef26f)" d="M 272.606394 155.053344 
L 292.284694 155.053344 
" style="fill:none;stroke:#808080;"/>
    <path clip-path="url(#pa7e83ef26f)" d="M 226.284835 212.166903 
L 245.130498 212.166903 
" style="fill:none;stroke:#808080;"/>
    <path clip-path="url(#pa7e83ef26f)" d="M 277.399587 143.180415 
L 297.017006 143.180415 
" style="fill:none;stroke:#808080;"/>
    <path clip-path="url(#pa7e83ef26f)" d="M 251.034698 165.560236 
L 270.883257 165.560236 
" style="fill:none;stroke:#808080;"/>
    <path clip-path="url(#pa7e83ef26f)" d="M 243.255368 168.302244 
L 261.744601 168.302244 
" style="fill:none;stroke:#808080;"/>
    <path clip-path="url(#pa7e83ef26f)" d="M 264.844427 129.667175 
L 284.528834 129.667175 
" style="fill:none;stroke:#808080;"/>
    <path clip-path="url(#pa7e83ef26f)" d="M 295.78165 146.759916 
L 315.163412 146.759916 
" style="fill:none;stroke:#808080;"/>
    <path clip-path="url(#pa7e83ef26f)" d="M 194.947606 179.405191 
L 214.400611 179.405191 
" style="fill:none;stroke:#808080;"/>
    <path clip-path="url(#pa7e83ef26f)" d="M 243.648415 147.026777 
L 262.491589 147.026777 
" style="fill:none;stroke:#808080;"/>
    <path clip-path="url(#pa7e83ef26f)" d="M 174.936561 192.789821 
L 194.327435 192.789821 
" style="fill:none;stroke:#808080;"/>
    <path clip-path="url(#pa7e83ef26f)" d="M 236.532773 172.013748 
L 256.042118 172.013748 
" style="fill:none;stroke:#808080;"/>
    <path clip-path="url(#pa7e83ef26f)" d="M 210.37455 161.125711 
L 230.089594 161.125711 
" style="fill:none;stroke:#808080;"/>
    <path clip-path="url(#pa7e83ef26f)" d="M 301.836681 127.302927 
L 320.404876 127.302927 
" style="fill:none;stroke:#808080;"/>
    <path clip-path="url(#pa7e83ef26f)" d="M 298.721082 139.992291 
L 316.810303 139.992291 
" style="fill:none;stroke:#808080;"/>
    <path clip-path="url(#pa7e83ef26f)" d="M 285.026928 112.507893 
L 303.943798 112.507893 
" style="fill:none;stroke:#808080;"/>
   </g>
   <g id="LineCollection_4">
    <path clip-path="url(#pa7e83ef26f)" d="M 317.421733 80.182277 
L 317.421733 60.721268 
" style="fill:none;stroke:#808080;"/>
    <path clip-path="url(#pa7e83ef26f)" d="M 247.750872 133.419771 
L 247.750872 114.657262 
" style="fill:none;stroke:#808080;"/>
    <path clip-path="url(#pa7e83ef26f)" d="M 146.547934 185.11784 
L 146.547934 166.356379 
" style="fill:none;stroke:#808080;"/>
    <path clip-path="url(#pa7e83ef26f)" d="M 134.028896 208.505845 
L 134.028896 192.00563 
" style="fill:none;stroke:#808080;"/>
    <path clip-path="url(#pa7e83ef26f)" d="M 183.958507 171.302368 
L 183.958507 151.593699 
" style="fill:none;stroke:#808080;"/>
    <path clip-path="url(#pa7e83ef26f)" d="M 209.473048 145.879103 
L 209.473048 125.950753 
" style="fill:none;stroke:#808080;"/>
    <path clip-path="url(#pa7e83ef26f)" d="M 164.700712 167.909174 
L 164.700712 150.97146 
" style="fill:none;stroke:#808080;"/>
    <path clip-path="url(#pa7e83ef26f)" d="M 164.945834 186.648831 
L 164.945834 167.389498 
" style="fill:none;stroke:#808080;"/>
    <path clip-path="url(#pa7e83ef26f)" d="M 208.851609 164.051858 
L 208.851609 144.513168 
" style="fill:none;stroke:#808080;"/>
    <path clip-path="url(#pa7e83ef26f)" d="M 189.852781 157.362699 
L 189.852781 141.836374 
" style="fill:none;stroke:#808080;"/>
    <path clip-path="url(#pa7e83ef26f)" d="M 214.361181 162.95384 
L 214.361181 146.447639 
" style="fill:none;stroke:#808080;"/>
    <path clip-path="url(#pa7e83ef26f)" d="M 256.712864 117.271398 
L 256.712864 97.137463 
" style="fill:none;stroke:#808080;"/>
    <path clip-path="url(#pa7e83ef26f)" d="M 133.697938 202.604227 
L 133.697938 181.663439 
" style="fill:none;stroke:#808080;"/>
    <path clip-path="url(#pa7e83ef26f)" d="M 106.047774 235.486579 
L 106.047774 212.212148 
" style="fill:none;stroke:#808080;"/>
    <path clip-path="url(#pa7e83ef26f)" d="M 242.422731 146.753774 
L 242.422731 126.046266 
" style="fill:none;stroke:#808080;"/>
    <path clip-path="url(#pa7e83ef26f)" d="M 212.700285 161.968549 
L 212.700285 143.042719 
" style="fill:none;stroke:#808080;"/>
    <path clip-path="url(#pa7e83ef26f)" d="M 297.577284 144.710481 
L 297.577284 125.458796 
" style="fill:none;stroke:#808080;"/>
    <path clip-path="url(#pa7e83ef26f)" d="M 330.768437 124.97626 
L 330.768437 104.823963 
" style="fill:none;stroke:#808080;"/>
    <path clip-path="url(#pa7e83ef26f)" d="M 206.768946 196.874161 
L 206.768946 178.087945 
" style="fill:none;stroke:#808080;"/>
    <path clip-path="url(#pa7e83ef26f)" d="M 217.53807 159.399541 
L 217.53807 138.925239 
" style="fill:none;stroke:#808080;"/>
    <path clip-path="url(#pa7e83ef26f)" d="M 243.466475 142.520849 
L 243.466475 121.732523 
" style="fill:none;stroke:#808080;"/>
    <path clip-path="url(#pa7e83ef26f)" d="M 247.796034 178.555749 
L 247.796034 160.002089 
" style="fill:none;stroke:#808080;"/>
    <path clip-path="url(#pa7e83ef26f)" d="M 267.705882 180.213112 
L 267.705882 148.6147 
" style="fill:none;stroke:#808080;"/>
    <path clip-path="url(#pa7e83ef26f)" d="M 282.445544 165.457105 
L 282.445544 144.649584 
" style="fill:none;stroke:#808080;"/>
    <path clip-path="url(#pa7e83ef26f)" d="M 235.707666 226.484207 
L 235.707666 197.849598 
" style="fill:none;stroke:#808080;"/>
    <path clip-path="url(#pa7e83ef26f)" d="M 287.208296 158.367715 
L 287.208296 127.993115 
" style="fill:none;stroke:#808080;"/>
    <path clip-path="url(#pa7e83ef26f)" d="M 260.958977 178.180122 
L 260.958977 152.940349 
" style="fill:none;stroke:#808080;"/>
    <path clip-path="url(#pa7e83ef26f)" d="M 252.499985 181.170374 
L 252.499985 155.434114 
" style="fill:none;stroke:#808080;"/>
    <path clip-path="url(#pa7e83ef26f)" d="M 274.68663 141.432366 
L 274.68663 117.901984 
" style="fill:none;stroke:#808080;"/>
    <path clip-path="url(#pa7e83ef26f)" d="M 305.472531 160.955796 
L 305.472531 132.564037 
" style="fill:none;stroke:#808080;"/>
    <path clip-path="url(#pa7e83ef26f)" d="M 204.674109 195.168377 
L 204.674109 163.642006 
" style="fill:none;stroke:#808080;"/>
    <path clip-path="url(#pa7e83ef26f)" d="M 253.070002 158.11916 
L 253.070002 135.934395 
" style="fill:none;stroke:#808080;"/>
    <path clip-path="url(#pa7e83ef26f)" d="M 184.631998 204.761659 
L 184.631998 180.817983 
" style="fill:none;stroke:#808080;"/>
    <path clip-path="url(#pa7e83ef26f)" d="M 246.287445 186.391369 
L 246.287445 157.636126 
" style="fill:none;stroke:#808080;"/>
    <path clip-path="url(#pa7e83ef26f)" d="M 220.232072 172.731295 
L 220.232072 149.520127 
" style="fill:none;stroke:#808080;"/>
    <path clip-path="url(#pa7e83ef26f)" d="M 311.120778 140.375858 
L 311.120778 114.229995 
" style="fill:none;stroke:#808080;"/>
    <path clip-path="url(#pa7e83ef26f)" d="M 307.765693 149.81652 
L 307.765693 130.168062 
" style="fill:none;stroke:#808080;"/>
    <path clip-path="url(#pa7e83ef26f)" d="M 294.485363 123.20079 
L 294.485363 101.814996 
" style="fill:none;stroke:#808080;"/>
   </g>
   <g id="LineCollection_5">
    <path clip-path="url(#pa7e83ef26f)" d="M 279.468385 102.795851 
L 299.521828 102.795851 
" style="fill:none;stroke:#808080;"/>
    <path clip-path="url(#pa7e83ef26f)" d="M 384.864276 103.64405 
L 403.430297 103.64405 
" style="fill:none;stroke:#808080;"/>
    <path clip-path="url(#pa7e83ef26f)" d="M 215.470326 108.997578 
L 233.265615 108.997578 
" style="fill:none;stroke:#808080;"/>
    <path clip-path="url(#pa7e83ef26f)" d="M 198.162279 152.723025 
L 216.564733 152.723025 
" style="fill:none;stroke:#808080;"/>
    <path clip-path="url(#pa7e83ef26f)" d="M 357.895946 65.896405 
L 376.988227 65.896405 
" style="fill:none;stroke:#808080;"/>
    <path clip-path="url(#pa7e83ef26f)" d="M 407.587686 61.87626 
L 426.016111 61.87626 
" style="fill:none;stroke:#808080;"/>
    <path clip-path="url(#pa7e83ef26f)" d="M 228.303448 134.556795 
L 247.269908 134.556795 
" style="fill:none;stroke:#808080;"/>
    <path clip-path="url(#pa7e83ef26f)" d="M 211.105343 128.089375 
L 229.211026 128.089375 
" style="fill:none;stroke:#808080;"/>
    <path clip-path="url(#pa7e83ef26f)" d="M 276.202551 125.238467 
L 294.695628 125.238467 
" style="fill:none;stroke:#808080;"/>
    <path clip-path="url(#pa7e83ef26f)" d="M 264.058365 122.089015 
L 282.255574 122.089015 
" style="fill:none;stroke:#808080;"/>
    <path clip-path="url(#pa7e83ef26f)" d="M 111.643727 175.623584 
L 129.713866 175.623584 
" style="fill:none;stroke:#808080;"/>
    <path clip-path="url(#pa7e83ef26f)" d="M 133.552046 164.648601 
L 152.350638 164.648601 
" style="fill:none;stroke:#808080;"/>
    <path clip-path="url(#pa7e83ef26f)" d="M 78.892372 173.11948 
L 98.358105 173.11948 
" style="fill:none;stroke:#808080;"/>
    <path clip-path="url(#pa7e83ef26f)" d="M 124.627653 192.145694 
L 147.594526 192.145694 
" style="fill:none;stroke:#808080;"/>
    <path clip-path="url(#pa7e83ef26f)" d="M 192.803081 138.035252 
L 210.486226 138.035252 
" style="fill:none;stroke:#808080;"/>
    <path clip-path="url(#pa7e83ef26f)" d="M 203.465908 140.624088 
L 222.306331 140.624088 
" style="fill:none;stroke:#808080;"/>
    <path clip-path="url(#pa7e83ef26f)" d="M 137.301649 167.85017 
L 155.29324 167.85017 
" style="fill:none;stroke:#808080;"/>
    <path clip-path="url(#pa7e83ef26f)" d="M 130.684345 168.264218 
L 148.645056 168.264218 
" style="fill:none;stroke:#808080;"/>
    <path clip-path="url(#pa7e83ef26f)" d="M 131.874349 185.077436 
L 150.196397 185.077436 
" style="fill:none;stroke:#808080;"/>
    <path clip-path="url(#pa7e83ef26f)" d="M 121.80096 189.464304 
L 140.28344 189.464304 
" style="fill:none;stroke:#808080;"/>
    <path clip-path="url(#pa7e83ef26f)" d="M 142.65176 180.0356 
L 160.916118 180.0356 
" style="fill:none;stroke:#808080;"/>
    <path clip-path="url(#pa7e83ef26f)" d="M 183.023359 184.726033 
L 201.559665 184.726033 
" style="fill:none;stroke:#808080;"/>
   </g>
   <g id="LineCollection_6">
    <path clip-path="url(#pa7e83ef26f)" d="M 289.495106 112.227935 
L 289.495106 93.363766 
" style="fill:none;stroke:#808080;"/>
    <path clip-path="url(#pa7e83ef26f)" d="M 394.147287 114.654232 
L 394.147287 92.633868 
" style="fill:none;stroke:#808080;"/>
    <path clip-path="url(#pa7e83ef26f)" d="M 224.36797 116.682946 
L 224.36797 101.31221 
" style="fill:none;stroke:#808080;"/>
    <path clip-path="url(#pa7e83ef26f)" d="M 207.363506 162.738754 
L 207.363506 142.707297 
" style="fill:none;stroke:#808080;"/>
    <path clip-path="url(#pa7e83ef26f)" d="M 367.442086 73.960481 
L 367.442086 57.832329 
" style="fill:none;stroke:#808080;"/>
    <path clip-path="url(#pa7e83ef26f)" d="M 416.801898 71.540048 
L 416.801898 52.212473 
" style="fill:none;stroke:#808080;"/>
    <path clip-path="url(#pa7e83ef26f)" d="M 237.786678 144.374674 
L 237.786678 124.738916 
" style="fill:none;stroke:#808080;"/>
    <path clip-path="url(#pa7e83ef26f)" d="M 220.158184 136.670092 
L 220.158184 119.508659 
" style="fill:none;stroke:#808080;"/>
    <path clip-path="url(#pa7e83ef26f)" d="M 285.44909 133.991337 
L 285.44909 116.485598 
" style="fill:none;stroke:#808080;"/>
    <path clip-path="url(#pa7e83ef26f)" d="M 273.156969 131.484591 
L 273.156969 112.693439 
" style="fill:none;stroke:#808080;"/>
    <path clip-path="url(#pa7e83ef26f)" d="M 120.678796 184.387784 
L 120.678796 166.859384 
" style="fill:none;stroke:#808080;"/>
    <path clip-path="url(#pa7e83ef26f)" d="M 142.951342 174.551 
L 142.951342 154.746202 
" style="fill:none;stroke:#808080;"/>
    <path clip-path="url(#pa7e83ef26f)" d="M 88.625239 183.363161 
L 88.625239 162.875799 
" style="fill:none;stroke:#808080;"/>
    <path clip-path="url(#pa7e83ef26f)" d="M 136.111089 204.015978 
L 136.111089 180.27541 
" style="fill:none;stroke:#808080;"/>
    <path clip-path="url(#pa7e83ef26f)" d="M 201.644654 146.574714 
L 201.644654 129.49579 
" style="fill:none;stroke:#808080;"/>
    <path clip-path="url(#pa7e83ef26f)" d="M 212.886119 148.991351 
L 212.886119 132.256825 
" style="fill:none;stroke:#808080;"/>
    <path clip-path="url(#pa7e83ef26f)" d="M 146.297445 176.764274 
L 146.297445 158.936065 
" style="fill:none;stroke:#808080;"/>
    <path clip-path="url(#pa7e83ef26f)" d="M 139.6647 176.847886 
L 139.6647 159.680549 
" style="fill:none;stroke:#808080;"/>
    <path clip-path="url(#pa7e83ef26f)" d="M 141.035373 193.971258 
L 141.035373 176.183613 
" style="fill:none;stroke:#808080;"/>
    <path clip-path="url(#pa7e83ef26f)" d="M 131.0422 197.877146 
L 131.0422 181.051461 
" style="fill:none;stroke:#808080;"/>
    <path clip-path="url(#pa7e83ef26f)" d="M 151.783939 190.981733 
L 151.783939 169.089468 
" style="fill:none;stroke:#808080;"/>
    <path clip-path="url(#pa7e83ef26f)" d="M 192.291512 194.263795 
L 192.291512 175.188271 
" style="fill:none;stroke:#808080;"/>
   </g>
   <g id="line2d_26">
    <defs>
     <path d="M 0 4 
C 1.060812 4 2.078319 3.578535 2.828427 2.828427 
C 3.578535 2.078319 4 1.060812 4 0 
C 4 -1.060812 3.578535 -2.078319 2.828427 -2.828427 
C 2.078319 -3.578535 1.060812 -4 0 -4 
C -1.060812 -4 -2.078319 -3.578535 -2.828427 -2.828427 
C -3.578535 -2.078319 -4 -1.060812 -4 0 
C -4 1.060812 -3.578535 2.078319 -2.828427 2.828427 
C -2.078319 3.578535 -1.060812 4 0 4 
z
" id="me4cbf79ee5" style="stroke:#000000;stroke-width:0.2;"/>
    </defs>
    <g clip-path="url(#pa7e83ef26f)">
     <use style="fill:#ff8c00;stroke:#000000;stroke-width:0.2;" x="378.4579" xlink:href="#me4cbf79ee5" y="182.62366"/>
     <use style="fill:#ff8c00;stroke:#000000;stroke-width:0.2;" x="254.693747" xlink:href="#me4cbf79ee5" y="94.807419"/>
     <use style="fill:#ff8c00;stroke:#000000;stroke-width:0.2;" x="152.069004" xlink:href="#me4cbf79ee5" y="170.627435"/>
     <use style="fill:#ff8c00;stroke:#000000;stroke-width:0.2;" x="217.481281" xlink:href="#me4cbf79ee5" y="190.549391"/>
     <use style="fill:#ff8c00;stroke:#000000;stroke-width:0.2;" x="131.231107" xlink:href="#me4cbf79ee5" y="165.122209"/>
     <use style="fill:#ff8c00;stroke:#000000;stroke-width:0.2;" x="178.202661" xlink:href="#me4cbf79ee5" y="204.69176"/>
     <use style="fill:#ff8c00;stroke:#000000;stroke-width:0.2;" x="379.756264" xlink:href="#me4cbf79ee5" y="52.127062"/>
     <use style="fill:#ff8c00;stroke:#000000;stroke-width:0.2;" x="245.222689" xlink:href="#me4cbf79ee5" y="115.89711"/>
     <use style="fill:#ff8c00;stroke:#000000;stroke-width:0.2;" x="169.006467" xlink:href="#me4cbf79ee5" y="172.722357"/>
     <use style="fill:#ff8c00;stroke:#000000;stroke-width:0.2;" x="210.620607" xlink:href="#me4cbf79ee5" y="142.642161"/>
     <use style="fill:#ff8c00;stroke:#000000;stroke-width:0.2;" x="151.656947" xlink:href="#me4cbf79ee5" y="192.751302"/>
     <use style="fill:#ff8c00;stroke:#000000;stroke-width:0.2;" x="126.428629" xlink:href="#me4cbf79ee5" y="201.962499"/>
     <use style="fill:#ff8c00;stroke:#000000;stroke-width:0.2;" x="190.182477" xlink:href="#me4cbf79ee5" y="205.765466"/>
     <use style="fill:#ff8c00;stroke:#000000;stroke-width:0.2;" x="330.398296" xlink:href="#me4cbf79ee5" y="135.34859"/>
     <use style="fill:#ff8c00;stroke:#000000;stroke-width:0.2;" x="264.169558" xlink:href="#me4cbf79ee5" y="104.522992"/>
     <use style="fill:#ff8c00;stroke:#000000;stroke-width:0.2;" x="154.631526" xlink:href="#me4cbf79ee5" y="175.343036"/>
     <use style="fill:#ff8c00;stroke:#000000;stroke-width:0.2;" x="136.012095" xlink:href="#me4cbf79ee5" y="225.368308"/>
     <use style="fill:#ff8c00;stroke:#000000;stroke-width:0.2;" x="96.10233" xlink:href="#me4cbf79ee5" y="189.005175"/>
     <use style="fill:#ff8c00;stroke:#000000;stroke-width:0.2;" x="286.925927" xlink:href="#me4cbf79ee5" y="162.63446"/>
     <use style="fill:#ff8c00;stroke:#000000;stroke-width:0.2;" x="212.871764" xlink:href="#me4cbf79ee5" y="86.516156"/>
     <use style="fill:#ff8c00;stroke:#000000;stroke-width:0.2;" x="242.864739" xlink:href="#me4cbf79ee5" y="148.629031"/>
     <use style="fill:#ff8c00;stroke:#000000;stroke-width:0.2;" x="287.208353" xlink:href="#me4cbf79ee5" y="120.728986"/>
     <use style="fill:#ff8c00;stroke:#000000;stroke-width:0.2;" x="220.609887" xlink:href="#me4cbf79ee5" y="158.185709"/>
     <use style="fill:#ff8c00;stroke:#000000;stroke-width:0.2;" x="294.388185" xlink:href="#me4cbf79ee5" y="139.318289"/>
     <use style="fill:#ff8c00;stroke:#000000;stroke-width:0.2;" x="161.975357" xlink:href="#me4cbf79ee5" y="184.861233"/>
     <use style="fill:#ff8c00;stroke:#000000;stroke-width:0.2;" x="207.032416" xlink:href="#me4cbf79ee5" y="170.334534"/>
    </g>
   </g>
   <g id="line2d_27">
    <defs>
     <path d="M 0 4 
C 1.060812 4 2.078319 3.578535 2.828427 2.828427 
C 3.578535 2.078319 4 1.060812 4 0 
C 4 -1.060812 3.578535 -2.078319 2.828427 -2.828427 
C 2.078319 -3.578535 1.060812 -4 0 -4 
C -1.060812 -4 -2.078319 -3.578535 -2.828427 -2.828427 
C -3.578535 -2.078319 -4 -1.060812 -4 0 
C -4 1.060812 -3.578535 2.078319 -2.828427 2.828427 
C -2.078319 3.578535 -1.060812 4 0 4 
z
" id="me6f36182ef" style="stroke:#000000;stroke-width:0.2;"/>
    </defs>
    <g clip-path="url(#pa7e83ef26f)">
     <use style="fill:#800080;stroke:#000000;stroke-width:0.2;" x="317.421733" xlink:href="#me6f36182ef" y="70.451773"/>
     <use style="fill:#800080;stroke:#000000;stroke-width:0.2;" x="247.750872" xlink:href="#me6f36182ef" y="124.038516"/>
     <use style="fill:#800080;stroke:#000000;stroke-width:0.2;" x="146.547934" xlink:href="#me6f36182ef" y="175.737109"/>
     <use style="fill:#800080;stroke:#000000;stroke-width:0.2;" x="134.028896" xlink:href="#me6f36182ef" y="200.255737"/>
     <use style="fill:#800080;stroke:#000000;stroke-width:0.2;" x="183.958507" xlink:href="#me6f36182ef" y="161.448034"/>
     <use style="fill:#800080;stroke:#000000;stroke-width:0.2;" x="209.473048" xlink:href="#me6f36182ef" y="135.914928"/>
     <use style="fill:#800080;stroke:#000000;stroke-width:0.2;" x="164.700712" xlink:href="#me6f36182ef" y="159.440317"/>
     <use style="fill:#800080;stroke:#000000;stroke-width:0.2;" x="164.945834" xlink:href="#me6f36182ef" y="177.019165"/>
     <use style="fill:#800080;stroke:#000000;stroke-width:0.2;" x="208.851609" xlink:href="#me6f36182ef" y="154.282513"/>
     <use style="fill:#800080;stroke:#000000;stroke-width:0.2;" x="189.852781" xlink:href="#me6f36182ef" y="149.599537"/>
     <use style="fill:#800080;stroke:#000000;stroke-width:0.2;" x="214.361181" xlink:href="#me6f36182ef" y="154.70074"/>
     <use style="fill:#800080;stroke:#000000;stroke-width:0.2;" x="256.712864" xlink:href="#me6f36182ef" y="107.20443"/>
     <use style="fill:#800080;stroke:#000000;stroke-width:0.2;" x="133.697938" xlink:href="#me6f36182ef" y="192.133833"/>
     <use style="fill:#800080;stroke:#000000;stroke-width:0.2;" x="106.047774" xlink:href="#me6f36182ef" y="223.849364"/>
     <use style="fill:#800080;stroke:#000000;stroke-width:0.2;" x="242.422731" xlink:href="#me6f36182ef" y="136.40002"/>
     <use style="fill:#800080;stroke:#000000;stroke-width:0.2;" x="212.700285" xlink:href="#me6f36182ef" y="152.505634"/>
     <use style="fill:#800080;stroke:#000000;stroke-width:0.2;" x="297.577284" xlink:href="#me6f36182ef" y="135.084639"/>
     <use style="fill:#800080;stroke:#000000;stroke-width:0.2;" x="330.768437" xlink:href="#me6f36182ef" y="114.900111"/>
     <use style="fill:#800080;stroke:#000000;stroke-width:0.2;" x="206.768946" xlink:href="#me6f36182ef" y="187.481053"/>
     <use style="fill:#800080;stroke:#000000;stroke-width:0.2;" x="217.53807" xlink:href="#me6f36182ef" y="149.16239"/>
     <use style="fill:#800080;stroke:#000000;stroke-width:0.2;" x="243.466475" xlink:href="#me6f36182ef" y="132.126686"/>
     <use style="fill:#800080;stroke:#000000;stroke-width:0.2;" x="247.796034" xlink:href="#me6f36182ef" y="169.278919"/>
     <use style="fill:#800080;stroke:#000000;stroke-width:0.2;" x="267.705882" xlink:href="#me6f36182ef" y="164.413906"/>
     <use style="fill:#800080;stroke:#000000;stroke-width:0.2;" x="282.445544" xlink:href="#me6f36182ef" y="155.053344"/>
     <use style="fill:#800080;stroke:#000000;stroke-width:0.2;" x="235.707666" xlink:href="#me6f36182ef" y="212.166903"/>
     <use style="fill:#800080;stroke:#000000;stroke-width:0.2;" x="287.208296" xlink:href="#me6f36182ef" y="143.180415"/>
     <use style="fill:#800080;stroke:#000000;stroke-width:0.2;" x="260.958977" xlink:href="#me6f36182ef" y="165.560236"/>
     <use style="fill:#800080;stroke:#000000;stroke-width:0.2;" x="252.499985" xlink:href="#me6f36182ef" y="168.302244"/>
     <use style="fill:#800080;stroke:#000000;stroke-width:0.2;" x="274.68663" xlink:href="#me6f36182ef" y="129.667175"/>
     <use style="fill:#800080;stroke:#000000;stroke-width:0.2;" x="305.472531" xlink:href="#me6f36182ef" y="146.759916"/>
     <use style="fill:#800080;stroke:#000000;stroke-width:0.2;" x="204.674109" xlink:href="#me6f36182ef" y="179.405191"/>
     <use style="fill:#800080;stroke:#000000;stroke-width:0.2;" x="253.070002" xlink:href="#me6f36182ef" y="147.026777"/>
     <use style="fill:#800080;stroke:#000000;stroke-width:0.2;" x="184.631998" xlink:href="#me6f36182ef" y="192.789821"/>
     <use style="fill:#800080;stroke:#000000;stroke-width:0.2;" x="246.287445" xlink:href="#me6f36182ef" y="172.013748"/>
     <use style="fill:#800080;stroke:#000000;stroke-width:0.2;" x="220.232072" xlink:href="#me6f36182ef" y="161.125711"/>
     <use style="fill:#800080;stroke:#000000;stroke-width:0.2;" x="311.120778" xlink:href="#me6f36182ef" y="127.302927"/>
     <use style="fill:#800080;stroke:#000000;stroke-width:0.2;" x="307.765693" xlink:href="#me6f36182ef" y="139.992291"/>
     <use style="fill:#800080;stroke:#000000;stroke-width:0.2;" x="294.485363" xlink:href="#me6f36182ef" y="112.507893"/>
    </g>
   </g>
   <g id="line2d_28">
    <defs>
     <path d="M 0 4 
C 1.060812 4 2.078319 3.578535 2.828427 2.828427 
C 3.578535 2.078319 4 1.060812 4 0 
C 4 -1.060812 3.578535 -2.078319 2.828427 -2.828427 
C 2.078319 -3.578535 1.060812 -4 0 -4 
C -1.060812 -4 -2.078319 -3.578535 -2.828427 -2.828427 
C -3.578535 -2.078319 -4 -1.060812 -4 0 
C -4 1.060812 -3.578535 2.078319 -2.828427 2.828427 
C -2.078319 3.578535 -1.060812 4 0 4 
z
" id="m56869f6405" style="stroke:#000000;stroke-width:0.2;"/>
    </defs>
    <g clip-path="url(#pa7e83ef26f)">
     <use style="fill:#6495ed;stroke:#000000;stroke-width:0.2;" x="289.495106" xlink:href="#m56869f6405" y="102.795851"/>
     <use style="fill:#6495ed;stroke:#000000;stroke-width:0.2;" x="394.147287" xlink:href="#m56869f6405" y="103.64405"/>
     <use style="fill:#6495ed;stroke:#000000;stroke-width:0.2;" x="224.36797" xlink:href="#m56869f6405" y="108.997578"/>
     <use style="fill:#6495ed;stroke:#000000;stroke-width:0.2;" x="207.363506" xlink:href="#m56869f6405" y="152.723025"/>
     <use style="fill:#6495ed;stroke:#000000;stroke-width:0.2;" x="367.442086" xlink:href="#m56869f6405" y="65.896405"/>
     <use style="fill:#6495ed;stroke:#000000;stroke-width:0.2;" x="416.801898" xlink:href="#m56869f6405" y="61.87626"/>
     <use style="fill:#6495ed;stroke:#000000;stroke-width:0.2;" x="237.786678" xlink:href="#m56869f6405" y="134.556795"/>
     <use style="fill:#6495ed;stroke:#000000;stroke-width:0.2;" x="220.158184" xlink:href="#m56869f6405" y="128.089375"/>
     <use style="fill:#6495ed;stroke:#000000;stroke-width:0.2;" x="285.44909" xlink:href="#m56869f6405" y="125.238467"/>
     <use style="fill:#6495ed;stroke:#000000;stroke-width:0.2;" x="273.156969" xlink:href="#m56869f6405" y="122.089015"/>
     <use style="fill:#6495ed;stroke:#000000;stroke-width:0.2;" x="120.678796" xlink:href="#m56869f6405" y="175.623584"/>
     <use style="fill:#6495ed;stroke:#000000;stroke-width:0.2;" x="142.951342" xlink:href="#m56869f6405" y="164.648601"/>
     <use style="fill:#6495ed;stroke:#000000;stroke-width:0.2;" x="88.625239" xlink:href="#m56869f6405" y="173.11948"/>
     <use style="fill:#6495ed;stroke:#000000;stroke-width:0.2;" x="136.111089" xlink:href="#m56869f6405" y="192.145694"/>
     <use style="fill:#6495ed;stroke:#000000;stroke-width:0.2;" x="201.644654" xlink:href="#m56869f6405" y="138.035252"/>
     <use style="fill:#6495ed;stroke:#000000;stroke-width:0.2;" x="212.886119" xlink:href="#m56869f6405" y="140.624088"/>
     <use style="fill:#6495ed;stroke:#000000;stroke-width:0.2;" x="146.297445" xlink:href="#m56869f6405" y="167.85017"/>
     <use style="fill:#6495ed;stroke:#000000;stroke-width:0.2;" x="139.6647" xlink:href="#m56869f6405" y="168.264218"/>
     <use style="fill:#6495ed;stroke:#000000;stroke-width:0.2;" x="141.035373" xlink:href="#m56869f6405" y="185.077436"/>
     <use style="fill:#6495ed;stroke:#000000;stroke-width:0.2;" x="131.0422" xlink:href="#m56869f6405" y="189.464304"/>
     <use style="fill:#6495ed;stroke:#000000;stroke-width:0.2;" x="151.783939" xlink:href="#m56869f6405" y="180.0356"/>
     <use style="fill:#6495ed;stroke:#000000;stroke-width:0.2;" x="192.291512" xlink:href="#m56869f6405" y="184.726033"/>
    </g>
   </g>
   <g id="patch_3">
    <path d="M 51.022969 337.973908 
L 51.022969 11.813908 
" style="fill:none;stroke:#cccccc;stroke-linecap:square;stroke-linejoin:miter;"/>
   </g>
   <g id="patch_4">
    <path d="M 452.782969 337.973908 
L 452.782969 11.813908 
" style="fill:none;stroke:#cccccc;stroke-linecap:square;stroke-linejoin:miter;"/>
   </g>
   <g id="patch_5">
    <path d="M 51.022969 337.973908 
L 452.782969 337.973908 
" style="fill:none;stroke:#cccccc;stroke-linecap:square;stroke-linejoin:miter;"/>
   </g>
   <g id="patch_6">
    <path d="M 51.022969 11.813908 
L 452.782969 11.813908 
" style="fill:none;stroke:#cccccc;stroke-linecap:square;stroke-linejoin:miter;"/>
   </g>
   <g id="text_15">
    <!-- R$^2$ = 0.35 -->
    <defs>
     <path d="M 53.40625 35.015625 
L 5 35.015625 
L 5 28 
L 53.40625 28 
z
M 53.40625 18 
L 5 18 
L 5 11 
L 53.40625 11 
z
" id="Nimbus_Sans_L_Regular-61"/>
     <path d="M 22.09375 33 
L 23.203125 33 
L 26.90625 33 
C 36.59375 33 41.59375 28.59375 41.59375 20.0625 
C 41.59375 11.125 36.09375 5.8125 26.90625 5.8125 
C 17.296875 5.8125 12.59375 10.640625 12 21.015625 
L 3.203125 21.015625 
C 3.59375 15.28125 4.59375 11.5625 6.296875 8.34375 
C 9.90625 1.515625 16.90625 -2 26.59375 -2 
C 41.203125 -2 50.59375 6.734375 50.59375 20.203125 
C 50.59375 29.25 47.09375 34.28125 38.59375 37.203125 
C 45.203125 39.78125 48.5 44.71875 48.5 51.734375 
C 48.5 63.78125 40.40625 71 26.90625 71 
C 12.59375 71 5 63.28125 4.703125 48.359375 
L 13.5 48.359375 
C 13.59375 52.59375 14 54.953125 15.09375 57.109375 
C 17.09375 60.9375 21.5 63.296875 27 63.296875 
C 34.796875 63.296875 39.5 58.75 39.5 51.359375 
C 39.5 46.421875 37.703125 43.453125 33.796875 41.890625 
C 31.40625 40.90625 28.296875 40.5 22.09375 40.5 
z
" id="Nimbus_Sans_L_Regular-51"/>
     <path d="M 47.59375 71 
L 11 71 
L 5.703125 32.59375 
L 13.796875 32.59375 
C 17.90625 37.484375 21.296875 39.1875 26.796875 39.1875 
C 36.296875 39.1875 42.296875 32.6875 42.296875 22.203125 
C 42.296875 12 36.40625 5.8125 26.796875 5.8125 
C 19.09375 5.8125 14.40625 9.703125 12.296875 17.703125 
L 3.5 17.703125 
C 4.703125 11.90625 5.703125 9.09375 7.796875 6.484375 
C 11.796875 1.09375 19 -2 27 -2 
C 41.296875 -2 51.296875 8.390625 51.296875 23.390625 
C 51.296875 37.40625 42 47 28.40625 47 
C 23.40625 47 19.40625 45.703125 15.296875 42.6875 
L 18.09375 62.296875 
L 47.59375 62.296875 
z
" id="Nimbus_Sans_L_Regular-53"/>
    </defs>
    <g style="fill:#ff8c00;" transform="translate(389.709246 332.47993)scale(0.14 -0.14)">
     <use transform="scale(0.996264)" xlink:href="#Nimbus_Sans_L_Regular-82"/>
     <use transform="translate(71.929985 36.153639)scale(0.697382)" xlink:href="#Nimbus_Sans_L_Regular-50"/>
     <use transform="translate(138.897287 0)scale(0.996264)" xlink:href="#Nimbus_Sans_L_Regular-61"/>
     <use transform="translate(224.773949 0)scale(0.996264)" xlink:href="#Nimbus_Sans_L_Regular-48"/>
     <use transform="translate(280.165626 0)scale(0.996264)" xlink:href="#Nimbus_Sans_L_Regular-46"/>
     <use transform="translate(307.860796 0)scale(0.996264)" xlink:href="#Nimbus_Sans_L_Regular-51"/>
     <use transform="translate(363.252473 0)scale(0.996264)" xlink:href="#Nimbus_Sans_L_Regular-53"/>
    </g>
   </g>
   <g id="text_16">
    <!-- R$^2$ = 0.44 -->
    <g style="fill:#800080;" transform="translate(389.709246 316.17193)scale(0.14 -0.14)">
     <use transform="scale(0.996264)" xlink:href="#Nimbus_Sans_L_Regular-82"/>
     <use transform="translate(71.929985 36.153639)scale(0.697382)" xlink:href="#Nimbus_Sans_L_Regular-50"/>
     <use transform="translate(138.897287 0)scale(0.996264)" xlink:href="#Nimbus_Sans_L_Regular-61"/>
     <use transform="translate(224.773949 0)scale(0.996264)" xlink:href="#Nimbus_Sans_L_Regular-48"/>
     <use transform="translate(280.165626 0)scale(0.996264)" xlink:href="#Nimbus_Sans_L_Regular-46"/>
     <use transform="translate(307.860796 0)scale(0.996264)" xlink:href="#Nimbus_Sans_L_Regular-52"/>
     <use transform="translate(363.252473 0)scale(0.996264)" xlink:href="#Nimbus_Sans_L_Regular-52"/>
    </g>
   </g>
   <g id="text_17">
    <!-- R$^2$ = 0.78 -->
    <defs>
     <path d="M 52 70.703125 
L 4.59375 70.703125 
L 4.59375 62 
L 42.90625 62 
C 26 37.78125 19.09375 22.90625 13.796875 -0.5 
L 23.203125 -0.5 
C 27.09375 22.296875 36 41.890625 52 63.296875 
z
" id="Nimbus_Sans_L_Regular-55"/>
    </defs>
    <g style="fill:#6495ed;" transform="translate(389.709246 299.86393)scale(0.14 -0.14)">
     <use transform="scale(0.996264)" xlink:href="#Nimbus_Sans_L_Regular-82"/>
     <use transform="translate(71.929985 36.153639)scale(0.697382)" xlink:href="#Nimbus_Sans_L_Regular-50"/>
     <use transform="translate(138.897287 0)scale(0.996264)" xlink:href="#Nimbus_Sans_L_Regular-61"/>
     <use transform="translate(224.773949 0)scale(0.996264)" xlink:href="#Nimbus_Sans_L_Regular-48"/>
     <use transform="translate(280.165626 0)scale(0.996264)" xlink:href="#Nimbus_Sans_L_Regular-46"/>
     <use transform="translate(307.860796 0)scale(0.996264)" xlink:href="#Nimbus_Sans_L_Regular-55"/>
     <use transform="translate(363.252473 0)scale(0.996264)" xlink:href="#Nimbus_Sans_L_Regular-56"/>
    </g>
   </g>
   <g id="text_18">
    <g id="patch_7">
     <path d="M 54.980569 52.959131 
L 220.107177 52.959131 
L 220.107177 15.015508 
L 54.980569 15.015508 
z
" style="fill:#ffffff;stroke:#ffffff;stroke-linejoin:miter;stroke-width:0.39;"/>
    </g>
    <!-- RMSE = 1.90 [1.69, 2.12] -->
    <defs>
     <path d="M 18.296875 33 
L 58 33 
L 58 41.21875 
L 18.296875 41.21875 
L 18.296875 64.78125 
L 59.5 64.78125 
L 59.5 73 
L 9 73 
L 9 0 
L 61.296875 0 
L 61.296875 8.21875 
L 18.296875 8.21875 
z
" id="Nimbus_Sans_L_Regular-69"/>
     <path d="M 25 73 
L 6.40625 73 
L 6.40625 -21.203125 
L 25 -21.203125 
L 25 -14 
L 14.703125 -14 
L 14.703125 65.78125 
L 25 65.78125 
z
" id="Nimbus_Sans_L_Regular-91"/>
     <path d="M 8.703125 10 
L 8.703125 -0.421875 
L 14.703125 -0.421875 
L 14.703125 -2.21875 
C 14.703125 -9.109375 13.40625 -11.09375 8.703125 -11.09375 
L 8.703125 -15 
C 15.703125 -15 19.203125 -10.53125 19.203125 -1.96875 
L 19.203125 10 
z
" id="Nimbus_Sans_L_Regular-44"/>
     <path d="M 2.296875 -21.203125 
L 20.90625 -21.203125 
L 20.90625 73 
L 2.296875 73 
L 2.296875 65.78125 
L 12.59375 65.78125 
L 12.59375 -14 
L 2.296875 -14 
z
" id="Nimbus_Sans_L_Regular-93"/>
    </defs>
    <g style="fill:#262626;" transform="translate(59.040569 29.013157)scale(0.14 -0.14)">
     <use transform="scale(0.996264)" xlink:href="#Nimbus_Sans_L_Regular-82"/>
     <use transform="translate(71.929985 0)scale(0.996264)" xlink:href="#Nimbus_Sans_L_Regular-77"/>
     <use transform="translate(154.918415 0)scale(0.996264)" xlink:href="#Nimbus_Sans_L_Regular-83"/>
     <use transform="translate(221.368446 0)scale(0.996264)" xlink:href="#Nimbus_Sans_L_Regular-69"/>
     <use transform="translate(315.513647 0)scale(0.996264)" xlink:href="#Nimbus_Sans_L_Regular-61"/>
     <use transform="translate(401.390309 0)scale(0.996264)" xlink:href="#Nimbus_Sans_L_Regular-49"/>
     <use transform="translate(456.781986 0)scale(0.996264)" xlink:href="#Nimbus_Sans_L_Regular-46"/>
     <use transform="translate(484.477156 0)scale(0.996264)" xlink:href="#Nimbus_Sans_L_Regular-57"/>
     <use transform="translate(539.868833 0)scale(0.996264)" xlink:href="#Nimbus_Sans_L_Regular-48"/>
     <use transform="translate(622.95568 0)scale(0.996264)" xlink:href="#Nimbus_Sans_L_Regular-91"/>
     <use transform="translate(650.650849 0)scale(0.996264)" xlink:href="#Nimbus_Sans_L_Regular-49"/>
     <use transform="translate(706.042526 0)scale(0.996264)" xlink:href="#Nimbus_Sans_L_Regular-46"/>
     <use transform="translate(733.737696 0)scale(0.996264)" xlink:href="#Nimbus_Sans_L_Regular-54"/>
     <use transform="translate(789.129373 0)scale(0.996264)" xlink:href="#Nimbus_Sans_L_Regular-57"/>
     <use transform="translate(844.52105 0)scale(0.996264)" xlink:href="#Nimbus_Sans_L_Regular-44"/>
     <use transform="translate(899.911389 0)scale(0.996264)" xlink:href="#Nimbus_Sans_L_Regular-50"/>
     <use transform="translate(955.303066 0)scale(0.996264)" xlink:href="#Nimbus_Sans_L_Regular-46"/>
     <use transform="translate(982.998235 0)scale(0.996264)" xlink:href="#Nimbus_Sans_L_Regular-49"/>
     <use transform="translate(1038.389912 0)scale(0.996264)" xlink:href="#Nimbus_Sans_L_Regular-50"/>
     <use transform="translate(1093.781589 0)scale(0.996264)" xlink:href="#Nimbus_Sans_L_Regular-93"/>
    </g>
    <!-- R$^2$ = 0.46 [0.28, 0.64] -->
    <g style="fill:#262626;" transform="translate(59.040569 45.928353)scale(0.14 -0.14)">
     <use transform="scale(0.996264)" xlink:href="#Nimbus_Sans_L_Regular-82"/>
     <use transform="translate(71.929985 36.153639)scale(0.697382)" xlink:href="#Nimbus_Sans_L_Regular-50"/>
     <use transform="translate(138.897287 0)scale(0.996264)" xlink:href="#Nimbus_Sans_L_Regular-61"/>
     <use transform="translate(224.773949 0)scale(0.996264)" xlink:href="#Nimbus_Sans_L_Regular-48"/>
     <use transform="translate(280.165626 0)scale(0.996264)" xlink:href="#Nimbus_Sans_L_Regular-46"/>
     <use transform="translate(307.860796 0)scale(0.996264)" xlink:href="#Nimbus_Sans_L_Regular-52"/>
     <use transform="translate(363.252473 0)scale(0.996264)" xlink:href="#Nimbus_Sans_L_Regular-54"/>
     <use transform="translate(446.33932 0)scale(0.996264)" xlink:href="#Nimbus_Sans_L_Regular-91"/>
     <use transform="translate(474.034489 0)scale(0.996264)" xlink:href="#Nimbus_Sans_L_Regular-48"/>
     <use transform="translate(529.426166 0)scale(0.996264)" xlink:href="#Nimbus_Sans_L_Regular-46"/>
     <use transform="translate(557.121336 0)scale(0.996264)" xlink:href="#Nimbus_Sans_L_Regular-50"/>
     <use transform="translate(612.513013 0)scale(0.996264)" xlink:href="#Nimbus_Sans_L_Regular-56"/>
     <use transform="translate(667.90469 0)scale(0.996264)" xlink:href="#Nimbus_Sans_L_Regular-44"/>
     <use transform="translate(723.295029 0)scale(0.996264)" xlink:href="#Nimbus_Sans_L_Regular-48"/>
     <use transform="translate(778.686706 0)scale(0.996264)" xlink:href="#Nimbus_Sans_L_Regular-46"/>
     <use transform="translate(806.381875 0)scale(0.996264)" xlink:href="#Nimbus_Sans_L_Regular-54"/>
     <use transform="translate(861.773552 0)scale(0.996264)" xlink:href="#Nimbus_Sans_L_Regular-52"/>
     <use transform="translate(917.165229 0)scale(0.996264)" xlink:href="#Nimbus_Sans_L_Regular-93"/>
    </g>
   </g>
  </g>
 </g>
 <defs>
  <clipPath id="pa7e83ef26f">
   <rect height="326.16" width="401.76" x="51.022969" y="11.813908"/>
  </clipPath>
 </defs>
</svg>
