<?xml version="1.0" encoding="utf-8" standalone="no"?>
<!DOCTYPE svg PUBLIC "-//W3C//DTD SVG 1.1//EN"
  "http://www.w3.org/Graphics/SVG/1.1/DTD/svg11.dtd">
<!-- Created with matplotlib (http://matplotlib.org/) -->
<svg height="379pt" version="1.1" viewBox="0 0 467 379" width="467pt" xmlns="http://www.w3.org/2000/svg" xmlns:xlink="http://www.w3.org/1999/xlink">
 <defs>
  <style type="text/css">
*{stroke-linecap:butt;stroke-linejoin:round;}
  </style>
 </defs>
 <g id="figure_1">
  <g id="patch_1">
   <path d="M 0 379.095075 
L 467.183886 379.095075 
L 467.183886 0 
L 0 0 
z
" style="fill:#ffffff;"/>
  </g>
  <g id="axes_1">
   <g id="patch_2">
    <path d="M 58.223886 333.36 
L 459.983886 333.36 
L 459.983886 7.2 
L 58.223886 7.2 
z
" style="fill:#ffffff;"/>
   </g>
   <g id="line2d_1">
    <path clip-path="url(#p1439b7ce45)" d="M 0.656178 380.095075 
L 468.183886 0.543011 
" style="fill:none;stroke:#4c4c4c;stroke-linecap:round;stroke-width:0.5;"/>
   </g>
   <g id="matplotlib.axis_1">
    <g id="xtick_1">
     <g id="line2d_2">
      <path clip-path="url(#p1439b7ce45)" d="M 58.223886 333.36 
L 58.223886 7.2 
" style="fill:none;stroke:#cccccc;stroke-linecap:round;stroke-width:1.3;"/>
     </g>
     <g id="line2d_3"/>
     <g id="text_1">
      <!-- $-10$ -->
      <defs>
       <path d="M 65.90625 23 
C 67.59375 23 69.40625 23 69.40625 25 
C 69.40625 27 67.59375 27 65.90625 27 
L 11.796875 27 
C 10.09375 27 8.296875 27 8.296875 25 
C 8.296875 23 10.09375 23 11.796875 23 
z
" id="CMSY10-0"/>
       <path d="M 25.90625 50.59375 
L 25.90625 0 
L 34.703125 0 
L 34.703125 71.015625 
L 28.90625 71.015625 
C 25.796875 60.109375 23.796875 58.609375 10.203125 56.90625 
L 10.203125 50.59375 
z
" id="Nimbus_Sans_L_Regular-49"/>
       <path d="M 27.5 71 
C 20.90625 71 14.90625 68.125 11.203125 63.21875 
C 6.59375 57.046875 4.296875 47.5625 4.296875 34.5 
C 4.296875 10.671875 12.296875 -2 27.5 -2 
C 42.5 -2 50.703125 10.671875 50.703125 33.90625 
C 50.703125 47.65625 48.5 56.84375 43.796875 63.21875 
C 40.09375 68.21875 34.203125 71 27.5 71 
z
M 27.5 63.1875 
C 37 63.1875 41.703125 53.625 41.703125 34.703125 
C 41.703125 14.671875 37.09375 5.3125 27.296875 5.3125 
C 18 5.3125 13.296875 15.078125 13.296875 34.40625 
C 13.296875 53.71875 18 63.1875 27.5 63.1875 
z
" id="Nimbus_Sans_L_Regular-48"/>
      </defs>
      <g style="fill:#262626;" transform="translate(45.986284 351.687816)scale(0.13 -0.13)">
       <use transform="scale(0.996264)" xlink:href="#CMSY10-0"/>
       <use transform="translate(77.487468 0)scale(0.996264)" xlink:href="#Nimbus_Sans_L_Regular-49"/>
       <use transform="translate(132.879145 0)scale(0.996264)" xlink:href="#Nimbus_Sans_L_Regular-48"/>
      </g>
     </g>
    </g>
    <g id="xtick_2">
     <g id="line2d_4">
      <path clip-path="url(#p1439b7ce45)" d="M 111.791886 333.36 
L 111.791886 7.2 
" style="fill:none;stroke:#cccccc;stroke-linecap:round;stroke-width:1.3;"/>
     </g>
     <g id="line2d_5"/>
     <g id="text_2">
      <!-- $-8$ -->
      <defs>
       <path d="M 39.09375 37.484375 
C 46.40625 41.875 48.796875 45.46875 48.796875 52.15625 
C 48.796875 63.21875 40.09375 71 27.5 71 
C 15 71 6.203125 63.21875 6.203125 52.15625 
C 6.203125 45.578125 8.59375 41.984375 15.796875 37.484375 
C 7.703125 33.59375 3.703125 27.71875 3.703125 19.9375 
C 3.703125 6.96875 13.5 -2 27.5 -2 
C 41.5 -2 51.296875 6.984375 51.296875 19.84375 
C 51.296875 27.71875 47.296875 33.59375 39.09375 37.484375 
z
M 27.5 63.1875 
C 35 63.1875 39.796875 58.8125 39.796875 51.953125 
C 39.796875 45.375 34.90625 41 27.5 41 
C 20.09375 41 15.203125 45.375 15.203125 52.046875 
C 15.203125 58.8125 20.09375 63.1875 27.5 63.1875 
z
M 27.5 33.578125 
C 36.296875 33.578125 42.296875 28 42.296875 19.734375 
C 42.296875 11.390625 36.296875 5.8125 27.296875 5.8125 
C 18.703125 5.8125 12.703125 11.484375 12.703125 19.734375 
C 12.703125 28 18.703125 33.578125 27.5 33.578125 
z
" id="Nimbus_Sans_L_Regular-56"/>
      </defs>
      <g style="fill:#262626;" transform="translate(103.154743 351.687816)scale(0.13 -0.13)">
       <use transform="scale(0.996264)" xlink:href="#CMSY10-0"/>
       <use transform="translate(77.487468 0)scale(0.996264)" xlink:href="#Nimbus_Sans_L_Regular-56"/>
      </g>
     </g>
    </g>
    <g id="xtick_3">
     <g id="line2d_6">
      <path clip-path="url(#p1439b7ce45)" d="M 165.359886 333.36 
L 165.359886 7.2 
" style="fill:none;stroke:#cccccc;stroke-linecap:round;stroke-width:1.3;"/>
     </g>
     <g id="line2d_7"/>
     <g id="text_3">
      <!-- $-6$ -->
      <defs>
       <path d="M 49.796875 52.84375 
C 48.09375 64.234375 40.5 71 29.703125 71 
C 21.90625 71 14.90625 67.21875 10.703125 60.9375 
C 6.296875 54.0625 4.296875 45.375 4.296875 32.515625 
C 4.296875 20.640625 6.09375 13.0625 10.296875 6.78125 
C 14.09375 1.078125 20.296875 -2 28.09375 -2 
C 41.59375 -2 51.296875 8.09375 51.296875 22.109375 
C 51.296875 35.4375 42.296875 44.8125 29.59375 44.8125 
C 22.59375 44.8125 17.09375 42.109375 13.296875 36.90625 
C 13.40625 53.8125 19 63.1875 29.09375 63.1875 
C 35.296875 63.1875 39.59375 59.421875 41 52.84375 
z
M 28.5 37 
C 37 37 42.296875 31.03125 42.296875 21.40625 
C 42.296875 12.390625 36.296875 5.8125 28.203125 5.8125 
C 20 5.8125 13.796875 12.703125 13.796875 21.90625 
C 13.796875 30.828125 19.796875 37 28.5 37 
z
" id="Nimbus_Sans_L_Regular-54"/>
      </defs>
      <g style="fill:#262626;" transform="translate(156.722743 351.687816)scale(0.13 -0.13)">
       <use transform="scale(0.996264)" xlink:href="#CMSY10-0"/>
       <use transform="translate(77.487468 0)scale(0.996264)" xlink:href="#Nimbus_Sans_L_Regular-54"/>
      </g>
     </g>
    </g>
    <g id="xtick_4">
     <g id="line2d_8">
      <path clip-path="url(#p1439b7ce45)" d="M 218.927886 333.36 
L 218.927886 7.2 
" style="fill:none;stroke:#cccccc;stroke-linecap:round;stroke-width:1.3;"/>
     </g>
     <g id="line2d_9"/>
     <g id="text_4">
      <!-- $-4$ -->
      <defs>
       <path d="M 32.703125 17 
L 32.703125 0 
L 41.5 0 
L 41.5 17 
L 52 17 
L 52 24.90625 
L 41.5 24.90625 
L 41.5 71.015625 
L 35 71.015625 
L 2.796875 26.3125 
L 2.796875 17 
z
M 32.703125 24.90625 
L 10.5 24.90625 
L 32.703125 55.984375 
z
" id="Nimbus_Sans_L_Regular-52"/>
      </defs>
      <g style="fill:#262626;" transform="translate(210.290743 351.687816)scale(0.13 -0.13)">
       <use transform="scale(0.996264)" xlink:href="#CMSY10-0"/>
       <use transform="translate(77.487468 0)scale(0.996264)" xlink:href="#Nimbus_Sans_L_Regular-52"/>
      </g>
     </g>
    </g>
    <g id="xtick_5">
     <g id="line2d_10">
      <path clip-path="url(#p1439b7ce45)" d="M 272.495886 333.36 
L 272.495886 7.2 
" style="fill:none;stroke:#cccccc;stroke-linecap:round;stroke-width:1.3;"/>
     </g>
     <g id="line2d_11"/>
     <g id="text_5">
      <!-- $-2$ -->
      <defs>
       <path d="M 50.59375 8.71875 
L 13.296875 8.71875 
C 14.203125 14.53125 17.40625 18.234375 26.09375 23.34375 
L 36.09375 28.75 
C 46 34.15625 51.09375 41.453125 51.09375 50.171875 
C 51.09375 56.078125 48.703125 61.59375 44.5 65.390625 
C 40.296875 69.203125 35.09375 71 28.40625 71 
C 19.40625 71 12.703125 67.796875 8.796875 61.796875 
C 6.296875 57.984375 5.203125 53.578125 5 46.359375 
L 13.796875 46.359375 
C 14.09375 51.171875 14.703125 54.078125 15.90625 56.375 
C 18.203125 60.6875 22.796875 63.296875 28.09375 63.296875 
C 36.09375 63.296875 42.09375 57.578125 42.09375 49.96875 
C 42.09375 44.359375 38.796875 39.546875 32.5 35.953125 
L 23.296875 30.75 
C 8.5 22.34375 4.203125 15.625 3.40625 0 
L 50.59375 0 
z
" id="Nimbus_Sans_L_Regular-50"/>
      </defs>
      <g style="fill:#262626;" transform="translate(263.858743 351.687816)scale(0.13 -0.13)">
       <use transform="scale(0.996264)" xlink:href="#CMSY10-0"/>
       <use transform="translate(77.487468 0)scale(0.996264)" xlink:href="#Nimbus_Sans_L_Regular-50"/>
      </g>
     </g>
    </g>
    <g id="xtick_6">
     <g id="line2d_12">
      <path clip-path="url(#p1439b7ce45)" d="M 326.063886 333.36 
L 326.063886 7.2 
" style="fill:none;stroke:#cccccc;stroke-linecap:round;stroke-width:1.3;"/>
     </g>
     <g id="line2d_13"/>
     <g id="text_6">
      <!-- $0$ -->
      <g style="fill:#262626;" transform="translate(322.463428 351.687816)scale(0.13 -0.13)">
       <use transform="scale(0.996264)" xlink:href="#Nimbus_Sans_L_Regular-48"/>
      </g>
     </g>
    </g>
    <g id="xtick_7">
     <g id="line2d_14">
      <path clip-path="url(#p1439b7ce45)" d="M 379.631886 333.36 
L 379.631886 7.2 
" style="fill:none;stroke:#cccccc;stroke-linecap:round;stroke-width:1.3;"/>
     </g>
     <g id="line2d_15"/>
     <g id="text_7">
      <!-- $2$ -->
      <g style="fill:#262626;" transform="translate(376.031428 351.687816)scale(0.13 -0.13)">
       <use transform="scale(0.996264)" xlink:href="#Nimbus_Sans_L_Regular-50"/>
      </g>
     </g>
    </g>
    <g id="xtick_8">
     <g id="line2d_16">
      <path clip-path="url(#p1439b7ce45)" d="M 433.199886 333.36 
L 433.199886 7.2 
" style="fill:none;stroke:#cccccc;stroke-linecap:round;stroke-width:1.3;"/>
     </g>
     <g id="line2d_17"/>
     <g id="text_8">
      <!-- $4$ -->
      <g style="fill:#262626;" transform="translate(429.599428 351.687816)scale(0.13 -0.13)">
       <use transform="scale(0.996264)" xlink:href="#Nimbus_Sans_L_Regular-52"/>
      </g>
     </g>
    </g>
    <g id="text_9">
     <!-- GAFF v2.1 $\Delta$H (kcal/mol) -->
     <defs>
      <path d="M 70.90625 39 
L 40.5 39 
L 40.5 30.796875 
L 62.703125 30.796875 
L 62.703125 28.765625 
C 62.703125 15.671875 53.09375 6.203125 39.796875 6.203125 
C 32.40625 6.203125 25.703125 8.890625 21.40625 13.59375 
C 16.59375 18.765625 13.703125 27.4375 13.703125 36.40625 
C 13.703125 54.234375 23.90625 66 39.296875 66 
C 50.40625 66 58.40625 60.375 60.40625 51.125 
L 69.90625 51.125 
C 67.296875 65.796875 56.09375 74.21875 39.40625 74.21875 
C 30.5 74.21875 23.296875 71.921875 17.59375 67.234375 
C 9.203125 60.25 4.40625 48.984375 4.40625 35.90625 
C 4.40625 13.5625 18.09375 -2 37.796875 -2 
C 47.703125 -2 55.59375 1.703125 62.703125 9.625 
L 65 -0.109375 
L 70.90625 -0.109375 
z
" id="Nimbus_Sans_L_Regular-71"/>
      <path d="M 47.40625 22 
L 54.90625 0 
L 65.296875 0 
L 39.703125 73 
L 27.703125 73 
L 1.703125 0 
L 11.59375 0 
L 19.296875 22 
z
M 44.796875 29.8125 
L 21.59375 29.8125 
L 33.59375 63 
z
" id="Nimbus_Sans_L_Regular-65"/>
      <path d="M 18.296875 33 
L 53.09375 33 
L 53.09375 41.21875 
L 18.296875 41.21875 
L 18.296875 64.78125 
L 57.90625 64.78125 
L 57.90625 73 
L 9 73 
L 9 -0.21875 
L 18.296875 -0.21875 
z
" id="Nimbus_Sans_L_Regular-70"/>
      <path d="M 28.5 0 
L 48.59375 52.5 
L 39.203125 52.5 
L 24.40625 9.921875 
L 10.40625 52.5 
L 1 52.5 
L 19.40625 0 
z
" id="Nimbus_Sans_L_Regular-118"/>
      <path d="M 19.09375 10.421875 
L 8.703125 10.421875 
L 8.703125 0 
L 19.09375 0 
z
" id="Nimbus_Sans_L_Regular-46"/>
      <path d="M 36.296875 66.625 
L 3 4.40625 
L 3.203125 0.234375 
C 10.5 0.734375 17.90625 0.9375 25.296875 0.9375 
C 37.796875 0.9375 50.203125 0.328125 62.703125 -0.453125 
L 68.796875 2.71875 
L 68.90625 4.3125 
C 58.09375 25.078125 49.5 46.859375 42.09375 69.109375 
z
M 56.203125 5 
C 44.5 5 32.703125 5 20.90625 5 
C 17.40625 5 13.90625 5 10.40625 5 
L 10.09375 6.1875 
C 18.09375 23.03125 26.09375 38.65625 35.59375 55 
L 36.703125 55 
C 36.703125 54.90625 52.703125 15.21875 56.796875 5.890625 
z
" id="EURM10-1"/>
      <path d="M 55.09375 33 
L 55.09375 -0.03125 
L 64.40625 -0.03125 
L 64.40625 73 
L 55.09375 73 
L 55.09375 41.21875 
L 17.59375 41.21875 
L 17.59375 73 
L 8.296875 73 
L 8.296875 -0.03125 
L 17.703125 -0.03125 
L 17.703125 33 
z
" id="Nimbus_Sans_L_Regular-72"/>
      <path d="M 23.59375 73 
C 13.59375 59.84375 7.296875 41.5625 7.296875 25.796875 
C 7.296875 9.9375 13.59375 -8.34375 23.59375 -21.5 
L 29.09375 -21.5 
C 20.296875 -7.140625 15.40625 9.734375 15.40625 25.796875 
C 15.40625 41.765625 20.296875 58.734375 29.09375 73 
z
" id="Nimbus_Sans_L_Regular-40"/>
      <path d="M 14.09375 73 
L 5.796875 73 
L 5.796875 -0.03125 
L 14.09375 -0.03125 
L 14.09375 20.40625 
L 22.203125 28.421875 
L 39.90625 -0.03125 
L 50.203125 -0.03125 
L 28.796875 34.328125 
L 47 52.453125 
L 36.296875 52.453125 
L 14.09375 30.21875 
z
" id="Nimbus_Sans_L_Regular-107"/>
      <path d="M 47.09375 34.9375 
C 46.703125 40.03125 45.59375 43.328125 43.59375 46.21875 
C 40 51.109375 33.703125 54 26.40625 54 
C 12.296875 54 3.09375 42.84375 3.09375 25.5 
C 3.09375 8.65625 12.09375 -2 26.296875 -2 
C 38.796875 -2 46.703125 5.46875 47.703125 18.234375 
L 39.296875 18.234375 
C 37.90625 9.875 33.59375 5.703125 26.5 5.703125 
C 17.296875 5.703125 11.796875 13.171875 11.796875 25.5 
C 11.796875 38.53125 17.203125 46.28125 26.296875 46.28125 
C 33.296875 46.28125 37.703125 42.203125 38.703125 34.9375 
z
" id="Nimbus_Sans_L_Regular-99"/>
      <path d="M 53.5 5.203125 
C 52.59375 5 52.203125 5 51.703125 5 
C 48.796875 5 47.203125 6.484375 47.203125 9.078125 
L 47.203125 39.765625 
C 47.203125 49.015625 40.40625 54 27.5 54 
C 19.90625 54 13.59375 51.8125 10.09375 47.90625 
C 7.703125 45.203125 6.703125 42.21875 6.5 37.03125 
L 14.90625 37.03125 
C 15.59375 43.390625 19.40625 46.28125 27.203125 46.28125 
C 34.703125 46.28125 38.90625 43.484375 38.90625 38.515625 
L 38.90625 36.328125 
C 38.90625 32.828125 36.796875 31.34375 30.203125 30.546875 
C 18.40625 29.0625 16.59375 28.65625 13.40625 27.359375 
C 7.296875 24.875 4.203125 20.1875 4.203125 13.421875 
C 4.203125 3.96875 10.796875 -2 21.40625 -2 
C 28 -2 33.296875 0.296875 39.203125 5.703125 
C 39.796875 0.390625 42.40625 -2 47.796875 -2 
C 49.5 -2 50.796875 -1.8125 53.5 -1.09375 
z
M 38.90625 16.75 
C 38.90625 13.953125 38.09375 12.265625 35.59375 9.984375 
C 32.203125 6.890625 28.09375 5.3125 23.203125 5.3125 
C 16.703125 5.3125 12.90625 8.390625 12.90625 13.65625 
C 12.90625 19.140625 16.59375 21.921875 25.5 23.21875 
C 34.296875 24.40625 36.09375 24.8125 38.90625 26.09375 
z
" id="Nimbus_Sans_L_Regular-97"/>
      <path d="M 15.203125 73 
L 6.796875 73 
L 6.796875 -0.03125 
L 15.203125 -0.03125 
z
" id="Nimbus_Sans_L_Regular-108"/>
      <path d="M 22.90625 73 
L -0.796875 -2 
L 4.703125 -2 
L 28.40625 73 
z
" id="Nimbus_Sans_L_Regular-47"/>
      <path d="M 7 52.484375 
L 7 0 
L 15.40625 0 
L 15.40625 32.953125 
C 15.40625 40.578125 20.90625 46.6875 27.703125 46.6875 
C 33.90625 46.6875 37.40625 42.875 37.40625 36.15625 
L 37.40625 0 
L 45.796875 0 
L 45.796875 32.953125 
C 45.796875 40.578125 51.296875 46.6875 58.09375 46.6875 
C 64.203125 46.6875 67.796875 42.78125 67.796875 36.15625 
L 67.796875 0 
L 76.203125 0 
L 76.203125 39.375 
C 76.203125 48.78125 70.796875 54 61 54 
C 54 54 49.796875 51.890625 44.90625 45.984375 
C 41.796875 51.59375 37.59375 54 30.796875 54 
C 23.796875 54 19.203125 51.390625 14.703125 45.078125 
L 14.703125 52.484375 
z
" id="Nimbus_Sans_L_Regular-109"/>
      <path d="M 27.203125 54 
C 12.5 54 3.59375 43.53125 3.59375 25.984375 
C 3.59375 8.453125 12.40625 -2 27.296875 -2 
C 42 -2 51 8.453125 51 25.59375 
C 51 43.625 42.296875 54 27.203125 54 
z
M 27.296875 46.28125 
C 36.703125 46.28125 42.296875 38.625 42.296875 25.703125 
C 42.296875 13.453125 36.5 5.703125 27.296875 5.703125 
C 18 5.703125 12.296875 13.359375 12.296875 25.984375 
C 12.296875 38.53125 18 46.28125 27.296875 46.28125 
z
" id="Nimbus_Sans_L_Regular-111"/>
      <path d="M 9.296875 -21.5 
C 19.296875 -8.34375 25.59375 9.9375 25.59375 25.6875 
C 25.59375 41.5625 19.296875 59.84375 9.296875 73 
L 3.796875 73 
C 12.59375 58.640625 17.5 41.765625 17.5 25.6875 
C 17.5 9.734375 12.59375 -7.25 3.796875 -21.5 
z
" id="Nimbus_Sans_L_Regular-41"/>
     </defs>
     <g style="fill:#262626;" transform="translate(179.613964 368.860632)scale(0.143 -0.143)">
      <use transform="scale(0.996264)" xlink:href="#Nimbus_Sans_L_Regular-71"/>
      <use transform="translate(77.50837 0)scale(0.996264)" xlink:href="#Nimbus_Sans_L_Regular-65"/>
      <use transform="translate(143.958401 0)scale(0.996264)" xlink:href="#Nimbus_Sans_L_Regular-70"/>
      <use transform="translate(204.830032 0)scale(0.996264)" xlink:href="#Nimbus_Sans_L_Regular-70"/>
      <use transform="translate(293.396832 0)scale(0.996264)" xlink:href="#Nimbus_Sans_L_Regular-118"/>
      <use transform="translate(343.210033 0)scale(0.996264)" xlink:href="#Nimbus_Sans_L_Regular-50"/>
      <use transform="translate(398.60171 0)scale(0.996264)" xlink:href="#Nimbus_Sans_L_Regular-46"/>
      <use transform="translate(426.296879 0)scale(0.996264)" xlink:href="#Nimbus_Sans_L_Regular-49"/>
      <use transform="translate(509.383726 0)scale(0.996264)" xlink:href="#EURM10-1"/>
      <use transform="translate(580.445491 0)scale(0.996264)" xlink:href="#Nimbus_Sans_L_Regular-72"/>
      <use transform="translate(680.070646 0)scale(0.996264)" xlink:href="#Nimbus_Sans_L_Regular-40"/>
      <use transform="translate(713.245875 0)scale(0.996264)" xlink:href="#Nimbus_Sans_L_Regular-107"/>
      <use transform="translate(763.059076 0)scale(0.996264)" xlink:href="#Nimbus_Sans_L_Regular-99"/>
      <use transform="translate(812.872276 0)scale(0.996264)" xlink:href="#Nimbus_Sans_L_Regular-97"/>
      <use transform="translate(868.263953 0)scale(0.996264)" xlink:href="#Nimbus_Sans_L_Regular-108"/>
      <use transform="translate(890.380738 0)scale(0.996264)" xlink:href="#Nimbus_Sans_L_Regular-47"/>
      <use transform="translate(918.075907 0)scale(0.996264)" xlink:href="#Nimbus_Sans_L_Regular-109"/>
      <use transform="translate(1001.064338 0)scale(0.996264)" xlink:href="#Nimbus_Sans_L_Regular-111"/>
      <use transform="translate(1056.456015 0)scale(0.996264)" xlink:href="#Nimbus_Sans_L_Regular-108"/>
      <use transform="translate(1078.572799 0)scale(0.996264)" xlink:href="#Nimbus_Sans_L_Regular-41"/>
     </g>
    </g>
   </g>
   <g id="matplotlib.axis_2">
    <g id="ytick_1">
     <g id="line2d_18">
      <path clip-path="url(#p1439b7ce45)" d="M 58.223886 333.36 
L 459.983886 333.36 
" style="fill:none;stroke:#cccccc;stroke-linecap:round;stroke-width:1.3;"/>
     </g>
     <g id="line2d_19"/>
     <g id="text_10">
      <!-- $-10$ -->
      <g style="fill:#262626;" transform="translate(24.648682 337.973908)scale(0.13 -0.13)">
       <use transform="scale(0.996264)" xlink:href="#CMSY10-0"/>
       <use transform="translate(77.487468 0)scale(0.996264)" xlink:href="#Nimbus_Sans_L_Regular-49"/>
       <use transform="translate(132.879145 0)scale(0.996264)" xlink:href="#Nimbus_Sans_L_Regular-48"/>
      </g>
     </g>
    </g>
    <g id="ytick_2">
     <g id="line2d_20">
      <path clip-path="url(#p1439b7ce45)" d="M 58.223886 289.872 
L 459.983886 289.872 
" style="fill:none;stroke:#cccccc;stroke-linecap:round;stroke-width:1.3;"/>
     </g>
     <g id="line2d_21"/>
     <g id="text_11">
      <!-- $-8$ -->
      <g style="fill:#262626;" transform="translate(31.8496 294.485908)scale(0.13 -0.13)">
       <use transform="scale(0.996264)" xlink:href="#CMSY10-0"/>
       <use transform="translate(77.487468 0)scale(0.996264)" xlink:href="#Nimbus_Sans_L_Regular-56"/>
      </g>
     </g>
    </g>
    <g id="ytick_3">
     <g id="line2d_22">
      <path clip-path="url(#p1439b7ce45)" d="M 58.223886 246.384 
L 459.983886 246.384 
" style="fill:none;stroke:#cccccc;stroke-linecap:round;stroke-width:1.3;"/>
     </g>
     <g id="line2d_23"/>
     <g id="text_12">
      <!-- $-6$ -->
      <g style="fill:#262626;" transform="translate(31.8496 250.997908)scale(0.13 -0.13)">
       <use transform="scale(0.996264)" xlink:href="#CMSY10-0"/>
       <use transform="translate(77.487468 0)scale(0.996264)" xlink:href="#Nimbus_Sans_L_Regular-54"/>
      </g>
     </g>
    </g>
    <g id="ytick_4">
     <g id="line2d_24">
      <path clip-path="url(#p1439b7ce45)" d="M 58.223886 202.896 
L 459.983886 202.896 
" style="fill:none;stroke:#cccccc;stroke-linecap:round;stroke-width:1.3;"/>
     </g>
     <g id="line2d_25"/>
     <g id="text_13">
      <!-- $-4$ -->
      <g style="fill:#262626;" transform="translate(31.8496 207.509908)scale(0.13 -0.13)">
       <use transform="scale(0.996264)" xlink:href="#CMSY10-0"/>
       <use transform="translate(77.487468 0)scale(0.996264)" xlink:href="#Nimbus_Sans_L_Regular-52"/>
      </g>
     </g>
    </g>
    <g id="ytick_5">
     <g id="line2d_26">
      <path clip-path="url(#p1439b7ce45)" d="M 58.223886 159.408 
L 459.983886 159.408 
" style="fill:none;stroke:#cccccc;stroke-linecap:round;stroke-width:1.3;"/>
     </g>
     <g id="line2d_27"/>
     <g id="text_14">
      <!-- $-2$ -->
      <g style="fill:#262626;" transform="translate(31.8496 164.021908)scale(0.13 -0.13)">
       <use transform="scale(0.996264)" xlink:href="#CMSY10-0"/>
       <use transform="translate(77.487468 0)scale(0.996264)" xlink:href="#Nimbus_Sans_L_Regular-50"/>
      </g>
     </g>
    </g>
    <g id="ytick_6">
     <g id="line2d_28">
      <path clip-path="url(#p1439b7ce45)" d="M 58.223886 115.92 
L 459.983886 115.92 
" style="fill:none;stroke:#cccccc;stroke-linecap:round;stroke-width:1.3;"/>
     </g>
     <g id="line2d_29"/>
     <g id="text_15">
      <!-- $0$ -->
      <g style="fill:#262626;" transform="translate(41.922969 120.533908)scale(0.13 -0.13)">
       <use transform="scale(0.996264)" xlink:href="#Nimbus_Sans_L_Regular-48"/>
      </g>
     </g>
    </g>
    <g id="ytick_7">
     <g id="line2d_30">
      <path clip-path="url(#p1439b7ce45)" d="M 58.223886 72.432 
L 459.983886 72.432 
" style="fill:none;stroke:#cccccc;stroke-linecap:round;stroke-width:1.3;"/>
     </g>
     <g id="line2d_31"/>
     <g id="text_16">
      <!-- $2$ -->
      <g style="fill:#262626;" transform="translate(41.922969 77.045908)scale(0.13 -0.13)">
       <use transform="scale(0.996264)" xlink:href="#Nimbus_Sans_L_Regular-50"/>
      </g>
     </g>
    </g>
    <g id="ytick_8">
     <g id="line2d_32">
      <path clip-path="url(#p1439b7ce45)" d="M 58.223886 28.944 
L 459.983886 28.944 
" style="fill:none;stroke:#cccccc;stroke-linecap:round;stroke-width:1.3;"/>
     </g>
     <g id="line2d_33"/>
     <g id="text_17">
      <!-- $4$ -->
      <g style="fill:#262626;" transform="translate(41.922969 33.557908)scale(0.13 -0.13)">
       <use transform="scale(0.996264)" xlink:href="#Nimbus_Sans_L_Regular-52"/>
      </g>
     </g>
    </g>
    <g id="text_18">
     <!-- SMIRNOFF99Frosst $\Delta$H (kcal/mol) -->
     <defs>
      <path d="M 59.59375 52.109375 
C 59.5 66.484375 49.703125 74.8125 32.90625 74.8125 
C 16.90625 74.8125 7 66.5625 7 53.28125 
C 7 44.328125 11.703125 38.703125 21.296875 36.1875 
L 39.40625 31.359375 
C 48.59375 28.9375 52.796875 25.21875 52.796875 19.484375 
C 52.796875 15.546875 50.703125 11.53125 47.59375 9.328125 
C 44.703125 7.3125 40.09375 6.203125 34.203125 6.203125 
C 26.296875 6.203125 20.90625 8.125 17.40625 12.34375 
C 14.703125 15.5625 13.5 19.09375 13.59375 23.609375 
L 4.796875 23.609375 
C 4.90625 16.890625 6.203125 12.46875 9.09375 8.4375 
C 14.09375 1.609375 22.5 -2 33.59375 -2 
C 42.296875 -2 49.40625 0.015625 54.09375 3.625 
C 59 7.546875 62.09375 14.078125 62.09375 20.421875 
C 62.09375 29.46875 56.5 36.109375 46.59375 38.828125 
L 28.296875 43.765625 
C 19.5 46.171875 16.296875 48.984375 16.296875 54.625 
C 16.296875 62.0625 22.796875 67 32.59375 67 
C 44.203125 67 50.703125 61.671875 50.796875 52.109375 
z
" id="Nimbus_Sans_L_Regular-83"/>
      <path d="M 46.796875 -0.03125 
L 67.296875 61.171875 
L 67.296875 -0.03125 
L 76.09375 -0.03125 
L 76.09375 73 
L 63.203125 73 
L 42 9.390625 
L 20.40625 73 
L 7.5 73 
L 7.5 -0.03125 
L 16.296875 -0.03125 
L 16.296875 61.171875 
L 37 -0.03125 
z
" id="Nimbus_Sans_L_Regular-77"/>
      <path d="M 19.40625 73 
L 10 73 
L 10 -0.03125 
L 19.40625 -0.03125 
z
" id="Nimbus_Sans_L_Regular-73"/>
      <path d="M 18.59375 31.78125 
L 42.59375 31.78125 
C 50.90625 31.78125 54.59375 27.71875 54.59375 18.546875 
L 54.5 11.90625 
C 54.5 7.3125 55.296875 2.828125 56.59375 -0.21875 
L 67.90625 -0.21875 
L 67.90625 2.125 
C 64.40625 4.5625 63.703125 7.21875 63.5 17.078125 
C 63.40625 29.265625 61.5 32.9375 53.59375 36.390625 
C 61.796875 40.359375 65.09375 45.40625 65.09375 53.65625 
C 65.09375 66.140625 57.203125 73 42.90625 73 
L 9.296875 73 
L 9.296875 -0.21875 
L 18.59375 -0.21875 
z
M 18.59375 40 
L 18.59375 64.78125 
L 41.09375 64.78125 
C 46.296875 64.78125 49.296875 64 51.59375 62.015625 
C 54.09375 59.9375 55.40625 56.6875 55.40625 52.34375 
C 55.40625 43.84375 51 40 41.09375 40 
z
" id="Nimbus_Sans_L_Regular-82"/>
      <path d="M 64.59375 73 
L 55.796875 73 
L 55.796875 13.296875 
L 17.703125 73 
L 7.59375 73 
L 7.59375 -0.03125 
L 16.40625 -0.03125 
L 16.40625 59.171875 
L 54.09375 -0.03125 
L 64.59375 -0.03125 
z
" id="Nimbus_Sans_L_Regular-78"/>
      <path d="M 38.90625 74.21875 
C 18 74.21875 3.796875 58.84375 3.796875 36.109375 
C 3.796875 13.359375 18 -2 39 -2 
C 47.796875 -2 55.703125 0.6875 61.59375 5.671875 
C 69.5 12.359375 74.203125 23.625 74.203125 35.5 
C 74.203125 58.953125 60.296875 74.21875 38.90625 74.21875 
z
M 38.90625 66 
C 54.703125 66 64.90625 54.046875 64.90625 35.703125 
C 64.90625 18.171875 54.40625 6.203125 39 6.203125 
C 23.5 6.203125 13.09375 18.171875 13.09375 36.109375 
C 13.09375 54.046875 23.5 66 38.90625 66 
z
" id="Nimbus_Sans_L_Regular-79"/>
      <path d="M 5.296875 16.625 
C 7 4.9375 14.59375 -2 25.40625 -2 
C 33.203125 -2 40.296875 1.78125 44.40625 8.0625 
C 48.90625 14.9375 50.90625 23.625 50.90625 36.484375 
C 50.90625 48.359375 49.09375 55.9375 44.90625 62.21875 
C 41 67.921875 34.796875 71 27 71 
C 13.5 71 3.796875 61.078125 3.796875 47.296875 
C 3.796875 34.21875 12.796875 25 25.59375 25 
C 32.296875 25 37.203125 27.40625 41.796875 32.90625 
C 41.703125 15.484375 36.09375 5.8125 26 5.8125 
C 19.796875 5.8125 15.5 9.75 14.09375 16.625 
z
M 26.90625 63.296875 
C 35.09375 63.296875 41.296875 56.59375 41.296875 47.515625 
C 41.296875 38.921875 35.203125 32.8125 26.59375 32.8125 
C 18.09375 32.8125 12.796875 38.625 12.796875 48 
C 12.796875 56.875 18.796875 63.296875 26.90625 63.296875 
z
" id="Nimbus_Sans_L_Regular-57"/>
      <path d="M 6.90625 52.484375 
L 6.90625 0 
L 15.296875 0 
L 15.296875 27.203125 
C 15.296875 34.703125 17.203125 39.609375 21.203125 42.5 
C 23.796875 44.40625 26.296875 45 32.09375 45 
L 32.09375 53.625 
C 30.703125 53.8125 30 53.8125 28.90625 53.8125 
C 23.5 53.8125 19.40625 50.625 14.59375 42.90625 
L 14.59375 52.484375 
z
" id="Nimbus_Sans_L_Regular-114"/>
      <path d="M 43.796875 37.921875 
C 43.703125 48.203125 36.90625 54 24.796875 54 
C 12.59375 54 4.703125 47.71875 4.703125 38.0625 
C 4.703125 29.890625 8.90625 26.015625 21.296875 23.03125 
L 29.09375 21.140625 
C 34.90625 19.734375 37.203125 17.65625 37.203125 13.875 
C 37.203125 9 32.296875 5.703125 25 5.703125 
C 20.5 5.703125 16.703125 7 14.59375 9.1875 
C 13.296875 10.6875 12.703125 12.171875 12.203125 15.84375 
L 3.40625 15.84375 
C 3.796875 3.765625 10.59375 -2 24.296875 -2 
C 37.5 -2 45.90625 4.453125 45.90625 14.515625 
C 45.90625 22.28125 41.5 26.578125 31.09375 29.0625 
L 23.09375 30.953125 
C 16.296875 32.53125 13.40625 34.734375 13.40625 38.40625 
C 13.40625 43.1875 17.703125 46.28125 24.5 46.28125 
C 31.203125 46.28125 34.796875 43.390625 35 37.921875 
z
" id="Nimbus_Sans_L_Regular-115"/>
      <path d="M 25.40625 52.8125 
L 16.796875 52.8125 
L 16.796875 67 
L 8.5 67 
L 8.5 52.8125 
L 1.40625 52.8125 
L 1.40625 46 
L 8.5 46 
L 8.5 6.3125 
C 8.5 1 12.09375 -2 18.59375 -2 
C 20.59375 -2 22.59375 -1.8125 25.40625 -1.296875 
L 25.40625 5.71875 
C 24.296875 5.40625 23 5.3125 21.40625 5.3125 
C 17.796875 5.3125 16.796875 6.3125 16.796875 10.015625 
L 16.796875 46 
L 25.40625 46 
z
" id="Nimbus_Sans_L_Regular-116"/>
     </defs>
     <g style="fill:#262626;" transform="translate(17.614239 279.915543)rotate(-90)scale(0.143 -0.143)">
      <use transform="scale(0.996264)" xlink:href="#Nimbus_Sans_L_Regular-83"/>
      <use transform="translate(66.450031 0)scale(0.996264)" xlink:href="#Nimbus_Sans_L_Regular-77"/>
      <use transform="translate(149.438461 0)scale(0.996264)" xlink:href="#Nimbus_Sans_L_Regular-73"/>
      <use transform="translate(177.133631 0)scale(0.996264)" xlink:href="#Nimbus_Sans_L_Regular-82"/>
      <use transform="translate(249.063616 0)scale(0.996264)" xlink:href="#Nimbus_Sans_L_Regular-78"/>
      <use transform="translate(320.993601 0)scale(0.996264)" xlink:href="#Nimbus_Sans_L_Regular-79"/>
      <use transform="translate(398.501971 0)scale(0.996264)" xlink:href="#Nimbus_Sans_L_Regular-70"/>
      <use transform="translate(459.373601 0)scale(0.996264)" xlink:href="#Nimbus_Sans_L_Regular-70"/>
      <use transform="translate(520.245232 0)scale(0.996264)" xlink:href="#Nimbus_Sans_L_Regular-57"/>
      <use transform="translate(575.636909 0)scale(0.996264)" xlink:href="#Nimbus_Sans_L_Regular-57"/>
      <use transform="translate(631.028586 0)scale(0.996264)" xlink:href="#Nimbus_Sans_L_Regular-70"/>
      <use transform="translate(687.417485 0)scale(0.996264)" xlink:href="#Nimbus_Sans_L_Regular-114"/>
      <use transform="translate(720.592714 0)scale(0.996264)" xlink:href="#Nimbus_Sans_L_Regular-111"/>
      <use transform="translate(775.984391 0)scale(0.996264)" xlink:href="#Nimbus_Sans_L_Regular-115"/>
      <use transform="translate(825.797592 0)scale(0.996264)" xlink:href="#Nimbus_Sans_L_Regular-115"/>
      <use transform="translate(875.610792 0)scale(0.996264)" xlink:href="#Nimbus_Sans_L_Regular-116"/>
      <use transform="translate(931.001132 0)scale(0.996264)" xlink:href="#EURM10-1"/>
      <use transform="translate(1002.062897 0)scale(0.996264)" xlink:href="#Nimbus_Sans_L_Regular-72"/>
      <use transform="translate(1101.688052 0)scale(0.996264)" xlink:href="#Nimbus_Sans_L_Regular-40"/>
      <use transform="translate(1134.863281 0)scale(0.996264)" xlink:href="#Nimbus_Sans_L_Regular-107"/>
      <use transform="translate(1184.676482 0)scale(0.996264)" xlink:href="#Nimbus_Sans_L_Regular-99"/>
      <use transform="translate(1234.489682 0)scale(0.996264)" xlink:href="#Nimbus_Sans_L_Regular-97"/>
      <use transform="translate(1289.881359 0)scale(0.996264)" xlink:href="#Nimbus_Sans_L_Regular-108"/>
      <use transform="translate(1311.998144 0)scale(0.996264)" xlink:href="#Nimbus_Sans_L_Regular-47"/>
      <use transform="translate(1339.693313 0)scale(0.996264)" xlink:href="#Nimbus_Sans_L_Regular-109"/>
      <use transform="translate(1422.681743 0)scale(0.996264)" xlink:href="#Nimbus_Sans_L_Regular-111"/>
      <use transform="translate(1478.07342 0)scale(0.996264)" xlink:href="#Nimbus_Sans_L_Regular-108"/>
      <use transform="translate(1500.190205 0)scale(0.996264)" xlink:href="#Nimbus_Sans_L_Regular-41"/>
     </g>
    </g>
   </g>
   <g id="LineCollection_1">
    <path clip-path="url(#p1439b7ce45)" d="M 240.914023 124.960997 
L 257.207209 124.960997 
" style="fill:none;stroke:#808080;"/>
    <path clip-path="url(#p1439b7ce45)" d="M 234.003617 141.715561 
L 254.642987 141.715561 
" style="fill:none;stroke:#808080;"/>
    <path clip-path="url(#p1439b7ce45)" d="M 132.298409 218.083156 
L 148.824076 218.083156 
" style="fill:none;stroke:#808080;"/>
    <path clip-path="url(#p1439b7ce45)" d="M 138.806034 196.582473 
L 154.694111 196.582473 
" style="fill:none;stroke:#808080;"/>
    <path clip-path="url(#p1439b7ce45)" d="M 121.234469 232.048174 
L 137.007912 232.048174 
" style="fill:none;stroke:#808080;"/>
    <path clip-path="url(#p1439b7ce45)" d="M 114.950615 208.657988 
L 132.057761 208.657988 
" style="fill:none;stroke:#808080;"/>
    <path clip-path="url(#p1439b7ce45)" d="M 286.523895 116.348861 
L 304.250876 116.348861 
" style="fill:none;stroke:#808080;"/>
    <path clip-path="url(#p1439b7ce45)" d="M 232.926016 137.474638 
L 252.143494 137.474638 
" style="fill:none;stroke:#808080;"/>
    <path clip-path="url(#p1439b7ce45)" d="M 101.194938 224.269038 
L 120.612454 224.269038 
" style="fill:none;stroke:#808080;"/>
    <path clip-path="url(#p1439b7ce45)" d="M 138.116325 209.193853 
L 156.375245 209.193853 
" style="fill:none;stroke:#808080;"/>
    <path clip-path="url(#p1439b7ce45)" d="M 145.60856 185.837134 
L 165.280481 185.837134 
" style="fill:none;stroke:#808080;"/>
    <path clip-path="url(#p1439b7ce45)" d="M 99.482083 221.761554 
L 116.69001 221.761554 
" style="fill:none;stroke:#808080;"/>
    <path clip-path="url(#p1439b7ce45)" d="M 97.981575 197.046456 
L 122.779505 197.046456 
" style="fill:none;stroke:#808080;"/>
    <path clip-path="url(#p1439b7ce45)" d="M 214.998677 136.52501 
L 234.63644 136.52501 
" style="fill:none;stroke:#808080;"/>
    <path clip-path="url(#p1439b7ce45)" d="M 229.616451 152.360731 
L 245.183695 152.360731 
" style="fill:none;stroke:#808080;"/>
    <path clip-path="url(#p1439b7ce45)" d="M 146.122611 238.804906 
L 162.56865 238.804906 
" style="fill:none;stroke:#808080;"/>
    <path clip-path="url(#p1439b7ce45)" d="M 70.761486 220.24607 
L 89.18547 220.24607 
" style="fill:none;stroke:#808080;"/>
    <path clip-path="url(#p1439b7ce45)" d="M 109.772622 235.786264 
L 125.948592 235.786264 
" style="fill:none;stroke:#808080;"/>
    <path clip-path="url(#p1439b7ce45)" d="M 183.847245 151.274685 
L 201.370158 151.274685 
" style="fill:none;stroke:#808080;"/>
    <path clip-path="url(#p1439b7ce45)" d="M 198.461851 191.227728 
L 216.793522 191.227728 
" style="fill:none;stroke:#808080;"/>
    <path clip-path="url(#p1439b7ce45)" d="M 325.988107 76.985476 
L 346.60007 76.985476 
" style="fill:none;stroke:#808080;"/>
    <path clip-path="url(#p1439b7ce45)" d="M 333.015183 89.722523 
L 352.672679 89.722523 
" style="fill:none;stroke:#808080;"/>
    <path clip-path="url(#p1439b7ce45)" d="M 326.063887 108.247548 
L 342.39342 108.247548 
" style="fill:none;stroke:#808080;"/>
    <path clip-path="url(#p1439b7ce45)" d="M 314.584208 95.026486 
L 332.649604 95.026486 
" style="fill:none;stroke:#808080;"/>
    <path clip-path="url(#p1439b7ce45)" d="M 301.218693 91.990122 
L 322.081579 91.990122 
" style="fill:none;stroke:#808080;"/>
    <path clip-path="url(#p1439b7ce45)" d="M 305.651857 99.861525 
L 324.935844 99.861525 
" style="fill:none;stroke:#808080;"/>
   </g>
   <g id="LineCollection_2">
    <path clip-path="url(#p1439b7ce45)" d="M 249.060616 131.144138 
L 249.060616 118.777856 
" style="fill:none;stroke:#808080;"/>
    <path clip-path="url(#p1439b7ce45)" d="M 244.323302 149.251264 
L 244.323302 134.179858 
" style="fill:none;stroke:#808080;"/>
    <path clip-path="url(#p1439b7ce45)" d="M 140.561242 225.533284 
L 140.561242 210.633029 
" style="fill:none;stroke:#808080;"/>
    <path clip-path="url(#p1439b7ce45)" d="M 146.750073 202.906454 
L 146.750073 190.258492 
" style="fill:none;stroke:#808080;"/>
    <path clip-path="url(#p1439b7ce45)" d="M 129.12119 246.505112 
L 129.12119 217.591237 
" style="fill:none;stroke:#808080;"/>
    <path clip-path="url(#p1439b7ce45)" d="M 123.504188 214.184419 
L 123.504188 203.131556 
" style="fill:none;stroke:#808080;"/>
    <path clip-path="url(#p1439b7ce45)" d="M 295.387386 126.478131 
L 295.387386 106.219591 
" style="fill:none;stroke:#808080;"/>
    <path clip-path="url(#p1439b7ce45)" d="M 242.534755 146.683404 
L 242.534755 128.265871 
" style="fill:none;stroke:#808080;"/>
    <path clip-path="url(#p1439b7ce45)" d="M 110.903696 232.808562 
L 110.903696 215.729513 
" style="fill:none;stroke:#808080;"/>
    <path clip-path="url(#p1439b7ce45)" d="M 147.245785 214.7761 
L 147.245785 203.611607 
" style="fill:none;stroke:#808080;"/>
    <path clip-path="url(#p1439b7ce45)" d="M 155.444521 197.706592 
L 155.444521 173.967676 
" style="fill:none;stroke:#808080;"/>
    <path clip-path="url(#p1439b7ce45)" d="M 108.086047 227.447386 
L 108.086047 216.075722 
" style="fill:none;stroke:#808080;"/>
    <path clip-path="url(#p1439b7ce45)" d="M 110.38054 202.735652 
L 110.38054 191.357261 
" style="fill:none;stroke:#808080;"/>
    <path clip-path="url(#p1439b7ce45)" d="M 224.817558 142.954301 
L 224.817558 130.095718 
" style="fill:none;stroke:#808080;"/>
    <path clip-path="url(#p1439b7ce45)" d="M 237.400073 158.132194 
L 237.400073 146.589269 
" style="fill:none;stroke:#808080;"/>
    <path clip-path="url(#p1439b7ce45)" d="M 154.345631 245.982084 
L 154.345631 231.627728 
" style="fill:none;stroke:#808080;"/>
    <path clip-path="url(#p1439b7ce45)" d="M 79.973478 226.487882 
L 79.973478 214.004258 
" style="fill:none;stroke:#808080;"/>
    <path clip-path="url(#p1439b7ce45)" d="M 117.860607 244.838968 
L 117.860607 226.73356 
" style="fill:none;stroke:#808080;"/>
    <path clip-path="url(#p1439b7ce45)" d="M 192.608702 164.643246 
L 192.608702 137.906124 
" style="fill:none;stroke:#808080;"/>
    <path clip-path="url(#p1439b7ce45)" d="M 207.627686 196.948297 
L 207.627686 185.507158 
" style="fill:none;stroke:#808080;"/>
    <path clip-path="url(#p1439b7ce45)" d="M 336.294088 94.836979 
L 336.294088 59.133974 
" style="fill:none;stroke:#808080;"/>
    <path clip-path="url(#p1439b7ce45)" d="M 342.843931 105.739184 
L 342.843931 73.705862 
" style="fill:none;stroke:#808080;"/>
    <path clip-path="url(#p1439b7ce45)" d="M 334.228653 122.77531 
L 334.228653 93.719786 
" style="fill:none;stroke:#808080;"/>
    <path clip-path="url(#p1439b7ce45)" d="M 323.616906 112.387434 
L 323.616906 77.665537 
" style="fill:none;stroke:#808080;"/>
    <path clip-path="url(#p1439b7ce45)" d="M 311.650136 100.865517 
L 311.650136 83.114727 
" style="fill:none;stroke:#808080;"/>
    <path clip-path="url(#p1439b7ce45)" d="M 315.293851 117.829525 
L 315.293851 81.893525 
" style="fill:none;stroke:#808080;"/>
   </g>
   <g id="LineCollection_3">
    <path clip-path="url(#p1439b7ce45)" d="M 193.023147 156.33148 
L 213.717986 156.33148 
" style="fill:none;stroke:#808080;"/>
    <path clip-path="url(#p1439b7ce45)" d="M 182.184283 130.538608 
L 205.78013 130.538608 
" style="fill:none;stroke:#808080;"/>
    <path clip-path="url(#p1439b7ce45)" d="M 78.931605 218.240879 
L 96.250382 218.240879 
" style="fill:none;stroke:#808080;"/>
    <path clip-path="url(#p1439b7ce45)" d="M 88.963434 218.589226 
L 105.322996 218.589226 
" style="fill:none;stroke:#808080;"/>
    <path clip-path="url(#p1439b7ce45)" d="M 74.143818 226.499385 
L 90.000515 226.499385 
" style="fill:none;stroke:#808080;"/>
    <path clip-path="url(#p1439b7ce45)" d="M 87.193826 232.506028 
L 110.31608 232.506028 
" style="fill:none;stroke:#808080;"/>
    <path clip-path="url(#p1439b7ce45)" d="M 122.855916 202.516399 
L 140.789322 202.516399 
" style="fill:none;stroke:#808080;"/>
    <path clip-path="url(#p1439b7ce45)" d="M 106.465888 219.129773 
L 126.256557 219.129773 
" style="fill:none;stroke:#808080;"/>
    <path clip-path="url(#p1439b7ce45)" d="M 116.577511 224.522602 
L 135.662714 224.522602 
" style="fill:none;stroke:#808080;"/>
    <path clip-path="url(#p1439b7ce45)" d="M 153.028297 187.494873 
L 170.860473 187.494873 
" style="fill:none;stroke:#808080;"/>
    <path clip-path="url(#p1439b7ce45)" d="M 172.195993 163.027797 
L 189.307304 163.027797 
" style="fill:none;stroke:#808080;"/>
    <path clip-path="url(#p1439b7ce45)" d="M 156.860821 183.619393 
L 175.062767 183.619393 
" style="fill:none;stroke:#808080;"/>
    <path clip-path="url(#p1439b7ce45)" d="M 75.193032 240.097258 
L 95.868203 240.097258 
" style="fill:none;stroke:#808080;"/>
    <path clip-path="url(#p1439b7ce45)" d="M 55.949521 249.974512 
L 75.392253 249.974512 
" style="fill:none;stroke:#808080;"/>
    <path clip-path="url(#p1439b7ce45)" d="M 117.228613 178.323948 
L 144.537571 178.323948 
" style="fill:none;stroke:#808080;"/>
    <path clip-path="url(#p1439b7ce45)" d="M 169.036219 151.995167 
L 184.28539 151.995167 
" style="fill:none;stroke:#808080;"/>
    <path clip-path="url(#p1439b7ce45)" d="M 285.345667 135.306376 
L 301.943503 135.306376 
" style="fill:none;stroke:#808080;"/>
    <path clip-path="url(#p1439b7ce45)" d="M 273.650924 100.874852 
L 292.391547 100.874852 
" style="fill:none;stroke:#808080;"/>
    <path clip-path="url(#p1439b7ce45)" d="M 293.662345 117.924745 
L 313.279279 117.924745 
" style="fill:none;stroke:#808080;"/>
    <path clip-path="url(#p1439b7ce45)" d="M 289.533248 112.015331 
L 307.544676 112.015331 
" style="fill:none;stroke:#808080;"/>
    <path clip-path="url(#p1439b7ce45)" d="M 303.743966 139.838661 
L 322.724938 139.838661 
" style="fill:none;stroke:#808080;"/>
    <path clip-path="url(#p1439b7ce45)" d="M 319.176096 101.048851 
L 338.528566 101.048851 
" style="fill:none;stroke:#808080;"/>
    <path clip-path="url(#p1439b7ce45)" d="M 252.705024 170.868623 
L 271.165494 170.868623 
" style="fill:none;stroke:#808080;"/>
    <path clip-path="url(#p1439b7ce45)" d="M 232.316092 142.295109 
L 251.337683 142.295109 
" style="fill:none;stroke:#808080;"/>
    <path clip-path="url(#p1439b7ce45)" d="M 235.988854 176.733041 
L 253.699699 176.733041 
" style="fill:none;stroke:#808080;"/>
    <path clip-path="url(#p1439b7ce45)" d="M 241.607584 180.92745 
L 264.490181 180.92745 
" style="fill:none;stroke:#808080;"/>
    <path clip-path="url(#p1439b7ce45)" d="M 245.225947 130.265942 
L 264.425109 130.265942 
" style="fill:none;stroke:#808080;"/>
    <path clip-path="url(#p1439b7ce45)" d="M 250.432199 182.143975 
L 269.169197 182.143975 
" style="fill:none;stroke:#808080;"/>
    <path clip-path="url(#p1439b7ce45)" d="M 262.481039 151.588461 
L 281.282943 151.588461 
" style="fill:none;stroke:#808080;"/>
    <path clip-path="url(#p1439b7ce45)" d="M 246.388707 160.638896 
L 268.483866 160.638896 
" style="fill:none;stroke:#808080;"/>
    <path clip-path="url(#p1439b7ce45)" d="M 255.338445 153.675983 
L 272.957436 153.675983 
" style="fill:none;stroke:#808080;"/>
    <path clip-path="url(#p1439b7ce45)" d="M 265.780241 137.421211 
L 291.503523 137.421211 
" style="fill:none;stroke:#808080;"/>
    <path clip-path="url(#p1439b7ce45)" d="M 217.845616 115.172187 
L 236.236787 115.172187 
" style="fill:none;stroke:#808080;"/>
    <path clip-path="url(#p1439b7ce45)" d="M 221.29515 138.78681 
L 241.747033 138.78681 
" style="fill:none;stroke:#808080;"/>
    <path clip-path="url(#p1439b7ce45)" d="M 216.954522 120.804196 
L 236.015456 120.804196 
" style="fill:none;stroke:#808080;"/>
    <path clip-path="url(#p1439b7ce45)" d="M 250.585388 147.757742 
L 268.780149 147.757742 
" style="fill:none;stroke:#808080;"/>
    <path clip-path="url(#p1439b7ce45)" d="M 340.105102 127.356466 
L 357.961482 127.356466 
" style="fill:none;stroke:#808080;"/>
    <path clip-path="url(#p1439b7ce45)" d="M 318.161409 153.85101 
L 340.87596 153.85101 
" style="fill:none;stroke:#808080;"/>
   </g>
   <g id="LineCollection_4">
    <path clip-path="url(#p1439b7ce45)" d="M 203.370567 161.605412 
L 203.370567 151.057548 
" style="fill:none;stroke:#808080;"/>
    <path clip-path="url(#p1439b7ce45)" d="M 193.982207 144.386453 
L 193.982207 116.690763 
" style="fill:none;stroke:#808080;"/>
    <path clip-path="url(#p1439b7ce45)" d="M 87.590993 227.260072 
L 87.590993 209.221686 
" style="fill:none;stroke:#808080;"/>
    <path clip-path="url(#p1439b7ce45)" d="M 97.143215 227.335156 
L 97.143215 209.843296 
" style="fill:none;stroke:#808080;"/>
    <path clip-path="url(#p1439b7ce45)" d="M 82.072167 235.279376 
L 82.072167 217.719393 
" style="fill:none;stroke:#808080;"/>
    <path clip-path="url(#p1439b7ce45)" d="M 98.754953 242.306417 
L 98.754953 222.705639 
" style="fill:none;stroke:#808080;"/>
    <path clip-path="url(#p1439b7ce45)" d="M 131.822619 208.698022 
L 131.822619 196.334776 
" style="fill:none;stroke:#808080;"/>
    <path clip-path="url(#p1439b7ce45)" d="M 116.361223 227.521249 
L 116.361223 210.738297 
" style="fill:none;stroke:#808080;"/>
    <path clip-path="url(#p1439b7ce45)" d="M 126.120112 229.707503 
L 126.120112 219.337701 
" style="fill:none;stroke:#808080;"/>
    <path clip-path="url(#p1439b7ce45)" d="M 161.944385 192.800121 
L 161.944385 182.189625 
" style="fill:none;stroke:#808080;"/>
    <path clip-path="url(#p1439b7ce45)" d="M 180.751649 176.204386 
L 180.751649 149.851208 
" style="fill:none;stroke:#808080;"/>
    <path clip-path="url(#p1439b7ce45)" d="M 165.961794 190.304238 
L 165.961794 176.934547 
" style="fill:none;stroke:#808080;"/>
    <path clip-path="url(#p1439b7ce45)" d="M 85.530617 247.141754 
L 85.530617 233.052762 
" style="fill:none;stroke:#808080;"/>
    <path clip-path="url(#p1439b7ce45)" d="M 65.670887 255.069416 
L 65.670887 244.879608 
" style="fill:none;stroke:#808080;"/>
    <path clip-path="url(#p1439b7ce45)" d="M 130.883092 183.921596 
L 130.883092 172.726299 
" style="fill:none;stroke:#808080;"/>
    <path clip-path="url(#p1439b7ce45)" d="M 176.660804 161.855979 
L 176.660804 142.134356 
" style="fill:none;stroke:#808080;"/>
    <path clip-path="url(#p1439b7ce45)" d="M 293.644585 148.832495 
L 293.644585 121.780257 
" style="fill:none;stroke:#808080;"/>
    <path clip-path="url(#p1439b7ce45)" d="M 283.021236 117.611433 
L 283.021236 84.13827 
" style="fill:none;stroke:#808080;"/>
    <path clip-path="url(#p1439b7ce45)" d="M 303.470812 126.934364 
L 303.470812 108.915125 
" style="fill:none;stroke:#808080;"/>
    <path clip-path="url(#p1439b7ce45)" d="M 298.538962 128.588562 
L 298.538962 95.442101 
" style="fill:none;stroke:#808080;"/>
    <path clip-path="url(#p1439b7ce45)" d="M 313.234452 171.013952 
L 313.234452 108.663369 
" style="fill:none;stroke:#808080;"/>
    <path clip-path="url(#p1439b7ce45)" d="M 328.852331 115.807455 
L 328.852331 86.290247 
" style="fill:none;stroke:#808080;"/>
    <path clip-path="url(#p1439b7ce45)" d="M 261.935259 179.51829 
L 261.935259 162.218955 
" style="fill:none;stroke:#808080;"/>
    <path clip-path="url(#p1439b7ce45)" d="M 241.826888 153.607364 
L 241.826888 130.982854 
" style="fill:none;stroke:#808080;"/>
    <path clip-path="url(#p1439b7ce45)" d="M 244.844277 190.02596 
L 244.844277 163.440122 
" style="fill:none;stroke:#808080;"/>
    <path clip-path="url(#p1439b7ce45)" d="M 253.048882 201.95292 
L 253.048882 159.90198 
" style="fill:none;stroke:#808080;"/>
    <path clip-path="url(#p1439b7ce45)" d="M 254.825528 146.658434 
L 254.825528 113.873449 
" style="fill:none;stroke:#808080;"/>
    <path clip-path="url(#p1439b7ce45)" d="M 259.800698 200.519236 
L 259.800698 163.768714 
" style="fill:none;stroke:#808080;"/>
    <path clip-path="url(#p1439b7ce45)" d="M 271.881991 173.02209 
L 271.881991 130.154833 
" style="fill:none;stroke:#808080;"/>
    <path clip-path="url(#p1439b7ce45)" d="M 257.436286 181.228749 
L 257.436286 140.049042 
" style="fill:none;stroke:#808080;"/>
    <path clip-path="url(#p1439b7ce45)" d="M 264.147941 178.107614 
L 264.147941 129.244353 
" style="fill:none;stroke:#808080;"/>
    <path clip-path="url(#p1439b7ce45)" d="M 278.641882 152.415375 
L 278.641882 122.427047 
" style="fill:none;stroke:#808080;"/>
    <path clip-path="url(#p1439b7ce45)" d="M 227.041201 131.360933 
L 227.041201 98.98344 
" style="fill:none;stroke:#808080;"/>
    <path clip-path="url(#p1439b7ce45)" d="M 231.521092 155.526244 
L 231.521092 122.047376 
" style="fill:none;stroke:#808080;"/>
    <path clip-path="url(#p1439b7ce45)" d="M 226.484989 134.053923 
L 226.484989 107.554468 
" style="fill:none;stroke:#808080;"/>
    <path clip-path="url(#p1439b7ce45)" d="M 259.682769 166.702394 
L 259.682769 128.81309 
" style="fill:none;stroke:#808080;"/>
    <path clip-path="url(#p1439b7ce45)" d="M 349.033292 154.099852 
L 349.033292 100.613081 
" style="fill:none;stroke:#808080;"/>
    <path clip-path="url(#p1439b7ce45)" d="M 329.518684 172.598591 
L 329.518684 135.103429 
" style="fill:none;stroke:#808080;"/>
   </g>
   <g id="LineCollection_5">
    <path clip-path="url(#p1439b7ce45)" d="M 198.685863 161.895221 
L 214.007515 161.895221 
" style="fill:none;stroke:#808080;"/>
    <path clip-path="url(#p1439b7ce45)" d="M 314.795614 145.841356 
L 332.358715 145.841356 
" style="fill:none;stroke:#808080;"/>
    <path clip-path="url(#p1439b7ce45)" d="M 184.457056 160.590833 
L 201.191829 160.590833 
" style="fill:none;stroke:#808080;"/>
    <path clip-path="url(#p1439b7ce45)" d="M 175.67964 194.704067 
L 194.194017 194.704067 
" style="fill:none;stroke:#808080;"/>
    <path clip-path="url(#p1439b7ce45)" d="M 210.683354 144.119116 
L 233.794229 144.119116 
" style="fill:none;stroke:#808080;"/>
    <path clip-path="url(#p1439b7ce45)" d="M 335.627337 147.636385 
L 353.400004 147.636385 
" style="fill:none;stroke:#808080;"/>
    <path clip-path="url(#p1439b7ce45)" d="M 151.868893 200.097496 
L 169.256027 200.097496 
" style="fill:none;stroke:#808080;"/>
    <path clip-path="url(#p1439b7ce45)" d="M 188.026904 158.423704 
L 203.801868 158.423704 
" style="fill:none;stroke:#808080;"/>
    <path clip-path="url(#p1439b7ce45)" d="M 334.958717 117.450214 
L 355.20326 117.450214 
" style="fill:none;stroke:#808080;"/>
    <path clip-path="url(#p1439b7ce45)" d="M 341.368151 111.669219 
L 362.290763 111.669219 
" style="fill:none;stroke:#808080;"/>
    <path clip-path="url(#p1439b7ce45)" d="M 197.826465 89.654644 
L 218.985307 89.654644 
" style="fill:none;stroke:#808080;"/>
    <path clip-path="url(#p1439b7ce45)" d="M 196.712793 108.491632 
L 220.042378 108.491632 
" style="fill:none;stroke:#808080;"/>
    <path clip-path="url(#p1439b7ce45)" d="M 158.978067 88.21659 
L 185.452163 88.21659 
" style="fill:none;stroke:#808080;"/>
    <path clip-path="url(#p1439b7ce45)" d="M 196.964409 103.026603 
L 215.570767 103.026603 
" style="fill:none;stroke:#808080;"/>
    <path clip-path="url(#p1439b7ce45)" d="M 275.403626 64.604387 
L 297.322658 64.604387 
" style="fill:none;stroke:#808080;"/>
    <path clip-path="url(#p1439b7ce45)" d="M 286.755938 85.133138 
L 307.965073 85.133138 
" style="fill:none;stroke:#808080;"/>
    <path clip-path="url(#p1439b7ce45)" d="M 235.265088 55.481834 
L 260.383878 55.481834 
" style="fill:none;stroke:#808080;"/>
    <path clip-path="url(#p1439b7ce45)" d="M 228.273292 81.129743 
L 247.31603 81.129743 
" style="fill:none;stroke:#808080;"/>
    <path clip-path="url(#p1439b7ce45)" d="M 237.574547 104.72476 
L 260.615407 104.72476 
" style="fill:none;stroke:#808080;"/>
    <path clip-path="url(#p1439b7ce45)" d="M 229.043499 75.53418 
L 248.096438 75.53418 
" style="fill:none;stroke:#808080;"/>
    <path clip-path="url(#p1439b7ce45)" d="M 227.196686 70.747244 
L 248.737508 70.747244 
" style="fill:none;stroke:#808080;"/>
    <path clip-path="url(#p1439b7ce45)" d="M 215.115284 183.397827 
L 233.942999 183.397827 
" style="fill:none;stroke:#808080;"/>
   </g>
   <g id="LineCollection_6">
    <path clip-path="url(#p1439b7ce45)" d="M 206.346689 166.730614 
L 206.346689 157.059829 
" style="fill:none;stroke:#808080;"/>
    <path clip-path="url(#p1439b7ce45)" d="M 323.577165 152.962579 
L 323.577165 138.720133 
" style="fill:none;stroke:#808080;"/>
    <path clip-path="url(#p1439b7ce45)" d="M 192.824443 167.544289 
L 192.824443 153.637377 
" style="fill:none;stroke:#808080;"/>
    <path clip-path="url(#p1439b7ce45)" d="M 184.936829 203.265378 
L 184.936829 186.142755 
" style="fill:none;stroke:#808080;"/>
    <path clip-path="url(#p1439b7ce45)" d="M 222.238791 151.722357 
L 222.238791 136.515874 
" style="fill:none;stroke:#808080;"/>
    <path clip-path="url(#p1439b7ce45)" d="M 344.513671 156.617575 
L 344.513671 138.655195 
" style="fill:none;stroke:#808080;"/>
    <path clip-path="url(#p1439b7ce45)" d="M 160.56246 210.029933 
L 160.56246 190.165059 
" style="fill:none;stroke:#808080;"/>
    <path clip-path="url(#p1439b7ce45)" d="M 195.914386 165.181147 
L 195.914386 151.666261 
" style="fill:none;stroke:#808080;"/>
    <path clip-path="url(#p1439b7ce45)" d="M 345.080989 136.682293 
L 345.080989 98.218135 
" style="fill:none;stroke:#808080;"/>
    <path clip-path="url(#p1439b7ce45)" d="M 351.829457 141.353741 
L 351.829457 81.984697 
" style="fill:none;stroke:#808080;"/>
    <path clip-path="url(#p1439b7ce45)" d="M 208.405886 96.500493 
L 208.405886 82.808794 
" style="fill:none;stroke:#808080;"/>
    <path clip-path="url(#p1439b7ce45)" d="M 208.377585 125.631782 
L 208.377585 91.351481 
" style="fill:none;stroke:#808080;"/>
    <path clip-path="url(#p1439b7ce45)" d="M 172.215115 97.33028 
L 172.215115 79.1029 
" style="fill:none;stroke:#808080;"/>
    <path clip-path="url(#p1439b7ce45)" d="M 206.267588 116.352425 
L 206.267588 89.70078 
" style="fill:none;stroke:#808080;"/>
    <path clip-path="url(#p1439b7ce45)" d="M 286.363142 75.019239 
L 286.363142 54.189536 
" style="fill:none;stroke:#808080;"/>
    <path clip-path="url(#p1439b7ce45)" d="M 297.360506 95.54528 
L 297.360506 74.720996 
" style="fill:none;stroke:#808080;"/>
    <path clip-path="url(#p1439b7ce45)" d="M 247.824483 67.161514 
L 247.824483 43.802154 
" style="fill:none;stroke:#808080;"/>
    <path clip-path="url(#p1439b7ce45)" d="M 237.794661 95.720272 
L 237.794661 66.539213 
" style="fill:none;stroke:#808080;"/>
    <path clip-path="url(#p1439b7ce45)" d="M 249.094977 116.739621 
L 249.094977 92.709899 
" style="fill:none;stroke:#808080;"/>
    <path clip-path="url(#p1439b7ce45)" d="M 238.569969 87.481588 
L 238.569969 63.586771 
" style="fill:none;stroke:#808080;"/>
    <path clip-path="url(#p1439b7ce45)" d="M 237.967097 91.9185 
L 237.967097 49.575988 
" style="fill:none;stroke:#808080;"/>
    <path clip-path="url(#p1439b7ce45)" d="M 224.529141 201.259468 
L 224.529141 165.536187 
" style="fill:none;stroke:#808080;"/>
   </g>
   <g id="line2d_34">
    <defs>
     <path d="M 0 4 
C 1.060812 4 2.078319 3.578535 2.828427 2.828427 
C 3.578535 2.078319 4 1.060812 4 0 
C 4 -1.060812 3.578535 -2.078319 2.828427 -2.828427 
C 2.078319 -3.578535 1.060812 -4 0 -4 
C -1.060812 -4 -2.078319 -3.578535 -2.828427 -2.828427 
C -3.578535 -2.078319 -4 -1.060812 -4 0 
C -4 1.060812 -3.578535 2.078319 -2.828427 2.828427 
C -2.078319 3.578535 -1.060812 4 0 4 
z
" id="m7527d131f8" style="stroke:#000000;stroke-width:0.2;"/>
    </defs>
    <g clip-path="url(#p1439b7ce45)">
     <use style="fill:#ff8c00;stroke:#000000;stroke-width:0.2;" x="249.060616" xlink:href="#m7527d131f8" y="124.960997"/>
     <use style="fill:#ff8c00;stroke:#000000;stroke-width:0.2;" x="244.323302" xlink:href="#m7527d131f8" y="141.715561"/>
     <use style="fill:#ff8c00;stroke:#000000;stroke-width:0.2;" x="140.561242" xlink:href="#m7527d131f8" y="218.083156"/>
     <use style="fill:#ff8c00;stroke:#000000;stroke-width:0.2;" x="146.750073" xlink:href="#m7527d131f8" y="196.582473"/>
     <use style="fill:#ff8c00;stroke:#000000;stroke-width:0.2;" x="129.12119" xlink:href="#m7527d131f8" y="232.048174"/>
     <use style="fill:#ff8c00;stroke:#000000;stroke-width:0.2;" x="123.504188" xlink:href="#m7527d131f8" y="208.657988"/>
     <use style="fill:#ff8c00;stroke:#000000;stroke-width:0.2;" x="295.387386" xlink:href="#m7527d131f8" y="116.348861"/>
     <use style="fill:#ff8c00;stroke:#000000;stroke-width:0.2;" x="242.534755" xlink:href="#m7527d131f8" y="137.474638"/>
     <use style="fill:#ff8c00;stroke:#000000;stroke-width:0.2;" x="110.903696" xlink:href="#m7527d131f8" y="224.269038"/>
     <use style="fill:#ff8c00;stroke:#000000;stroke-width:0.2;" x="147.245785" xlink:href="#m7527d131f8" y="209.193853"/>
     <use style="fill:#ff8c00;stroke:#000000;stroke-width:0.2;" x="155.444521" xlink:href="#m7527d131f8" y="185.837134"/>
     <use style="fill:#ff8c00;stroke:#000000;stroke-width:0.2;" x="108.086047" xlink:href="#m7527d131f8" y="221.761554"/>
     <use style="fill:#ff8c00;stroke:#000000;stroke-width:0.2;" x="110.38054" xlink:href="#m7527d131f8" y="197.046456"/>
     <use style="fill:#ff8c00;stroke:#000000;stroke-width:0.2;" x="224.817558" xlink:href="#m7527d131f8" y="136.52501"/>
     <use style="fill:#ff8c00;stroke:#000000;stroke-width:0.2;" x="237.400073" xlink:href="#m7527d131f8" y="152.360731"/>
     <use style="fill:#ff8c00;stroke:#000000;stroke-width:0.2;" x="154.345631" xlink:href="#m7527d131f8" y="238.804906"/>
     <use style="fill:#ff8c00;stroke:#000000;stroke-width:0.2;" x="79.973478" xlink:href="#m7527d131f8" y="220.24607"/>
     <use style="fill:#ff8c00;stroke:#000000;stroke-width:0.2;" x="117.860607" xlink:href="#m7527d131f8" y="235.786264"/>
     <use style="fill:#ff8c00;stroke:#000000;stroke-width:0.2;" x="192.608702" xlink:href="#m7527d131f8" y="151.274685"/>
     <use style="fill:#ff8c00;stroke:#000000;stroke-width:0.2;" x="207.627686" xlink:href="#m7527d131f8" y="191.227728"/>
     <use style="fill:#ff8c00;stroke:#000000;stroke-width:0.2;" x="336.294088" xlink:href="#m7527d131f8" y="76.985476"/>
     <use style="fill:#ff8c00;stroke:#000000;stroke-width:0.2;" x="342.843931" xlink:href="#m7527d131f8" y="89.722523"/>
     <use style="fill:#ff8c00;stroke:#000000;stroke-width:0.2;" x="334.228653" xlink:href="#m7527d131f8" y="108.247548"/>
     <use style="fill:#ff8c00;stroke:#000000;stroke-width:0.2;" x="323.616906" xlink:href="#m7527d131f8" y="95.026486"/>
     <use style="fill:#ff8c00;stroke:#000000;stroke-width:0.2;" x="311.650136" xlink:href="#m7527d131f8" y="91.990122"/>
     <use style="fill:#ff8c00;stroke:#000000;stroke-width:0.2;" x="315.293851" xlink:href="#m7527d131f8" y="99.861525"/>
    </g>
   </g>
   <g id="line2d_35">
    <defs>
     <path d="M 0 4 
C 1.060812 4 2.078319 3.578535 2.828427 2.828427 
C 3.578535 2.078319 4 1.060812 4 0 
C 4 -1.060812 3.578535 -2.078319 2.828427 -2.828427 
C 2.078319 -3.578535 1.060812 -4 0 -4 
C -1.060812 -4 -2.078319 -3.578535 -2.828427 -2.828427 
C -3.578535 -2.078319 -4 -1.060812 -4 0 
C -4 1.060812 -3.578535 2.078319 -2.828427 2.828427 
C -2.078319 3.578535 -1.060812 4 0 4 
z
" id="md3457c173a" style="stroke:#000000;stroke-width:0.2;"/>
    </defs>
    <g clip-path="url(#p1439b7ce45)">
     <use style="fill:#800080;stroke:#000000;stroke-width:0.2;" x="203.370567" xlink:href="#md3457c173a" y="156.33148"/>
     <use style="fill:#800080;stroke:#000000;stroke-width:0.2;" x="193.982207" xlink:href="#md3457c173a" y="130.538608"/>
     <use style="fill:#800080;stroke:#000000;stroke-width:0.2;" x="87.590993" xlink:href="#md3457c173a" y="218.240879"/>
     <use style="fill:#800080;stroke:#000000;stroke-width:0.2;" x="97.143215" xlink:href="#md3457c173a" y="218.589226"/>
     <use style="fill:#800080;stroke:#000000;stroke-width:0.2;" x="82.072167" xlink:href="#md3457c173a" y="226.499385"/>
     <use style="fill:#800080;stroke:#000000;stroke-width:0.2;" x="98.754953" xlink:href="#md3457c173a" y="232.506028"/>
     <use style="fill:#800080;stroke:#000000;stroke-width:0.2;" x="131.822619" xlink:href="#md3457c173a" y="202.516399"/>
     <use style="fill:#800080;stroke:#000000;stroke-width:0.2;" x="116.361223" xlink:href="#md3457c173a" y="219.129773"/>
     <use style="fill:#800080;stroke:#000000;stroke-width:0.2;" x="126.120112" xlink:href="#md3457c173a" y="224.522602"/>
     <use style="fill:#800080;stroke:#000000;stroke-width:0.2;" x="161.944385" xlink:href="#md3457c173a" y="187.494873"/>
     <use style="fill:#800080;stroke:#000000;stroke-width:0.2;" x="180.751649" xlink:href="#md3457c173a" y="163.027797"/>
     <use style="fill:#800080;stroke:#000000;stroke-width:0.2;" x="165.961794" xlink:href="#md3457c173a" y="183.619393"/>
     <use style="fill:#800080;stroke:#000000;stroke-width:0.2;" x="85.530617" xlink:href="#md3457c173a" y="240.097258"/>
     <use style="fill:#800080;stroke:#000000;stroke-width:0.2;" x="65.670887" xlink:href="#md3457c173a" y="249.974512"/>
     <use style="fill:#800080;stroke:#000000;stroke-width:0.2;" x="130.883092" xlink:href="#md3457c173a" y="178.323948"/>
     <use style="fill:#800080;stroke:#000000;stroke-width:0.2;" x="176.660804" xlink:href="#md3457c173a" y="151.995167"/>
     <use style="fill:#800080;stroke:#000000;stroke-width:0.2;" x="293.644585" xlink:href="#md3457c173a" y="135.306376"/>
     <use style="fill:#800080;stroke:#000000;stroke-width:0.2;" x="283.021236" xlink:href="#md3457c173a" y="100.874852"/>
     <use style="fill:#800080;stroke:#000000;stroke-width:0.2;" x="303.470812" xlink:href="#md3457c173a" y="117.924745"/>
     <use style="fill:#800080;stroke:#000000;stroke-width:0.2;" x="298.538962" xlink:href="#md3457c173a" y="112.015331"/>
     <use style="fill:#800080;stroke:#000000;stroke-width:0.2;" x="313.234452" xlink:href="#md3457c173a" y="139.838661"/>
     <use style="fill:#800080;stroke:#000000;stroke-width:0.2;" x="328.852331" xlink:href="#md3457c173a" y="101.048851"/>
     <use style="fill:#800080;stroke:#000000;stroke-width:0.2;" x="261.935259" xlink:href="#md3457c173a" y="170.868623"/>
     <use style="fill:#800080;stroke:#000000;stroke-width:0.2;" x="241.826888" xlink:href="#md3457c173a" y="142.295109"/>
     <use style="fill:#800080;stroke:#000000;stroke-width:0.2;" x="244.844277" xlink:href="#md3457c173a" y="176.733041"/>
     <use style="fill:#800080;stroke:#000000;stroke-width:0.2;" x="253.048882" xlink:href="#md3457c173a" y="180.92745"/>
     <use style="fill:#800080;stroke:#000000;stroke-width:0.2;" x="254.825528" xlink:href="#md3457c173a" y="130.265942"/>
     <use style="fill:#800080;stroke:#000000;stroke-width:0.2;" x="259.800698" xlink:href="#md3457c173a" y="182.143975"/>
     <use style="fill:#800080;stroke:#000000;stroke-width:0.2;" x="271.881991" xlink:href="#md3457c173a" y="151.588461"/>
     <use style="fill:#800080;stroke:#000000;stroke-width:0.2;" x="257.436286" xlink:href="#md3457c173a" y="160.638896"/>
     <use style="fill:#800080;stroke:#000000;stroke-width:0.2;" x="264.147941" xlink:href="#md3457c173a" y="153.675983"/>
     <use style="fill:#800080;stroke:#000000;stroke-width:0.2;" x="278.641882" xlink:href="#md3457c173a" y="137.421211"/>
     <use style="fill:#800080;stroke:#000000;stroke-width:0.2;" x="227.041201" xlink:href="#md3457c173a" y="115.172187"/>
     <use style="fill:#800080;stroke:#000000;stroke-width:0.2;" x="231.521092" xlink:href="#md3457c173a" y="138.78681"/>
     <use style="fill:#800080;stroke:#000000;stroke-width:0.2;" x="226.484989" xlink:href="#md3457c173a" y="120.804196"/>
     <use style="fill:#800080;stroke:#000000;stroke-width:0.2;" x="259.682769" xlink:href="#md3457c173a" y="147.757742"/>
     <use style="fill:#800080;stroke:#000000;stroke-width:0.2;" x="349.033292" xlink:href="#md3457c173a" y="127.356466"/>
     <use style="fill:#800080;stroke:#000000;stroke-width:0.2;" x="329.518684" xlink:href="#md3457c173a" y="153.85101"/>
    </g>
   </g>
   <g id="line2d_36">
    <defs>
     <path d="M 0 4 
C 1.060812 4 2.078319 3.578535 2.828427 2.828427 
C 3.578535 2.078319 4 1.060812 4 0 
C 4 -1.060812 3.578535 -2.078319 2.828427 -2.828427 
C 2.078319 -3.578535 1.060812 -4 0 -4 
C -1.060812 -4 -2.078319 -3.578535 -2.828427 -2.828427 
C -3.578535 -2.078319 -4 -1.060812 -4 0 
C -4 1.060812 -3.578535 2.078319 -2.828427 2.828427 
C -2.078319 3.578535 -1.060812 4 0 4 
z
" id="mde66b93f8b" style="stroke:#000000;stroke-width:0.2;"/>
    </defs>
    <g clip-path="url(#p1439b7ce45)">
     <use style="fill:#6495ed;stroke:#000000;stroke-width:0.2;" x="206.346689" xlink:href="#mde66b93f8b" y="161.895221"/>
     <use style="fill:#6495ed;stroke:#000000;stroke-width:0.2;" x="323.577165" xlink:href="#mde66b93f8b" y="145.841356"/>
     <use style="fill:#6495ed;stroke:#000000;stroke-width:0.2;" x="192.824443" xlink:href="#mde66b93f8b" y="160.590833"/>
     <use style="fill:#6495ed;stroke:#000000;stroke-width:0.2;" x="184.936829" xlink:href="#mde66b93f8b" y="194.704067"/>
     <use style="fill:#6495ed;stroke:#000000;stroke-width:0.2;" x="222.238791" xlink:href="#mde66b93f8b" y="144.119116"/>
     <use style="fill:#6495ed;stroke:#000000;stroke-width:0.2;" x="344.513671" xlink:href="#mde66b93f8b" y="147.636385"/>
     <use style="fill:#6495ed;stroke:#000000;stroke-width:0.2;" x="160.56246" xlink:href="#mde66b93f8b" y="200.097496"/>
     <use style="fill:#6495ed;stroke:#000000;stroke-width:0.2;" x="195.914386" xlink:href="#mde66b93f8b" y="158.423704"/>
     <use style="fill:#6495ed;stroke:#000000;stroke-width:0.2;" x="345.080989" xlink:href="#mde66b93f8b" y="117.450214"/>
     <use style="fill:#6495ed;stroke:#000000;stroke-width:0.2;" x="351.829457" xlink:href="#mde66b93f8b" y="111.669219"/>
     <use style="fill:#6495ed;stroke:#000000;stroke-width:0.2;" x="208.405886" xlink:href="#mde66b93f8b" y="89.654644"/>
     <use style="fill:#6495ed;stroke:#000000;stroke-width:0.2;" x="208.377585" xlink:href="#mde66b93f8b" y="108.491632"/>
     <use style="fill:#6495ed;stroke:#000000;stroke-width:0.2;" x="172.215115" xlink:href="#mde66b93f8b" y="88.21659"/>
     <use style="fill:#6495ed;stroke:#000000;stroke-width:0.2;" x="206.267588" xlink:href="#mde66b93f8b" y="103.026603"/>
     <use style="fill:#6495ed;stroke:#000000;stroke-width:0.2;" x="286.363142" xlink:href="#mde66b93f8b" y="64.604387"/>
     <use style="fill:#6495ed;stroke:#000000;stroke-width:0.2;" x="297.360506" xlink:href="#mde66b93f8b" y="85.133138"/>
     <use style="fill:#6495ed;stroke:#000000;stroke-width:0.2;" x="247.824483" xlink:href="#mde66b93f8b" y="55.481834"/>
     <use style="fill:#6495ed;stroke:#000000;stroke-width:0.2;" x="237.794661" xlink:href="#mde66b93f8b" y="81.129743"/>
     <use style="fill:#6495ed;stroke:#000000;stroke-width:0.2;" x="249.094977" xlink:href="#mde66b93f8b" y="104.72476"/>
     <use style="fill:#6495ed;stroke:#000000;stroke-width:0.2;" x="238.569969" xlink:href="#mde66b93f8b" y="75.53418"/>
     <use style="fill:#6495ed;stroke:#000000;stroke-width:0.2;" x="237.967097" xlink:href="#mde66b93f8b" y="70.747244"/>
     <use style="fill:#6495ed;stroke:#000000;stroke-width:0.2;" x="224.529141" xlink:href="#mde66b93f8b" y="183.397827"/>
    </g>
   </g>
   <g id="patch_3">
    <path d="M 58.223886 333.36 
L 58.223886 7.2 
" style="fill:none;stroke:#cccccc;stroke-linecap:square;stroke-linejoin:miter;"/>
   </g>
   <g id="patch_4">
    <path d="M 459.983886 333.36 
L 459.983886 7.2 
" style="fill:none;stroke:#cccccc;stroke-linecap:square;stroke-linejoin:miter;"/>
   </g>
   <g id="patch_5">
    <path d="M 58.223886 333.36 
L 459.983886 333.36 
" style="fill:none;stroke:#cccccc;stroke-linecap:square;stroke-linejoin:miter;"/>
   </g>
   <g id="patch_6">
    <path d="M 58.223886 7.2 
L 459.983886 7.2 
" style="fill:none;stroke:#cccccc;stroke-linecap:square;stroke-linejoin:miter;"/>
   </g>
   <g id="text_19">
    <!-- R$^2$ = 0.87 -->
    <defs>
     <path d="M 53.40625 35.015625 
L 5 35.015625 
L 5 28 
L 53.40625 28 
z
M 53.40625 18 
L 5 18 
L 5 11 
L 53.40625 11 
z
" id="Nimbus_Sans_L_Regular-61"/>
     <path d="M 52 70.703125 
L 4.59375 70.703125 
L 4.59375 62 
L 42.90625 62 
C 26 37.78125 19.09375 22.90625 13.796875 -0.5 
L 23.203125 -0.5 
C 27.09375 22.296875 36 41.890625 52 63.296875 
z
" id="Nimbus_Sans_L_Regular-55"/>
    </defs>
    <g style="fill:#ff8c00;" transform="translate(396.910163 327.866022)scale(0.14 -0.14)">
     <use transform="scale(0.996264)" xlink:href="#Nimbus_Sans_L_Regular-82"/>
     <use transform="translate(71.929985 36.153639)scale(0.697382)" xlink:href="#Nimbus_Sans_L_Regular-50"/>
     <use transform="translate(138.897287 0)scale(0.996264)" xlink:href="#Nimbus_Sans_L_Regular-61"/>
     <use transform="translate(224.773949 0)scale(0.996264)" xlink:href="#Nimbus_Sans_L_Regular-48"/>
     <use transform="translate(280.165626 0)scale(0.996264)" xlink:href="#Nimbus_Sans_L_Regular-46"/>
     <use transform="translate(307.860796 0)scale(0.996264)" xlink:href="#Nimbus_Sans_L_Regular-56"/>
     <use transform="translate(363.252473 0)scale(0.996264)" xlink:href="#Nimbus_Sans_L_Regular-55"/>
    </g>
   </g>
   <g id="text_20">
    <!-- R$^2$ = 0.62 -->
    <g style="fill:#800080;" transform="translate(396.910163 311.558022)scale(0.14 -0.14)">
     <use transform="scale(0.996264)" xlink:href="#Nimbus_Sans_L_Regular-82"/>
     <use transform="translate(71.929985 36.153639)scale(0.697382)" xlink:href="#Nimbus_Sans_L_Regular-50"/>
     <use transform="translate(138.897287 0)scale(0.996264)" xlink:href="#Nimbus_Sans_L_Regular-61"/>
     <use transform="translate(224.773949 0)scale(0.996264)" xlink:href="#Nimbus_Sans_L_Regular-48"/>
     <use transform="translate(280.165626 0)scale(0.996264)" xlink:href="#Nimbus_Sans_L_Regular-46"/>
     <use transform="translate(307.860796 0)scale(0.996264)" xlink:href="#Nimbus_Sans_L_Regular-54"/>
     <use transform="translate(363.252473 0)scale(0.996264)" xlink:href="#Nimbus_Sans_L_Regular-50"/>
    </g>
   </g>
   <g id="text_21">
    <!-- R$^2$ = 0.10 -->
    <g style="fill:#6495ed;" transform="translate(396.910163 295.250022)scale(0.14 -0.14)">
     <use transform="scale(0.996264)" xlink:href="#Nimbus_Sans_L_Regular-82"/>
     <use transform="translate(71.929985 36.153639)scale(0.697382)" xlink:href="#Nimbus_Sans_L_Regular-50"/>
     <use transform="translate(138.897287 0)scale(0.996264)" xlink:href="#Nimbus_Sans_L_Regular-61"/>
     <use transform="translate(224.773949 0)scale(0.996264)" xlink:href="#Nimbus_Sans_L_Regular-48"/>
     <use transform="translate(280.165626 0)scale(0.996264)" xlink:href="#Nimbus_Sans_L_Regular-46"/>
     <use transform="translate(307.860796 0)scale(0.996264)" xlink:href="#Nimbus_Sans_L_Regular-49"/>
     <use transform="translate(363.252473 0)scale(0.996264)" xlink:href="#Nimbus_Sans_L_Regular-48"/>
    </g>
   </g>
   <g id="text_22">
    <g id="patch_7">
     <path d="M 62.181486 48.345223 
L 227.308094 48.345223 
L 227.308094 10.4016 
L 62.181486 10.4016 
z
" style="fill:#ffffff;stroke:#ffffff;stroke-linejoin:miter;stroke-width:0.39;"/>
    </g>
    <!-- RMSE = 2.98 [2.64, 3.33] -->
    <defs>
     <path d="M 18.296875 33 
L 58 33 
L 58 41.21875 
L 18.296875 41.21875 
L 18.296875 64.78125 
L 59.5 64.78125 
L 59.5 73 
L 9 73 
L 9 0 
L 61.296875 0 
L 61.296875 8.21875 
L 18.296875 8.21875 
z
" id="Nimbus_Sans_L_Regular-69"/>
     <path d="M 25 73 
L 6.40625 73 
L 6.40625 -21.203125 
L 25 -21.203125 
L 25 -14 
L 14.703125 -14 
L 14.703125 65.78125 
L 25 65.78125 
z
" id="Nimbus_Sans_L_Regular-91"/>
     <path d="M 8.703125 10 
L 8.703125 -0.421875 
L 14.703125 -0.421875 
L 14.703125 -2.21875 
C 14.703125 -9.109375 13.40625 -11.09375 8.703125 -11.09375 
L 8.703125 -15 
C 15.703125 -15 19.203125 -10.53125 19.203125 -1.96875 
L 19.203125 10 
z
" id="Nimbus_Sans_L_Regular-44"/>
     <path d="M 22.09375 33 
L 23.203125 33 
L 26.90625 33 
C 36.59375 33 41.59375 28.59375 41.59375 20.0625 
C 41.59375 11.125 36.09375 5.8125 26.90625 5.8125 
C 17.296875 5.8125 12.59375 10.640625 12 21.015625 
L 3.203125 21.015625 
C 3.59375 15.28125 4.59375 11.5625 6.296875 8.34375 
C 9.90625 1.515625 16.90625 -2 26.59375 -2 
C 41.203125 -2 50.59375 6.734375 50.59375 20.203125 
C 50.59375 29.25 47.09375 34.28125 38.59375 37.203125 
C 45.203125 39.78125 48.5 44.71875 48.5 51.734375 
C 48.5 63.78125 40.40625 71 26.90625 71 
C 12.59375 71 5 63.28125 4.703125 48.359375 
L 13.5 48.359375 
C 13.59375 52.59375 14 54.953125 15.09375 57.109375 
C 17.09375 60.9375 21.5 63.296875 27 63.296875 
C 34.796875 63.296875 39.5 58.75 39.5 51.359375 
C 39.5 46.421875 37.703125 43.453125 33.796875 41.890625 
C 31.40625 40.90625 28.296875 40.5 22.09375 40.5 
z
" id="Nimbus_Sans_L_Regular-51"/>
     <path d="M 2.296875 -21.203125 
L 20.90625 -21.203125 
L 20.90625 73 
L 2.296875 73 
L 2.296875 65.78125 
L 12.59375 65.78125 
L 12.59375 -14 
L 2.296875 -14 
z
" id="Nimbus_Sans_L_Regular-93"/>
    </defs>
    <g style="fill:#262626;" transform="translate(66.241486 24.399248)scale(0.14 -0.14)">
     <use transform="scale(0.996264)" xlink:href="#Nimbus_Sans_L_Regular-82"/>
     <use transform="translate(71.929985 0)scale(0.996264)" xlink:href="#Nimbus_Sans_L_Regular-77"/>
     <use transform="translate(154.918415 0)scale(0.996264)" xlink:href="#Nimbus_Sans_L_Regular-83"/>
     <use transform="translate(221.368446 0)scale(0.996264)" xlink:href="#Nimbus_Sans_L_Regular-69"/>
     <use transform="translate(315.513647 0)scale(0.996264)" xlink:href="#Nimbus_Sans_L_Regular-61"/>
     <use transform="translate(401.390309 0)scale(0.996264)" xlink:href="#Nimbus_Sans_L_Regular-50"/>
     <use transform="translate(456.781986 0)scale(0.996264)" xlink:href="#Nimbus_Sans_L_Regular-46"/>
     <use transform="translate(484.477156 0)scale(0.996264)" xlink:href="#Nimbus_Sans_L_Regular-57"/>
     <use transform="translate(539.868833 0)scale(0.996264)" xlink:href="#Nimbus_Sans_L_Regular-56"/>
     <use transform="translate(622.95568 0)scale(0.996264)" xlink:href="#Nimbus_Sans_L_Regular-91"/>
     <use transform="translate(650.650849 0)scale(0.996264)" xlink:href="#Nimbus_Sans_L_Regular-50"/>
     <use transform="translate(706.042526 0)scale(0.996264)" xlink:href="#Nimbus_Sans_L_Regular-46"/>
     <use transform="translate(733.737696 0)scale(0.996264)" xlink:href="#Nimbus_Sans_L_Regular-54"/>
     <use transform="translate(789.129373 0)scale(0.996264)" xlink:href="#Nimbus_Sans_L_Regular-52"/>
     <use transform="translate(844.52105 0)scale(0.996264)" xlink:href="#Nimbus_Sans_L_Regular-44"/>
     <use transform="translate(899.911389 0)scale(0.996264)" xlink:href="#Nimbus_Sans_L_Regular-51"/>
     <use transform="translate(955.303066 0)scale(0.996264)" xlink:href="#Nimbus_Sans_L_Regular-46"/>
     <use transform="translate(982.998235 0)scale(0.996264)" xlink:href="#Nimbus_Sans_L_Regular-51"/>
     <use transform="translate(1038.389912 0)scale(0.996264)" xlink:href="#Nimbus_Sans_L_Regular-51"/>
     <use transform="translate(1093.781589 0)scale(0.996264)" xlink:href="#Nimbus_Sans_L_Regular-93"/>
    </g>
    <!-- R$^2$ = 0.54 [0.39, 0.68] -->
    <defs>
     <path d="M 47.59375 71 
L 11 71 
L 5.703125 32.59375 
L 13.796875 32.59375 
C 17.90625 37.484375 21.296875 39.1875 26.796875 39.1875 
C 36.296875 39.1875 42.296875 32.6875 42.296875 22.203125 
C 42.296875 12 36.40625 5.8125 26.796875 5.8125 
C 19.09375 5.8125 14.40625 9.703125 12.296875 17.703125 
L 3.5 17.703125 
C 4.703125 11.90625 5.703125 9.09375 7.796875 6.484375 
C 11.796875 1.09375 19 -2 27 -2 
C 41.296875 -2 51.296875 8.390625 51.296875 23.390625 
C 51.296875 37.40625 42 47 28.40625 47 
C 23.40625 47 19.40625 45.703125 15.296875 42.6875 
L 18.09375 62.296875 
L 47.59375 62.296875 
z
" id="Nimbus_Sans_L_Regular-53"/>
    </defs>
    <g style="fill:#262626;" transform="translate(66.241486 41.314445)scale(0.14 -0.14)">
     <use transform="scale(0.996264)" xlink:href="#Nimbus_Sans_L_Regular-82"/>
     <use transform="translate(71.929985 36.153639)scale(0.697382)" xlink:href="#Nimbus_Sans_L_Regular-50"/>
     <use transform="translate(138.897287 0)scale(0.996264)" xlink:href="#Nimbus_Sans_L_Regular-61"/>
     <use transform="translate(224.773949 0)scale(0.996264)" xlink:href="#Nimbus_Sans_L_Regular-48"/>
     <use transform="translate(280.165626 0)scale(0.996264)" xlink:href="#Nimbus_Sans_L_Regular-46"/>
     <use transform="translate(307.860796 0)scale(0.996264)" xlink:href="#Nimbus_Sans_L_Regular-53"/>
     <use transform="translate(363.252473 0)scale(0.996264)" xlink:href="#Nimbus_Sans_L_Regular-52"/>
     <use transform="translate(446.33932 0)scale(0.996264)" xlink:href="#Nimbus_Sans_L_Regular-91"/>
     <use transform="translate(474.034489 0)scale(0.996264)" xlink:href="#Nimbus_Sans_L_Regular-48"/>
     <use transform="translate(529.426166 0)scale(0.996264)" xlink:href="#Nimbus_Sans_L_Regular-46"/>
     <use transform="translate(557.121336 0)scale(0.996264)" xlink:href="#Nimbus_Sans_L_Regular-51"/>
     <use transform="translate(612.513013 0)scale(0.996264)" xlink:href="#Nimbus_Sans_L_Regular-57"/>
     <use transform="translate(667.90469 0)scale(0.996264)" xlink:href="#Nimbus_Sans_L_Regular-44"/>
     <use transform="translate(723.295029 0)scale(0.996264)" xlink:href="#Nimbus_Sans_L_Regular-48"/>
     <use transform="translate(778.686706 0)scale(0.996264)" xlink:href="#Nimbus_Sans_L_Regular-46"/>
     <use transform="translate(806.381875 0)scale(0.996264)" xlink:href="#Nimbus_Sans_L_Regular-54"/>
     <use transform="translate(861.773552 0)scale(0.996264)" xlink:href="#Nimbus_Sans_L_Regular-56"/>
     <use transform="translate(917.165229 0)scale(0.996264)" xlink:href="#Nimbus_Sans_L_Regular-93"/>
    </g>
   </g>
  </g>
 </g>
 <defs>
  <clipPath id="p1439b7ce45">
   <rect height="326.16" width="401.76" x="58.223886" y="7.2"/>
  </clipPath>
 </defs>
</svg>
