<?xml version="1.0" encoding="utf-8" standalone="no"?>
<!DOCTYPE svg PUBLIC "-//W3C//DTD SVG 1.1//EN"
  "http://www.w3.org/Graphics/SVG/1.1/DTD/svg11.dtd">
<!-- Created with matplotlib (http://matplotlib.org/) -->
<svg height="383pt" version="1.1" viewBox="0 0 463 383" width="463pt" xmlns="http://www.w3.org/2000/svg" xmlns:xlink="http://www.w3.org/1999/xlink">
 <defs>
  <style type="text/css">
*{stroke-linecap:butt;stroke-linejoin:round;}
  </style>
 </defs>
 <g id="figure_1">
  <g id="patch_1">
   <path d="M 0 383.708983 
L 463.583428 383.708983 
L 463.583428 0 
L 0 0 
z
" style="fill:#ffffff;"/>
  </g>
  <g id="axes_1">
   <g id="patch_2">
    <path d="M 51.022969 337.973908 
L 452.782969 337.973908 
L 452.782969 11.813908 
L 51.022969 11.813908 
z
" style="fill:#ffffff;"/>
   </g>
   <g id="line2d_1">
    <path clip-path="url(#pceab402d0f)" d="M -1 380.207609 
L 464.583428 2.233966 
" style="fill:none;stroke:#4c4c4c;stroke-linecap:round;stroke-width:0.5;"/>
   </g>
   <g id="matplotlib.axis_1">
    <g id="xtick_1">
     <g id="line2d_2">
      <path clip-path="url(#pceab402d0f)" d="M 51.022969 337.973908 
L 51.022969 11.813908 
" style="fill:none;stroke:#cccccc;stroke-linecap:round;stroke-width:1.3;"/>
     </g>
     <g id="line2d_3"/>
     <g id="text_1">
      <!-- $-8$ -->
      <defs>
       <path d="M 65.90625 23 
C 67.59375 23 69.40625 23 69.40625 25 
C 69.40625 27 67.59375 27 65.90625 27 
L 11.796875 27 
C 10.09375 27 8.296875 27 8.296875 25 
C 8.296875 23 10.09375 23 11.796875 23 
z
" id="CMSY10-0"/>
       <path d="M 39.09375 37.484375 
C 46.40625 41.875 48.796875 45.46875 48.796875 52.15625 
C 48.796875 63.21875 40.09375 71 27.5 71 
C 15 71 6.203125 63.21875 6.203125 52.15625 
C 6.203125 45.578125 8.59375 41.984375 15.796875 37.484375 
C 7.703125 33.59375 3.703125 27.71875 3.703125 19.9375 
C 3.703125 6.96875 13.5 -2 27.5 -2 
C 41.5 -2 51.296875 6.984375 51.296875 19.84375 
C 51.296875 27.71875 47.296875 33.59375 39.09375 37.484375 
z
M 27.5 63.1875 
C 35 63.1875 39.796875 58.8125 39.796875 51.953125 
C 39.796875 45.375 34.90625 41 27.5 41 
C 20.09375 41 15.203125 45.375 15.203125 52.046875 
C 15.203125 58.8125 20.09375 63.1875 27.5 63.1875 
z
M 27.5 33.578125 
C 36.296875 33.578125 42.296875 28 42.296875 19.734375 
C 42.296875 11.390625 36.296875 5.8125 27.296875 5.8125 
C 18.703125 5.8125 12.703125 11.484375 12.703125 19.734375 
C 12.703125 28 18.703125 33.578125 27.5 33.578125 
z
" id="Nimbus_Sans_L_Regular-56"/>
      </defs>
      <g style="fill:#262626;" transform="translate(42.385826 356.301725)scale(0.13 -0.13)">
       <use transform="scale(0.996264)" xlink:href="#CMSY10-0"/>
       <use transform="translate(77.487468 0)scale(0.996264)" xlink:href="#Nimbus_Sans_L_Regular-56"/>
      </g>
     </g>
    </g>
    <g id="xtick_2">
     <g id="line2d_4">
      <path clip-path="url(#pceab402d0f)" d="M 131.374969 337.973908 
L 131.374969 11.813908 
" style="fill:none;stroke:#cccccc;stroke-linecap:round;stroke-width:1.3;"/>
     </g>
     <g id="line2d_5"/>
     <g id="text_2">
      <!-- $-6$ -->
      <defs>
       <path d="M 49.796875 52.84375 
C 48.09375 64.234375 40.5 71 29.703125 71 
C 21.90625 71 14.90625 67.21875 10.703125 60.9375 
C 6.296875 54.0625 4.296875 45.375 4.296875 32.515625 
C 4.296875 20.640625 6.09375 13.0625 10.296875 6.78125 
C 14.09375 1.078125 20.296875 -2 28.09375 -2 
C 41.59375 -2 51.296875 8.09375 51.296875 22.109375 
C 51.296875 35.4375 42.296875 44.8125 29.59375 44.8125 
C 22.59375 44.8125 17.09375 42.109375 13.296875 36.90625 
C 13.40625 53.8125 19 63.1875 29.09375 63.1875 
C 35.296875 63.1875 39.59375 59.421875 41 52.84375 
z
M 28.5 37 
C 37 37 42.296875 31.03125 42.296875 21.40625 
C 42.296875 12.390625 36.296875 5.8125 28.203125 5.8125 
C 20 5.8125 13.796875 12.703125 13.796875 21.90625 
C 13.796875 30.828125 19.796875 37 28.5 37 
z
" id="Nimbus_Sans_L_Regular-54"/>
      </defs>
      <g style="fill:#262626;" transform="translate(122.737826 356.301725)scale(0.13 -0.13)">
       <use transform="scale(0.996264)" xlink:href="#CMSY10-0"/>
       <use transform="translate(77.487468 0)scale(0.996264)" xlink:href="#Nimbus_Sans_L_Regular-54"/>
      </g>
     </g>
    </g>
    <g id="xtick_3">
     <g id="line2d_6">
      <path clip-path="url(#pceab402d0f)" d="M 211.726969 337.973908 
L 211.726969 11.813908 
" style="fill:none;stroke:#cccccc;stroke-linecap:round;stroke-width:1.3;"/>
     </g>
     <g id="line2d_7"/>
     <g id="text_3">
      <!-- $-4$ -->
      <defs>
       <path d="M 32.703125 17 
L 32.703125 0 
L 41.5 0 
L 41.5 17 
L 52 17 
L 52 24.90625 
L 41.5 24.90625 
L 41.5 71.015625 
L 35 71.015625 
L 2.796875 26.3125 
L 2.796875 17 
z
M 32.703125 24.90625 
L 10.5 24.90625 
L 32.703125 55.984375 
z
" id="Nimbus_Sans_L_Regular-52"/>
      </defs>
      <g style="fill:#262626;" transform="translate(203.089826 356.301725)scale(0.13 -0.13)">
       <use transform="scale(0.996264)" xlink:href="#CMSY10-0"/>
       <use transform="translate(77.487468 0)scale(0.996264)" xlink:href="#Nimbus_Sans_L_Regular-52"/>
      </g>
     </g>
    </g>
    <g id="xtick_4">
     <g id="line2d_8">
      <path clip-path="url(#pceab402d0f)" d="M 292.078969 337.973908 
L 292.078969 11.813908 
" style="fill:none;stroke:#cccccc;stroke-linecap:round;stroke-width:1.3;"/>
     </g>
     <g id="line2d_9"/>
     <g id="text_4">
      <!-- $-2$ -->
      <defs>
       <path d="M 50.59375 8.71875 
L 13.296875 8.71875 
C 14.203125 14.53125 17.40625 18.234375 26.09375 23.34375 
L 36.09375 28.75 
C 46 34.15625 51.09375 41.453125 51.09375 50.171875 
C 51.09375 56.078125 48.703125 61.59375 44.5 65.390625 
C 40.296875 69.203125 35.09375 71 28.40625 71 
C 19.40625 71 12.703125 67.796875 8.796875 61.796875 
C 6.296875 57.984375 5.203125 53.578125 5 46.359375 
L 13.796875 46.359375 
C 14.09375 51.171875 14.703125 54.078125 15.90625 56.375 
C 18.203125 60.6875 22.796875 63.296875 28.09375 63.296875 
C 36.09375 63.296875 42.09375 57.578125 42.09375 49.96875 
C 42.09375 44.359375 38.796875 39.546875 32.5 35.953125 
L 23.296875 30.75 
C 8.5 22.34375 4.203125 15.625 3.40625 0 
L 50.59375 0 
z
" id="Nimbus_Sans_L_Regular-50"/>
      </defs>
      <g style="fill:#262626;" transform="translate(283.441826 356.301725)scale(0.13 -0.13)">
       <use transform="scale(0.996264)" xlink:href="#CMSY10-0"/>
       <use transform="translate(77.487468 0)scale(0.996264)" xlink:href="#Nimbus_Sans_L_Regular-50"/>
      </g>
     </g>
    </g>
    <g id="xtick_5">
     <g id="line2d_10">
      <path clip-path="url(#pceab402d0f)" d="M 372.430969 337.973908 
L 372.430969 11.813908 
" style="fill:none;stroke:#cccccc;stroke-linecap:round;stroke-width:1.3;"/>
     </g>
     <g id="line2d_11"/>
     <g id="text_5">
      <!-- $0$ -->
      <defs>
       <path d="M 27.5 71 
C 20.90625 71 14.90625 68.125 11.203125 63.21875 
C 6.59375 57.046875 4.296875 47.5625 4.296875 34.5 
C 4.296875 10.671875 12.296875 -2 27.5 -2 
C 42.5 -2 50.703125 10.671875 50.703125 33.90625 
C 50.703125 47.65625 48.5 56.84375 43.796875 63.21875 
C 40.09375 68.21875 34.203125 71 27.5 71 
z
M 27.5 63.1875 
C 37 63.1875 41.703125 53.625 41.703125 34.703125 
C 41.703125 14.671875 37.09375 5.3125 27.296875 5.3125 
C 18 5.3125 13.296875 15.078125 13.296875 34.40625 
C 13.296875 53.71875 18 63.1875 27.5 63.1875 
z
" id="Nimbus_Sans_L_Regular-48"/>
      </defs>
      <g style="fill:#262626;" transform="translate(368.830511 356.301725)scale(0.13 -0.13)">
       <use transform="scale(0.996264)" xlink:href="#Nimbus_Sans_L_Regular-48"/>
      </g>
     </g>
    </g>
    <g id="xtick_6">
     <g id="line2d_12">
      <path clip-path="url(#pceab402d0f)" d="M 452.782969 337.973908 
L 452.782969 11.813908 
" style="fill:none;stroke:#cccccc;stroke-linecap:round;stroke-width:1.3;"/>
     </g>
     <g id="line2d_13"/>
     <g id="text_6">
      <!-- $2$ -->
      <g style="fill:#262626;" transform="translate(449.182511 356.301725)scale(0.13 -0.13)">
       <use transform="scale(0.996264)" xlink:href="#Nimbus_Sans_L_Regular-50"/>
      </g>
     </g>
    </g>
    <g id="text_7">
     <!-- GAFF v2.1 $\Delta$G (kcal/mol) -->
     <defs>
      <path d="M 70.90625 39 
L 40.5 39 
L 40.5 30.796875 
L 62.703125 30.796875 
L 62.703125 28.765625 
C 62.703125 15.671875 53.09375 6.203125 39.796875 6.203125 
C 32.40625 6.203125 25.703125 8.890625 21.40625 13.59375 
C 16.59375 18.765625 13.703125 27.4375 13.703125 36.40625 
C 13.703125 54.234375 23.90625 66 39.296875 66 
C 50.40625 66 58.40625 60.375 60.40625 51.125 
L 69.90625 51.125 
C 67.296875 65.796875 56.09375 74.21875 39.40625 74.21875 
C 30.5 74.21875 23.296875 71.921875 17.59375 67.234375 
C 9.203125 60.25 4.40625 48.984375 4.40625 35.90625 
C 4.40625 13.5625 18.09375 -2 37.796875 -2 
C 47.703125 -2 55.59375 1.703125 62.703125 9.625 
L 65 -0.109375 
L 70.90625 -0.109375 
z
" id="Nimbus_Sans_L_Regular-71"/>
      <path d="M 47.40625 22 
L 54.90625 0 
L 65.296875 0 
L 39.703125 73 
L 27.703125 73 
L 1.703125 0 
L 11.59375 0 
L 19.296875 22 
z
M 44.796875 29.8125 
L 21.59375 29.8125 
L 33.59375 63 
z
" id="Nimbus_Sans_L_Regular-65"/>
      <path d="M 18.296875 33 
L 53.09375 33 
L 53.09375 41.21875 
L 18.296875 41.21875 
L 18.296875 64.78125 
L 57.90625 64.78125 
L 57.90625 73 
L 9 73 
L 9 -0.21875 
L 18.296875 -0.21875 
z
" id="Nimbus_Sans_L_Regular-70"/>
      <path d="M 28.5 0 
L 48.59375 52.5 
L 39.203125 52.5 
L 24.40625 9.921875 
L 10.40625 52.5 
L 1 52.5 
L 19.40625 0 
z
" id="Nimbus_Sans_L_Regular-118"/>
      <path d="M 19.09375 10.421875 
L 8.703125 10.421875 
L 8.703125 0 
L 19.09375 0 
z
" id="Nimbus_Sans_L_Regular-46"/>
      <path d="M 25.90625 50.59375 
L 25.90625 0 
L 34.703125 0 
L 34.703125 71.015625 
L 28.90625 71.015625 
C 25.796875 60.109375 23.796875 58.609375 10.203125 56.90625 
L 10.203125 50.59375 
z
" id="Nimbus_Sans_L_Regular-49"/>
      <path d="M 36.296875 66.625 
L 3 4.40625 
L 3.203125 0.234375 
C 10.5 0.734375 17.90625 0.9375 25.296875 0.9375 
C 37.796875 0.9375 50.203125 0.328125 62.703125 -0.453125 
L 68.796875 2.71875 
L 68.90625 4.3125 
C 58.09375 25.078125 49.5 46.859375 42.09375 69.109375 
z
M 56.203125 5 
C 44.5 5 32.703125 5 20.90625 5 
C 17.40625 5 13.90625 5 10.40625 5 
L 10.09375 6.1875 
C 18.09375 23.03125 26.09375 38.65625 35.59375 55 
L 36.703125 55 
C 36.703125 54.90625 52.703125 15.21875 56.796875 5.890625 
z
" id="EURM10-1"/>
      <path d="M 23.59375 73 
C 13.59375 59.84375 7.296875 41.5625 7.296875 25.796875 
C 7.296875 9.9375 13.59375 -8.34375 23.59375 -21.5 
L 29.09375 -21.5 
C 20.296875 -7.140625 15.40625 9.734375 15.40625 25.796875 
C 15.40625 41.765625 20.296875 58.734375 29.09375 73 
z
" id="Nimbus_Sans_L_Regular-40"/>
      <path d="M 14.09375 73 
L 5.796875 73 
L 5.796875 -0.03125 
L 14.09375 -0.03125 
L 14.09375 20.40625 
L 22.203125 28.421875 
L 39.90625 -0.03125 
L 50.203125 -0.03125 
L 28.796875 34.328125 
L 47 52.453125 
L 36.296875 52.453125 
L 14.09375 30.21875 
z
" id="Nimbus_Sans_L_Regular-107"/>
      <path d="M 47.09375 34.9375 
C 46.703125 40.03125 45.59375 43.328125 43.59375 46.21875 
C 40 51.109375 33.703125 54 26.40625 54 
C 12.296875 54 3.09375 42.84375 3.09375 25.5 
C 3.09375 8.65625 12.09375 -2 26.296875 -2 
C 38.796875 -2 46.703125 5.46875 47.703125 18.234375 
L 39.296875 18.234375 
C 37.90625 9.875 33.59375 5.703125 26.5 5.703125 
C 17.296875 5.703125 11.796875 13.171875 11.796875 25.5 
C 11.796875 38.53125 17.203125 46.28125 26.296875 46.28125 
C 33.296875 46.28125 37.703125 42.203125 38.703125 34.9375 
z
" id="Nimbus_Sans_L_Regular-99"/>
      <path d="M 53.5 5.203125 
C 52.59375 5 52.203125 5 51.703125 5 
C 48.796875 5 47.203125 6.484375 47.203125 9.078125 
L 47.203125 39.765625 
C 47.203125 49.015625 40.40625 54 27.5 54 
C 19.90625 54 13.59375 51.8125 10.09375 47.90625 
C 7.703125 45.203125 6.703125 42.21875 6.5 37.03125 
L 14.90625 37.03125 
C 15.59375 43.390625 19.40625 46.28125 27.203125 46.28125 
C 34.703125 46.28125 38.90625 43.484375 38.90625 38.515625 
L 38.90625 36.328125 
C 38.90625 32.828125 36.796875 31.34375 30.203125 30.546875 
C 18.40625 29.0625 16.59375 28.65625 13.40625 27.359375 
C 7.296875 24.875 4.203125 20.1875 4.203125 13.421875 
C 4.203125 3.96875 10.796875 -2 21.40625 -2 
C 28 -2 33.296875 0.296875 39.203125 5.703125 
C 39.796875 0.390625 42.40625 -2 47.796875 -2 
C 49.5 -2 50.796875 -1.8125 53.5 -1.09375 
z
M 38.90625 16.75 
C 38.90625 13.953125 38.09375 12.265625 35.59375 9.984375 
C 32.203125 6.890625 28.09375 5.3125 23.203125 5.3125 
C 16.703125 5.3125 12.90625 8.390625 12.90625 13.65625 
C 12.90625 19.140625 16.59375 21.921875 25.5 23.21875 
C 34.296875 24.40625 36.09375 24.8125 38.90625 26.09375 
z
" id="Nimbus_Sans_L_Regular-97"/>
      <path d="M 15.203125 73 
L 6.796875 73 
L 6.796875 -0.03125 
L 15.203125 -0.03125 
z
" id="Nimbus_Sans_L_Regular-108"/>
      <path d="M 22.90625 73 
L -0.796875 -2 
L 4.703125 -2 
L 28.40625 73 
z
" id="Nimbus_Sans_L_Regular-47"/>
      <path d="M 7 52.484375 
L 7 0 
L 15.40625 0 
L 15.40625 32.953125 
C 15.40625 40.578125 20.90625 46.6875 27.703125 46.6875 
C 33.90625 46.6875 37.40625 42.875 37.40625 36.15625 
L 37.40625 0 
L 45.796875 0 
L 45.796875 32.953125 
C 45.796875 40.578125 51.296875 46.6875 58.09375 46.6875 
C 64.203125 46.6875 67.796875 42.78125 67.796875 36.15625 
L 67.796875 0 
L 76.203125 0 
L 76.203125 39.375 
C 76.203125 48.78125 70.796875 54 61 54 
C 54 54 49.796875 51.890625 44.90625 45.984375 
C 41.796875 51.59375 37.59375 54 30.796875 54 
C 23.796875 54 19.203125 51.390625 14.703125 45.078125 
L 14.703125 52.484375 
z
" id="Nimbus_Sans_L_Regular-109"/>
      <path d="M 27.203125 54 
C 12.5 54 3.59375 43.53125 3.59375 25.984375 
C 3.59375 8.453125 12.40625 -2 27.296875 -2 
C 42 -2 51 8.453125 51 25.59375 
C 51 43.625 42.296875 54 27.203125 54 
z
M 27.296875 46.28125 
C 36.703125 46.28125 42.296875 38.625 42.296875 25.703125 
C 42.296875 13.453125 36.5 5.703125 27.296875 5.703125 
C 18 5.703125 12.296875 13.359375 12.296875 25.984375 
C 12.296875 38.53125 18 46.28125 27.296875 46.28125 
z
" id="Nimbus_Sans_L_Regular-111"/>
      <path d="M 9.296875 -21.5 
C 19.296875 -8.34375 25.59375 9.9375 25.59375 25.6875 
C 25.59375 41.5625 19.296875 59.84375 9.296875 73 
L 3.796875 73 
C 12.59375 58.640625 17.5 41.765625 17.5 25.6875 
C 17.5 9.734375 12.59375 -7.25 3.796875 -21.5 
z
" id="Nimbus_Sans_L_Regular-41"/>
     </defs>
     <g style="fill:#262626;" transform="translate(172.01419 373.47454)scale(0.143 -0.143)">
      <use transform="scale(0.996264)" xlink:href="#Nimbus_Sans_L_Regular-71"/>
      <use transform="translate(77.50837 0)scale(0.996264)" xlink:href="#Nimbus_Sans_L_Regular-65"/>
      <use transform="translate(143.958401 0)scale(0.996264)" xlink:href="#Nimbus_Sans_L_Regular-70"/>
      <use transform="translate(204.830032 0)scale(0.996264)" xlink:href="#Nimbus_Sans_L_Regular-70"/>
      <use transform="translate(293.396832 0)scale(0.996264)" xlink:href="#Nimbus_Sans_L_Regular-118"/>
      <use transform="translate(343.210033 0)scale(0.996264)" xlink:href="#Nimbus_Sans_L_Regular-50"/>
      <use transform="translate(398.60171 0)scale(0.996264)" xlink:href="#Nimbus_Sans_L_Regular-46"/>
      <use transform="translate(426.296879 0)scale(0.996264)" xlink:href="#Nimbus_Sans_L_Regular-49"/>
      <use transform="translate(509.383726 0)scale(0.996264)" xlink:href="#EURM10-1"/>
      <use transform="translate(580.445491 0)scale(0.996264)" xlink:href="#Nimbus_Sans_L_Regular-71"/>
      <use transform="translate(685.649031 0)scale(0.996264)" xlink:href="#Nimbus_Sans_L_Regular-40"/>
      <use transform="translate(718.824261 0)scale(0.996264)" xlink:href="#Nimbus_Sans_L_Regular-107"/>
      <use transform="translate(768.637461 0)scale(0.996264)" xlink:href="#Nimbus_Sans_L_Regular-99"/>
      <use transform="translate(818.450662 0)scale(0.996264)" xlink:href="#Nimbus_Sans_L_Regular-97"/>
      <use transform="translate(873.842339 0)scale(0.996264)" xlink:href="#Nimbus_Sans_L_Regular-108"/>
      <use transform="translate(895.959123 0)scale(0.996264)" xlink:href="#Nimbus_Sans_L_Regular-47"/>
      <use transform="translate(923.654293 0)scale(0.996264)" xlink:href="#Nimbus_Sans_L_Regular-109"/>
      <use transform="translate(1006.642723 0)scale(0.996264)" xlink:href="#Nimbus_Sans_L_Regular-111"/>
      <use transform="translate(1062.0344 0)scale(0.996264)" xlink:href="#Nimbus_Sans_L_Regular-108"/>
      <use transform="translate(1084.151184 0)scale(0.996264)" xlink:href="#Nimbus_Sans_L_Regular-41"/>
     </g>
    </g>
   </g>
   <g id="matplotlib.axis_2">
    <g id="ytick_1">
     <g id="line2d_14">
      <path clip-path="url(#pceab402d0f)" d="M 51.022969 337.973908 
L 452.782969 337.973908 
" style="fill:none;stroke:#cccccc;stroke-linecap:round;stroke-width:1.3;"/>
     </g>
     <g id="line2d_15"/>
     <g id="text_8">
      <!-- $-8$ -->
      <g style="fill:#262626;" transform="translate(24.648682 342.587816)scale(0.13 -0.13)">
       <use transform="scale(0.996264)" xlink:href="#CMSY10-0"/>
       <use transform="translate(77.487468 0)scale(0.996264)" xlink:href="#Nimbus_Sans_L_Regular-56"/>
      </g>
     </g>
    </g>
    <g id="ytick_2">
     <g id="line2d_16">
      <path clip-path="url(#pceab402d0f)" d="M 51.022969 272.741908 
L 452.782969 272.741908 
" style="fill:none;stroke:#cccccc;stroke-linecap:round;stroke-width:1.3;"/>
     </g>
     <g id="line2d_17"/>
     <g id="text_9">
      <!-- $-6$ -->
      <g style="fill:#262626;" transform="translate(24.648682 277.355816)scale(0.13 -0.13)">
       <use transform="scale(0.996264)" xlink:href="#CMSY10-0"/>
       <use transform="translate(77.487468 0)scale(0.996264)" xlink:href="#Nimbus_Sans_L_Regular-54"/>
      </g>
     </g>
    </g>
    <g id="ytick_3">
     <g id="line2d_18">
      <path clip-path="url(#pceab402d0f)" d="M 51.022969 207.509908 
L 452.782969 207.509908 
" style="fill:none;stroke:#cccccc;stroke-linecap:round;stroke-width:1.3;"/>
     </g>
     <g id="line2d_19"/>
     <g id="text_10">
      <!-- $-4$ -->
      <g style="fill:#262626;" transform="translate(24.648682 212.123816)scale(0.13 -0.13)">
       <use transform="scale(0.996264)" xlink:href="#CMSY10-0"/>
       <use transform="translate(77.487468 0)scale(0.996264)" xlink:href="#Nimbus_Sans_L_Regular-52"/>
      </g>
     </g>
    </g>
    <g id="ytick_4">
     <g id="line2d_20">
      <path clip-path="url(#pceab402d0f)" d="M 51.022969 142.277908 
L 452.782969 142.277908 
" style="fill:none;stroke:#cccccc;stroke-linecap:round;stroke-width:1.3;"/>
     </g>
     <g id="line2d_21"/>
     <g id="text_11">
      <!-- $-2$ -->
      <g style="fill:#262626;" transform="translate(24.648682 146.891816)scale(0.13 -0.13)">
       <use transform="scale(0.996264)" xlink:href="#CMSY10-0"/>
       <use transform="translate(77.487468 0)scale(0.996264)" xlink:href="#Nimbus_Sans_L_Regular-50"/>
      </g>
     </g>
    </g>
    <g id="ytick_5">
     <g id="line2d_22">
      <path clip-path="url(#pceab402d0f)" d="M 51.022969 77.045908 
L 452.782969 77.045908 
" style="fill:none;stroke:#cccccc;stroke-linecap:round;stroke-width:1.3;"/>
     </g>
     <g id="line2d_23"/>
     <g id="text_12">
      <!-- $0$ -->
      <g style="fill:#262626;" transform="translate(34.722052 81.659816)scale(0.13 -0.13)">
       <use transform="scale(0.996264)" xlink:href="#Nimbus_Sans_L_Regular-48"/>
      </g>
     </g>
    </g>
    <g id="ytick_6">
     <g id="line2d_24">
      <path clip-path="url(#pceab402d0f)" d="M 51.022969 11.813908 
L 452.782969 11.813908 
" style="fill:none;stroke:#cccccc;stroke-linecap:round;stroke-width:1.3;"/>
     </g>
     <g id="line2d_25"/>
     <g id="text_13">
      <!-- $2$ -->
      <g style="fill:#262626;" transform="translate(34.722052 16.427816)scale(0.13 -0.13)">
       <use transform="scale(0.996264)" xlink:href="#Nimbus_Sans_L_Regular-50"/>
      </g>
     </g>
    </g>
    <g id="text_14">
     <!-- SMIRNOFF99Frosst $\Delta$G (kcal/mol) -->
     <defs>
      <path d="M 59.59375 52.109375 
C 59.5 66.484375 49.703125 74.8125 32.90625 74.8125 
C 16.90625 74.8125 7 66.5625 7 53.28125 
C 7 44.328125 11.703125 38.703125 21.296875 36.1875 
L 39.40625 31.359375 
C 48.59375 28.9375 52.796875 25.21875 52.796875 19.484375 
C 52.796875 15.546875 50.703125 11.53125 47.59375 9.328125 
C 44.703125 7.3125 40.09375 6.203125 34.203125 6.203125 
C 26.296875 6.203125 20.90625 8.125 17.40625 12.34375 
C 14.703125 15.5625 13.5 19.09375 13.59375 23.609375 
L 4.796875 23.609375 
C 4.90625 16.890625 6.203125 12.46875 9.09375 8.4375 
C 14.09375 1.609375 22.5 -2 33.59375 -2 
C 42.296875 -2 49.40625 0.015625 54.09375 3.625 
C 59 7.546875 62.09375 14.078125 62.09375 20.421875 
C 62.09375 29.46875 56.5 36.109375 46.59375 38.828125 
L 28.296875 43.765625 
C 19.5 46.171875 16.296875 48.984375 16.296875 54.625 
C 16.296875 62.0625 22.796875 67 32.59375 67 
C 44.203125 67 50.703125 61.671875 50.796875 52.109375 
z
" id="Nimbus_Sans_L_Regular-83"/>
      <path d="M 46.796875 -0.03125 
L 67.296875 61.171875 
L 67.296875 -0.03125 
L 76.09375 -0.03125 
L 76.09375 73 
L 63.203125 73 
L 42 9.390625 
L 20.40625 73 
L 7.5 73 
L 7.5 -0.03125 
L 16.296875 -0.03125 
L 16.296875 61.171875 
L 37 -0.03125 
z
" id="Nimbus_Sans_L_Regular-77"/>
      <path d="M 19.40625 73 
L 10 73 
L 10 -0.03125 
L 19.40625 -0.03125 
z
" id="Nimbus_Sans_L_Regular-73"/>
      <path d="M 18.59375 31.78125 
L 42.59375 31.78125 
C 50.90625 31.78125 54.59375 27.71875 54.59375 18.546875 
L 54.5 11.90625 
C 54.5 7.3125 55.296875 2.828125 56.59375 -0.21875 
L 67.90625 -0.21875 
L 67.90625 2.125 
C 64.40625 4.5625 63.703125 7.21875 63.5 17.078125 
C 63.40625 29.265625 61.5 32.9375 53.59375 36.390625 
C 61.796875 40.359375 65.09375 45.40625 65.09375 53.65625 
C 65.09375 66.140625 57.203125 73 42.90625 73 
L 9.296875 73 
L 9.296875 -0.21875 
L 18.59375 -0.21875 
z
M 18.59375 40 
L 18.59375 64.78125 
L 41.09375 64.78125 
C 46.296875 64.78125 49.296875 64 51.59375 62.015625 
C 54.09375 59.9375 55.40625 56.6875 55.40625 52.34375 
C 55.40625 43.84375 51 40 41.09375 40 
z
" id="Nimbus_Sans_L_Regular-82"/>
      <path d="M 64.59375 73 
L 55.796875 73 
L 55.796875 13.296875 
L 17.703125 73 
L 7.59375 73 
L 7.59375 -0.03125 
L 16.40625 -0.03125 
L 16.40625 59.171875 
L 54.09375 -0.03125 
L 64.59375 -0.03125 
z
" id="Nimbus_Sans_L_Regular-78"/>
      <path d="M 38.90625 74.21875 
C 18 74.21875 3.796875 58.84375 3.796875 36.109375 
C 3.796875 13.359375 18 -2 39 -2 
C 47.796875 -2 55.703125 0.6875 61.59375 5.671875 
C 69.5 12.359375 74.203125 23.625 74.203125 35.5 
C 74.203125 58.953125 60.296875 74.21875 38.90625 74.21875 
z
M 38.90625 66 
C 54.703125 66 64.90625 54.046875 64.90625 35.703125 
C 64.90625 18.171875 54.40625 6.203125 39 6.203125 
C 23.5 6.203125 13.09375 18.171875 13.09375 36.109375 
C 13.09375 54.046875 23.5 66 38.90625 66 
z
" id="Nimbus_Sans_L_Regular-79"/>
      <path d="M 5.296875 16.625 
C 7 4.9375 14.59375 -2 25.40625 -2 
C 33.203125 -2 40.296875 1.78125 44.40625 8.0625 
C 48.90625 14.9375 50.90625 23.625 50.90625 36.484375 
C 50.90625 48.359375 49.09375 55.9375 44.90625 62.21875 
C 41 67.921875 34.796875 71 27 71 
C 13.5 71 3.796875 61.078125 3.796875 47.296875 
C 3.796875 34.21875 12.796875 25 25.59375 25 
C 32.296875 25 37.203125 27.40625 41.796875 32.90625 
C 41.703125 15.484375 36.09375 5.8125 26 5.8125 
C 19.796875 5.8125 15.5 9.75 14.09375 16.625 
z
M 26.90625 63.296875 
C 35.09375 63.296875 41.296875 56.59375 41.296875 47.515625 
C 41.296875 38.921875 35.203125 32.8125 26.59375 32.8125 
C 18.09375 32.8125 12.796875 38.625 12.796875 48 
C 12.796875 56.875 18.796875 63.296875 26.90625 63.296875 
z
" id="Nimbus_Sans_L_Regular-57"/>
      <path d="M 6.90625 52.484375 
L 6.90625 0 
L 15.296875 0 
L 15.296875 27.203125 
C 15.296875 34.703125 17.203125 39.609375 21.203125 42.5 
C 23.796875 44.40625 26.296875 45 32.09375 45 
L 32.09375 53.625 
C 30.703125 53.8125 30 53.8125 28.90625 53.8125 
C 23.5 53.8125 19.40625 50.625 14.59375 42.90625 
L 14.59375 52.484375 
z
" id="Nimbus_Sans_L_Regular-114"/>
      <path d="M 43.796875 37.921875 
C 43.703125 48.203125 36.90625 54 24.796875 54 
C 12.59375 54 4.703125 47.71875 4.703125 38.0625 
C 4.703125 29.890625 8.90625 26.015625 21.296875 23.03125 
L 29.09375 21.140625 
C 34.90625 19.734375 37.203125 17.65625 37.203125 13.875 
C 37.203125 9 32.296875 5.703125 25 5.703125 
C 20.5 5.703125 16.703125 7 14.59375 9.1875 
C 13.296875 10.6875 12.703125 12.171875 12.203125 15.84375 
L 3.40625 15.84375 
C 3.796875 3.765625 10.59375 -2 24.296875 -2 
C 37.5 -2 45.90625 4.453125 45.90625 14.515625 
C 45.90625 22.28125 41.5 26.578125 31.09375 29.0625 
L 23.09375 30.953125 
C 16.296875 32.53125 13.40625 34.734375 13.40625 38.40625 
C 13.40625 43.1875 17.703125 46.28125 24.5 46.28125 
C 31.203125 46.28125 34.796875 43.390625 35 37.921875 
z
" id="Nimbus_Sans_L_Regular-115"/>
      <path d="M 25.40625 52.8125 
L 16.796875 52.8125 
L 16.796875 67 
L 8.5 67 
L 8.5 52.8125 
L 1.40625 52.8125 
L 1.40625 46 
L 8.5 46 
L 8.5 6.3125 
C 8.5 1 12.09375 -2 18.59375 -2 
C 20.59375 -2 22.59375 -1.8125 25.40625 -1.296875 
L 25.40625 5.71875 
C 24.296875 5.40625 23 5.3125 21.40625 5.3125 
C 17.796875 5.3125 16.796875 6.3125 16.796875 10.015625 
L 16.796875 46 
L 25.40625 46 
z
" id="Nimbus_Sans_L_Regular-116"/>
     </defs>
     <g style="fill:#262626;" transform="translate(17.614239 284.928308)rotate(-90)scale(0.143 -0.143)">
      <use transform="scale(0.996264)" xlink:href="#Nimbus_Sans_L_Regular-83"/>
      <use transform="translate(66.450031 0)scale(0.996264)" xlink:href="#Nimbus_Sans_L_Regular-77"/>
      <use transform="translate(149.438461 0)scale(0.996264)" xlink:href="#Nimbus_Sans_L_Regular-73"/>
      <use transform="translate(177.133631 0)scale(0.996264)" xlink:href="#Nimbus_Sans_L_Regular-82"/>
      <use transform="translate(249.063616 0)scale(0.996264)" xlink:href="#Nimbus_Sans_L_Regular-78"/>
      <use transform="translate(320.993601 0)scale(0.996264)" xlink:href="#Nimbus_Sans_L_Regular-79"/>
      <use transform="translate(398.501971 0)scale(0.996264)" xlink:href="#Nimbus_Sans_L_Regular-70"/>
      <use transform="translate(459.373601 0)scale(0.996264)" xlink:href="#Nimbus_Sans_L_Regular-70"/>
      <use transform="translate(520.245232 0)scale(0.996264)" xlink:href="#Nimbus_Sans_L_Regular-57"/>
      <use transform="translate(575.636909 0)scale(0.996264)" xlink:href="#Nimbus_Sans_L_Regular-57"/>
      <use transform="translate(631.028586 0)scale(0.996264)" xlink:href="#Nimbus_Sans_L_Regular-70"/>
      <use transform="translate(687.417485 0)scale(0.996264)" xlink:href="#Nimbus_Sans_L_Regular-114"/>
      <use transform="translate(720.592714 0)scale(0.996264)" xlink:href="#Nimbus_Sans_L_Regular-111"/>
      <use transform="translate(775.984391 0)scale(0.996264)" xlink:href="#Nimbus_Sans_L_Regular-115"/>
      <use transform="translate(825.797592 0)scale(0.996264)" xlink:href="#Nimbus_Sans_L_Regular-115"/>
      <use transform="translate(875.610792 0)scale(0.996264)" xlink:href="#Nimbus_Sans_L_Regular-116"/>
      <use transform="translate(931.001132 0)scale(0.996264)" xlink:href="#EURM10-1"/>
      <use transform="translate(1002.062897 0)scale(0.996264)" xlink:href="#Nimbus_Sans_L_Regular-71"/>
      <use transform="translate(1107.266437 0)scale(0.996264)" xlink:href="#Nimbus_Sans_L_Regular-40"/>
      <use transform="translate(1140.441667 0)scale(0.996264)" xlink:href="#Nimbus_Sans_L_Regular-107"/>
      <use transform="translate(1190.254867 0)scale(0.996264)" xlink:href="#Nimbus_Sans_L_Regular-99"/>
      <use transform="translate(1240.068068 0)scale(0.996264)" xlink:href="#Nimbus_Sans_L_Regular-97"/>
      <use transform="translate(1295.459744 0)scale(0.996264)" xlink:href="#Nimbus_Sans_L_Regular-108"/>
      <use transform="translate(1317.576529 0)scale(0.996264)" xlink:href="#Nimbus_Sans_L_Regular-47"/>
      <use transform="translate(1345.271698 0)scale(0.996264)" xlink:href="#Nimbus_Sans_L_Regular-109"/>
      <use transform="translate(1428.260129 0)scale(0.996264)" xlink:href="#Nimbus_Sans_L_Regular-111"/>
      <use transform="translate(1483.651806 0)scale(0.996264)" xlink:href="#Nimbus_Sans_L_Regular-108"/>
      <use transform="translate(1505.76859 0)scale(0.996264)" xlink:href="#Nimbus_Sans_L_Regular-41"/>
     </g>
    </g>
   </g>
   <g id="patch_3">
    <path clip-path="url(#pceab402d0f)" d="M 285.44909 128.826227 
C 286.621118 128.826227 287.7453 128.448198 288.574049 127.775397 
C 289.402798 127.102595 289.86845 126.189953 289.86845 125.238467 
C 289.86845 124.286982 289.402798 123.37434 288.574049 122.701538 
C 287.7453 122.028736 286.621118 121.650707 285.44909 121.650707 
C 284.277062 121.650707 283.152879 122.028736 282.32413 122.701538 
C 281.495381 123.37434 281.02973 124.286982 281.02973 125.238467 
C 281.02973 126.189953 281.495381 127.102595 282.32413 127.775397 
C 283.152879 128.448198 284.277062 128.826227 285.44909 128.826227 
z
" style="fill:none;opacity:0;"/>
   </g>
   <g id="patch_4">
    <path clip-path="url(#pceab402d0f)" d="M 273.156969 125.676775 
C 274.328997 125.676775 275.45318 125.298746 276.281929 124.625944 
C 277.110678 123.953143 277.576329 123.0405 277.576329 122.089015 
C 277.576329 121.13753 277.110678 120.224887 276.281929 119.552085 
C 275.45318 118.879284 274.328997 118.501255 273.156969 118.501255 
C 271.984941 118.501255 270.860759 118.879284 270.03201 119.552085 
C 269.203261 120.224887 268.737609 121.13753 268.737609 122.089015 
C 268.737609 123.0405 269.203261 123.953143 270.03201 124.625944 
C 270.860759 125.298746 271.984941 125.676775 273.156969 125.676775 
z
" style="fill:none;opacity:0;"/>
   </g>
   <g id="patch_5">
    <path clip-path="url(#pceab402d0f)" d="M 212.886119 144.211848 
C 214.058147 144.211848 215.18233 143.833819 216.011079 143.161018 
C 216.839828 142.488216 217.305479 141.575573 217.305479 140.624088 
C 217.305479 139.672603 216.839828 138.75996 216.011079 138.087159 
C 215.18233 137.414357 214.058147 137.036328 212.886119 137.036328 
C 211.714091 137.036328 210.589909 137.414357 209.76116 138.087159 
C 208.932411 138.75996 208.466759 139.672603 208.466759 140.624088 
C 208.466759 141.575573 208.932411 142.488216 209.76116 143.161018 
C 210.589909 143.833819 211.714091 144.211848 212.886119 144.211848 
z
" style="fill:none;opacity:0;"/>
   </g>
   <g id="patch_6">
    <path clip-path="url(#pceab402d0f)" d="M 201.644654 141.623012 
C 202.816682 141.623012 203.940864 141.244983 204.769613 140.572182 
C 205.598362 139.89938 206.064014 138.986737 206.064014 138.035252 
C 206.064014 137.083767 205.598362 136.171124 204.769613 135.498323 
C 203.940864 134.825521 202.816682 134.447492 201.644654 134.447492 
C 200.472626 134.447492 199.348443 134.825521 198.519694 135.498323 
C 197.690945 136.171124 197.225294 137.083767 197.225294 138.035252 
C 197.225294 138.986737 197.690945 139.89938 198.519694 140.572182 
C 199.348443 141.244983 200.472626 141.623012 201.644654 141.623012 
z
" style="fill:none;opacity:0;"/>
   </g>
   <g id="patch_7">
    <path clip-path="url(#pceab402d0f)" d="M 142.951342 168.236361 
C 144.12337 168.236361 145.247553 167.858332 146.076302 167.18553 
C 146.905051 166.512729 147.370702 165.600086 147.370702 164.648601 
C 147.370702 163.697116 146.905051 162.784473 146.076302 162.111672 
C 145.247553 161.43887 144.12337 161.060841 142.951342 161.060841 
C 141.779314 161.060841 140.655132 161.43887 139.826383 162.111672 
C 138.997634 162.784473 138.531982 163.697116 138.531982 164.648601 
C 138.531982 165.600086 138.997634 166.512729 139.826383 167.18553 
C 140.655132 167.858332 141.779314 168.236361 142.951342 168.236361 
z
" style="fill:none;opacity:0;"/>
   </g>
   <g id="patch_8">
    <path clip-path="url(#pceab402d0f)" d="M 120.678796 179.211344 
C 121.850824 179.211344 122.975007 178.833315 123.803756 178.160513 
C 124.632505 177.487712 125.098156 176.575069 125.098156 175.623584 
C 125.098156 174.672099 124.632505 173.759456 123.803756 173.086654 
C 122.975007 172.413853 121.850824 172.035824 120.678796 172.035824 
C 119.506768 172.035824 118.382586 172.413853 117.553837 173.086654 
C 116.725088 173.759456 116.259436 174.672099 116.259436 175.623584 
C 116.259436 176.575069 116.725088 177.487712 117.553837 178.160513 
C 118.382586 178.833315 119.506768 179.211344 120.678796 179.211344 
z
" style="fill:none;opacity:0;"/>
   </g>
   <g id="patch_9">
    <path clip-path="url(#pceab402d0f)" d="M 136.111089 195.733454 
C 137.283117 195.733454 138.4073 195.355425 139.236048 194.682623 
C 140.064797 194.009822 140.530449 193.097179 140.530449 192.145694 
C 140.530449 191.194209 140.064797 190.281566 139.236048 189.608764 
C 138.4073 188.935963 137.283117 188.557934 136.111089 188.557934 
C 134.939061 188.557934 133.814879 188.935963 132.98613 189.608764 
C 132.157381 190.281566 131.691729 191.194209 131.691729 192.145694 
C 131.691729 193.097179 132.157381 194.009822 132.98613 194.682623 
C 133.814879 195.355425 134.939061 195.733454 136.111089 195.733454 
z
" style="fill:none;opacity:0;"/>
   </g>
   <g id="patch_10">
    <path clip-path="url(#pceab402d0f)" d="M 88.625239 176.70724 
C 89.797267 176.70724 90.921449 176.329211 91.750198 175.656409 
C 92.578947 174.983608 93.044599 174.070965 93.044599 173.11948 
C 93.044599 172.167995 92.578947 171.255352 91.750198 170.58255 
C 90.921449 169.909749 89.797267 169.53172 88.625239 169.53172 
C 87.453211 169.53172 86.329028 169.909749 85.500279 170.58255 
C 84.67153 171.255352 84.205879 172.167995 84.205879 173.11948 
C 84.205879 174.070965 84.67153 174.983608 85.500279 175.656409 
C 86.329028 176.329211 87.453211 176.70724 88.625239 176.70724 
z
" style="fill:none;opacity:0;"/>
   </g>
   <g id="line2d_26">
    <defs>
     <path d="M 0 4 
C 1.060812 4 2.078319 3.578535 2.828427 2.828427 
C 3.578535 2.078319 4 1.060812 4 0 
C 4 -1.060812 3.578535 -2.078319 2.828427 -2.828427 
C 2.078319 -3.578535 1.060812 -4 0 -4 
C -1.060812 -4 -2.078319 -3.578535 -2.828427 -2.828427 
C -3.578535 -2.078319 -4 -1.060812 -4 0 
C -4 1.060812 -3.578535 2.078319 -2.828427 2.828427 
C -2.078319 3.578535 -1.060812 4 0 4 
z
" id="m158efc9679" style="stroke:#000000;stroke-width:0.2;"/>
    </defs>
    <g clip-path="url(#pceab402d0f)">
     <use style="fill:#b2b2b2;stroke:#000000;stroke-width:0.2;" x="378.4579" xlink:href="#m158efc9679" y="182.62366"/>
    </g>
   </g>
   <g id="line2d_27">
    <g clip-path="url(#pceab402d0f)">
     <use style="fill:#b2b2b2;stroke:#000000;stroke-width:0.2;" x="254.693747" xlink:href="#m158efc9679" y="94.807419"/>
    </g>
   </g>
   <g id="line2d_28">
    <g clip-path="url(#pceab402d0f)">
     <use style="fill:#b2b2b2;stroke:#000000;stroke-width:0.2;" x="317.421733" xlink:href="#m158efc9679" y="70.451773"/>
    </g>
   </g>
   <g id="line2d_29">
    <g clip-path="url(#pceab402d0f)">
     <use style="fill:#b2b2b2;stroke:#000000;stroke-width:0.2;" x="247.750872" xlink:href="#m158efc9679" y="124.038516"/>
    </g>
   </g>
   <g id="line2d_30">
    <g clip-path="url(#pceab402d0f)">
     <use style="fill:#b2b2b2;stroke:#000000;stroke-width:0.2;" x="289.495106" xlink:href="#m158efc9679" y="102.795851"/>
    </g>
   </g>
   <g id="line2d_31">
    <g clip-path="url(#pceab402d0f)">
     <use style="fill:#b2b2b2;stroke:#000000;stroke-width:0.2;" x="394.147287" xlink:href="#m158efc9679" y="103.64405"/>
    </g>
   </g>
   <g id="line2d_32">
    <g clip-path="url(#pceab402d0f)">
     <use style="fill:#b2b2b2;stroke:#000000;stroke-width:0.2;" x="224.36797" xlink:href="#m158efc9679" y="108.997578"/>
    </g>
   </g>
   <g id="line2d_33">
    <g clip-path="url(#pceab402d0f)">
     <use style="fill:#b2b2b2;stroke:#000000;stroke-width:0.2;" x="207.363506" xlink:href="#m158efc9679" y="152.723025"/>
    </g>
   </g>
   <g id="line2d_34">
    <g clip-path="url(#pceab402d0f)">
     <use style="fill:#b2b2b2;stroke:#000000;stroke-width:0.2;" x="367.442086" xlink:href="#m158efc9679" y="65.896405"/>
    </g>
   </g>
   <g id="line2d_35">
    <g clip-path="url(#pceab402d0f)">
     <use style="fill:#b2b2b2;stroke:#000000;stroke-width:0.2;" x="416.801898" xlink:href="#m158efc9679" y="61.87626"/>
    </g>
   </g>
   <g id="line2d_36">
    <g clip-path="url(#pceab402d0f)">
     <use style="fill:#b2b2b2;stroke:#000000;stroke-width:0.2;" x="237.786678" xlink:href="#m158efc9679" y="134.556795"/>
    </g>
   </g>
   <g id="line2d_37">
    <g clip-path="url(#pceab402d0f)">
     <use style="fill:#b2b2b2;stroke:#000000;stroke-width:0.2;" x="220.158184" xlink:href="#m158efc9679" y="128.089375"/>
    </g>
   </g>
   <g id="line2d_38">
    <g clip-path="url(#pceab402d0f)">
     <use style="fill:#b2b2b2;stroke:#000000;stroke-width:0.2;" x="146.547934" xlink:href="#m158efc9679" y="175.737109"/>
    </g>
   </g>
   <g id="line2d_39">
    <g clip-path="url(#pceab402d0f)">
     <use style="fill:#b2b2b2;stroke:#000000;stroke-width:0.2;" x="152.069004" xlink:href="#m158efc9679" y="170.627435"/>
    </g>
   </g>
   <g id="line2d_40">
    <g clip-path="url(#pceab402d0f)">
     <use style="fill:#b2b2b2;stroke:#000000;stroke-width:0.2;" x="217.481281" xlink:href="#m158efc9679" y="190.549391"/>
    </g>
   </g>
   <g id="line2d_41">
    <g clip-path="url(#pceab402d0f)">
     <use style="fill:#b2b2b2;stroke:#000000;stroke-width:0.2;" x="134.028896" xlink:href="#m158efc9679" y="200.255737"/>
    </g>
   </g>
   <g id="line2d_42">
    <g clip-path="url(#pceab402d0f)">
     <use style="fill:#b2b2b2;stroke:#000000;stroke-width:0.2;" x="183.958507" xlink:href="#m158efc9679" y="161.448034"/>
    </g>
   </g>
   <g id="line2d_43">
    <g clip-path="url(#pceab402d0f)">
     <use style="fill:#b2b2b2;stroke:#000000;stroke-width:0.2;" x="209.473048" xlink:href="#m158efc9679" y="135.914928"/>
    </g>
   </g>
   <g id="line2d_44">
    <g clip-path="url(#pceab402d0f)">
     <use style="fill:#b2b2b2;stroke:#000000;stroke-width:0.2;" x="164.700712" xlink:href="#m158efc9679" y="159.440317"/>
    </g>
   </g>
   <g id="line2d_45">
    <g clip-path="url(#pceab402d0f)">
     <use style="fill:#b2b2b2;stroke:#000000;stroke-width:0.2;" x="164.945834" xlink:href="#m158efc9679" y="177.019165"/>
    </g>
   </g>
   <g id="line2d_46">
    <g clip-path="url(#pceab402d0f)">
     <use style="fill:#b2b2b2;stroke:#000000;stroke-width:0.2;" x="208.851609" xlink:href="#m158efc9679" y="154.282513"/>
    </g>
   </g>
   <g id="line2d_47">
    <g clip-path="url(#pceab402d0f)">
     <use style="fill:#b2b2b2;stroke:#000000;stroke-width:0.2;" x="131.231107" xlink:href="#m158efc9679" y="165.122209"/>
    </g>
   </g>
   <g id="line2d_48">
    <g clip-path="url(#pceab402d0f)">
     <use style="fill:#b2b2b2;stroke:#000000;stroke-width:0.2;" x="178.202661" xlink:href="#m158efc9679" y="204.69176"/>
    </g>
   </g>
   <g id="line2d_49">
    <g clip-path="url(#pceab402d0f)">
     <use style="fill:#b2b2b2;stroke:#000000;stroke-width:0.2;" x="189.852781" xlink:href="#m158efc9679" y="149.599537"/>
    </g>
   </g>
   <g id="line2d_50">
    <g clip-path="url(#pceab402d0f)">
     <use style="fill:#b2b2b2;stroke:#000000;stroke-width:0.2;" x="379.756264" xlink:href="#m158efc9679" y="52.127062"/>
    </g>
   </g>
   <g id="line2d_51">
    <g clip-path="url(#pceab402d0f)">
     <use style="fill:#b2b2b2;stroke:#000000;stroke-width:0.2;" x="214.361181" xlink:href="#m158efc9679" y="154.70074"/>
    </g>
   </g>
   <g id="line2d_52">
    <g clip-path="url(#pceab402d0f)">
     <use style="fill:#b2b2b2;stroke:#000000;stroke-width:0.2;" x="256.712864" xlink:href="#m158efc9679" y="107.20443"/>
    </g>
   </g>
   <g id="line2d_53">
    <g clip-path="url(#pceab402d0f)">
     <use style="fill:#b2b2b2;stroke:#000000;stroke-width:0.2;" x="245.222689" xlink:href="#m158efc9679" y="115.89711"/>
    </g>
   </g>
   <g id="line2d_54">
    <g clip-path="url(#pceab402d0f)">
     <use style="fill:#b2b2b2;stroke:#000000;stroke-width:0.2;" x="169.006467" xlink:href="#m158efc9679" y="172.722357"/>
    </g>
   </g>
   <g id="line2d_55">
    <g clip-path="url(#pceab402d0f)">
     <use style="fill:#b2b2b2;stroke:#000000;stroke-width:0.2;" x="210.620607" xlink:href="#m158efc9679" y="142.642161"/>
    </g>
   </g>
   <g id="line2d_56">
    <g clip-path="url(#pceab402d0f)">
     <use style="fill:#b2b2b2;stroke:#000000;stroke-width:0.2;" x="151.656947" xlink:href="#m158efc9679" y="192.751302"/>
    </g>
   </g>
   <g id="line2d_57">
    <g clip-path="url(#pceab402d0f)">
     <use style="fill:#b2b2b2;stroke:#000000;stroke-width:0.2;" x="126.428629" xlink:href="#m158efc9679" y="201.962499"/>
    </g>
   </g>
   <g id="line2d_58">
    <g clip-path="url(#pceab402d0f)">
     <use style="fill:#b2b2b2;stroke:#000000;stroke-width:0.2;" x="190.182477" xlink:href="#m158efc9679" y="205.765466"/>
    </g>
   </g>
   <g id="line2d_59">
    <g clip-path="url(#pceab402d0f)">
     <use style="fill:#b2b2b2;stroke:#000000;stroke-width:0.2;" x="330.398296" xlink:href="#m158efc9679" y="135.34859"/>
    </g>
   </g>
   <g id="line2d_60">
    <g clip-path="url(#pceab402d0f)">
     <use style="fill:#b2b2b2;stroke:#000000;stroke-width:0.2;" x="264.169558" xlink:href="#m158efc9679" y="104.522992"/>
    </g>
   </g>
   <g id="line2d_61">
    <g clip-path="url(#pceab402d0f)">
     <use style="fill:#b2b2b2;stroke:#000000;stroke-width:0.2;" x="154.631526" xlink:href="#m158efc9679" y="175.343036"/>
    </g>
   </g>
   <g id="line2d_62">
    <g clip-path="url(#pceab402d0f)">
     <use style="fill:#b2b2b2;stroke:#000000;stroke-width:0.2;" x="133.697938" xlink:href="#m158efc9679" y="192.133833"/>
    </g>
   </g>
   <g id="line2d_63">
    <g clip-path="url(#pceab402d0f)">
     <use style="fill:#b2b2b2;stroke:#000000;stroke-width:0.2;" x="136.012095" xlink:href="#m158efc9679" y="225.368308"/>
    </g>
   </g>
   <g id="line2d_64">
    <g clip-path="url(#pceab402d0f)">
     <use style="fill:#b2b2b2;stroke:#000000;stroke-width:0.2;" x="96.10233" xlink:href="#m158efc9679" y="189.005175"/>
    </g>
   </g>
   <g id="line2d_65">
    <g clip-path="url(#pceab402d0f)">
     <use style="fill:#b2b2b2;stroke:#000000;stroke-width:0.2;" x="106.047774" xlink:href="#m158efc9679" y="223.849364"/>
    </g>
   </g>
   <g id="line2d_66">
    <g clip-path="url(#pceab402d0f)">
     <use style="fill:#b2b2b2;stroke:#000000;stroke-width:0.2;" x="242.422731" xlink:href="#m158efc9679" y="136.40002"/>
    </g>
   </g>
   <g id="line2d_67">
    <g clip-path="url(#pceab402d0f)">
     <use style="fill:#b2b2b2;stroke:#000000;stroke-width:0.2;" x="286.925927" xlink:href="#m158efc9679" y="162.63446"/>
    </g>
   </g>
   <g id="line2d_68">
    <g clip-path="url(#pceab402d0f)">
     <use style="fill:#b2b2b2;stroke:#000000;stroke-width:0.2;" x="212.871764" xlink:href="#m158efc9679" y="86.516156"/>
    </g>
   </g>
   <g id="line2d_69">
    <g clip-path="url(#pceab402d0f)">
     <use style="fill:#b2b2b2;stroke:#000000;stroke-width:0.2;" x="212.700285" xlink:href="#m158efc9679" y="152.505634"/>
    </g>
   </g>
   <g id="line2d_70">
    <g clip-path="url(#pceab402d0f)">
     <use style="fill:#b2b2b2;stroke:#000000;stroke-width:0.2;" x="297.577284" xlink:href="#m158efc9679" y="135.084639"/>
    </g>
   </g>
   <g id="line2d_71">
    <g clip-path="url(#pceab402d0f)">
     <use style="fill:#b2b2b2;stroke:#000000;stroke-width:0.2;" x="330.768437" xlink:href="#m158efc9679" y="114.900111"/>
    </g>
   </g>
   <g id="line2d_72">
    <g clip-path="url(#pceab402d0f)">
     <use style="fill:#b2b2b2;stroke:#000000;stroke-width:0.2;" x="285.44909" xlink:href="#m158efc9679" y="125.238467"/>
    </g>
   </g>
   <g id="line2d_73">
    <g clip-path="url(#pceab402d0f)">
     <use style="fill:#b2b2b2;stroke:#000000;stroke-width:0.2;" x="273.156969" xlink:href="#m158efc9679" y="122.089015"/>
    </g>
   </g>
   <g id="line2d_74">
    <g clip-path="url(#pceab402d0f)">
     <use style="fill:#b2b2b2;stroke:#000000;stroke-width:0.2;" x="120.678796" xlink:href="#m158efc9679" y="175.623584"/>
    </g>
   </g>
   <g id="line2d_75">
    <g clip-path="url(#pceab402d0f)">
     <use style="fill:#b2b2b2;stroke:#000000;stroke-width:0.2;" x="142.951342" xlink:href="#m158efc9679" y="164.648601"/>
    </g>
   </g>
   <g id="line2d_76">
    <g clip-path="url(#pceab402d0f)">
     <use style="fill:#b2b2b2;stroke:#000000;stroke-width:0.2;" x="88.625239" xlink:href="#m158efc9679" y="173.11948"/>
    </g>
   </g>
   <g id="line2d_77">
    <g clip-path="url(#pceab402d0f)">
     <use style="fill:#b2b2b2;stroke:#000000;stroke-width:0.2;" x="136.111089" xlink:href="#m158efc9679" y="192.145694"/>
    </g>
   </g>
   <g id="line2d_78">
    <g clip-path="url(#pceab402d0f)">
     <use style="fill:#b2b2b2;stroke:#000000;stroke-width:0.2;" x="201.644654" xlink:href="#m158efc9679" y="138.035252"/>
    </g>
   </g>
   <g id="line2d_79">
    <g clip-path="url(#pceab402d0f)">
     <use style="fill:#b2b2b2;stroke:#000000;stroke-width:0.2;" x="212.886119" xlink:href="#m158efc9679" y="140.624088"/>
    </g>
   </g>
   <g id="line2d_80">
    <g clip-path="url(#pceab402d0f)">
     <use style="fill:#b2b2b2;stroke:#000000;stroke-width:0.2;" x="242.864739" xlink:href="#m158efc9679" y="148.629031"/>
    </g>
   </g>
   <g id="line2d_81">
    <g clip-path="url(#pceab402d0f)">
     <use style="fill:#b2b2b2;stroke:#000000;stroke-width:0.2;" x="287.208353" xlink:href="#m158efc9679" y="120.728986"/>
    </g>
   </g>
   <g id="line2d_82">
    <g clip-path="url(#pceab402d0f)">
     <use style="fill:#b2b2b2;stroke:#000000;stroke-width:0.2;" x="206.768946" xlink:href="#m158efc9679" y="187.481053"/>
    </g>
   </g>
   <g id="line2d_83">
    <g clip-path="url(#pceab402d0f)">
     <use style="fill:#b2b2b2;stroke:#000000;stroke-width:0.2;" x="217.53807" xlink:href="#m158efc9679" y="149.16239"/>
    </g>
   </g>
   <g id="line2d_84">
    <g clip-path="url(#pceab402d0f)">
     <use style="fill:#b2b2b2;stroke:#000000;stroke-width:0.2;" x="243.466475" xlink:href="#m158efc9679" y="132.126686"/>
    </g>
   </g>
   <g id="line2d_85">
    <g clip-path="url(#pceab402d0f)">
     <use style="fill:#b2b2b2;stroke:#000000;stroke-width:0.2;" x="247.796034" xlink:href="#m158efc9679" y="169.278919"/>
    </g>
   </g>
   <g id="line2d_86">
    <g clip-path="url(#pceab402d0f)">
     <use style="fill:#b2b2b2;stroke:#000000;stroke-width:0.2;" x="146.297445" xlink:href="#m158efc9679" y="167.85017"/>
    </g>
   </g>
   <g id="line2d_87">
    <g clip-path="url(#pceab402d0f)">
     <use style="fill:#b2b2b2;stroke:#000000;stroke-width:0.2;" x="139.6647" xlink:href="#m158efc9679" y="168.264218"/>
    </g>
   </g>
   <g id="line2d_88">
    <g clip-path="url(#pceab402d0f)">
     <use style="fill:#b2b2b2;stroke:#000000;stroke-width:0.2;" x="141.035373" xlink:href="#m158efc9679" y="185.077436"/>
    </g>
   </g>
   <g id="line2d_89">
    <g clip-path="url(#pceab402d0f)">
     <use style="fill:#b2b2b2;stroke:#000000;stroke-width:0.2;" x="131.0422" xlink:href="#m158efc9679" y="189.464304"/>
    </g>
   </g>
   <g id="line2d_90">
    <g clip-path="url(#pceab402d0f)">
     <use style="fill:#b2b2b2;stroke:#000000;stroke-width:0.2;" x="151.783939" xlink:href="#m158efc9679" y="180.0356"/>
    </g>
   </g>
   <g id="line2d_91">
    <g clip-path="url(#pceab402d0f)">
     <use style="fill:#b2b2b2;stroke:#000000;stroke-width:0.2;" x="220.609887" xlink:href="#m158efc9679" y="158.185709"/>
    </g>
   </g>
   <g id="line2d_92">
    <g clip-path="url(#pceab402d0f)">
     <use style="fill:#b2b2b2;stroke:#000000;stroke-width:0.2;" x="294.388185" xlink:href="#m158efc9679" y="139.318289"/>
    </g>
   </g>
   <g id="line2d_93">
    <g clip-path="url(#pceab402d0f)">
     <use style="fill:#b2b2b2;stroke:#000000;stroke-width:0.2;" x="192.291512" xlink:href="#m158efc9679" y="184.726033"/>
    </g>
   </g>
   <g id="line2d_94">
    <g clip-path="url(#pceab402d0f)">
     <use style="fill:#b2b2b2;stroke:#000000;stroke-width:0.2;" x="267.705882" xlink:href="#m158efc9679" y="164.413906"/>
    </g>
   </g>
   <g id="line2d_95">
    <g clip-path="url(#pceab402d0f)">
     <use style="fill:#b2b2b2;stroke:#000000;stroke-width:0.2;" x="282.445544" xlink:href="#m158efc9679" y="155.053344"/>
    </g>
   </g>
   <g id="line2d_96">
    <g clip-path="url(#pceab402d0f)">
     <use style="fill:#b2b2b2;stroke:#000000;stroke-width:0.2;" x="235.707666" xlink:href="#m158efc9679" y="212.166903"/>
    </g>
   </g>
   <g id="line2d_97">
    <g clip-path="url(#pceab402d0f)">
     <use style="fill:#b2b2b2;stroke:#000000;stroke-width:0.2;" x="287.208296" xlink:href="#m158efc9679" y="143.180415"/>
    </g>
   </g>
   <g id="line2d_98">
    <g clip-path="url(#pceab402d0f)">
     <use style="fill:#b2b2b2;stroke:#000000;stroke-width:0.2;" x="260.958977" xlink:href="#m158efc9679" y="165.560236"/>
    </g>
   </g>
   <g id="line2d_99">
    <g clip-path="url(#pceab402d0f)">
     <use style="fill:#b2b2b2;stroke:#000000;stroke-width:0.2;" x="252.499985" xlink:href="#m158efc9679" y="168.302244"/>
    </g>
   </g>
   <g id="line2d_100">
    <g clip-path="url(#pceab402d0f)">
     <use style="fill:#b2b2b2;stroke:#000000;stroke-width:0.2;" x="274.68663" xlink:href="#m158efc9679" y="129.667175"/>
    </g>
   </g>
   <g id="line2d_101">
    <g clip-path="url(#pceab402d0f)">
     <use style="fill:#b2b2b2;stroke:#000000;stroke-width:0.2;" x="305.472531" xlink:href="#m158efc9679" y="146.759916"/>
    </g>
   </g>
   <g id="line2d_102">
    <g clip-path="url(#pceab402d0f)">
     <use style="fill:#b2b2b2;stroke:#000000;stroke-width:0.2;" x="161.975357" xlink:href="#m158efc9679" y="184.861233"/>
    </g>
   </g>
   <g id="line2d_103">
    <g clip-path="url(#pceab402d0f)">
     <use style="fill:#b2b2b2;stroke:#000000;stroke-width:0.2;" x="204.674109" xlink:href="#m158efc9679" y="179.405191"/>
    </g>
   </g>
   <g id="line2d_104">
    <g clip-path="url(#pceab402d0f)">
     <use style="fill:#b2b2b2;stroke:#000000;stroke-width:0.2;" x="253.070002" xlink:href="#m158efc9679" y="147.026777"/>
    </g>
   </g>
   <g id="line2d_105">
    <g clip-path="url(#pceab402d0f)">
     <use style="fill:#b2b2b2;stroke:#000000;stroke-width:0.2;" x="207.032416" xlink:href="#m158efc9679" y="170.334534"/>
    </g>
   </g>
   <g id="line2d_106">
    <g clip-path="url(#pceab402d0f)">
     <use style="fill:#b2b2b2;stroke:#000000;stroke-width:0.2;" x="184.631998" xlink:href="#m158efc9679" y="192.789821"/>
    </g>
   </g>
   <g id="line2d_107">
    <g clip-path="url(#pceab402d0f)">
     <use style="fill:#b2b2b2;stroke:#000000;stroke-width:0.2;" x="246.287445" xlink:href="#m158efc9679" y="172.013748"/>
    </g>
   </g>
   <g id="line2d_108">
    <g clip-path="url(#pceab402d0f)">
     <use style="fill:#b2b2b2;stroke:#000000;stroke-width:0.2;" x="220.232072" xlink:href="#m158efc9679" y="161.125711"/>
    </g>
   </g>
   <g id="line2d_109">
    <g clip-path="url(#pceab402d0f)">
     <use style="fill:#b2b2b2;stroke:#000000;stroke-width:0.2;" x="311.120778" xlink:href="#m158efc9679" y="127.302927"/>
    </g>
   </g>
   <g id="line2d_110">
    <g clip-path="url(#pceab402d0f)">
     <use style="fill:#b2b2b2;stroke:#000000;stroke-width:0.2;" x="307.765693" xlink:href="#m158efc9679" y="139.992291"/>
    </g>
   </g>
   <g id="line2d_111">
    <g clip-path="url(#pceab402d0f)">
     <use style="fill:#b2b2b2;stroke:#000000;stroke-width:0.2;" x="294.485363" xlink:href="#m158efc9679" y="112.507893"/>
    </g>
   </g>
   <g id="patch_11">
    <path d="M 51.022969 337.973908 
L 51.022969 11.813908 
" style="fill:none;stroke:#cccccc;stroke-linecap:square;stroke-linejoin:miter;"/>
   </g>
   <g id="patch_12">
    <path d="M 452.782969 337.973908 
L 452.782969 11.813908 
" style="fill:none;stroke:#cccccc;stroke-linecap:square;stroke-linejoin:miter;"/>
   </g>
   <g id="patch_13">
    <path d="M 51.022969 337.973908 
L 452.782969 337.973908 
" style="fill:none;stroke:#cccccc;stroke-linecap:square;stroke-linejoin:miter;"/>
   </g>
   <g id="patch_14">
    <path d="M 51.022969 11.813908 
L 452.782969 11.813908 
" style="fill:none;stroke:#cccccc;stroke-linecap:square;stroke-linejoin:miter;"/>
   </g>
   <g id="patch_15">
    <path d="M 361.566915 133.939277 
Q 324.499894 129.702253 287.432873 125.465228 
" style="fill:none;stroke:#000000;stroke-linecap:round;stroke-width:0.39;"/>
   </g>
   <g id="text_15">
    <g id="patch_16">
     <path d="M 363.747672 150.353437 
L 432.100549 150.353437 
L 432.100549 125.836891 
L 363.747672 125.836891 
z
" style="fill:#ffffff;opacity:0.8;stroke:#000000;stroke-linejoin:miter;stroke-width:0.39;"/>
    </g>
    <!-- b-cbu-p -->
    <defs>
     <path d="M 5.40625 73 
L 5.40625 -0.03125 
L 12.90625 -0.03125 
L 12.90625 7 
C 16.90625 0.890625 22.203125 -2 29.5 -2 
C 43.296875 -2 52.296875 9.25 52.296875 26.59375 
C 52.296875 43.53125 43.703125 54 29.90625 54 
C 22.703125 54 17.59375 51.28125 13.703125 45.390625 
L 13.703125 73 
z
M 28.296875 46.1875 
C 37.59375 46.1875 43.59375 38.125 43.59375 25.703125 
C 43.59375 13.859375 37.40625 5.8125 28.296875 5.8125 
C 19.5 5.8125 13.703125 13.765625 13.703125 26 
C 13.703125 38.234375 19.5 46.1875 28.296875 46.1875 
z
" id="Nimbus_Sans_L_Regular-98"/>
     <path d="M 28.40625 31.203125 
L 4.59375 31.203125 
L 4.59375 24 
L 28.40625 24 
z
" id="Nimbus_Sans_L_Regular-45"/>
     <path d="M 48.203125 0.515625 
L 48.203125 53 
L 39.90625 53 
L 39.90625 23.109375 
C 39.90625 12.34375 34.296875 5.3125 25.59375 5.3125 
C 19 5.3125 14.796875 9.328125 14.796875 15.671875 
L 14.796875 53 
L 6.5 53 
L 6.5 12.375 
C 6.5 3.625 13 -2 23.203125 -2 
C 30.90625 -2 35.796875 0.703125 40.703125 7.625 
L 40.703125 0.515625 
z
" id="Nimbus_Sans_L_Regular-117"/>
     <path d="M 5.40625 -22 
L 13.796875 -22 
L 13.796875 5 
C 18.203125 -0.421875 23.09375 -2.8125 29.90625 -2.8125 
C 43.40625 -2.8125 52.296875 8.15625 52.296875 24.984375 
C 52.296875 42.71875 43.703125 53.8125 29.796875 53.8125 
C 22.703125 53.8125 17 50.59375 13.09375 44.390625 
L 13.09375 52.328125 
L 5.40625 52.328125 
z
M 28.40625 46 
C 37.59375 46 43.59375 37.8125 43.59375 25.1875 
C 43.59375 13.171875 37.5 5 28.40625 5 
C 19.59375 5 13.796875 13.078125 13.796875 25.5 
C 13.796875 37.921875 19.59375 46 28.40625 46 
z
" id="Nimbus_Sans_L_Regular-112"/>
    </defs>
    <g style="fill:#344552;" transform="translate(367.707672 142.573867)scale(0.18 -0.18)">
     <use transform="scale(0.996264)" xlink:href="#Nimbus_Sans_L_Regular-98"/>
     <use transform="translate(55.391677 0)scale(0.996264)" xlink:href="#Nimbus_Sans_L_Regular-45"/>
     <use transform="translate(88.566907 0)scale(0.996264)" xlink:href="#Nimbus_Sans_L_Regular-99"/>
     <use transform="translate(138.380107 0)scale(0.996264)" xlink:href="#Nimbus_Sans_L_Regular-98"/>
     <use transform="translate(191.779773 0)scale(0.996264)" xlink:href="#Nimbus_Sans_L_Regular-117"/>
     <use transform="translate(247.17145 0)scale(0.996264)" xlink:href="#Nimbus_Sans_L_Regular-45"/>
     <use transform="translate(280.34668 0)scale(0.996264)" xlink:href="#Nimbus_Sans_L_Regular-112"/>
    </g>
   </g>
   <g id="patch_17">
    <path d="M 222.073337 106.948583 
Q 246.6564 114.234639 271.239462 121.520694 
" style="fill:none;stroke:#000000;stroke-linecap:round;stroke-width:0.39;"/>
   </g>
   <g id="text_16">
    <g id="patch_18">
     <path d="M 152.613748 108.600649 
L 219.962502 108.600649 
L 219.962502 84.084103 
L 152.613748 84.084103 
z
" style="fill:#ffffff;opacity:0.8;stroke:#000000;stroke-linejoin:miter;stroke-width:0.39;"/>
    </g>
    <!-- b-cbu-s -->
    <g style="fill:#355871;" transform="translate(156.573748 100.82108)scale(0.18 -0.18)">
     <use transform="scale(0.996264)" xlink:href="#Nimbus_Sans_L_Regular-98"/>
     <use transform="translate(55.391677 0)scale(0.996264)" xlink:href="#Nimbus_Sans_L_Regular-45"/>
     <use transform="translate(88.566907 0)scale(0.996264)" xlink:href="#Nimbus_Sans_L_Regular-99"/>
     <use transform="translate(138.380107 0)scale(0.996264)" xlink:href="#Nimbus_Sans_L_Regular-98"/>
     <use transform="translate(191.779773 0)scale(0.996264)" xlink:href="#Nimbus_Sans_L_Regular-117"/>
     <use transform="translate(247.17145 0)scale(0.996264)" xlink:href="#Nimbus_Sans_L_Regular-45"/>
     <use transform="translate(280.34668 0)scale(0.996264)" xlink:href="#Nimbus_Sans_L_Regular-115"/>
    </g>
   </g>
   <g id="patch_19">
    <path d="M 289.680161 154.657168 
Q 252.265095 147.820067 214.850029 140.982966 
" style="fill:none;stroke:#000000;stroke-linecap:round;stroke-width:0.39;"/>
   </g>
   <g id="text_17">
    <g id="patch_20">
     <path d="M 291.838252 173.58785 
L 360.549693 173.58785 
L 360.549693 149.071304 
L 291.838252 149.071304 
z
" style="fill:#ffffff;opacity:0.8;stroke:#000000;stroke-linejoin:miter;stroke-width:0.39;"/>
    </g>
    <!-- b-cpe-p -->
    <defs>
     <path d="M 51.296875 23.890625 
C 51.296875 31.78125 50.703125 36.53125 49.203125 40.375 
C 45.796875 48.859375 37.796875 54 28 54 
C 13.40625 54 4 42.84375 4 25.703125 
C 4 8.546875 13.09375 -2 27.796875 -2 
C 39.796875 -2 48.09375 4.84375 50.203125 16.3125 
L 41.796875 16.3125 
C 39.5 9.34375 34.796875 5.703125 28.09375 5.703125 
C 22.796875 5.703125 18.296875 8.125 15.5 12.578125 
C 13.5 15.59375 12.796875 18.640625 12.703125 23.890625 
z
M 12.90625 31 
C 13.59375 40.265625 19.5 46.28125 27.90625 46.28125 
C 36.09375 46.28125 42.40625 39.53125 42.40625 31 
C 42.40625 31 42.40625 31 42.296875 31 
z
" id="Nimbus_Sans_L_Regular-101"/>
    </defs>
    <g style="fill:#366b91;" transform="translate(295.798252 165.80828)scale(0.18 -0.18)">
     <use transform="scale(0.996264)" xlink:href="#Nimbus_Sans_L_Regular-98"/>
     <use transform="translate(55.391677 0)scale(0.996264)" xlink:href="#Nimbus_Sans_L_Regular-45"/>
     <use transform="translate(88.566907 0)scale(0.996264)" xlink:href="#Nimbus_Sans_L_Regular-99"/>
     <use transform="translate(138.380107 0)scale(0.996264)" xlink:href="#Nimbus_Sans_L_Regular-112"/>
     <use transform="translate(193.771784 0)scale(0.996264)" xlink:href="#Nimbus_Sans_L_Regular-101"/>
     <use transform="translate(249.163461 0)scale(0.996264)" xlink:href="#Nimbus_Sans_L_Regular-45"/>
     <use transform="translate(282.338691 0)scale(0.996264)" xlink:href="#Nimbus_Sans_L_Regular-112"/>
    </g>
   </g>
   <g id="patch_21">
    <path d="M 148.779993 121.708458 
Q 174.255635 129.57639 199.731278 137.444323 
" style="fill:none;stroke:#000000;stroke-linecap:round;stroke-width:0.39;"/>
   </g>
   <g id="text_18">
    <g id="patch_22">
     <path d="M 78.969268 122.861701 
L 146.676586 122.861701 
L 146.676586 98.345155 
L 78.969268 98.345155 
z
" style="fill:#ffffff;opacity:0.8;stroke:#000000;stroke-linejoin:miter;stroke-width:0.39;"/>
    </g>
    <!-- b-cpe-s -->
    <g style="fill:#377db0;" transform="translate(82.929268 115.082132)scale(0.18 -0.18)">
     <use transform="scale(0.996264)" xlink:href="#Nimbus_Sans_L_Regular-98"/>
     <use transform="translate(55.391677 0)scale(0.996264)" xlink:href="#Nimbus_Sans_L_Regular-45"/>
     <use transform="translate(88.566907 0)scale(0.996264)" xlink:href="#Nimbus_Sans_L_Regular-99"/>
     <use transform="translate(138.380107 0)scale(0.996264)" xlink:href="#Nimbus_Sans_L_Regular-112"/>
     <use transform="translate(193.771784 0)scale(0.996264)" xlink:href="#Nimbus_Sans_L_Regular-101"/>
     <use transform="translate(249.163461 0)scale(0.996264)" xlink:href="#Nimbus_Sans_L_Regular-45"/>
     <use transform="translate(282.338691 0)scale(0.996264)" xlink:href="#Nimbus_Sans_L_Regular-115"/>
    </g>
   </g>
   <g id="patch_23">
    <path d="M 101.30975 196.096059 
Q 121.333754 180.974062 141.357758 165.852065 
" style="fill:none;stroke:#000000;stroke-linecap:round;stroke-width:0.39;"/>
   </g>
   <g id="text_19">
    <g id="patch_24">
     <path d="M 48.86921 222.011869 
L 117.580651 222.011869 
L 117.580651 197.495323 
L 48.86921 197.495323 
z
" style="fill:#ffffff;opacity:0.8;stroke:#000000;stroke-linejoin:miter;stroke-width:0.39;"/>
    </g>
    <!-- b-chp-p -->
    <defs>
     <path d="M 7 73 
L 7 -0.03125 
L 15.296875 -0.03125 
L 15.296875 28.9375 
C 15.296875 39.671875 20.90625 46.6875 29.5 46.6875 
C 32.203125 46.6875 34.90625 45.78125 36.90625 44.28125 
C 39.296875 42.578125 40.296875 40.0625 40.296875 36.359375 
L 40.296875 -0.03125 
L 48.59375 -0.03125 
L 48.59375 39.65625 
C 48.59375 48.484375 42.296875 54 32.09375 54 
C 24.703125 54 20.203125 51.6875 15.296875 45.28125 
L 15.296875 73 
z
" id="Nimbus_Sans_L_Regular-104"/>
    </defs>
    <g style="fill:#448fc5;" transform="translate(52.82921 214.2323)scale(0.18 -0.18)">
     <use transform="scale(0.996264)" xlink:href="#Nimbus_Sans_L_Regular-98"/>
     <use transform="translate(55.391677 0)scale(0.996264)" xlink:href="#Nimbus_Sans_L_Regular-45"/>
     <use transform="translate(88.566907 0)scale(0.996264)" xlink:href="#Nimbus_Sans_L_Regular-99"/>
     <use transform="translate(138.380107 0)scale(0.996264)" xlink:href="#Nimbus_Sans_L_Regular-104"/>
     <use transform="translate(193.771784 0)scale(0.996264)" xlink:href="#Nimbus_Sans_L_Regular-112"/>
     <use transform="translate(249.163461 0)scale(0.996264)" xlink:href="#Nimbus_Sans_L_Regular-45"/>
     <use transform="translate(282.338691 0)scale(0.996264)" xlink:href="#Nimbus_Sans_L_Regular-112"/>
    </g>
   </g>
   <g id="patch_25">
    <path d="M 218.809405 182.162375 
Q 170.742836 178.959528 122.676267 175.756682 
" style="fill:none;stroke:#000000;stroke-linecap:round;stroke-width:0.39;"/>
   </g>
   <g id="text_20">
    <g id="patch_26">
     <path d="M 220.997877 196.822263 
L 288.705195 196.822263 
L 288.705195 172.305717 
L 220.997877 172.305717 
z
" style="fill:#ffffff;opacity:0.8;stroke:#000000;stroke-linejoin:miter;stroke-width:0.39;"/>
    </g>
    <!-- b-chp-s -->
    <g style="fill:#5e9fcd;" transform="translate(224.957877 189.042693)scale(0.18 -0.18)">
     <use transform="scale(0.996264)" xlink:href="#Nimbus_Sans_L_Regular-98"/>
     <use transform="translate(55.391677 0)scale(0.996264)" xlink:href="#Nimbus_Sans_L_Regular-45"/>
     <use transform="translate(88.566907 0)scale(0.996264)" xlink:href="#Nimbus_Sans_L_Regular-99"/>
     <use transform="translate(138.380107 0)scale(0.996264)" xlink:href="#Nimbus_Sans_L_Regular-104"/>
     <use transform="translate(193.771784 0)scale(0.996264)" xlink:href="#Nimbus_Sans_L_Regular-112"/>
     <use transform="translate(249.163461 0)scale(0.996264)" xlink:href="#Nimbus_Sans_L_Regular-45"/>
     <use transform="translate(282.338691 0)scale(0.996264)" xlink:href="#Nimbus_Sans_L_Regular-115"/>
    </g>
   </g>
   <g id="patch_27">
    <path d="M 166.498386 201.10656 
Q 152.263614 196.908889 138.028842 192.711217 
" style="fill:none;stroke:#000000;stroke-linecap:round;stroke-width:0.39;"/>
   </g>
   <g id="text_21">
    <g id="patch_28">
     <path d="M 168.614884 223.972021 
L 236.322202 223.972021 
L 236.322202 199.455475 
L 168.614884 199.455475 
z
" style="fill:#ffffff;opacity:0.8;stroke:#000000;stroke-linejoin:miter;stroke-width:0.39;"/>
    </g>
    <!-- b-coc-p -->
    <g style="fill:#78b0d5;" transform="translate(172.574884 216.192451)scale(0.18 -0.18)">
     <use transform="scale(0.996264)" xlink:href="#Nimbus_Sans_L_Regular-98"/>
     <use transform="translate(55.391677 0)scale(0.996264)" xlink:href="#Nimbus_Sans_L_Regular-45"/>
     <use transform="translate(88.566907 0)scale(0.996264)" xlink:href="#Nimbus_Sans_L_Regular-99"/>
     <use transform="translate(138.380107 0)scale(0.996264)" xlink:href="#Nimbus_Sans_L_Regular-111"/>
     <use transform="translate(193.771784 0)scale(0.996264)" xlink:href="#Nimbus_Sans_L_Regular-99"/>
     <use transform="translate(243.584985 0)scale(0.996264)" xlink:href="#Nimbus_Sans_L_Regular-45"/>
     <use transform="translate(276.760214 0)scale(0.996264)" xlink:href="#Nimbus_Sans_L_Regular-112"/>
    </g>
   </g>
   <g id="patch_29">
    <path d="M 101.882822 149.357485 
Q 95.741965 160.363941 89.601108 171.370397 
" style="fill:none;stroke:#000000;stroke-linecap:round;stroke-width:0.39;"/>
   </g>
   <g id="text_22">
    <g id="patch_30">
     <path d="M 76.454567 147.414497 
L 143.157761 147.414497 
L 143.157761 122.897951 
L 76.454567 122.897951 
z
" style="fill:#ffffff;opacity:0.8;stroke:#000000;stroke-linejoin:miter;stroke-width:0.39;"/>
    </g>
    <!-- b-coc-s -->
    <g style="fill:#92c0dd;" transform="translate(80.414567 139.634928)scale(0.18 -0.18)">
     <use transform="scale(0.996264)" xlink:href="#Nimbus_Sans_L_Regular-98"/>
     <use transform="translate(55.391677 0)scale(0.996264)" xlink:href="#Nimbus_Sans_L_Regular-45"/>
     <use transform="translate(88.566907 0)scale(0.996264)" xlink:href="#Nimbus_Sans_L_Regular-99"/>
     <use transform="translate(138.380107 0)scale(0.996264)" xlink:href="#Nimbus_Sans_L_Regular-111"/>
     <use transform="translate(193.771784 0)scale(0.996264)" xlink:href="#Nimbus_Sans_L_Regular-99"/>
     <use transform="translate(243.584985 0)scale(0.996264)" xlink:href="#Nimbus_Sans_L_Regular-45"/>
     <use transform="translate(276.760214 0)scale(0.996264)" xlink:href="#Nimbus_Sans_L_Regular-115"/>
    </g>
   </g>
   <g id="line2d_112">
    <defs>
     <path d="M 0 6 
C 1.591219 6 3.117479 5.367802 4.242641 4.242641 
C 5.367802 3.117479 6 1.591219 6 0 
C 6 -1.591219 5.367802 -3.117479 4.242641 -4.242641 
C 3.117479 -5.367802 1.591219 -6 0 -6 
C -1.591219 -6 -3.117479 -5.367802 -4.242641 -4.242641 
C -5.367802 -3.117479 -6 -1.591219 -6 0 
C -6 1.591219 -5.367802 3.117479 -4.242641 4.242641 
C -3.117479 5.367802 -1.591219 6 0 6 
z
" id="m95f500fcc6" style="stroke:#000000;stroke-width:0.2;"/>
    </defs>
    <g clip-path="url(#pceab402d0f)">
     <use style="fill:#344552;stroke:#000000;stroke-width:0.2;" x="285.44909" xlink:href="#m95f500fcc6" y="125.238467"/>
    </g>
   </g>
   <g id="line2d_113">
    <defs>
     <path d="M 0 6 
C 1.591219 6 3.117479 5.367802 4.242641 4.242641 
C 5.367802 3.117479 6 1.591219 6 0 
C 6 -1.591219 5.367802 -3.117479 4.242641 -4.242641 
C 3.117479 -5.367802 1.591219 -6 0 -6 
C -1.591219 -6 -3.117479 -5.367802 -4.242641 -4.242641 
C -5.367802 -3.117479 -6 -1.591219 -6 0 
C -6 1.591219 -5.367802 3.117479 -4.242641 4.242641 
C -3.117479 5.367802 -1.591219 6 0 6 
z
" id="m563487b98c" style="stroke:#000000;stroke-width:0.2;"/>
    </defs>
    <g clip-path="url(#pceab402d0f)">
     <use style="fill:#355871;stroke:#000000;stroke-width:0.2;" x="273.156969" xlink:href="#m563487b98c" y="122.089015"/>
    </g>
   </g>
   <g id="line2d_114">
    <defs>
     <path d="M 0 6 
C 1.591219 6 3.117479 5.367802 4.242641 4.242641 
C 5.367802 3.117479 6 1.591219 6 0 
C 6 -1.591219 5.367802 -3.117479 4.242641 -4.242641 
C 3.117479 -5.367802 1.591219 -6 0 -6 
C -1.591219 -6 -3.117479 -5.367802 -4.242641 -4.242641 
C -5.367802 -3.117479 -6 -1.591219 -6 0 
C -6 1.591219 -5.367802 3.117479 -4.242641 4.242641 
C -3.117479 5.367802 -1.591219 6 0 6 
z
" id="mfa57bce1b1" style="stroke:#000000;stroke-width:0.2;"/>
    </defs>
    <g clip-path="url(#pceab402d0f)">
     <use style="fill:#366b91;stroke:#000000;stroke-width:0.2;" x="212.886119" xlink:href="#mfa57bce1b1" y="140.624088"/>
    </g>
   </g>
   <g id="line2d_115">
    <defs>
     <path d="M 0 6 
C 1.591219 6 3.117479 5.367802 4.242641 4.242641 
C 5.367802 3.117479 6 1.591219 6 0 
C 6 -1.591219 5.367802 -3.117479 4.242641 -4.242641 
C 3.117479 -5.367802 1.591219 -6 0 -6 
C -1.591219 -6 -3.117479 -5.367802 -4.242641 -4.242641 
C -5.367802 -3.117479 -6 -1.591219 -6 0 
C -6 1.591219 -5.367802 3.117479 -4.242641 4.242641 
C -3.117479 5.367802 -1.591219 6 0 6 
z
" id="m5ef0cb418e" style="stroke:#000000;stroke-width:0.2;"/>
    </defs>
    <g clip-path="url(#pceab402d0f)">
     <use style="fill:#377db0;stroke:#000000;stroke-width:0.2;" x="201.644654" xlink:href="#m5ef0cb418e" y="138.035252"/>
    </g>
   </g>
   <g id="line2d_116">
    <defs>
     <path d="M 0 6 
C 1.591219 6 3.117479 5.367802 4.242641 4.242641 
C 5.367802 3.117479 6 1.591219 6 0 
C 6 -1.591219 5.367802 -3.117479 4.242641 -4.242641 
C 3.117479 -5.367802 1.591219 -6 0 -6 
C -1.591219 -6 -3.117479 -5.367802 -4.242641 -4.242641 
C -5.367802 -3.117479 -6 -1.591219 -6 0 
C -6 1.591219 -5.367802 3.117479 -4.242641 4.242641 
C -3.117479 5.367802 -1.591219 6 0 6 
z
" id="mab91bc015a" style="stroke:#000000;stroke-width:0.2;"/>
    </defs>
    <g clip-path="url(#pceab402d0f)">
     <use style="fill:#448fc5;stroke:#000000;stroke-width:0.2;" x="142.951342" xlink:href="#mab91bc015a" y="164.648601"/>
    </g>
   </g>
   <g id="line2d_117">
    <defs>
     <path d="M 0 6 
C 1.591219 6 3.117479 5.367802 4.242641 4.242641 
C 5.367802 3.117479 6 1.591219 6 0 
C 6 -1.591219 5.367802 -3.117479 4.242641 -4.242641 
C 3.117479 -5.367802 1.591219 -6 0 -6 
C -1.591219 -6 -3.117479 -5.367802 -4.242641 -4.242641 
C -5.367802 -3.117479 -6 -1.591219 -6 0 
C -6 1.591219 -5.367802 3.117479 -4.242641 4.242641 
C -3.117479 5.367802 -1.591219 6 0 6 
z
" id="m8856fd7472" style="stroke:#000000;stroke-width:0.2;"/>
    </defs>
    <g clip-path="url(#pceab402d0f)">
     <use style="fill:#5e9fcd;stroke:#000000;stroke-width:0.2;" x="120.678796" xlink:href="#m8856fd7472" y="175.623584"/>
    </g>
   </g>
   <g id="line2d_118">
    <defs>
     <path d="M 0 6 
C 1.591219 6 3.117479 5.367802 4.242641 4.242641 
C 5.367802 3.117479 6 1.591219 6 0 
C 6 -1.591219 5.367802 -3.117479 4.242641 -4.242641 
C 3.117479 -5.367802 1.591219 -6 0 -6 
C -1.591219 -6 -3.117479 -5.367802 -4.242641 -4.242641 
C -5.367802 -3.117479 -6 -1.591219 -6 0 
C -6 1.591219 -5.367802 3.117479 -4.242641 4.242641 
C -3.117479 5.367802 -1.591219 6 0 6 
z
" id="m7b16099692" style="stroke:#000000;stroke-width:0.2;"/>
    </defs>
    <g clip-path="url(#pceab402d0f)">
     <use style="fill:#78b0d5;stroke:#000000;stroke-width:0.2;" x="136.111089" xlink:href="#m7b16099692" y="192.145694"/>
    </g>
   </g>
   <g id="line2d_119">
    <defs>
     <path d="M 0 6 
C 1.591219 6 3.117479 5.367802 4.242641 4.242641 
C 5.367802 3.117479 6 1.591219 6 0 
C 6 -1.591219 5.367802 -3.117479 4.242641 -4.242641 
C 3.117479 -5.367802 1.591219 -6 0 -6 
C -1.591219 -6 -3.117479 -5.367802 -4.242641 -4.242641 
C -5.367802 -3.117479 -6 -1.591219 -6 0 
C -6 1.591219 -5.367802 3.117479 -4.242641 4.242641 
C -3.117479 5.367802 -1.591219 6 0 6 
z
" id="m67432db3bf" style="stroke:#000000;stroke-width:0.2;"/>
    </defs>
    <g clip-path="url(#pceab402d0f)">
     <use style="fill:#92c0dd;stroke:#000000;stroke-width:0.2;" x="88.625239" xlink:href="#m67432db3bf" y="173.11948"/>
    </g>
   </g>
  </g>
 </g>
 <defs>
  <clipPath id="pceab402d0f">
   <rect height="326.16" width="401.76" x="51.022969" y="11.813908"/>
  </clipPath>
 </defs>
</svg>
