<?xml version="1.0" encoding="utf-8" standalone="no"?>
<!DOCTYPE svg PUBLIC "-//W3C//DTD SVG 1.1//EN"
  "http://www.w3.org/Graphics/SVG/1.1/DTD/svg11.dtd">
<!-- Created with matplotlib (http://matplotlib.org/) -->
<svg height="385pt" version="1.1" viewBox="0 0 476 385" width="476pt" xmlns="http://www.w3.org/2000/svg" xmlns:xlink="http://www.w3.org/1999/xlink">
 <defs>
  <style type="text/css">
*{stroke-linecap:butt;stroke-linejoin:round;}
  </style>
 </defs>
 <g id="figure_1">
  <g id="patch_1">
   <path d="M 0 385.570077 
L 476.973903 385.570077 
L 476.973903 0 
L 0 0 
z
" style="fill:#ffffff;"/>
  </g>
  <g id="axes_1">
   <g id="patch_2">
    <path d="M 57.212527 337.973908 
L 458.972527 337.973908 
L 458.972527 11.813908 
L 57.212527 11.813908 
z
" style="fill:#ffffff;"/>
   </g>
   <g id="line2d_1">
    <path clip-path="url(#p463161b0f7)" d="M -1 385.232465 
L 474.756546 -1 
" style="fill:none;stroke:#4c4c4c;stroke-linecap:round;stroke-width:0.5;"/>
   </g>
   <g id="matplotlib.axis_1">
    <g id="xtick_1">
     <g id="line2d_2">
      <path clip-path="url(#p463161b0f7)" d="M 57.212527 337.973908 
L 57.212527 11.813908 
" style="fill:none;stroke:#cccccc;stroke-linecap:round;stroke-width:1.3;"/>
     </g>
     <g id="line2d_3"/>
     <g id="text_1">
      <!-- $0$ -->
      <defs>
       <path d="M 27.5 71 
C 20.90625 71 14.90625 68.125 11.203125 63.21875 
C 6.59375 57.046875 4.296875 47.5625 4.296875 34.5 
C 4.296875 10.671875 12.296875 -2 27.5 -2 
C 42.5 -2 50.703125 10.671875 50.703125 33.90625 
C 50.703125 47.65625 48.5 56.84375 43.796875 63.21875 
C 40.09375 68.21875 34.203125 71 27.5 71 
z
M 27.5 63.1875 
C 37 63.1875 41.703125 53.625 41.703125 34.703125 
C 41.703125 14.671875 37.09375 5.3125 27.296875 5.3125 
C 18 5.3125 13.296875 15.078125 13.296875 34.40625 
C 13.296875 53.71875 18 63.1875 27.5 63.1875 
z
" id="Nimbus_Sans_L_Regular-48"/>
      </defs>
      <g style="fill:#262626;" transform="translate(53.612069 356.301725)scale(0.13 -0.13)">
       <use transform="scale(0.996264)" xlink:href="#Nimbus_Sans_L_Regular-48"/>
      </g>
     </g>
    </g>
    <g id="xtick_2">
     <g id="line2d_4">
      <path clip-path="url(#p463161b0f7)" d="M 137.564527 337.973908 
L 137.564527 11.813908 
" style="fill:none;stroke:#cccccc;stroke-linecap:round;stroke-width:1.3;"/>
     </g>
     <g id="line2d_5"/>
     <g id="text_2">
      <!-- $20$ -->
      <defs>
       <path d="M 50.59375 8.71875 
L 13.296875 8.71875 
C 14.203125 14.53125 17.40625 18.234375 26.09375 23.34375 
L 36.09375 28.75 
C 46 34.15625 51.09375 41.453125 51.09375 50.171875 
C 51.09375 56.078125 48.703125 61.59375 44.5 65.390625 
C 40.296875 69.203125 35.09375 71 28.40625 71 
C 19.40625 71 12.703125 67.796875 8.796875 61.796875 
C 6.296875 57.984375 5.203125 53.578125 5 46.359375 
L 13.796875 46.359375 
C 14.09375 51.171875 14.703125 54.078125 15.90625 56.375 
C 18.203125 60.6875 22.796875 63.296875 28.09375 63.296875 
C 36.09375 63.296875 42.09375 57.578125 42.09375 49.96875 
C 42.09375 44.359375 38.796875 39.546875 32.5 35.953125 
L 23.296875 30.75 
C 8.5 22.34375 4.203125 15.625 3.40625 0 
L 50.59375 0 
z
" id="Nimbus_Sans_L_Regular-50"/>
      </defs>
      <g style="fill:#262626;" transform="translate(130.36361 356.301725)scale(0.13 -0.13)">
       <use transform="scale(0.996264)" xlink:href="#Nimbus_Sans_L_Regular-50"/>
       <use transform="translate(55.391677 0)scale(0.996264)" xlink:href="#Nimbus_Sans_L_Regular-48"/>
      </g>
     </g>
    </g>
    <g id="xtick_3">
     <g id="line2d_6">
      <path clip-path="url(#p463161b0f7)" d="M 217.916527 337.973908 
L 217.916527 11.813908 
" style="fill:none;stroke:#cccccc;stroke-linecap:round;stroke-width:1.3;"/>
     </g>
     <g id="line2d_7"/>
     <g id="text_3">
      <!-- $40$ -->
      <defs>
       <path d="M 32.703125 17 
L 32.703125 0 
L 41.5 0 
L 41.5 17 
L 52 17 
L 52 24.90625 
L 41.5 24.90625 
L 41.5 71.015625 
L 35 71.015625 
L 2.796875 26.3125 
L 2.796875 17 
z
M 32.703125 24.90625 
L 10.5 24.90625 
L 32.703125 55.984375 
z
" id="Nimbus_Sans_L_Regular-52"/>
      </defs>
      <g style="fill:#262626;" transform="translate(210.71561 356.301725)scale(0.13 -0.13)">
       <use transform="scale(0.996264)" xlink:href="#Nimbus_Sans_L_Regular-52"/>
       <use transform="translate(55.391677 0)scale(0.996264)" xlink:href="#Nimbus_Sans_L_Regular-48"/>
      </g>
     </g>
    </g>
    <g id="xtick_4">
     <g id="line2d_8">
      <path clip-path="url(#p463161b0f7)" d="M 298.268527 337.973908 
L 298.268527 11.813908 
" style="fill:none;stroke:#cccccc;stroke-linecap:round;stroke-width:1.3;"/>
     </g>
     <g id="line2d_9"/>
     <g id="text_4">
      <!-- $60$ -->
      <defs>
       <path d="M 49.796875 52.84375 
C 48.09375 64.234375 40.5 71 29.703125 71 
C 21.90625 71 14.90625 67.21875 10.703125 60.9375 
C 6.296875 54.0625 4.296875 45.375 4.296875 32.515625 
C 4.296875 20.640625 6.09375 13.0625 10.296875 6.78125 
C 14.09375 1.078125 20.296875 -2 28.09375 -2 
C 41.59375 -2 51.296875 8.09375 51.296875 22.109375 
C 51.296875 35.4375 42.296875 44.8125 29.59375 44.8125 
C 22.59375 44.8125 17.09375 42.109375 13.296875 36.90625 
C 13.40625 53.8125 19 63.1875 29.09375 63.1875 
C 35.296875 63.1875 39.59375 59.421875 41 52.84375 
z
M 28.5 37 
C 37 37 42.296875 31.03125 42.296875 21.40625 
C 42.296875 12.390625 36.296875 5.8125 28.203125 5.8125 
C 20 5.8125 13.796875 12.703125 13.796875 21.90625 
C 13.796875 30.828125 19.796875 37 28.5 37 
z
" id="Nimbus_Sans_L_Regular-54"/>
      </defs>
      <g style="fill:#262626;" transform="translate(291.06761 356.301725)scale(0.13 -0.13)">
       <use transform="scale(0.996264)" xlink:href="#Nimbus_Sans_L_Regular-54"/>
       <use transform="translate(55.391677 0)scale(0.996264)" xlink:href="#Nimbus_Sans_L_Regular-48"/>
      </g>
     </g>
    </g>
    <g id="xtick_5">
     <g id="line2d_10">
      <path clip-path="url(#p463161b0f7)" d="M 378.620527 337.973908 
L 378.620527 11.813908 
" style="fill:none;stroke:#cccccc;stroke-linecap:round;stroke-width:1.3;"/>
     </g>
     <g id="line2d_11"/>
     <g id="text_5">
      <!-- $80$ -->
      <defs>
       <path d="M 39.09375 37.484375 
C 46.40625 41.875 48.796875 45.46875 48.796875 52.15625 
C 48.796875 63.21875 40.09375 71 27.5 71 
C 15 71 6.203125 63.21875 6.203125 52.15625 
C 6.203125 45.578125 8.59375 41.984375 15.796875 37.484375 
C 7.703125 33.59375 3.703125 27.71875 3.703125 19.9375 
C 3.703125 6.96875 13.5 -2 27.5 -2 
C 41.5 -2 51.296875 6.984375 51.296875 19.84375 
C 51.296875 27.71875 47.296875 33.59375 39.09375 37.484375 
z
M 27.5 63.1875 
C 35 63.1875 39.796875 58.8125 39.796875 51.953125 
C 39.796875 45.375 34.90625 41 27.5 41 
C 20.09375 41 15.203125 45.375 15.203125 52.046875 
C 15.203125 58.8125 20.09375 63.1875 27.5 63.1875 
z
M 27.5 33.578125 
C 36.296875 33.578125 42.296875 28 42.296875 19.734375 
C 42.296875 11.390625 36.296875 5.8125 27.296875 5.8125 
C 18.703125 5.8125 12.703125 11.484375 12.703125 19.734375 
C 12.703125 28 18.703125 33.578125 27.5 33.578125 
z
" id="Nimbus_Sans_L_Regular-56"/>
      </defs>
      <g style="fill:#262626;" transform="translate(371.41961 356.301725)scale(0.13 -0.13)">
       <use transform="scale(0.996264)" xlink:href="#Nimbus_Sans_L_Regular-56"/>
       <use transform="translate(55.391677 0)scale(0.996264)" xlink:href="#Nimbus_Sans_L_Regular-48"/>
      </g>
     </g>
    </g>
    <g id="xtick_6">
     <g id="line2d_12">
      <path clip-path="url(#p463161b0f7)" d="M 458.972527 337.973908 
L 458.972527 11.813908 
" style="fill:none;stroke:#cccccc;stroke-linecap:round;stroke-width:1.3;"/>
     </g>
     <g id="line2d_13"/>
     <g id="text_6">
      <!-- $100$ -->
      <defs>
       <path d="M 25.90625 50.59375 
L 25.90625 0 
L 34.703125 0 
L 34.703125 71.015625 
L 28.90625 71.015625 
C 25.796875 60.109375 23.796875 58.609375 10.203125 56.90625 
L 10.203125 50.59375 
z
" id="Nimbus_Sans_L_Regular-49"/>
      </defs>
      <g style="fill:#262626;" transform="translate(448.171151 356.301725)scale(0.13 -0.13)">
       <use transform="scale(0.996264)" xlink:href="#Nimbus_Sans_L_Regular-49"/>
       <use transform="translate(55.391677 0)scale(0.996264)" xlink:href="#Nimbus_Sans_L_Regular-48"/>
       <use transform="translate(110.783354 0)scale(0.996264)" xlink:href="#Nimbus_Sans_L_Regular-48"/>
      </g>
     </g>
    </g>
    <g id="text_7">
     <!-- GAFF v1.7 angle $k$ (kcal/mol/rad$^2$) -->
     <defs>
      <path d="M 70.90625 39 
L 40.5 39 
L 40.5 30.796875 
L 62.703125 30.796875 
L 62.703125 28.765625 
C 62.703125 15.671875 53.09375 6.203125 39.796875 6.203125 
C 32.40625 6.203125 25.703125 8.890625 21.40625 13.59375 
C 16.59375 18.765625 13.703125 27.4375 13.703125 36.40625 
C 13.703125 54.234375 23.90625 66 39.296875 66 
C 50.40625 66 58.40625 60.375 60.40625 51.125 
L 69.90625 51.125 
C 67.296875 65.796875 56.09375 74.21875 39.40625 74.21875 
C 30.5 74.21875 23.296875 71.921875 17.59375 67.234375 
C 9.203125 60.25 4.40625 48.984375 4.40625 35.90625 
C 4.40625 13.5625 18.09375 -2 37.796875 -2 
C 47.703125 -2 55.59375 1.703125 62.703125 9.625 
L 65 -0.109375 
L 70.90625 -0.109375 
z
" id="Nimbus_Sans_L_Regular-71"/>
      <path d="M 47.40625 22 
L 54.90625 0 
L 65.296875 0 
L 39.703125 73 
L 27.703125 73 
L 1.703125 0 
L 11.59375 0 
L 19.296875 22 
z
M 44.796875 29.8125 
L 21.59375 29.8125 
L 33.59375 63 
z
" id="Nimbus_Sans_L_Regular-65"/>
      <path d="M 18.296875 33 
L 53.09375 33 
L 53.09375 41.21875 
L 18.296875 41.21875 
L 18.296875 64.78125 
L 57.90625 64.78125 
L 57.90625 73 
L 9 73 
L 9 -0.21875 
L 18.296875 -0.21875 
z
" id="Nimbus_Sans_L_Regular-70"/>
      <path d="M 28.5 0 
L 48.59375 52.5 
L 39.203125 52.5 
L 24.40625 9.921875 
L 10.40625 52.5 
L 1 52.5 
L 19.40625 0 
z
" id="Nimbus_Sans_L_Regular-118"/>
      <path d="M 19.09375 10.421875 
L 8.703125 10.421875 
L 8.703125 0 
L 19.09375 0 
z
" id="Nimbus_Sans_L_Regular-46"/>
      <path d="M 52 70.703125 
L 4.59375 70.703125 
L 4.59375 62 
L 42.90625 62 
C 26 37.78125 19.09375 22.90625 13.796875 -0.5 
L 23.203125 -0.5 
C 27.09375 22.296875 36 41.890625 52 63.296875 
z
" id="Nimbus_Sans_L_Regular-55"/>
      <path d="M 53.5 5.203125 
C 52.59375 5 52.203125 5 51.703125 5 
C 48.796875 5 47.203125 6.484375 47.203125 9.078125 
L 47.203125 39.765625 
C 47.203125 49.015625 40.40625 54 27.5 54 
C 19.90625 54 13.59375 51.8125 10.09375 47.90625 
C 7.703125 45.203125 6.703125 42.21875 6.5 37.03125 
L 14.90625 37.03125 
C 15.59375 43.390625 19.40625 46.28125 27.203125 46.28125 
C 34.703125 46.28125 38.90625 43.484375 38.90625 38.515625 
L 38.90625 36.328125 
C 38.90625 32.828125 36.796875 31.34375 30.203125 30.546875 
C 18.40625 29.0625 16.59375 28.65625 13.40625 27.359375 
C 7.296875 24.875 4.203125 20.1875 4.203125 13.421875 
C 4.203125 3.96875 10.796875 -2 21.40625 -2 
C 28 -2 33.296875 0.296875 39.203125 5.703125 
C 39.796875 0.390625 42.40625 -2 47.796875 -2 
C 49.5 -2 50.796875 -1.8125 53.5 -1.09375 
z
M 38.90625 16.75 
C 38.90625 13.953125 38.09375 12.265625 35.59375 9.984375 
C 32.203125 6.890625 28.09375 5.3125 23.203125 5.3125 
C 16.703125 5.3125 12.90625 8.390625 12.90625 13.65625 
C 12.90625 19.140625 16.59375 21.921875 25.5 23.21875 
C 34.296875 24.40625 36.09375 24.8125 38.90625 26.09375 
z
" id="Nimbus_Sans_L_Regular-97"/>
      <path d="M 7 52.484375 
L 7 0 
L 15.40625 0 
L 15.40625 28.953125 
C 15.40625 39.671875 21 46.6875 29.59375 46.6875 
C 36.203125 46.6875 40.40625 42.671875 40.40625 36.359375 
L 40.40625 0 
L 48.703125 0 
L 48.703125 39.671875 
C 48.703125 48.390625 42.203125 54 32.09375 54 
C 24.296875 54 19.296875 50.984375 14.703125 43.6875 
L 14.703125 52.484375 
z
" id="Nimbus_Sans_L_Regular-110"/>
      <path d="M 41.203125 52.203125 
L 41.203125 44.59375 
C 37 50.8125 31.90625 53.71875 25.203125 53.71875 
C 11.90625 53.71875 2.90625 42.0625 2.90625 25 
C 2.90625 16.375 5.203125 9.34375 9.5 4.3125 
C 13.40625 -0.109375 19 -2.703125 24.5 -2.703125 
C 31.09375 -2.703125 35.703125 0.09375 40.40625 6.703125 
L 40.40625 4.03125 
C 40.40625 -3 39.5 -7.265625 37.40625 -10.140625 
C 35.203125 -13.1875 30.90625 -14.984375 25.796875 -14.984375 
C 22 -14.984375 18.59375 -14 16.296875 -12.234375 
C 14.40625 -10.75 13.59375 -9.375 13.09375 -6.34375 
L 4.59375 -6.34375 
C 5.5 -16.140625 13.203125 -22 25.5 -22 
C 33.296875 -22 40 -19.484375 43.40625 -15.296875 
C 47.40625 -10.484375 48.90625 -3.890625 48.90625 8.40625 
L 48.90625 52.203125 
z
M 26.09375 46 
C 35.09375 46 40.40625 38.359375 40.40625 25.203125 
C 40.40625 12.625 35 5 26.203125 5 
C 17.09375 5 11.59375 12.75 11.59375 25.5 
C 11.59375 38.15625 17.203125 46 26.09375 46 
z
" id="Nimbus_Sans_L_Regular-103"/>
      <path d="M 15.203125 73 
L 6.796875 73 
L 6.796875 -0.03125 
L 15.203125 -0.03125 
z
" id="Nimbus_Sans_L_Regular-108"/>
      <path d="M 51.296875 23.890625 
C 51.296875 31.78125 50.703125 36.53125 49.203125 40.375 
C 45.796875 48.859375 37.796875 54 28 54 
C 13.40625 54 4 42.84375 4 25.703125 
C 4 8.546875 13.09375 -2 27.796875 -2 
C 39.796875 -2 48.09375 4.84375 50.203125 16.3125 
L 41.796875 16.3125 
C 39.5 9.34375 34.796875 5.703125 28.09375 5.703125 
C 22.796875 5.703125 18.296875 8.125 15.5 12.578125 
C 13.5 15.59375 12.796875 18.640625 12.703125 23.890625 
z
M 12.90625 31 
C 13.59375 40.265625 19.5 46.28125 27.90625 46.28125 
C 36.09375 46.28125 42.40625 39.53125 42.40625 31 
C 42.40625 31 42.40625 31 42.296875 31 
z
" id="Nimbus_Sans_L_Regular-101"/>
      <path d="M 29.703125 73 
L 21.296875 73 
L 5.796875 0 
L 14.203125 0 
L 18.5 20.3125 
L 29.203125 29.140625 
L 40.59375 0 
L 50.203125 0 
L 36.203125 34.359375 
L 58.40625 52.484375 
L 47.59375 52.484375 
L 20.703125 30.65625 
z
" id="Nimbus_Sans_L_Regular_Italic-107"/>
      <path d="M 23.59375 73 
C 13.59375 59.84375 7.296875 41.5625 7.296875 25.796875 
C 7.296875 9.9375 13.59375 -8.34375 23.59375 -21.5 
L 29.09375 -21.5 
C 20.296875 -7.140625 15.40625 9.734375 15.40625 25.796875 
C 15.40625 41.765625 20.296875 58.734375 29.09375 73 
z
" id="Nimbus_Sans_L_Regular-40"/>
      <path d="M 14.09375 73 
L 5.796875 73 
L 5.796875 -0.03125 
L 14.09375 -0.03125 
L 14.09375 20.40625 
L 22.203125 28.421875 
L 39.90625 -0.03125 
L 50.203125 -0.03125 
L 28.796875 34.328125 
L 47 52.453125 
L 36.296875 52.453125 
L 14.09375 30.21875 
z
" id="Nimbus_Sans_L_Regular-107"/>
      <path d="M 47.09375 34.9375 
C 46.703125 40.03125 45.59375 43.328125 43.59375 46.21875 
C 40 51.109375 33.703125 54 26.40625 54 
C 12.296875 54 3.09375 42.84375 3.09375 25.5 
C 3.09375 8.65625 12.09375 -2 26.296875 -2 
C 38.796875 -2 46.703125 5.46875 47.703125 18.234375 
L 39.296875 18.234375 
C 37.90625 9.875 33.59375 5.703125 26.5 5.703125 
C 17.296875 5.703125 11.796875 13.171875 11.796875 25.5 
C 11.796875 38.53125 17.203125 46.28125 26.296875 46.28125 
C 33.296875 46.28125 37.703125 42.203125 38.703125 34.9375 
z
" id="Nimbus_Sans_L_Regular-99"/>
      <path d="M 22.90625 73 
L -0.796875 -2 
L 4.703125 -2 
L 28.40625 73 
z
" id="Nimbus_Sans_L_Regular-47"/>
      <path d="M 7 52.484375 
L 7 0 
L 15.40625 0 
L 15.40625 32.953125 
C 15.40625 40.578125 20.90625 46.6875 27.703125 46.6875 
C 33.90625 46.6875 37.40625 42.875 37.40625 36.15625 
L 37.40625 0 
L 45.796875 0 
L 45.796875 32.953125 
C 45.796875 40.578125 51.296875 46.6875 58.09375 46.6875 
C 64.203125 46.6875 67.796875 42.78125 67.796875 36.15625 
L 67.796875 0 
L 76.203125 0 
L 76.203125 39.375 
C 76.203125 48.78125 70.796875 54 61 54 
C 54 54 49.796875 51.890625 44.90625 45.984375 
C 41.796875 51.59375 37.59375 54 30.796875 54 
C 23.796875 54 19.203125 51.390625 14.703125 45.078125 
L 14.703125 52.484375 
z
" id="Nimbus_Sans_L_Regular-109"/>
      <path d="M 27.203125 54 
C 12.5 54 3.59375 43.53125 3.59375 25.984375 
C 3.59375 8.453125 12.40625 -2 27.296875 -2 
C 42 -2 51 8.453125 51 25.59375 
C 51 43.625 42.296875 54 27.203125 54 
z
M 27.296875 46.28125 
C 36.703125 46.28125 42.296875 38.625 42.296875 25.703125 
C 42.296875 13.453125 36.5 5.703125 27.296875 5.703125 
C 18 5.703125 12.296875 13.359375 12.296875 25.984375 
C 12.296875 38.53125 18 46.28125 27.296875 46.28125 
z
" id="Nimbus_Sans_L_Regular-111"/>
      <path d="M 6.90625 52.484375 
L 6.90625 0 
L 15.296875 0 
L 15.296875 27.203125 
C 15.296875 34.703125 17.203125 39.609375 21.203125 42.5 
C 23.796875 44.40625 26.296875 45 32.09375 45 
L 32.09375 53.625 
C 30.703125 53.8125 30 53.8125 28.90625 53.8125 
C 23.5 53.8125 19.40625 50.625 14.59375 42.90625 
L 14.59375 52.484375 
z
" id="Nimbus_Sans_L_Regular-114"/>
      <path d="M 49.5 73 
L 41.203125 73 
L 41.203125 45.890625 
C 37.703125 51.1875 32.09375 54 25.09375 54 
C 11.5 54 2.59375 43.140625 2.59375 26.484375 
C 2.59375 8.84375 11.296875 -2 25.40625 -2 
C 32.59375 -2 37.59375 0.703125 42.09375 7.203125 
L 42.09375 -0.03125 
L 49.5 -0.03125 
z
M 26.5 46.1875 
C 35.5 46.1875 41.203125 38.234375 41.203125 25.796875 
C 41.203125 13.765625 35.40625 5.8125 26.59375 5.8125 
C 17.40625 5.8125 11.296875 13.859375 11.296875 26 
C 11.296875 38.125 17.40625 46.1875 26.5 46.1875 
z
" id="Nimbus_Sans_L_Regular-100"/>
      <path d="M 9.296875 -21.5 
C 19.296875 -8.34375 25.59375 9.9375 25.59375 25.6875 
C 25.59375 41.5625 19.296875 59.84375 9.296875 73 
L 3.796875 73 
C 12.59375 58.640625 17.5 41.765625 17.5 25.6875 
C 17.5 9.734375 12.59375 -7.25 3.796875 -21.5 
z
" id="Nimbus_Sans_L_Regular-41"/>
     </defs>
     <g style="fill:#262626;" transform="translate(149.92556 375.335634)scale(0.143 -0.143)">
      <use transform="scale(0.996264)" xlink:href="#Nimbus_Sans_L_Regular-71"/>
      <use transform="translate(77.50837 0)scale(0.996264)" xlink:href="#Nimbus_Sans_L_Regular-65"/>
      <use transform="translate(143.958401 0)scale(0.996264)" xlink:href="#Nimbus_Sans_L_Regular-70"/>
      <use transform="translate(204.830032 0)scale(0.996264)" xlink:href="#Nimbus_Sans_L_Regular-70"/>
      <use transform="translate(293.396832 0)scale(0.996264)" xlink:href="#Nimbus_Sans_L_Regular-118"/>
      <use transform="translate(343.210033 0)scale(0.996264)" xlink:href="#Nimbus_Sans_L_Regular-49"/>
      <use transform="translate(398.60171 0)scale(0.996264)" xlink:href="#Nimbus_Sans_L_Regular-46"/>
      <use transform="translate(426.296879 0)scale(0.996264)" xlink:href="#Nimbus_Sans_L_Regular-55"/>
      <use transform="translate(509.383726 0)scale(0.996264)" xlink:href="#Nimbus_Sans_L_Regular-97"/>
      <use transform="translate(564.775403 0)scale(0.996264)" xlink:href="#Nimbus_Sans_L_Regular-110"/>
      <use transform="translate(620.16708 0)scale(0.996264)" xlink:href="#Nimbus_Sans_L_Regular-103"/>
      <use transform="translate(675.558757 0)scale(0.996264)" xlink:href="#Nimbus_Sans_L_Regular-108"/>
      <use transform="translate(697.675541 0)scale(0.996264)" xlink:href="#Nimbus_Sans_L_Regular-101"/>
      <use transform="translate(780.762388 0)scale(0.996264)" xlink:href="#Nimbus_Sans_L_Regular_Italic-107"/>
      <use transform="translate(868.233428 0)scale(0.996264)" xlink:href="#Nimbus_Sans_L_Regular-40"/>
      <use transform="translate(901.408658 0)scale(0.996264)" xlink:href="#Nimbus_Sans_L_Regular-107"/>
      <use transform="translate(951.221858 0)scale(0.996264)" xlink:href="#Nimbus_Sans_L_Regular-99"/>
      <use transform="translate(1001.035059 0)scale(0.996264)" xlink:href="#Nimbus_Sans_L_Regular-97"/>
      <use transform="translate(1056.426736 0)scale(0.996264)" xlink:href="#Nimbus_Sans_L_Regular-108"/>
      <use transform="translate(1078.54352 0)scale(0.996264)" xlink:href="#Nimbus_Sans_L_Regular-47"/>
      <use transform="translate(1106.23869 0)scale(0.996264)" xlink:href="#Nimbus_Sans_L_Regular-109"/>
      <use transform="translate(1189.22712 0)scale(0.996264)" xlink:href="#Nimbus_Sans_L_Regular-111"/>
      <use transform="translate(1244.618797 0)scale(0.996264)" xlink:href="#Nimbus_Sans_L_Regular-108"/>
      <use transform="translate(1266.735581 0)scale(0.996264)" xlink:href="#Nimbus_Sans_L_Regular-47"/>
      <use transform="translate(1294.430751 0)scale(0.996264)" xlink:href="#Nimbus_Sans_L_Regular-114"/>
      <use transform="translate(1326.609884 0)scale(0.996264)" xlink:href="#Nimbus_Sans_L_Regular-97"/>
      <use transform="translate(1382.001561 0)scale(0.996264)" xlink:href="#Nimbus_Sans_L_Regular-100"/>
      <use transform="translate(1437.393238 36.153639)scale(0.697382)" xlink:href="#Nimbus_Sans_L_Regular-50"/>
      <use transform="translate(1476.66537 0)scale(0.996264)" xlink:href="#Nimbus_Sans_L_Regular-41"/>
     </g>
    </g>
   </g>
   <g id="matplotlib.axis_2">
    <g id="ytick_1">
     <g id="line2d_14">
      <path clip-path="url(#p463161b0f7)" d="M 57.212527 337.973908 
L 458.972527 337.973908 
" style="fill:none;stroke:#cccccc;stroke-linecap:round;stroke-width:1.3;"/>
     </g>
     <g id="line2d_15"/>
     <g id="text_8">
      <!-- $0$ -->
      <g style="fill:#262626;" transform="translate(40.91161 342.587816)scale(0.13 -0.13)">
       <use transform="scale(0.996264)" xlink:href="#Nimbus_Sans_L_Regular-48"/>
      </g>
     </g>
    </g>
    <g id="ytick_2">
     <g id="line2d_16">
      <path clip-path="url(#p463161b0f7)" d="M 57.212527 272.741908 
L 458.972527 272.741908 
" style="fill:none;stroke:#cccccc;stroke-linecap:round;stroke-width:1.3;"/>
     </g>
     <g id="line2d_17"/>
     <g id="text_9">
      <!-- $20$ -->
      <g style="fill:#262626;" transform="translate(33.710693 277.355816)scale(0.13 -0.13)">
       <use transform="scale(0.996264)" xlink:href="#Nimbus_Sans_L_Regular-50"/>
       <use transform="translate(55.391677 0)scale(0.996264)" xlink:href="#Nimbus_Sans_L_Regular-48"/>
      </g>
     </g>
    </g>
    <g id="ytick_3">
     <g id="line2d_18">
      <path clip-path="url(#p463161b0f7)" d="M 57.212527 207.509908 
L 458.972527 207.509908 
" style="fill:none;stroke:#cccccc;stroke-linecap:round;stroke-width:1.3;"/>
     </g>
     <g id="line2d_19"/>
     <g id="text_10">
      <!-- $40$ -->
      <g style="fill:#262626;" transform="translate(33.710693 212.123816)scale(0.13 -0.13)">
       <use transform="scale(0.996264)" xlink:href="#Nimbus_Sans_L_Regular-52"/>
       <use transform="translate(55.391677 0)scale(0.996264)" xlink:href="#Nimbus_Sans_L_Regular-48"/>
      </g>
     </g>
    </g>
    <g id="ytick_4">
     <g id="line2d_20">
      <path clip-path="url(#p463161b0f7)" d="M 57.212527 142.277908 
L 458.972527 142.277908 
" style="fill:none;stroke:#cccccc;stroke-linecap:round;stroke-width:1.3;"/>
     </g>
     <g id="line2d_21"/>
     <g id="text_11">
      <!-- $60$ -->
      <g style="fill:#262626;" transform="translate(33.710693 146.891816)scale(0.13 -0.13)">
       <use transform="scale(0.996264)" xlink:href="#Nimbus_Sans_L_Regular-54"/>
       <use transform="translate(55.391677 0)scale(0.996264)" xlink:href="#Nimbus_Sans_L_Regular-48"/>
      </g>
     </g>
    </g>
    <g id="ytick_5">
     <g id="line2d_22">
      <path clip-path="url(#p463161b0f7)" d="M 57.212527 77.045908 
L 458.972527 77.045908 
" style="fill:none;stroke:#cccccc;stroke-linecap:round;stroke-width:1.3;"/>
     </g>
     <g id="line2d_23"/>
     <g id="text_12">
      <!-- $80$ -->
      <g style="fill:#262626;" transform="translate(33.710693 81.659816)scale(0.13 -0.13)">
       <use transform="scale(0.996264)" xlink:href="#Nimbus_Sans_L_Regular-56"/>
       <use transform="translate(55.391677 0)scale(0.996264)" xlink:href="#Nimbus_Sans_L_Regular-48"/>
      </g>
     </g>
    </g>
    <g id="ytick_6">
     <g id="line2d_24">
      <path clip-path="url(#p463161b0f7)" d="M 57.212527 11.813908 
L 458.972527 11.813908 
" style="fill:none;stroke:#cccccc;stroke-linecap:round;stroke-width:1.3;"/>
     </g>
     <g id="line2d_25"/>
     <g id="text_13">
      <!-- $100$ -->
      <g style="fill:#262626;" transform="translate(26.509776 16.427816)scale(0.13 -0.13)">
       <use transform="scale(0.996264)" xlink:href="#Nimbus_Sans_L_Regular-49"/>
       <use transform="translate(55.391677 0)scale(0.996264)" xlink:href="#Nimbus_Sans_L_Regular-48"/>
       <use transform="translate(110.783354 0)scale(0.996264)" xlink:href="#Nimbus_Sans_L_Regular-48"/>
      </g>
     </g>
    </g>
    <g id="text_14">
     <!-- SMIRNOFF99Frosst angle $k$ (kcal/mol/rad$^2$) -->
     <defs>
      <path d="M 59.59375 52.109375 
C 59.5 66.484375 49.703125 74.8125 32.90625 74.8125 
C 16.90625 74.8125 7 66.5625 7 53.28125 
C 7 44.328125 11.703125 38.703125 21.296875 36.1875 
L 39.40625 31.359375 
C 48.59375 28.9375 52.796875 25.21875 52.796875 19.484375 
C 52.796875 15.546875 50.703125 11.53125 47.59375 9.328125 
C 44.703125 7.3125 40.09375 6.203125 34.203125 6.203125 
C 26.296875 6.203125 20.90625 8.125 17.40625 12.34375 
C 14.703125 15.5625 13.5 19.09375 13.59375 23.609375 
L 4.796875 23.609375 
C 4.90625 16.890625 6.203125 12.46875 9.09375 8.4375 
C 14.09375 1.609375 22.5 -2 33.59375 -2 
C 42.296875 -2 49.40625 0.015625 54.09375 3.625 
C 59 7.546875 62.09375 14.078125 62.09375 20.421875 
C 62.09375 29.46875 56.5 36.109375 46.59375 38.828125 
L 28.296875 43.765625 
C 19.5 46.171875 16.296875 48.984375 16.296875 54.625 
C 16.296875 62.0625 22.796875 67 32.59375 67 
C 44.203125 67 50.703125 61.671875 50.796875 52.109375 
z
" id="Nimbus_Sans_L_Regular-83"/>
      <path d="M 46.796875 -0.03125 
L 67.296875 61.171875 
L 67.296875 -0.03125 
L 76.09375 -0.03125 
L 76.09375 73 
L 63.203125 73 
L 42 9.390625 
L 20.40625 73 
L 7.5 73 
L 7.5 -0.03125 
L 16.296875 -0.03125 
L 16.296875 61.171875 
L 37 -0.03125 
z
" id="Nimbus_Sans_L_Regular-77"/>
      <path d="M 19.40625 73 
L 10 73 
L 10 -0.03125 
L 19.40625 -0.03125 
z
" id="Nimbus_Sans_L_Regular-73"/>
      <path d="M 18.59375 31.78125 
L 42.59375 31.78125 
C 50.90625 31.78125 54.59375 27.71875 54.59375 18.546875 
L 54.5 11.90625 
C 54.5 7.3125 55.296875 2.828125 56.59375 -0.21875 
L 67.90625 -0.21875 
L 67.90625 2.125 
C 64.40625 4.5625 63.703125 7.21875 63.5 17.078125 
C 63.40625 29.265625 61.5 32.9375 53.59375 36.390625 
C 61.796875 40.359375 65.09375 45.40625 65.09375 53.65625 
C 65.09375 66.140625 57.203125 73 42.90625 73 
L 9.296875 73 
L 9.296875 -0.21875 
L 18.59375 -0.21875 
z
M 18.59375 40 
L 18.59375 64.78125 
L 41.09375 64.78125 
C 46.296875 64.78125 49.296875 64 51.59375 62.015625 
C 54.09375 59.9375 55.40625 56.6875 55.40625 52.34375 
C 55.40625 43.84375 51 40 41.09375 40 
z
" id="Nimbus_Sans_L_Regular-82"/>
      <path d="M 64.59375 73 
L 55.796875 73 
L 55.796875 13.296875 
L 17.703125 73 
L 7.59375 73 
L 7.59375 -0.03125 
L 16.40625 -0.03125 
L 16.40625 59.171875 
L 54.09375 -0.03125 
L 64.59375 -0.03125 
z
" id="Nimbus_Sans_L_Regular-78"/>
      <path d="M 38.90625 74.21875 
C 18 74.21875 3.796875 58.84375 3.796875 36.109375 
C 3.796875 13.359375 18 -2 39 -2 
C 47.796875 -2 55.703125 0.6875 61.59375 5.671875 
C 69.5 12.359375 74.203125 23.625 74.203125 35.5 
C 74.203125 58.953125 60.296875 74.21875 38.90625 74.21875 
z
M 38.90625 66 
C 54.703125 66 64.90625 54.046875 64.90625 35.703125 
C 64.90625 18.171875 54.40625 6.203125 39 6.203125 
C 23.5 6.203125 13.09375 18.171875 13.09375 36.109375 
C 13.09375 54.046875 23.5 66 38.90625 66 
z
" id="Nimbus_Sans_L_Regular-79"/>
      <path d="M 5.296875 16.625 
C 7 4.9375 14.59375 -2 25.40625 -2 
C 33.203125 -2 40.296875 1.78125 44.40625 8.0625 
C 48.90625 14.9375 50.90625 23.625 50.90625 36.484375 
C 50.90625 48.359375 49.09375 55.9375 44.90625 62.21875 
C 41 67.921875 34.796875 71 27 71 
C 13.5 71 3.796875 61.078125 3.796875 47.296875 
C 3.796875 34.21875 12.796875 25 25.59375 25 
C 32.296875 25 37.203125 27.40625 41.796875 32.90625 
C 41.703125 15.484375 36.09375 5.8125 26 5.8125 
C 19.796875 5.8125 15.5 9.75 14.09375 16.625 
z
M 26.90625 63.296875 
C 35.09375 63.296875 41.296875 56.59375 41.296875 47.515625 
C 41.296875 38.921875 35.203125 32.8125 26.59375 32.8125 
C 18.09375 32.8125 12.796875 38.625 12.796875 48 
C 12.796875 56.875 18.796875 63.296875 26.90625 63.296875 
z
" id="Nimbus_Sans_L_Regular-57"/>
      <path d="M 43.796875 37.921875 
C 43.703125 48.203125 36.90625 54 24.796875 54 
C 12.59375 54 4.703125 47.71875 4.703125 38.0625 
C 4.703125 29.890625 8.90625 26.015625 21.296875 23.03125 
L 29.09375 21.140625 
C 34.90625 19.734375 37.203125 17.65625 37.203125 13.875 
C 37.203125 9 32.296875 5.703125 25 5.703125 
C 20.5 5.703125 16.703125 7 14.59375 9.1875 
C 13.296875 10.6875 12.703125 12.171875 12.203125 15.84375 
L 3.40625 15.84375 
C 3.796875 3.765625 10.59375 -2 24.296875 -2 
C 37.5 -2 45.90625 4.453125 45.90625 14.515625 
C 45.90625 22.28125 41.5 26.578125 31.09375 29.0625 
L 23.09375 30.953125 
C 16.296875 32.53125 13.40625 34.734375 13.40625 38.40625 
C 13.40625 43.1875 17.703125 46.28125 24.5 46.28125 
C 31.203125 46.28125 34.796875 43.390625 35 37.921875 
z
" id="Nimbus_Sans_L_Regular-115"/>
      <path d="M 25.40625 52.8125 
L 16.796875 52.8125 
L 16.796875 67 
L 8.5 67 
L 8.5 52.8125 
L 1.40625 52.8125 
L 1.40625 46 
L 8.5 46 
L 8.5 6.3125 
C 8.5 1 12.09375 -2 18.59375 -2 
C 20.59375 -2 22.59375 -1.8125 25.40625 -1.296875 
L 25.40625 5.71875 
C 24.296875 5.40625 23 5.3125 21.40625 5.3125 
C 17.796875 5.3125 16.796875 6.3125 16.796875 10.015625 
L 16.796875 46 
L 25.40625 46 
z
" id="Nimbus_Sans_L_Regular-116"/>
     </defs>
     <g style="fill:#262626;" transform="translate(19.475333 313.206497)rotate(-90)scale(0.143 -0.143)">
      <use transform="scale(0.996264)" xlink:href="#Nimbus_Sans_L_Regular-83"/>
      <use transform="translate(66.450031 0)scale(0.996264)" xlink:href="#Nimbus_Sans_L_Regular-77"/>
      <use transform="translate(149.438461 0)scale(0.996264)" xlink:href="#Nimbus_Sans_L_Regular-73"/>
      <use transform="translate(177.133631 0)scale(0.996264)" xlink:href="#Nimbus_Sans_L_Regular-82"/>
      <use transform="translate(249.063616 0)scale(0.996264)" xlink:href="#Nimbus_Sans_L_Regular-78"/>
      <use transform="translate(320.993601 0)scale(0.996264)" xlink:href="#Nimbus_Sans_L_Regular-79"/>
      <use transform="translate(398.501971 0)scale(0.996264)" xlink:href="#Nimbus_Sans_L_Regular-70"/>
      <use transform="translate(459.373601 0)scale(0.996264)" xlink:href="#Nimbus_Sans_L_Regular-70"/>
      <use transform="translate(520.245232 0)scale(0.996264)" xlink:href="#Nimbus_Sans_L_Regular-57"/>
      <use transform="translate(575.636909 0)scale(0.996264)" xlink:href="#Nimbus_Sans_L_Regular-57"/>
      <use transform="translate(631.028586 0)scale(0.996264)" xlink:href="#Nimbus_Sans_L_Regular-70"/>
      <use transform="translate(687.417485 0)scale(0.996264)" xlink:href="#Nimbus_Sans_L_Regular-114"/>
      <use transform="translate(720.592714 0)scale(0.996264)" xlink:href="#Nimbus_Sans_L_Regular-111"/>
      <use transform="translate(775.984391 0)scale(0.996264)" xlink:href="#Nimbus_Sans_L_Regular-115"/>
      <use transform="translate(825.797592 0)scale(0.996264)" xlink:href="#Nimbus_Sans_L_Regular-115"/>
      <use transform="translate(875.610792 0)scale(0.996264)" xlink:href="#Nimbus_Sans_L_Regular-116"/>
      <use transform="translate(931.001132 0)scale(0.996264)" xlink:href="#Nimbus_Sans_L_Regular-97"/>
      <use transform="translate(986.392809 0)scale(0.996264)" xlink:href="#Nimbus_Sans_L_Regular-110"/>
      <use transform="translate(1041.784486 0)scale(0.996264)" xlink:href="#Nimbus_Sans_L_Regular-103"/>
      <use transform="translate(1097.176163 0)scale(0.996264)" xlink:href="#Nimbus_Sans_L_Regular-108"/>
      <use transform="translate(1119.292947 0)scale(0.996264)" xlink:href="#Nimbus_Sans_L_Regular-101"/>
      <use transform="translate(1202.379793 0)scale(0.996264)" xlink:href="#Nimbus_Sans_L_Regular_Italic-107"/>
      <use transform="translate(1289.850834 0)scale(0.996264)" xlink:href="#Nimbus_Sans_L_Regular-40"/>
      <use transform="translate(1323.026064 0)scale(0.996264)" xlink:href="#Nimbus_Sans_L_Regular-107"/>
      <use transform="translate(1372.839264 0)scale(0.996264)" xlink:href="#Nimbus_Sans_L_Regular-99"/>
      <use transform="translate(1422.652465 0)scale(0.996264)" xlink:href="#Nimbus_Sans_L_Regular-97"/>
      <use transform="translate(1478.044142 0)scale(0.996264)" xlink:href="#Nimbus_Sans_L_Regular-108"/>
      <use transform="translate(1500.160926 0)scale(0.996264)" xlink:href="#Nimbus_Sans_L_Regular-47"/>
      <use transform="translate(1527.856096 0)scale(0.996264)" xlink:href="#Nimbus_Sans_L_Regular-109"/>
      <use transform="translate(1610.844526 0)scale(0.996264)" xlink:href="#Nimbus_Sans_L_Regular-111"/>
      <use transform="translate(1666.236203 0)scale(0.996264)" xlink:href="#Nimbus_Sans_L_Regular-108"/>
      <use transform="translate(1688.352987 0)scale(0.996264)" xlink:href="#Nimbus_Sans_L_Regular-47"/>
      <use transform="translate(1716.048157 0)scale(0.996264)" xlink:href="#Nimbus_Sans_L_Regular-114"/>
      <use transform="translate(1748.22729 0)scale(0.996264)" xlink:href="#Nimbus_Sans_L_Regular-97"/>
      <use transform="translate(1803.618967 0)scale(0.996264)" xlink:href="#Nimbus_Sans_L_Regular-100"/>
      <use transform="translate(1859.010644 36.153639)scale(0.697382)" xlink:href="#Nimbus_Sans_L_Regular-50"/>
      <use transform="translate(1898.282776 0)scale(0.996264)" xlink:href="#Nimbus_Sans_L_Regular-41"/>
     </g>
    </g>
   </g>
   <g id="PathCollection_1">
    <path clip-path="url(#p463161b0f7)" d="M 261.306607 179.366044 
C 262.492631 179.366044 263.630239 178.894832 264.468885 178.056186 
C 265.307531 177.21754 265.778743 176.079932 265.778743 174.893908 
C 265.778743 173.707884 265.307531 172.570276 264.468885 171.731631 
C 263.630239 170.892985 262.492631 170.421772 261.306607 170.421772 
C 260.120583 170.421772 258.982975 170.892985 258.144329 171.731631 
C 257.305684 172.570276 256.834471 173.707884 256.834471 174.893908 
C 256.834471 176.079932 257.305684 177.21754 258.144329 178.056186 
C 258.982975 178.894832 260.120583 179.366044 261.306607 179.366044 
z
" style="fill:#808080;"/>
   </g>
   <g id="PathCollection_2">
    <path clip-path="url(#p463161b0f7)" d="M 242.022127 179.366044 
C 243.208151 179.366044 244.345759 178.894832 245.184405 178.056186 
C 246.023051 177.21754 246.494263 176.079932 246.494263 174.893908 
C 246.494263 173.707884 246.023051 172.570276 245.184405 171.731631 
C 244.345759 170.892985 243.208151 170.421772 242.022127 170.421772 
C 240.836103 170.421772 239.698495 170.892985 238.859849 171.731631 
C 238.021204 172.570276 237.549991 173.707884 237.549991 174.893908 
C 237.549991 176.079932 238.021204 177.21754 238.859849 178.056186 
C 239.698495 178.894832 240.836103 179.366044 242.022127 179.366044 
z
" style="fill:#808080;"/>
   </g>
   <g id="PathCollection_3">
    <path clip-path="url(#p463161b0f7)" d="M 243.629167 179.366044 
C 244.815191 179.366044 245.952799 178.894832 246.791445 178.056186 
C 247.630091 177.21754 248.101303 176.079932 248.101303 174.893908 
C 248.101303 173.707884 247.630091 172.570276 246.791445 171.731631 
C 245.952799 170.892985 244.815191 170.421772 243.629167 170.421772 
C 242.443143 170.421772 241.305535 170.892985 240.466889 171.731631 
C 239.628244 172.570276 239.157031 173.707884 239.157031 174.893908 
C 239.157031 176.079932 239.628244 177.21754 240.466889 178.056186 
C 241.305535 178.894832 242.443143 179.366044 243.629167 179.366044 
z
" style="fill:#808080;"/>
   </g>
   <g id="PathCollection_4">
    <path clip-path="url(#p463161b0f7)" d="M 262.110127 179.366044 
C 263.296151 179.366044 264.433759 178.894832 265.272405 178.056186 
C 266.111051 177.21754 266.582263 176.079932 266.582263 174.893908 
C 266.582263 173.707884 266.111051 172.570276 265.272405 171.731631 
C 264.433759 170.892985 263.296151 170.421772 262.110127 170.421772 
C 260.924103 170.421772 259.786495 170.892985 258.947849 171.731631 
C 258.109204 172.570276 257.637991 173.707884 257.637991 174.893908 
C 257.637991 176.079932 258.109204 177.21754 258.947849 178.056186 
C 259.786495 178.894832 260.924103 179.366044 262.110127 179.366044 
z
" style="fill:#808080;"/>
   </g>
   <g id="PathCollection_5">
    <path clip-path="url(#p463161b0f7)" d="M 246.441487 179.366044 
C 247.627511 179.366044 248.765119 178.894832 249.603765 178.056186 
C 250.442411 177.21754 250.913623 176.079932 250.913623 174.893908 
C 250.913623 173.707884 250.442411 172.570276 249.603765 171.731631 
C 248.765119 170.892985 247.627511 170.421772 246.441487 170.421772 
C 245.255463 170.421772 244.117855 170.892985 243.279209 171.731631 
C 242.440564 172.570276 241.969351 173.707884 241.969351 174.893908 
C 241.969351 176.079932 242.440564 177.21754 243.279209 178.056186 
C 244.117855 178.894832 245.255463 179.366044 246.441487 179.366044 
z
" style="fill:#808080;"/>
   </g>
   <g id="PathCollection_6">
    <path clip-path="url(#p463161b0f7)" d="M 329.605807 179.366044 
C 330.791831 179.366044 331.929439 178.894832 332.768085 178.056186 
C 333.606731 177.21754 334.077943 176.079932 334.077943 174.893908 
C 334.077943 173.707884 333.606731 172.570276 332.768085 171.731631 
C 331.929439 170.892985 330.791831 170.421772 329.605807 170.421772 
C 328.419783 170.421772 327.282175 170.892985 326.443529 171.731631 
C 325.604884 172.570276 325.133671 173.707884 325.133671 174.893908 
C 325.133671 176.079932 325.604884 177.21754 326.443529 178.056186 
C 327.282175 178.894832 328.419783 179.366044 329.605807 179.366044 
z
" style="fill:#ff0000;"/>
   </g>
   <g id="PathCollection_7">
    <path clip-path="url(#p463161b0f7)" d="M 345.274447 179.366044 
C 346.460471 179.366044 347.598079 178.894832 348.436725 178.056186 
C 349.275371 177.21754 349.746583 176.079932 349.746583 174.893908 
C 349.746583 173.707884 349.275371 172.570276 348.436725 171.731631 
C 347.598079 170.892985 346.460471 170.421772 345.274447 170.421772 
C 344.088423 170.421772 342.950815 170.892985 342.112169 171.731631 
C 341.273524 172.570276 340.802311 173.707884 340.802311 174.893908 
C 340.802311 176.079932 341.273524 177.21754 342.112169 178.056186 
C 342.950815 178.894832 344.088423 179.366044 345.274447 179.366044 
z
" style="fill:#ff0000;"/>
   </g>
   <g id="PathCollection_8">
    <path clip-path="url(#p463161b0f7)" d="M 311.124847 179.366044 
C 312.310871 179.366044 313.448479 178.894832 314.287125 178.056186 
C 315.125771 177.21754 315.596983 176.079932 315.596983 174.893908 
C 315.596983 173.707884 315.125771 172.570276 314.287125 171.731631 
C 313.448479 170.892985 312.310871 170.421772 311.124847 170.421772 
C 309.938823 170.421772 308.801215 170.892985 307.962569 171.731631 
C 307.123924 172.570276 306.652711 173.707884 306.652711 174.893908 
C 306.652711 176.079932 307.123924 177.21754 307.962569 178.056186 
C 308.801215 178.894832 309.938823 179.366044 311.124847 179.366044 
z
" style="fill:#ff0000;"/>
   </g>
   <g id="PathCollection_9">
    <path clip-path="url(#p463161b0f7)" d="M 307.910767 179.366044 
C 309.096791 179.366044 310.234399 178.894832 311.073045 178.056186 
C 311.911691 177.21754 312.382903 176.079932 312.382903 174.893908 
C 312.382903 173.707884 311.911691 172.570276 311.073045 171.731631 
C 310.234399 170.892985 309.096791 170.421772 307.910767 170.421772 
C 306.724743 170.421772 305.587135 170.892985 304.748489 171.731631 
C 303.909844 172.570276 303.438631 173.707884 303.438631 174.893908 
C 303.438631 176.079932 303.909844 177.21754 304.748489 178.056186 
C 305.587135 178.894832 306.724743 179.366044 307.910767 179.366044 
z
" style="fill:#ff0000;"/>
   </g>
   <g id="PathCollection_10">
    <path clip-path="url(#p463161b0f7)" d="M 214.702447 228.290044 
C 215.888471 228.290044 217.026079 227.818832 217.864725 226.980186 
C 218.703371 226.14154 219.174583 225.003932 219.174583 223.817908 
C 219.174583 222.631884 218.703371 221.494276 217.864725 220.655631 
C 217.026079 219.816985 215.888471 219.345772 214.702447 219.345772 
C 213.516423 219.345772 212.378815 219.816985 211.540169 220.655631 
C 210.701524 221.494276 210.230311 222.631884 210.230311 223.817908 
C 210.230311 225.003932 210.701524 226.14154 211.540169 226.980186 
C 212.378815 227.818832 213.516423 228.290044 214.702447 228.290044 
z
" style="fill:#ff0000;"/>
   </g>
   <g id="patch_3">
    <path d="M 57.212527 337.973908 
L 57.212527 11.813908 
" style="fill:none;stroke:#cccccc;stroke-linecap:square;stroke-linejoin:miter;"/>
   </g>
   <g id="patch_4">
    <path d="M 458.972527 337.973908 
L 458.972527 11.813908 
" style="fill:none;stroke:#cccccc;stroke-linecap:square;stroke-linejoin:miter;"/>
   </g>
   <g id="patch_5">
    <path d="M 57.212527 337.973908 
L 458.972527 337.973908 
" style="fill:none;stroke:#cccccc;stroke-linecap:square;stroke-linejoin:miter;"/>
   </g>
   <g id="patch_6">
    <path d="M 57.212527 11.813908 
L 458.972527 11.813908 
" style="fill:none;stroke:#cccccc;stroke-linecap:square;stroke-linejoin:miter;"/>
   </g>
   <g id="patch_7">
    <path d="M 336.037185 149.764687 
Q 333.069189 161.361491 330.101193 172.958296 
" style="fill:none;stroke:#000000;stroke-linecap:round;stroke-width:0.39;"/>
   </g>
   <g id="text_15">
    <!-- C- -C- -O -->
    <defs>
     <path d="M 66.203125 50.453125 
C 63.296875 66.4375 54.09375 74.21875 38.09375 74.21875 
C 28.296875 74.21875 20.40625 71.125 15 65.125 
C 8.40625 57.953125 4.796875 47.578125 4.796875 35.796875 
C 4.796875 23.828125 8.5 13.5625 15.40625 6.46875 
C 21 0.6875 28.203125 -2 37.703125 -2 
C 55.5 -2 65.5 7.578125 67.703125 26.828125 
L 58.09375 26.828125 
C 57.296875 21.859375 56.296875 18.46875 54.796875 15.578125 
C 51.796875 9.59375 45.59375 6.203125 37.796875 6.203125 
C 23.296875 6.203125 14.09375 17.765625 14.09375 35.90625 
C 14.09375 54.546875 22.90625 66 37 66 
C 42.90625 66 48.40625 64.21875 51.40625 61.40625 
C 54.09375 58.921875 55.59375 55.828125 56.703125 50.453125 
z
" id="Nimbus_Sans_L_Regular-67"/>
     <path id="Nimbus_Sans_L_Regular-150"/>
    </defs>
    <g style="fill:#ff0000;" transform="translate(315.445781 142.857883)scale(0.14 -0.14)">
     <use transform="scale(0.996264)" xlink:href="#Nimbus_Sans_L_Regular-67"/>
     <use transform="translate(71.929985 0)scale(0.996264)" xlink:href="#Nimbus_Sans_L_Regular-150"/>
     <use transform="translate(127.321662 0)scale(0.996264)" xlink:href="#Nimbus_Sans_L_Regular-67"/>
     <use transform="translate(199.251647 0)scale(0.996264)" xlink:href="#Nimbus_Sans_L_Regular-150"/>
     <use transform="translate(254.643324 0)scale(0.996264)" xlink:href="#Nimbus_Sans_L_Regular-79"/>
    </g>
   </g>
   <g id="patch_8">
    <path d="M 406.140628 166.604292 
Q 376.697579 170.614262 347.25453 174.624233 
" style="fill:none;stroke:#000000;stroke-linecap:round;stroke-width:0.39;"/>
   </g>
   <g id="text_16">
    <!-- O- -C- -O -->
    <g style="fill:#ff0000;" transform="translate(410.124283 166.325399)scale(0.14 -0.14)">
     <use transform="scale(0.996264)" xlink:href="#Nimbus_Sans_L_Regular-79"/>
     <use transform="translate(77.50837 0)scale(0.996264)" xlink:href="#Nimbus_Sans_L_Regular-150"/>
     <use transform="translate(132.900047 0)scale(0.996264)" xlink:href="#Nimbus_Sans_L_Regular-67"/>
     <use transform="translate(204.830032 0)scale(0.996264)" xlink:href="#Nimbus_Sans_L_Regular-150"/>
     <use transform="translate(260.221709 0)scale(0.996264)" xlink:href="#Nimbus_Sans_L_Regular-79"/>
    </g>
   </g>
   <g id="patch_9">
    <path d="M 272.340269 169.32798 
Q 290.740692 171.968603 309.141114 174.609225 
" style="fill:none;stroke:#000000;stroke-linecap:round;stroke-width:0.39;"/>
   </g>
   <g id="text_17">
    <!-- C- -C- -C -->
    <g style="fill:#ff0000;" transform="translate(222.641003 168.959761)scale(0.14 -0.14)">
     <use transform="scale(0.996264)" xlink:href="#Nimbus_Sans_L_Regular-67"/>
     <use transform="translate(71.929985 0)scale(0.996264)" xlink:href="#Nimbus_Sans_L_Regular-150"/>
     <use transform="translate(127.321662 0)scale(0.996264)" xlink:href="#Nimbus_Sans_L_Regular-67"/>
     <use transform="translate(199.251647 0)scale(0.996264)" xlink:href="#Nimbus_Sans_L_Regular-150"/>
     <use transform="translate(254.643324 0)scale(0.996264)" xlink:href="#Nimbus_Sans_L_Regular-67"/>
    </g>
   </g>
   <g id="patch_10">
    <path d="M 318.433756 179.33488 
Q 314.09328 177.503087 309.752804 175.671295 
" style="fill:none;stroke:#000000;stroke-linecap:round;stroke-width:0.39;"/>
   </g>
   <g id="text_18">
    <!-- C- -O- -C -->
    <g style="fill:#ff0000;" transform="translate(317.06116 192.051396)scale(0.14 -0.14)">
     <use transform="scale(0.996264)" xlink:href="#Nimbus_Sans_L_Regular-67"/>
     <use transform="translate(71.929985 0)scale(0.996264)" xlink:href="#Nimbus_Sans_L_Regular-150"/>
     <use transform="translate(127.321662 0)scale(0.996264)" xlink:href="#Nimbus_Sans_L_Regular-79"/>
     <use transform="translate(204.830032 0)scale(0.996264)" xlink:href="#Nimbus_Sans_L_Regular-150"/>
     <use transform="translate(260.221709 0)scale(0.996264)" xlink:href="#Nimbus_Sans_L_Regular-67"/>
    </g>
   </g>
   <g id="patch_11">
    <path d="M 221.877945 221.791501 
Q 219.251951 222.533099 216.625957 223.274696 
" style="fill:none;stroke:#000000;stroke-linecap:round;stroke-width:0.39;"/>
   </g>
   <g id="text_19">
    <!-- H- -C- -H -->
    <defs>
     <path d="M 55.09375 33 
L 55.09375 -0.03125 
L 64.40625 -0.03125 
L 64.40625 73 
L 55.09375 73 
L 55.09375 41.21875 
L 17.59375 41.21875 
L 17.59375 73 
L 8.296875 73 
L 8.296875 -0.03125 
L 17.703125 -0.03125 
L 17.703125 33 
z
" id="Nimbus_Sans_L_Regular-72"/>
    </defs>
    <g style="fill:#ff0000;" transform="translate(225.802113 217.71088)scale(0.14 -0.14)">
     <use transform="scale(0.996264)" xlink:href="#Nimbus_Sans_L_Regular-72"/>
     <use transform="translate(71.929985 0)scale(0.996264)" xlink:href="#Nimbus_Sans_L_Regular-150"/>
     <use transform="translate(127.321662 0)scale(0.996264)" xlink:href="#Nimbus_Sans_L_Regular-67"/>
     <use transform="translate(199.251647 0)scale(0.996264)" xlink:href="#Nimbus_Sans_L_Regular-150"/>
     <use transform="translate(254.643324 0)scale(0.996264)" xlink:href="#Nimbus_Sans_L_Regular-72"/>
    </g>
   </g>
  </g>
 </g>
 <defs>
  <clipPath id="p463161b0f7">
   <rect height="326.16" width="401.76" x="57.212527" y="11.813908"/>
  </clipPath>
 </defs>
</svg>
