<?xml version="1.0" encoding="utf-8" standalone="no"?>
<!DOCTYPE svg PUBLIC "-//W3C//DTD SVG 1.1//EN"
  "http://www.w3.org/Graphics/SVG/1.1/DTD/svg11.dtd">
<!-- Created with matplotlib (http://matplotlib.org/) -->
<svg height="383pt" version="1.1" viewBox="0 0 463 383" width="463pt" xmlns="http://www.w3.org/2000/svg" xmlns:xlink="http://www.w3.org/1999/xlink">
 <defs>
  <style type="text/css">
*{stroke-linecap:butt;stroke-linejoin:round;}
  </style>
 </defs>
 <g id="figure_1">
  <g id="patch_1">
   <path d="M 0 383.708983 
L 463.583428 383.708983 
L 463.583428 0 
L 0 0 
z
" style="fill:#ffffff;"/>
  </g>
  <g id="axes_1">
   <g id="patch_2">
    <path d="M 51.022969 337.973908 
L 452.782969 337.973908 
L 452.782969 11.813908 
L 51.022969 11.813908 
z
" style="fill:#ffffff;"/>
   </g>
   <g id="line2d_1">
    <path clip-path="url(#p2220ff6c74)" d="M -1 380.207609 
L 464.583428 2.233966 
" style="fill:none;stroke:#4c4c4c;stroke-linecap:round;stroke-width:0.5;"/>
   </g>
   <g id="matplotlib.axis_1">
    <g id="xtick_1">
     <g id="line2d_2">
      <path clip-path="url(#p2220ff6c74)" d="M 51.022969 337.973908 
L 51.022969 11.813908 
" style="fill:none;stroke:#cccccc;stroke-linecap:round;stroke-width:1.3;"/>
     </g>
     <g id="line2d_3"/>
     <g id="text_1">
      <!-- $-8$ -->
      <defs>
       <path d="M 65.90625 23 
C 67.59375 23 69.40625 23 69.40625 25 
C 69.40625 27 67.59375 27 65.90625 27 
L 11.796875 27 
C 10.09375 27 8.296875 27 8.296875 25 
C 8.296875 23 10.09375 23 11.796875 23 
z
" id="CMSY10-0"/>
       <path d="M 39.09375 37.484375 
C 46.40625 41.875 48.796875 45.46875 48.796875 52.15625 
C 48.796875 63.21875 40.09375 71 27.5 71 
C 15 71 6.203125 63.21875 6.203125 52.15625 
C 6.203125 45.578125 8.59375 41.984375 15.796875 37.484375 
C 7.703125 33.59375 3.703125 27.71875 3.703125 19.9375 
C 3.703125 6.96875 13.5 -2 27.5 -2 
C 41.5 -2 51.296875 6.984375 51.296875 19.84375 
C 51.296875 27.71875 47.296875 33.59375 39.09375 37.484375 
z
M 27.5 63.1875 
C 35 63.1875 39.796875 58.8125 39.796875 51.953125 
C 39.796875 45.375 34.90625 41 27.5 41 
C 20.09375 41 15.203125 45.375 15.203125 52.046875 
C 15.203125 58.8125 20.09375 63.1875 27.5 63.1875 
z
M 27.5 33.578125 
C 36.296875 33.578125 42.296875 28 42.296875 19.734375 
C 42.296875 11.390625 36.296875 5.8125 27.296875 5.8125 
C 18.703125 5.8125 12.703125 11.484375 12.703125 19.734375 
C 12.703125 28 18.703125 33.578125 27.5 33.578125 
z
" id="Nimbus_Sans_L_Regular-56"/>
      </defs>
      <g style="fill:#262626;" transform="translate(42.385826 356.301725)scale(0.13 -0.13)">
       <use transform="scale(0.996264)" xlink:href="#CMSY10-0"/>
       <use transform="translate(77.487468 0)scale(0.996264)" xlink:href="#Nimbus_Sans_L_Regular-56"/>
      </g>
     </g>
    </g>
    <g id="xtick_2">
     <g id="line2d_4">
      <path clip-path="url(#p2220ff6c74)" d="M 108.417255 337.973908 
L 108.417255 11.813908 
" style="fill:none;stroke:#cccccc;stroke-linecap:round;stroke-width:1.3;"/>
     </g>
     <g id="line2d_5"/>
     <g id="text_2">
      <!-- $-6$ -->
      <defs>
       <path d="M 49.796875 52.84375 
C 48.09375 64.234375 40.5 71 29.703125 71 
C 21.90625 71 14.90625 67.21875 10.703125 60.9375 
C 6.296875 54.0625 4.296875 45.375 4.296875 32.515625 
C 4.296875 20.640625 6.09375 13.0625 10.296875 6.78125 
C 14.09375 1.078125 20.296875 -2 28.09375 -2 
C 41.59375 -2 51.296875 8.09375 51.296875 22.109375 
C 51.296875 35.4375 42.296875 44.8125 29.59375 44.8125 
C 22.59375 44.8125 17.09375 42.109375 13.296875 36.90625 
C 13.40625 53.8125 19 63.1875 29.09375 63.1875 
C 35.296875 63.1875 39.59375 59.421875 41 52.84375 
z
M 28.5 37 
C 37 37 42.296875 31.03125 42.296875 21.40625 
C 42.296875 12.390625 36.296875 5.8125 28.203125 5.8125 
C 20 5.8125 13.796875 12.703125 13.796875 21.90625 
C 13.796875 30.828125 19.796875 37 28.5 37 
z
" id="Nimbus_Sans_L_Regular-54"/>
      </defs>
      <g style="fill:#262626;" transform="translate(99.780112 356.301725)scale(0.13 -0.13)">
       <use transform="scale(0.996264)" xlink:href="#CMSY10-0"/>
       <use transform="translate(77.487468 0)scale(0.996264)" xlink:href="#Nimbus_Sans_L_Regular-54"/>
      </g>
     </g>
    </g>
    <g id="xtick_3">
     <g id="line2d_6">
      <path clip-path="url(#p2220ff6c74)" d="M 165.811541 337.973908 
L 165.811541 11.813908 
" style="fill:none;stroke:#cccccc;stroke-linecap:round;stroke-width:1.3;"/>
     </g>
     <g id="line2d_7"/>
     <g id="text_3">
      <!-- $-4$ -->
      <defs>
       <path d="M 32.703125 17 
L 32.703125 0 
L 41.5 0 
L 41.5 17 
L 52 17 
L 52 24.90625 
L 41.5 24.90625 
L 41.5 71.015625 
L 35 71.015625 
L 2.796875 26.3125 
L 2.796875 17 
z
M 32.703125 24.90625 
L 10.5 24.90625 
L 32.703125 55.984375 
z
" id="Nimbus_Sans_L_Regular-52"/>
      </defs>
      <g style="fill:#262626;" transform="translate(157.174397 356.301725)scale(0.13 -0.13)">
       <use transform="scale(0.996264)" xlink:href="#CMSY10-0"/>
       <use transform="translate(77.487468 0)scale(0.996264)" xlink:href="#Nimbus_Sans_L_Regular-52"/>
      </g>
     </g>
    </g>
    <g id="xtick_4">
     <g id="line2d_8">
      <path clip-path="url(#p2220ff6c74)" d="M 223.205827 337.973908 
L 223.205827 11.813908 
" style="fill:none;stroke:#cccccc;stroke-linecap:round;stroke-width:1.3;"/>
     </g>
     <g id="line2d_9"/>
     <g id="text_4">
      <!-- $-2$ -->
      <defs>
       <path d="M 50.59375 8.71875 
L 13.296875 8.71875 
C 14.203125 14.53125 17.40625 18.234375 26.09375 23.34375 
L 36.09375 28.75 
C 46 34.15625 51.09375 41.453125 51.09375 50.171875 
C 51.09375 56.078125 48.703125 61.59375 44.5 65.390625 
C 40.296875 69.203125 35.09375 71 28.40625 71 
C 19.40625 71 12.703125 67.796875 8.796875 61.796875 
C 6.296875 57.984375 5.203125 53.578125 5 46.359375 
L 13.796875 46.359375 
C 14.09375 51.171875 14.703125 54.078125 15.90625 56.375 
C 18.203125 60.6875 22.796875 63.296875 28.09375 63.296875 
C 36.09375 63.296875 42.09375 57.578125 42.09375 49.96875 
C 42.09375 44.359375 38.796875 39.546875 32.5 35.953125 
L 23.296875 30.75 
C 8.5 22.34375 4.203125 15.625 3.40625 0 
L 50.59375 0 
z
" id="Nimbus_Sans_L_Regular-50"/>
      </defs>
      <g style="fill:#262626;" transform="translate(214.568683 356.301725)scale(0.13 -0.13)">
       <use transform="scale(0.996264)" xlink:href="#CMSY10-0"/>
       <use transform="translate(77.487468 0)scale(0.996264)" xlink:href="#Nimbus_Sans_L_Regular-50"/>
      </g>
     </g>
    </g>
    <g id="xtick_5">
     <g id="line2d_10">
      <path clip-path="url(#p2220ff6c74)" d="M 280.600112 337.973908 
L 280.600112 11.813908 
" style="fill:none;stroke:#cccccc;stroke-linecap:round;stroke-width:1.3;"/>
     </g>
     <g id="line2d_11"/>
     <g id="text_5">
      <!-- $0$ -->
      <defs>
       <path d="M 27.5 71 
C 20.90625 71 14.90625 68.125 11.203125 63.21875 
C 6.59375 57.046875 4.296875 47.5625 4.296875 34.5 
C 4.296875 10.671875 12.296875 -2 27.5 -2 
C 42.5 -2 50.703125 10.671875 50.703125 33.90625 
C 50.703125 47.65625 48.5 56.84375 43.796875 63.21875 
C 40.09375 68.21875 34.203125 71 27.5 71 
z
M 27.5 63.1875 
C 37 63.1875 41.703125 53.625 41.703125 34.703125 
C 41.703125 14.671875 37.09375 5.3125 27.296875 5.3125 
C 18 5.3125 13.296875 15.078125 13.296875 34.40625 
C 13.296875 53.71875 18 63.1875 27.5 63.1875 
z
" id="Nimbus_Sans_L_Regular-48"/>
      </defs>
      <g style="fill:#262626;" transform="translate(276.999654 356.301725)scale(0.13 -0.13)">
       <use transform="scale(0.996264)" xlink:href="#Nimbus_Sans_L_Regular-48"/>
      </g>
     </g>
    </g>
    <g id="xtick_6">
     <g id="line2d_12">
      <path clip-path="url(#p2220ff6c74)" d="M 337.994398 337.973908 
L 337.994398 11.813908 
" style="fill:none;stroke:#cccccc;stroke-linecap:round;stroke-width:1.3;"/>
     </g>
     <g id="line2d_13"/>
     <g id="text_6">
      <!-- $2$ -->
      <g style="fill:#262626;" transform="translate(334.393939 356.301725)scale(0.13 -0.13)">
       <use transform="scale(0.996264)" xlink:href="#Nimbus_Sans_L_Regular-50"/>
      </g>
     </g>
    </g>
    <g id="xtick_7">
     <g id="line2d_14">
      <path clip-path="url(#p2220ff6c74)" d="M 395.388684 337.973908 
L 395.388684 11.813908 
" style="fill:none;stroke:#cccccc;stroke-linecap:round;stroke-width:1.3;"/>
     </g>
     <g id="line2d_15"/>
     <g id="text_7">
      <!-- $4$ -->
      <g style="fill:#262626;" transform="translate(391.788225 356.301725)scale(0.13 -0.13)">
       <use transform="scale(0.996264)" xlink:href="#Nimbus_Sans_L_Regular-52"/>
      </g>
     </g>
    </g>
    <g id="xtick_8">
     <g id="line2d_16">
      <path clip-path="url(#p2220ff6c74)" d="M 452.782969 337.973908 
L 452.782969 11.813908 
" style="fill:none;stroke:#cccccc;stroke-linecap:round;stroke-width:1.3;"/>
     </g>
     <g id="line2d_17"/>
     <g id="text_8">
      <!-- $6$ -->
      <g style="fill:#262626;" transform="translate(449.182511 356.301725)scale(0.13 -0.13)">
       <use transform="scale(0.996264)" xlink:href="#Nimbus_Sans_L_Regular-54"/>
      </g>
     </g>
    </g>
    <g id="text_9">
     <!-- GAFF v1.7 $-T\Delta$S (kcal/mol) -->
     <defs>
      <path d="M 70.90625 39 
L 40.5 39 
L 40.5 30.796875 
L 62.703125 30.796875 
L 62.703125 28.765625 
C 62.703125 15.671875 53.09375 6.203125 39.796875 6.203125 
C 32.40625 6.203125 25.703125 8.890625 21.40625 13.59375 
C 16.59375 18.765625 13.703125 27.4375 13.703125 36.40625 
C 13.703125 54.234375 23.90625 66 39.296875 66 
C 50.40625 66 58.40625 60.375 60.40625 51.125 
L 69.90625 51.125 
C 67.296875 65.796875 56.09375 74.21875 39.40625 74.21875 
C 30.5 74.21875 23.296875 71.921875 17.59375 67.234375 
C 9.203125 60.25 4.40625 48.984375 4.40625 35.90625 
C 4.40625 13.5625 18.09375 -2 37.796875 -2 
C 47.703125 -2 55.59375 1.703125 62.703125 9.625 
L 65 -0.109375 
L 70.90625 -0.109375 
z
" id="Nimbus_Sans_L_Regular-71"/>
      <path d="M 47.40625 22 
L 54.90625 0 
L 65.296875 0 
L 39.703125 73 
L 27.703125 73 
L 1.703125 0 
L 11.59375 0 
L 19.296875 22 
z
M 44.796875 29.8125 
L 21.59375 29.8125 
L 33.59375 63 
z
" id="Nimbus_Sans_L_Regular-65"/>
      <path d="M 18.296875 33 
L 53.09375 33 
L 53.09375 41.21875 
L 18.296875 41.21875 
L 18.296875 64.78125 
L 57.90625 64.78125 
L 57.90625 73 
L 9 73 
L 9 -0.21875 
L 18.296875 -0.21875 
z
" id="Nimbus_Sans_L_Regular-70"/>
      <path d="M 28.5 0 
L 48.59375 52.5 
L 39.203125 52.5 
L 24.40625 9.921875 
L 10.40625 52.5 
L 1 52.5 
L 19.40625 0 
z
" id="Nimbus_Sans_L_Regular-118"/>
      <path d="M 25.90625 50.59375 
L 25.90625 0 
L 34.703125 0 
L 34.703125 71.015625 
L 28.90625 71.015625 
C 25.796875 60.109375 23.796875 58.609375 10.203125 56.90625 
L 10.203125 50.59375 
z
" id="Nimbus_Sans_L_Regular-49"/>
      <path d="M 19.09375 10.421875 
L 8.703125 10.421875 
L 8.703125 0 
L 19.09375 0 
z
" id="Nimbus_Sans_L_Regular-46"/>
      <path d="M 52 70.703125 
L 4.59375 70.703125 
L 4.59375 62 
L 42.90625 62 
C 26 37.78125 19.09375 22.90625 13.796875 -0.5 
L 23.203125 -0.5 
C 27.09375 22.296875 36 41.890625 52 63.296875 
z
" id="Nimbus_Sans_L_Regular-55"/>
      <path d="M 49.296875 64.78125 
L 73.09375 64.78125 
L 74.796875 73 
L 17.5 73 
L 15.796875 64.78125 
L 39.90625 64.78125 
L 26.09375 -0.21875 
L 35.5 -0.21875 
z
" id="Nimbus_Sans_L_Regular_Italic-84"/>
      <path d="M 36.296875 66.625 
L 3 4.40625 
L 3.203125 0.234375 
C 10.5 0.734375 17.90625 0.9375 25.296875 0.9375 
C 37.796875 0.9375 50.203125 0.328125 62.703125 -0.453125 
L 68.796875 2.71875 
L 68.90625 4.3125 
C 58.09375 25.078125 49.5 46.859375 42.09375 69.109375 
z
M 56.203125 5 
C 44.5 5 32.703125 5 20.90625 5 
C 17.40625 5 13.90625 5 10.40625 5 
L 10.09375 6.1875 
C 18.09375 23.03125 26.09375 38.65625 35.59375 55 
L 36.703125 55 
C 36.703125 54.90625 52.703125 15.21875 56.796875 5.890625 
z
" id="EURM10-1"/>
      <path d="M 59.59375 52.109375 
C 59.5 66.484375 49.703125 74.8125 32.90625 74.8125 
C 16.90625 74.8125 7 66.5625 7 53.28125 
C 7 44.328125 11.703125 38.703125 21.296875 36.1875 
L 39.40625 31.359375 
C 48.59375 28.9375 52.796875 25.21875 52.796875 19.484375 
C 52.796875 15.546875 50.703125 11.53125 47.59375 9.328125 
C 44.703125 7.3125 40.09375 6.203125 34.203125 6.203125 
C 26.296875 6.203125 20.90625 8.125 17.40625 12.34375 
C 14.703125 15.5625 13.5 19.09375 13.59375 23.609375 
L 4.796875 23.609375 
C 4.90625 16.890625 6.203125 12.46875 9.09375 8.4375 
C 14.09375 1.609375 22.5 -2 33.59375 -2 
C 42.296875 -2 49.40625 0.015625 54.09375 3.625 
C 59 7.546875 62.09375 14.078125 62.09375 20.421875 
C 62.09375 29.46875 56.5 36.109375 46.59375 38.828125 
L 28.296875 43.765625 
C 19.5 46.171875 16.296875 48.984375 16.296875 54.625 
C 16.296875 62.0625 22.796875 67 32.59375 67 
C 44.203125 67 50.703125 61.671875 50.796875 52.109375 
z
" id="Nimbus_Sans_L_Regular-83"/>
      <path d="M 23.59375 73 
C 13.59375 59.84375 7.296875 41.5625 7.296875 25.796875 
C 7.296875 9.9375 13.59375 -8.34375 23.59375 -21.5 
L 29.09375 -21.5 
C 20.296875 -7.140625 15.40625 9.734375 15.40625 25.796875 
C 15.40625 41.765625 20.296875 58.734375 29.09375 73 
z
" id="Nimbus_Sans_L_Regular-40"/>
      <path d="M 14.09375 73 
L 5.796875 73 
L 5.796875 -0.03125 
L 14.09375 -0.03125 
L 14.09375 20.40625 
L 22.203125 28.421875 
L 39.90625 -0.03125 
L 50.203125 -0.03125 
L 28.796875 34.328125 
L 47 52.453125 
L 36.296875 52.453125 
L 14.09375 30.21875 
z
" id="Nimbus_Sans_L_Regular-107"/>
      <path d="M 47.09375 34.9375 
C 46.703125 40.03125 45.59375 43.328125 43.59375 46.21875 
C 40 51.109375 33.703125 54 26.40625 54 
C 12.296875 54 3.09375 42.84375 3.09375 25.5 
C 3.09375 8.65625 12.09375 -2 26.296875 -2 
C 38.796875 -2 46.703125 5.46875 47.703125 18.234375 
L 39.296875 18.234375 
C 37.90625 9.875 33.59375 5.703125 26.5 5.703125 
C 17.296875 5.703125 11.796875 13.171875 11.796875 25.5 
C 11.796875 38.53125 17.203125 46.28125 26.296875 46.28125 
C 33.296875 46.28125 37.703125 42.203125 38.703125 34.9375 
z
" id="Nimbus_Sans_L_Regular-99"/>
      <path d="M 53.5 5.203125 
C 52.59375 5 52.203125 5 51.703125 5 
C 48.796875 5 47.203125 6.484375 47.203125 9.078125 
L 47.203125 39.765625 
C 47.203125 49.015625 40.40625 54 27.5 54 
C 19.90625 54 13.59375 51.8125 10.09375 47.90625 
C 7.703125 45.203125 6.703125 42.21875 6.5 37.03125 
L 14.90625 37.03125 
C 15.59375 43.390625 19.40625 46.28125 27.203125 46.28125 
C 34.703125 46.28125 38.90625 43.484375 38.90625 38.515625 
L 38.90625 36.328125 
C 38.90625 32.828125 36.796875 31.34375 30.203125 30.546875 
C 18.40625 29.0625 16.59375 28.65625 13.40625 27.359375 
C 7.296875 24.875 4.203125 20.1875 4.203125 13.421875 
C 4.203125 3.96875 10.796875 -2 21.40625 -2 
C 28 -2 33.296875 0.296875 39.203125 5.703125 
C 39.796875 0.390625 42.40625 -2 47.796875 -2 
C 49.5 -2 50.796875 -1.8125 53.5 -1.09375 
z
M 38.90625 16.75 
C 38.90625 13.953125 38.09375 12.265625 35.59375 9.984375 
C 32.203125 6.890625 28.09375 5.3125 23.203125 5.3125 
C 16.703125 5.3125 12.90625 8.390625 12.90625 13.65625 
C 12.90625 19.140625 16.59375 21.921875 25.5 23.21875 
C 34.296875 24.40625 36.09375 24.8125 38.90625 26.09375 
z
" id="Nimbus_Sans_L_Regular-97"/>
      <path d="M 15.203125 73 
L 6.796875 73 
L 6.796875 -0.03125 
L 15.203125 -0.03125 
z
" id="Nimbus_Sans_L_Regular-108"/>
      <path d="M 22.90625 73 
L -0.796875 -2 
L 4.703125 -2 
L 28.40625 73 
z
" id="Nimbus_Sans_L_Regular-47"/>
      <path d="M 7 52.484375 
L 7 0 
L 15.40625 0 
L 15.40625 32.953125 
C 15.40625 40.578125 20.90625 46.6875 27.703125 46.6875 
C 33.90625 46.6875 37.40625 42.875 37.40625 36.15625 
L 37.40625 0 
L 45.796875 0 
L 45.796875 32.953125 
C 45.796875 40.578125 51.296875 46.6875 58.09375 46.6875 
C 64.203125 46.6875 67.796875 42.78125 67.796875 36.15625 
L 67.796875 0 
L 76.203125 0 
L 76.203125 39.375 
C 76.203125 48.78125 70.796875 54 61 54 
C 54 54 49.796875 51.890625 44.90625 45.984375 
C 41.796875 51.59375 37.59375 54 30.796875 54 
C 23.796875 54 19.203125 51.390625 14.703125 45.078125 
L 14.703125 52.484375 
z
" id="Nimbus_Sans_L_Regular-109"/>
      <path d="M 27.203125 54 
C 12.5 54 3.59375 43.53125 3.59375 25.984375 
C 3.59375 8.453125 12.40625 -2 27.296875 -2 
C 42 -2 51 8.453125 51 25.59375 
C 51 43.625 42.296875 54 27.203125 54 
z
M 27.296875 46.28125 
C 36.703125 46.28125 42.296875 38.625 42.296875 25.703125 
C 42.296875 13.453125 36.5 5.703125 27.296875 5.703125 
C 18 5.703125 12.296875 13.359375 12.296875 25.984375 
C 12.296875 38.53125 18 46.28125 27.296875 46.28125 
z
" id="Nimbus_Sans_L_Regular-111"/>
      <path d="M 9.296875 -21.5 
C 19.296875 -8.34375 25.59375 9.9375 25.59375 25.6875 
C 25.59375 41.5625 19.296875 59.84375 9.296875 73 
L 3.796875 73 
C 12.59375 58.640625 17.5 41.765625 17.5 25.6875 
C 17.5 9.734375 12.59375 -7.25 3.796875 -21.5 
z
" id="Nimbus_Sans_L_Regular-41"/>
     </defs>
     <g style="fill:#262626;" transform="translate(161.922122 373.47454)scale(0.143 -0.143)">
      <use transform="scale(0.996264)" xlink:href="#Nimbus_Sans_L_Regular-71"/>
      <use transform="translate(77.50837 0)scale(0.996264)" xlink:href="#Nimbus_Sans_L_Regular-65"/>
      <use transform="translate(143.958401 0)scale(0.996264)" xlink:href="#Nimbus_Sans_L_Regular-70"/>
      <use transform="translate(204.830032 0)scale(0.996264)" xlink:href="#Nimbus_Sans_L_Regular-70"/>
      <use transform="translate(293.396832 0)scale(0.996264)" xlink:href="#Nimbus_Sans_L_Regular-118"/>
      <use transform="translate(343.210033 0)scale(0.996264)" xlink:href="#Nimbus_Sans_L_Regular-49"/>
      <use transform="translate(398.60171 0)scale(0.996264)" xlink:href="#Nimbus_Sans_L_Regular-46"/>
      <use transform="translate(426.296879 0)scale(0.996264)" xlink:href="#Nimbus_Sans_L_Regular-55"/>
      <use transform="translate(509.383726 0)scale(0.996264)" xlink:href="#CMSY10-0"/>
      <use transform="translate(586.871193 0)scale(0.996264)" xlink:href="#Nimbus_Sans_L_Regular_Italic-84"/>
      <use transform="translate(661.589945 0)scale(0.996264)" xlink:href="#EURM10-1"/>
      <use transform="translate(732.651711 0)scale(0.996264)" xlink:href="#Nimbus_Sans_L_Regular-83"/>
      <use transform="translate(826.796911 0)scale(0.996264)" xlink:href="#Nimbus_Sans_L_Regular-40"/>
      <use transform="translate(859.972141 0)scale(0.996264)" xlink:href="#Nimbus_Sans_L_Regular-107"/>
      <use transform="translate(909.785342 0)scale(0.996264)" xlink:href="#Nimbus_Sans_L_Regular-99"/>
      <use transform="translate(959.598542 0)scale(0.996264)" xlink:href="#Nimbus_Sans_L_Regular-97"/>
      <use transform="translate(1014.990219 0)scale(0.996264)" xlink:href="#Nimbus_Sans_L_Regular-108"/>
      <use transform="translate(1037.107004 0)scale(0.996264)" xlink:href="#Nimbus_Sans_L_Regular-47"/>
      <use transform="translate(1064.802173 0)scale(0.996264)" xlink:href="#Nimbus_Sans_L_Regular-109"/>
      <use transform="translate(1147.790603 0)scale(0.996264)" xlink:href="#Nimbus_Sans_L_Regular-111"/>
      <use transform="translate(1203.18228 0)scale(0.996264)" xlink:href="#Nimbus_Sans_L_Regular-108"/>
      <use transform="translate(1225.299065 0)scale(0.996264)" xlink:href="#Nimbus_Sans_L_Regular-41"/>
     </g>
    </g>
   </g>
   <g id="matplotlib.axis_2">
    <g id="ytick_1">
     <g id="line2d_18">
      <path clip-path="url(#p2220ff6c74)" d="M 51.022969 337.973908 
L 452.782969 337.973908 
" style="fill:none;stroke:#cccccc;stroke-linecap:round;stroke-width:1.3;"/>
     </g>
     <g id="line2d_19"/>
     <g id="text_10">
      <!-- $-8$ -->
      <g style="fill:#262626;" transform="translate(24.648682 342.587816)scale(0.13 -0.13)">
       <use transform="scale(0.996264)" xlink:href="#CMSY10-0"/>
       <use transform="translate(77.487468 0)scale(0.996264)" xlink:href="#Nimbus_Sans_L_Regular-56"/>
      </g>
     </g>
    </g>
    <g id="ytick_2">
     <g id="line2d_20">
      <path clip-path="url(#p2220ff6c74)" d="M 51.022969 291.379622 
L 452.782969 291.379622 
" style="fill:none;stroke:#cccccc;stroke-linecap:round;stroke-width:1.3;"/>
     </g>
     <g id="line2d_21"/>
     <g id="text_11">
      <!-- $-6$ -->
      <g style="fill:#262626;" transform="translate(24.648682 295.993531)scale(0.13 -0.13)">
       <use transform="scale(0.996264)" xlink:href="#CMSY10-0"/>
       <use transform="translate(77.487468 0)scale(0.996264)" xlink:href="#Nimbus_Sans_L_Regular-54"/>
      </g>
     </g>
    </g>
    <g id="ytick_3">
     <g id="line2d_22">
      <path clip-path="url(#p2220ff6c74)" d="M 51.022969 244.785337 
L 452.782969 244.785337 
" style="fill:none;stroke:#cccccc;stroke-linecap:round;stroke-width:1.3;"/>
     </g>
     <g id="line2d_23"/>
     <g id="text_12">
      <!-- $-4$ -->
      <g style="fill:#262626;" transform="translate(24.648682 249.399245)scale(0.13 -0.13)">
       <use transform="scale(0.996264)" xlink:href="#CMSY10-0"/>
       <use transform="translate(77.487468 0)scale(0.996264)" xlink:href="#Nimbus_Sans_L_Regular-52"/>
      </g>
     </g>
    </g>
    <g id="ytick_4">
     <g id="line2d_24">
      <path clip-path="url(#p2220ff6c74)" d="M 51.022969 198.191051 
L 452.782969 198.191051 
" style="fill:none;stroke:#cccccc;stroke-linecap:round;stroke-width:1.3;"/>
     </g>
     <g id="line2d_25"/>
     <g id="text_13">
      <!-- $-2$ -->
      <g style="fill:#262626;" transform="translate(24.648682 202.804959)scale(0.13 -0.13)">
       <use transform="scale(0.996264)" xlink:href="#CMSY10-0"/>
       <use transform="translate(77.487468 0)scale(0.996264)" xlink:href="#Nimbus_Sans_L_Regular-50"/>
      </g>
     </g>
    </g>
    <g id="ytick_5">
     <g id="line2d_26">
      <path clip-path="url(#p2220ff6c74)" d="M 51.022969 151.596765 
L 452.782969 151.596765 
" style="fill:none;stroke:#cccccc;stroke-linecap:round;stroke-width:1.3;"/>
     </g>
     <g id="line2d_27"/>
     <g id="text_14">
      <!-- $0$ -->
      <g style="fill:#262626;" transform="translate(34.722052 156.210673)scale(0.13 -0.13)">
       <use transform="scale(0.996264)" xlink:href="#Nimbus_Sans_L_Regular-48"/>
      </g>
     </g>
    </g>
    <g id="ytick_6">
     <g id="line2d_28">
      <path clip-path="url(#p2220ff6c74)" d="M 51.022969 105.00248 
L 452.782969 105.00248 
" style="fill:none;stroke:#cccccc;stroke-linecap:round;stroke-width:1.3;"/>
     </g>
     <g id="line2d_29"/>
     <g id="text_15">
      <!-- $2$ -->
      <g style="fill:#262626;" transform="translate(34.722052 109.616388)scale(0.13 -0.13)">
       <use transform="scale(0.996264)" xlink:href="#Nimbus_Sans_L_Regular-50"/>
      </g>
     </g>
    </g>
    <g id="ytick_7">
     <g id="line2d_30">
      <path clip-path="url(#p2220ff6c74)" d="M 51.022969 58.408194 
L 452.782969 58.408194 
" style="fill:none;stroke:#cccccc;stroke-linecap:round;stroke-width:1.3;"/>
     </g>
     <g id="line2d_31"/>
     <g id="text_16">
      <!-- $4$ -->
      <g style="fill:#262626;" transform="translate(34.722052 63.022102)scale(0.13 -0.13)">
       <use transform="scale(0.996264)" xlink:href="#Nimbus_Sans_L_Regular-52"/>
      </g>
     </g>
    </g>
    <g id="ytick_8">
     <g id="line2d_32">
      <path clip-path="url(#p2220ff6c74)" d="M 51.022969 11.813908 
L 452.782969 11.813908 
" style="fill:none;stroke:#cccccc;stroke-linecap:round;stroke-width:1.3;"/>
     </g>
     <g id="line2d_33"/>
     <g id="text_17">
      <!-- $6$ -->
      <g style="fill:#262626;" transform="translate(34.722052 16.427816)scale(0.13 -0.13)">
       <use transform="scale(0.996264)" xlink:href="#Nimbus_Sans_L_Regular-54"/>
      </g>
     </g>
    </g>
    <g id="text_18">
     <!-- SMIRNOFF99Frosst $-T\Delta$S (kcal/mol) -->
     <defs>
      <path d="M 46.796875 -0.03125 
L 67.296875 61.171875 
L 67.296875 -0.03125 
L 76.09375 -0.03125 
L 76.09375 73 
L 63.203125 73 
L 42 9.390625 
L 20.40625 73 
L 7.5 73 
L 7.5 -0.03125 
L 16.296875 -0.03125 
L 16.296875 61.171875 
L 37 -0.03125 
z
" id="Nimbus_Sans_L_Regular-77"/>
      <path d="M 19.40625 73 
L 10 73 
L 10 -0.03125 
L 19.40625 -0.03125 
z
" id="Nimbus_Sans_L_Regular-73"/>
      <path d="M 18.59375 31.78125 
L 42.59375 31.78125 
C 50.90625 31.78125 54.59375 27.71875 54.59375 18.546875 
L 54.5 11.90625 
C 54.5 7.3125 55.296875 2.828125 56.59375 -0.21875 
L 67.90625 -0.21875 
L 67.90625 2.125 
C 64.40625 4.5625 63.703125 7.21875 63.5 17.078125 
C 63.40625 29.265625 61.5 32.9375 53.59375 36.390625 
C 61.796875 40.359375 65.09375 45.40625 65.09375 53.65625 
C 65.09375 66.140625 57.203125 73 42.90625 73 
L 9.296875 73 
L 9.296875 -0.21875 
L 18.59375 -0.21875 
z
M 18.59375 40 
L 18.59375 64.78125 
L 41.09375 64.78125 
C 46.296875 64.78125 49.296875 64 51.59375 62.015625 
C 54.09375 59.9375 55.40625 56.6875 55.40625 52.34375 
C 55.40625 43.84375 51 40 41.09375 40 
z
" id="Nimbus_Sans_L_Regular-82"/>
      <path d="M 64.59375 73 
L 55.796875 73 
L 55.796875 13.296875 
L 17.703125 73 
L 7.59375 73 
L 7.59375 -0.03125 
L 16.40625 -0.03125 
L 16.40625 59.171875 
L 54.09375 -0.03125 
L 64.59375 -0.03125 
z
" id="Nimbus_Sans_L_Regular-78"/>
      <path d="M 38.90625 74.21875 
C 18 74.21875 3.796875 58.84375 3.796875 36.109375 
C 3.796875 13.359375 18 -2 39 -2 
C 47.796875 -2 55.703125 0.6875 61.59375 5.671875 
C 69.5 12.359375 74.203125 23.625 74.203125 35.5 
C 74.203125 58.953125 60.296875 74.21875 38.90625 74.21875 
z
M 38.90625 66 
C 54.703125 66 64.90625 54.046875 64.90625 35.703125 
C 64.90625 18.171875 54.40625 6.203125 39 6.203125 
C 23.5 6.203125 13.09375 18.171875 13.09375 36.109375 
C 13.09375 54.046875 23.5 66 38.90625 66 
z
" id="Nimbus_Sans_L_Regular-79"/>
      <path d="M 5.296875 16.625 
C 7 4.9375 14.59375 -2 25.40625 -2 
C 33.203125 -2 40.296875 1.78125 44.40625 8.0625 
C 48.90625 14.9375 50.90625 23.625 50.90625 36.484375 
C 50.90625 48.359375 49.09375 55.9375 44.90625 62.21875 
C 41 67.921875 34.796875 71 27 71 
C 13.5 71 3.796875 61.078125 3.796875 47.296875 
C 3.796875 34.21875 12.796875 25 25.59375 25 
C 32.296875 25 37.203125 27.40625 41.796875 32.90625 
C 41.703125 15.484375 36.09375 5.8125 26 5.8125 
C 19.796875 5.8125 15.5 9.75 14.09375 16.625 
z
M 26.90625 63.296875 
C 35.09375 63.296875 41.296875 56.59375 41.296875 47.515625 
C 41.296875 38.921875 35.203125 32.8125 26.59375 32.8125 
C 18.09375 32.8125 12.796875 38.625 12.796875 48 
C 12.796875 56.875 18.796875 63.296875 26.90625 63.296875 
z
" id="Nimbus_Sans_L_Regular-57"/>
      <path d="M 6.90625 52.484375 
L 6.90625 0 
L 15.296875 0 
L 15.296875 27.203125 
C 15.296875 34.703125 17.203125 39.609375 21.203125 42.5 
C 23.796875 44.40625 26.296875 45 32.09375 45 
L 32.09375 53.625 
C 30.703125 53.8125 30 53.8125 28.90625 53.8125 
C 23.5 53.8125 19.40625 50.625 14.59375 42.90625 
L 14.59375 52.484375 
z
" id="Nimbus_Sans_L_Regular-114"/>
      <path d="M 43.796875 37.921875 
C 43.703125 48.203125 36.90625 54 24.796875 54 
C 12.59375 54 4.703125 47.71875 4.703125 38.0625 
C 4.703125 29.890625 8.90625 26.015625 21.296875 23.03125 
L 29.09375 21.140625 
C 34.90625 19.734375 37.203125 17.65625 37.203125 13.875 
C 37.203125 9 32.296875 5.703125 25 5.703125 
C 20.5 5.703125 16.703125 7 14.59375 9.1875 
C 13.296875 10.6875 12.703125 12.171875 12.203125 15.84375 
L 3.40625 15.84375 
C 3.796875 3.765625 10.59375 -2 24.296875 -2 
C 37.5 -2 45.90625 4.453125 45.90625 14.515625 
C 45.90625 22.28125 41.5 26.578125 31.09375 29.0625 
L 23.09375 30.953125 
C 16.296875 32.53125 13.40625 34.734375 13.40625 38.40625 
C 13.40625 43.1875 17.703125 46.28125 24.5 46.28125 
C 31.203125 46.28125 34.796875 43.390625 35 37.921875 
z
" id="Nimbus_Sans_L_Regular-115"/>
      <path d="M 25.40625 52.8125 
L 16.796875 52.8125 
L 16.796875 67 
L 8.5 67 
L 8.5 52.8125 
L 1.40625 52.8125 
L 1.40625 46 
L 8.5 46 
L 8.5 6.3125 
C 8.5 1 12.09375 -2 18.59375 -2 
C 20.59375 -2 22.59375 -1.8125 25.40625 -1.296875 
L 25.40625 5.71875 
C 24.296875 5.40625 23 5.3125 21.40625 5.3125 
C 17.796875 5.3125 16.796875 6.3125 16.796875 10.015625 
L 16.796875 46 
L 25.40625 46 
z
" id="Nimbus_Sans_L_Regular-116"/>
     </defs>
     <g style="fill:#262626;" transform="translate(17.614239 295.020376)rotate(-90)scale(0.143 -0.143)">
      <use transform="scale(0.996264)" xlink:href="#Nimbus_Sans_L_Regular-83"/>
      <use transform="translate(66.450031 0)scale(0.996264)" xlink:href="#Nimbus_Sans_L_Regular-77"/>
      <use transform="translate(149.438461 0)scale(0.996264)" xlink:href="#Nimbus_Sans_L_Regular-73"/>
      <use transform="translate(177.133631 0)scale(0.996264)" xlink:href="#Nimbus_Sans_L_Regular-82"/>
      <use transform="translate(249.063616 0)scale(0.996264)" xlink:href="#Nimbus_Sans_L_Regular-78"/>
      <use transform="translate(320.993601 0)scale(0.996264)" xlink:href="#Nimbus_Sans_L_Regular-79"/>
      <use transform="translate(398.501971 0)scale(0.996264)" xlink:href="#Nimbus_Sans_L_Regular-70"/>
      <use transform="translate(459.373601 0)scale(0.996264)" xlink:href="#Nimbus_Sans_L_Regular-70"/>
      <use transform="translate(520.245232 0)scale(0.996264)" xlink:href="#Nimbus_Sans_L_Regular-57"/>
      <use transform="translate(575.636909 0)scale(0.996264)" xlink:href="#Nimbus_Sans_L_Regular-57"/>
      <use transform="translate(631.028586 0)scale(0.996264)" xlink:href="#Nimbus_Sans_L_Regular-70"/>
      <use transform="translate(687.417485 0)scale(0.996264)" xlink:href="#Nimbus_Sans_L_Regular-114"/>
      <use transform="translate(720.592714 0)scale(0.996264)" xlink:href="#Nimbus_Sans_L_Regular-111"/>
      <use transform="translate(775.984391 0)scale(0.996264)" xlink:href="#Nimbus_Sans_L_Regular-115"/>
      <use transform="translate(825.797592 0)scale(0.996264)" xlink:href="#Nimbus_Sans_L_Regular-115"/>
      <use transform="translate(875.610792 0)scale(0.996264)" xlink:href="#Nimbus_Sans_L_Regular-116"/>
      <use transform="translate(931.001132 0)scale(0.996264)" xlink:href="#CMSY10-0"/>
      <use transform="translate(1008.488599 0)scale(0.996264)" xlink:href="#Nimbus_Sans_L_Regular_Italic-84"/>
      <use transform="translate(1083.207351 0)scale(0.996264)" xlink:href="#EURM10-1"/>
      <use transform="translate(1154.269117 0)scale(0.996264)" xlink:href="#Nimbus_Sans_L_Regular-83"/>
      <use transform="translate(1248.414317 0)scale(0.996264)" xlink:href="#Nimbus_Sans_L_Regular-40"/>
      <use transform="translate(1281.589547 0)scale(0.996264)" xlink:href="#Nimbus_Sans_L_Regular-107"/>
      <use transform="translate(1331.402748 0)scale(0.996264)" xlink:href="#Nimbus_Sans_L_Regular-99"/>
      <use transform="translate(1381.215948 0)scale(0.996264)" xlink:href="#Nimbus_Sans_L_Regular-97"/>
      <use transform="translate(1436.607625 0)scale(0.996264)" xlink:href="#Nimbus_Sans_L_Regular-108"/>
      <use transform="translate(1458.724409 0)scale(0.996264)" xlink:href="#Nimbus_Sans_L_Regular-47"/>
      <use transform="translate(1486.419579 0)scale(0.996264)" xlink:href="#Nimbus_Sans_L_Regular-109"/>
      <use transform="translate(1569.408009 0)scale(0.996264)" xlink:href="#Nimbus_Sans_L_Regular-111"/>
      <use transform="translate(1624.799686 0)scale(0.996264)" xlink:href="#Nimbus_Sans_L_Regular-108"/>
      <use transform="translate(1646.91647 0)scale(0.996264)" xlink:href="#Nimbus_Sans_L_Regular-41"/>
     </g>
    </g>
   </g>
   <g id="LineCollection_1">
    <path clip-path="url(#p2220ff6c74)" d="M 263.145442 217.266239 
L 299.171389 217.266239 
" style="fill:none;stroke:#808080;"/>
    <path clip-path="url(#p2220ff6c74)" d="M 250.711757 137.946673 
L 271.329725 137.946673 
" style="fill:none;stroke:#808080;"/>
    <path clip-path="url(#p2220ff6c74)" d="M 255.5008 117.831482 
L 276.842626 117.831482 
" style="fill:none;stroke:#808080;"/>
    <path clip-path="url(#p2220ff6c74)" d="M 251.470771 157.895022 
L 276.970905 157.895022 
" style="fill:none;stroke:#808080;"/>
    <path clip-path="url(#p2220ff6c74)" d="M 260.318205 130.270434 
L 277.551211 130.270434 
" style="fill:none;stroke:#808080;"/>
    <path clip-path="url(#p2220ff6c74)" d="M 251.019715 158.387652 
L 268.324272 158.387652 
" style="fill:none;stroke:#808080;"/>
    <path clip-path="url(#p2220ff6c74)" d="M 261.248938 150.495872 
L 278.2515 150.495872 
" style="fill:none;stroke:#808080;"/>
    <path clip-path="url(#p2220ff6c74)" d="M 247.503479 171.385851 
L 264.273329 171.385851 
" style="fill:none;stroke:#808080;"/>
    <path clip-path="url(#p2220ff6c74)" d="M 252.698087 145.818519 
L 273.993643 145.818519 
" style="fill:none;stroke:#808080;"/>
    <path clip-path="url(#p2220ff6c74)" d="M 251.292771 173.612151 
L 270.655835 173.612151 
" style="fill:none;stroke:#808080;"/>
    <path clip-path="url(#p2220ff6c74)" d="M 133.930541 249.10697 
L 180.831293 249.10697 
" style="fill:none;stroke:#808080;"/>
    <path clip-path="url(#p2220ff6c74)" d="M 128.199664 244.688573 
L 168.009307 244.688573 
" style="fill:none;stroke:#808080;"/>
    <path clip-path="url(#p2220ff6c74)" d="M 114.481044 252.408905 
L 144.868513 252.408905 
" style="fill:none;stroke:#808080;"/>
   </g>
   <g id="LineCollection_2">
    <path clip-path="url(#p2220ff6c74)" d="M 281.158415 229.516569 
L 281.158415 205.015908 
" style="fill:none;stroke:#808080;"/>
    <path clip-path="url(#p2220ff6c74)" d="M 261.020741 148.246157 
L 261.020741 127.647189 
" style="fill:none;stroke:#808080;"/>
    <path clip-path="url(#p2220ff6c74)" d="M 266.171713 128.970128 
L 266.171713 106.692836 
" style="fill:none;stroke:#808080;"/>
    <path clip-path="url(#p2220ff6c74)" d="M 264.220838 169.676493 
L 264.220838 146.11355 
" style="fill:none;stroke:#808080;"/>
    <path clip-path="url(#p2220ff6c74)" d="M 268.934708 138.898691 
L 268.934708 121.642178 
" style="fill:none;stroke:#808080;"/>
    <path clip-path="url(#p2220ff6c74)" d="M 259.671993 171.883663 
L 259.671993 144.891642 
" style="fill:none;stroke:#808080;"/>
    <path clip-path="url(#p2220ff6c74)" d="M 269.750219 168.239903 
L 269.750219 132.751842 
" style="fill:none;stroke:#808080;"/>
    <path clip-path="url(#p2220ff6c74)" d="M 255.888404 183.021757 
L 255.888404 159.749946 
" style="fill:none;stroke:#808080;"/>
    <path clip-path="url(#p2220ff6c74)" d="M 263.345865 159.018294 
L 263.345865 132.618745 
" style="fill:none;stroke:#808080;"/>
    <path clip-path="url(#p2220ff6c74)" d="M 260.974303 196.476434 
L 260.974303 150.747868 
" style="fill:none;stroke:#808080;"/>
    <path clip-path="url(#p2220ff6c74)" d="M 157.380917 265.579486 
L 157.380917 232.634455 
" style="fill:none;stroke:#808080;"/>
    <path clip-path="url(#p2220ff6c74)" d="M 148.104486 258.721262 
L 148.104486 230.655884 
" style="fill:none;stroke:#808080;"/>
    <path clip-path="url(#p2220ff6c74)" d="M 129.674778 264.064468 
L 129.674778 240.753341 
" style="fill:none;stroke:#808080;"/>
   </g>
   <g id="LineCollection_3">
    <path clip-path="url(#p2220ff6c74)" d="M 268.190472 168.522925 
L 292.432211 168.522925 
" style="fill:none;stroke:#808080;"/>
    <path clip-path="url(#p2220ff6c74)" d="M 272.352607 133.615354 
L 295.797582 133.615354 
" style="fill:none;stroke:#808080;"/>
    <path clip-path="url(#p2220ff6c74)" d="M 283.205398 115.681712 
L 298.949527 115.681712 
" style="fill:none;stroke:#808080;"/>
    <path clip-path="url(#p2220ff6c74)" d="M 270.919996 113.818266 
L 291.808829 113.818266 
" style="fill:none;stroke:#808080;"/>
    <path clip-path="url(#p2220ff6c74)" d="M 262.864344 116.808618 
L 284.004677 116.808618 
" style="fill:none;stroke:#808080;"/>
    <path clip-path="url(#p2220ff6c74)" d="M 304.352481 154.648668 
L 327.194896 154.648668 
" style="fill:none;stroke:#808080;"/>
    <path clip-path="url(#p2220ff6c74)" d="M 265.204743 117.987086 
L 286.98187 117.987086 
" style="fill:none;stroke:#808080;"/>
    <path clip-path="url(#p2220ff6c74)" d="M 266.122207 163.56822 
L 287.946051 163.56822 
" style="fill:none;stroke:#808080;"/>
    <path clip-path="url(#p2220ff6c74)" d="M 224.709455 207.544688 
L 274.817678 207.544688 
" style="fill:none;stroke:#808080;"/>
    <path clip-path="url(#p2220ff6c74)" d="M 116.955105 229.770089 
L 142.787356 229.770089 
" style="fill:none;stroke:#808080;"/>
    <path clip-path="url(#p2220ff6c74)" d="M 153.492905 229.452238 
L 191.538146 229.452238 
" style="fill:none;stroke:#808080;"/>
    <path clip-path="url(#p2220ff6c74)" d="M 201.658351 156.366732 
L 236.690695 156.366732 
" style="fill:none;stroke:#808080;"/>
    <path clip-path="url(#p2220ff6c74)" d="M 204.801485 186.494027 
L 230.924718 186.494027 
" style="fill:none;stroke:#808080;"/>
    <path clip-path="url(#p2220ff6c74)" d="M 174.002671 196.883458 
L 205.92279 196.883458 
" style="fill:none;stroke:#808080;"/>
    <path clip-path="url(#p2220ff6c74)" d="M 158.731191 155.96433 
L 198.502996 155.96433 
" style="fill:none;stroke:#808080;"/>
    <path clip-path="url(#p2220ff6c74)" d="M 133.862107 195.848224 
L 160.816801 195.848224 
" style="fill:none;stroke:#808080;"/>
    <path clip-path="url(#p2220ff6c74)" d="M 201.673137 235.547543 
L 250.673589 235.547543 
" style="fill:none;stroke:#808080;"/>
    <path clip-path="url(#p2220ff6c74)" d="M 217.026072 201.459233 
L 275.012812 201.459233 
" style="fill:none;stroke:#808080;"/>
    <path clip-path="url(#p2220ff6c74)" d="M 220.139581 184.983851 
L 270.935448 184.983851 
" style="fill:none;stroke:#808080;"/>
   </g>
   <g id="LineCollection_4">
    <path clip-path="url(#p2220ff6c74)" d="M 280.311342 183.686421 
L 280.311342 153.35943 
" style="fill:none;stroke:#808080;"/>
    <path clip-path="url(#p2220ff6c74)" d="M 284.075095 142.636968 
L 284.075095 124.593741 
" style="fill:none;stroke:#808080;"/>
    <path clip-path="url(#p2220ff6c74)" d="M 291.077463 124.536075 
L 291.077463 106.827349 
" style="fill:none;stroke:#808080;"/>
    <path clip-path="url(#p2220ff6c74)" d="M 281.364412 122.356665 
L 281.364412 105.279867 
" style="fill:none;stroke:#808080;"/>
    <path clip-path="url(#p2220ff6c74)" d="M 273.434511 125.31357 
L 273.434511 108.303666 
" style="fill:none;stroke:#808080;"/>
    <path clip-path="url(#p2220ff6c74)" d="M 315.773688 168.822784 
L 315.773688 140.474552 
" style="fill:none;stroke:#808080;"/>
    <path clip-path="url(#p2220ff6c74)" d="M 276.093307 126.513555 
L 276.093307 109.460618 
" style="fill:none;stroke:#808080;"/>
    <path clip-path="url(#p2220ff6c74)" d="M 277.034129 173.699114 
L 277.034129 153.437326 
" style="fill:none;stroke:#808080;"/>
    <path clip-path="url(#p2220ff6c74)" d="M 249.763566 226.871094 
L 249.763566 188.218282 
" style="fill:none;stroke:#808080;"/>
    <path clip-path="url(#p2220ff6c74)" d="M 129.871231 240.762587 
L 129.871231 218.77759 
" style="fill:none;stroke:#808080;"/>
    <path clip-path="url(#p2220ff6c74)" d="M 172.515526 245.713044 
L 172.515526 213.191432 
" style="fill:none;stroke:#808080;"/>
    <path clip-path="url(#p2220ff6c74)" d="M 219.174523 170.232503 
L 219.174523 142.500961 
" style="fill:none;stroke:#808080;"/>
    <path clip-path="url(#p2220ff6c74)" d="M 217.863102 203.025256 
L 217.863102 169.962797 
" style="fill:none;stroke:#808080;"/>
    <path clip-path="url(#p2220ff6c74)" d="M 189.96273 214.067669 
L 189.96273 179.699247 
" style="fill:none;stroke:#808080;"/>
    <path clip-path="url(#p2220ff6c74)" d="M 178.617093 175.227375 
L 178.617093 136.701285 
" style="fill:none;stroke:#808080;"/>
    <path clip-path="url(#p2220ff6c74)" d="M 147.339454 218.893633 
L 147.339454 172.802815 
" style="fill:none;stroke:#808080;"/>
    <path clip-path="url(#p2220ff6c74)" d="M 226.173363 251.978303 
L 226.173363 219.116784 
" style="fill:none;stroke:#808080;"/>
    <path clip-path="url(#p2220ff6c74)" d="M 246.019442 219.221967 
L 246.019442 183.696499 
" style="fill:none;stroke:#808080;"/>
    <path clip-path="url(#p2220ff6c74)" d="M 245.537515 209.185658 
L 245.537515 160.782043 
" style="fill:none;stroke:#808080;"/>
   </g>
   <g id="LineCollection_5">
    <path clip-path="url(#p2220ff6c74)" d="M 260.2404 134.201725 
L 291.075537 134.201725 
" style="fill:none;stroke:#808080;"/>
    <path clip-path="url(#p2220ff6c74)" d="M 288.111605 127.362345 
L 309.394482 127.362345 
" style="fill:none;stroke:#808080;"/>
    <path clip-path="url(#p2220ff6c74)" d="M 253.349149 143.855982 
L 282.552481 143.855982 
" style="fill:none;stroke:#808080;"/>
    <path clip-path="url(#p2220ff6c74)" d="M 299.745222 104.467684 
L 322.649931 104.467684 
" style="fill:none;stroke:#808080;"/>
    <path clip-path="url(#p2220ff6c74)" d="M 222.34088 196.508715 
L 255.768219 196.508715 
" style="fill:none;stroke:#808080;"/>
    <path clip-path="url(#p2220ff6c74)" d="M 128.323845 243.847008 
L 168.205821 243.847008 
" style="fill:none;stroke:#808080;"/>
    <path clip-path="url(#p2220ff6c74)" d="M 142.013515 246.543019 
L 200.305382 246.543019 
" style="fill:none;stroke:#808080;"/>
    <path clip-path="url(#p2220ff6c74)" d="M 54.077049 278.192842 
L 95.368018 278.192842 
" style="fill:none;stroke:#808080;"/>
    <path clip-path="url(#p2220ff6c74)" d="M 110.855495 269.755845 
L 146.538546 269.755845 
" style="fill:none;stroke:#808080;"/>
    <path clip-path="url(#p2220ff6c74)" d="M 92.345933 269.965194 
L 125.161025 269.965194 
" style="fill:none;stroke:#808080;"/>
    <path clip-path="url(#p2220ff6c74)" d="M 98.254758 219.157909 
L 142.931027 219.157909 
" style="fill:none;stroke:#808080;"/>
   </g>
   <g id="LineCollection_6">
    <path clip-path="url(#p2220ff6c74)" d="M 275.657969 140.82076 
L 275.657969 127.58269 
" style="fill:none;stroke:#808080;"/>
    <path clip-path="url(#p2220ff6c74)" d="M 298.753044 138.545195 
L 298.753044 116.179495 
" style="fill:none;stroke:#808080;"/>
    <path clip-path="url(#p2220ff6c74)" d="M 267.950815 152.938816 
L 267.950815 134.773148 
" style="fill:none;stroke:#808080;"/>
    <path clip-path="url(#p2220ff6c74)" d="M 311.197577 116.897019 
L 311.197577 92.03835 
" style="fill:none;stroke:#808080;"/>
    <path clip-path="url(#p2220ff6c74)" d="M 239.054549 216.335324 
L 239.054549 176.682105 
" style="fill:none;stroke:#808080;"/>
    <path clip-path="url(#p2220ff6c74)" d="M 148.264833 254.753196 
L 148.264833 232.94082 
" style="fill:none;stroke:#808080;"/>
    <path clip-path="url(#p2220ff6c74)" d="M 171.159449 258.794998 
L 171.159449 234.291039 
" style="fill:none;stroke:#808080;"/>
    <path clip-path="url(#p2220ff6c74)" d="M 74.722534 289.982933 
L 74.722534 266.402751 
" style="fill:none;stroke:#808080;"/>
    <path clip-path="url(#p2220ff6c74)" d="M 128.69702 282.239253 
L 128.69702 257.272437 
" style="fill:none;stroke:#808080;"/>
    <path clip-path="url(#p2220ff6c74)" d="M 108.753479 281.386442 
L 108.753479 258.543946 
" style="fill:none;stroke:#808080;"/>
    <path clip-path="url(#p2220ff6c74)" d="M 120.592892 244.893617 
L 120.592892 193.422202 
" style="fill:none;stroke:#808080;"/>
   </g>
   <g id="line2d_34">
    <defs>
     <path d="M 0 4 
C 1.060812 4 2.078319 3.578535 2.828427 2.828427 
C 3.578535 2.078319 4 1.060812 4 0 
C 4 -1.060812 3.578535 -2.078319 2.828427 -2.828427 
C 2.078319 -3.578535 1.060812 -4 0 -4 
C -1.060812 -4 -2.078319 -3.578535 -2.828427 -2.828427 
C -3.578535 -2.078319 -4 -1.060812 -4 0 
C -4 1.060812 -3.578535 2.078319 -2.828427 2.828427 
C -2.078319 3.578535 -1.060812 4 0 4 
z
" id="m33a22667d5" style="stroke:#000000;stroke-width:0.2;"/>
    </defs>
    <g clip-path="url(#p2220ff6c74)">
     <use style="fill:#ff8c00;stroke:#000000;stroke-width:0.2;" x="281.158415" xlink:href="#m33a22667d5" y="217.266239"/>
     <use style="fill:#ff8c00;stroke:#000000;stroke-width:0.2;" x="261.020741" xlink:href="#m33a22667d5" y="137.946673"/>
     <use style="fill:#ff8c00;stroke:#000000;stroke-width:0.2;" x="266.171713" xlink:href="#m33a22667d5" y="117.831482"/>
     <use style="fill:#ff8c00;stroke:#000000;stroke-width:0.2;" x="264.220838" xlink:href="#m33a22667d5" y="157.895022"/>
     <use style="fill:#ff8c00;stroke:#000000;stroke-width:0.2;" x="268.934708" xlink:href="#m33a22667d5" y="130.270434"/>
     <use style="fill:#ff8c00;stroke:#000000;stroke-width:0.2;" x="259.671993" xlink:href="#m33a22667d5" y="158.387652"/>
     <use style="fill:#ff8c00;stroke:#000000;stroke-width:0.2;" x="269.750219" xlink:href="#m33a22667d5" y="150.495872"/>
     <use style="fill:#ff8c00;stroke:#000000;stroke-width:0.2;" x="255.888404" xlink:href="#m33a22667d5" y="171.385851"/>
     <use style="fill:#ff8c00;stroke:#000000;stroke-width:0.2;" x="263.345865" xlink:href="#m33a22667d5" y="145.818519"/>
     <use style="fill:#ff8c00;stroke:#000000;stroke-width:0.2;" x="260.974303" xlink:href="#m33a22667d5" y="173.612151"/>
     <use style="fill:#ff8c00;stroke:#000000;stroke-width:0.2;" x="157.380917" xlink:href="#m33a22667d5" y="249.10697"/>
     <use style="fill:#ff8c00;stroke:#000000;stroke-width:0.2;" x="148.104486" xlink:href="#m33a22667d5" y="244.688573"/>
     <use style="fill:#ff8c00;stroke:#000000;stroke-width:0.2;" x="129.674778" xlink:href="#m33a22667d5" y="252.408905"/>
    </g>
   </g>
   <g id="line2d_35">
    <defs>
     <path d="M 0 4 
C 1.060812 4 2.078319 3.578535 2.828427 2.828427 
C 3.578535 2.078319 4 1.060812 4 0 
C 4 -1.060812 3.578535 -2.078319 2.828427 -2.828427 
C 2.078319 -3.578535 1.060812 -4 0 -4 
C -1.060812 -4 -2.078319 -3.578535 -2.828427 -2.828427 
C -3.578535 -2.078319 -4 -1.060812 -4 0 
C -4 1.060812 -3.578535 2.078319 -2.828427 2.828427 
C -2.078319 3.578535 -1.060812 4 0 4 
z
" id="m7db5876ba2" style="stroke:#000000;stroke-width:0.2;"/>
    </defs>
    <g clip-path="url(#p2220ff6c74)">
     <use style="fill:#800080;stroke:#000000;stroke-width:0.2;" x="280.311342" xlink:href="#m7db5876ba2" y="168.522925"/>
     <use style="fill:#800080;stroke:#000000;stroke-width:0.2;" x="284.075095" xlink:href="#m7db5876ba2" y="133.615354"/>
     <use style="fill:#800080;stroke:#000000;stroke-width:0.2;" x="291.077463" xlink:href="#m7db5876ba2" y="115.681712"/>
     <use style="fill:#800080;stroke:#000000;stroke-width:0.2;" x="281.364412" xlink:href="#m7db5876ba2" y="113.818266"/>
     <use style="fill:#800080;stroke:#000000;stroke-width:0.2;" x="273.434511" xlink:href="#m7db5876ba2" y="116.808618"/>
     <use style="fill:#800080;stroke:#000000;stroke-width:0.2;" x="315.773688" xlink:href="#m7db5876ba2" y="154.648668"/>
     <use style="fill:#800080;stroke:#000000;stroke-width:0.2;" x="276.093307" xlink:href="#m7db5876ba2" y="117.987086"/>
     <use style="fill:#800080;stroke:#000000;stroke-width:0.2;" x="277.034129" xlink:href="#m7db5876ba2" y="163.56822"/>
     <use style="fill:#800080;stroke:#000000;stroke-width:0.2;" x="249.763566" xlink:href="#m7db5876ba2" y="207.544688"/>
     <use style="fill:#800080;stroke:#000000;stroke-width:0.2;" x="129.871231" xlink:href="#m7db5876ba2" y="229.770089"/>
     <use style="fill:#800080;stroke:#000000;stroke-width:0.2;" x="172.515526" xlink:href="#m7db5876ba2" y="229.452238"/>
     <use style="fill:#800080;stroke:#000000;stroke-width:0.2;" x="219.174523" xlink:href="#m7db5876ba2" y="156.366732"/>
     <use style="fill:#800080;stroke:#000000;stroke-width:0.2;" x="217.863102" xlink:href="#m7db5876ba2" y="186.494027"/>
     <use style="fill:#800080;stroke:#000000;stroke-width:0.2;" x="189.96273" xlink:href="#m7db5876ba2" y="196.883458"/>
     <use style="fill:#800080;stroke:#000000;stroke-width:0.2;" x="178.617093" xlink:href="#m7db5876ba2" y="155.96433"/>
     <use style="fill:#800080;stroke:#000000;stroke-width:0.2;" x="147.339454" xlink:href="#m7db5876ba2" y="195.848224"/>
     <use style="fill:#800080;stroke:#000000;stroke-width:0.2;" x="226.173363" xlink:href="#m7db5876ba2" y="235.547543"/>
     <use style="fill:#800080;stroke:#000000;stroke-width:0.2;" x="246.019442" xlink:href="#m7db5876ba2" y="201.459233"/>
     <use style="fill:#800080;stroke:#000000;stroke-width:0.2;" x="245.537515" xlink:href="#m7db5876ba2" y="184.983851"/>
    </g>
   </g>
   <g id="line2d_36">
    <defs>
     <path d="M 0 4 
C 1.060812 4 2.078319 3.578535 2.828427 2.828427 
C 3.578535 2.078319 4 1.060812 4 0 
C 4 -1.060812 3.578535 -2.078319 2.828427 -2.828427 
C 2.078319 -3.578535 1.060812 -4 0 -4 
C -1.060812 -4 -2.078319 -3.578535 -2.828427 -2.828427 
C -3.578535 -2.078319 -4 -1.060812 -4 0 
C -4 1.060812 -3.578535 2.078319 -2.828427 2.828427 
C -2.078319 3.578535 -1.060812 4 0 4 
z
" id="m73cdd9e0e0" style="stroke:#000000;stroke-width:0.2;"/>
    </defs>
    <g clip-path="url(#p2220ff6c74)">
     <use style="fill:#6495ed;stroke:#000000;stroke-width:0.2;" x="275.657969" xlink:href="#m73cdd9e0e0" y="134.201725"/>
     <use style="fill:#6495ed;stroke:#000000;stroke-width:0.2;" x="298.753044" xlink:href="#m73cdd9e0e0" y="127.362345"/>
     <use style="fill:#6495ed;stroke:#000000;stroke-width:0.2;" x="267.950815" xlink:href="#m73cdd9e0e0" y="143.855982"/>
     <use style="fill:#6495ed;stroke:#000000;stroke-width:0.2;" x="311.197577" xlink:href="#m73cdd9e0e0" y="104.467684"/>
     <use style="fill:#6495ed;stroke:#000000;stroke-width:0.2;" x="239.054549" xlink:href="#m73cdd9e0e0" y="196.508715"/>
     <use style="fill:#6495ed;stroke:#000000;stroke-width:0.2;" x="148.264833" xlink:href="#m73cdd9e0e0" y="243.847008"/>
     <use style="fill:#6495ed;stroke:#000000;stroke-width:0.2;" x="171.159449" xlink:href="#m73cdd9e0e0" y="246.543019"/>
     <use style="fill:#6495ed;stroke:#000000;stroke-width:0.2;" x="74.722534" xlink:href="#m73cdd9e0e0" y="278.192842"/>
     <use style="fill:#6495ed;stroke:#000000;stroke-width:0.2;" x="128.69702" xlink:href="#m73cdd9e0e0" y="269.755845"/>
     <use style="fill:#6495ed;stroke:#000000;stroke-width:0.2;" x="108.753479" xlink:href="#m73cdd9e0e0" y="269.965194"/>
     <use style="fill:#6495ed;stroke:#000000;stroke-width:0.2;" x="120.592892" xlink:href="#m73cdd9e0e0" y="219.157909"/>
    </g>
   </g>
   <g id="patch_3">
    <path d="M 51.022969 337.973908 
L 51.022969 11.813908 
" style="fill:none;stroke:#cccccc;stroke-linecap:square;stroke-linejoin:miter;"/>
   </g>
   <g id="patch_4">
    <path d="M 452.782969 337.973908 
L 452.782969 11.813908 
" style="fill:none;stroke:#cccccc;stroke-linecap:square;stroke-linejoin:miter;"/>
   </g>
   <g id="patch_5">
    <path d="M 51.022969 337.973908 
L 452.782969 337.973908 
" style="fill:none;stroke:#cccccc;stroke-linecap:square;stroke-linejoin:miter;"/>
   </g>
   <g id="patch_6">
    <path d="M 51.022969 11.813908 
L 452.782969 11.813908 
" style="fill:none;stroke:#cccccc;stroke-linecap:square;stroke-linejoin:miter;"/>
   </g>
   <g id="text_19">
    <!-- R$^2$ = 0.59 -->
    <defs>
     <path d="M 53.40625 35.015625 
L 5 35.015625 
L 5 28 
L 53.40625 28 
z
M 53.40625 18 
L 5 18 
L 5 11 
L 53.40625 11 
z
" id="Nimbus_Sans_L_Regular-61"/>
     <path d="M 47.59375 71 
L 11 71 
L 5.703125 32.59375 
L 13.796875 32.59375 
C 17.90625 37.484375 21.296875 39.1875 26.796875 39.1875 
C 36.296875 39.1875 42.296875 32.6875 42.296875 22.203125 
C 42.296875 12 36.40625 5.8125 26.796875 5.8125 
C 19.09375 5.8125 14.40625 9.703125 12.296875 17.703125 
L 3.5 17.703125 
C 4.703125 11.90625 5.703125 9.09375 7.796875 6.484375 
C 11.796875 1.09375 19 -2 27 -2 
C 41.296875 -2 51.296875 8.390625 51.296875 23.390625 
C 51.296875 37.40625 42 47 28.40625 47 
C 23.40625 47 19.40625 45.703125 15.296875 42.6875 
L 18.09375 62.296875 
L 47.59375 62.296875 
z
" id="Nimbus_Sans_L_Regular-53"/>
    </defs>
    <g style="fill:#ff8c00;" transform="translate(389.709246 332.47993)scale(0.14 -0.14)">
     <use transform="scale(0.996264)" xlink:href="#Nimbus_Sans_L_Regular-82"/>
     <use transform="translate(71.929985 36.153639)scale(0.697382)" xlink:href="#Nimbus_Sans_L_Regular-50"/>
     <use transform="translate(138.897287 0)scale(0.996264)" xlink:href="#Nimbus_Sans_L_Regular-61"/>
     <use transform="translate(224.773949 0)scale(0.996264)" xlink:href="#Nimbus_Sans_L_Regular-48"/>
     <use transform="translate(280.165626 0)scale(0.996264)" xlink:href="#Nimbus_Sans_L_Regular-46"/>
     <use transform="translate(307.860796 0)scale(0.996264)" xlink:href="#Nimbus_Sans_L_Regular-53"/>
     <use transform="translate(363.252473 0)scale(0.996264)" xlink:href="#Nimbus_Sans_L_Regular-57"/>
    </g>
   </g>
   <g id="text_20">
    <!-- R$^2$ = 0.37 -->
    <defs>
     <path d="M 22.09375 33 
L 23.203125 33 
L 26.90625 33 
C 36.59375 33 41.59375 28.59375 41.59375 20.0625 
C 41.59375 11.125 36.09375 5.8125 26.90625 5.8125 
C 17.296875 5.8125 12.59375 10.640625 12 21.015625 
L 3.203125 21.015625 
C 3.59375 15.28125 4.59375 11.5625 6.296875 8.34375 
C 9.90625 1.515625 16.90625 -2 26.59375 -2 
C 41.203125 -2 50.59375 6.734375 50.59375 20.203125 
C 50.59375 29.25 47.09375 34.28125 38.59375 37.203125 
C 45.203125 39.78125 48.5 44.71875 48.5 51.734375 
C 48.5 63.78125 40.40625 71 26.90625 71 
C 12.59375 71 5 63.28125 4.703125 48.359375 
L 13.5 48.359375 
C 13.59375 52.59375 14 54.953125 15.09375 57.109375 
C 17.09375 60.9375 21.5 63.296875 27 63.296875 
C 34.796875 63.296875 39.5 58.75 39.5 51.359375 
C 39.5 46.421875 37.703125 43.453125 33.796875 41.890625 
C 31.40625 40.90625 28.296875 40.5 22.09375 40.5 
z
" id="Nimbus_Sans_L_Regular-51"/>
    </defs>
    <g style="fill:#800080;" transform="translate(389.709246 316.17193)scale(0.14 -0.14)">
     <use transform="scale(0.996264)" xlink:href="#Nimbus_Sans_L_Regular-82"/>
     <use transform="translate(71.929985 36.153639)scale(0.697382)" xlink:href="#Nimbus_Sans_L_Regular-50"/>
     <use transform="translate(138.897287 0)scale(0.996264)" xlink:href="#Nimbus_Sans_L_Regular-61"/>
     <use transform="translate(224.773949 0)scale(0.996264)" xlink:href="#Nimbus_Sans_L_Regular-48"/>
     <use transform="translate(280.165626 0)scale(0.996264)" xlink:href="#Nimbus_Sans_L_Regular-46"/>
     <use transform="translate(307.860796 0)scale(0.996264)" xlink:href="#Nimbus_Sans_L_Regular-51"/>
     <use transform="translate(363.252473 0)scale(0.996264)" xlink:href="#Nimbus_Sans_L_Regular-55"/>
    </g>
   </g>
   <g id="text_21">
    <!-- R$^2$ = 0.83 -->
    <g style="fill:#6495ed;" transform="translate(389.709246 299.86393)scale(0.14 -0.14)">
     <use transform="scale(0.996264)" xlink:href="#Nimbus_Sans_L_Regular-82"/>
     <use transform="translate(71.929985 36.153639)scale(0.697382)" xlink:href="#Nimbus_Sans_L_Regular-50"/>
     <use transform="translate(138.897287 0)scale(0.996264)" xlink:href="#Nimbus_Sans_L_Regular-61"/>
     <use transform="translate(224.773949 0)scale(0.996264)" xlink:href="#Nimbus_Sans_L_Regular-48"/>
     <use transform="translate(280.165626 0)scale(0.996264)" xlink:href="#Nimbus_Sans_L_Regular-46"/>
     <use transform="translate(307.860796 0)scale(0.996264)" xlink:href="#Nimbus_Sans_L_Regular-56"/>
     <use transform="translate(363.252473 0)scale(0.996264)" xlink:href="#Nimbus_Sans_L_Regular-51"/>
    </g>
   </g>
   <g id="text_22">
    <g id="patch_7">
     <path d="M 54.980569 52.959131 
L 220.107177 52.959131 
L 220.107177 15.015508 
L 54.980569 15.015508 
z
" style="fill:#ffffff;stroke:#ffffff;stroke-linejoin:miter;stroke-width:0.39;"/>
    </g>
    <!-- RMSE = 1.59 [1.25, 1.95] -->
    <defs>
     <path d="M 18.296875 33 
L 58 33 
L 58 41.21875 
L 18.296875 41.21875 
L 18.296875 64.78125 
L 59.5 64.78125 
L 59.5 73 
L 9 73 
L 9 0 
L 61.296875 0 
L 61.296875 8.21875 
L 18.296875 8.21875 
z
" id="Nimbus_Sans_L_Regular-69"/>
     <path d="M 25 73 
L 6.40625 73 
L 6.40625 -21.203125 
L 25 -21.203125 
L 25 -14 
L 14.703125 -14 
L 14.703125 65.78125 
L 25 65.78125 
z
" id="Nimbus_Sans_L_Regular-91"/>
     <path d="M 8.703125 10 
L 8.703125 -0.421875 
L 14.703125 -0.421875 
L 14.703125 -2.21875 
C 14.703125 -9.109375 13.40625 -11.09375 8.703125 -11.09375 
L 8.703125 -15 
C 15.703125 -15 19.203125 -10.53125 19.203125 -1.96875 
L 19.203125 10 
z
" id="Nimbus_Sans_L_Regular-44"/>
     <path d="M 2.296875 -21.203125 
L 20.90625 -21.203125 
L 20.90625 73 
L 2.296875 73 
L 2.296875 65.78125 
L 12.59375 65.78125 
L 12.59375 -14 
L 2.296875 -14 
z
" id="Nimbus_Sans_L_Regular-93"/>
    </defs>
    <g style="fill:#262626;" transform="translate(59.040569 29.013157)scale(0.14 -0.14)">
     <use transform="scale(0.996264)" xlink:href="#Nimbus_Sans_L_Regular-82"/>
     <use transform="translate(71.929985 0)scale(0.996264)" xlink:href="#Nimbus_Sans_L_Regular-77"/>
     <use transform="translate(154.918415 0)scale(0.996264)" xlink:href="#Nimbus_Sans_L_Regular-83"/>
     <use transform="translate(221.368446 0)scale(0.996264)" xlink:href="#Nimbus_Sans_L_Regular-69"/>
     <use transform="translate(315.513647 0)scale(0.996264)" xlink:href="#Nimbus_Sans_L_Regular-61"/>
     <use transform="translate(401.390309 0)scale(0.996264)" xlink:href="#Nimbus_Sans_L_Regular-49"/>
     <use transform="translate(456.781986 0)scale(0.996264)" xlink:href="#Nimbus_Sans_L_Regular-46"/>
     <use transform="translate(484.477156 0)scale(0.996264)" xlink:href="#Nimbus_Sans_L_Regular-53"/>
     <use transform="translate(539.868833 0)scale(0.996264)" xlink:href="#Nimbus_Sans_L_Regular-57"/>
     <use transform="translate(622.95568 0)scale(0.996264)" xlink:href="#Nimbus_Sans_L_Regular-91"/>
     <use transform="translate(650.650849 0)scale(0.996264)" xlink:href="#Nimbus_Sans_L_Regular-49"/>
     <use transform="translate(706.042526 0)scale(0.996264)" xlink:href="#Nimbus_Sans_L_Regular-46"/>
     <use transform="translate(733.737696 0)scale(0.996264)" xlink:href="#Nimbus_Sans_L_Regular-50"/>
     <use transform="translate(789.129373 0)scale(0.996264)" xlink:href="#Nimbus_Sans_L_Regular-53"/>
     <use transform="translate(844.52105 0)scale(0.996264)" xlink:href="#Nimbus_Sans_L_Regular-44"/>
     <use transform="translate(899.911389 0)scale(0.996264)" xlink:href="#Nimbus_Sans_L_Regular-49"/>
     <use transform="translate(955.303066 0)scale(0.996264)" xlink:href="#Nimbus_Sans_L_Regular-46"/>
     <use transform="translate(982.998235 0)scale(0.996264)" xlink:href="#Nimbus_Sans_L_Regular-57"/>
     <use transform="translate(1038.389912 0)scale(0.996264)" xlink:href="#Nimbus_Sans_L_Regular-53"/>
     <use transform="translate(1093.781589 0)scale(0.996264)" xlink:href="#Nimbus_Sans_L_Regular-93"/>
    </g>
    <!-- R$^2$ = 0.61 [0.40, 0.79] -->
    <g style="fill:#262626;" transform="translate(59.040569 45.928353)scale(0.14 -0.14)">
     <use transform="scale(0.996264)" xlink:href="#Nimbus_Sans_L_Regular-82"/>
     <use transform="translate(71.929985 36.153639)scale(0.697382)" xlink:href="#Nimbus_Sans_L_Regular-50"/>
     <use transform="translate(138.897287 0)scale(0.996264)" xlink:href="#Nimbus_Sans_L_Regular-61"/>
     <use transform="translate(224.773949 0)scale(0.996264)" xlink:href="#Nimbus_Sans_L_Regular-48"/>
     <use transform="translate(280.165626 0)scale(0.996264)" xlink:href="#Nimbus_Sans_L_Regular-46"/>
     <use transform="translate(307.860796 0)scale(0.996264)" xlink:href="#Nimbus_Sans_L_Regular-54"/>
     <use transform="translate(363.252473 0)scale(0.996264)" xlink:href="#Nimbus_Sans_L_Regular-49"/>
     <use transform="translate(446.33932 0)scale(0.996264)" xlink:href="#Nimbus_Sans_L_Regular-91"/>
     <use transform="translate(474.034489 0)scale(0.996264)" xlink:href="#Nimbus_Sans_L_Regular-48"/>
     <use transform="translate(529.426166 0)scale(0.996264)" xlink:href="#Nimbus_Sans_L_Regular-46"/>
     <use transform="translate(557.121336 0)scale(0.996264)" xlink:href="#Nimbus_Sans_L_Regular-52"/>
     <use transform="translate(612.513013 0)scale(0.996264)" xlink:href="#Nimbus_Sans_L_Regular-48"/>
     <use transform="translate(667.90469 0)scale(0.996264)" xlink:href="#Nimbus_Sans_L_Regular-44"/>
     <use transform="translate(723.295029 0)scale(0.996264)" xlink:href="#Nimbus_Sans_L_Regular-48"/>
     <use transform="translate(778.686706 0)scale(0.996264)" xlink:href="#Nimbus_Sans_L_Regular-46"/>
     <use transform="translate(806.381875 0)scale(0.996264)" xlink:href="#Nimbus_Sans_L_Regular-55"/>
     <use transform="translate(861.773552 0)scale(0.996264)" xlink:href="#Nimbus_Sans_L_Regular-57"/>
     <use transform="translate(917.165229 0)scale(0.996264)" xlink:href="#Nimbus_Sans_L_Regular-93"/>
    </g>
   </g>
  </g>
 </g>
 <defs>
  <clipPath id="p2220ff6c74">
   <rect height="326.16" width="401.76" x="51.022969" y="11.813908"/>
  </clipPath>
 </defs>
</svg>
